<?xml version="1.0" encoding="UTF-8"?>
<svg width="302px" height="34px" viewBox="0 0 302 34" version="1.1" xmlns="http://www.w3.org/2000/svg" xmlns:xlink="http://www.w3.org/1999/xlink">
    <title>Group</title>
    <g id="Symbols" stroke="none" stroke-width="1" fill="none" fill-rule="evenodd">
        <g id="logo-copy" transform="translate(0.000000, -11.000000)" fill="#FFFFFF">
            <g id="Group" transform="translate(0.000600, 11.032500)">
                <path d="M6.6199629,30.9598797 C6.6199629,31.4568875 6.21332017,31.8635302 5.71631239,31.8635302 L0.903650509,31.8635302 C0.406642729,31.8635302 0,31.4568875 0,30.9598797 L0,1.03386655 C0,0.536858767 0.406642729,0.130216038 0.903650509,0.130216038 L18.1892196,0.130216038 C18.6862274,0.130216038 19.0928701,0.536858767 19.0928701,1.03386655 L19.0928701,4.73973728 C19.0928701,5.23674506 18.6862274,5.64338779 18.1892196,5.64338779 L7.52361341,5.64338779 C7.02660563,5.64338779 6.6199629,6.05003052 6.6199629,6.5470383 L6.6199629,12.9224734 C6.6199629,13.4194811 7.02660563,13.8261239 7.52361341,13.8261239 L17.3858743,13.8261239 C17.8828821,13.8261239 18.2895248,14.2327666 18.2895248,14.7297744 L18.2895248,18.4141382 C18.2895248,18.911146 17.8828821,19.3177887 17.3858743,19.3177887 L7.52361341,19.3177887 C7.02660563,19.3177887 6.6199629,19.7244315 6.6199629,20.2214393 L6.6199629,30.9598797 Z" id="Fill-16"></path>
                <path d="M44.2993697,30.9598797 C44.2993697,31.4568875 43.892727,31.8635302 43.3957192,31.8635302 L26.0232189,31.8635302 C25.5262111,31.8635302 25.1195684,31.4568875 25.1195684,30.9598797 L25.1195684,1.03386655 C25.1195684,0.536858767 25.5262111,0.130216038 26.0232189,0.130216038 L43.3957192,0.130216038 C43.892727,0.130216038 44.2993697,0.536858767 44.2993697,1.03386655 L44.2993697,4.73973728 C44.2993697,5.23674506 43.892727,5.64338779 43.3957192,5.64338779 L32.7518006,5.64338779 C32.2547928,5.64338779 31.8481501,6.05003052 31.8481501,6.5470383 L31.8481501,11.7072442 C31.8481501,12.2042519 32.2547928,12.6108947 32.7518006,12.6108947 L42.5925546,12.6108947 C43.0895624,12.6108947 43.4962051,13.0175374 43.4962051,13.5145452 L43.4962051,17.2205966 C43.4962051,17.7176044 43.0895624,18.1242472 42.5925546,18.1242472 L32.7518006,18.1242472 C32.2547928,18.1242472 31.8481501,18.5308899 31.8481501,19.0278977 L31.8481501,25.4033327 C31.8481501,25.9003405 32.2547928,26.3069832 32.7518006,26.3069832 L43.3957192,26.3069832 C43.892727,26.3069832 44.2993697,26.713626 44.2993697,27.2106338 L44.2993697,30.9598797 Z" id="Fill-17"></path>
                <path d="M100.325701,30.9598797 C100.325701,31.4568875 99.9190585,31.8635302 99.4220507,31.8635302 L82.0495504,31.8635302 C81.5525427,31.8635302 81.1458999,31.4568875 81.1458999,30.9598797 L81.1458999,1.03386655 C81.1458999,0.536858767 81.5525427,0.130216038 82.0495504,0.130216038 L99.4220507,0.130216038 C99.9190585,0.130216038 100.325701,0.536858767 100.325701,1.03386655 L100.325701,4.73973728 C100.325701,5.23674506 99.9190585,5.64338779 99.4220507,5.64338779 L88.7781321,5.64338779 C88.2811244,5.64338779 87.8744816,6.05003052 87.8744816,6.5470383 L87.8744816,11.7072442 C87.8744816,12.2042519 88.2811244,12.6108947 88.7781321,12.6108947 L98.6188862,12.6108947 C99.115894,12.6108947 99.5225367,13.0175374 99.5225367,13.5145452 L99.5225367,17.2205966 C99.5225367,17.7176044 99.115894,18.1242472 98.6188862,18.1242472 L88.7781321,18.1242472 C88.2811244,18.1242472 87.8744816,18.5308899 87.8744816,19.0278977 L87.8744816,25.4033327 C87.8744816,25.9003405 88.2811244,26.3069832 88.7781321,26.3069832 L99.4220507,26.3069832 C99.9190585,26.3069832 100.325701,26.713626 100.325701,27.2106338 L100.325701,30.9598797 Z" id="Fill-18"></path>
                <path d="M229.547724,30.9598797 C229.547724,31.4568875 229.141081,31.8635302 228.644073,31.8635302 L211.271573,31.8635302 C210.774565,31.8635302 210.367923,31.4568875 210.367923,30.9598797 L210.367923,1.03386655 C210.367923,0.536858767 210.774565,0.130216038 211.271573,0.130216038 L228.644073,0.130216038 C229.141081,0.130216038 229.547724,0.536858767 229.547724,1.03386655 L229.547724,4.73973728 C229.547724,5.23674506 229.141081,5.64338779 228.644073,5.64338779 L218.000155,5.64338779 C217.503147,5.64338779 217.096504,6.05003052 217.096504,6.5470383 L217.096504,11.7072442 C217.096504,12.2042519 217.503147,12.6108947 218.000155,12.6108947 L227.840909,12.6108947 C228.337917,12.6108947 228.744559,13.0175374 228.744559,13.5145452 L228.744559,17.2205966 C228.744559,17.7176044 228.337917,18.1242472 227.840909,18.1242472 L218.000155,18.1242472 C217.503147,18.1242472 217.096504,18.5308899 217.096504,19.0278977 L217.096504,25.4033327 C217.096504,25.9003405 217.503147,26.3069832 218.000155,26.3069832 L228.644073,26.3069832 C229.141081,26.3069832 229.547724,26.713626 229.547724,27.2106338 L229.547724,30.9598797 Z" id="Fill-19"></path>
                <path d="M69.9043611,0.9872924 C70.0619577,0.515948294 70.5972803,0.130270257 71.0942881,0.130270257 L76.0808123,0.130270257 C76.5778201,0.130270257 76.8536142,0.515225374 76.6936681,0.985846559 L66.4876585,31.0080081 C66.3277124,31.4786293 65.7902211,31.8635844 65.2932133,31.8635844 L59.7639566,31.8635844 C59.2669488,31.8635844 58.7296382,31.4784486 58.5700535,31.0078274 L48.3848279,0.986027289 C48.2250625,0.515406104 48.5010373,0.130270257 48.9980451,0.130270257 L53.9845694,0.130270257 C54.4815771,0.130270257 55.0147309,0.516671215 55.1692552,0.989099701 L62.2724904,22.9864833 C62.425388,23.4592732 62.6749763,23.4592732 62.8273318,22.9861218 L69.9043611,0.9872924 Z" id="Fill-20"></path>
                <path d="M112.99658,13.6749251 L112.99658,6.9085708 C112.99658,6.41156302 113.403223,6.00492029 113.900231,6.00492029 L114.133373,6.00492029 L115.037023,6.00492029 C117.207592,6.00492029 118.810125,6.323186 119.844805,6.95971741 C120.879124,7.59679102 121.396554,8.66743615 121.396554,10.1720142 C121.396554,11.6914122 120.889787,12.8059747 119.877156,13.5146175 C118.864164,14.2241639 117.294342,14.5785756 115.167149,14.5785756 L113.900231,14.5785756 C113.403223,14.5785756 112.99658,14.1719329 112.99658,13.6749251 M131.163209,31.5635905 C131.148027,31.5353966 131.131039,31.507022 131.111339,31.4782859 L122.790344,19.1488784 C122.572023,18.8237449 122.605638,18.419271 122.838057,18.1378742 C124.35113,17.3892901 125.55931,16.4156971 126.466214,15.2199867 C126.531277,15.1397425 126.593087,15.0598598 126.649474,14.9799771 C127.676563,13.5258227 128.19056,11.8650938 128.19056,9.99833262 C128.19056,6.80085566 127.15588,4.41666415 125.08652,2.84666176 C123.01698,1.27647864 119.826371,0.491748534 115.514512,0.491748534 L114.610862,0.491748534 L109.821695,0.491748534 L107.171649,0.491748534 C106.674641,0.491748534 106.267999,0.898391263 106.267999,1.39539904 L106.267999,31.3214122 C106.267999,31.81842 106.674641,32.2250627 107.171649,32.2250627 L109.821695,32.2250627 L112.09293,32.2250627 L112.99658,32.2250627 L112.99658,31.3214122 L112.99658,20.9520226 C112.99658,20.4550148 113.403223,20.0483721 113.900231,20.0483721 L115.674277,20.0483721 C116.171285,20.0483721 116.792816,20.3935666 117.055417,20.8155714 L120.365669,26.136627 L124.15323,32.2250627 L125.056881,32.2250627 L130.716444,32.2250627 L131.620094,32.2250627 C131.482739,32.027344 131.330384,31.8066725 131.163209,31.5635905" id="Fill-21"></path>
                <path d="M185.830811,13.6749251 L185.830811,6.9085708 C185.830811,6.41156302 186.237454,6.00492029 186.734462,6.00492029 L186.967604,6.00492029 L187.871254,6.00492029 C190.041823,6.00492029 191.644356,6.323186 192.679036,6.95971741 C193.713355,7.59679102 194.230785,8.66743615 194.230785,10.1720142 C194.230785,11.6914122 193.724018,12.8059747 192.711387,13.5146175 C191.698395,14.2241639 190.128573,14.5785756 188.00138,14.5785756 L186.734462,14.5785756 C186.237454,14.5785756 185.830811,14.1719329 185.830811,13.6749251 M203.99744,31.5635905 C203.982258,31.5353966 203.96527,31.507022 203.94557,31.4782859 L195.624575,19.1488784 C195.406254,18.8237449 195.439869,18.419271 195.672288,18.1378742 C197.185361,17.3892901 198.393541,16.4156971 199.300445,15.2199867 C199.365508,15.1397425 199.427318,15.0598598 199.483705,14.9799771 C200.510794,13.5258227 201.024791,11.8650938 201.024791,9.99833262 C201.024791,6.80085566 199.990111,4.41666415 197.920751,2.84666176 C195.851211,1.27647864 192.660602,0.491748534 188.348743,0.491748534 L187.445093,0.491748534 L182.655926,0.491748534 L180.00588,0.491748534 C179.508872,0.491748534 179.10223,0.898391263 179.10223,1.39539904 L179.10223,31.3214122 C179.10223,31.81842 179.508872,32.2250627 180.00588,32.2250627 L182.655926,32.2250627 L184.927161,32.2250627 L185.830811,32.2250627 L185.830811,31.3214122 L185.830811,20.9520226 C185.830811,20.4550148 186.237454,20.0483721 186.734462,20.0483721 L188.508508,20.0483721 C189.005516,20.0483721 189.627047,20.3935666 189.889648,20.8155714 L193.1999,26.136627 L196.987461,32.2250627 L197.891112,32.2250627 L203.550675,32.2250627 L204.454325,32.2250627 C204.31697,32.027344 204.164615,31.8066725 203.99744,31.5635905" id="Fill-22"></path>
                <path d="M156.160983,26.6684254 C155.663975,26.6684254 155.257332,26.2617826 155.257332,25.7647749 L155.257332,6.90848043 C155.257332,6.41147265 155.663975,6.00482992 156.160983,6.00482992 L158.83868,6.00482992 C164.858258,6.00482992 167.868137,9.41249599 167.868137,16.2280089 C167.868137,23.1884673 164.626923,26.6684254 158.143954,26.6684254 L157.240303,26.6684254 L156.160983,26.6684254 Z M170.559931,4.59368929 C170.498844,4.5354942 170.434685,4.47838348 170.368899,4.4214535 C167.516617,1.80393944 163.55935,0.491658169 158.491498,0.491658169 L157.587847,0.491658169 L151.570438,0.491658169 L149.432401,0.491658169 C148.935394,0.491658169 148.528751,0.898300898 148.528751,1.39530868 L148.528751,31.3213218 C148.528751,31.8183296 148.935394,32.2249724 149.432401,32.2249724 L151.570438,32.2249724 L156.611182,32.2249724 L157.514832,32.2249724 C163.007943,32.2249724 167.234497,30.8913649 170.199555,28.2310178 C170.26769,28.1739071 170.334018,28.1160735 170.396912,28.0575169 C173.370826,25.2791531 174.857331,21.2785115 174.857331,16.0543272 C174.857331,11.1491315 173.424865,7.32885865 170.559931,4.59368929 L170.559931,4.59368929 Z" id="Fill-23"></path>
                <path d="M252.048278,18.6665278 C252.545286,18.6665278 252.831382,18.2781388 252.684087,17.8035416 C252.684087,17.8035416 249.627218,7.95140156 249.359557,7.05425733 C249.091534,6.15711311 249.003338,5.80378576 249.003338,5.80378576 C248.882791,5.32141712 248.67224,5.31798324 248.535247,5.7956529 L244.945766,17.8020958 C244.80082,18.2775966 245.088904,18.6665278 245.585912,18.6665278 L252.048278,18.6665278 Z M257.762603,31.8636206 C257.265595,31.8636206 256.740393,31.4745087 256.595628,30.9990078 L254.821762,25.1744381 C254.676998,24.6989372 254.151796,24.310006 253.654788,24.310006 L243.892471,24.310006 C243.395463,24.310006 242.870442,24.6989372 242.725677,25.1744381 L240.951631,30.9990078 C240.806866,31.4745087 240.281664,31.8636206 239.784656,31.8636206 L234.342331,31.8636206 C233.845323,31.8636206 233.573505,31.4797499 233.738331,31.0111167 L244.339236,0.85250389 C244.504062,0.383690006 245.045529,-1.54099753e-14 245.542537,-1.54099753e-14 L251.961528,-1.54099753e-14 C252.458536,-1.54099753e-14 253.000364,0.383509276 253.165732,0.85214243 L263.807844,31.0114782 C263.973212,31.4799306 263.701936,31.8636206 263.204928,31.8636206 L257.762603,31.8636206 Z" id="Fill-24"></path>
                <path d="M282.261345,31.8635302 C281.764337,31.8635302 281.238413,31.4747798 281.092563,30.9996403 L273.98228,7.83112567 C273.836611,7.35598624 273.673231,6.96741652 273.619374,6.96741652 C273.565516,6.96741652 273.541298,7.37351706 273.565516,7.86998265 L273.909807,16.2003752 C273.923362,16.6972023 273.934386,17.510307 273.934386,18.0073148 L273.934386,30.9598797 C273.934386,31.4568875 273.527744,31.8635302 273.030736,31.8635302 L268.825508,31.8635302 C268.3285,31.8635302 267.921857,31.4568875 267.921857,30.9598797 L267.921857,1.03386655 C267.921857,0.536858767 268.3285,0.130216038 268.825508,0.130216038 L276.177428,0.130216038 C276.674435,0.130216038 277.201264,0.518605027 277.348197,0.993383004 L284.324198,23.5334991 C284.471132,24.0082771 284.620596,24.3968468 284.65638,24.3968468 C284.692346,24.3968468 284.848316,24.0104458 285.003382,23.5383788 L292.406268,0.988864752 C292.561334,0.516616996 293.094669,0.130216038 293.591677,0.130216038 L300.943777,0.130216038 C301.440785,0.130216038 301.847428,0.536858767 301.847428,1.03386655 L301.847428,30.9598797 C301.847428,31.4568875 301.440785,31.8635302 300.943777,31.8635302 L296.478117,31.8635302 C295.981109,31.8635302 295.574467,31.4568875 295.574467,30.9598797 L295.574467,17.7468827 C295.574467,17.2498749 295.577177,16.4365895 295.580611,15.9395817 C295.580611,15.9395817 295.584949,15.3167858 295.607179,14.3907247 C295.628324,13.4644829 295.86237,7.9135386 295.86237,7.9135386 C295.883334,7.41707301 295.856406,7.01079174 295.802548,7.01079174 C295.74869,7.01079174 295.577539,7.39701197 295.42193,7.86907899 L287.804337,31.005243 C287.64909,31.47731 287.115213,31.8635302 286.618206,31.8635302 L282.261345,31.8635302 Z" id="Fill-25"></path>
            </g>
        </g>
    </g>
</svg>