<?xml version="1.0" encoding="UTF-8"?>
<svg width="294px" height="164px" viewBox="0 0 294 164" version="1.1" xmlns="http://www.w3.org/2000/svg" xmlns:xlink="http://www.w3.org/1999/xlink">
    <title>ill/p2</title>
    <defs>
        <polygon id="path-1" points="0.507387332 0.647092348 12.369307 0.647092348 12.369307 21.0189509 0.507387332 21.0189509"></polygon>
        <polygon id="path-3" points="0.474107886 0.181158839 37.4839565 0.181158839 37.4839565 15.5356201 0.474107886 15.5356201"></polygon>
        <polygon id="path-5" points="0 0.239788918 60.5524139 0.239788918 60.5524139 44.5629129 0 44.5629129"></polygon>
    </defs>
    <g id="Page-1" stroke="none" stroke-width="1" fill="none" fill-rule="evenodd">
        <g id="Fever_dream" transform="translate(-679.000000, -556.000000)">
            <g id="Group-5" transform="translate(402.000000, 178.000000)">
                <g id="Group" transform="translate(309.000000, 314.000000)">
                    <g id="ill/p2" transform="translate(107.000000, 128.000000) rotate(33.000000) translate(-107.000000, -128.000000) ">
                        <path d="M192.431095,28.3355525 C192.557335,28.2963757 192.694376,28.2571989 192.832092,28.2186976 C194.772944,27.699943 196.764426,27.4020644 198.768061,27.310877 C199.894767,41.0957003 201.009997,54.8805235 202.136704,68.6646712 C202.374332,71.5434892 202.599808,74.4493256 202.48707,77.3139588 C202.399985,79.2856317 202.161682,81.2437953 201.648622,83.1492728 C201.385341,84.0969456 201.047802,85.0432675 200.633979,85.9382544 C199.61866,88.1294522 198.141587,90.1139588 196.299972,91.5006818 C197.403051,90.022096 198.317783,88.4138216 198.842994,86.6387082 C199.106275,85.7957319 199.268294,84.9264127 199.368881,84.0442596 C199.606509,81.9050723 199.456641,79.6868559 199.280445,77.5213256 C199.131253,75.6151726 198.967884,73.7090195 198.780212,71.8170512 C197.340269,57.2399113 194.961291,42.7816528 191.667581,28.5429193 C191.918035,28.4773995 192.155663,28.3997214 192.418269,28.3355525 L192.431095,28.3355525 Z" id="Fill-1" fill="#00DCD9"></path>
                        <path d="M165.056107,114.194373 C166.095729,112.405074 167.647735,110.86232 169.351634,109.70728 C172.294303,107.710615 175.701426,106.595428 178.918852,105.130351 C184.579388,102.536578 189.751167,98.8019504 194.059521,94.1858449 C194.835186,93.3300348 195.612877,92.4343726 196.300107,91.500209 C198.141722,90.1141615 199.618795,88.1296549 200.634114,85.9377815 C201.047262,85.0434702 201.384801,84.0971483 201.648757,83.1494755 C202.161817,81.2433224 202.399445,79.2858343 202.487205,77.313486 C202.599268,74.4488528 202.374467,71.5436918 202.136839,68.6648739 C201.010132,54.8807261 199.894227,41.0952274 198.768196,27.3110797 C199.206997,27.2854121 199.618795,27.2719029 200.058271,27.2719029 C200.5207,27.2719029 200.985155,27.2854121 201.447584,27.3110797 C202.750486,33.6124623 204.402404,39.8375177 206.38241,45.932209 C209.162385,54.5436707 210.689413,63.5036707 212.204965,72.3995018 C212.5047,74.2023092 212.781483,76.0307842 212.981306,77.8727683 C210.915565,86.741581 207.672486,95.2490216 202.599268,102.679101 C194.78523,114.116019 183.100965,122.33909 174.761716,133.24442 C174.148069,132.713507 173.50877,132.193402 172.870145,131.687481 C172.857994,131.675322 172.833016,131.662489 172.820189,131.648304 C167.397956,127.369254 161.160902,123.894003 156.402946,118.810478 C155.325521,117.656789 154.298726,116.359903 153.635123,114.920494 C156.290208,110.809634 159.972088,107.243871 163.828814,104.287375 C170.441211,99.2038501 177.892057,95.2226786 183.878656,89.4001984 C181.623893,94.1203251 178.468574,98.3743831 174.635476,101.849634 C172.331432,103.949644 169.764107,105.77947 167.786126,108.216536 C166.421117,109.927481 165.343691,112.028842 165.056107,114.194373" id="Fill-3" fill="#00DCD9"></path>
                        <g id="Group-7" transform="translate(197.123028, 0.028369)">
                            <mask id="mask-2" fill="white">
                                <use xlink:href="#path-1"></use>
                            </mask>
                            <g id="Clip-6"></g>
                            <path d="M0.61837224,17.9064232 C0.379394322,15.3525024 0.530611987,12.7587293 1.03084543,10.2426343 C4.52572871,7.11659736 7.943653,3.91490871 11.3129716,0.647024802 C12.0015521,2.06009077 12.4646562,3.53867652 12.3525931,5.08143113 C12.2898107,5.97574248 12.02653,6.8457372 11.6511861,7.6367029 C9.80957098,11.5395208 5.33919874,13.5240274 3.39767192,17.3755103 C2.82182965,18.5170406 2.50859306,19.7484074 2.39720505,21.0189509 C1.78355836,21.0054417 1.16923659,20.9662649 0.555589905,20.9027715 C0.856675079,19.9686079 0.705457413,18.9054311 0.61837224,17.9064232" id="Fill-5" fill="#F9416F" mask="url(#mask-2)"></path>
                        </g>
                        <path d="M197.741401,17.9347926 C197.828486,18.9338005 197.979703,19.9969773 197.678618,20.9311409 C196.814517,20.8399536 195.961893,20.6717636 195.136271,20.3860433 C193.946782,19.958476 192.832227,19.2965235 191.880366,18.4407135 L190.615268,16.8587821 C193.15829,14.7060855 195.673634,12.5142121 198.153874,10.2710037 C197.65364,12.7870987 197.502423,15.3808718 197.741401,17.9347926" id="Fill-8" fill="#F9416F"></path>
                        <path d="M192.83189,28.2184274 C192.694174,28.2576042 192.557132,28.296781 192.430893,28.3352823 L192.418741,28.3352823 C191.993442,26.9087071 191.55464,25.4692982 191.128666,24.0298892 C191.779442,23.9123588 192.443719,23.8346807 193.082344,23.7576781 C194.860502,23.5368021 196.864136,22.9275356 197.578369,21.216591 C197.616174,21.1247282 197.653978,21.0342164 197.678956,20.9308707 C198.292603,20.9950396 198.906249,21.0342164 199.519896,21.0477256 C199.305896,23.0964011 199.594155,25.2362639 200.057934,27.2721055 C199.619132,27.2721055 199.206659,27.2849393 198.767858,27.3112823 C196.764224,27.4017942 194.772741,27.6996728 192.83189,28.2184274" id="Fill-10" fill="#DBBCA5"></path>
                        <path d="M195.136001,20.3859757 C195.962298,20.671696 196.814247,20.839886 197.679023,20.9310734 C197.65337,21.0337435 197.616241,21.1242554 197.578437,21.2161182 C196.864203,22.9277383 194.860569,23.5370047 193.082411,23.7578807 C192.443787,23.8348834 191.779509,23.9125615 191.128058,24.0300918 C190.515762,22.0199177 189.902115,20.0097435 189.30062,17.9867356 C189.738746,17.6118544 190.177547,17.2349467 190.615673,16.8587145 L191.880771,18.4406459 C192.831957,19.2964559 193.946512,19.9584084 195.136001,20.3859757" id="Fill-12" fill="#F9416F"></path>
                        <path d="M171.255762,133.853011 L172.819919,131.648304 C172.832746,131.662489 172.857724,131.675322 172.87055,131.687481 C173.509175,132.193402 174.147799,132.713507 174.761446,133.24442 C183.10137,122.33909 194.78496,114.116019 202.599673,102.679101 C207.672216,95.2490216 210.915295,86.741581 212.981711,77.8727683 C213.808008,85.1339821 213.620336,92.5904042 210.70197,99.3720401 C207.647238,106.427238 201.9732,111.859977 196.451055,117.073191 C189.976374,123.180716 183.515194,129.275407 177.039837,135.384283 C176.451168,135.941539 175.863175,136.498795 175.274506,137.056726 C174.598077,136.472452 173.910172,135.903037 173.208765,135.35794 C172.569465,134.839185 171.905862,134.346098 171.255762,133.853011" id="Fill-14" fill="#00C2BF"></path>
                        <path d="M170.19042,38.8909256 C176.640798,46.1791578 183.101303,53.4802237 189.551681,60.7806142 C192.719151,64.3592106 195.913625,67.9648253 198.780685,71.8169836 C198.967681,73.708952 199.13105,75.615105 199.280918,77.521258 C199.457114,79.6867884 199.606306,81.9050047 199.369353,84.0441921 C189.238445,69.0408359 177.42929,55.2823557 164.216647,43.1186406 C164.504905,42.8592633 164.793164,42.6255536 165.081423,42.3925193 C166.270237,41.4448464 167.548161,40.6018702 168.826085,39.7730786 C169.276363,39.4873583 169.740142,39.1888042 170.19042,38.8909256" id="Fill-16" fill="#00C2BF"></path>
                        <path d="M163.452795,38.9942037 C164.192006,38.3727789 164.955521,37.6324728 165.031129,36.6598079 L165.031129,36.4787842 C165.68258,36.2835757 166.321205,36.0390586 166.947678,35.7796813 C167.372303,37.1657288 168.03658,38.5017921 168.825748,39.7730111 C167.547823,40.6018026 166.270574,41.4447789 165.081085,42.3924517 C164.792826,42.625486 164.505243,42.8591958 164.216984,43.1185731 L164.204158,43.1057393 C163.515577,42.4708053 162.827672,41.8480296 162.12559,41.2124201 L161.587552,40.4471219 C162.226852,39.9803778 162.839148,39.5001245 163.452795,38.9942037" id="Fill-18" fill="#DBBCA5"></path>
                        <path d="M164.341469,34.5083272 C163.002787,31.9530554 162.088056,29.1519156 161.661406,26.2859314 C163.641412,22.0332243 165.532983,17.7413404 167.34692,13.4089288 C168.524932,14.4079367 169.52675,15.5879683 170.015507,17.0665541 C170.290939,17.8960211 170.390175,18.8038417 170.34157,19.6866702 C170.140396,24.0298892 166.783904,27.6733298 166.483494,32.0178997 C166.396409,33.3019525 166.571254,34.5603377 166.947273,35.7795462 C166.321475,36.0389235 165.682175,36.2834406 165.030724,36.4786491 C165.017898,35.7795462 164.666857,35.129752 164.341469,34.5083272" id="Fill-20" fill="#F9416F"></path>
                        <path d="M165.031062,36.4789868 C164.267548,36.7126966 163.477705,36.881562 162.677062,36.9578892 C161.424115,37.0625858 160.146866,36.9065541 158.943876,36.5053298 L157.191371,35.5718417 C158.719074,32.4978153 160.208974,29.3987968 161.661743,26.2855937 C162.088393,29.1522533 163.00245,31.9527177 164.341806,34.5086649 C164.667194,35.1300897 165.01756,35.7792084 165.031062,36.4789868" id="Fill-22" fill="#F9416F"></path>
                        <path d="M156.402676,118.810816 C161.161307,123.894341 167.397686,127.369592 172.819919,131.648642 L171.255762,133.853349 C164.805383,129.094721 157.59284,125.424262 150.403926,121.884842 C151.104657,119.407249 152.232714,117.087037 153.634853,114.920156 C154.299131,116.359565 155.32525,117.657127 156.402676,118.810816" id="Fill-24" fill="#00C2BF"></path>
                        <path d="M185.179938,76.0179504 C178.067982,65.39699 170.152683,55.360304 161.525175,46.0362301 C161.863389,45.5559768 162.226582,45.102742 162.63838,44.66099 C163.128487,44.103734 163.666525,43.5856549 164.216714,43.1182354 C177.429358,55.2819504 189.238512,69.0411061 199.369421,84.0444623 C199.268159,84.9259398 199.10614,85.7959346 198.842859,86.6389108 C198.317648,88.4140243 197.402916,90.0222987 196.300512,91.500209 C195.612607,92.4343726 194.835591,93.3300348 194.05925,94.1858449 C189.750897,98.8019504 184.579118,102.536578 178.919257,105.130351 C175.701156,106.596103 172.294033,107.710615 169.352039,109.70728 C167.647465,110.86232 166.095459,112.405074 165.055837,114.194373 C165.343421,112.028842 166.421522,109.927481 167.785856,108.216536 C169.763837,105.77947 172.331837,103.949644 174.635881,101.849634 C178.468979,98.3743831 181.623623,94.1203251 183.878386,89.4001984 L183.891213,89.3866892 C184.179471,89.1023198 184.467055,88.8165995 184.755314,88.5187208 C186.131799,87.1056549 187.472506,85.4588792 187.785743,83.4608633 C188.198216,80.7887367 186.670512,78.2348158 185.179938,76.0179504" id="Fill-26" fill="#00C2BF"></path>
                        <path d="M162.125725,41.2124876 C162.827807,41.8474216 163.515712,42.4708728 164.204293,43.1058069 L164.217119,43.1186406 C163.666255,43.5853847 163.128217,44.1034639 162.638785,44.6607198 C161.774684,43.6245615 160.911258,42.5863768 160.047157,41.549543 C160.572368,41.1996538 161.086103,40.8234216 161.587687,40.4471894 L162.125725,41.2124876 Z" id="Fill-28" fill="#DBBCA5"></path>
                        <path d="M165.031062,36.6600781 C164.955453,37.632743 164.191939,38.3723736 163.452727,38.9944739 C162.839081,39.4997193 162.226784,39.980648 161.587485,40.4473921 C161.085901,40.8236243 160.572841,41.1998565 160.046955,41.5497456 C158.831813,40.0839937 157.618021,38.6189172 156.402879,37.1531652 C156.665485,36.635086 156.928765,36.1028222 157.191371,35.5719092 L158.943876,36.5053974 C160.146866,36.9066216 161.424115,37.0626533 162.677062,36.9579567 C163.477705,36.8816296 164.267548,36.7127641 165.031062,36.4790544 L165.031062,36.6600781 Z" id="Fill-30" fill="#F9416F"></path>
                        <path d="M64.183258,197.21578 C63.5250562,195.381226 61.725971,195.826356 60.3616366,195.976308 C58.7704757,196.149902 57.5222549,196.575443 55.9202927,196.118155 C54.8604189,195.816899 53.7944694,195.550092 52.7271697,195.298145 C51.985258,195.1232 50.8774536,194.681448 50.0977375,194.787496 C49.5698259,194.901649 49.2106839,195.118472 48.8461413,195.306926 C47.8024694,195.845269 46.1026208,195.908087 45.5679584,197.042187 C45.1062044,198.018229 44.571542,199.079379 44.2886839,200.183759 C44.0767091,201.013226 43.7735987,203.966345 45.1676366,202.231084 C45.5301539,202.378335 45.9392517,202.243242 46.2268353,201.99197 C46.6818385,201.592773 46.9525451,200.928794 47.2691571,200.406662 C47.4318511,200.141205 47.585094,199.861564 47.8085451,199.651496 C48.4842991,199.012509 50.0558826,199.391443 50.7539142,199.987875 C50.9463117,200.151337 51.1022549,200.456646 51.2548227,200.716023 C50.5243874,201.004445 49.7959773,201.300973 49.0371886,201.481321 C48.8407407,201.527928 48.6436177,201.569131 48.4539205,201.637353 C48.1724126,201.739348 47.9118322,201.895379 47.6586776,202.056139 C47.3886461,202.228382 47.113889,202.418862 46.9538953,202.70796 C46.7587975,203.057849 46.7608227,203.49825 46.7689237,203.915685 C46.7689237,203.996741 46.7871508,204.100762 46.9862991,204.078472 C47.6215483,203.638071 48.3958637,203.448941 49.1708543,203.411116 C50.4386524,203.348298 51.7091508,203.619833 52.9755987,203.607675 C53.6729552,203.600245 54.2987533,203.691432 54.9819331,203.451643 C55.2789678,203.346947 55.5422486,203.161195 55.7609741,202.932889 C55.8190309,202.910598 55.879788,202.895738 55.9358196,202.870746 C57.5620845,202.150704 58.636135,200.848414 60.4757249,200.636994 C61.1035483,200.564044 61.7448732,200.584308 62.3639205,200.464751 C63.8288416,200.180382 64.7570751,198.815274 64.183258,197.21578" id="Fill-32" fill="#DBBCA5"></path>
                        <path d="M109.363384,225.598075 L114.824097,229.41646 C112.999358,230.537727 110.032387,231.421231 109.443718,233.751574 C108.715983,236.62769 107.815428,239.446392 106.750828,242.17931 C106.046046,243.982117 105.269705,245.745072 104.420456,247.468851 L104.312444,247.473579 C104.174727,247.785642 104.030936,248.113241 103.757529,248.317906 C103.492223,248.514465 103.063548,248.534729 102.859674,248.260492 C102.746261,248.099056 102.736809,247.881558 102.734109,247.671489 C102.714532,245.439088 103.181686,243.212091 104.080891,241.180977 C104.475813,240.303553 104.951068,239.457874 105.215699,238.532492 C105.474929,237.606434 105.503958,236.547985 105.028702,235.719194 C104.792425,235.555732 104.454885,235.682719 104.277339,235.9117 C104.105869,236.140682 104.041737,236.433157 103.970179,236.716851 C103.842589,237.231553 103.666393,237.746254 103.317377,238.128566 C102.967686,238.512903 102.419522,238.740534 101.936841,238.564239 C102.797567,235.173421 102.661876,231.977136 105.138065,229.396872 C106.411939,228.071616 107.852557,226.807151 109.363384,225.598075" id="Fill-34" fill="#DBBCA5"></path>
                        <path d="M141.400669,138.561452 C144.468902,134.788323 146.259211,129.949991 146.497514,125.035331 C147.210397,123.700618 147.811218,122.299711 148.275672,120.846793 C148.988555,121.197357 149.689962,121.535088 150.404196,121.884977 C157.592435,125.424397 164.805653,129.09418 171.256032,133.852808 C164.505243,142.723647 156.928833,150.906191 148.651016,158.259268 C144.030101,162.370128 139.108101,166.324956 135.827218,171.642191 C133.234915,175.869231 131.820625,180.770381 131.48241,185.776903 L129.014997,185.569537 C128.476284,185.07645 127.913268,184.60903 127.336076,184.169304 C126.397716,179.914571 124.769426,175.894898 122.277035,172.470983 C121.676215,171.642191 121.024763,170.837716 120.31188,170.085252 C119.509211,169.242275 118.5587,168.606666 117.519079,168.088587 C120.812114,159.8797 125.984568,152.501632 132.50853,146.717653 C135.526808,144.046202 138.845495,141.699647 141.400669,138.561452" id="Fill-36" fill="#FF9F2D"></path>
                        <path d="M128.413974,195.540973 C128.502409,191.75501 128.176346,187.877184 127.335873,184.168899 C127.913741,184.6093 128.476756,185.076044 129.015469,185.569131 L131.482208,185.777174 C131.306012,188.265575 131.407274,190.782345 131.745488,193.24643 C132.471198,198.575823 134.299312,204.03558 132.872195,209.208941 C131.831898,212.956403 129.215293,215.978419 126.673621,218.870071 C123.792384,222.151464 120.913173,225.419348 118.019785,228.712224 L118.006958,228.725733 C116.379343,230.035453 114.751053,231.358007 113.111286,232.667728 C112.88446,232.330672 112.647507,232.005775 112.396378,231.682904 C111.9461,231.099306 111.482996,230.527865 111.007066,229.970609 C110.292832,229.102641 109.565772,228.244804 108.840738,227.376836 C108.514674,226.974261 108.17646,226.560203 107.838245,226.157627 C112.422031,221.982598 116.804643,217.56035 120.97528,212.931411 C123.392738,210.233617 125.797368,207.381142 127.073943,203.944393 C128.062933,201.273617 128.33904,198.394799 128.413974,195.540973" id="Fill-38" fill="#FF9F2D"></path>
                        <path d="M131.995673,142.451977 C128.88896,149.765201 121.150531,154.031417 117.819016,161.241296 C116.917786,163.173792 116.379073,165.248811 115.866013,167.335987 C114.839218,166.90842 113.798922,166.544346 112.823433,166.130964 L109.466941,165.754731 C109.955023,163.252146 109.955023,160.657697 109.32855,158.078109 C108.777685,155.820716 107.763042,153.616008 107.813673,151.295122 C107.926411,147.029581 111.532682,143.799523 115.101824,141.686003 C118.670966,139.573159 122.716038,137.796694 124.969452,134.24309 C128.451509,128.796167 126.410745,121.521444 127.386909,115.06403 C127.999881,111.095016 129.841496,107.360388 132.545862,104.494404 C131.869433,106.310045 131.45696,108.255375 131.318568,110.174362 C130.893944,115.608452 132.14554,121.002689 132.96036,126.384093 C133.485572,129.885687 133.823786,133.529803 133.397811,137.031396 C133.172335,138.899048 132.733534,140.726847 131.995673,142.451977" id="Fill-40" fill="#DD2454"></path>
                        <path d="M148.651151,158.259335 C156.928968,150.906259 164.504703,142.723715 171.255491,133.852876 C171.905592,134.346639 172.56987,134.839726 173.208495,135.357805 C173.909902,135.902902 174.598482,136.472992 175.274911,137.056591 C175.888558,137.588855 176.489378,138.133953 177.090198,138.691208 C170.127435,145.822734 162.926368,152.709066 155.501176,159.322512 C155.250722,160.696401 155.125157,162.110818 154.912507,163.498892 C154.562141,165.857604 153.835081,168.321013 152.031946,169.799599 C150.641958,170.941129 148.801018,171.317361 147.248337,172.225858 C145.144116,173.470058 143.691346,175.686923 142.840747,178.047662 C141.851081,180.770449 141.637756,183.519578 141.525018,186.373404 C141.400804,189.66628 140.724375,192.999683 140.486072,196.306069 C140.185662,200.780327 140.059422,205.409266 138.219157,209.48095 C136.140589,214.058554 132.145473,217.327789 128.288072,220.438966 C124.870148,223.188095 121.450873,225.950058 118.019447,228.712021 C120.912835,225.419145 123.792722,222.151937 126.673283,218.869868 C129.214955,215.978892 131.832236,212.956201 132.871857,209.209414 C134.298974,204.035377 132.470861,198.576296 131.745151,193.246227 C131.406936,190.782142 131.30635,188.266047 131.48187,185.776971 C131.820085,180.770449 133.23505,175.869298 135.827353,171.641583 C139.107561,166.324348 144.029561,162.36952 148.651151,158.259335" id="Fill-42" fill="#EE8505"></path>
                        <path d="M127.336076,184.168967 C124.231388,181.769727 120.599464,180.095932 116.792019,179.279299 C118.395331,176.828049 120.236271,174.545663 122.277035,172.47132 C124.769426,175.89456 126.397716,179.914909 127.336076,184.168967" id="Fill-44" fill="#CCA795"></path>
                        <path d="M132.508597,146.71745 C125.984635,152.501429 120.812181,159.879498 117.519146,168.08906 C116.980433,167.815498 116.430244,167.570305 115.866553,167.33592 C116.378938,165.248743 116.917651,163.173725 117.818881,161.241228 C121.150396,154.03135 128.8895,149.765134 131.995538,142.451909 C132.733399,140.72678 133.1722,138.89898 133.397676,137.031329 C133.798673,136.784785 134.211821,136.551075 134.649948,136.357218 C139.647556,134.060648 143.855323,129.988965 146.497582,125.035128 C146.259279,129.949788 144.46897,134.78812 141.400736,138.56125 C138.845563,141.699445 135.526875,144.045999 132.508597,146.71745" id="Fill-46" fill="#EE8505"></path>
                        <path d="M117.519079,168.088789 C118.5587,168.606869 119.509211,169.242478 120.31188,170.085454 C121.024763,170.837919 121.676215,171.641718 122.277035,172.471185 C120.236271,174.546204 118.395331,176.827913 116.792019,179.279164 C116.166896,180.239671 115.565401,181.212336 115.013861,182.209993 C114.487975,180.291006 113.473331,178.527375 112.121823,177.113634 C113.12364,175.752578 113.899981,174.144304 114.45017,172.563048 C115.026688,170.850077 115.439836,169.086446 115.866486,167.336325 C116.430177,167.570035 116.980366,167.815903 117.519079,168.088789" id="Fill-48" fill="#CCA795"></path>
                        <path d="M112.121756,177.113904 C110.806027,178.929545 109.065674,180.342611 106.924324,180.797197 C103.756179,181.471308 100.5131,179.90221 97.3186265,179.643508 C98.2833142,179.254442 99.2480019,179.020057 100.400362,178.800532 C102.35269,178.423624 103.642765,177.023392 104.870734,175.467128 C107.100519,172.639645 108.764589,169.294083 109.466671,165.754664 L112.823163,166.130896 C113.798652,166.544954 114.838948,166.908353 115.866418,167.33592 C115.439768,169.086717 115.02662,170.850347 114.450103,172.562643 C113.899914,174.144574 113.123573,175.752849 112.121756,177.113904" id="Fill-50" fill="#DD2454"></path>
                        <path d="M93.0481451,188.136291 C92.1340883,187.825579 91.2450095,187.449347 90.4315394,186.904249 C90.0555205,186.657706 89.7044795,186.373336 89.3797666,186.049115 C89.8300442,185.127785 90.3815836,183.066951 90.744776,182.547521 C91.6838107,181.224967 93.0359937,180.200291 94.5886751,179.811901 C95.4905804,179.5917 96.4053123,179.565357 97.318694,179.643035 C100.513167,179.902413 103.756246,181.47151 106.924391,180.796724 C109.065741,180.342814 110.806095,178.929748 112.121823,177.114107 C113.473331,178.527173 114.487975,180.290803 115.013861,182.20979 C115.026688,182.236133 115.026688,182.262476 115.038839,182.288144 C115.38988,183.610022 115.515445,185.037273 115.101621,186.346993 C114.475148,188.343658 112.647035,189.74389 110.694707,190.354508 C109.077893,190.872587 107.363192,190.936756 105.659293,190.899605 C105.383186,191.664228 105.009192,192.376165 104.532587,193.025959 C103.769073,192.54503 102.97923,192.104629 102.16576,191.703405 C99.9987571,190.561874 97.7453438,189.628386 95.4277981,188.888756 C94.639306,188.642212 93.8379874,188.409178 93.0481451,188.136291" id="Fill-52" fill="#DBBCA5"></path>
                        <path d="M59.0865476,201.156424 C59.0109388,199.846704 58.9366801,198.52415 58.8610713,197.21443 C64.8848,196.992878 70.9335066,196.552477 76.8060177,195.217765 C82.5921186,193.89386 88.2398284,191.66416 93.0484151,188.136224 C93.8382574,188.40911 94.639576,188.642145 95.4280681,188.888688 C97.7456139,189.628319 99.9990271,190.561807 102.165355,191.703337 C98.4206927,195.113068 93.1361754,196.941543 88.5152606,198.420129 C79.0992606,201.42796 69.0925666,204.541163 59.1614814,202.582324 C59.1365035,202.102746 59.1115256,201.636002 59.0865476,201.156424" id="Fill-54" fill="#FF9F2D"></path>
                        <path d="M88.7036076,185.271185 C88.3653931,185.465043 88.0271785,185.660251 87.688964,185.853433 C85.7103079,183.961465 82.8668757,178.734742 82.2539041,177.710742 C81.1521754,175.84309 80.0869009,173.61204 80.8267874,171.56404 C81.3898032,169.968599 82.9681375,168.827069 83.2314183,167.142468 C83.4811975,165.572019 82.4787054,164.081275 81.3648252,162.978921 C80.2509451,161.864409 78.9480429,160.891745 78.2716139,159.464494 C77.4446423,157.714373 77.7707054,155.535333 78.786024,153.902066 C79.7993174,152.267449 81.4147811,151.11376 83.1551344,150.361296 C86.2739987,148.999565 90.3055697,148.376789 91.583494,145.135924 C92.748005,142.205096 90.8328063,139.028399 90.2319861,135.92803 C89.203841,130.560135 92.8357653,124.697803 97.9575886,123.427259 C101.539557,122.532948 105.785128,123.517771 108.590081,121.041528 C111.507772,118.460589 111.045343,113.753972 112.020832,109.902489 C113.37369,104.494742 117.932497,100.423059 122.991538,98.4898871 C128.050579,96.558742 133.574074,96.4682301 138.958503,96.7397657 C135.902421,98.2696865 133.773898,101.161338 132.545929,104.494742 C129.841563,107.360726 127.999948,111.095354 127.386977,115.063692 C126.410138,121.521106 128.451576,128.796504 124.969519,134.243428 C122.716106,137.796357 118.671033,139.572821 115.101891,141.685665 C111.53275,143.799861 107.926478,147.029243 107.81374,151.294784 C107.762434,153.616346 108.777753,155.820378 109.328617,158.077771 C109.954415,160.657359 109.954415,163.251808 109.467008,165.754394 C108.764926,169.293813 107.100182,172.639375 104.870396,175.466858 C103.643103,177.023797 102.353027,178.42403 100.400024,178.800262 C99.2476644,179.020462 98.2829767,179.254172 97.318964,179.643238 C96.4049073,179.564884 95.4908505,179.591227 94.5889451,179.811428 C93.0362637,180.200494 91.6840808,181.224494 90.744371,182.547048 C90.3811785,183.066478 89.8303142,185.127987 89.3800366,186.048642 C89.1289073,185.816283 88.9034309,185.555555 88.7036076,185.271185" id="Fill-56" fill="#F9416F"></path>
                        <path d="M87.6890315,185.853636 C88.2270694,186.359557 88.7036751,186.632443 89.054041,186.502755 C89.1539527,186.463578 89.2673659,186.295388 89.3801041,186.048844 C89.704142,186.373741 90.055858,186.657435 90.4312019,186.904654 C91.245347,187.449077 92.1344259,187.825309 93.0478076,188.136021 C88.2392208,191.664633 82.5921861,193.893657 76.8060852,195.217562 C70.9335741,196.552274 64.8848675,196.993351 58.8611388,197.214227 C58.8233344,196.474596 58.7733785,195.735641 58.7355741,194.996011 C58.6977697,194.399578 58.674142,193.790311 58.6363375,193.194554 C68.792224,193.75181 78.8232208,190.860158 87.6890315,185.853636" id="Fill-58" fill="#FF9F2D"></path>
                        <path d="M101.340949,185.398172 C101.100621,185.833845 100.91835,186.320853 100.802236,186.807185 C100.44917,186.759903 100.145384,186.514035 100.051548,186.15604 C99.9273338,185.675111 100.225719,185.179322 100.717851,185.049634 C100.991933,184.976684 101.269391,185.033423 101.481365,185.180673 C101.431409,185.24957 101.382804,185.320494 101.340949,185.398172" id="Fill-60" fill="#424242"></path>
                        <path d="M98.3010688,182.664038 C96.7740404,183.7056 96.0422549,185.752925 96.5809678,187.476027" id="Stroke-62" stroke="#A7796E" stroke-width="0.406" stroke-linecap="round" stroke-linejoin="round"></path>
                        <path d="M109.942264,186.847713 C110.656497,187.810246 110.919103,189.065929 110.717929,190.257444" id="Stroke-64" stroke="#F6408D" stroke-width="0.462" stroke-linecap="round" stroke-linejoin="round"></path>
                        <polygon id="Fill-66" fill="#6846E2" points="73.9441558 242.268268 70.0948562 243.535434 70.0746038 243.544215 51.5349129 238.020289 50.286017 235.617672"></polygon>
                        <polygon id="Fill-68" fill="#6846E2" points="73.371959 236.110556 67.628388 237.997796 53.6940852 233.976773 59.0866151 232.480625"></polygon>
                        <polygon id="Fill-70" fill="#8262FB" points="70.0743338 243.544283 65.8949205 244.935734 65.8739931 244.944515 53.1710341 241.153824 51.5346429 238.020357"></polygon>
                        <polygon id="Fill-72" fill="#8262FB" points="65.8741956 244.944718 61.2330284 246.491525 54.9743722 244.634005 53.1712366 241.154026"></polygon>
                        <g id="Group-76" transform="translate(58.731861, 239.817288)">
                            <mask id="mask-4" fill="white">
                                <use xlink:href="#path-3"></use>
                            </mask>
                            <g id="Clip-75"></g>
                            <polygon id="Fill-74" fill="#6846E2" mask="url(#mask-4)" points="36.1351489 0.181158839 37.4839565 2.79857309 1.86342019 15.5357551 1.82089022 15.5181931 0.474107886 12.9359029"></polygon>
                        </g>
                        <polygon id="Fill-77" fill="#6846E2" points="61.2330284 246.491187 56.7410536 247.996116 54.9743722 244.633668"></polygon>
                        <g id="Group-81" transform="translate(0.000000, 210.772433)">
                            <mask id="mask-6" fill="white">
                                <use xlink:href="#path-5"></use>
                            </mask>
                            <g id="Clip-80"></g>
                            <path d="M51.5347104,27.2481266 L53.1711016,30.3815937 L54.9742372,33.8615726 L56.7409186,37.2233456 L59.2056315,41.9812982 L60.5524139,44.5629129 L46.1941615,40.7289921 L16.9625716,32.9199789 C10.9894738,21.900496 6.00199117,11.2707546 -0.000135015773,0.239788918 L43.9279218,12.6101953 L47.0353098,18.5670923 L50.2858145,24.8448338 L51.5347104,27.2481266 Z" id="Fill-79" fill="#6846E2" mask="url(#mask-6)"></path>
                        </g>
                        <path d="M59.0865476,232.480625 L53.6940177,233.976773 L67.6283205,237.997796 L73.3718915,236.110556 L59.0865476,232.480625 Z M50.5643521,228.079316 L94.8177968,239.908002 L94.8670776,239.998514 L59.2060366,252.753258 L56.7406486,247.995981 L61.2332984,246.491052 L65.8744656,244.94492 L65.894718,244.935464 L70.0741312,243.544013 L70.0950587,243.535232 L73.9443584,242.268065 L50.2862196,235.617469 L47.0350397,229.339728 L50.5643521,228.079316 Z" id="Fill-82" fill="#9D7DFF"></path>
                    </g>
                </g>
            </g>
        </g>
    </g>
</svg>