<?xml version="1.0" encoding="UTF-8"?>
<svg width="41px" height="40px" viewBox="0 0 41 40" version="1.1" xmlns="http://www.w3.org/2000/svg" xmlns:xlink="http://www.w3.org/1999/xlink">
    <title>Group 2</title>
    <g id="Page-1" stroke="none" stroke-width="1" fill="none" fill-rule="evenodd">
        <g id="Fever_dream" transform="translate(-991.000000, -3509.000000)">
            <g id="Page-1" transform="translate(991.000000, 3509.000000)">
                <path d="M40.8237593,18.9532413 C40.9178645,18.4419178 40.9644575,18.0116827 40.9858097,17.6742034 C41.0212317,17.1172313 40.9809312,16.2903048 40.9665079,16.0314346 C40.469115,7.10879629 31.4936304,0 20.4941421,0 C9.17543157,0 0,7.52721815 0,16.8125665 C0,25.3471181 7.75169306,32.3962649 17.7943629,33.4805302 C18.4084151,33.5468156 18.8510841,34.1184449 18.7829975,34.7511821 L18.3554588,38.7205749 C18.2583841,39.6215892 19.1616807,40.2771508 19.9534086,39.8830117 C28.4381463,35.6597074 33.5117658,31.3148434 36.5415849,27.550651 C37.0928531,26.8657021 38.8906085,24.2679572 39.2571308,23.5856336 C40.0351424,22.1371268 40.5714924,20.5817176 40.8237593,18.9532413" id="Fill-1" fill="#00BB00"></path>
                <path d="M8.20004609,18.8480955 L8.20004609,11.6285466 C8.20004609,11.0198553 7.74109293,10.5263158 7.17505761,10.5263158 C6.60895316,10.5263158 6.15,11.0198553 6.15,11.6285466 L6.15,19.9503264 C6.15,20.559092 6.60895316,21.0526316 7.17505761,21.0526316 L11.2750115,21.0526316 C11.841116,21.0526316 12.3,20.559092 12.3,19.9503264 C12.3,19.3416351 11.841116,18.8480955 11.2750115,18.8480955 L8.20004609,18.8480955 Z" id="Fill-4" fill="#FFFFFF"></path>
                <path d="M15.5990794,21.0526316 L15.1509897,21.0526316 C14.7086377,21.0526316 14.35,20.6669586 14.35,20.1913348 L14.35,11.3876125 C14.35,10.9119888 14.7086377,10.5263158 15.1509897,10.5263158 L15.5990794,10.5263158 C16.0414315,10.5263158 16.4,10.9119888 16.4,11.3876125 L16.4,20.1913348 C16.4,20.6669586 16.0414315,21.0526316 15.5990794,21.0526316" id="Fill-6" fill="#FFFFFF"></path>
                <path d="M24.5473541,11.6286226 L24.5473541,16.7124906 C24.5473541,16.7124906 20.348869,10.9707907 20.2847722,10.8953359 C20.0841859,10.6593074 19.7885888,10.5140477 19.460447,10.5271314 C18.8885387,10.5498794 18.45,11.0738998 18.45,11.6738211 L18.45,19.9502812 C18.45,20.5590489 18.9207289,21.0526316 19.5013584,21.0526316 C20.081917,21.0526316 20.5526459,20.5590489 20.5526459,19.9502812 L20.5526459,14.8973385 C20.5526459,14.8973385 24.8150151,20.6889946 24.8775521,20.7512913 C25.0635322,20.9358024 25.3133256,21.0499881 25.5889278,21.0526316 C26.1727479,21.0580912 26.65,20.5166752 26.65,19.9045623 L26.65,11.6286226 C26.65,11.0198549 26.1792711,10.5263158 25.5986416,10.5263158 C25.018083,10.5264624 24.5473541,11.0198549 24.5473541,11.6286226" id="Fill-8" fill="#FFFFFF"></path>
                <path d="M34.85,11.6285544 L34.85,11.6285544 C34.85,11.0197845 34.3910468,10.5263158 33.8249424,10.5263158 L29.7249885,10.5263158 C29.158884,10.5263158 28.7,11.0197845 28.7,11.6285544 L28.7,19.9503929 C28.7,20.5591629 29.158884,21.0526316 29.7249885,21.0526316 L33.8250115,21.0526316 C34.3910468,21.0526316 34.85,20.5591629 34.85,19.9503929 C34.85,19.341623 34.3910468,18.8481543 33.8250115,18.8481543 L30.7500461,18.8481543 L30.7500461,16.8916008 L33.8250115,16.8916008 C34.3910468,16.8916008 34.85,16.3981321 34.85,15.7893622 C34.85,15.1805922 34.3910468,14.6870492 33.8250115,14.6870492 L30.7500461,14.6870492 L30.7500461,12.73057 L33.8250115,12.73057 C34.3910468,12.7308674 34.85,12.2373244 34.85,11.6285544" id="Fill-10" fill="#FFFFFF"></path>
            </g>
        </g>
    </g>
</svg>