<?xml version="1.0" encoding="UTF-8"?>
<svg width="763px" height="519px" viewBox="0 0 763 519" version="1.1" xmlns="http://www.w3.org/2000/svg" xmlns:xlink="http://www.w3.org/1999/xlink">
    <title>Group 6</title>
    <defs>
        <polygon id="path-1" points="0.151697696 0.874770732 234.138546 0.874770732 234.138546 201.728579 0.151697696 201.728579"></polygon>
        <path d="M244.923304,1.36682927 C219.753601,2.48833021 194.544394,3.59230769 169.416829,4.69278049 L169.416829,4.69278049 C144.248005,5.7958818 119.080935,6.93665854 93.9516152,8.01960788 L93.9516152,8.01960788 C93.7892074,8.05815947 93.6267995,8.05815947 93.5056521,8.05815947 L93.5056521,8.05815947 L93.4652696,8.09671107 C85.7109539,8.7547167 77.6792281,16.8785891 75.5213986,26.5077261 L75.5213986,26.5077261 C75.4871613,26.6628086 75.4406336,26.8161388 75.4406336,26.933546 L75.4406336,26.933546 C74.9534101,29.1765478 74.4258041,31.3809981 73.9385806,33.5468968 L73.9385806,33.5468968 C65.656659,70.44603 57.3563018,107.378458 49.0541889,144.242544 L49.0541889,144.242544 C40.7529539,181.097869 32.4912235,217.961955 24.2514401,254.822537 L24.2514401,254.822537 C22.7493871,261.553295 21.2324101,268.201692 19.7444032,274.857976 L19.7444032,274.857976 C17.4979078,284.910304 8.94647696,292.610985 0.705815668,291.992407 L0.705815668,291.992407 C28.7163387,294.081203 56.6873571,296.14897 84.6961244,298.219366 L84.6961244,298.219366 C112.666265,300.287133 140.716293,302.396081 168.727694,304.484876 L168.727694,304.484876 L168.768076,304.446325 C176.724304,304.484876 184.761297,296.401308 186.831339,286.036186 L186.831339,286.036186 C187.359823,283.676653 187.847046,281.31712 188.293887,278.957587 L188.293887,278.957587 C190.567597,267.85648 192.800046,256.757126 195.11326,245.617467 L195.11326,245.617467 C202.745551,208.215411 210.361161,170.695071 218.008376,133.297396 L218.008376,133.297396 C225.665247,95.8541595 233.313339,58.3785047 240.944751,20.8993452 L240.944751,20.8993452 C243.137696,10.1855066 251.620652,1.09609193 259.780548,0.747375235 L259.780548,0.747375235 C254.828426,0.941885553 249.875426,1.17319512 244.923304,1.36682927" id="path-3"></path>
        <linearGradient x1="50.0000905%" y1="13.3590631%" x2="50.0000905%" y2="6.18777193%" id="linearGradient-5">
            <stop stop-color="#E8F4FF" offset="0%"></stop>
            <stop stop-color="#FFFFFF" offset="100%"></stop>
        </linearGradient>
        <path d="M406.883419,0.275994371 L72.661265,14.969409 C66.3054124,15.2489081 61.0662235,19.5272589 59.6159654,25.710409 L59.6159654,25.710409 L0.217714286,279.07149 L345.408104,314.324295 C352.318776,315.03049 358.577184,310.400794 359.910684,303.596437 L359.910684,303.596437 L417.049272,12.0815441 C417.653253,9.00004503 416.891253,6.09465666 414.840525,3.71321951 L414.840525,3.71321951 C412.896021,1.4553227 410.311541,0.264604128 407.369765,0.264604128 L407.369765,0.264604128 C407.208235,0.264604128 407.046705,0.268984991 406.883419,0.275994371" id="path-6"></path>
        <linearGradient x1="90.2017506%" y1="76.5276786%" x2="13.9723349%" y2="26.2532033%" id="linearGradient-8">
            <stop stop-color="#AF59BC" offset="0%"></stop>
            <stop stop-color="#543D83" offset="100%"></stop>
        </linearGradient>
        <path d="M53.9325691,15.0771782 C53.5225991,15.0955779 53.3312212,15.2147373 53.237288,15.614272 L53.237288,15.614272 L0.158018433,240.086189 L330.377917,273.810949 L383.875058,0.573016886 L53.9325691,15.0771782 Z" id="path-9"></path>
        <linearGradient x1="50.0000508%" y1="-0.000237514991%" x2="50.0000508%" y2="83.1931852%" id="linearGradient-11">
            <stop stop-color="#F775BA" offset="0%"></stop>
            <stop stop-color="#FFAEAC" offset="100%"></stop>
        </linearGradient>
        <polygon id="path-12" points="0.0853299539 0.364575422 577.517166 0.364575422 577.517166 56.9512195 0.0853299539 56.9512195"></polygon>
        <path d="M9.45915899,0.652748593 C7.2258318,10.3695028 4.95212212,20.126561 2.71791705,29.8056398 L2.71791705,29.8056398 C2.19996774,31.9347392 1.72064516,34.1023902 1.24307834,36.1929381 L1.24307834,36.1929381 C-0.95162212,45.5618518 3.50800922,53.8592064 11.3062189,55.1427992 L11.3062189,55.1427992 C39.4097972,57.8896004 67.4729931,60.6355253 95.5748157,63.3840788 L95.5748157,63.3840788 C123.638012,66.1300038 151.740712,68.8785572 179.84429,71.6262345 L179.84429,71.6262345 C171.59924,70.8096417 166.619025,61.7027036 168.79968,51.3656191 L168.79968,51.3656191 C171.477214,38.669878 174.135435,26.0091839 176.803313,13.2731388 L176.803313,13.2731388 C148.864776,11.1440394 121.007882,9.05349156 93.110606,6.96294371 L93.110606,6.96294371 C65.2133295,4.87239587 37.3169309,2.74329644 9.45915899,0.652748593 L9.45915899,0.652748593 Z" id="path-14"></path>
        <linearGradient x1="49.0575577%" y1="54.4753813%" x2="50.0788242%" y2="43.9665755%" id="linearGradient-16">
            <stop stop-color="#B5E4EB" offset="0%"></stop>
            <stop stop-color="#FFFFFF" offset="100%"></stop>
        </linearGradient>
        <polygon id="path-17" points="0 0.0951408385 20.5872505 0.0951408385 20.5872505 20.9369785 0 20.9369785"></polygon>
        <polygon id="path-19" points="0.353938636 0.530033202 27.1422273 0.530033202 27.1422273 39.8682475 0.353938636 39.8682475"></polygon>
        <polygon id="path-21" points="0.00399272727 0.7008 19.8412901 0.7008 19.8412901 20.5285642 0.00399272727 20.5285642"></polygon>
    </defs>
    <g id="Page-1" stroke="none" stroke-width="1" fill="none" fill-rule="evenodd">
        <g id="Fever_dream" transform="translate(-798.000000, -178.000000)">
            <g id="Group-5" transform="translate(402.000000, 178.000000)">
                <g id="Group-6" transform="translate(396.000000, 0.000000)">
                    <g id="ill/lap" transform="translate(0.000000, 52.000000)">
                        <g id="Group-3" transform="translate(527.605991, 61.473146)">
                            <mask id="mask-2" fill="white">
                                <use xlink:href="#path-1"></use>
                            </mask>
                            <g id="Clip-2"></g>
                            <path d="M191.879852,140.850354 C195.371182,123.174448 198.838808,105.455609 202.31258,87.7840841 C205.780207,70.1423486 209.335622,52.3937201 212.826073,34.7178139 C213.719755,30.0767276 214.640652,25.4715644 215.546624,20.8716582 C217.686018,10.0001084 226.060995,1.06840488 234.139248,0.874770732 C206.696714,1.4162454 179.254179,1.95772008 151.852905,2.49919475 C124.451631,3.04066942 97.0503567,3.5435925 69.6903429,4.08506717 L69.6490825,4.12361876 C61.8956447,4.78162439 53.9385387,13.0202754 51.8281147,22.8439227 C51.3408912,25.0869246 50.8536677,27.292251 50.3664442,29.5352529 C48.6212184,37.657373 46.8347323,45.7803692 45.0895065,53.8639377 C41.5165341,70.4560184 37.8803544,87.083146 34.2907023,103.60338 C30.6957829,120.152529 27.1465134,136.749866 23.5331585,153.304272 C21.9916009,160.420546 20.466723,167.580628 18.9058521,174.731949 C16.6918382,184.869266 8.31071613,192.794247 0.151697696,192.329876 C27.7557622,193.877197 55.3607046,195.445546 82.9235088,197.01039 C110.528451,198.577863 138.172898,200.182135 165.777841,201.728579 L165.777841,201.690028 C173.611165,201.612925 181.487506,193.335722 183.557548,182.892621 C184.044771,180.494536 184.491612,178.096452 184.978836,175.737795 C187.251668,164.095214 189.56576,152.49206 191.879852,140.850354" id="Fill-1" fill="#E8F5FF" mask="url(#mask-2)"></path>
                        </g>
                        <g id="Group-6" transform="translate(456.497696, 0.141064)">
                            <mask id="mask-4" fill="white">
                                <use xlink:href="#path-3"></use>
                            </mask>
                            <g id="Clip-5"></g>
                            <path d="M244.923304,1.36682927 C219.753601,2.48833021 194.544394,3.59230769 169.416829,4.69278049 L169.416829,4.69278049 C144.248005,5.7958818 119.080935,6.93665854 93.9516152,8.01960788 L93.9516152,8.01960788 C93.7892074,8.05815947 93.6267995,8.05815947 93.5056521,8.05815947 L93.5056521,8.05815947 L93.4652696,8.09671107 C85.7109539,8.7547167 77.6792281,16.8785891 75.5213986,26.5077261 L75.5213986,26.5077261 C75.4871613,26.6628086 75.4406336,26.8161388 75.4406336,26.933546 L75.4406336,26.933546 C74.9534101,29.1765478 74.4258041,31.3809981 73.9385806,33.5468968 L73.9385806,33.5468968 C65.656659,70.44603 57.3563018,107.378458 49.0541889,144.242544 L49.0541889,144.242544 C40.7529539,181.097869 32.4912235,217.961955 24.2514401,254.822537 L24.2514401,254.822537 C22.7493871,261.553295 21.2324101,268.201692 19.7444032,274.857976 L19.7444032,274.857976 C17.4979078,284.910304 8.94647696,292.610985 0.705815668,291.992407 L0.705815668,291.992407 C28.7163387,294.081203 56.6873571,296.14897 84.6961244,298.219366 L84.6961244,298.219366 C112.666265,300.287133 140.716293,302.396081 168.727694,304.484876 L168.727694,304.484876 L168.768076,304.446325 C176.724304,304.484876 184.761297,296.401308 186.831339,286.036186 L186.831339,286.036186 C187.359823,283.676653 187.847046,281.31712 188.293887,278.957587 L188.293887,278.957587 C190.567597,267.85648 192.800046,256.757126 195.11326,245.617467 L195.11326,245.617467 C202.745551,208.215411 210.361161,170.695071 218.008376,133.297396 L218.008376,133.297396 C225.665247,95.8541595 233.313339,58.3785047 240.944751,20.8993452 L240.944751,20.8993452 C243.137696,10.1855066 251.620652,1.09609193 259.780548,0.747375235 L259.780548,0.747375235 C254.828426,0.941885553 249.875426,1.17319512 244.923304,1.36682927" id="Fill-4" fill="url(#linearGradient-5)" mask="url(#mask-4)"></path>
                        </g>
                        <g id="Group-11" transform="translate(580.278802, 0.141064)" fill="#BCB7EF">
                            <path d="M68.2874025,260.508283 C78.233785,261.08831 88.2196721,261.669212 98.1651767,262.209811 C103.159437,262.5191 108.110681,262.789837 113.104942,263.06145 C104.904663,262.597079 99.9516629,253.352582 102.104225,242.523088 C108.476757,210.884495 114.829098,179.288835 121.182317,147.685289 C127.534658,116.088753 133.848373,84.446655 140.1814,52.8474899 C142.41385,41.8629139 144.590992,30.8362816 146.797983,19.8543341 C148.975126,9.0222122 144.118693,0.361245966 136.000057,0.747638086 C127.840161,1.09547861 119.369495,10.1883979 117.16426,20.8996081 C116.446154,24.3823942 115.742972,27.8222478 115.052958,31.26473 C113.510522,38.691169 112.048852,46.1176081 110.506416,53.5046193 C103.483375,88.0442197 96.4427758,122.588201 89.3969094,157.083117 C82.3563104,191.549995 75.310444,226.045786 68.2874025,260.508283" id="Fill-7"></path>
                            <path d="M0.0887536866,301.15875 C10.0342583,301.893859 20.0210233,302.628967 30.0069104,303.3632 C34.9599104,303.750468 39.952415,304.098309 44.9466753,304.484701 C36.7051362,303.866123 31.7933965,294.699605 33.9845855,284.102298 C40.399256,253.237365 46.8139265,222.333005 53.2268412,191.429521 C59.6406339,160.526037 66.0149219,129.622553 72.469097,98.7190687 C74.7015463,87.9666784 76.8901016,77.2519636 79.1260624,66.4618979 C81.3146177,55.9022657 76.4871546,47.3937535 68.3281362,47.5865114 C60.1691177,47.8186972 51.6747491,56.5585189 49.4923389,67.0419242 C48.7926684,70.4046747 48.0710509,73.8103576 47.381915,77.1363088 C45.8386016,84.4085415 44.2961661,91.6413463 42.7941131,98.9118266 C35.6499242,132.639215 28.5452399,166.366603 21.4414334,200.054564 C14.3367491,233.743401 7.23382051,267.470789 0.0887536866,301.15875" id="Fill-9"></path>
                        </g>
                        <g id="Group-14" transform="translate(246.684332, 112.291158)">
                            <mask id="mask-7" fill="white">
                                <use xlink:href="#path-6"></use>
                            </mask>
                            <g id="Clip-13"></g>
                            <path d="M406.883419,0.275994371 L72.661265,14.969409 C66.3054124,15.2489081 61.0662235,19.5272589 59.6159654,25.710409 L59.6159654,25.710409 L0.217714286,279.07149 L345.408104,314.324295 C352.318776,315.03049 358.577184,310.400794 359.910684,303.596437 L359.910684,303.596437 L417.049272,12.0815441 C417.653253,9.00004503 416.891253,6.09465666 414.840525,3.71321951 L414.840525,3.71321951 C412.896021,1.4553227 410.311541,0.264604128 407.369765,0.264604128 L407.369765,0.264604128 C407.208235,0.264604128 407.046705,0.268984991 406.883419,0.275994371" id="Fill-12" fill="url(#linearGradient-8)" mask="url(#mask-7)"></path>
                        </g>
                        <g id="Group-17" transform="translate(265.997696, 125.433747)">
                            <mask id="mask-10" fill="white">
                                <use xlink:href="#path-9"></use>
                            </mask>
                            <g id="Clip-16"></g>
                            <path d="M53.9325691,15.0771782 C53.5225991,15.0955779 53.3312212,15.2147373 53.237288,15.614272 L53.237288,15.614272 L0.158018433,240.086189 L330.377917,273.810949 L383.875058,0.573016886 L53.9325691,15.0771782 Z" id="Fill-15" fill="url(#linearGradient-11)" mask="url(#mask-10)"></path>
                        </g>
                        <g id="Group-33" transform="translate(0.000000, 47.454385)">
                            <path d="M594.08022,371.472828 L579.654892,382.124459 C579.654892,382.124459 401.0291,411.992307 346.904275,408.86437 L346.904275,408.86437 C342.856369,408.810924 338.774226,408.485864 334.450667,407.890066 L0.570885484,361.927804 C0.238168894,361.882243 0.000179418447,361.600115 0.000179418447,361.265417 C0.000179418447,360.930719 0.253970737,360.655601 0.587565207,360.617926 L233.789413,334.667445 C240.413897,333.929708 246.134164,333.92007 252.76216,334.622761 L593.490284,370.800804 C593.821245,370.835851 594.072319,371.10834 594.08022,371.441286 L594.08022,371.472828 Z" id="Fill-18" fill="#FFFFFF"></path>
                            <g id="Group-22" transform="translate(2.633641, 361.859287)">
                                <mask id="mask-13" fill="white">
                                    <use xlink:href="#path-12"></use>
                                </mask>
                                <g id="Clip-21"></g>
                                <path d="M0.0853299539,0.364575422 C23.8144313,8.72589062 45.2294406,12.5749169 70.2709728,16.3047837 L333.647318,55.5336598 C346.831323,57.4980388 358.349989,57.3823841 371.535749,55.427643 L577.517166,24.8947799 C577.517166,24.8947799 398.395371,50.1329319 344.270547,47.0049957 L344.270547,47.0049957 L344.081802,47.0023672 L343.891302,46.9997386 L343.70168,46.9953578 L343.51118,46.9918531 L343.321558,46.9874722 L343.299611,46.9865961 L342.941436,46.9778343 L342.750936,46.9725773 L342.560436,46.9664441 L342.369936,46.9603109 L342.180314,46.9533015 L341.988936,46.9462921 L341.607058,46.930521 L341.41568,46.9226355 L341.22518,46.9138737 L341.033802,46.905112 L340.842424,46.8954741 L340.650169,46.8858362 L340.267413,46.8648081 L340.075157,46.8534178 L339.916261,46.8446561 L339.882901,46.8420276 L339.691524,46.8306373 L339.689768,46.8297612 L339.499268,46.8183709 L339.306134,46.8052283 L339.294722,46.8043522 L338.996242,46.7842002 L338.920745,46.7789432 L338.727611,46.7649244 L338.594173,46.7552865 L338.5336,46.7509056 L338.341344,46.7360107 L338.332565,46.7360107 L338.154355,46.7219919 L337.840074,46.6965829 L337.786524,46.6922021 L337.758431,46.6904497 L337.744385,46.6895735 L337.450295,46.6641645 L337.210634,46.6431364 L337.174641,46.6405079 L336.980629,46.6229844 L336.826123,46.6089657 L336.784862,46.605461 L336.589973,46.5870614 L336.430199,46.5721664 L336.394206,46.5686617 L336.056222,46.5353672 L335.872745,46.5169675 L335.805148,46.5099582 L335.608503,46.4906824 L335.519837,46.4810445 L335.412735,46.4696542 L335.214335,46.4486261 L335.062461,46.4319788 L335.016812,46.4275979 L334.704286,46.392551 L334.522565,46.3715229 C334.243399,46.3399807 333.962477,46.3075623 333.681556,46.2725154 L333.626249,46.2672583 L333.225936,46.2173165 L333.218035,46.2155642 C332.923945,46.1787649 332.6281,46.1410895 332.332254,46.1016617 L332.285726,46.0946523 L332.220763,46.0867668 L332.210229,46.0850144 L331.816938,46.0315679 L0.0853299539,0.364575422 Z M334.522565,46.3715229 C334.243399,46.3399807 333.962477,46.3075623 333.681556,46.2725154 L334.522565,46.3715229 Z" id="Fill-20" fill="#BCB7EF" mask="url(#mask-13)"></path>
                            </g>
                            <path d="M594.08022,371.472828 L594.08022,376.988335 C594.08022,381.505005 590.765344,385.265537 586.275865,385.841183 L495.679508,397.453974 C439.467084,404.058564 374.771703,410.474776 346.904275,408.86437 L346.904275,408.86437 C352.242664,408.934464 357.518724,408.533177 363.205632,407.656128 L593.520132,372.108929 C593.840558,372.059864 594.073197,371.792631 594.08022,371.472828" id="Fill-23" fill="#BCB7EF"></path>
                            <path d="M404.764129,384.741236 L422.219021,381.760496 L447.629262,384.81571 L438.345679,386.284176 C435.150196,386.789727 432.162769,387.067474 429.177099,387.119168 C426.199329,387.171738 423.202246,386.998256 419.980426,386.603979 L404.764129,384.741236 Z M177.609997,352.349134 L162.708859,355.104697 L136.50238,351.896153 L154.304034,349.547134 L177.609997,352.349134 Z M202.978979,355.399091 L189.799364,358.421011 L168.032325,355.75657 L182.971212,352.993997 L202.978979,355.399091 Z M207.704608,355.967727 L227.338398,358.328136 L215.48526,361.56647 L194.496023,358.996656 L207.704608,355.967727 Z M360.892944,374.386628 L348.305021,377.828234 L219.697329,362.082536 L231.575048,358.838069 L360.892944,374.386628 Z M254.693145,352.522617 L266.966788,349.169504 L284.455917,351.210986 L273.576348,354.727067 L254.693145,352.522617 Z M233.51253,350.050057 L247.341776,346.878313 L262.692389,348.670962 L250.418746,352.023198 L233.51253,350.050057 Z M247.255744,345.245127 L233.532721,343.643483 L249.393382,340.710934 L261.336064,342.016431 L247.255744,345.245127 Z M228.153071,344.637939 L242.566986,346.321067 L228.736862,349.492812 L212.288898,347.572241 L228.153071,344.637939 Z M279.698684,344.024618 L266.853541,347.53369 L252.031412,345.803249 L266.215322,342.55002 L279.698684,344.024618 Z M299.867103,346.230821 L288.143891,350.019391 L271.12794,348.033108 L284.055603,344.501256 L299.867103,346.230821 Z M306.964765,352.215956 L291.989007,350.467992 L303.777182,346.658393 L317.214894,348.127735 L306.964765,352.215956 Z M294.533981,357.174217 L277.420585,355.175667 L288.300154,351.660463 L303.816686,353.471511 L294.533981,357.174217 Z M260.394099,360.678907 L273.731732,356.368138 L291.386781,358.428896 L279.872504,363.020917 L260.394099,360.678907 Z M235.703719,357.709558 L250.531993,353.659012 L269.887495,355.918662 L256.579709,360.219793 L235.703719,357.709558 Z M212.351228,354.902301 L228.822894,351.125121 L246.255838,353.16047 L231.467069,357.200502 L212.351228,354.902301 Z M188.293799,352.010056 L206.910126,348.566697 L224.048981,350.567875 L207.625599,354.333665 L188.293799,352.010056 Z M182.93873,345.768202 L201.486583,347.933224 L182.932585,351.365192 L160.744163,348.697247 L182.93873,345.768202 Z M208.708025,342.367776 L222.730405,344.005343 L206.865355,346.938768 L189.464014,344.9078 L208.708025,342.367776 Z M243.833767,340.10287 L228.109177,343.010887 L215.232431,341.507374 L226.090931,340.074832 C228.861521,339.708592 231.443366,339.512329 234.0217,339.483416 C236.596523,339.455378 239.185391,339.593814 241.970027,339.898722 L243.833767,340.10287 Z M328.29462,354.706039 L310.322656,352.608481 L320.621947,348.500984 L338.855518,350.495153 L328.29462,354.706039 Z M315.862958,359.664299 L297.891873,357.565866 L307.174578,353.864037 L325.147419,355.961594 L315.862958,359.664299 Z M312.715758,360.919855 L301.058387,365.568827 L283.207571,363.421328 L294.743795,358.821421 L312.715758,360.919855 Z M316.07365,361.311504 L335.269378,363.552753 L324.81558,368.424273 L304.394332,365.969238 L316.07365,361.311504 Z M328.504433,356.354119 L346.265705,358.427144 L338.054014,362.254266 L319.221728,360.055949 L328.504433,356.354119 Z M358.642938,352.659299 L349.050341,357.129532 L331.652511,355.098564 L342.261693,350.867526 L358.642938,352.659299 Z M374.434246,360.093624 L352.094829,357.485258 L361.726931,352.996626 L385.937988,355.64442 L374.434246,360.093624 Z M361.705862,365.015962 L341.09938,362.609992 L349.310193,358.78287 L371.21067,361.339541 L361.705862,365.015962 Z M358.482285,366.262755 L346.232345,370.999344 L327.841633,368.787885 L338.314744,363.907603 L358.482285,366.262755 Z M361.90953,366.66229 L380.995523,368.890397 L365.019859,373.258994 L349.635887,371.409393 L361.90953,366.66229 Z M374.637915,361.739952 L397.421539,364.400012 L385.154919,367.753125 L365.13135,365.415496 L374.637915,361.739952 Z M417.013191,359.043093 L401.580057,363.26274 L377.860613,360.493159 L389.415272,356.024678 L417.013191,359.043093 Z M432.429645,366.86381 L405.8527,363.761283 L421.367477,359.518855 L451.554265,362.820273 L432.429645,366.86381 Z M412.900322,370.993211 L389.426684,368.252543 L401.693304,364.898555 L427.483668,367.90996 L412.900322,370.993211 Z M407.955223,372.037609 L388.708578,376.107431 L369.253875,373.76805 L385.268166,369.389815 L407.955223,372.037609 Z M412.974064,372.623768 L444.555804,376.310703 L422.181272,380.131692 L393.673868,376.704104 L412.974064,372.623768 Z M432.503387,368.495243 L466.845182,372.504609 L450.199696,375.346913 L417.918285,371.578495 L432.503387,368.495243 Z M495.443885,367.620823 L472.489074,371.540819 L437.447608,367.449969 L456.688108,363.382776 L495.443885,367.620823 Z M506.46567,375.507253 L478.176859,372.204958 L501.28091,368.258677 L531.433461,371.557466 L506.46567,375.507253 Z M483.157951,379.195063 L455.886603,376.011052 L472.532968,373.168748 L500.563682,376.440376 L483.157951,379.195063 Z M427.800583,380.807221 L450.24359,376.974842 L477.255085,380.128187 L453.462776,383.893101 L427.800583,380.807221 Z M383.810885,377.142191 L368.73417,380.329707 L352.515334,378.344299 L365.127838,374.895684 L383.810885,377.142191 Z M416.599709,381.084967 L399.186956,384.058697 L373.666979,380.933389 L388.777053,377.73974 L416.599709,381.084967 Z" id="Fill-25" fill="#553E84"></path>
                            <path d="M466.159996,73.3516812 L633.928167,65.9769364 C627.023639,98.674822 620.117356,131.372708 613.233897,164.070593 C603.211139,211.683565 593.13483,259.333336 583.11295,306.946308 C580.955999,317.194899 572.641595,324.831619 564.561586,324.003636 C539.070579,321.390013 513.535678,318.801799 488.040282,316.190805 C462.549275,313.579811 437.053879,311.007368 411.560238,308.416526 C422.317782,262.15724 433.060402,215.856775 443.792487,169.601871 C451.234277,137.526068 458.690114,105.43537 466.159996,73.3516812" id="Fill-27" fill="#5A3F87"></path>
                            <path d="M397.935713,307.027529 C423.428476,309.619248 448.923872,312.19169 474.415757,314.801809 C499.911153,317.412803 525.445176,320.001017 550.936183,322.61464 C559.017071,323.443499 567.331474,315.806779 569.488425,305.557311 C579.509428,257.94434 589.586614,210.294568 599.61025,162.681597 C609.640031,115.031826 619.721607,67.3829306 629.77158,19.7287786 C631.981204,9.25063039 640.447481,0.505551595 648.607377,0.273365854 C620.840905,1.04702627 593.073554,1.74270732 565.307082,2.47781614 C537.580992,3.21292495 509.854902,3.94803377 482.087552,4.68314259 C474.212967,5.37882364 466.174218,13.3467373 463.982151,22.8225441 C463.455423,24.9893189 462.9682,27.1543415 462.480098,29.2816886 C451.68305,75.5795253 440.909704,121.911533 430.167084,168.212874 C419.435877,214.467779 408.693257,260.76912 397.935713,307.027529" id="Fill-29" fill="#FFFFFF"></path>
                            <path d="M478.434868,39.841058 C487.08111,39.7254032 495.68697,39.6474238 504.374472,39.5308929 C501.776824,50.8641856 499.218682,62.1966021 496.621034,73.490467 C487.324283,73.4519154 478.068792,73.4519154 468.813301,73.4133638 C471.452209,62.2351537 474.009474,51.0578197 476.608,39.841058 C477.216371,39.8796096 477.825619,39.841058 478.434868,39.841058 L478.434868,39.841058 Z M471.777025,149.918127 C469.828131,151.735309 467.919619,153.514816 465.972481,155.294323 C467.068076,157.228035 468.164548,159.123197 469.301403,161.018358 C468.448103,161.792019 467.636064,162.4877 466.864407,163.223685 C465.727553,161.328523 464.672341,159.432486 463.536364,157.537324 C461.588347,159.316831 459.639453,161.096338 457.730942,162.874968 C457.243718,162.102184 456.797755,161.328523 456.350914,160.515435 C458.259426,158.736805 460.207442,156.957298 462.156336,155.178668 C461.059864,153.283506 459.964269,151.387469 458.867797,149.492308 C459.679836,148.758075 460.451493,147.984414 461.303036,147.249306 C462.399509,149.183019 463.495103,151.039628 464.591576,152.93479 C466.54047,151.155283 468.448103,149.376653 470.396997,147.558595 C470.883343,148.370807 471.330184,149.183019 471.777025,149.918127 L471.777025,149.918127 Z M460.532258,199.386833 C458.583364,201.166339 456.67573,202.906418 454.726836,204.685925 C455.823308,206.581086 456.918903,208.553351 458.055758,210.448512 C457.203336,211.223049 456.432557,211.957281 455.620518,212.69239 C454.483663,210.719249 453.388069,208.824088 452.291596,206.851823 C450.30232,208.63133 448.393808,210.371409 446.486175,212.150915 C445.999829,211.338703 445.511728,210.526491 445.106147,209.674852 C447.013781,207.934773 448.962675,206.194694 450.910691,204.453739 C449.815096,202.520026 448.678241,200.585437 447.581769,198.651724 C448.393808,197.917491 449.205847,197.220934 450.018765,196.485825 C451.114359,198.381863 452.251214,200.354127 453.346808,202.249289 C455.295702,200.50921 457.203336,198.729703 459.15223,196.988748 C459.639453,197.80096 460.086294,198.574621 460.532258,199.386833 L460.532258,199.386833 Z M467.473656,238.799705 C482.006085,239.844103 496.499009,240.888501 511.072698,241.932898 C510.7075,243.479343 510.382684,245.02754 510.05699,246.535433 C495.484179,245.452484 480.950873,244.408086 466.458827,243.325137 C466.78452,241.854919 467.109336,240.308474 467.473656,238.799705 L467.473656,238.799705 Z M478.677163,189.021711 C493.170087,189.75682 507.663011,190.491052 522.196318,191.264713 C521.870624,192.772606 521.545808,194.320803 521.18061,195.867247 C506.648182,195.093587 492.155258,194.320803 477.663212,193.547142 C478.02841,192.076925 478.353225,190.529604 478.677163,189.021711 L478.677163,189.021711 Z M489.922808,139.24284 C504.374472,139.66866 518.826135,140.093604 533.319059,140.557975 C532.993366,142.105296 532.66855,143.651741 532.303352,145.199938 C517.811306,144.735566 503.359642,144.271195 488.867596,143.806823 C489.232794,142.29893 489.55761,140.75161 489.922808,139.24284 L489.922808,139.24284 Z M501.127193,89.464846 C515.578857,89.5805008 529.990138,89.7355833 544.481306,89.8512381 C544.116108,91.4371105 543.791292,92.9844313 543.426094,94.4923244 C528.97443,94.338118 514.522767,94.1830355 500.071103,94.0288291 C500.436301,92.5200598 500.761995,91.0112906 501.127193,89.464846 L501.127193,89.464846 Z M465.282467,248.585677 C481.561,249.784281 497.798271,251.022313 514.076804,252.259469 C530.355336,253.497501 546.633868,254.734656 562.951905,255.972688 C562.586707,257.558561 562.261891,259.144433 561.937953,260.690878 C545.618161,259.453722 529.341384,258.157863 513.061096,256.900555 C496.78432,255.644124 480.504032,254.348264 464.2255,253.111109 C464.591576,251.602339 464.917269,250.09357 465.282467,248.585677 L465.282467,248.585677 Z M476.485974,198.806807 C492.723246,199.696122 508.961396,200.585437 525.199546,201.475628 C541.437695,202.364944 557.716228,203.255135 573.9535,204.14445 C573.629562,205.729446 573.303868,207.277643 572.979053,208.863516 C556.70052,207.934773 540.421988,207.006906 524.184716,206.078163 C507.946566,205.150296 491.708417,204.221553 475.471145,203.332238 C475.79596,201.784917 476.119898,200.276148 476.485974,198.806807 L476.485974,198.806807 Z M487.690359,149.028812 C503.927631,149.569411 520.12452,150.131037 536.322288,150.691788 C552.560437,151.253414 568.758205,151.813289 584.995476,152.354763 C584.670661,153.940636 584.345845,155.487957 583.980647,157.072953 C567.742497,156.493803 551.54473,155.875225 535.307458,155.294323 C519.110569,154.715172 502.872419,154.094842 486.675529,153.554244 C487.040728,152.006923 487.365543,150.536705 487.690359,149.028812 L487.690359,149.028812 Z M498.935126,99.2499417 C515.091633,99.4435758 531.288523,99.6950373 547.445029,99.9079473 C563.642797,100.120857 579.840564,100.332891 596.037453,100.565077 C595.712638,102.150949 595.387822,103.69827 595.022624,105.284142 C578.824857,105.013405 562.627967,104.761944 546.4302,104.510482 C530.233311,104.25902 514.076804,104.007559 497.879036,103.775373 C498.244235,102.26748 498.569928,100.758711 498.935126,99.2499417 L498.935126,99.2499417 Z M463.0904,258.332221 C479.368055,259.647356 495.644831,260.941463 511.924241,262.238199 C528.161513,263.532306 544.440924,264.829917 560.759838,266.145052 C560.435023,267.692373 560.111085,269.278246 559.745887,270.82469 C543.426094,269.509555 527.147562,268.155868 510.869029,266.84161 C494.591375,265.526474 478.312843,264.172788 462.033433,262.857653 C462.399509,261.348883 462.724324,259.879542 463.0904,258.332221 L463.0904,258.332221 Z M474.293907,208.553351 C490.531179,209.520645 506.769329,210.486187 523.047861,211.454358 C539.285133,212.4199 555.524161,213.388071 571.801815,214.316814 C571.477,215.902686 571.153062,217.488559 570.786986,219.03588 C554.508453,218.030034 538.272059,217.044339 521.991771,216.056893 C505.755377,215.072075 489.517228,214.084628 473.238695,213.078782 C473.603894,211.608565 473.928709,210.100671 474.293907,208.553351 L474.293907,208.553351 Z M485.498292,158.775356 C501.735564,159.393934 517.933331,160.012512 534.170603,160.631966 C550.367493,161.249668 566.60652,161.907673 582.84467,162.527127 C582.478594,164.112124 582.153778,165.698872 581.828963,167.245317 C565.590813,166.588187 549.352663,165.931934 533.115391,165.273052 C516.918502,164.616799 500.680352,163.957917 484.483463,163.300788 C484.808278,161.83057 485.133094,160.322677 485.498292,158.775356 L485.498292,158.775356 Z M496.702677,108.997362 C512.899566,109.267223 529.097334,109.557236 545.294223,109.847249 C561.45073,110.137262 577.647619,110.428152 593.885769,110.698889 C593.520571,112.284762 593.195755,113.870634 592.870062,115.417079 C576.63279,115.10779 560.4359,114.779225 544.238133,114.45066 C528.082504,114.122095 511.884737,113.831206 495.68697,113.521917 C496.052168,112.014024 496.376983,110.505255 496.702677,108.997362 L496.702677,108.997362 Z M460.857073,268.078765 C486.431479,270.206112 512.047145,272.372011 537.62155,274.53791 C537.256352,276.123782 536.931536,277.671103 536.606721,279.218424 C510.991055,277.013097 485.416649,274.847199 459.841366,272.642748 C460.207442,271.172531 460.532258,269.626086 460.857073,268.078765 L460.857073,268.078765 Z M472.101841,218.339323 C497.635864,219.925195 523.128626,221.549619 548.663527,223.174043 C548.338712,224.721364 548.013896,226.267808 547.648698,227.853681 C522.114675,226.190705 496.580652,224.52773 471.045751,222.826202 C471.411827,221.355985 471.736642,219.808664 472.101841,218.339323 L472.101841,218.339323 Z M483.306225,168.561328 C508.798988,169.643401 534.252246,170.726351 559.745887,171.810176 C559.421071,173.356621 559.096255,174.903942 558.731057,176.489814 C533.237417,175.328885 507.743776,174.207384 482.251013,173.047332 C482.616212,171.577114 482.940149,170.069221 483.306225,168.561328 L483.306225,168.561328 Z M494.51061,118.782458 C519.96299,119.323932 545.374988,119.865407 570.827368,120.445433 C570.46217,121.992754 570.138232,123.578626 569.813417,125.125071 C544.360159,124.506493 518.907778,123.887915 493.494903,123.307889 C493.819718,121.79912 494.145412,120.290351 494.51061,118.782458 L494.51061,118.782458 Z M436.33788,250.557942 C437.352709,252.336572 438.367539,254.116079 439.382368,255.895585 C442.548882,253.071681 445.796161,250.248653 449.044318,247.386197 C449.490281,248.23696 449.977504,249.087724 450.465606,249.939364 C446.40541,253.536052 442.346092,257.132741 438.246391,260.690878 C436.74346,258.100035 435.241407,255.431214 433.780615,252.840371 C434.632159,252.105262 435.485458,251.331602 436.33788,250.557942 L436.33788,250.557942 Z M470.152947,102.963161 C471.168654,104.664688 472.142223,106.327664 473.157053,108.030067 C476.323566,105.051957 479.530463,102.034418 482.777741,99.0186321 C483.224582,99.8685195 483.671424,100.680732 484.199029,101.492944 C480.138834,105.322694 476.079516,109.074465 472.06058,112.864788 C470.558527,110.311621 469.097735,107.836433 467.636064,105.361246 C468.448103,104.549034 469.301403,103.775373 470.152947,102.963161 L470.152947,102.963161 Z M433.293391,236.169435 C441.980894,236.788889 450.7079,237.407467 459.435785,238.026045 C456.838138,249.358461 454.279995,260.653202 451.72273,271.946191 C442.346092,271.133979 433.008958,270.361195 423.713085,269.548107 C426.27035,258.370773 428.867997,247.231114 431.425262,236.014353 C432.074894,236.05378 432.684142,236.092332 433.293391,236.169435 L433.293391,236.169435 Z M454.646071,242.280739 C447.82582,241.777816 440.965186,241.274893 434.10543,240.77197 C432.238179,248.972069 430.37005,257.171292 428.462417,265.371392 C435.32305,265.951418 442.183684,266.531444 449.044318,267.072919 C450.910691,258.835144 452.777942,250.557942 454.646071,242.280739 L454.646071,242.280739 Z M444.579419,187.087998 C453.266043,187.512942 461.953546,187.977313 470.64017,188.402257 C468.082905,199.73555 465.52564,211.029414 462.968375,222.322403 C453.589981,221.703825 444.294108,221.123799 434.998235,220.505221 C437.556377,209.365563 440.154025,198.188229 442.71129,186.971467 C443.320539,187.010019 443.969292,187.04857 444.579419,187.087998 L444.579419,187.087998 Z M465.890838,192.734054 C459.070587,192.347662 452.210831,191.999822 445.389702,191.651105 C443.482947,199.889756 441.615695,208.089855 439.748444,216.289079 C446.567818,216.714898 453.428451,217.139842 460.288207,217.604214 C462.156336,209.288459 464.023587,201.049808 465.890838,192.734054 L465.890838,192.734054 Z M455.863691,138.005685 C464.510811,138.276422 473.197435,138.546283 481.884937,138.778469 C479.28729,150.111762 476.730025,161.405626 474.17276,172.699491 C464.835626,172.273671 455.538875,171.887279 446.243002,171.461459 C448.840649,160.322677 451.397914,149.144467 453.99644,137.966257 C454.604811,137.966257 455.25532,138.005685 455.863691,138.005685 L455.863691,138.005685 Z M477.135606,143.188246 C470.315354,142.95606 463.495103,142.762426 456.635347,142.531116 C454.768096,150.768891 452.900845,158.968114 451.032716,167.168214 C457.852967,167.477503 464.672341,167.74824 471.492592,168.057529 C473.401103,159.781202 475.227972,151.504 477.135606,143.188246 L477.135606,143.188246 Z M467.149718,88.9233713 C475.79596,89.0004745 484.442202,89.0775777 493.088444,89.155557 C490.531179,100.487974 487.973914,111.82039 485.416649,123.114255 C476.079516,122.882069 466.824025,122.649883 457.528152,122.457126 C460.126677,111.278915 462.683942,100.100705 465.282467,88.9233713 L467.149718,88.9233713 Z M488.380373,93.6801124 C481.561,93.6030092 474.740748,93.5250298 467.919619,93.4479266 C466.053246,101.686578 464.185995,109.886677 462.278361,118.086777 C469.097735,118.202431 475.917986,118.356638 482.737359,118.51172 C484.644993,110.273069 486.471861,101.957315 488.380373,93.6801124 L488.380373,93.6801124 Z M512.37196,39.6474238 C526.782364,39.4932174 541.193645,39.3381349 555.645308,39.1839285 C555.28011,40.7303732 554.955294,42.277694 554.590096,43.7855871 C540.138433,43.902118 525.727152,44.0572006 511.315871,44.1728553 C511.681069,42.6649623 512.005884,41.1553169 512.37196,39.6474238 L512.37196,39.6474238 Z M510.179016,49.4333957 C526.296018,49.2783131 542.452525,49.2012099 558.609032,49.084679 C574.765539,48.9690242 590.922046,48.8139417 607.078553,48.7368385 C606.713354,50.3227109 606.388539,51.9077071 606.064601,53.4944557 C589.866834,53.5330073 573.710327,53.6293863 557.55382,53.7266415 C541.437695,53.8230205 525.280311,53.8808478 509.123804,53.957951 C509.489002,52.450058 509.813818,50.9412887 510.179016,49.4333957 L510.179016,49.4333957 Z M507.946566,59.2184914 C524.103073,59.1413882 540.260458,59.1212362 556.416965,59.0634088 C572.573472,59.0055814 588.729979,58.947754 604.927746,58.9092024 C604.562548,60.4950749 604.237732,62.0423957 603.872534,63.6273919 C587.715149,63.6273919 571.558642,63.6475439 555.402135,63.6668197 C539.245629,63.6852193 523.088244,63.7053713 506.931737,63.7439229 C507.296935,62.2351537 507.621751,60.7272606 507.946566,59.2184914 L507.946566,59.2184914 Z M505.714117,69.0044632 C531.126115,69.0044632 556.49773,69.0430148 581.909728,69.0430148 C581.544529,70.6288872 581.219714,72.2138835 580.854516,73.7226527 C555.483778,73.6841011 530.070025,73.6069979 504.699288,73.5290186 C505.024103,72.0211255 505.348041,70.5123563 505.714117,69.0044632 L505.714117,69.0044632 Z M481.438096,53.7266415 C482.452926,55.3896171 483.427373,57.0525927 484.442202,58.7155683 C487.608716,55.698906 490.81649,52.6436921 494.022509,49.5490505 C494.51061,50.3998141 494.955695,51.2120261 495.484179,51.9856865 C491.424861,55.8531124 487.365543,59.7214144 483.306225,63.5502887 C481.804172,61.0751011 480.382884,58.5999135 478.922092,56.1632775 C479.733253,55.3896171 480.585675,54.5774051 481.438096,53.7266415 L481.438096,53.7266415 Z M499.62514,44.1343038 C492.845271,44.1728553 486.02502,44.2499585 479.246907,44.2893863 C477.338396,52.5271612 475.471145,60.7272606 473.562633,68.9650355 L493.982126,68.9650355 C495.890638,60.6501574 497.757889,52.3720786 499.62514,44.1343038 L499.62514,44.1343038 Z" id="Fill-31" fill="#3ACFE1"></path>
                        </g>
                        <g id="Group-36" transform="translate(371.343318, 298.039750)">
                            <mask id="mask-15" fill="white">
                                <use xlink:href="#path-14"></use>
                            </mask>
                            <g id="Clip-35"></g>
                            <path d="M9.45915899,0.652748593 C7.2258318,10.3695028 4.95212212,20.126561 2.71791705,29.8056398 L2.71791705,29.8056398 C2.19996774,31.9347392 1.72064516,34.1023902 1.24307834,36.1929381 L1.24307834,36.1929381 C-0.95162212,45.5618518 3.50800922,53.8592064 11.3062189,55.1427992 L11.3062189,55.1427992 C39.4097972,57.8896004 67.4729931,60.6355253 95.5748157,63.3840788 L95.5748157,63.3840788 C123.638012,66.1300038 151.740712,68.8785572 179.84429,71.6262345 L179.84429,71.6262345 C171.59924,70.8096417 166.619025,61.7027036 168.79968,51.3656191 L168.79968,51.3656191 C171.477214,38.669878 174.135435,26.0091839 176.803313,13.2731388 L176.803313,13.2731388 C148.864776,11.1440394 121.007882,9.05349156 93.110606,6.96294371 L93.110606,6.96294371 C65.2133295,4.87239587 37.3169309,2.74329644 9.45915899,0.652748593 L9.45915899,0.652748593 Z" id="Fill-34" fill="url(#linearGradient-16)" mask="url(#mask-15)"></path>
                        </g>
                    </g>
                    <g id="ill/p3" transform="translate(274.000000, 0.000000)">
                        <path d="M128.385896,171.198168 C127.658055,169.159402 126.505987,167.297488 125.363069,165.453756 C123.833355,162.962941 122.294491,160.453945 120.74731,157.973047 C121.432728,158.451541 122.137278,158.920118 122.799405,159.420926 C123.06226,159.620918 123.339255,159.825043 123.596287,160.039085 C125.577678,161.618364 127.48171,163.446394 129.321691,165.181866 C131.402069,167.138817 133.31525,169.486662 133.806855,172.287383 C134.241896,174.769934 133.5074,177.342564 132.23971,179.543307 C131.833782,180.256503 131.37545,180.938296 130.878855,181.594469 C129.679373,181.630005 128.513996,181.553975 127.364423,181.377122 C126.951841,181.314315 126.552569,181.256466 126.139987,181.193658 C127.388546,180.353194 128.325173,179.024318 128.757719,177.576439 C129.398219,175.507096 129.108746,173.24933 128.385896,171.198168" id="Fill-1" fill="#DD2454"></path>
                        <path d="M73.5448718,182.638893 C69.5538082,185.709025 65.6093264,188.823783 61.6864718,191.974904 C59.4671809,193.754176 57.2595355,195.551629 55.07934,197.358172 C59.6426945,191.393934 64.5645627,185.719768 69.8499355,180.365425 C73.5831355,176.58127 77.7388991,172.831825 82.9261173,171.485595 C87.5427082,170.286466 92.4620809,171.150897 97.0770082,172.349198 C104.416972,174.27144 111.47079,177.017617 118.440595,179.982795 C111.385113,178.889448 104.33379,177.782051 97.2774764,176.688704 C93.1816036,176.054844 89.0308309,175.405282 84.8966945,175.838323 C80.3732673,176.290372 77.0335173,179.949738 73.5448718,182.638893" id="Fill-3" fill="#DD2454"></path>
                        <path d="M42.5884255,207.885709 C42.9186573,208.165863 43.2663573,208.436928 43.6057391,208.690637 C42.9436118,209.280697 42.2540345,209.864146 41.5785982,210.450901 C41.2442073,210.183969 40.8956755,209.912078 40.5654436,209.631097 C41.2275709,209.040211 41.9030073,208.453456 42.5884255,207.885709" id="Fill-5" fill="#DD2454"></path>
                        <path d="M42.5884255,207.885709 C41.9030073,208.453456 41.2275709,209.040211 40.5654436,209.631097 C39.74943,208.978229 38.9325845,208.324535 38.1165709,207.670014 C38.71548,207.030369 39.3252027,206.408078 39.9482345,205.790746 C40.8233073,206.507248 41.7017073,207.209701 42.5884255,207.885709" id="Fill-7" fill="#DD2454"></path>
                        <path d="M38.116155,207.670262 C36.2162823,206.131477 34.300605,204.587734 32.3957414,203.061345 C33.074505,202.415089 33.7116777,201.755609 34.3380368,201.122575 C36.1796823,202.705987 38.0446186,204.264606 39.9486505,205.790994 C39.3256186,206.408326 38.7158959,207.030617 38.116155,207.670262" id="Fill-9" fill="#DD2454"></path>
                        <path d="M29.8902218,211.355247 C28.5252082,210.278428 27.2591809,209.081779 26.1071127,207.7653 C28.4445218,206.750462 30.51159,204.910036 32.3956582,203.061345 C34.3005218,204.587734 36.2161991,206.131477 38.1160718,207.670262 C36.3018764,209.541266 34.5841718,211.49987 33.2599173,213.682432 C32.0870536,212.983285 30.9541173,212.204802 29.8902218,211.355247" id="Fill-11" fill="#DBBCA5"></path>
                        <path d="M34.3384527,201.122658 C33.8127436,200.678047 33.3053345,200.222692 32.7979255,199.767337 C37.5983482,195.331141 42.1350845,190.602394 46.37403,185.634813 C48.9418527,182.625009 50.9323936,179.487111 53.7356209,176.715315 C56.8765664,173.602209 60.01668,170.48993 63.1518027,167.3917 C66.5564345,164.024885 70.0575573,160.596088 74.4512209,158.616824 C79.1834345,156.497069 84.5503255,156.2665 89.7500209,156.076424 C94.1686391,155.911141 98.5756118,155.742552 102.995062,155.578096 C107.653244,155.392152 112.323903,155.211168 116.977925,155.0401 C118.114189,156.154107 119.437612,157.065643 120.747725,157.973047 C122.294907,160.453945 123.833771,162.962941 125.362653,165.453756 C126.505571,167.297488 127.658471,169.159402 128.386312,171.198168 C129.109162,173.24933 129.397803,175.507096 128.757303,177.576439 C128.324757,179.024318 127.38813,180.353194 126.140403,181.193658 C123.578403,180.791194 120.998103,180.398647 118.440262,179.98296 C111.471289,177.017783 104.417471,174.271605 97.0766755,172.349364 C92.4617482,171.150235 87.5423755,170.286632 82.9257845,171.48576 C77.7393982,172.83199 73.5836345,176.581435 69.8496027,180.36559 C64.56423,185.719107 59.6423618,191.3941 55.0790073,197.357511 C50.8733345,200.819364 46.7017664,204.320058 42.5884255,207.886039 C41.7017073,207.209205 40.8233073,206.507579 39.9482345,205.790251 C38.0442027,204.264688 36.1800982,202.706069 34.3384527,201.122658" id="Fill-13" fill="#F9416F"></path>
                        <path d="M32.7983414,199.767668 C33.3057505,200.223023 33.8131595,200.678377 34.3388686,201.122989 C33.7116777,201.755196 33.0753368,202.414675 32.3957414,203.060932 C31.8276095,202.603098 31.2594777,202.144438 30.686355,201.700653 C31.4083732,201.065966 32.1187459,200.413925 32.7983414,199.767668" id="Fill-15" fill="#DD2454"></path>
                        <path d="M31.38084,198.508625 C31.8508173,198.93836 32.3241218,199.352394 32.7982582,199.767255 C32.1186627,200.414338 31.40829,201.066379 30.6871036,201.70024 C30.3427309,201.415953 29.9850491,201.126708 29.6398445,200.841594 C30.2179582,200.073855 30.8002309,199.290413 31.38084,198.508625" id="Fill-17" fill="#DD2454"></path>
                        <path d="M30.7354323,218.299035 C24.0417914,217.32965 17.3756005,216.124737 10.7543277,214.675205 C13.337955,213.657888 16.3582868,213.376906 19.1914595,213.253771 C22.8206823,213.094272 26.7277323,212.943865 29.890305,211.355495 C30.9542005,212.20505 32.0871368,212.982706 33.2600005,213.68268 C33.2417005,213.693423 33.2375414,213.706646 33.2333823,213.720695 C32.324205,215.209069 31.5489505,216.767688 30.7354323,218.299035" id="Fill-19" fill="#6846E2"></path>
                        <path d="M115.847318,153.807171 C112.742141,149.873435 113.450018,145.942178 115.037959,142.108439 C111.435355,140.182065 107.885986,138.133382 104.412314,135.987182 C99.0737045,132.690612 93.8997955,129.155209 88.9063909,125.341303 C91.6805045,123.712439 94.7673818,122.617439 97.9366091,123.747148 C99.7616182,124.384314 101.182364,125.780129 102.667991,127.013141 C104.9139,128.884145 107.55825,130.267563 110.150195,131.617926 C107.938391,129.090748 105.675014,126.578446 103.398327,124.106639 C102.705423,123.352948 102.021668,122.617439 101.325436,121.876971 C99.3864682,119.810933 97.3401955,117.696963 95.0252455,116.049092 C93.4239955,114.887152 91.6796727,113.94008 89.7714818,113.369854 C85.9991864,112.240971 81.9340909,112.709548 78.0079091,113.173994 C62.3838682,115.071443 46.7465182,116.96476 31.1266364,118.847333 C31.1199818,119.467971 31.1316273,120.078692 31.1432727,120.688586 C31.1848636,123.099239 31.2730364,125.507412 31.41195,127.900711 C31.4352409,128.423005 31.4635227,128.932077 31.5009545,129.459329 C39.3915818,129.103145 47.2913591,129.068435 55.18365,129.351069 C60.3001636,129.530401 65.3917227,129.83948 70.4866091,130.285745 C74.1108409,130.59565 78.4221545,130.535322 82.0530409,131.620405 C82.8865227,131.870809 83.6742545,132.166665 84.4187318,132.555907 C89.1417955,135.000443 91.5249545,140.06802 94.5303136,144.123239 C97.34685,147.94045 100.181686,151.746918 102.994895,155.578178 C107.653077,155.392235 112.324568,155.21125 116.977759,155.040182 C116.571,154.660031 116.204168,154.24765 115.847318,153.807171" id="Fill-21" fill="#DD2454"></path>
                        <path d="M31.5010377,129.459412 C31.5559377,130.477555 31.6249786,131.499831 31.7131514,132.512189 C30.8139559,132.425416 29.9056105,132.320461 29.0097423,132.219638 C28.9714786,131.342812 28.9207377,130.463506 28.8683332,129.582548 C29.7459014,129.54288 30.6234695,129.500733 31.5010377,129.459412" id="Fill-23" fill="#DD2454"></path>
                        <path d="M31.4121164,127.900958 C31.4354073,128.423253 31.4636891,128.932325 31.5011209,129.459577 C30.6235527,129.500898 29.7459845,129.542219 28.8684164,129.582713 C28.8343118,128.995958 28.8002073,128.409204 28.7652709,127.822449 C29.6403436,127.841457 30.5287255,127.86377 31.4121164,127.900958" id="Fill-25" fill="#DD2454"></path>
                        <path d="M5.24918864,209.569199 C11.066925,208.577501 16.9586932,208.944429 22.7897386,208.609731 C23.9509568,208.546923 25.0497886,208.238671 26.1070295,207.765135 C27.2590977,209.081614 28.525125,210.278263 29.8901386,211.355082 C26.7275659,212.943452 22.8213477,213.094686 19.1912932,213.253357 C16.3581205,213.376493 13.3377886,213.657474 10.7541614,214.675618 C7.36533409,213.950852 3.98565682,213.151708 0.625943182,212.283146 C0.871329545,211.643501 1.34629773,211.056746 1.92857045,210.669984 C2.88765682,210.016289 4.07715682,209.764233 5.24918864,209.569199" id="Fill-27" fill="#8262FB"></path>
                        <path d="M28.7655205,127.822697 C28.6315977,125.41535 28.4960114,123.007176 28.3654159,120.58578 C29.3103614,120.626274 30.2411659,120.66181 31.1436886,120.688255 C31.1844477,123.098908 31.2726205,125.507082 31.4123659,127.901206 C30.5281432,127.864018 29.6397614,127.840878 28.7655205,127.822697" id="Fill-29" fill="#DD2454"></path>
                        <path d="M31.1269691,118.847581 C31.1203145,119.468219 31.13196,120.078113 31.1436055,120.688834 C30.2419145,120.661562 29.3102782,120.626026 28.3653327,120.586358 C28.3112645,119.416155 28.2422236,118.243472 28.1740145,117.069136 C29.1472418,116.965834 30.1213009,116.862532 31.1086691,116.764189 C31.0936964,117.456725 31.0936964,118.155045 31.1269691,118.847581" id="Fill-31" fill="#DD2454"></path>
                        <path d="M20.4505827,124.36448 C20.3341282,122.644711 20.3815418,120.898495 20.5870009,119.184511 C22.9310645,120.189431 25.7035145,120.45719 28.3653327,120.586111 C28.4959282,123.00668 28.6315145,125.414854 28.7654373,127.823028 C26.1393873,127.780054 23.5249827,127.84782 20.9871055,128.364329 C20.7175964,127.03876 20.5429145,125.711537 20.4505827,124.36448" id="Fill-33" fill="#DBBCA5"></path>
                        <path d="M15.8215977,129.640975 C12.0110386,124.146968 8.41758409,118.504206 5.03374773,112.727564 C7.54084773,113.902726 9.80505682,115.915047 11.8055795,117.880262 C14.3734023,120.40744 17.1283841,123.127998 20.4506659,124.364315 C20.5429977,125.711372 20.7176795,127.039421 20.9871886,128.364164 C20.9688886,128.373255 20.9414386,128.364991 20.9223068,128.374908 C19.2079295,128.72696 17.5160114,129.207108 15.8215977,129.640975" id="Fill-35" fill="#6846E2"></path>
                        <g id="Group-39" transform="translate(0.000000, 103.427502)">
                            <mask id="mask-18" fill="white">
                                <use xlink:href="#path-17"></use>
                            </mask>
                            <g id="Clip-38"></g>
                            <path d="M5.03391409,9.30022755 C3.29541409,6.33752943 1.61347773,3.34590679 -0.000249545455,0.329491698 C0.636923182,0.0650388679 1.40302773,0.0361143396 2.09759591,0.184042642 C3.24051409,0.43362 4.22621864,1.13855208 5.16534136,1.84431057 C9.83932773,5.39624264 13.5342641,9.91590679 17.7249641,13.9314577 C18.5592777,14.7264691 19.5333368,15.3214879 20.5872505,15.7570087 C20.3809595,17.4709936 20.3343777,19.2172087 20.4508323,20.9369785 C17.1285505,19.7006615 14.3735686,16.980103 11.8057459,14.4520992 C9.80522318,12.4868842 7.54101409,10.4753898 5.03391409,9.30022755" id="Fill-37" fill="#8262FB" mask="url(#mask-18)"></path>
                        </g>
                        <path d="M153.824227,96.5190023 C154.357422,94.6446928 154.834886,92.7546815 155.251627,90.8605381 C159.805831,89.9630513 164.021486,87.4152136 166.867968,83.8054325 C166.60844,86.6408626 167.307168,89.5663721 168.848527,91.9687608 C167.896095,93.8992664 166.942831,95.8297721 165.974595,97.7098664 C165.1669,99.2750966 165.065418,100.897349 165.374854,102.493157 C160.156027,103.192304 155.022045,104.616217 150.195836,106.692998 C151.61159,103.368331 152.81939,99.9659796 153.824227,96.5190023" id="Fill-40" fill="#DBBCA5"></path>
                        <path d="M166.583735,81.3837057 C167.712513,79.9308679 168.811345,78.4234868 170.108981,77.1276679 C170.656317,77.1541132 171.177867,77.2656792 171.687772,77.4631925 C172.282522,77.6863245 172.857308,78.0251547 173.184213,78.5631509 C173.615926,79.3143623 173.450395,80.2969698 172.917199,80.9713245 C172.398145,81.6498113 171.567158,82.0398792 170.722031,82.2274755 C169.867754,82.3960642 168.992681,82.377883 168.119272,82.3588755 C167.781554,82.3497849 167.445499,82.3390415 167.108613,82.3299509 C166.692704,82.3274717 166.267645,82.3051585 165.851735,82.3026792 C166.099617,81.9977321 166.349163,81.6927849 166.583735,81.3837057" id="Fill-42" fill="#DBBCA5"></path>
                        <g id="Group-46" transform="translate(155.550000, 53.016181)">
                            <mask id="mask-20" fill="white">
                                <use xlink:href="#path-19"></use>
                            </mask>
                            <g id="Clip-45"></g>
                            <path d="M4.52134773,12.2023494 C4.19111591,11.7238551 3.91994318,11.2032136 3.756075,10.6371192 C3.38591591,9.38923245 3.57806591,8.01986264 4.021425,6.78685132 C4.542975,5.34971547 5.41305682,4.13819094 6.23738864,2.86799094 C7.18898864,1.39284 9.02397955,0.650719245 10.801575,0.545764528 C12.5783386,0.439983396 14.3234932,0.886247547 16.0545068,1.32755321 C14.1895705,2.31759849 13.0358386,4.44561736 13.2271568,6.52074566 C15.2085477,5.85465509 17.3380023,5.61086264 19.4217068,5.81002868 C18.8668841,6.35711547 18.5998705,7.21824 18.6913705,8.01903623 C18.8186386,9.10411925 19.4791023,10.0602815 20.2618432,10.8247155 C21.0578932,11.5949343 21.9812114,12.2048287 22.8038795,12.936206 C25.1288114,14.951006 26.649375,17.8186664 27.0436568,20.8342551 C27.4321159,23.8647192 26.6618523,27.0026174 24.9216886,29.532274 C22.0851886,33.6602174 16.9403932,35.9155042 13.9724659,39.8682475 C13.7353977,39.5847872 13.5083114,39.2740551 13.2986932,38.9525796 C11.7573341,36.5501909 11.057775,33.6246815 11.3181341,30.7892513 C11.3605568,30.30084 11.4370841,29.8082966 11.5585295,29.313274 C11.8954159,29.3231909 12.2323023,29.3331079 12.5691886,29.3421985 C13.4425977,29.3620325 14.3176705,29.3793872 15.1719477,29.2107985 C16.017075,29.0232023 16.8480614,28.6339608 17.3671159,27.955474 C17.9003114,27.2802928 18.0658432,26.2985117 17.6341295,25.546474 C17.307225,25.0084777 16.7324386,24.670474 16.1376886,24.4465155 C15.6277841,24.2490023 15.1062341,24.1374362 14.5588977,24.1109909 C13.2612614,25.4076362 12.1624295,26.9150174 11.0336523,28.3678551 C10.7990795,28.6769343 10.5495341,28.9818815 10.3016523,29.2868287 C8.69125227,31.2941909 6.89369318,33.2139532 4.49140227,34.0428475 C3.16215682,34.495723 1.76303864,34.5775381 0.353938636,34.4899381 C0.552743182,33.3503117 0.723265909,32.2024211 0.874656818,31.0644475 L1.89197045,30.1702664 C4.40073409,29.2975721 6.93278864,28.2488513 8.81352955,26.4142098 C10.3756841,24.9084815 11.634225,22.538323 11.2524205,20.3301419 C10.8922432,18.2046023 9.32177045,16.6426777 7.69806136,15.3071909 C6.55098409,14.3725155 5.339025,13.4023042 4.52134773,12.2023494" id="Fill-44" fill="#00DCD9" mask="url(#mask-20)"></path>
                        </g>
                        <path d="M152.182467,75.7407781 C152.159176,75.7192913 152.134222,75.6961517 152.120081,75.6920196 C152.538485,75.240797 152.936095,74.7532121 153.291281,74.2524045 C152.782208,73.5078045 152.320549,72.7020498 151.962035,71.8665442 C155.45484,70.9079026 158.466854,68.4096498 160.071431,65.2188611 C160.889108,66.4188158 162.101067,67.3890272 163.248145,68.3228762 C164.871854,69.6591894 166.442326,71.2202875 166.802504,73.3466536 C167.184308,75.5540083 165.924935,77.9249932 164.363613,79.4307215 C162.482872,81.265363 159.950817,82.3132574 157.442054,83.1867781 C156.692585,80.170363 154.748626,77.5258347 152.182467,75.7407781" id="Fill-47" fill="#DBBCA5"></path>
                        <path d="M160.041319,87.0588634 C162.44361,86.2299691 164.241169,84.3102068 165.851569,82.3028445 C166.267478,82.3053238 166.692537,82.3268106 167.108446,82.3292898 C166.987001,82.8243125 166.910474,83.3176823 166.868051,83.8052672 C164.021569,87.4158747 159.805915,89.9637125 155.25171,90.8611992 C155.487946,89.7488445 155.710042,88.6315313 155.903855,87.505954 C157.312955,87.593554 158.712074,87.5117389 160.041319,87.0588634" id="Fill-49" fill="#CFB098"></path>
                        <path d="M146.786213,131.468179 C145.730636,133.382157 144.665077,135.279606 143.6095,137.194409 C142.896631,138.498492 142.046513,139.89844 140.63575,140.416602 C139.3822,140.876915 137.983913,140.504202 136.694595,140.133142 C133.373977,139.18607 130.050863,138.205942 126.744386,137.217549 C127.220186,137.22416 127.705968,137.201847 128.200068,137.152262 C131.558118,136.776243 134.806368,135.758926 137.999718,134.666406 C141.768686,133.366455 145.298922,131.387191 148.279327,128.788942 C147.771918,129.683949 147.281145,130.56904 146.786213,131.468179" id="Fill-51" fill="#6846E2"></path>
                        <path d="M127.633683,114.647657 C128.416424,112.817974 129.135115,111.04614 129.680787,109.281744 C130.659837,107.46611 131.733715,105.692623 133.029687,104.197638 C135.517655,101.346506 137.761069,97.6929249 141.472642,96.2235589 C144.028819,95.1988042 147.514969,95.7549815 150.427996,95.6706872 C151.522669,96.0731513 152.670578,96.3557853 153.82431,96.5185891 C152.818642,99.9655664 151.611674,103.368744 150.195919,106.692585 C155.022128,104.615804 160.15611,103.192717 165.374937,102.492744 C165.610342,103.776993 166.106105,105.063721 166.710005,106.305823 C168.00681,108.999936 169.760283,111.512238 170.673619,114.350148 C170.723528,114.486506 170.755137,114.631955 170.791737,114.765008 C168.730492,119.625155 166.546969,124.435717 164.26446,129.214876 C163.304542,131.219759 162.239815,133.161834 161.165937,135.084902 C156.556833,133.267615 151.717315,132.047827 146.786296,131.46851 C147.281228,130.56937 147.771169,129.683453 148.27941,128.788446 C145.299005,131.387521 141.768769,133.365959 137.999801,134.666736 C134.806451,135.759257 131.558201,136.775748 128.200151,137.151766 C127.706051,137.202178 127.220269,137.223665 126.744469,137.21788 C123.974515,136.389812 121.209551,135.546868 118.445419,134.705578 C119.764683,131.837917 121.070637,128.966125 122.390733,126.098465 C123.823955,122.961393 125.273815,119.82928 126.711196,116.678159 C127.029783,116.000498 127.333396,115.317053 127.633683,114.647657" id="Fill-53" fill="#8262FB"></path>
                        <path d="M152.074913,75.7392079 C152.108186,75.733423 152.154768,75.7325966 152.182218,75.7408608 C154.749209,77.5259174 156.693168,80.1704457 157.441804,83.1868608 L156.42449,84.0810419 C156.2731,85.2190155 156.102577,86.3660796 155.903772,87.505706 C154.917236,87.4536419 153.923213,87.3230683 152.957472,87.2015853 C149.356531,86.7156532 145.736459,86.2404645 142.335154,85.0107589 C143.562086,83.89014 144.477086,82.4802758 145.3846,81.096857 C146.30459,79.7183966 147.262845,78.3201023 148.54634,77.2631174 C149.557,76.4433136 150.793081,75.840857 152.074913,75.7392079" id="Fill-55" fill="#00C2BF"></path>
                        <path d="M150.428329,95.6708525 C147.515302,95.7551468 144.029152,95.1989694 141.472143,96.2237242 C137.76057,97.6930902 135.517988,101.346671 133.03002,104.197803 C131.733215,105.692788 130.66017,107.465449 129.68112,109.281909 C131.167579,104.628366 131.600125,100.038456 129.805893,94.7675808 C129.09552,92.6734449 128.371006,90.575177 127.656475,88.4950902 C131.140961,86.5629317 134.136338,83.7729543 136.274943,80.4515921 C136.942893,81.9862449 137.683211,83.4820562 138.516693,84.9307619 C139.098965,85.9398147 139.73697,86.919943 140.430706,87.8711468 C142.952779,91.2949845 146.459725,94.2254525 150.428329,95.6708525" id="Fill-57" fill="#8262FB"></path>
                        <path d="M126.948098,161.890585 C129.673966,163.555811 132.886448,164.697917 136.069816,164.239257 C139.481103,163.742581 142.336735,161.500517 144.766475,159.085732 C147.687821,156.182536 150.225698,152.920675 152.322712,149.39023 C154.119439,147.424189 155.699062,145.013536 156.802053,142.900392 C158.178712,140.246774 159.698444,137.681581 161.165771,135.084985 C162.239648,133.161917 163.305207,131.219842 164.264294,129.214958 C166.546803,124.4358 168.730325,119.625238 170.791571,114.765091 C172.556689,120.830977 170.32908,127.327426 168.007475,133.232162 C164.074639,143.19377 159.796598,153.021498 155.173353,162.669068 C153.093807,166.994525 150.907789,171.362955 147.51813,174.780181 C143.315785,179.030434 136.853389,181.80223 130.70043,181.934457 C131.196194,181.278283 131.654525,180.596491 132.060453,179.882468 C133.328144,177.681725 134.063471,175.109921 133.626766,172.62737 C133.135994,169.826649 131.223644,167.478804 129.143266,165.521853 C127.302453,163.787208 125.399253,161.958351 123.417862,160.379898 C124.647289,160.443532 125.84178,161.225321 126.948098,161.890585" id="Fill-59" fill="#6846E2"></path>
                        <path d="M120.568136,158.312869 C119.258854,157.405465 117.936263,156.493929 116.799168,155.379922 C116.391577,154.999771 116.024745,154.587389 115.667895,154.14691 C112.562718,150.214001 113.270595,146.281918 114.858536,142.449005 C116.99215,143.587805 119.13325,144.69768 121.305959,145.757971 C123.677472,146.922389 126.080595,148.034744 128.497859,149.107431 C135.154068,152.038725 142.86835,156.788959 149.695913,151.790801 C150.594277,151.132974 151.48349,150.306559 152.322795,149.390065 C150.225781,152.921337 147.687904,156.182371 144.766559,159.086393 C142.335986,161.500352 139.481186,163.742416 136.0699,164.239091 C132.886531,164.698578 129.67405,163.555646 126.948181,161.89042 C125.841863,161.225155 124.647372,160.443367 123.417945,160.379733 C123.15925,160.164865 122.883918,159.96074 122.621063,159.761574 C121.957272,159.25994 121.254386,158.791363 120.568136,158.312869" id="Fill-61" fill="#8262FB"></path>
                        <path d="M132.644971,70.8840192 C130.153676,63.9900645 127.367917,57.1448683 125.709271,49.9955513 C124.382521,44.2792381 121.796399,37.486106 124.681144,31.7838419 C125.813249,29.5475626 127.615799,27.65094 129.311876,25.8220834 C131.383935,23.5891098 132.17333,21.2404381 132.434521,18.2603853 C132.575099,16.6637513 132.718171,10.9796683 131.113594,9.95904566 C130.842421,9.78632491 130.558771,9.65740415 130.243512,9.57724189 C129.811799,9.47889849 129.291912,9.61195132 129.202908,9.94995509 C128.736258,9.65823057 128.182267,9.35576264 127.68068,9.47889849 C127.30054,9.56236642 127.080108,9.87557774 127.027703,10.1937475 C126.984449,10.5300985 127.068462,10.8581853 127.133344,11.1961891 C127.503503,12.7944758 127.53428,14.6398608 127.154971,16.1645966 C127.121699,16.3224419 127.047667,16.5116909 126.856349,16.5306985 C126.516967,16.5811098 126.318994,16.1728608 126.315667,15.8836155 C126.250785,14.696057 126.190894,13.4944494 126.126012,12.3060645 C126.11104,11.9077325 126.081926,11.5036155 125.921385,11.1226381 C125.742544,10.7052985 125.260921,10.515223 124.898249,10.7400079 C124.400821,11.0474343 124.61959,12.038306 124.29934,12.4730004 C124.028999,12.8473664 123.650521,13.1746268 123.417612,13.5746117 C122.949299,14.3911098 123.130635,15.4009891 123.113999,16.3521928 C123.076567,18.267823 122.203158,20.0404834 121.187508,21.6784381 C120.201803,23.2651551 119.075521,24.8097249 118.387608,26.5311475 C117.864394,27.2245098 117.62483,28.0476192 117.526676,28.9145287 L117.255503,28.8930419 C114.75589,49.9343966 120.977058,69.0336758 127.656558,88.4957513 C131.140212,86.5644192 134.13559,83.7727891 136.275026,80.4514268 C134.906685,77.3416268 133.801199,74.0822457 132.644971,70.8840192" id="Fill-63" fill="#DBBCA5"></path>
                        <path d="M160.256594,72.7652706 C159.993739,72.3685913 159.659348,72.0008366 159.295012,71.6901045 C159.49548,71.4025121 159.84318,71.2421875 160.193375,71.3157385 C160.661689,71.4140819 160.95033,71.8876177 160.838866,72.371897 C160.775648,72.6429611 160.60263,72.8594819 160.379703,72.9826177 C160.343935,72.9090668 160.304839,72.8363423 160.256594,72.7652706" id="Fill-65" fill="#424242"></path>
                        <path d="M163.976651,71.2931774 C163.777015,69.5130792 162.355437,67.9941283 160.636901,67.7222377" id="Stroke-67" stroke="#A7796E" stroke-width="0.594" stroke-linecap="round" stroke-linejoin="round"></path>
                        <path d="M117.94192,100.624467 C119.175506,101.47898 119.683747,103.026856 119.192974,104.412754 L109.310142,132.896803 L91.5084014,120.834448 L77.8374695,111.38935 C78.2043014,109.905935 78.5569923,108.267154 78.9246559,106.782912 L87.2544832,84.5110257 C88.0222514,82.4805238 90.5335105,81.6987351 92.3377241,82.9515804 L117.94192,100.624467 Z" id="Fill-69" fill="#5A38D5"></path>
                        <path d="M146.786213,131.468179 C145.730636,133.382157 144.665077,135.279606 143.6095,137.194409 C142.896631,138.498492 142.046513,139.897613 140.63575,140.416602 C139.3822,140.876915 137.983913,140.504202 136.694595,140.133142 C133.373977,139.18607 130.050863,138.205942 126.744386,137.217549 C123.974431,136.389481 121.209468,135.547364 118.445336,134.705247 C118.431195,134.700289 118.402081,134.692025 118.38794,134.687892 C115.749413,133.884617 112.723259,133.388768 110.302668,132.13427 C110.197859,132.072289 110.075581,132.019398 109.970772,131.958243 C108.476827,131.178934 106.96874,130.386402 105.526368,129.499658 C105.127095,128.610436 105.240222,127.538575 104.995668,126.622081 C104.608872,125.178334 103.663927,124.108953 102.548459,123.010647 C101.175127,121.659458 99.7959723,120.304964 98.2795677,119.079391 C97.5425768,118.484372 95.0571041,115.715055 93.9441314,116.764602 C92.9617541,117.691013 96.2848677,120.270255 96.9902495,120.934692 C97.1591086,121.093364 97.3437723,121.29253 97.2921995,121.499134 C97.2173359,121.789206 96.7614995,121.807387 96.434595,121.713175 C94.8050632,121.251209 93.3552041,119.91407 92.2006405,118.828987 C91.4320405,118.105874 90.7216677,117.334002 90.0470632,116.542296 C89.2759677,115.639025 88.4225223,114.189492 87.7154768,116.021655 C87.4917177,116.601798 88.8608905,118.011662 88.5822314,118.278594 C87.9026359,118.933942 87.9908086,120.120674 88.7660632,120.765277 C87.8560541,121.332198 87.8327632,122.730492 88.721145,123.414764 C88.3576405,123.894911 88.4166995,124.56844 88.7003495,125.121311 C88.7752132,125.26676 88.8816859,125.399813 88.9790086,125.536172 C88.894995,125.58493 88.8109814,125.632036 88.7277995,125.680794 C89.0838177,125.952685 89.4481541,126.214658 89.8074995,126.483243 C90.1934632,126.853477 90.6027177,127.208836 90.953745,127.568326 C91.8121814,128.444326 92.7479768,129.260825 93.7411677,130.012862 C94.9314995,130.917787 95.9704405,131.927666 97.3354541,132.580534 C98.5440859,133.158198 99.7668586,133.715202 100.9888,134.271379 C102.066004,134.963915 103.14404,135.653145 104.233722,136.326674 C107.706563,138.474526 111.255931,140.521557 114.858536,142.448757 C116.99215,143.587557 119.13325,144.698258 121.305959,145.757723 C123.677472,146.922142 126.080595,148.035323 128.497859,149.108009 C135.154068,152.039304 142.86835,156.789538 149.695913,151.791379 C150.594277,151.133553 151.482659,150.307138 152.322795,149.390643 C154.119522,147.424602 155.699145,145.013949 156.802136,142.899979 C158.178795,140.24636 159.697695,137.681994 161.165854,135.085398 C156.557581,133.268111 151.717231,132.047496 146.786213,131.468179" id="Fill-71" fill="#DBBCA5"></path>
                        <path d="M133.657045,12.0132657 C132.883454,11.7488128 132.109031,11.4727902 131.347085,11.2083374 C131.010199,11.0868543 130.662499,10.9554543 130.315631,10.8116581 C130.371363,10.4703487 130.405467,10.1282128 130.427095,9.78607698 C131.413631,10.0513562 132.423458,10.2389525 133.432454,10.3480392 C133.544749,10.8885147 133.623772,11.450477 133.657045,12.0132657" id="Fill-73" fill="#FB2454"></path>
                        <path d="M129.90047,13.247186 C131.088307,13.7984049 132.28862,14.338054 133.477289,14.8892728 C133.23107,16.24542 132.748616,17.5123143 132.075675,18.6585521 C131.021761,18.118903 129.878011,17.754454 128.711802,17.5899974 C129.272448,16.4429332 129.530311,15.1644691 129.777361,13.9083181 C129.821448,13.6884917 129.866366,13.4678389 129.90047,13.247186" id="Fill-75" fill="#DE0637"></path>
                        <path d="M133.477538,14.8895208 C132.28887,14.3383019 131.088556,13.7986528 129.90072,13.247434 C130.068747,12.4425057 130.214315,11.6276604 130.315797,10.8111623 C130.662665,10.9549585 131.010365,11.0863585 131.34642,11.2086679 C132.109197,11.4722943 132.88362,11.748317 133.657211,12.0135962 C133.668025,12.2549094 133.678838,12.4978755 133.678838,12.7400151 C133.678838,13.4788302 133.612293,14.1945057 133.477538,14.8895208" id="Fill-77" fill="#FB2454"></path>
                        <path d="M130.461449,8.36456038 C130.449803,6.89932642 130.236858,5.43326604 129.810967,4.02174906 C131.021262,5.12418679 132.00863,6.47950755 132.669926,7.99019434 C132.647467,8.03482075 132.614194,8.07779434 132.570108,8.12242075 C132.087653,8.58521321 131.302417,8.5083566 130.641121,8.39761698 C130.584558,8.38604717 130.516349,8.37613019 130.461449,8.36456038" id="Fill-79" fill="#DE0637"></path>
                        <path d="M132.075509,18.6584694 C131.716995,19.2758015 131.30275,19.8708204 130.831109,20.4112958 C129.171631,20.6757487 127.489695,20.8418581 125.841031,20.6542619 C126.973968,20.0030468 127.938045,19.0551487 128.554422,17.9089109 C128.610986,17.8097411 128.666718,17.6998279 128.712468,17.5899147 C129.877845,17.7543713 131.021595,18.1188204 132.075509,18.6584694" id="Fill-81" fill="#FB2454"></path>
                        <path d="M132.670092,7.9901117 C133.006147,8.73884377 133.264842,9.53302868 133.43287,10.3487004 C132.423874,10.2387872 131.414047,10.0511909 130.426679,9.7859117 C130.438324,9.6875683 130.438324,9.58839849 130.44997,9.48840226 C130.472429,9.11320981 130.483242,8.73884377 130.461615,8.36447774 C130.516515,8.37604755 130.584724,8.38596453 130.641288,8.39753434 C131.302583,8.50827396 132.086988,8.58513057 132.569442,8.12233811 C132.61436,8.0777117 132.647633,8.03473811 132.670092,7.9901117" id="Fill-83" fill="#FB2454"></path>
                        <path d="M130.831441,20.4113785 C129.395723,22.0980917 127.489196,23.3881257 125.303178,24.0814879 C123.452382,23.4972125 121.714714,22.5823709 120.167532,21.4146464 C121.041773,21.5683596 121.916846,21.6576125 122.8019,21.5906728 C123.86746,21.5138162 124.91056,21.1832502 125.840532,20.6543445 C127.489196,20.8419408 129.171964,20.6758313 130.831441,20.4113785" id="Fill-85" fill="#DE0637"></path>
                        <path d="M127.98263,9.00379245 C128.779512,9.31204528 129.598021,9.57649811 130.426512,9.78558113 C130.405717,10.127717 130.371612,10.4698528 130.31588,10.8119887 C129.361785,10.414483 128.47673,9.88475094 127.98263,9.00379245" id="Fill-87" fill="#FB2454"></path>
                        <path d="M123.632221,1.00186302 C125.997912,1.39854226 128.128199,2.47866679 129.810967,4.02158377 C130.236858,5.43310075 130.449803,6.89916113 130.461449,8.36439509 C129.889158,8.2660517 129.306053,8.13299887 128.84689,7.78011962 C128.173949,7.26278377 127.926899,6.38017245 127.389544,5.73061019 C126.872985,5.09096491 126.121853,4.70502906 125.414808,4.28686302 C124.708594,3.86787057 123.991567,3.37202151 123.632221,2.64394981 C123.386003,2.13735736 123.373526,1.48696868 123.632221,1.00186302" id="Fill-89" fill="#FB2454"></path>
                        <path d="M122.196836,14.3052453 C121.098004,13.8201396 119.977545,13.3028038 119.146559,12.4540755 C118.316404,11.5946038 117.823968,10.3153132 118.239045,9.20213208 C120.570631,11.6598906 123.74485,13.3457774 127.131181,13.908566 C127.568718,13.9854226 128.061154,14.0300491 128.442959,13.8085698 C128.835577,13.5887434 129.026063,12.9937245 128.690009,12.6962151 C129.09344,12.8838113 129.496872,13.0590113 129.900304,13.247434 C129.867031,13.4672604 129.822113,13.6887396 129.777195,13.908566 C129.530145,15.164717 129.272281,16.4431811 128.712468,17.5902453 C128.576881,17.5671057 128.442959,17.5456189 128.308204,17.5348755 C127.657722,17.4679358 126.984781,17.4464491 126.424968,17.1266264 C125.975786,16.872917 125.66219,16.4646679 125.292031,16.1134415 C124.428604,15.2862 123.295668,14.7903509 122.196836,14.3052453" id="Fill-91" fill="#FB2454"></path>
                        <path d="M125.302762,24.0818185 C124.124907,24.4669279 122.85888,24.6652675 121.557916,24.6652675 C120.100571,24.6652675 118.687312,24.4115581 117.386348,23.9380223 C116.265057,22.9248374 115.222789,21.8223996 114.268694,20.6422789 C115.469007,20.6645921 116.656844,20.7745053 117.846344,20.9844147 C118.619103,21.1166411 119.393525,21.2926675 120.167116,21.4141506 C121.71513,22.5827015 123.452798,23.497543 125.302762,24.0818185" id="Fill-93" fill="#FB2454"></path>
                        <path d="M119.72983,15.9589019 C119.03443,15.0548038 118.339861,14.1176491 118.036248,13.0267811 C119.135911,13.5565132 120.010152,14.4482151 120.906852,15.2638868 C121.657984,15.9589019 122.466511,16.3654981 123.306648,16.8952302 C124.170907,17.4357057 123.912211,18.0637811 122.780107,18.0753509 C122.140439,18.0753509 121.513248,17.7885849 121.019148,17.3803358 C120.514234,16.9828302 120.110802,16.4646679 119.72983,15.9589019" id="Fill-95" fill="#FB2454"></path>
                        <path d="M120.167283,21.4144811 C118.160105,19.9046208 116.489815,17.9757679 115.333587,15.7708925 C116.253578,16.2667415 117.185215,16.763417 118.104374,17.269183 C120.369415,18.4939302 122.488887,20.0690774 125.022605,20.5426132 C125.292115,20.5872396 125.560792,20.631866 125.841115,20.6541792 C124.91031,21.1830849 123.868042,21.5136509 122.801651,21.5905075 C121.916596,21.6574472 121.042355,21.5690208 120.167283,21.4144811" id="Fill-97" fill="#FB2454"></path>
                        <path d="M119.539343,7.49459321 C118.250025,5.79631019 117.498061,3.76828755 117.028084,1.68654792 C117.711007,1.41052528 118.429698,1.20061585 119.170016,1.05681962 C119.15837,1.50969509 119.236561,1.97166113 119.348857,2.40139698 C120.290475,6.02853283 122.79092,9.2350234 126.109875,11.0548376 C123.50878,11.0647064 121.086525,9.54327623 119.539343,7.49459321" id="Fill-99" fill="#FB2454"></path>
                        <g id="Group-103" transform="translate(110.631818, 0.125615)">
                            <mask id="mask-22" fill="white">
                                <use xlink:href="#path-21"></use>
                            </mask>
                            <g id="Clip-102"></g>
                            <path d="M1.49544273,9.61657925 C1.22676545,9.04387358 0.96807,7.90920566 0.374151818,7.5885566 C0.228583636,7.5117 0.116288182,7.45633019 0.00399272727,7.4241 C0.31842,6.7836283 0.699392727,6.16629623 1.12611545,5.59441698 C2.28067909,6.56380189 3.81704727,7.09270755 5.34177,6.99353774 C4.53407455,5.86961321 3.78294273,4.71180566 3.09918818,3.52176792 C4.07491091,2.70609623 5.18455636,2.03339434 6.39651545,1.56068491 C6.86649273,3.64242453 7.61762455,5.67127358 8.90777455,7.36873019 C10.4549564,9.41823962 12.8772109,10.9396698 15.4783064,10.9289264 C12.1593518,9.10998679 9.65890636,5.90266981 8.71728818,2.27553396 C8.60499273,1.84662453 8.52597,1.38383208 8.53761545,0.930956604 C9.31120636,0.777243396 10.1072564,0.700386792 10.9257655,0.700386792 C11.6319791,0.700386792 12.3273791,0.754930189 13.00032,0.876413208 C12.7424564,1.36151887 12.7541018,2.01190755 13.00032,2.5185 C13.3596655,3.2465717 14.0766927,3.74242075 14.7829064,4.16058679 C15.4899518,4.57957925 16.2410836,4.96551509 16.7576427,5.60433396 C17.2949973,6.25472264 17.5420473,7.13733396 18.2149882,7.65466981 C18.6741518,8.00754906 19.2580882,8.14060189 19.8295473,8.23894528 C19.8511745,8.61331132 19.8403609,8.98767736 19.8179018,9.36286981 C19.8070882,9.46203962 19.8070882,9.56203585 19.7954427,9.66037925 C18.96612,9.45129623 18.1476109,9.18601698 17.3507291,8.87776415 C17.8448291,9.75954906 18.7298836,10.2884547 19.6839791,10.6859604 C19.5824973,11.5016321 19.4369291,12.3173038 19.2689018,13.1214057 C18.86547,12.9338094 18.4612064,12.7586094 18.0577745,12.5701868 C18.3938291,12.8685226 18.2033427,13.4627151 17.8115564,13.6833679 C17.4297518,13.9040208 16.9364836,13.8602208 16.4989473,13.7825377 C13.1126155,13.2197491 9.93922909,11.5338623 7.60681091,9.07693019 C7.19173364,10.1892849 7.68500182,11.4685755 8.51515636,12.3280472 C9.34531091,13.1776019 10.4666018,13.6949377 11.5646018,14.179217 C12.6642655,14.6643226 13.79637,15.1609981 14.6597973,15.9874132 C15.0299564,16.339466 15.3443836,16.7477151 15.7927336,17.0014245 C16.3525473,17.3204208 17.02632,17.342734 17.67597,17.4096736 C17.8115564,17.4195906 17.9454791,17.4419038 18.0802336,17.464217 C18.0353155,17.5741302 17.9787518,17.6840434 17.92302,17.7832132 C17.3066427,18.9302774 16.3425655,19.8773491 15.2087973,20.5285642 C14.9293064,20.5062509 14.6597973,20.4616245 14.3902882,20.4169981 C11.85657,19.9434623 9.73792909,18.3683151 7.47205636,17.1435679 C6.55289727,16.6378019 5.62209273,16.1419528 4.70210182,15.6452774 L4.07491091,14.2569 C4.10818364,14.0362472 4.14228818,13.8164208 4.17556091,13.6056849 C3.46851545,13.6056849 3.03181091,12.8908358 2.73984273,12.2611075 C2.32476545,11.3801491 1.91052,10.4983642 1.49544273,9.61657925 M10.2752836,15.1386849 C9.37858364,14.3221868 8.50434273,13.4304849 7.40467909,12.9015792 C7.70746091,13.9924472 8.40286091,14.9296019 9.09826091,15.8328736 C9.47923364,16.339466 9.88266545,16.8576283 10.3875791,17.2543075 C10.8816791,17.6625566 11.50887,17.9493226 12.1485382,17.9493226 C13.2806427,17.9377528 13.5393382,17.3105038 12.6750791,16.7692019 C11.8341109,16.2402962 11.0264155,15.8328736 10.2752836,15.1386849" id="Fill-101" fill="#FF5D89" mask="url(#mask-22)"></path>
                        </g>
                        <path d="M115.973671,7.11931811 C114.448949,7.21848792 112.91258,6.68875585 111.758017,5.72019736 C112.329476,4.94749925 112.991603,4.25331057 113.73109,3.6475483 C114.414844,4.83758604 115.165976,5.99539358 115.973671,7.11931811" id="Fill-104" fill="#FB2454"></path>
                        <path d="M114.268943,20.6421962 C115.222207,21.822317 116.264475,22.9247547 117.386598,23.9379396 C115.491716,23.2544943 113.80978,22.119 112.486357,20.6545925 C113.081107,20.6314528 113.674193,20.6207094 114.268943,20.6421962" id="Fill-106" fill="#DE0637"></path>
                        <path d="M110.568434,10.0949083 C110.568434,9.94036868 110.311402,9.32386302 110.142543,8.71727434 L110.142543,8.70653094 C110.277297,8.3098517 110.445325,7.92308943 110.635811,7.54954981 C110.748106,7.58178 110.860402,7.63714981 111.00597,7.71400642 C111.599888,8.03465547 111.858584,9.1693234 112.127261,9.74202906 C112.542338,10.6246404 112.956584,11.5055989 113.371661,12.3865574 C113.663629,13.0162857 114.100334,13.7311347 114.807379,13.7311347 C114.774106,13.9418706 114.740002,14.161697 114.706729,14.3823498 C113.98887,14.3054932 113.428225,13.7542743 112.934956,13.2137989 C112.048238,12.2551574 111.173997,11.2518894 110.568434,10.0949083" id="Fill-108" fill="#FB2454"></path>
                        <path d="M109.436495,12.3990362 C109.4706,11.1090023 109.716818,9.87433811 110.142709,8.71735698 C110.311568,9.32394566 110.5686,9.93962491 110.5686,10.0949909 C111.174164,11.2519721 112.048405,12.25524 112.935123,13.2138815 C113.427559,13.754357 113.989036,14.3055758 114.706895,14.3824325 L115.334086,15.7708098 C116.489482,17.9756853 118.159773,19.9045381 120.16695,21.4143985 C119.393359,21.2929155 118.619768,21.1168891 117.846177,20.9846626 C116.657509,20.7747532 115.468841,20.66484 114.269359,20.6425268 C112.239723,18.1632815 110.591059,15.374957 109.436495,12.3990362" id="Fill-110" fill="#FF5D89"></path>
                        <path d="M112.486357,20.6542619 C110.57983,18.5485562 109.424434,15.7817185 109.424434,12.7405109 C109.424434,12.6305977 109.424434,12.5091147 109.43608,12.3992015 C110.591475,15.3742958 112.240139,18.1626204 114.268943,20.6418657 C113.674193,20.6203789 113.081107,20.6319487 112.486357,20.6542619" id="Fill-112" fill="#FB2454"></path>
                    </g>
                </g>
            </g>
        </g>
    </g>
</svg>