<?xml version="1.0" encoding="UTF-8"?>
<svg width="484px" height="503px" viewBox="0 0 484 503" version="1.1" xmlns="http://www.w3.org/2000/svg" xmlns:xlink="http://www.w3.org/1999/xlink">
    <title>ill/r</title>
    <defs>
        <polygon id="path-1" points="1.58632754 1.15378472 85.895971 1.15378472 85.895971 73.1503021 1.58632754 73.1503021"></polygon>
        <polygon id="path-3" points="0.792813043 1.4106684 11.6793058 1.4106684 11.6793058 12.2743056 0.792813043 12.2743056"></polygon>
    </defs>
    <g id="Page-1" stroke="none" stroke-width="1" fill="none" fill-rule="evenodd" opacity="0.3953125">
        <g id="Fever_dream" transform="translate(-356.000000, -51.000000)">
            <g id="ill/r" transform="translate(356.000000, 50.000000)">
                <path d="M396.615028,69.4750243 C396.615028,73.7131667 400.071419,77.1324375 404.309926,77.1324375 C406.942114,77.1324375 409.298984,75.7997986 410.668564,73.7499896 C411.487506,72.5523681 411.967999,71.0478889 411.967999,69.4750243 C411.967999,65.2368819 408.548433,61.8176111 404.309926,61.8176111 C403.350694,61.8176111 402.461607,61.9543819 401.640912,62.2612396 C400.92368,62.5347812 400.239767,62.9117778 399.657564,63.3554062 L399.489216,63.4939306 C397.744361,64.8949549 396.615028,67.0482187 396.615028,69.4750243" id="Fill-1" fill="#E17900"></path>
                <g id="Group-5" transform="translate(398.072464, 0.599688)">
                    <mask id="mask-2" fill="white">
                        <use xlink:href="#path-1"></use>
                    </mask>
                    <g id="Clip-4"></g>
                    <path d="M12.5955739,73.1503021 L85.8970232,1.15273264 L1.58632754,62.7557187 C2.16853043,62.3120903 2.85068986,61.9350938 3.56967536,61.6615521 C4.38861739,61.3546944 5.27770435,61.2179236 6.23693623,61.2179236 C10.4754435,61.2179236 13.8950087,64.6371944 13.8950087,68.8753368 C13.8950087,70.4482014 13.4162696,71.9526806 12.5955739,73.1503021" id="Fill-3" fill="#FB921C" mask="url(#mask-2)"></path>
                </g>
                <path d="M207.364188,135.718399 C207.364188,138.238139 209.419435,140.270413 211.937638,140.270413 C213.503623,140.270413 214.906522,139.477844 215.720203,138.259181 C216.20771,137.545517 216.491797,136.651247 216.491797,135.718399 C216.491797,133.19866 214.459348,131.164632 211.937638,131.164632 C211.36771,131.164632 210.841623,131.247045 210.354116,131.427653 C209.926232,131.590726 209.519391,131.81517 209.173928,132.078191 L209.072217,132.160604 C208.035826,132.995257 207.364188,134.273538 207.364188,135.718399" id="Fill-6" fill="#E17900"></path>
                <path d="M215.719677,138.258655 L259.30072,95.4546441 L209.175155,132.079418 C209.518865,131.816398 209.925706,131.5902 210.35359,131.427127 C210.842851,131.246519 211.368938,131.165859 211.938865,131.165859 C214.458822,131.165859 216.491271,133.198134 216.491271,135.717873 C216.491271,136.65072 216.207184,137.546745 215.719677,138.258655" id="Fill-8" fill="#FB921C"></path>
                <path d="M20.3704377,352.457035 C20.3704377,355.732521 23.0394522,358.375003 26.3169739,358.375003 C28.3511768,358.375003 30.1749449,357.343962 31.2306261,355.758823 C31.8671913,354.83299 32.2372058,353.670437 32.2372058,352.457035 C32.2372058,349.179795 29.592742,346.537312 26.3169739,346.537312 C25.5769449,346.537312 24.8895246,346.644274 24.254713,346.87924 C23.6988145,347.09141 23.1709739,347.380733 22.7220464,347.726167 L22.5922783,347.831375 C21.2419884,348.913267 20.3704377,350.579066 20.3704377,352.457035" id="Fill-10" fill="#B95000"></path>
                <path d="M31.2313275,355.758648 L87.8908928,300.110453 L22.7209942,347.725991 C23.1699217,347.382311 23.6995159,347.092988 24.2536609,346.880818 C24.8902261,346.644099 25.5758928,346.537137 26.3159217,346.537137 C29.5916899,346.537137 32.2361536,349.17962 32.2361536,352.456859 C32.2361536,353.672016 31.8661391,354.834568 31.2313275,355.758648" id="Fill-12" fill="#D46B00"></path>
                <g id="Group-16" transform="translate(7.014493, 491.571910)">
                    <mask id="mask-4" fill="white">
                        <use xlink:href="#path-3"></use>
                    </mask>
                    <g id="Clip-15"></g>
                    <path d="M0.792813043,6.84467882 C0.792813043,9.85188368 3.24087101,12.2751823 6.24658116,12.2751823 C8.11594348,12.2751823 9.7889,11.3300608 10.7604072,9.87467882 C11.3408565,9.02424479 11.6793058,7.95988715 11.6793058,6.84467882 C11.6793058,3.83747396 9.25404493,1.4106684 6.24658116,1.4106684 C5.56968261,1.4106684 4.93837826,1.50886285 4.35617536,1.7262934 C3.84587101,1.92092882 3.36362464,2.18921007 2.94976957,2.50132812 L2.82876957,2.59952257 C1.59246522,3.59374132 0.792813043,5.1227691 0.792813043,6.84467882" id="Fill-14" fill="#8F2500" mask="url(#mask-4)"></path>
                </g>
                <path d="M17.7741986,501.445712 L69.7656188,450.37934 L9.96531449,494.074115 C10.3774159,493.760243 10.8614159,493.493715 11.3717203,493.29908 C11.9539232,493.079896 12.5834739,492.983455 13.2621261,492.983455 C16.2695899,492.983455 18.6930971,495.41026 18.6930971,498.415712 C18.6930971,499.53092 18.3546478,500.597031 17.7741986,501.445712" id="Fill-17" fill="#AB4200"></path>
                <path d="M0,307.419977 C0,309.594283 1.77115942,311.349509 3.9474058,311.349509 C5.29769565,311.349509 6.50944928,310.665655 7.21089855,309.611818 C7.63176812,308.998102 7.87727536,308.226575 7.87727536,307.419977 C7.87727536,305.243918 6.12365217,303.490446 3.9474058,303.490446 C3.4563913,303.490446 3.00044928,303.562339 2.57957971,303.720151 C2.21131884,303.858675 1.8605942,304.051557 1.56072464,304.279509 L1.4747971,304.349648 C0.580449275,305.068571 0,306.173259 0,307.419977" id="Fill-19" fill="#AB4200"></path>
                <path d="M7.21142464,309.611818 L44.8248884,272.669665 L1.5594971,304.279509 C1.85936667,304.051557 2.2100913,303.858675 2.57835217,303.720151 C3.00097536,303.562339 3.45516377,303.490446 3.94793188,303.490446 C6.12417826,303.490446 7.87780145,305.243918 7.87780145,307.419977 C7.87780145,308.226575 7.63054058,308.998102 7.21142464,309.611818" id="Fill-21" fill="#C65E00"></path>
            </g>
        </g>
    </g>
</svg>