<?xml version="1.0" encoding="UTF-8"?>
<svg width="11px" height="8px" viewBox="0 0 11 8" version="1.1" xmlns="http://www.w3.org/2000/svg" xmlns:xlink="http://www.w3.org/1999/xlink">
    <title>Combined Shape</title>
    <g id="Symbols" stroke="none" stroke-width="1" fill="none" fill-rule="evenodd">
        <g id="Oval" transform="translate(-18.000000, -20.000000)" fill="#FFFFFF" fill-rule="nonzero">
            <path d="M25.6128994,20.2542147 L25.7071068,20.3374033 L28.6625967,23.2928932 C29.0230807,23.6533772 29.0508102,24.2206082 28.7457853,24.6128994 L28.6625967,24.7071068 L25.7071068,27.6625967 C25.3165825,28.053121 24.6834175,28.053121 24.2928932,27.6625967 C23.9324093,27.3021128 23.9046797,26.7348817 24.2097046,26.3425905 L24.2928932,26.2483832 L25.5407248,24.9995101 L19.6457248,25 C19.09344,25 18.6457248,24.5522847 18.6457248,24 C18.6457248,23.4871642 19.031765,23.0644928 19.5291037,23.0067277 L19.6457248,23 L25.5407248,22.9995101 L24.2928932,21.7516168 C23.9324093,21.3911329 23.9046797,20.8239018 24.2097046,20.4316106 L24.2928932,20.3374033 C24.6533772,19.9769193 25.2206082,19.9491898 25.6128994,20.2542147 Z" id="Combined-Shape"></path>
        </g>
    </g>
</svg>