<?xml version="1.0" encoding="UTF-8"?>
<svg width="119px" height="139px" viewBox="0 0 119 139" version="1.1" xmlns="http://www.w3.org/2000/svg" xmlns:xlink="http://www.w3.org/1999/xlink">
    <title>Group 43</title>
    <g id="Page-1" stroke="none" stroke-width="1" fill="none" fill-rule="evenodd">
        <g id="棚拍人像花魁-攝影免費學" transform="translate(-1384.000000, -5237.000000)" fill="#ED7A45">
            <g id="Group-43" transform="translate(1384.175353, 5237.616383)">
                <path d="M6.93704648,129.220351 C6.94491862,129.252797 6.95236525,129.285775 6.93704648,129.220351 M4.85146087,131.651247 C4.63221108,131.89656 4.43668411,132.16251 4.1349896,132.308783 C3.83340147,132.454843 3.46362358,132.50197 3.13395106,132.54399 C2.56375269,132.616861 2.25131378,132.446227 1.94919375,131.997727 C1.94525768,131.991983 1.90610973,131.928155 1.8728127,131.873262 C1.91366273,131.66114 1.95664037,131.328808 1.97270379,131.277852 C2.1642947,130.674569 2.53449811,129.903844 3.07022926,129.530343 C3.46681499,129.253754 3.88797456,129.173224 4.31966579,129.195883 C4.39391923,129.255563 4.47136408,129.311093 4.55178758,129.373113 C4.77231393,129.543108 4.85901387,129.644595 5.01411633,129.904163 C5.03656257,129.941609 5.02326504,129.954162 5.04113693,130.010543 C5.11890092,130.255325 5.18730345,130.502446 5.27219492,130.745312 C5.20315411,130.547764 5.33410825,130.947647 5.39304293,131.118069 C5.20421791,131.287639 5.02049915,131.461783 4.85146087,131.651247 M1.81845237,132.051343 C1.82632451,132.050492 1.83526046,132.029748 1.84451554,131.997302 C1.84632401,132.028046 1.83983481,132.049322 1.81845237,132.051343 M5.60505885,130.887223 C5.61644154,130.864139 5.63303687,130.849246 5.65622777,130.845203 C5.64197281,130.847756 5.62452645,130.864458 5.60505885,130.887223 M7.11299949,129.784166 C7.1123612,129.782358 7.11193568,129.781188 7.11119102,129.779379 C7.04310763,129.596724 6.98406657,129.394814 6.93364231,129.20567 C6.93087643,129.194181 6.92789778,129.181203 6.92406809,129.164927 C6.8775799,128.965357 6.83747453,128.769617 6.77066771,128.574516 C6.61513972,128.120804 6.38429449,127.667518 6.08483397,127.291463 C5.80409638,126.938919 5.36953289,126.472441 4.93188437,126.307977 C4.53646882,126.159577 3.91701638,126.400635 3.60596041,126.638182 C3.45607058,126.752541 3.35628587,126.928494 3.30341486,127.129872 C2.32024821,127.305612 1.4501638,127.856662 0.937942697,128.890253 C0.73475634,129.300242 0.470720457,129.71704 0.32253271,130.150859 C0.162962273,130.618188 0.106899859,131.045092 0.0407313179,131.434018 C-0.12979629,132.43612 0.253811042,133.495455 0.842732336,134.305009 C1.33474119,134.981056 2.04259565,135.470831 2.90193564,135.475357 C3.77340299,135.479873 4.76603749,135.215093 5.42846757,134.642554 C5.71314123,134.396709 5.93441223,134.088206 6.21025633,133.832362 C6.51035513,133.554177 6.80907099,133.292163 7.03970346,132.947916 C7.65458155,132.03028 7.63298635,130.817438 7.15416866,129.850654 C7.11799936,129.777677 7.11012722,129.769698 7.11299949,129.784166" id="Fill-1"></path>
                <path d="M98.3643541,16.6407369 C98.3886088,16.5996741 98.443501,16.5027617 98.4153103,16.55042 C98.4499902,16.4918045 98.4807341,16.4313805 98.513712,16.3718075 C98.521265,16.3581908 98.5184992,16.3542548 98.5262649,16.345638 C98.5800933,16.2865969 98.607965,16.2647889 98.6740271,16.2322366 C98.6981755,16.220322 98.7211536,16.2100031 98.7435998,16.1983013 C98.8566821,16.2151093 98.9617858,16.258087 99.0501878,16.3506378 C99.1695465,16.4756347 99.2251834,16.6948845 99.2432681,16.861476 C99.2447574,16.8756246 99.238481,16.9640266 99.2379491,17.0212592 C99.22646,17.0337057 99.2129497,17.0481734 99.2116731,17.04945 C99.1097608,17.1499793 99.0197631,17.1779574 98.8757242,17.1291288 C98.7924284,17.100938 98.6989201,17.0693431 98.62839,17.015621 C98.5577535,16.9617926 98.5209459,16.8826457 98.4769045,16.8074348 C98.4429691,16.7494575 98.4044595,16.6946717 98.3643541,16.6407369 M99.2388001,17.0548754 C99.2395448,17.0637049 99.240715,17.0696622 99.2427362,17.0703005 C99.2373108,17.0685984 99.2367789,17.0626411 99.2388001,17.0548754 M98.3104193,16.5562709 C98.3161638,16.5583985 98.3197808,16.5631857 98.3214829,16.5697812 C98.3176532,16.5628665 98.3139299,16.5575475 98.3104193,16.5562709 M97.9739384,16.2196837 C97.7990492,16.4454227 97.729902,16.7589254 97.8412822,17.0291313 C97.8830897,17.1305118 97.9468115,17.2141267 98.0101077,17.3019968 C98.0681914,17.3828458 98.1094669,17.4745456 98.1704228,17.553267 C98.3122278,17.7364539 98.555945,17.8571955 98.7822159,17.9016625 C99.0054017,17.9454912 99.2146518,17.8557062 99.3777328,17.7059227 C99.5729406,17.5268847 99.7280431,17.2721039 99.7363407,17.0032809 C99.7395321,16.8988155 99.7474043,16.7852013 99.7303834,16.6555237 C99.7147455,16.5352076 99.6680446,16.4134022 99.6368752,16.2962775 C99.5581537,16.001285 99.3613502,15.8127791 99.1155053,15.7156539 C99.1123139,15.6606553 99.0957186,15.6096991 99.0628471,15.5722532 C98.994551,15.4942765 98.8464696,15.3992789 98.7361532,15.4171508 C98.6139223,15.4368311 98.4767981,15.5350201 98.3854174,15.6118267 C98.2880794,15.6936332 98.2044645,15.7991624 98.1403172,15.9087341 C98.1127647,15.9557542 98.0921269,16.0044764 98.0695743,16.0538368 C98.0677659,16.0578793 98.0662765,16.0610707 98.065,16.0639429 C98.0419154,16.1103248 98.016065,16.1595788 97.9888317,16.2034075 C97.9885125,16.203833 97.9882998,16.2041522 97.988087,16.2045777 C97.9895763,16.2009608 97.9871296,16.2026628 97.9739384,16.2196837" id="Fill-3"></path>
                <path d="M26.0007777,109.228015 C25.3752616,109.46152 24.7520858,109.701939 24.1269953,109.937146 C24.3412452,109.235036 24.528049,108.52548 24.6587903,107.801243 C24.7290013,107.412529 24.6107064,106.778609 24.1866746,106.623826 C23.7453028,106.46266 23.4857349,106.969987 23.4230769,107.317638 C23.2488259,108.281975 22.9521313,109.212377 22.6358627,110.137673 C22.3438488,109.788958 22.0352396,109.460882 21.7354599,109.111742 C21.3139812,108.620903 21.0601578,107.987621 20.7314427,107.435401 C20.5268734,107.091899 20.1250751,107.160089 19.923378,107.455294 C19.673278,107.821242 19.7554036,108.325059 19.95359,108.686008 C20.271348,109.264823 20.5124057,109.900871 20.9162253,110.428836 C21.0443072,110.596385 21.1771761,110.758189 21.3110026,110.918611 C21.1651552,110.969461 21.0200525,111.022332 20.8762263,111.079245 C20.3517715,111.28658 19.9606111,111.523276 19.3854129,111.516255 C18.8182996,111.509447 18.7928747,112.645482 19.1766948,112.884519 C19.9831638,113.386846 20.9289909,113.186958 21.8050326,112.893242 C21.7715228,113.122704 21.7445022,113.354081 21.7106733,113.593543 C21.6581214,113.965236 21.7470554,114.557561 22.1573642,114.707345 C22.5740558,114.859575 22.8213899,114.380225 22.8796863,114.050978 C22.9344722,113.741093 22.977769,113.455568 23.0459587,113.167703 C23.1869126,113.354507 23.3255261,113.543119 23.4563739,113.736944 C23.6404118,114.00949 23.8067906,114.300334 24.0142321,114.556391 C24.2066741,114.794045 24.4635825,114.946488 24.6654923,115.17095 C24.9139967,115.447433 25.2631368,115.173291 25.3824955,114.933616 C25.552172,114.59288 25.5217473,114.131828 25.3112207,113.814814 C25.1561182,113.581522 24.9414428,113.403442 24.8011272,113.16132 C24.6237912,112.855477 24.4863479,112.542187 24.2773106,112.25379 C24.2212482,112.176558 24.1625263,112.101347 24.1048682,112.025285 C24.866551,111.716144 25.6230213,111.393812 26.3837468,111.082862 C27.1287279,110.778082 26.8846916,108.89813 26.0007777,109.228015" id="Fill-5"></path>
                <path d="M117.806969,2.63497364 C117.181453,2.86847838 116.558278,3.10889784 115.933187,3.34410467 C116.147437,2.64199474 116.334241,1.9324382 116.464982,1.20820117 C116.535193,0.819487588 116.416898,0.18556743 115.992866,0.0307841054 C115.551494,-0.130382036 115.291927,0.376945574 115.229269,0.724596367 C115.055018,1.68893371 114.758323,2.61933574 114.442054,3.54463152 C114.15004,3.19591692 113.841431,2.8678401 113.541652,2.51869999 C113.120173,2.02786132 112.86635,1.39457944 112.537634,0.84235935 C112.333065,0.498857389 111.931267,0.567047155 111.72957,0.862252465 C111.47947,1.22820067 111.561595,1.73201773 111.759782,2.09296606 C112.07754,2.67178123 112.318597,3.30782899 112.722417,3.83579438 C112.850499,4.00334334 112.983368,4.16514776 113.117194,4.32556924 C112.971347,4.37641902 112.826244,4.42929002 112.682418,4.48620348 C112.157963,4.69353867 111.766803,4.93023482 111.191605,4.92321372 C110.624491,4.91640538 110.599066,6.05244051 110.982886,6.29147703 C111.789355,6.79380477 112.735183,6.5939162 113.611224,6.30020021 C113.577715,6.5296625 113.550694,6.76103964 113.516865,7.00050167 C113.464313,7.37219441 113.553247,7.96451987 113.963556,8.11430333 C114.380247,8.26653352 114.627582,7.78718393 114.685878,7.45793693 C114.740664,7.14805114 114.783961,6.86252643 114.85215,6.57466136 C114.993104,6.76146516 115.131718,6.95007741 115.262566,7.1439023 C115.446603,7.41644861 115.612982,7.70729233 115.820424,7.96334969 C116.012866,8.20100326 116.269774,8.35344622 116.471684,8.57790864 C116.720188,8.85439101 117.069328,8.580249 117.188687,8.34057421 C117.358364,7.99983813 117.327939,7.53878595 117.117412,7.22177268 C116.96231,6.9884807 116.747634,6.81040009 116.607319,6.56827855 C116.429983,6.26243521 116.29254,5.94914525 116.083502,5.66074828 C116.02744,5.58351619 115.968718,5.50830532 115.91106,5.43224341 C116.672743,5.12310229 117.429213,4.80077 118.189938,4.48982041 C118.93492,4.18504087 118.690883,2.30508836 117.806969,2.63497364" id="Fill-7"></path>
                <path d="M42.6564634,132.532575 C42.3445564,132.79459 41.9616937,132.751932 41.5829799,132.734273 C41.16565,132.715018 40.8625725,132.538852 40.6353442,132.179287 C40.538219,132.025461 40.433328,131.793977 40.3962013,131.616109 C40.3946056,131.608024 40.3918397,131.573664 40.3892866,131.53292 C40.4063075,131.517388 40.4233283,131.501857 40.4402428,131.486219 C40.8699128,131.265373 41.0859711,130.863575 41.5837245,130.723472 C41.9653106,130.616241 42.3583858,130.628687 42.7477377,130.672729 C42.8837981,130.813576 43.0143267,130.960168 43.0826228,131.009422 C43.109537,131.028677 43.1865564,131.094208 43.2592141,131.142611 C43.2200662,131.29516 43.1810246,131.46856 43.1734716,131.505367 C43.0898567,131.914612 42.9980505,132.245668 42.6564634,132.532575 M43.7142026,129.40074 C43.1769821,129.00192 42.7520993,128.46938 42.027224,128.880434 C41.9445665,128.927347 41.8765895,129.000005 41.8233993,129.088301 C41.4241541,129.132129 41.0381,129.249148 40.687045,129.484035 C40.050359,129.910195 39.4073965,130.422416 39.3534617,131.23314 C39.3052714,131.958335 39.536755,132.747357 39.9404682,133.353725 C40.3959886,134.037857 41.0169303,134.307424 41.7906342,134.422741 C42.5662529,134.538376 43.0842185,134.204555 43.5771848,133.622122 C44.0897251,133.016393 44.2689758,132.283007 44.4280144,131.516644 C44.6098183,130.640815 44.4237592,129.927322 43.7142026,129.40074" id="Fill-9"></path>
                <path d="M114.879745,28.1728924 C115.261332,28.0656611 115.654407,28.0780012 116.043759,28.1220426 C116.179819,28.2629965 116.310348,28.4095886 116.378644,28.4588426 C116.405558,28.4780975 116.482577,28.5435213 116.555235,28.5919244 C116.516087,28.7445801 116.477046,28.91798 116.469493,28.9547875 C116.385878,29.3640325 116.294071,29.695088 115.952484,29.9819956 C115.640577,30.2440103 115.257715,30.2012454 114.879001,30.1836927 C114.461671,30.1644378 114.158593,29.9881657 113.931472,29.6287067 C113.83424,29.4748808 113.729349,29.2433973 113.692222,29.0655294 C113.690627,29.0573381 113.687861,29.0230837 113.685308,28.9822337 C113.702328,28.9668085 113.719349,28.9511706 113.736264,28.9356391 C114.165934,28.7147936 114.381992,28.3128889 114.879745,28.1728924 M115.086655,31.8720543 C115.862167,31.987796 116.380239,31.6539747 116.873206,31.0715426 C117.385746,30.4658132 117.564997,29.7324275 117.724035,28.9660639 C117.905733,28.0902349 117.71978,27.3767423 117.010224,26.8500535 C116.473003,26.4512338 116.04812,25.9188004 115.323245,26.3298539 C115.240587,26.3767676 115.17261,26.4494253 115.11942,26.5377209 C114.720175,26.5815496 114.334015,26.6985679 113.983066,26.9334556 C113.34638,27.3595087 112.703417,27.8718362 112.649483,28.6825604 C112.601292,29.4076484 112.832776,30.1966711 113.236489,30.8031451 C113.692009,31.4872768 114.312951,31.756738 115.086655,31.8720543" id="Fill-11"></path>
                <path d="M69.0679665,117.670919 C69.1889208,117.731662 69.1716872,117.912189 69.0679665,117.670919 M64.9369006,116.648285 C64.3481921,116.231913 63.5059793,116.047768 62.6986593,116.116809 C62.6642984,115.717351 62.5711093,115.319595 62.4489847,114.941839 C62.4034539,114.800885 62.3486681,114.664612 62.288776,114.531211 C62.5274934,114.491957 62.7627002,114.433873 62.9898221,114.347705 C63.5876794,114.120902 64.1984086,113.71421 64.6907366,113.30688 C64.9656233,113.079333 65.1141302,112.800723 65.1977451,112.496475 C65.8502818,112.961889 66.6257941,113.309753 67.2824796,113.533896 C67.3304572,113.550385 67.3788602,113.566129 67.4276887,113.581448 C67.3218404,114.078137 67.2742884,114.597486 67.3006707,115.11109 C66.2723988,115.172897 65.4961418,115.810221 64.9369006,116.648285 M69.7891185,112.891784 C69.7889057,112.891678 69.7886929,112.891465 69.7885866,112.891359 C69.8387981,112.899231 69.8535849,112.924124 69.7891185,112.891784 M68.7252092,114.449617 C68.7607402,114.204411 68.840419,113.978034 68.9496716,113.764741 C69.2048779,113.734316 69.455829,113.665914 69.6960357,113.548044 C70.5155895,113.146033 70.9658972,112.099889 70.5108024,111.256826 C70.179215,110.643011 69.5087,110.662692 68.9725433,111.000024 C68.6901037,111.177679 68.4377696,111.441183 68.2212857,111.74543 C67.8570396,111.680219 67.5118356,111.5315 67.1767376,111.365653 C66.729834,111.144382 66.2154853,110.941834 65.8509201,110.601523 C65.5906075,110.35855 65.159129,110.001751 65.0583869,109.647717 C64.9428579,109.241451 64.3754254,108.615935 64.0553271,109.272727 C63.6423588,110.120152 63.7654408,110.855985 64.1708561,111.475544 C64.1694732,111.497245 64.1676647,111.518947 64.1662818,111.540648 C64.1459631,111.630752 64.1374527,111.682453 64.1396867,111.698623 C64.0268172,111.822237 63.7845893,111.921702 63.6545926,111.999466 C63.251624,112.240311 62.8155712,112.479561 62.3560083,112.592749 C61.8498509,112.717427 61.2897587,112.690194 60.7757291,112.639769 C60.5831808,112.62094 60.2868053,112.625727 60.0264927,112.589664 C60.0172376,112.584771 60.0078762,112.580196 59.9987275,112.575197 C59.697884,112.411265 59.4990592,112.289459 59.1448129,112.386478 C58.5481258,112.549878 58.5698274,113.863036 59.0369432,114.15154 C59.2521506,114.284515 59.4815065,114.366853 59.7186281,114.422278 C59.8866026,114.51568 60.0513857,114.62057 60.2098923,114.696632 C60.5719045,114.870351 60.9205127,115.043539 61.1417837,115.394487 C61.3163537,115.671289 61.5016682,116.144468 61.4319891,116.472119 C61.1066782,116.644349 60.8266853,116.877003 60.625201,117.17391 C60.3614842,117.562198 60.3523355,118.651426 60.9476397,118.796422 C61.4720945,118.924292 61.8597443,118.628129 62.1415457,118.230267 C62.2517557,118.193353 62.3544126,118.165162 62.4256874,118.151439 C62.806848,118.077824 63.2459859,118.031867 63.629274,118.099312 C63.7909721,118.127822 63.9793716,118.1858 64.1534097,118.267074 C64.0500081,118.579407 63.9806482,118.900143 63.9734143,119.247262 C63.9625635,119.778738 64.1328783,120.707225 64.8255204,120.711711 C65.5939053,120.716693 65.938471,119.679166 65.9898527,119.075245 C66.020703,118.713446 65.980704,118.340796 65.8734727,117.988783 C66.0205966,117.75964 66.1971879,117.554007 66.421012,117.410713 C66.8384483,117.143379 67.4204549,117.023595 67.9078894,117.133486 C67.9986318,117.257632 68.1025653,117.372309 68.2240516,117.472094 C68.510321,117.707088 68.8636099,117.83166 69.1714745,118.030272 C69.4062558,118.181757 69.6085911,118.201118 69.8336918,118.014102 C70.4755905,117.480605 70.3011268,116.367441 69.6612493,115.916708 C69.3750864,115.715117 69.0393502,115.521612 68.6911675,115.373956 C68.6336157,115.074602 68.6877633,114.708334 68.7252092,114.449617" id="Fill-13"></path>
                <path d="M69.6125484,90.4403621 C69.2267071,90.4792973 68.8427807,90.5304662 68.4595988,90.5869542 C68.6453388,90.0868604 68.8333128,89.5872986 69.0217123,89.0862474 C69.1438369,88.7614684 69.1026677,88.248609 68.8108666,88.0191467 C68.5139592,87.7856419 68.2273707,88.02287 68.114182,88.317437 C67.7974879,89.142097 67.4840916,89.9640976 67.1794184,90.7909916 C67.0678255,90.8096081 66.9561262,90.8279055 66.8444269,90.8462029 C66.4714576,90.273877 66.1041264,89.6979341 65.7400931,89.1196508 C65.5515872,88.8201903 65.2040428,88.8692316 65.0208559,89.1373099 C64.8033082,89.4557061 64.8632003,89.9189923 65.0477701,90.2326014 C65.2039364,90.4978075 65.3570176,90.7726942 65.5115882,91.0504531 C64.9331986,91.1258767 64.3200226,91.1298128 63.7732279,91.3461903 C63.362068,91.5090585 62.8939947,91.6469274 62.6372991,92.0285135 C62.41656,92.3565903 62.542727,93.7488956 63.1876044,93.3684796 C63.4664271,93.2040157 63.9499255,93.1959308 64.256939,93.1459321 C64.8396903,93.0511472 65.4246755,92.9687025 66.0057247,92.8623222 C66.1566783,92.8346633 66.3075255,92.8061534 66.45816,92.777218 C66.3595455,93.0456155 66.2615693,93.3143321 66.1681674,93.5844316 C65.9958313,94.083568 65.9485984,94.6694042 65.6982856,95.1354563 C65.5178646,95.4714053 65.4904185,95.9469252 65.7260509,96.2676617 C65.9291308,96.5442505 66.2860367,96.5671223 66.4695427,96.2494707 C66.7545355,95.7560789 66.8604903,95.2208797 67.0375071,94.6857868 C67.140696,94.3740925 67.2468635,94.0632493 67.3531374,93.7524061 C67.6624913,94.0969719 67.9461012,94.4397292 68.1872653,94.8513145 C68.3264107,95.0887553 68.4651306,95.3127922 68.6474664,95.5203402 C68.7253368,95.6090613 68.8056539,95.6938464 68.8933113,95.7727806 C68.9101194,95.787993 68.9238424,95.8006523 68.9373527,95.8130987 C68.9834154,96.0278806 69.0895829,96.2306414 69.2664934,96.3307452 C69.5496777,96.4912731 69.8579678,96.275853 69.9360509,95.9757542 C70.1244504,95.2505598 69.9272213,94.7924862 69.4228724,94.2845203 C68.9769262,93.8352764 68.7568254,93.1984839 68.3358786,92.7174323 C68.2569444,92.6273282 68.1723721,92.5424367 68.0869487,92.458609 C68.6076802,92.3598881 69.1296883,92.2682947 69.6557388,92.1982964 C70.4318895,92.0952139 70.382529,90.3628109 69.6125484,90.4403621" id="Fill-15"></path>
                <path d="M43.5902483,83.538845 C42.8655858,83.3958698 42.2073045,83.7869238 41.6326382,84.1852116 C41.5191304,84.2638266 41.4518981,84.4187163 41.4266859,84.5960523 C41.4122182,84.6111583 41.3972186,84.6250941 41.3831764,84.6410512 C40.9273368,85.1597615 40.7714897,86.0616536 40.8721255,86.7252538 C40.9770164,87.4168321 41.3878571,87.8868202 42.0381599,88.1194739 C42.6996325,88.3560637 43.4267418,88.5742497 44.1071501,88.2804273 C44.6692636,88.0376675 45.2638231,87.5815088 45.4664775,86.9863111 C45.7493427,86.1555874 45.4678605,85.5269862 45.0035105,84.8512586 C44.5978824,84.260848 44.3666117,83.6918198 43.5902483,83.538845" id="Fill-17"></path>
                <path d="M93.0639986,102.699765 C92.8427276,102.341476 92.5052893,102.052548 92.1875314,101.779788 C91.8696671,101.506817 91.5316969,101.291503 91.1016014,101.399479 C90.8261828,101.468732 90.7134197,101.622452 90.5293818,101.819256 C90.3828961,101.975635 90.2011986,102.074568 90.0213095,102.188502 C89.7481249,102.361582 89.6137666,102.81423 89.6398298,103.216348 C89.6111071,103.270921 89.5838738,103.326452 89.561002,103.384216 C89.2813282,104.091007 89.1310129,105.131938 89.43792,105.842877 C89.7086579,106.470096 90.304813,107.021145 90.9866043,107.101463 C91.8206258,107.199545 92.4189085,107.104973 92.9218746,106.397331 C93.4597333,105.640648 93.3814374,104.760458 93.3340982,103.879629 C93.3116519,103.462299 93.2901631,103.066033 93.0639986,102.699765" id="Fill-19"></path>
                <path d="M90.1924541,75.2112681 C90.1911776,75.2099915 90.1904329,75.2091405 90.1892627,75.2080767 C90.1813906,75.2004173 90.1749014,75.1921196 90.1674548,75.1844602 C90.1690505,75.1981833 90.1740504,75.2121191 90.1804332,75.2257358 C90.1844756,75.2208423 90.1885181,75.2160552 90.1924541,75.2112681" id="Fill-21"></path>
                <path d="M88.7089491,76.0903523 C88.5122519,75.9064207 88.2870448,75.7259998 88.098007,75.5403661 C88.1348146,75.361009 88.264705,75.165482 88.3794893,75.0332513 C88.6685246,74.7006001 89.1040455,74.6025175 89.5186095,74.5158176 C89.5573319,74.5352851 89.5961607,74.55454 89.6337129,74.5763479 C89.886898,74.7225145 89.9737043,74.9837845 90.1674229,75.1844177 C90.1619975,75.1399507 90.1857203,75.0976114 90.2706117,75.0738886 C90.3061428,75.0641016 90.2557185,75.1339934 90.1924222,75.2112255 C90.4228419,75.4349433 90.2345488,75.3409031 90.1804013,75.2256932 C90.1015735,75.3207972 90.0105119,75.42005 90.0405112,75.3915401 C89.9107272,75.5156859 89.7867942,75.6916389 89.6464786,75.8002532 C89.5413748,75.8815277 89.3690388,75.9180162 89.251063,75.9949291 C88.9257521,76.2069451 88.9923462,76.3555583 88.7089491,76.0903523 M91.7430214,74.7200677 C91.616748,74.0209364 91.1354835,73.2396796 90.6164541,72.7516068 C90.0395537,72.2092801 89.1157473,72.5507608 88.3989569,72.4337425 C88.0637526,72.3789566 87.9068417,72.9238365 87.8942888,73.1482989 C87.8915229,73.1972338 87.8921612,73.2469134 87.8947143,73.2969122 C87.7417395,73.3883992 87.5973814,73.4949923 87.4661081,73.6222231 C86.8801655,74.1899747 86.6381503,75.0537827 86.6918724,75.8515285 C86.7493177,76.7055495 87.1889875,77.2594717 87.758122,77.8487121 C88.2282165,78.3357211 88.7870322,78.7741142 89.4719085,78.3822093 C90.8054918,77.6189307 92.0514178,76.426514 91.7430214,74.7200677" id="Fill-23"></path>
                <path d="M116.881854,134.692287 C116.803027,134.787391 116.711965,134.886644 116.741964,134.858134 C116.61218,134.98228 116.488247,135.158233 116.347932,135.266847 C116.242828,135.348121 116.070492,135.38461 115.952516,135.461416 C115.627205,135.673539 115.693799,135.822152 115.410402,135.556946 C115.213705,135.372908 114.988498,135.192593 114.79946,135.00696 C114.836268,134.827496 114.966158,134.632076 115.080942,134.499845 C115.369978,134.167087 115.805499,134.069111 116.220063,133.982411 C116.258785,134.001879 116.297614,134.021134 116.335166,134.042942 C116.588351,134.189108 116.675158,134.450378 116.868876,134.651011 C116.863451,134.606544 116.887173,134.564205 116.972065,134.540482 C117.007596,134.530589 116.957172,134.600587 116.893875,134.677819 C117.124295,134.901537 116.936002,134.807497 116.881854,134.692287 M117.317907,132.2182 C116.741007,131.675874 115.8172,132.017248 115.10041,131.900336 C114.765206,131.84555 114.608295,132.39043 114.595742,132.614893 C114.592976,132.663827 114.593614,132.713507 114.596168,132.763506 C114.443193,132.854993 114.298835,132.96148 114.167561,133.088817 C113.581619,133.656568 113.339604,134.520376 113.393326,135.318122 C113.450771,136.172143 113.890441,136.726065 114.459469,137.315306 C114.92967,137.802315 115.488485,138.240602 116.173362,137.848803 C117.506945,137.085524 118.752871,135.893108 118.444475,134.186661 C118.318201,133.48753 117.836937,132.706273 117.317907,132.2182" id="Fill-25"></path>
                <path d="M116.890684,134.674617 C116.882812,134.667064 116.876323,134.658766 116.868876,134.651001 C116.870578,134.664724 116.875472,134.67866 116.881854,134.692276 C116.885897,134.687383 116.889939,134.682596 116.893875,134.677809 C116.892705,134.676638 116.891961,134.675787 116.890684,134.674617" id="Fill-27"></path>
                <path d="M67.5880464,61.8849451 C67.6029396,61.9085615 67.6038971,61.9257951 67.5880464,61.8849451 M65.5930968,61.5177203 C64.7049277,61.7001625 63.9469682,62.0647278 63.1641156,62.5083336 C63.01263,62.5941825 62.8662508,62.6803506 62.7265734,62.770561 C62.5560458,62.3639756 62.2900951,61.9974955 61.9519122,61.6986732 C61.570858,61.362086 61.1704425,61.1011351 60.7215177,60.9578409 C60.8355574,60.6645504 60.8859816,60.348069 60.8686417,60.0127584 C60.8485358,59.6200023 60.7363046,59.1468228 60.5402457,58.7034297 C60.675455,58.6441759 60.8084304,58.5785393 60.9377888,58.5091793 C61.6840466,58.1594009 62.3909436,57.7088804 62.6129593,56.9477294 C63.01263,57.0890024 63.4588954,56.9828349 63.8585661,56.8882628 C64.095475,56.8322004 64.2798321,56.7635851 64.4503597,56.676566 C64.7321611,57.1751705 65.1750222,57.5907983 65.6132027,58.0046176 C65.8335162,58.2128038 66.0113841,58.4647124 66.2212724,58.6824728 C65.7553267,59.3387328 65.7605394,60.2670073 65.9191524,61.0279455 C65.9486197,61.1693249 65.9896825,61.3084703 66.0370217,61.4459136 C65.887983,61.4648493 65.7395824,61.4877211 65.5930968,61.5177203 M61.8348938,64.288395 C61.8242558,64.355521 61.7387261,64.364457 61.8348938,64.288395 M61.3133113,56.0089233 C61.3163963,55.9678605 61.3295875,56.0408374 61.3401191,56.1064741 C61.1815061,56.034561 61.3272471,55.8210557 61.3133113,56.0089233 M68.1548406,57.2568705 C67.8255936,57.2285734 67.2953942,57.3877183 67.004976,57.2146376 C66.7577482,57.0673008 66.5826463,56.7182671 66.3883958,56.5132723 C66.1843584,56.2981713 65.9561727,56.1083889 65.7478801,55.8976495 C65.6582015,55.8070135 65.5849055,55.7121223 65.5021416,55.6166992 C65.4741636,55.5865936 65.4528876,55.552871 65.4346965,55.5174464 C65.4354412,55.4954257 65.4357603,55.4662775 65.4354412,55.4280869 C65.4534195,55.1049036 65.2072555,54.4055596 64.7712027,54.4684303 C64.4406791,54.5160887 64.3689788,54.6889567 64.1055812,54.8333147 C63.8399496,54.978843 63.2986867,55.0880955 63.0092259,55.0517135 C62.79721,55.025012 62.5347698,54.873101 62.3357323,54.7732099 C62.1490348,54.3910918 61.8745737,54.1162052 61.4813921,54.158119 C60.8059837,54.2302448 60.7926861,55.1758593 60.9601287,55.6515919 C61.0289568,55.8469061 61.147358,56.0166891 61.2942692,56.1659406 C61.0384246,56.3014691 60.7530063,56.6211419 60.5275864,56.7703935 C60.2281259,56.9686863 59.9178146,57.1510221 59.6109075,57.337294 C59.5693128,57.3626125 59.5319733,57.3955904 59.4978252,57.4335682 C59.2260236,57.2801678 58.917308,57.2063399 58.573806,57.2518707 C57.9710553,57.3320814 57.9786083,58.3450345 58.3579604,58.6657711 C58.6358257,58.9006588 58.9644344,58.9959755 59.3128299,58.9981031 C59.6813312,59.2732026 59.9584519,59.7373398 59.8643053,60.1323298 C59.8079238,60.3687068 59.5087824,60.5641274 59.3366591,60.7158257 C59.2649588,60.7790156 59.1894287,60.8463543 59.1110265,60.9124165 C58.7602907,60.9913507 58.4391286,61.1515594 58.272537,61.4827212 C58.0674358,61.8906896 58.097967,62.9588542 58.8013534,62.7703483 C59.0259222,62.7102434 59.254959,62.5780127 59.4726131,62.4154636 C59.609099,62.4053575 59.7402659,62.405783 59.8089876,62.4036554 C60.2482318,62.3905706 60.6231159,62.4563137 60.9966171,62.7050308 C61.3382043,62.9324718 61.6795786,63.2149115 61.8430851,63.5956466 C61.7720231,63.703729 61.7083013,63.8206409 61.6536218,63.9488292 C61.3919263,64.5617924 61.3271407,65.4017712 61.9712734,65.7881444 C62.1037168,65.8676105 62.2793507,65.7736767 62.3799865,65.6962318 C62.7037017,65.4471956 62.8369962,64.9749734 62.8944415,64.5201977 C62.9089093,64.5090278 62.9221004,64.4976451 62.9377383,64.4863688 C63.3745358,64.16893 63.8923951,63.8900008 64.3796168,63.6560706 C64.8554558,63.4277785 65.3768257,63.2742717 65.8923445,63.1658702 C66.1775501,63.1059781 66.5017972,63.0369373 66.8109384,63.0410861 C67.1188029,63.4845856 67.5649619,63.6805381 68.0619706,63.243847 C68.3895155,62.9561946 68.431323,62.1007907 68.0277161,61.8472865 C67.827934,61.7217577 67.6580446,61.6175051 67.4774109,61.5417623 C67.4509222,61.4684663 67.4225187,61.3958085 67.3931577,61.3246401 C67.2656077,61.0157118 66.9540199,60.3483882 67.0682723,60.1280746 C67.1979499,59.8781873 67.6414493,59.6924473 67.8568694,59.5298982 C68.3044113,59.1922472 68.6735509,59.0283151 68.7649316,58.4053522 C68.8279087,57.9764268 68.6848272,57.3022949 68.1548406,57.2568705" id="Fill-29"></path>
                <path d="M114.439257,117.746651 C114.201071,117.934306 113.926184,118.073451 113.680127,118.249404 C113.098652,117.692716 112.179633,117.562507 111.403695,117.608357 C111.259443,117.616974 111.115936,117.637292 110.973068,117.6641 C110.97594,117.513891 110.975089,117.363576 110.966685,117.214324 C110.915835,116.309134 110.665628,115.506069 110.340956,114.666835 C110.278085,114.504499 110.214257,114.347163 110.145322,114.195783 C110.572439,114.086424 110.973919,113.876749 111.318803,113.585692 C111.707304,113.257828 112.023892,112.899752 112.231121,112.476571 C112.504625,112.632206 112.810468,112.728161 113.144715,112.760075 C113.536194,112.797414 114.020544,112.755394 114.487979,112.626036 C114.526808,112.768479 114.572338,112.909646 114.622231,113.047727 C114.859352,113.837069 115.201897,114.60205 115.922411,114.93268 C115.724543,115.307457 115.764436,115.764361 115.799648,116.173712 C115.820498,116.416259 115.861455,116.608595 115.92273,116.79008 C115.388488,116.996032 114.912649,117.373575 114.439257,117.746651 M110.312446,119.134488 C110.286915,119.145658 110.269681,119.144169 110.312446,119.134488 M108.773868,113.092301 C108.708976,113.072088 108.712593,112.986027 108.773868,113.092301 M117.040893,113.783879 C117.080998,113.792921 117.006851,113.795262 116.94047,113.796113 C117.034723,113.649733 117.224612,113.825048 117.040893,113.783879 M117.445883,113.486546 C117.24259,113.526119 117.057276,113.618458 116.888237,113.742071 C116.791538,113.469206 116.516864,113.140172 116.402079,112.895391 C116.249636,112.570292 116.114533,112.236684 115.974962,111.905948 C115.956027,111.861161 115.928793,111.819248 115.896241,111.779993 C116.087619,111.53351 116.205701,111.238837 116.210701,110.89225 C116.219318,110.284393 115.216152,110.144077 114.843502,110.47258 C114.57053,110.713212 114.428299,111.02448 114.375322,111.368833 C114.049373,111.693293 113.549917,111.899778 113.172799,111.74893 C112.947273,111.658613 112.79749,111.33426 112.672599,111.141818 C112.620579,111.061607 112.564942,110.977141 112.511007,110.890016 C112.484093,110.531514 112.372288,110.190246 112.069104,109.977273 C111.69539,109.714833 110.63414,109.589198 110.718074,110.312584 C110.744775,110.543429 110.84222,110.789486 110.971259,111.028523 C110.961472,111.164902 110.941898,111.294686 110.933813,111.362876 C110.882751,111.799461 110.763073,112.160622 110.462549,112.493911 C110.187768,112.798585 109.858415,113.095173 109.457999,113.20134 C109.361406,113.115279 109.255132,113.035281 109.136199,112.96241 C108.568022,112.614121 107.746447,112.42753 107.270182,113.008473 C107.172312,113.127938 107.239651,113.31538 107.301565,113.426335 C107.500602,113.782815 107.948357,113.983555 108.389835,114.106637 C108.398877,114.1227 108.408239,114.137274 108.417175,114.154401 C108.667487,114.632794 108.867908,115.185865 109.028223,115.701916 C109.184708,116.206052 109.260451,116.74423 109.292578,117.270067 C109.310237,117.561017 109.331194,117.891754 109.28194,118.196959 C108.798335,118.436846 108.539406,118.849708 108.898865,119.40512 C109.135774,119.771068 109.975859,119.93734 110.285638,119.574903 C110.438932,119.395652 110.566801,119.242677 110.668075,119.075128 C110.744456,119.059597 110.820412,119.042044 110.895197,119.023321 C111.219338,118.942153 111.925065,118.731307 112.126336,118.87641 C112.354735,119.041193 112.473668,119.507139 112.603026,119.743835 C112.871849,120.235844 112.980144,120.625089 113.583108,120.806255 C113.99831,120.931145 114.686059,120.887848 114.808396,120.370202 C114.884458,120.048721 114.804354,119.500756 115.017859,119.238741 C115.199663,119.015662 115.570505,118.893431 115.801669,118.731094 C116.044216,118.560567 116.265274,118.362593 116.504098,118.187278 C116.606861,118.111855 116.71154,118.053133 116.817814,117.985049 C116.851749,117.961752 116.888237,117.945689 116.925896,117.932923 C116.947704,117.936859 116.97632,117.941433 117.014298,117.946646 C117.331418,118.011538 118.059059,117.869946 118.060442,117.429531 C118.061506,117.095497 117.900978,116.999436 117.796619,116.717741 C117.691302,116.433706 117.662154,115.882336 117.74045,115.60128 C117.797789,115.395328 117.986295,115.157887 118.114164,114.975657 C118.519473,114.846618 118.831486,114.615134 118.847337,114.220038 C118.874464,113.541438 117.94087,113.390378 117.445883,113.486546" id="Fill-31"></path>
                <path d="M94.573269,43.713553 C93.6914828,44.0069499 92.8161857,44.3189633 91.9458886,44.6443806 C91.7187667,44.4538535 91.490049,44.2652412 91.2920753,44.0393959 C90.8849579,43.5750459 90.5203927,43.0741011 90.1669973,42.5682628 C89.9127484,42.2042295 89.4853124,42.2301863 89.2458504,42.5909218 C88.9863889,42.981763 89.017771,43.6128109 89.2803176,43.9940779 C89.5866928,44.439173 89.9050891,44.8750131 90.2469953,45.2927685 C89.6171176,45.5459536 89.000963,45.8289251 88.4371474,46.2112559 C88.0787522,46.4542285 88.1492823,47.7226007 88.7193743,47.5998379 C89.2227659,47.4915427 89.7245617,47.4983511 90.2192301,47.3342063 C90.7233663,47.1668701 91.2099497,46.9421949 91.7016394,46.7410298 C91.7688718,46.8103897 91.8346148,46.8813454 91.8965281,46.9560243 C91.913549,46.9766621 91.9304634,46.9970871 91.9474843,47.0176185 C91.8450401,47.8913199 91.5651535,48.7467238 91.311011,49.5835112 C91.1528235,50.1044554 90.9911255,50.6230594 90.8980427,51.1610245 C90.8699583,51.3224034 90.8891068,51.850156 90.7910241,51.9201543 C90.3419929,52.2399334 90.5508174,53.6679825 91.2320768,53.3736282 C91.7013203,53.170761 91.8528058,52.6366255 91.9312081,52.174084 C92.0251419,51.6199491 92.1822656,51.0973027 92.3227939,50.5528484 C92.5302355,49.7488261 92.7409749,48.9342722 92.8725673,48.1104633 C92.9644799,48.2139713 93.0571371,48.3171602 93.1520283,48.4187533 C93.48202,48.7719359 93.8077564,49.071822 94.3122118,49.1052254 C94.6637986,49.1284163 94.8186884,48.6271523 94.8331561,48.3675844 C94.8537938,48.0017426 94.7432647,47.6535599 94.417741,47.4605861 C94.2952973,47.3878219 94.2081719,47.1196372 94.1371098,47.0083634 C94.0042408,46.8000708 93.8412662,46.6280539 93.669994,46.451569 C93.5563798,46.3346571 93.4459571,46.2154047 93.3368109,46.0949823 C93.8696698,45.8910512 94.404869,45.6928648 94.9424086,45.501593 C95.6732412,45.2412804 95.4385663,43.4257944 94.573269,43.713553" id="Fill-33"></path>
                <path d="M113.585512,82.9990501 C113.344454,82.904478 113.170416,83.0228793 113.069781,83.2294698 C112.991804,83.2713836 112.918721,83.3197867 112.85085,83.3740406 C111.854386,83.5187178 111.583754,85.7035562 112.185867,86.4254529 C112.292779,86.5536411 112.483625,86.7584232 112.682982,86.7222539 C112.86053,86.6901271 113.028718,86.6392773 113.190948,86.5766193 C113.469877,86.5717258 113.706041,86.4287507 113.883909,86.2166284 C114.011459,86.1338645 114.136456,86.045037 114.260176,85.9519542 C114.776652,85.5631343 115.218131,85.0869761 115.219833,84.4035891 C115.252385,83.9920037 115.100368,83.5577594 114.772078,83.295532 C114.499638,83.0779843 114.110924,83.0127731 113.748061,83.0420277 C113.691467,83.0322407 113.636787,83.019156 113.585512,82.9990501" id="Fill-35"></path>
                <path d="M115.54192,58.7090253 C116.220095,59.0178473 116.889759,58.3418006 116.949225,57.6236272 C117.019011,56.779606 116.584873,56.1891954 115.867125,56.0118594 C115.69447,55.8753735 115.485113,55.8431403 115.289054,55.9183511 C115.210546,55.8359064 115.127569,55.7606956 115.041401,55.6970801 C114.810237,55.427938 114.473437,55.3819817 114.218549,55.5768704 C114.141211,55.6209118 114.065149,55.6829316 113.991215,55.7682486 C113.928238,55.8410127 113.876643,55.9204788 113.83058,56.0026043 C113.720158,55.9204788 113.588353,55.9053727 113.44208,55.9992002 C113.03092,56.2635552 112.833904,56.6073763 112.758799,57.0917258 C112.711673,57.3967181 112.770288,57.8788335 113.048898,58.0795731 C113.225702,58.2070167 113.4074,58.2630792 113.592927,58.2830786 C113.748242,58.6112618 114.002065,58.8762552 114.356418,58.9895502 C114.865554,59.1522056 115.265651,59.0060391 115.54192,58.7090253" id="Fill-37"></path>
                <path d="M86.4357937,133.093561 C86.4774948,133.010372 86.2893081,133.148028 86.2395221,133.17941 C85.9644226,133.352704 85.7192161,133.594612 85.3934796,133.66259 C85.1198695,133.719716 84.8105156,133.695035 84.5444585,133.61642 C84.4302061,133.582698 84.3093581,133.53855 84.2042543,133.47685 C84.2837204,133.368767 84.3525485,133.217388 84.4433972,133.126007 C84.703497,132.864737 85.1557197,132.763038 85.5231572,132.633998 C85.606453,132.662828 85.6899615,132.691125 85.7735764,132.717507 C85.9448487,132.771335 86.2528196,132.913991 86.443134,132.91931 C86.4602612,132.969628 86.4728141,133.019627 86.4357937,133.093561 M83.9420269,133.243238 C83.9407504,133.248132 83.9397929,133.252493 83.9386227,133.257387 C83.9316016,133.247387 83.9311761,133.241643 83.9420269,133.243238 M86.1154827,130.52235 C85.4372019,130.242357 84.7628572,130.06268 84.2888267,130.795322 C84.2346791,130.879362 84.1946801,130.974253 84.164149,131.073825 C84.1208522,131.09542 84.0777682,131.11776 84.0358543,131.142334 C83.7254366,131.324351 83.5628876,131.574876 83.3444888,131.848912 C83.1067289,132.147415 82.8403526,132.391877 82.7008881,132.758889 C82.5235521,133.225473 82.5574874,133.76163 82.7180153,134.226086 C83.1639615,135.515947 84.717752,136.176569 85.9859115,135.684666 C86.2797338,135.570839 86.5286637,135.343292 86.7962101,135.180211 C87.1758814,134.948621 87.4525765,134.709159 87.6320401,134.289701 C87.9658614,133.509721 87.9425642,132.553681 87.6652307,131.760191 C87.3840676,130.955849 86.8500386,130.82564 86.1154827,130.52235" id="Fill-39"></path>
                <path d="M81.0532063,35.3745403 C81.4851103,36.0032478 82.2327509,36.4597256 82.9907105,36.1662224 C83.6265455,35.9201648 84.3831222,35.230395 84.7296028,34.6427503 C85.2077822,33.8318133 84.9961918,32.8502423 84.6731148,32.0248377 C84.4156745,31.3669819 83.8265405,30.4816851 82.9960295,30.7112538 C82.8237998,30.7588058 82.6853991,30.8466759 82.5722105,30.9597582 C82.4296609,30.9335886 82.2889197,30.9152912 82.1541359,30.9052915 C81.2544778,30.8383783 80.5646016,31.3973003 80.3029061,32.2330239 C80.0164239,33.1475753 80.2700346,34.0535098 80.7801281,34.8056185 C80.8427861,35.0078474 80.9336348,35.2005021 81.0532063,35.3745403" id="Fill-41"></path>
            </g>
        </g>
    </g>
</svg>