<?xml version="1.0" encoding="UTF-8"?>
<svg width="167px" height="402px" viewBox="0 0 167 402" version="1.1" xmlns="http://www.w3.org/2000/svg" xmlns:xlink="http://www.w3.org/1999/xlink">
    <title>Group 53</title>
    <defs>
        <polygon id="path-1" points="0 0 7.33130699 0 7.33130699 32.9908815 0 32.9908815"></polygon>
        <polygon id="path-3" points="0 0 166.176292 0 166.176292 171.06383 0 171.06383"></polygon>
    </defs>
    <g id="Page-1" stroke="none" stroke-width="1" fill="none" fill-rule="evenodd" opacity="0.102925145">
        <g id="棚拍人像花魁-攝影免費學" transform="translate(-267.000000, -1082.000000)">
            <g id="Group-53" transform="translate(267.000000, 1082.000000)">
                <g id="Group-3" transform="translate(4.887538, 369.009119)">
                    <mask id="mask-2" fill="white">
                        <use xlink:href="#path-1"></use>
                    </mask>
                    <g id="Clip-2"></g>
                    <path d="M7.09627918,0.167226038 C6.8024016,6.18544312 8.85954465,18.45445 4.51476633,20.8566393 C3.84057659,25.5877417 5.55774362,32.9472343 0.645378212,32.9918372 C-0.824009681,24.0425668 1.8410566,12.1271979 0,3.73865078 C3.61872783,3.93936422 2.6391359,-0.954220447 7.09627918,0.167226038" id="Fill-1" fill="#000333" mask="url(#mask-2)"></path>
                </g>
                <path d="M69.2106001,19.550152 C64.5721882,14.5062041 64.7288498,8.20533952 59.8723404,3.46748013 C60.376115,1.66676794 60.7447305,2.77389659 62.2038336,2.84879059 C64.8117883,8.31930865 71.3946471,14.4866665 69.2106001,19.550152" id="Fill-4" fill="#000333"></path>
                <path d="M69.6474164,9.77507599 C73.0979668,12.0145671 75.8512865,14.9531426 76.9787234,19.550152 C73.0564297,17.8009279 71.4157122,13.7305015 69.6474164,9.77507599" id="Fill-6" fill="#000333"></path>
                <path d="M83.0881459,13.4407295 C84.7740076,16.6948008 88.4232992,14.7655095 89.1975684,19.550152 L84.7535552,19.550152 C83.9237723,17.8170053 83.5994558,15.5307951 83.0881459,13.4407295" id="Fill-8" fill="#000333"></path>
                <path d="M81.8662614,20.7720365 C77.9635807,20.7270197 77.8129122,17.3925612 76.9787234,14.662614 C78.4560093,16.8330667 81.4289554,17.6948168 81.8662614,20.7720365" id="Fill-10" fill="#000333"></path>
                <path d="M141.840303,37.9737175 C144.182181,37.7794378 146.235148,39.9934925 145.065908,41.4524226 C142.832797,41.5477296 141.323662,40.8512555 141.840303,37.9737175" id="Fill-12" fill="#000333"></path>
                <path d="M142.960486,45.0638981 C141.819905,47.6188585 140.065164,45.1005546 137.409656,45.7567066 C137.497393,44.9502628 137.2839,44.5213813 136.851064,44.3637582 C138.830996,41.4495637 140.980554,43.7809193 142.960486,45.0638981" id="Fill-14" fill="#000333"></path>
                <path d="M135.712104,50.0972644 C138.179796,51.6189647 140.961501,52.8381959 141.738602,56.0156807 C139.01399,57.2411483 135.001611,52.2519671 135.712104,50.0972644" id="Fill-16" fill="#000333"></path>
                <path d="M131.963526,56.2066869 C135.761014,56.7531517 138.654951,58.3482382 141.738602,59.7107078 C139.098688,62.9784196 132.503727,59.9064013 131.963526,56.2066869" id="Fill-18" fill="#000333"></path>
                <path d="M138.072948,68.4227542 C135.391233,68.5160591 130.159638,66.2542197 129.519757,62.3161094 C132.053559,62.3579358 136.880003,65.0283863 138.072948,68.4227542" id="Fill-20" fill="#000333"></path>
                <path d="M128.31047,69.6474164 C130.960501,70.5889033 133.3645,71.8442192 135.629179,73.2794127 C134.307128,76.1880714 127.978475,73.6544766 128.31047,69.6474164" id="Fill-22" fill="#000333"></path>
                <path d="M124.632219,74.5349544 C128.05884,75.5092465 131.031152,76.9722924 131.963526,80.6443769 C128.415161,79.8051352 125.615071,78.1523756 124.632219,74.5349544" id="Fill-24" fill="#000333"></path>
                <path d="M109.969605,37.8784195 C105.248843,37.4613077 103.994375,31.6557295 101.416413,30.830775 C105.894084,29.2735577 108.439034,34.4797308 109.969605,37.8784195" id="Fill-26" fill="#000333"></path>
                <path d="M120.966565,80.6443769 C125.571053,81.3698077 127.859674,84.2945602 130.741641,86.6608462 C126.7971,87.3977918 122.916131,83.6007951 120.966565,80.6443769" id="Fill-28" fill="#000333"></path>
                <path d="M116.079027,85.5319149 C122.17327,85.6316277 129.414781,89.7777524 131.963526,95.3069909 C127.518275,93.6247386 120.888863,88.8867699 116.079027,85.5319149" id="Fill-30" fill="#000333"></path>
                <path d="M35.972791,238.267477 C36.372389,240.990154 36.0637564,241.267523 37.8245867,243.116648 C39.5756708,242.61292 38.7894698,239.625627 41.5281782,240.084721 C41.5476708,240.677716 42.2818915,240.559754 42.7659574,240.696845 C41.2715258,256.156165 38.8934302,274.076735 32.8897135,288.544542 C32.5453445,289.886752 34.0657662,289.402153 34.124244,290.361785 C32.8897135,293.189671 32.4576278,296.798652 29.186122,297.62757 C27.2563559,297.908127 27.2108732,296.333183 27.3310775,294.60202 C23.5657595,294.538257 24.579374,299.167445 23.627486,301.867805 C26.2589852,304.813652 29.0951566,304.109072 32.2691995,304.893356 C32.262702,306.506558 32.5063593,308.355682 31.6519342,309.136778 C23.6177397,306.07297 11.1262404,311.177192 15.6062866,301.265245 C16.3307611,300.567041 17.7862075,300.579794 19.3098781,300.653121 C22.9484943,280.268115 27.5000133,258.598285 32.8897135,238.267477 L35.972791,238.267477 Z" id="Fill-32" fill="#000333"></path>
                <path d="M42.9120455,262.705167 L45.4368345,262.705167 C46.4214689,277.033422 47.539162,281.869923 46.0688633,294.719563 C47.8585029,293.21233 45.7994194,288.019689 49.8610364,288.677911 C50.4731065,299.6451 50.1205009,315.108549 46.0688633,326.132974 C46.052231,327.560712 47.1566182,327.916851 46.7042186,329.761145 C43.5972979,331.382852 37.1372977,333.977582 34.692344,330.966296 C32.8162162,328.737244 36.9909331,328.250732 37.8524882,326.737139 C40.0512834,306.726552 40.4837241,280.871461 42.9120455,262.705167" id="Fill-34" fill="#000333"></path>
                <path d="M40.8317076,336.624442 C42.3742924,342.784703 41.0441769,349.190493 40.2787056,355.763117 C37.3623473,356.962432 35.9478262,357.292952 33.0925891,355.763117 C32.4435393,352.272197 35.0833966,352.332006 35.8517784,350.377217 C36.5386652,346.030094 36.0351423,339.721886 38.6167888,336.023211 C39.609282,335.947664 39.7839142,336.759798 40.8317076,336.624442" id="Fill-36" fill="#000333"></path>
                <path d="M82.2234813,375.232938 C83.0377424,381.700459 88.0534695,386.253172 87.9747677,391.743117 C84.5028069,392.186905 81.9873759,392.779658 79.3508652,391.156571 C79.414432,389.058661 81.2548436,388.779353 83.3737386,388.797974 C80.2165851,386.532479 81.1458719,380.080475 78.2006079,377.597741 C79.4779989,376.741198 79.4991878,374.602944 82.2234813,375.232938" id="Fill-38" fill="#000333"></path>
                <path d="M122.034376,36.2492401 C121.621926,34.0902713 123.024254,33.7564732 122.61486,31.594442 C120.439571,32.7612039 118.753111,31.1779601 117.970985,32.1762918 C119.477189,33.3798021 119.993515,35.5785817 122.034376,36.2492401 M112.169196,28.1033435 C116.990272,31.5485065 126.042773,28.3115844 130.741641,29.2701054 C129.256823,31.6740636 129.678438,31.2361451 129.580673,33.3430537 L124.936798,33.3430537 C123.158682,34.4669424 123.3756,37.5936193 123.192289,40.3221884 C117.527984,39.01762 117.857943,31.710812 112.169196,30.4307425 C111.671202,30.326622 111.619264,30.6573577 111.582602,31.0095299 C110.479681,30.9544073 112.046989,28.8444363 112.169196,28.1033435" id="Fill-40" fill="#000333"></path>
                <g id="Group-44">
                    <mask id="mask-4" fill="white">
                        <use xlink:href="#path-3"></use>
                    </mask>
                    <g id="Clip-43"></g>
                    <path d="M42.9048909,147.670761 C42.9112528,146.874719 43.9673341,147.127431 44.1136586,146.473539 C42.9526054,146.227145 43.6365134,144.148591 41.6993042,144.672968 C41.613418,146.157649 41.5847893,147.585471 42.9048909,147.670761 M41.6993042,133.269349 C42.5836132,134.684535 46.3626027,133.942194 45.3256072,131.468778 C43.5219986,131.481414 41.6420468,131.415077 41.6993042,133.269349 M33.2411113,122.465921 C32.9898149,123.912696 34.3449071,123.770546 33.8423142,125.466874 C35.8145141,124.806664 38.6837469,121.906797 36.8674144,119.46181 C36.8292428,121.52457 34.8888526,122.017358 33.2411113,122.465921 M58.0144869,109.861922 C59.9357914,109.738725 61.7107713,106.371341 61.0364062,105.660589 C60.467013,107.499067 58.0940111,107.543292 58.0144869,109.861922 M54.3913649,97.2579229 C54.378641,95.6721565 54.7285474,93.7294349 53.1794162,93.6599391 C52.2505737,94.5728604 52.1042492,97.775982 54.3913649,97.2579229 M60.4352033,103.259827 C64.5354705,100.533699 68.416251,97.5801304 70.7033667,93.0565898 C66.3454411,95.5236884 63.5398277,99.5481232 60.4352033,103.259827 M74.9340536,72.0562421 C74.4123749,70.1735395 73.4389988,68.7425591 71.9153153,67.8517502 C71.4095415,70.7516177 72.6755666,71.8951384 74.9340536,72.0562421 M95.4862852,62.4468773 C95.5180949,61.6824242 96.2592603,61.6224052 96.0874881,60.6526238 C92.1844408,57.7274851 89.1084452,53.9778743 84.6041951,51.6529261 C84.314727,52.360519 83.9648206,53.0080929 83.3954274,53.4471796 C86.3537272,59.1300354 92.6170524,56.2238501 95.4862852,61.8498458 C95.1491026,61.8498458 94.7991962,62.3363159 95.4862852,62.4468773 M53.1794162,3.63769079 C55.5301513,7.94010858 63.0658635,11.7465795 59.8308194,16.2385311 C58.3516695,11.1053234 53.300293,9.5258749 51.9738295,4.23788123 C47.6159039,4.31053586 46.0540488,7.1630199 42.306869,7.83902387 C51.2549308,10.9505375 58.5775182,15.6825653 61.64079,24.6411973 C63.3394267,24.6348795 60.2029927,23.0048886 62.8495577,23.4376575 C65.6774379,27.2883531 69.5041419,33.1670605 68.8965771,38.4487364 C64.5545563,37.5358151 66.6380901,30.8705423 63.4571225,27.6389906 C64.5132037,31.4960039 65.8364863,40.72946 65.8714769,44.444323 C73.6871143,38.2876326 86.862682,34.6485832 97.2962557,33.0438635 C98.6990625,33.211285 98.6863386,34.6485832 97.9006396,35.4446253 C99.7106101,38.3444928 107.080912,38.6035223 105.153246,43.247101 C101.596924,40.9790129 97.3980467,39.349022 95.4862852,35.4446253 C94.0675736,36.035339 92.5184424,36.4996969 90.6512144,36.648165 C91.481447,41.2254069 97.6747909,40.4704305 99.1125882,44.444323 C92.7792818,44.5390899 90.9152348,40.1829708 87.6292952,37.2451966 C85.2053979,38.0412386 82.3775177,38.429783 80.3735082,39.6459583 C84.4705944,42.1762349 89.2388648,44.0494608 94.2775175,45.6478628 C93.8067343,46.1848753 93.6254191,46.9998707 93.6731337,48.0486245 C89.423361,47.8685674 86.9931017,45.8753033 85.2117599,43.247101 C83.7644196,43.0070248 85.5489424,45.9827058 83.3954274,45.0445134 C81.6204474,43.6072153 79.5273708,42.4889657 77.9623347,40.8431803 C74.5809662,42.8901456 70.1307925,43.8725626 68.2890123,47.4484341 C82.9151013,41.8729808 90.6543954,56.6313478 101.526943,58.2455442 C102.710263,59.3701116 101.711439,60.4504544 101.526943,61.8498458 C107.837982,68.1423687 111.80783,82.1741894 106.362013,90.655828 C106.498795,91.5213658 108.168803,90.8674741 108.178346,91.8593678 C119.99246,78.5825235 127.594972,61.1296172 135.372438,43.8472914 C131.583905,60.4978378 122.36228,76.9272614 112.409033,89.458606 C115.98444,91.85305 126.087193,93.6788925 122.677196,99.0584942 C120.768616,95.0972373 112.937073,94.0200534 112.409033,90.655828 C110.739025,90.4031163 111.836459,92.895486 110.589519,93.0565898 C116.976902,99.5165343 126.045841,103.316687 132.954902,109.264891 C136.279014,117.215834 141.346295,126.458767 140.808711,136.270302 C136.59711,132.770244 137.074255,124.84773 134.768054,118.864779 C133.893288,116.593532 131.79703,115.200458 131.746135,112.859715 C126.246242,105.322587 116.219832,102.274251 109.380752,96.0607009 C107.888878,95.9690929 106.45108,95.9501395 106.362013,97.2579229 C104.593395,96.7524993 106.721463,95.3278368 106.362013,94.2601296 C103.766344,94.8097777 98.5368331,96.0607009 99.1125882,91.8593678 C99.8283059,91.1675693 101.247017,91.1802049 102.738891,91.2623363 C109.415742,82.8817824 105.493609,69.1784869 99.7169721,63.6504171 C85.8002389,79.8397645 70.5952138,94.7465997 59.2264356,113.466224 C57.4641796,113.557832 57.3878363,111.033873 58.0144869,110.462113 C50.7300712,112.780743 48.6592613,121.92575 50.157497,129.668207 C55.5619609,130.43266 55.5174274,125.79224 56.2013354,121.862572 C60.0216775,122.01104 60.5560801,121.802553 62.8495577,123.066112 C62.3533267,127.175837 65.0062537,129.939872 63.4571225,133.269349 C61.6789616,133.294621 59.9866869,133.856904 58.6188708,135.670111 C56.6148612,135.461624 55.9977535,133.875858 54.9957487,132.666 C48.3284406,133.733707 44.5271844,139.501853 36.8674144,136.270302 C36.8928621,133.894811 38.1970588,132.789197 38.677385,130.871746 C34.7616138,132.381699 33.9504671,136.977894 30.817214,139.268095 C35.8876764,137.113727 44.1645541,137.9919 51.9738295,139.268095 C51.627104,144.654014 53.9587533,147.073729 52.5750324,151.872094 C50.0366202,154.222314 43.6333325,154.667718 41.0949203,153.672665 C40.442822,155.631182 38.2574972,156.054474 35.6554657,156.073427 C35.1910445,151.515139 35.3564548,144.316012 35.0479009,140.471635 C23.2433302,145.961798 13.8499329,159.017519 4.22750593,168.677426 C4.75554655,169.5556 5.13408169,170.579082 6.65140324,170.481157 C3.88396143,171.763669 2.01355249,170.733868 0,169.277617 C1.28511091,166.753658 3.66447467,165.31636 5.43945458,163.272554 C5.17543427,162.384904 4.66647946,163.515789 3.62312209,163.272554 C12.9751668,154.162294 22.4480883,145.159438 29.6084463,133.86954 C33.0566152,135.351062 33.6578181,132.388017 35.0479009,130.265238 C28.6287083,130.006209 22.5212506,124.879319 19.340283,119.46181 C21.6623893,112.572256 27.6457893,109.305956 29.6084463,102.059446 C36.5556796,99.5228521 39.6412181,87.5285199 47.1387587,89.458606 C47.7495045,92.067855 45.8854575,92.2163232 45.3256072,93.6599391 C46.3689646,94.4212333 46.9065481,95.6847921 48.9487293,95.4573515 C54.2068687,81.6908782 63.2567215,100.609513 54.3913649,105.063558 C60.4415652,103.316687 64.6404424,95.2330699 70.1021638,90.655828 C74.208793,87.218948 78.9420727,83.5546274 82.1930216,78.6551781 C78.4458418,74.024235 73.2354169,77.2936935 68.2890123,73.8568135 C66.0973256,62.4784663 72.9014153,55.0582171 79.1647405,50.4493863 C72.7073763,46.6050086 65.2384643,52.7174744 60.4352033,52.2499576 C59.0133108,50.2503758 62.521918,48.9994525 62.8495577,46.8450847 C62.820929,27.5157936 56.1154493,11.6518126 35.6554657,10.8399761 C35.1496919,9.54166939 34.0904297,8.78985189 34.4466981,6.63864299 C43.3915789,3.2996888 56.0613728,-0.408856343 70.7033667,0.0365481422 C81.5377423,3.76720557 94.1089262,3.20176299 105.153246,8.43921431 C107.904783,9.7406799 111.158913,10.2461034 113.614619,11.4370076 C116.681072,12.9248481 119.197218,16.0963808 122.079174,18.0391025 C126.192165,20.8284086 130.241537,21.1285038 132.954902,24.6411973 C136.088156,20.5914913 139.997565,17.2809672 144.435014,13.8377694 C147.450572,11.5065034 150.574282,5.90261998 154.706359,7.83902387 C151.98027,16.1248109 144.918522,20.1176567 139.603125,25.8447371 C143.114913,28.5582297 145.66923,32.2225503 149.270085,34.8444348 C151.732154,45.395151 164.185642,55.8479413 165.588449,69.0489722 C167.776955,89.6576166 163.838917,114.638174 154.105156,126.670413 C152.2761,131.253973 150.036698,135.423717 146.855731,138.667904 C146.330871,141.153956 146.082756,143.902197 143.229428,144.072777 C143.620687,140.822272 142.166985,137.688646 143.833812,133.269349 C145.710582,133.398864 144.851721,136.257666 145.039398,138.070873 C150.800131,128.919548 158.345386,118.593114 161.357762,105.660589 C163.838917,95.0182649 161.895346,82.6543418 163.170914,71.4497339 C157.86506,56.5081508 150.33889,39.6743884 138.397538,29.439562 C135.432876,29.0510176 135.553753,29.3353183 132.347338,29.439562 C115.310075,9.87651248 83.6371809,2.5478713 53.1794162,3.63769079" id="Fill-42" fill="#000333" mask="url(#mask-4)"></path>
                </g>
                <path d="M43.9381082,227.309838 C46.6480497,227.04191 48.3777997,227.746815 50.0242654,228.525082 C50.4759223,227.252425 50.4759223,226.164766 50.0242654,224.885729 C47.583396,225.278052 45.8728655,226.407176 43.9381082,227.309838 M58.5480887,213.977242 C61.4374118,213.728452 63.5259247,214.277066 65.2396584,215.192485 C67.3313745,220.244838 64.5797908,224.786851 62.1965798,227.309838 C59.0830299,225.584255 55.636343,225.915976 53.0705472,224.885729 C53.2371157,226.943032 54.0347227,228.368791 53.6759597,230.94919 C46.7217243,231.395736 39.8635861,228.761113 32.9894316,232.158055 C31.1763974,229.794549 33.4571048,218.059951 31.768997,215.804892 C34.0529075,214.48758 39.024337,215.31688 43.9381082,213.977242 C43.8868563,213.198975 44.4986753,206.577332 43.3326957,204.890025 C40.5362666,204.360548 43.8516207,212.363296 40.8982328,213.374404 C37.5476431,209.728673 39.0691824,203.355819 39.0691824,198.223727 C39.0691824,185.190954 37.4195134,174.732202 39.0691824,164.289398 C38.9698819,162.576574 37.9608611,161.760033 37.8583574,160.047209 C39.3478643,159.517732 41.1576953,159.294459 41.5068485,157.6231 C46.4750747,157.929303 45.7095002,163.94173 48.8102372,166.110669 C47.4488599,185.22923 49.9089487,192.734397 48.1984182,211.556323 C51.1742288,213.036305 51.9013644,216.755397 51.8533158,221.249567 C58.7434864,221.578097 56.129642,218.774425 58.5480887,213.977242" id="Fill-45" fill="#000333"></path>
                <path d="M58.0412614,283.121317 C60.5110369,282.505971 57.5428041,286.614589 60.4885259,286.715569 C59.4305101,285.352341 60.7200674,281.691822 58.6522736,281.322614 C58.6812163,282.146231 58.3660626,282.635352 58.0412614,283.121317 M56.8192371,287.311981 C55.4106933,278.498334 53.2046178,269.044097 50.0981034,259.138606 C52.5903898,268.693823 52.7994203,278.438377 56.8192371,287.311981 M59.8775138,263.935148 C59.0542553,260.546012 58.3531992,257.030651 56.8192371,254.345219 C57.896548,257.481905 56.7034664,262.855926 59.8775138,263.935148 M48.2650669,236.957753 L45.2132219,236.957753 C44.6826061,239.434914 48.261851,238.781701 48.2650669,236.957753 M56.2082249,232.158055 C58.1345212,246.339411 63.2348648,268.447684 68.4284681,284.920021 C67.6180731,286.387384 66.1548597,284.260496 65.9844195,285.519589 C66.2159609,288.489027 69.8820339,288.088263 70.8693009,290.312975 C70.5123412,298.189403 59.0510394,298.252515 52.542152,298.110512 C53.0952788,296.248696 53.6130312,294.35848 54.9894165,293.31397 C50.500085,275.970682 46.4288145,254.177971 42.7659574,235.159049 C47.5511474,234.455346 52.2880996,233.71062 56.2082249,232.158055" id="Fill-47" fill="#000333"></path>
                <path d="M27.8609521,310.358663 C28.3950988,310.732834 28.9292454,311.094214 29.058069,310.358663 C30.5034069,318.280228 25.7369338,327.605736 23.085053,337.705171 C20.3326269,348.185175 19.2423394,359.547839 17.1183211,368.684663 C16.5339018,371.207922 14.0391229,375.074363 9.95447232,373.552092 C9.38262123,369.596106 12.0722065,364.370496 11.7454345,360.184251 C9.00557656,363.062494 10.2184036,369.96708 6.96953534,372.333635 C3.0514128,370.216528 5.75042424,364.549586 6.37254794,360.79188 C8.53427072,347.71826 11.6794517,332.943278 15.3273589,320.083927 C20.2697861,322.082707 20.4551664,316.060782 24.2790278,319.4731 C25.5264172,316.486123 26.2428021,312.961874 27.8609521,310.358663" id="Fill-49" fill="#000333"></path>
                <path d="M77.6236823,366.033093 C77.7807737,365.190507 78.9573561,365.34572 79.4478659,364.832566 C79.1144475,363.761911 79.1368891,362.333316 78.2296062,361.820162 C77.0754655,361.943699 76.1745945,365.326715 77.6236823,366.033093 M75.7930868,354.601161 C75.3763138,351.208642 75.004424,347.762274 72.7474375,346.178465 C73.7925761,348.956466 74.4978844,352.070234 75.7930868,354.601161 M64.8319554,319.700348 C66.0886865,315.325867 64.2420612,309.678005 62.39223,306.45337 C62.1966673,311.866829 63.8573476,315.443069 64.8319554,319.700348 M66.656139,300.434896 C72.0357174,318.667704 75.5109635,341.775476 81.2752555,362.425177 C82.0799481,363.955136 86.0328803,364.506302 83.708569,367.239956 C85.3307779,367.246291 87.187021,367.011887 87.9756839,367.838636 C86.4528593,372.881483 78.0436613,369.279902 72.7474375,371.452888 C72.5967581,369.69486 73.8951664,369.37493 74.5748271,368.446818 C73.6579264,358.658879 67.9609593,350.81269 67.2684748,341.360518 C66.4381346,330.093302 62.0620175,317.986666 59.9589166,306.45337 C59.4235235,304.530626 61.5362423,305.211664 61.7863061,304.049148 C61.8856905,302.142242 60.1673031,302.037711 60.5712524,299.836216 C62.0620175,298.664198 64.9345457,299.975591 66.656139,300.434896" id="Fill-51" fill="#000333"></path>
            </g>
        </g>
    </g>
</svg>