<?xml version="1.0" encoding="UTF-8"?>
<svg width="78px" height="79px" viewBox="0 0 78 79" version="1.1" xmlns="http://www.w3.org/2000/svg" xmlns:xlink="http://www.w3.org/1999/xlink">
    <title>Fill 1</title>
    <g id="Page-1" stroke="none" stroke-width="1" fill="none" fill-rule="evenodd" opacity="0.519008903">
        <g id="棚拍人像花魁-攝影免費學" transform="translate(-634.000000, -3640.000000)" fill="#333333">
            <g id="Fill-1" transform="translate(634.145576, 3640.246046)">
                <path d="M31.0281799,51.0308671 C31.2099453,51.2398154 31.3352706,51.464484 31.4388714,51.7184098 C31.4430198,51.7286716 31.4464041,51.7377326 31.4495699,51.7463569 C30.9875692,52.5926304 29.9628053,52.389468 29.2429488,52.0217888 C28.8488509,51.8204822 28.4889226,51.5286751 28.1837969,51.2084841 C28.1206976,51.1423281 27.9768136,50.9416765 27.8631693,50.7891682 C27.8524708,50.7748672 27.8439556,50.763732 27.8356588,50.7530335 C27.8306371,50.7404791 27.8241961,50.7256322 27.8148077,50.7053269 C27.7513808,50.5684297 27.6822772,50.4239999 27.6378457,50.284701 C27.5898116,50.1341578 27.5546593,49.9821953 27.5287864,49.8292504 C28.2899086,49.8265212 29.047974,49.9178951 29.7481802,50.1876503 C30.2386739,50.3766208 30.6800418,50.6306557 31.0281799,51.0308671 M31.4504433,51.7485402 C31.5021891,51.8914417 31.4232604,51.8251765 31.4504433,51.7485402 M45.0422381,23.8529542 C44.4434493,23.8529542 43.9545932,24.2017474 43.4931383,24.5027247 C42.7507931,24.9867774 42.0501502,25.4905896 41.369376,26.0584837 C40.1230003,27.0979853 38.8880872,28.1488405 37.7059025,29.2615941 C35.3060533,31.5207252 33.0911353,33.9755953 31.097611,36.6004406 C29.1053966,39.2237575 27.2927643,42.0679222 26.2801181,45.2255093 C26.0270657,46.0147969 25.815279,46.8706773 25.6939929,47.7411862 C22.5975401,48.1615937 19.6547964,49.4590603 17.0646666,51.1748602 C14.3808704,52.9528862 11.8554775,55.0275227 9.65387816,57.3783553 C7.17204348,60.0283093 4.99904624,63.004786 3.20322587,66.1592073 C2.28402784,67.7736989 1.39714366,69.4757437 0.748792462,71.219709 C0.0853760228,73.0043942 0.180243373,74.8735758 0.00917647132,76.7397006 C-0.0289233044,77.1549773 0.0361410691,77.7995076 0.502399356,77.9698103 C0.941583878,78.1301787 1.26450404,77.6170871 1.30020211,77.244932 C1.43851849,75.8013981 1.3327343,74.2537175 1.72977981,72.8516676 C2.12093023,71.4702505 2.84962938,70.1168897 3.52014177,68.8525012 C4.86968168,66.3078947 6.48406415,63.8886135 8.2906922,61.6457485 C10.0479761,59.4642361 12.0292736,57.4807552 14.2137336,55.7276197 C16.4465551,53.9356202 18.7791565,52.2742953 21.4399182,51.1762794 C22.780943,50.6227956 24.1786262,50.1982396 25.616265,49.9904921 C25.7494505,51.5430853 26.3245497,52.9966627 27.6440683,54.0414044 C28.5842266,54.7857146 29.8633529,55.3703115 31.0749039,55.0211909 C32.6029342,54.5808055 33.2979003,52.7326935 33.0546731,51.2857754 C32.8203977,49.8919131 31.8123366,48.8612541 30.5919429,48.2360466 C29.7044037,47.7813602 28.7091153,47.617935 27.7116435,47.6033065 C27.7758345,47.3545117 27.848759,47.1053894 27.9259411,46.8564854 C28.7670837,44.1429953 30.2762278,41.7160724 31.9450854,39.4393651 C33.8479999,36.843777 36.0087703,34.4410894 38.334385,32.2183114 C39.5052162,31.099226 40.7280116,30.0432399 41.9696931,29.0042841 C42.5804904,28.4932668 43.1975103,27.9897821 43.8131109,27.484769 C44.2409419,27.1339017 44.790059,26.5167727 45.328696,26.3736529 C45.8471368,26.2359915 45.9503009,25.357295 45.8988826,24.9478043 C45.8417875,24.493882 45.598342,23.8529542 45.0422381,23.8529542"></path>
                <path d="M70.7448053,14.0544998 C69.5315076,14.7354924 68.329345,15.4373361 67.1247808,16.1347039 C67.0206341,15.7233573 66.9179066,15.3116832 66.818345,14.8990266 C66.6881071,14.3594072 66.5687861,13.8177135 66.4550326,13.2749282 C66.7497873,13.2499286 67.0446512,13.2266757 67.3397334,13.2078988 C68.3877501,13.1414152 69.429981,13.1253675 70.4738493,13.0001513 C71.186064,12.9146724 71.86924,12.9593223 72.5452108,13.1054988 C71.9365969,13.4052753 71.3374806,13.7218637 70.7448053,14.0544998 M65.9429235,23.930966 C65.0939208,23.2826148 64.2165343,22.686337 63.3284492,22.1059977 C64.124287,21.6171415 64.9256923,21.1373464 65.733866,20.6690139 C65.9733815,21.5495663 66.2196655,22.4284812 66.4707528,23.3058677 C66.5958598,23.7431964 66.7259886,24.1794333 66.854589,24.6159978 C66.5495724,24.3891459 66.2449925,24.1616389 65.9429235,23.930966 M55.9837077,23.1462635 C55.608605,23.4095777 55.2350307,23.6762761 54.8648406,23.9474505 C55.3471467,22.9075122 55.8382953,21.8712856 56.3200555,20.8308015 C56.8083658,21.1913847 57.3003879,21.5469463 57.7943749,21.8994511 C57.1875077,22.3107976 56.5832606,22.7255284 55.9837077,23.1462635 M55.2317556,16.5298935 C54.3400681,15.8242289 53.4789476,15.0821021 52.6250323,14.3314601 C53.2000223,14.234846 53.7756674,14.1428171 54.3505482,14.0467488 C55.1403817,13.9147642 55.9162416,13.7873647 56.7055292,13.720772 C56.5252922,14.2018772 56.341125,14.6799256 56.1534645,15.1538257 C55.9432062,15.6851484 55.722686,16.2117768 55.4965982,16.7360035 C55.4084993,16.6672274 55.3194179,16.5993247 55.2317556,16.5298935 M60.740612,8.52009799 C60.9614597,7.665746 61.2278307,6.79840297 61.3663654,5.92581985 C61.4422374,5.44820805 61.4903807,4.96655702 61.5694186,4.48927272 C61.5945274,4.3379653 61.622802,4.1876404 61.652605,4.03753383 C61.7732361,4.32377341 61.8788019,4.61645392 61.9772718,4.9109903 C62.4849049,6.42854039 62.9052033,7.82709692 63.2339094,9.4130956 C63.2765943,9.61920557 63.3175324,9.82553386 63.3584706,10.0318622 C62.8623001,10.0761845 62.3662389,10.1189786 61.8705051,10.1565325 C61.3407108,10.1965973 60.8123357,10.2090425 60.2846156,10.2095883 C60.4425823,9.64802603 60.5946539,9.08482619 60.740612,8.52009799 M61.3254272,3.42597239 C61.3117812,3.41800309 61.298681,3.41036131 61.2872183,3.4034837 C61.2616729,3.36429224 61.2678955,3.34464192 61.3254272,3.42597239 M61.349881,3.46210713 C61.3504268,3.46287131 61.3508635,3.46352632 61.3514093,3.46439967 C61.3532652,3.46723805 61.3550119,3.47007643 61.3567586,3.47291481 C61.3356891,3.45959626 61.3176763,3.44234765 61.3037027,3.42564488 C61.3195321,3.43841759 61.3359074,3.45129946 61.349881,3.46210713 M60.3729328,20.1950046 C59.4023165,19.5557144 58.4373769,18.9008131 57.4895767,18.2228773 C57.5309516,18.1266999 57.5730906,18.03085 57.6140287,17.9345635 C58.2055032,16.5410287 58.7340966,15.1219485 59.215311,13.6868206 C59.7487079,13.6975191 60.2821047,13.7088726 60.8156107,13.703305 C61.8841512,13.692279 62.9507265,13.5743771 64.0156644,13.4911908 C64.1729761,14.3058055 64.3389121,15.1186735 64.5279918,15.9276114 C64.644802,16.4277119 64.7658697,16.9267207 64.8893392,17.4250745 C63.3642565,18.3138146 61.8584966,19.2385802 60.3729328,20.1950046 M75.5485429,10.5865469 C75.0303205,10.31308 74.4562038,10.1428864 73.9030475,9.95533511 C72.9852686,9.64409596 72.0042813,9.44453611 71.0314816,9.46211222 C70.0456908,9.4797975 69.0565158,9.63765503 68.0676683,9.67564563 C67.3020703,9.70501194 66.5364722,9.75730361 65.7710925,9.8192021 C65.6572298,9.2461771 65.5396554,8.67380712 65.4131292,8.10307466 C65.0188129,6.32450289 64.4710058,4.57420575 63.8558418,2.85960667 C63.4712415,1.78724536 62.5137254,-0.556491278 60.9759791,0.120789549 C60.323152,0.408229978 60.0042711,1.25111929 59.8111522,1.87949267 C59.5963087,2.57860718 59.4601757,3.30370377 59.3542824,4.02661699 C59.0516675,6.09295669 58.5461086,8.1534013 57.9213378,10.1774928 C56.9158967,10.1689777 55.9105648,10.1936497 54.9017395,10.3527081 C53.6972844,10.542552 52.4879168,10.7009554 51.2859726,10.9067378 C50.729432,11.0020418 50.1757298,11.1390482 49.6150408,11.2054226 C49.4482315,11.2251821 49.2791296,11.2391556 49.1100278,11.2496358 C48.7785925,10.803792 48.25644,10.6090356 47.7399642,11.022238 C46.6840873,11.8672015 46.601556,14.1556989 48.0073176,14.7302523 C48.4210659,14.8993541 48.8745515,14.9326505 49.332513,14.9020834 C49.3533642,14.9231529 49.3736695,14.944659 49.3958307,14.9644185 C50.9627249,16.3534774 52.4850784,17.7946096 54.1067752,19.1205691 C54.1828655,19.1827951 54.2602659,19.2436019 54.336793,19.3052821 C53.8830891,20.2756801 53.420215,21.2420389 52.9623627,22.2104719 C52.4247083,23.3480067 51.8318146,24.4666554 51.3461244,25.6275523 C51.33357,25.6572461 51.2903393,25.7518951 51.2597721,25.8209987 C51.238921,25.857461 51.2189432,25.8926132 51.2106464,25.9065868 C51.1031155,26.0900989 50.9930737,26.2712093 50.8961322,26.4608348 C50.5471207,27.1427007 50.3293298,27.9174689 50.5307455,28.6836128 C50.6831446,29.2634063 51.1697082,30.1985429 51.9366163,29.8402522 C53.6520887,29.038956 55.0741165,27.6136532 56.6116444,26.5263359 C57.913696,25.6056095 59.2394372,24.7174153 60.5769686,23.8484347 C61.8696318,24.7273496 63.1689542,25.5921818 64.3919679,26.5720774 C65.1857314,27.2080926 65.9656306,27.8608105 66.7519706,28.5057775 C67.1308942,28.8166891 67.4933333,29.1474694 67.8738944,29.4560885 C68.0611182,29.6079418 68.2532546,29.7508432 68.4558712,29.881627 C68.5376384,29.9326086 68.6207155,29.9815161 68.703356,30.0310786 C68.7215871,30.0561873 68.7389449,30.081951 68.7577219,30.1068414 C69.2033473,30.695805 69.8988593,30.822222 70.3949206,30.2149182 C70.9154355,29.577593 70.9931634,28.5023933 70.6552872,27.7626681 C70.5912054,27.6222775 70.5231934,27.4981531 70.4501598,27.3854913 C70.4505964,27.3849454 70.4509239,27.3843996 70.4513606,27.3839629 C70.4025623,27.3092917 70.3522357,27.2341838 70.3045291,27.1578751 C70.2834596,27.1199937 70.2449232,27.0509992 70.2369539,27.0324406 C70.1507108,26.8334266 70.0728737,26.6327751 70.0019143,26.427866 C69.9905608,26.3932596 69.9793164,26.3579982 69.9752772,26.3428238 C69.9377232,26.2024332 69.9000601,26.0621518 69.8641437,25.9214337 C69.800171,25.6711105 69.7400192,25.4198048 69.6742999,25.1699183 C69.380746,24.0544355 69.0176519,22.9548913 68.6939675,21.8477052 C68.4539062,21.0265404 68.2183208,20.2039564 67.9888488,19.3797349 C69.4329285,18.5451424 70.8642356,17.6860962 72.3363716,16.902922 C73.2537138,16.41483 74.2094832,16.0099244 75.1373055,15.5434478 C76.0697129,15.0745694 76.7710108,14.5276357 76.9546321,13.4268906 C77.1550653,12.2250556 76.5963414,11.1394849 75.5485429,10.5865469" id="Fill-4"></path>
            </g>
        </g>
    </g>
</svg>