<?xml version="1.0" encoding="UTF-8"?>
<svg width="67px" height="71px" viewBox="0 0 67 71" version="1.1" xmlns="http://www.w3.org/2000/svg" xmlns:xlink="http://www.w3.org/1999/xlink">
    <title>Group 5</title>
    <g id="Page-1" stroke="none" stroke-width="1" fill="none" fill-rule="evenodd">
        <g id="棚拍人像花魁-攝影免費學" transform="translate(-525.000000, -5656.000000)" fill="#ED7A45">
            <g id="Group-5" transform="translate(525.000000, 5656.000000)">
                <path d="M6.9013874,13.1104848 C5.59054206,13.3749718 5.17099697,10.6591883 4,12.1617813 C5.43950583,14.1109357 7.92507742,15.0366404 8.86858772,17.4611048 C8.53295164,18.4213078 7.25007598,18.3523112 7.14006194,19.5540023 C8.15629338,19.9219842 6.36996361,21.8979707 7.4626455,23 C8.13018836,19.4581736 10.6754286,17.9555806 13.4817191,16.7347238 C12.4226008,16.0926719 11.150913,15.6614431 11.0502222,14.0898534 C12.3592029,14.3332582 12.6985683,13.5244645 13.5824099,13.3040586 C13.4500201,9.95197294 14.7310311,7.6578354 13.3623818,6 C11.6543671,8.8518602 10.2577481,12.0448703 6.9013874,13.1104848 M16.2638602,0 C17.1283593,5.02389034 16.0590115,11.6870757 15.8428867,14.8331593 C16.0101485,16.599282 19.005826,15.6736292 20,16.6466057 C19.907912,20.491188 14.844954,19.003329 12.3097162,20.6653394 C9.26517572,22.666188 9.31967675,26.0186031 7.02311596,29 C2.19695546,28.4169713 5.52339786,19.9384465 5.25465138,17.0687337 C4.35256531,13.6708877 0.225521519,13.3377285 0,9.28681462 C2.4356324,8.929047 5.05168201,8.57695822 7.14151475,9.9171671 C11.1182109,7.83681462 11.8098102,0.14386423 16.2638602,0" id="Fill-1"></path>
                <path d="M58.7935055,59.162001 C56.6816891,54.9510926 61.9927497,55.1804449 62.7141994,52.5860116 C60.5095752,52.1951952 59.5867499,53.1456312 58.4012609,53.8226792 C56.0740603,52.7933461 57.8899422,45.738469 54.0865714,46.8338556 C54.9446062,48.5402368 54.8710604,51.2209066 56.0477939,52.5860116 C54.9288464,54.8410035 50.6456765,53.7713043 50.1658774,56.696005 C54.9113355,55.6831852 57.5292174,56.1620728 58.7935055,59.162001 M59.18575,50.1236852 C62.6931863,50.6080773 63.4636666,48.4796878 66.2426489,50.1236852 C66.3512165,54.754767 62.9453435,55.7033682 61.1452214,58.3418372 C61.9489724,62.4298128 64.0993128,65.1068129 63.8909329,70.2571484 C60.3940031,70.666313 60.3554791,66.6517301 59.18575,64.5013228 C58.171868,62.6408169 56.3997633,59.3730052 54.8728115,58.7528365 C51.764624,57.4886466 49.2237902,60.881226 46.2451835,58.7528365 C47.1645065,55.4703462 49.6703185,53.8483667 52.1270999,52.1768471 C52.9080868,46.8632127 49.8384233,41.4835249 50.1658774,37.7955398 C52.5841348,36.0983327 52.549113,39.0156941 54.480567,41.0816997 C56.1441039,42.8633084 59.0491648,46.8136726 59.18575,50.1236852" id="Fill-1"></path>
            </g>
        </g>
    </g>
</svg>