<?xml version="1.0" encoding="UTF-8"?>
<svg width="525px" height="525px" viewBox="0 0 525 525" version="1.1" xmlns="http://www.w3.org/2000/svg" xmlns:xlink="http://www.w3.org/1999/xlink">
    <title>Group 37</title>
    <g id="Page-1" stroke="none" stroke-width="1" fill="none" fill-rule="evenodd" opacity="0.689816497">
        <g id="棚拍人像花魁-攝影免費學" transform="translate(-143.000000, -2635.000000)" fill="#FFFFFF">
            <g id="Group-37" transform="translate(143.056200, 2635.055800)">
                <path d="M214.224677,386.606518 C200.606734,379.848976 184.607443,370.504367 166.981106,357.625141 L161.386185,361.717693 C161.015268,361.206513 157.412077,356.194462 152.549639,346.535042 C113.238699,314.810751 63.037144,261.872517 14.6964069,175.467618 C5.21465298,202.566359 1.42108547e-14,231.66618 1.42108547e-14,262.000312 C1.42108547e-14,296.096599 6.58610984,328.63753 18.4398608,358.516588 C98.4394325,382.392405 163.477657,388.610715 214.224677,386.606518" id="Fill-1"></path>
                <path d="M386.603401,309.781557 C379.845859,323.396383 370.50125,339.392557 357.625141,357.015777 L361.717693,362.610698 C361.206513,362.981615 356.197579,366.581689 346.538159,371.447244 C314.820102,410.758184 261.875634,460.956622 175.467618,509.303593 C202.563242,518.785347 231.66618,524 261.997195,524 C296.096599,524 328.63753,517.41389 358.516588,505.563256 C382.392405,425.563684 388.607598,360.52546 386.603401,309.781557" id="Fill-4"></path>
                <path d="M316.657854,383.757316 C302.185868,388.65404 284.182379,393.404268 262.42297,396.795507 L261.372558,403.652791 C260.746052,403.556166 254.658654,402.558743 244.36961,399.16127 C230.511662,400.644937 214.970563,401.583138 197.671505,401.583138 C152.229529,401.583138 94.918217,395.184045 25.8809493,375.675071 C53.1635898,432.241433 100.192092,477.465222 158.005232,502.500544 C231.727272,462.709593 282.19065,421.067176 316.657854,383.757316" id="Fill-7"></path>
                <path d="M137.390677,214.218443 C144.148219,200.6005 153.495944,184.604326 166.375171,166.977989 L162.282619,161.386185 C162.793798,161.015268 167.802733,157.415194 177.462153,152.549639 C209.18021,113.238699 262.124678,63.037144 348.532693,14.6964069 C321.433953,5.21465298 292.334132,0 262,0 C227.903712,0 195.362782,6.58610984 165.480607,18.4367438 C141.607907,98.4300816 135.389597,163.47454 137.390677,214.218443" id="Fill-9"></path>
                <path d="M207.643866,140.136084 C222.062865,135.273647 239.972844,130.570173 261.579524,127.20387 L262.629935,120.346586 C263.256441,120.446328 269.334489,121.4344 279.611064,124.828756 C329.846906,119.458256 402.799059,121.396997 498.121544,148.336773 C470.842021,91.7672949 423.816635,46.5435052 366.012846,21.5081838 C292.521461,61.2056257 242.123538,102.823107 207.643866,140.136084" id="Fill-12"></path>
                <path d="M140.236762,316.654737 C135.343154,302.185868 130.592927,284.185496 127.201688,262.432321 L120.344404,261.372558 C120.437912,260.746052 121.435335,254.661771 124.832808,244.382078 C119.462308,194.140003 121.404166,121.190967 148.340825,25.8747154 C91.76823,53.1573559 46.5350895,100.188975 21.499768,158.008349 C61.2907184,231.724155 102.926902,282.19065 140.236762,316.654737" id="Fill-14"></path>
                <path d="M383.754199,207.33934 C388.65404,221.811327 393.404268,239.817932 396.795507,261.577342 L403.652791,262.627753 C403.556166,263.25426 402.558743,269.338541 399.167504,279.615116 C404.538004,329.857191 402.596146,402.806228 375.659487,498.125596 C432.232082,470.842956 477.462105,423.811337 502.500544,365.991963 C462.709593,292.27304 421.067176,241.806545 383.754199,207.33934" id="Fill-16"></path>
                <path d="M309.781557,137.396599 C323.402617,144.151024 339.395674,153.495633 357.018894,166.371742 L362.607581,162.282307 C362.981615,162.793487 366.578572,167.802421 371.44101,177.461841 C410.755067,209.176781 460.956622,262.118132 509.303593,348.532382 C518.785347,321.436758 524,292.33382 524,262.002805 C524,227.903401 517.41389,195.359353 505.563256,165.477178 C425.566801,141.607595 360.531694,135.392402 309.781557,137.396599" id="Fill-18"></path>
                <path d="M177.4634,152.549327 C167.800863,157.417999 162.795045,161.014957 162.283866,161.385873 L166.373301,166.977677 C166.678762,166.556889 166.968638,166.148569 167.277216,165.727781 C170.394163,161.498083 173.800986,157.09072 177.4634,152.549327" id="Fill-21"></path>
                <path d="M261.578589,127.202623 C262.096002,127.121582 262.572895,127.024957 263.096542,126.943916 C268.289376,126.155329 273.812607,125.450899 279.610129,124.827509 C269.333554,121.433153 263.255506,120.445081 262.629,120.348456 L261.578589,127.202623 Z" id="Fill-23"></path>
                <path d="M371.441633,177.460594 C366.576078,167.801174 362.982238,162.795357 362.608204,162.284178 L357.019518,166.370496 C357.440306,166.675956 357.851743,166.968949 358.272531,167.277527 C362.502228,170.394475 366.906475,173.795064 371.441633,177.460594" id="Fill-25"></path>
                <path d="M399.168439,279.616675 C402.559678,269.336982 403.553984,263.255818 403.650609,262.629312 L396.793325,261.5789 C396.877483,262.096314 396.970991,262.573207 397.052032,263.096854 C397.837502,268.292805 398.548166,273.816036 399.168439,279.616675" id="Fill-27"></path>
                <path d="M346.5366,371.447867 C356.199137,366.579195 361.204955,362.982238 361.716134,362.611321 L357.626699,357.016401 C357.318121,357.440306 357.025128,357.851743 356.719667,358.272531 C353.60272,362.502228 350.199014,366.909592 346.5366,371.447867" id="Fill-29"></path>
                <path d="M244.368364,399.162517 C254.660524,402.559989 260.744805,403.554296 261.371312,403.650921 L262.421723,396.793637 C261.90431,396.877794 261.427417,396.971303 260.90377,397.052343 C255.707818,397.837814 250.169003,398.545361 244.368364,399.162517" id="Fill-31"></path>
                <path d="M152.549327,346.533483 C157.414882,356.19602 161.014957,361.204955 161.385873,361.716134 L166.980794,357.626699 C166.560006,357.318121 166.148569,357.025128 165.727781,356.719667 C161.494966,353.60272 157.087603,350.195897 152.549327,346.533483" id="Fill-33"></path>
                <path d="M124.831561,244.38052 C121.434088,254.663329 120.439782,260.744494 120.346274,261.371 L127.203558,262.433879 C127.1194,261.910232 127.025892,261.430222 126.944851,260.903458 C126.156264,255.707507 125.448717,250.184276 124.831561,244.38052" id="Fill-35"></path>
            </g>
        </g>
    </g>
</svg>