<?xml version="1.0" encoding="UTF-8"?>
<svg width="70px" height="63px" viewBox="0 0 70 63" version="1.1" xmlns="http://www.w3.org/2000/svg" xmlns:xlink="http://www.w3.org/1999/xlink">
    <title>Fill 1</title>
    <g id="Page-1" stroke="none" stroke-width="1" fill="none" fill-rule="evenodd">
        <g id="棚拍人像花魁-攝影免費學" transform="translate(-699.000000, -1926.000000)" fill="#ED7A45">
            <g id="Group" transform="translate(701.085171, 1924.455923)">
                <g id="Fill-1" transform="translate(33.491593, 32.500000) scale(-1, 1) rotate(5.000000) translate(-33.491593, -32.500000) ">
                    <path d="M30.0577519,40.8017995 C28.8617087,41.6864474 27.6718165,42.5598918 26.6146106,43.6124845 C25.2402977,44.980866 24.0064697,46.557723 23.0801925,48.2859389 C21.5355185,46.3116823 19.6386988,44.6004915 17.5126439,43.2894463 C17.7212292,43.1423711 17.928167,42.9928794 18.1318096,42.8380056 C20.3321161,41.1652586 22.0117829,38.9512222 23.2350663,36.4851039 C23.7047404,35.5383966 24.1412429,34.5537946 24.5183222,33.5441492 C26.1929364,35.3760537 28.1589551,36.9332494 30.2553533,38.2613198 C30.8927524,38.6650901 31.5506915,39.0432678 32.226095,39.3882739 C31.4783072,39.8002822 30.7691828,40.275558 30.0577519,40.8017995 M24.8865044,58.939829 C24.7955573,59.8152505 24.6624317,60.721427 24.2806293,61.5247937 C24.2076958,61.6781298 24.0778654,61.9063764 23.9002548,62.0447743 C23.8254541,62.1032089 23.6900219,62.1413233 23.5952303,62.1933872 C23.5240543,61.9554747 23.3539128,61.6457271 23.2537391,61.3954027 C23.0823893,60.9670283 22.9451997,60.5346997 22.8420603,60.0851263 C22.63688,59.1924601 22.5510953,58.291446 22.5708664,57.3760429 C22.6048068,55.7934743 22.8713875,54.1478577 23.3230478,52.615266 C23.560521,53.0470454 23.7814084,53.4854152 23.9798885,53.9299359 C24.34862,54.7565886 24.650569,55.5935662 24.8333421,56.4808503 C25.0021655,57.3011323 24.9734974,58.1026318 24.8865044,58.939829 M4.98719718,44.6745234 C4.11463155,44.6256448 3.28303609,44.4216727 2.50218651,44.0218566 C2.17266777,43.8532528 1.89740978,43.6437888 1.6146827,43.4090616 C1.61424335,43.4087321 1.61270559,43.4071943 1.61017928,43.404668 C1.65191832,43.3364576 1.70156581,43.2468285 1.71353833,43.2317805 C2.81566868,41.8601038 5.16019452,42.0032248 6.71058019,42.1587576 C7.68441791,42.256405 8.64035178,42.3962308 9.58112779,42.6715986 C10.2611446,42.8706279 10.9276512,43.1104078 11.5952562,43.346453 C9.49753987,44.2484556 7.25703211,44.8017176 4.98719718,44.6745234 M21.7854036,22.0637162 C21.7811198,21.5617494 21.7690375,21.0291372 22.0450643,20.5823098 C21.8989777,20.8190141 22.2303637,20.5762686 22.3307571,20.4934496 C22.3075809,20.5125617 22.3395442,20.518493 22.3638188,20.515088 C22.3943542,20.5388133 22.4353244,20.56847 22.4646515,20.5920855 C22.4755256,20.6186667 22.6243583,20.8179157 22.6111775,20.8024283 C22.6370997,20.8328539 22.6556626,20.8533939 22.6695023,20.8677829 C22.6735664,20.8753618 22.6771911,20.8821719 22.6824634,20.8917279 C22.8334928,21.1632514 22.9348748,21.4510311 23.0017671,21.7513325 C23.1336844,22.344576 23.1022703,22.9651697 23.0023163,23.5827976 C22.8651266,24.4305395 22.7651726,25.2942081 22.5911867,26.1348104 C22.5609808,26.2810069 22.552633,26.4515878 22.5668023,26.627441 C22.2478282,25.749603 22.0737325,24.8404608 21.9491744,23.894742 C21.8676734,23.2753566 21.7906759,22.7104517 21.7854036,22.0637162 M23.2687871,27.8244727 C23.5047225,27.9128936 23.7003468,27.8677495 23.859065,27.7518687 C23.8176555,28.1044538 23.7559256,28.4547322 23.6788182,28.8002875 C23.4493634,28.4377071 23.2355057,28.0668887 23.0382338,27.6884913 C23.1074328,27.7453882 23.1835516,27.7925094 23.2687871,27.8244727 M42.3824118,38.1739973 C42.376151,38.1766335 42.3701098,38.1802582 42.3638489,38.1832239 C42.482256,37.7879112 42.5543108,38.1017229 42.3824118,38.1739973 M42.9662092,37.2236653 C42.4164621,37.0260639 41.7083263,37.0372675 41.1362818,37.0304575 C40.3197344,37.0207916 39.5289992,37.0873544 38.7285982,37.2510153 C37.6200971,37.4778341 36.5035778,37.7656138 35.4115527,38.1040295 C32.7700206,37.1482055 30.4390051,35.5995772 28.2701127,33.8353339 C27.2243301,32.9846264 26.2163322,32.032427 25.3142198,30.9908183 C25.6079308,29.7967522 25.7920219,28.5820363 25.8206901,27.3635858 C25.8390333,26.5857019 25.7862004,25.7997997 25.5831071,25.0465199 C25.4078031,24.3968188 25.1629707,23.7719414 24.926486,23.1435492 C24.9479048,22.7825065 24.9493327,22.4203654 24.9229712,22.0594325 C24.8243352,20.708186 24.4135352,19.2188711 23.5360268,18.1516697 C23.0991948,17.6204855 22.5368161,17.2730629 21.8399938,17.4992226 C21.1274645,17.7303251 20.5824405,18.3393856 20.2983953,19.0092972 C19.6475958,20.5446348 19.7295361,22.2726311 19.9254899,23.8887009 C20.1066154,25.3828487 20.3634204,26.8517334 20.9406273,28.2517487 C21.4182098,29.4097874 22.1011924,30.4852267 22.8482113,31.497728 C22.5327521,32.3311907 22.1763226,33.1456512 21.8105568,33.9049722 C20.3796766,36.876023 18.2135302,39.4565941 15.4119619,41.2761966 C15.1378023,41.4543564 14.8588098,41.6293308 14.5757532,41.8003511 C14.1172828,41.6152714 13.6526614,41.4466676 13.1813397,41.2992629 C10.2509295,40.3826516 7.21155852,39.3301688 4.08607326,39.8118153 C2.6578292,40.0319338 1.22596043,40.524784 0.434566252,41.82166 C-0.391866751,43.175982 0.00289670126,44.8833284 1.2589123,45.8049923 C3.76446297,47.6437069 7.28515104,47.3776754 10.1394424,46.6587754 C11.8947887,46.2165612 13.5840116,45.5698258 15.1722919,44.7273562 C15.9155764,45.1154195 16.6427144,45.5576336 17.3354726,46.0244518 C19.1333269,47.2359824 20.7556575,48.8268989 22.0591238,50.6235449 C21.9960759,50.8100525 21.936433,50.9977683 21.8815132,51.1869121 C20.9902748,54.2515462 20.5762895,57.6628341 21.2158853,60.8154497 C21.3717477,61.5833382 21.6087815,62.3324442 21.8876642,63.0637561 C22.1016317,63.6250363 22.332185,64.2858312 22.8074609,64.6832309 C24.0712751,65.7397778 25.4450387,63.8976582 25.8997746,62.8964704 C26.5528807,61.4581211 26.7550954,59.844358 26.8616398,58.2828785 C26.9788386,56.5675138 26.6291094,54.9055311 25.9930284,53.3154933 C25.5454321,52.1966674 24.9897536,51.1151868 24.3437871,50.0853309 C25.6609833,47.6010892 27.738599,45.5314918 29.9862463,43.8814816 C30.7217321,43.3415102 31.4377764,42.7512323 32.2113765,42.2668398 C33.0184778,41.7615777 33.9023569,41.3898806 34.7995266,41.0776066 C35.088844,40.9767739 35.381896,40.8771494 35.6773645,40.7796119 C36.6843738,41.0774968 37.7160969,41.2886085 38.7661633,41.3875739 C40.0818218,41.511473 41.4873291,41.3023384 42.674695,40.7093145 C43.2927623,40.4006653 43.7724317,39.9652612 43.9027015,39.2569058 C44.0435158,38.4909944 43.7671594,37.511445 42.9662092,37.2236653"></path>
                    <path d="M55.7361808,18.5153047 C55.0352944,19.1109647 54.3278177,19.7957046 53.761375,20.5218541 C53.3205887,21.0870886 53.0281958,21.7693022 52.7552444,22.4464632 C52.1121337,21.166942 51.5228443,19.8484276 50.7513311,18.6456842 C50.2234421,17.8225464 49.5786837,17.1440673 48.8366075,16.5847642 C49.7799099,15.7936995 50.6115053,14.8655551 51.2645016,13.8268022 C51.7886561,12.9934493 52.2070351,12.0957304 52.5590709,11.1701122 C52.7215237,11.3587068 52.8916652,11.5436767 53.0709234,11.7268891 C53.3930829,12.0559685 53.7399562,12.3634094 54.0535482,12.7007268 C54.3605499,13.0309046 54.6275699,13.3961212 54.9540131,13.7089443 C55.6252428,14.3522747 56.4654058,14.8036056 57.1633264,15.4251877 C57.6219067,15.8335713 58.1182718,16.1960419 58.635067,16.5279771 C57.6024651,17.0987036 56.6187418,17.7652102 55.7361808,18.5153047 M52.8789238,26.8510304 C53.0197381,27.3169699 53.1077196,27.7975181 53.1099164,28.2995948 C53.1099164,28.3046474 53.1101361,28.3178282 53.1102459,28.3358419 C53.0298434,28.0878241 52.8882601,27.857161 52.8580543,27.5809144 C52.8312534,27.3369607 52.8460817,27.093007 52.8789238,26.8510304 M51.458039,3.29999647 C51.4900023,3.21541999 51.5295445,3.13315015 51.5694163,3.05109998 C51.6051142,3.21651839 51.6449859,3.38292535 51.6656358,3.54856344 C51.7345052,4.09787118 51.6624504,4.66881732 51.6925465,5.22240881 C51.7092421,5.52963011 51.7349445,5.8365219 51.7660291,6.14286449 C51.6755213,5.91725399 51.5885284,5.69098445 51.5051601,5.4654838 C51.3814808,5.13124195 51.2182592,4.76657455 51.1960716,4.40531217 C51.175202,4.0660177 51.332053,3.63357928 51.458039,3.29999647 M51.5388809,2.89897216 C51.5385514,2.89798361 51.5372333,2.89216211 51.5348168,2.87832232 C51.5361349,2.88524221 51.5375628,2.89216211 51.5388809,2.89897216 M66.2460712,14.8141502 C65.6695232,14.4868282 64.6658091,14.482874 64.0337922,14.5676701 C63.0115152,14.7046401 61.9844053,15.0362458 61.026055,15.408602 C60.9692679,15.4306797 60.912371,15.4540756 60.8554741,15.4768123 C60.1855625,15.0409689 59.4814908,14.6605944 58.8314602,14.1892728 C58.0466564,13.6201939 57.3961864,12.9030513 56.6027052,12.343199 C55.8060388,11.7809301 55.29166,11.0638974 54.6182335,10.3756426 C54.1609714,9.9081653 53.6931646,9.45463768 53.2852204,8.94893625 C53.3557374,8.70135783 53.4238379,8.45388926 53.4900712,8.20696988 C53.744899,7.25619847 53.9739146,6.29872685 54.21666,5.3447701 C54.3676894,4.75119701 54.3829572,3.9627685 53.8583633,3.53087927 C53.726446,3.42235776 53.5842037,3.37622514 53.445037,3.3755661 C53.3877007,2.4805932 53.2031702,1.42426596 52.6963704,0.728871573 C52.1542022,-0.0150719052 51.2995405,-0.333496849 50.6580773,0.472505992 C50.0292457,1.26258209 49.6693014,2.39030507 49.4970729,3.37347915 C49.1325154,5.45526872 50.2950575,7.50795079 51.2541767,9.27439092 C50.7523197,10.67869 50.089987,12.0020372 49.1004422,13.0940623 C48.3093776,13.9670673 47.4171506,14.6884937 46.4195876,15.2729501 C45.6426922,14.9615549 44.8036277,14.6674045 43.9657713,14.7129879 C43.0164279,14.7646125 42.1558347,15.2086939 41.4460514,15.8199512 C40.756149,16.4140735 40.2332027,17.0980446 40.2540723,18.0566146 C40.2668136,18.645135 40.5259252,19.3150466 41.0764412,19.5946982 C41.4701062,19.7944964 41.8632221,19.7432013 42.276878,19.6436867 C43.8391263,19.2677058 45.3754525,18.7693636 46.784255,17.9927978 C47.2946795,18.2231314 47.7901659,18.491799 48.237213,18.8296655 C49.1487716,19.5191286 49.7643126,20.5057077 50.2801193,21.5095316 C50.8167955,22.5538864 51.3397417,23.6016461 51.88872,24.6394105 C51.3677508,26.158382 51.1208315,27.7097563 51.7321986,29.3185766 C52.0113009,30.0530739 52.6228877,31.099186 53.5690459,30.7699968 C54.4833505,30.4519014 54.6273502,29.3382379 54.6668925,28.5051047 C54.7366406,27.0291902 54.3247422,25.6725616 53.7279837,24.3698641 C53.9589764,23.7945244 54.1849164,23.2087499 54.4659959,22.6619685 C54.7381784,22.1324319 55.1794039,21.735252 55.603165,21.3286258 C56.1249031,20.8281967 56.6288471,20.3378728 57.2181364,19.9156495 C58.342015,19.1106352 59.5306989,18.4206229 60.792536,17.870766 C61.1340273,18.0927518 61.4798023,18.3039733 61.8422729,18.4668654 C62.6772734,18.8424069 63.7360171,18.8455923 64.628903,18.7180685 C65.4152446,18.6057026 66.0077193,18.1779873 66.5038647,17.5721122 C67.1420326,16.79302 67.2250714,15.3700483 66.2460712,14.8141502" id="Fill-4"></path>
                </g>
            </g>
        </g>
    </g>
</svg>