<?xml version="1.0" encoding="UTF-8"?>
<svg width="125px" height="107px" viewBox="0 0 125 107" version="1.1" xmlns="http://www.w3.org/2000/svg" xmlns:xlink="http://www.w3.org/1999/xlink">
    <title>Group 30</title>
    <g id="Page-1" stroke="none" stroke-width="1" fill="none" fill-rule="evenodd">
        <g id="棚拍人像花魁-攝影免費學" transform="translate(-684.000000, -6371.000000)" fill="#333333">
            <g id="Group-30" transform="translate(684.354989, 6371.971986)">
                <g id="Fill-1" transform="translate(-0.000000, 0.000000)">
                    <path d="M18.639919,22.0435072 C18.0991958,23.0186172 17.6422477,24.0668024 17.271895,25.1427745 C17.1858803,24.9641923 17.0929811,24.7901722 16.992202,24.6224559 C16.7510788,24.2208327 16.4457555,23.862673 16.1417594,23.507997 C15.8225013,23.1355707 15.4961928,22.7721854 15.1286602,22.4465405 C14.4460998,21.8418661 13.6545487,21.3365607 12.816382,20.9771568 C12.6111743,20.8892343 12.4020681,20.8113483 12.1902247,20.741425 C12.7773146,20.116346 13.3362029,19.4502917 13.8810735,18.7909561 C14.9766207,17.4655662 15.9787711,16.0294438 16.6463183,14.4383787 C16.7266927,14.6237625 16.8055741,14.8097268 16.8784005,14.9980966 C17.0963819,15.5623764 17.2945392,16.1204353 17.5879183,16.6519515 C18.0727361,17.5304298 18.759195,18.3399802 19.5762105,18.9266553 C19.8269554,19.1067305 20.0975244,19.2827414 20.3807011,19.4277305 C20.3321779,19.4816452 20.2842352,19.5363065 20.2379515,19.5928755 C19.6208353,20.3457739 19.1113826,21.1933134 18.639919,22.0435072 M16.4373617,29.647972 C16.4062617,29.8123704 16.3410617,29.8498619 16.4373617,29.647972 M22.7503778,17.6388399 C22.462722,17.5657647 22.2299763,17.6528577 21.9439794,17.6251538 C21.7573515,17.6071546 21.5729631,17.5479313 21.397284,17.484229 C21.1932375,17.4104073 20.9928406,17.3242267 20.7999918,17.2248577 C20.5710616,17.1068259 20.5211283,17.0737306 20.2951011,16.906429 C20.1250624,16.7806004 19.9622399,16.645067 19.8068825,16.501488 C19.7176329,16.418957 19.6307058,16.3337717 19.5465159,16.2460151 C19.5442764,16.2436926 19.4507136,16.1386004 19.4318019,16.1190252 C19.2857345,15.9458345 19.1471322,15.7664229 19.0194787,15.5792144 C18.9688818,15.5050609 18.9197779,15.429912 18.8721671,15.3538508 C18.8571539,15.3298795 18.7434353,15.1309756 18.7424399,15.1360353 C18.5185694,14.6970035 18.371009,14.2223881 18.2008873,13.7612098 C18.0284431,13.2940594 17.8312811,12.8367796 17.643326,12.3757672 C17.4482377,11.8974191 17.2745493,11.411523 17.103847,10.924051 C17.0800416,10.7724262 17.0557385,10.6210502 17.0340067,10.4701719 C17.0132702,10.3257634 16.9344718,10.1568029 16.819509,10.0411766 C16.8005144,9.92480371 16.7676679,9.71395566 16.7872431,9.90738511 C16.7462679,9.50227815 16.5826989,8.83282313 16.0524269,8.84573899 C15.5189199,8.85903398 15.3924277,9.5440828 15.370447,9.94213937 C15.3135463,10.9772192 15.6105749,11.9621998 15.9888075,12.9107672 C15.893254,13.1859811 15.7733974,13.4568819 15.657854,13.7174144 C15.2371532,14.6659818 14.6355478,15.5444601 14.0133719,16.3705167 C13.3795006,17.212167 12.6579557,17.9663926 11.9517557,18.7460825 C11.616489,19.1163522 11.2761627,19.4818111 10.8770278,19.7843972 C10.6794511,19.9341142 10.4783906,20.0802646 10.2675426,20.2109041 C10.1967069,20.2547824 10.1187379,20.3087801 10.0401054,20.356308 C9.87197437,20.3785374 9.7062488,20.4255677 9.54508524,20.5101723 C9.1423837,20.721601 9.03961394,21.244325 9.08631238,21.6575607 C9.12662401,22.0141444 9.33266121,22.5503885 9.77559143,22.5384443 C9.90797282,22.5348777 10.0352945,22.5015335 10.1578054,22.4501071 C10.4348441,22.4249746 10.7351906,22.5352924 10.9917418,22.6082017 C11.3839092,22.7195978 11.7706022,22.8535552 12.1444386,23.0163777 C12.869882,23.3321521 13.3979975,23.6704877 14.0158603,24.2062342 C14.2885029,24.4426295 14.5440587,24.69719 14.786592,24.9642753 C14.7974579,24.9781272 14.9015548,25.0974032 14.9238672,25.1241946 C14.98533,25.1976846 15.0461292,25.2717551 15.1070114,25.3458256 C15.2412176,25.5090628 15.3746773,25.6732125 15.5013354,25.8425047 C15.6186207,25.9991062 15.7245424,26.1617628 15.8311276,26.3257465 C15.8408323,26.3406768 15.8614858,26.3783341 15.8735129,26.4000659 C15.8835494,26.4206365 15.8940005,26.4411241 15.9037052,26.4620264 C15.951399,26.5647132 15.9929548,26.6698054 16.0320222,26.7762248 C16.0657811,26.8681287 16.0966369,26.9610279 16.1281563,27.0536783 C16.1346261,27.0727558 16.139354,27.0860271 16.1431695,27.0970589 C16.1460726,27.1079248 16.1493904,27.1205326 16.1539524,27.1373705 C16.2110191,27.3480527 16.2645191,27.5592325 16.3079827,27.7732325 C16.3344424,27.9032085 16.3577501,28.0337651 16.3775741,28.1649023 C16.3785695,28.1721186 16.3887718,28.2489263 16.3944951,28.2878279 C16.386947,28.2278581 16.3730951,28.0798829 16.3919238,28.2603728 C16.3931679,28.2722341 16.3944121,28.2840124 16.3956563,28.2958736 C16.3969005,28.3041682 16.3978958,28.3103891 16.3981447,28.3103891 C16.39773,28.3103891 16.3969834,28.3064907 16.396154,28.3004356 C16.4044486,28.3792341 16.4125772,28.4580325 16.42054,28.5369139 C16.3846245,28.8015108 16.3531051,29.0666883 16.313623,29.3310364 C16.2101896,30.0228038 16.2076183,30.9118991 16.8021733,31.4001177 C16.980009,31.5461022 17.2563012,31.6287161 17.4759415,31.517237 C17.7372206,31.3846068 17.8618051,31.1522758 17.9809981,30.8953929 C18.1123842,30.6122991 18.1182733,30.2658348 18.1351113,29.9609262 C18.1375167,29.917048 18.1389268,29.8730867 18.1408345,29.8291255 C18.1517004,29.6943387 18.1618198,29.5591371 18.16605,29.4242674 C18.1740958,29.1651449 18.157009,28.9055247 18.1298857,28.6463193 C18.153857,28.4661612 18.1809803,28.2865007 18.2149051,28.1075038 C18.2537237,27.9030426 18.2958601,27.699162 18.3407338,27.495862 C18.3632121,27.3936729 18.3864369,27.2917325 18.4104082,27.1899581 C18.4224353,27.1389465 18.4352919,27.0881008 18.4471531,27.0370891 C18.4478167,27.034186 18.4481485,27.0325271 18.4487291,27.0299558 C18.4498074,27.0263062 18.450471,27.0237349 18.4516322,27.0194217 C18.5675903,26.593993 18.6906818,26.1736241 18.8360027,25.7570706 C18.9799136,25.3448303 19.1371787,24.937235 19.3089593,24.5358606 C19.5033012,24.0819815 19.5918043,23.8966807 19.8414709,23.4440459 C20.2313988,22.7371823 20.6798864,21.9171808 21.1565755,21.3339064 C21.398943,21.0374584 21.7994879,20.6854367 22.1155111,20.3816894 C22.2788313,20.2246731 22.4343545,20.0518142 22.6126879,19.9122165 C22.8073615,19.7599282 22.9608111,19.6453801 23.1071274,19.4345321 C23.3083537,19.1448026 23.3336522,18.7139825 23.263563,18.3802918 C23.2093165,18.1221647 23.0457475,17.7140717 22.7503778,17.6388399"></path>
                    <path d="M107.650412,36.0615767 C106.872879,36.7573255 106.191065,37.665996 105.705252,38.5924998 C105.535462,38.216175 105.332162,37.8541169 105.091702,37.511634 C104.391557,36.5141286 103.466215,35.7188449 102.401855,35.1383077 C102.86519,34.8415279 103.30306,34.5075883 103.720029,34.138231 C104.386995,33.5473256 105.028746,32.8987729 105.582824,32.200121 C105.781562,31.9495419 105.957407,31.6857745 106.119151,31.4139613 C106.299226,31.6472877 106.491246,31.8720706 106.680113,32.0977659 C107.266622,32.7987403 107.878181,33.4917519 108.614491,34.0400232 C108.959545,34.2969891 109.325833,34.5240945 109.703651,34.731293 C108.958466,35.0678038 108.236424,35.5372767 107.650412,36.0615767 M104.802337,41.5776338 C104.799037,41.6719431 104.772137,41.7755423 104.802337,41.5776338 M114.144897,34.1668473 C113.829704,33.8815969 113.423269,33.8423636 113.045783,33.6802876 C112.625497,33.4998806 112.214087,33.2954194 111.798445,33.1044783 C110.990637,32.7330473 110.19187,32.3381427 109.487743,31.7891249 C108.857107,31.2974226 108.34641,30.7090055 107.855952,30.0834288 C107.2964,29.3697637 106.83265,28.5618723 106.20923,28.0561521 C105.823035,27.7427832 105.402749,27.9907079 105.214296,28.3856126 C104.969938,28.8976366 105.05222,29.4537048 105.313167,29.9381908 C105.329674,29.9690466 105.353313,30.0348226 105.37969,30.110635 C105.208407,30.3862637 105.021779,30.6512753 104.80612,30.8925644 C104.263489,31.4994784 103.63136,32.0482473 102.987369,32.5448434 C102.354493,33.0326473 101.676163,33.4018388 100.943669,33.7182767 C100.561953,33.8831729 100.179822,34.0644922 99.7874056,34.2025139 C99.5912389,34.2715248 99.3905932,34.3258542 99.1896986,34.3791883 C98.9586118,34.416348 98.7313405,34.4802992 98.5109537,34.5758527 C97.680501,34.936086 97.9277622,37.0324565 98.9450087,36.6776146 C99.0155126,36.6529797 99.0854358,36.6282619 99.155442,36.6035441 C99.924349,36.37901 100.787731,36.6624355 101.490364,36.9774634 C102.345701,37.3610045 103.192743,37.9261138 103.775436,38.6712153 C104.228403,39.2502595 104.55496,39.9095951 104.681536,40.5990401 C104.70335,40.7172377 104.72135,40.8362649 104.738685,40.955209 C104.743745,40.9901292 104.751044,41.0646145 104.757348,41.1317176 C104.654329,41.5413036 104.620488,41.9430927 104.717036,42.3615539 C104.819972,42.8079679 105.179874,43.4272407 105.734615,43.1988911 C106.344598,42.9478144 106.446289,42.2051183 106.402825,41.4934439 C106.403157,41.4926144 106.403323,41.4915361 106.403572,41.4905408 C106.44828,41.3238199 106.52177,41.1152114 106.588458,40.9358827 C106.739751,40.5291997 106.914103,40.1391889 107.133826,39.7649378 C107.575098,39.0135324 108.132659,38.265113 108.839771,37.7436332 C109.561565,37.2112045 110.322841,36.7837852 111.184979,36.5274828 C111.627411,36.3960138 112.085023,36.3145611 112.542137,36.252103 C112.731585,36.226141 112.930572,36.198603 113.119605,36.2364263 C113.358655,36.2843689 113.559798,36.3885487 113.812202,36.3467441 C114.746254,36.1920503 114.722365,34.6895713 114.144897,34.1668473" id="Fill-17"></path>
                    <path d="M16.4028182,28.295084 C16.4035182,28.300984 16.4042182,28.305884 16.4049182,28.310184 C16.4047182,28.308384 16.4045182,28.306484 16.4043182,28.304784 C16.4038182,28.301484 16.4034182,28.298984 16.4028182,28.295084" id="Fill-3"></path>
                    <path d="M17.3549071,33.2400448 C16.8164234,33.2532332 16.5895668,33.9952657 16.6176025,34.4255052 C16.6906777,35.55083 16.8283676,36.6719245 16.8459521,37.8004012 C16.8520901,38.1977113 17.0688273,38.8482547 17.5628521,38.8361446 C18.0757885,38.8234539 18.2170451,38.1552431 18.2281598,37.7665594 C18.2605086,36.6393269 18.1727521,35.5143339 18.1495273,34.3878479 C18.1404862,33.9476549 17.9040908,33.2266076 17.3549071,33.2400448" id="Fill-8"></path>
                    <path d="M32.0956745,16.27707 C31.6660986,16.3456661 31.2342831,16.4034793 30.7984032,16.4043088 C30.3332436,16.4051382 29.8680009,16.3455832 29.4050808,16.3061839 C28.4511219,16.2247312 27.5178995,16.1564669 26.5620328,16.2594855 C25.9777631,16.3225243 25.7360592,17.0307979 25.7636802,17.5429878 C25.7862414,17.9595413 26.0247104,18.8650598 26.6240763,18.7857637 C27.5777863,18.6596032 28.5548041,18.644673 29.5151498,18.5845374 C29.976411,18.5557552 30.4428149,18.5435622 30.8998459,18.4699893 C31.3770327,18.3932645 31.8445148,18.2618785 32.3047807,18.1167234 C32.6840915,17.9969498 32.7565032,17.3908653 32.7209194,17.0760033 C32.6888194,16.792163 32.4886714,16.2142801 32.0956745,16.27707" id="Fill-10"></path>
                    <path d="M15.8391236,3.19683473 C15.8503213,3.26559674 15.8587818,3.33477348 15.8692329,3.40370139 C15.8703942,3.41108356 15.8712236,3.41647503 15.872136,3.42219829 C15.8726337,3.42924867 15.8731314,3.43704557 15.8738779,3.44683317 C15.8847438,3.59082696 15.8987616,3.73448897 15.9079686,3.87881455 C15.9275438,4.18471842 15.9400686,4.49111995 15.9576531,4.79710677 C15.9759011,5.11487187 16.1057112,5.60051914 16.4834461,5.65493154 C16.8326476,5.70503076 17.0846367,5.32157264 17.1060367,5.00463699 C17.1524034,4.31859283 17.2427313,3.62325875 17.1987701,2.93530683 C17.1536476,2.23084872 17.0204368,1.53775417 16.8921197,0.844991403 C16.8130724,0.41831855 16.4306096,-0.17208918 15.92265,0.0473852302 C15.4356756,0.257818556 15.291267,1.05194101 15.4191694,1.50648363 C15.5762686,2.06512314 15.7456438,2.62301615 15.8391236,3.19683473" id="Fill-12"></path>
                    <path d="M3.93409668,21.9694698 C2.76572308,21.9422636 1.59029909,21.9357938 0.456513857,22.2502411 C0.278844096,22.2995109 0.1339379,22.5641078 0.0787789872,22.7153178 C-0.00391790902,22.9420085 -0.0248202339,23.2460876 0.0319146478,23.4807411 C0.130122396,23.8870093 0.387088278,24.2816651 0.849510743,24.153348 C1.87994559,23.867517 2.9121223,23.6569178 3.97200288,23.5132558 C4.64693231,23.4218496 4.63050906,21.9855613 3.93409668,21.9694698" id="Fill-5"></path>
                    <path d="M118.287315,16.5007995 C117.793954,17.3369755 117.460263,18.2492126 117.198569,19.1804444 C117.139512,19.0555281 117.077717,18.9315242 117.009868,18.8089304 C116.39159,17.6925638 115.448248,16.6885887 114.418394,15.9376809 C113.69237,15.4082383 112.849476,15.0353143 111.967265,14.8640314 C112.135147,14.7123236 112.300873,14.5568833 112.462036,14.393812 C113.347897,13.4968368 114.160931,12.5192384 114.709368,11.3770757 C114.85162,11.0807106 114.994618,10.7811935 115.126751,10.4771145 C115.547783,11.1164602 116.101944,11.6548609 116.745769,12.1512912 C117.744518,12.9213593 118.712993,13.6531066 119.889495,14.1363484 C120.025609,14.1921709 120.166119,14.2459198 120.31003,14.2971802 C119.492682,14.8867585 118.793616,15.64256 118.287315,16.5007995 M107.763747,15.534884 C107.744547,15.541384 107.736147,15.543384 107.749847,15.536784 C107.701447,15.560384 107.645747,15.474984 107.763747,15.534884 M123.544747,13.0597958 C122.380106,12.8085531 121.147533,12.4965113 120.084334,11.9504795 C119.011348,11.399471 118.128308,10.5975517 117.24477,9.78750364 C116.906352,9.4772866 116.488305,9.056337 116.302258,8.70896027 C116.120855,8.36987811 116.010372,7.80402232 116.000916,7.50019209 C116.00075,7.4933076 116.022648,7.1218766 116.006556,7.24015722 C116.023062,7.09964715 116.042555,6.9597177 116.057568,6.81887584 C116.09282,6.48883477 116.123178,6.17297741 116.068351,5.84318518 C115.970143,5.2526945 115.467326,4.51149143 114.798037,4.89718909 C114.443029,5.10165032 114.250595,5.67613247 114.302934,6.175134 C114.211528,6.52275957 114.179262,6.88531537 114.180921,7.24488513 C114.183575,7.85246262 114.306418,8.45589284 114.473968,9.03833778 C114.305671,9.50399512 114.093164,9.96052844 113.872611,10.3997261 C113.377591,11.3860338 112.662267,12.2180625 111.883904,12.9911996 C111.096169,13.7737097 110.255348,14.3622926 109.257096,14.8489352 C109.215374,14.869174 109.173238,14.8889151 109.13135,14.9091538 C109.115756,14.9113104 109.099914,14.9133841 109.08432,14.9157066 C108.415446,15.0110942 107.820974,15.1958972 107.306627,15.6500251 C106.849513,16.0535561 106.922008,17.1064693 107.497236,17.3737204 C107.818236,17.5228569 108.255277,17.244408 108.533975,17.105308 C108.651675,17.0464995 108.768463,16.9849538 108.88525,16.9237398 C109.010084,16.9022569 109.135,16.8861654 109.256681,16.8738065 C109.727564,16.8262786 110.210806,16.785884 110.683846,16.7728615 C111.684254,16.7453235 112.725306,17.0419375 113.553768,17.6087057 C114.378083,18.1727367 115.129322,18.9447956 115.693519,19.7672025 C115.964254,20.1620242 116.183811,20.5831397 116.313207,21.0456451 C116.394742,21.3367846 116.451643,21.6356381 116.509041,21.932252 C116.530773,22.0450582 116.550514,22.1581962 116.574569,22.2705047 C116.576476,22.2795458 116.578965,22.288504 116.581038,22.2977109 C116.568928,22.5197567 116.578301,22.7417195 116.626161,22.9620233 C116.693264,23.2710791 116.883707,23.6693845 117.23349,23.7196497 C117.576055,23.7689194 117.817096,23.4893094 117.926086,23.1877187 C118.052164,22.8385171 118.058883,22.4757125 118.015253,22.1124931 C118.035575,21.8846412 118.04868,21.6563745 118.0729,21.4287714 C118.123165,20.9558978 118.195826,20.4865909 118.283168,20.0192746 C118.440765,19.1767118 118.762345,18.323532 119.193746,17.5831584 C119.627386,16.8388034 120.266732,16.2335484 120.938592,15.7017003 C121.27162,15.4380158 121.639152,15.2284949 122.036545,15.0774507 C122.288203,14.9818143 122.606051,14.8544097 122.913862,14.7916197 C123.090371,14.7920345 123.264806,14.78515 123.435176,14.7678973 C123.793419,14.8314337 123.96296,14.2385376 123.976231,14.0018105 C123.992323,13.7154818 123.903902,13.1371841 123.544747,13.0597958" id="Fill-14"></path>
                    <path d="M66.5911071,72.9726442 C66.5921071,72.9797442 66.5932071,72.9848442 66.5945071,72.9872442 C66.6263071,73.0436442 66.4341071,73.0987442 66.5911071,72.9726442 M66.585802,72.7980041 C66.473502,72.5947908 66.591002,72.7596685 66.586702,72.7870759 C66.586302,72.7890707 66.586102,72.793494 66.585802,72.7980041 M64.4248275,74.2543129 C63.9727733,74.428333 63.47344,74.8347671 63.1511128,75.1930927 C63.0276067,75.3304508 62.918533,75.4788407 62.8196617,75.634281 C62.7191315,75.1686237 62.5728152,74.7062842 62.2663307,74.3429819 C61.7517354,73.7332478 61.0778013,73.7305106 60.4524734,73.9883889 C60.5805416,73.0190021 60.41183,71.906368 59.6596781,71.255244 C59.3881967,71.0203417 59.0754913,70.8559432 58.7454502,70.7261332 C59.0579897,70.6823378 59.3710269,70.6319068 59.6499734,70.4847611 C59.9052804,70.3500572 60.1276579,70.1472549 60.2741401,69.8973394 C60.381306,69.714444 60.3813889,69.5759247 60.4474137,69.398089 C60.4565378,69.3868084 60.473044,69.3649937 60.5009137,69.3275022 C60.8822982,68.8135704 60.829047,67.9492759 60.7055408,67.3566286 C60.6857998,67.2619875 60.660999,67.169586 60.6339587,67.0780139 C60.8768238,67.0780969 61.0987036,66.9885155 61.3386656,66.9058186 C61.9242625,66.7040945 62.4221028,66.4342721 62.6741749,65.8328326 C62.7956904,65.5426054 62.8717516,65.2177899 62.9287353,64.8882465 C63.112626,65.2373651 63.286978,65.5651667 63.484057,65.9380077 C63.802071,66.5395302 64.2234353,67.1464441 64.8884112,67.3954472 C65.4696949,67.6131798 66.0790972,67.5094147 66.6588879,67.3517348 C66.8520685,67.2991472 67.043922,67.2364403 67.2346972,67.1668488 C66.6807026,68.074524 66.2679647,69.2570813 66.6601321,70.2880138 C66.6646941,70.299958 66.6696709,70.3111557 66.6743988,70.322851 C66.6364926,70.3454952 66.5985034,70.3676417 66.5611778,70.3915301 C65.5263469,71.0527735 64.9081523,72.0559192 65.1130283,73.3214222 C65.1742422,73.6996548 65.306043,74.0291152 65.4793166,74.332116 C65.1404833,74.1921036 64.7775128,74.1186137 64.4248275,74.2543129 M59.2687617,68.4787151 C59.2787617,68.4878151 59.2514617,68.5078151 59.2080617,68.5315151 C59.2260617,68.4876151 59.2469617,68.4592151 59.2687617,68.4787151 M59.4039554,68.0735286 C59.4128554,68.1169922 59.4116554,68.1561426 59.3883554,68.1792015 C59.2916554,68.2756674 59.3461554,68.1744736 59.4039554,68.0735286 M67.9313677,68.8527755 C67.8656677,68.8118755 67.8827677,68.7702755 67.9313677,68.8527755 M68.1562146,69.5271279 C68.1344146,69.5845279 68.1096146,69.6562279 68.1571146,69.5171279 C68.1568146,69.5207279 68.1565146,69.5237279 68.1562146,69.5271279 M86.7963701,71.4537331 C86.385457,71.2009975 85.9966903,71.1040339 85.5353462,70.9855874 C85.0245663,70.8544502 84.5162749,70.717258 84.0012648,70.602544 C82.9429602,70.3667293 81.8696424,70.1910502 80.7962417,70.0399231 C78.7232619,69.7479541 76.6334441,69.6051216 74.5450365,69.4764727 C73.5024086,69.4123557 72.4498272,69.4374053 71.4146645,69.2871076 C70.9229622,69.2156084 70.434163,69.1253634 69.9403041,69.0690433 C69.423801,69.0100689 68.9018235,69.0196076 68.385984,68.9570666 C68.3901313,68.9496844 68.3939468,68.942634 68.3982599,68.9352518 C68.8126568,68.2147852 69.3768537,67.6089496 69.9216413,66.987769 C70.6178878,66.1938124 71.3805738,65.4656318 72.0286288,64.6288752 C72.3330397,64.2357125 72.5477862,63.7972613 72.823083,63.3894171 C73.2311761,63.0266125 73.6368636,62.6624807 74.0460349,62.3084683 C74.7874039,61.6671319 74.2496667,59.401884 73.1858877,60.2217196 C72.8299675,60.4959382 72.4687389,60.7687467 72.1557846,61.0911568 C71.510135,61.6356955 70.8629924,62.1784094 70.2082188,62.7119164 C69.324515,63.4319683 68.3335623,64.0164869 67.3023809,64.5013876 C66.6228895,64.8208946 65.4235771,65.4049985 64.8892407,64.5933745 C64.6703469,64.260928 64.434864,63.7099195 64.2077585,63.2860668 C64.2603461,63.3841916 64.1040764,63.0741404 64.0920492,63.0538187 C64.0794415,63.0199768 63.9728562,62.75538 63.9883671,62.814935 C63.8836896,62.4835668 63.8306043,62.1220063 63.7672338,61.7817629 C63.5501648,60.6173707 63.5357322,59.6467398 63.48555,58.3981576 C63.4450725,57.3914453 63.3776376,56.3853135 63.3573989,55.3779376 C63.3741539,54.9021609 63.3737392,54.428126 63.3637857,53.9545059 C63.3859322,52.8918051 63.4279028,51.8277772 63.4814028,50.7669013 C63.4828958,50.7379533 63.484057,50.7136502 63.4850524,50.6923331 C63.4874578,50.6670347 63.4915221,50.6173502 63.4981578,50.5291788 C63.5102679,50.3681812 63.5195578,50.2068517 63.5316679,50.0456052 C63.5540632,49.7504843 63.5791128,49.4554463 63.604909,49.1604084 C63.6637175,48.4897921 63.7287469,47.8196735 63.7888826,47.1491402 C63.921264,45.6717108 64.0532306,44.1809271 64.03125,42.6961156 C64.0210477,42.0060071 63.9394291,41.3194652 63.9239182,40.6296885 C63.965557,40.4077257 64.0082741,40.1860118 64.0509082,39.9642978 C64.1155229,39.8558878 64.1813818,39.7480583 64.2445035,39.6385699 C64.5421128,39.1228963 64.6321089,38.3826886 64.4224221,37.7869723 C64.4610748,37.4657235 64.3882485,36.968132 64.0368074,36.839815 C63.8714136,36.7795134 63.7338896,36.8379072 63.6297927,36.9459026 C63.2858167,36.8475289 62.9194454,36.9725282 62.6828012,37.3826119 C62.330033,37.993839 61.9928586,38.5973521 61.8764028,39.3047963 C61.7515695,40.0637498 61.8178431,40.8562133 61.8769005,41.6183187 C61.9290734,42.2921698 61.9569431,42.9607125 61.9449989,43.6368031 C61.938778,43.987 61.9268338,44.3372798 61.9103276,44.6873108 C61.9027796,44.8488062 61.8939044,45.0102186 61.8849462,45.1717139 C61.8848633,45.1724604 61.8808819,45.2370752 61.8780617,45.2843542 C61.8739974,45.342748 61.8657858,45.4643465 61.8647075,45.4813503 C61.7685734,46.8552635 61.6374362,48.2264394 61.5484354,49.6009331 C61.4522183,51.0859936 61.4285788,52.5775237 61.4124873,54.0654872 C61.3974742,55.4486074 61.5085385,56.8221887 61.5866734,58.2018251 C61.6440718,59.2150072 61.7128338,60.2229638 61.8584036,61.2232064 C61.848533,61.3360126 61.8349299,61.4466622 61.8122028,61.5519203 C61.6925121,62.1055001 61.7699834,62.6832172 61.7222896,63.2080978 C61.6947517,63.5101861 61.646809,63.8067171 61.6000276,64.1061512 C61.5754757,64.2634163 61.60094,64.584914 61.5270354,64.7097473 C61.4513059,64.8376496 61.1716129,64.8989465 61.0402269,64.9504558 C60.7398804,65.067907 60.6340416,65.130531 60.3132075,65.0522303 C59.8211734,64.9321248 59.3070758,64.7861403 58.8823936,64.5007241 C58.3504626,64.143145 58.015113,63.5963667 57.5707727,63.1472985 C57.1397867,62.7116676 56.5642263,62.4493931 56.1460139,62.0127668 C55.7618092,61.6115583 55.4858488,61.1066676 55.1026395,60.696418 C54.6639395,60.2267793 54.1244605,59.8701956 53.5260899,59.6372839 C53.1763907,59.5010871 52.8928822,59.8280591 52.7862969,60.1214382 C52.6481923,60.5013297 52.6793799,61.0131878 52.9205031,61.3467126 C53.209652,61.7470087 53.5897923,61.9381156 53.9812132,62.2132466 C54.3720535,62.4877141 54.5168767,62.9935172 54.8410287,63.343714 C55.1559736,63.6840404 55.5461503,63.9401768 55.8831588,64.2576101 C56.2730038,64.624645 56.570696,65.0640086 56.9311782,65.4580008 C57.5745053,66.1609659 58.4792774,66.6051403 59.0464603,67.3763697 C59.160013,67.5307317 59.2591331,67.6844302 59.323499,67.8659154 C59.3356091,67.9000061 59.3628983,67.964372 59.3798192,68.0275767 C59.2946339,68.1550643 59.219651,68.3644193 59.1861409,68.5279053 C59.0916657,68.5765115 58.9359766,68.6379743 58.9364742,68.6378084 C58.0059061,68.9462007 56.9801991,68.96702 56.0120565,68.9815355 C54.8122465,68.9995348 53.6139295,69.1149123 52.4166078,69.1855821 C51.2574412,69.2540123 50.0946249,69.2749146 48.937532,69.3724588 C47.7744669,69.4705836 46.6318065,69.6869061 45.4738011,69.8167161 C44.1813407,69.9616223 42.8804198,69.9718247 41.6071198,70.2600611 C40.9736633,70.4033913 40.3492478,70.5607394 39.7045935,70.6455099 C39.6233897,70.6562099 39.5428494,70.6686518 39.4619773,70.6803471 C39.4238222,70.6848262 39.385916,70.6898029 39.347678,70.694282 C38.8415432,70.7534223 38.2061789,70.701996 37.7589355,70.9790347 C37.3532479,71.2302773 37.2235208,71.7180812 37.2809192,72.1744486 C37.3281983,72.5506075 37.533489,73.0984641 37.9991463,73.0923261 C38.4813928,73.0859393 38.9907626,72.9226191 39.4768246,72.8410005 C40.0403579,72.7743951 40.6007392,72.6855602 41.1660974,72.6319773 C42.3722942,72.5172633 43.5658004,72.2969595 44.7795453,72.3076595 C45.348636,72.3125533 45.9178925,72.3308013 46.4867344,72.3096502 C47.1251677,72.2859277 47.7509103,72.1779323 48.3908366,72.1859781 C49.6170234,72.201406 50.8311831,72.0955672 52.0509001,71.9691579 C53.2109791,71.8489696 54.362017,71.895668 55.5214325,72.0251463 C56.3508898,72.1177967 57.1808448,72.4066967 57.9758797,72.6595153 C58.2729084,72.7539905 58.6344688,72.8794873 58.8514549,73.0271308 C58.8998122,73.0598943 58.9461789,73.0973028 58.9907207,73.1347943 L59.0427277,73.1819904 C59.043889,73.1835664 59.0449673,73.1849765 59.0462114,73.1866354 C59.0585704,73.2579687 59.0627176,73.2928889 59.0655378,73.387447 C59.0758231,73.7366486 58.8835549,74.0727447 58.6691401,74.4152276 C58.3588402,74.9107454 58.0059061,75.3781446 57.6440968,75.8368345 C56.8572735,76.834174 56.0567643,77.8182422 55.2993038,78.8388065 C55.1899814,78.9861181 55.0838938,79.1377429 54.978055,79.2900313 C54.2709426,80.0810848 53.6051372,80.9081367 52.8966148,81.700849 C52.5593574,82.0782521 52.4925861,82.6571304 52.6877574,83.1217095 C52.8367279,83.4761366 53.2764233,83.8308955 53.6258737,83.4698327 C54.0144744,83.0683754 54.4332674,82.697442 54.8184674,82.2926669 C55.2798945,81.8076831 55.6625232,81.2589971 56.0570131,80.7200157 C56.2932426,80.3972739 56.5337022,80.0780987 56.7759038,79.7602507 C57.4796154,79.0239414 58.2033998,78.3051337 58.9049549,77.5676631 C59.3198494,77.1314515 59.7217215,76.6701074 60.1720339,76.2694795 C60.4596067,76.0137578 60.9955191,75.6311291 61.4020362,75.8355074 C61.4836548,75.8765655 61.4933594,75.9199462 61.5101974,75.9754368 C61.5840191,76.2178872 61.6477214,76.6412422 61.694254,76.9517081 C61.788978,77.584667 61.8452152,78.2209437 61.9001253,78.8583817 L61.9001253,78.8585476 C61.8452152,79.3340755 61.8068113,79.8118429 61.7480858,80.2865413 C61.6609927,80.9914971 61.5611261,81.6951258 61.5121881,82.404063 C61.4116579,83.8613366 61.391668,85.3227574 61.4518036,86.7821047 C61.5714114,89.6818046 61.4502276,92.5601874 61.3291269,95.4583943 C61.2602819,97.1067748 61.1733548,98.7545748 61.1437432,100.404282 C61.1294765,101.200147 61.133292,101.996426 61.170037,102.791544 C61.1862114,103.14398 61.2412873,103.512176 61.2749633,103.878713 C61.2499137,104.283157 61.2313338,104.6876 61.2551393,105.088892 C61.2750462,105.424739 61.4110773,105.937758 61.8105439,105.995157 C62.1854586,106.049071 62.437033,105.64214 62.4683865,105.308117 C62.4830679,105.152428 62.4889571,104.998813 62.4888741,104.846027 C62.5121819,104.215473 62.6376788,103.582431 62.6677051,102.951297 C62.7016299,102.241199 62.7364671,101.530851 62.7664935,100.820504 C62.8297811,99.3188546 62.8427206,97.8145508 62.8767284,96.3119888 C62.9448268,93.3060354 63.0374772,90.3010774 63.1200911,87.2953729 C63.1618128,85.7787101 63.1885214,84.2615497 63.2353857,82.7449699 C63.280757,81.2831343 63.328202,79.8498321 63.1960694,78.3912313 C63.2522237,78.1097965 63.3199904,77.8306011 63.4055074,77.5548066 C63.5199725,77.1856151 63.6610632,76.8700895 63.9505438,76.6009306 C64.2245965,76.3460384 64.650357,75.9427562 65.0428562,76.0657648 C65.5946112,76.2387896 66.0042802,76.5885717 66.3691585,77.0198895 C66.8095174,77.5404569 67.3088507,77.9641438 67.8424406,78.3848445 C68.4092088,78.8316732 68.913353,79.3356515 69.4378188,79.830008 C69.84558,80.2143786 70.3058459,80.5482351 70.7145196,80.932108 C70.7954746,81.0224359 70.8805769,81.1101095 70.9753839,81.191977 C71.337525,81.5051801 71.7398947,81.1740607 71.8730226,80.8076064 C72.0431443,80.3396266 71.9451854,79.7906088 71.6013753,79.432698 C71.2880064,79.1510143 71.108263,78.7581833 70.8899498,78.4038391 C70.6540521,78.0208786 70.3787552,77.6674469 70.0828048,77.3292771 C69.4317638,76.5853368 68.829163,75.822319 68.2592429,75.013764 C68.0081662,74.657678 67.7654669,74.2992695 67.4816266,73.9680672 C67.2020995,73.6421734 66.894205,73.3282238 66.6645282,72.9635114 C66.6527499,72.9448486 66.6451189,72.9333191 66.6392298,72.9250246 C66.9271344,72.724047 67.2096476,72.4701502 67.5727011,72.3127191 C69.4208979,71.5114634 71.6518063,71.9545595 73.5726636,72.1994982 C75.7154837,72.4727215 77.8700821,72.6242633 80.0089208,72.9311625 C81.1735618,73.0983811 82.3385346,73.2633602 83.5070741,73.4022114 C84.0173563,73.4629276 84.5308733,73.4995067 85.0389989,73.5768951 C85.50814,73.6482284 85.9905523,73.7433672 86.4622647,73.6435005 C86.8971492,73.5513478 87.11455,73.1911145 87.181819,72.7663494 C87.2439453,72.374099 87.1770911,71.6878889 86.7963701,71.4537331" id="Fill-19"></path>
                    <path d="M48.7908507,84.6970148 C47.9385833,85.5759078 47.0732934,86.4411977 46.1296198,87.2229612 C45.1628043,88.0240511 44.2063571,88.8287906 43.2819269,89.6789844 C42.8723409,90.055641 42.8440564,90.7870565 43.0477711,91.2717913 C43.225275,91.694234 43.6901028,92.0385417 44.0992742,91.6622169 C45.0295106,90.8067146 45.9782439,89.971534 46.9112175,89.1191007 C47.8337399,88.2761232 48.6733166,87.3525225 49.499622,86.4166458 C49.8257646,86.0474543 49.8932825,85.4889807 49.7026732,85.0355164 C49.557767,84.6905451 49.1307623,84.3464032 48.7908507,84.6970148" id="Fill-22"></path>
                    <path d="M80.4886789,85.8717835 C79.2984906,85.0163642 78.1350108,84.1237022 76.939431,83.275748 C75.776117,82.4507697 75.2486651,84.9339991 76.124738,85.5652161 C77.3141798,86.4220455 78.4492921,87.3591664 79.6705022,88.1708734 C80.8371339,88.9460842 82.0439114,89.6579245 83.0818114,90.6082338 C83.5153687,91.005212 84.0195129,90.5745578 84.1779392,90.1389268 C84.3805757,89.5812826 84.2755664,88.8816354 83.8462392,88.4601881 C82.8308176,87.4635122 81.6388044,86.6985866 80.4886789,85.8717835" id="Fill-24"></path>
                    <path d="M78.8919735,58.3645812 C80.4345153,57.1942169 82.0537819,56.1373224 83.733516,55.1748201 C84.2955563,54.8527418 84.086616,53.3129372 83.4218059,53.6651248 C81.6345742,54.6115356 79.9125378,55.668679 78.2631619,56.8390433 C77.6643767,57.2638913 78.119334,58.9507587 78.8919735,58.3645812" id="Fill-26"></path>
                    <path d="M50.7878688,57.7325264 C51.1059657,58.0486326 51.5019486,57.6945373 51.6171602,57.3776016 C51.7720199,56.9513435 51.6881618,56.4311908 51.3662494,56.1074536 C49.8609502,54.5932792 48.3415503,53.0890584 46.9590937,51.4599212 C46.2074395,50.5740608 45.5731535,52.2163034 46.1040062,52.8344979 C47.577786,54.5504792 49.1844448,56.1395536 50.7878688,57.7325264" id="Fill-28"></path>
                </g>
            </g>
        </g>
    </g>
</svg>