<?xml version="1.0" encoding="UTF-8"?>
<svg width="105px" height="79px" viewBox="0 0 105 79" version="1.1" xmlns="http://www.w3.org/2000/svg" xmlns:xlink="http://www.w3.org/1999/xlink">
    <title>Group 9</title>
    <defs>
        <polygon id="path-1" points="0 0 28.5128 0 28.5128 29.3359 0 29.3359"></polygon>
        <polygon id="path-3" points="0 -3.55271368e-15 6.96567298 -3.55271368e-15 6.96567298 3.67978973 0 3.67978973"></polygon>
        <polygon id="path-5" points="0 0 42.1693877 0 42.1693877 39.0232073 0 39.0232073"></polygon>
    </defs>
    <g id="Page-1" stroke="none" stroke-width="1" fill="none" fill-rule="evenodd">
        <g id="棚拍人像花魁-攝影免費學" transform="translate(-744.000000, -954.000000)">
            <g id="Group-9" transform="translate(744.058002, 954.514066)">
                <g id="Group" transform="translate(3.941998, 3.485934)">
                    <g id="Group-14" transform="translate(14.256400, 15.613462) rotate(-17.000000) translate(-14.256400, -15.613462) ">
                        <path d="M25.6014,1.4437247 C18.7424,1.0897247 14.3114,1.6837247 8.8064,2.5627247 C7.1754,2.8227247 5.5734,3.1917247 3.8794,3.4597247 C3.2304,3.5607247 1.7474,3.9537247 1.1924,3.0097247 C1.1204,2.5647247 2.1784,2.1307247 2.9844,2.5627247 C7.0344,1.2077247 12.6144,1.1297247 17.0924,0.547724696 C18.8454,0.318724696 23.0874,-0.222275304 24.4824,0.099724696 C25.4994,0.334724696 25.8294,0.363724696 25.6014,1.4437247" id="Fill-1" fill="#CBBBA0"></path>
                        <path d="M11.0457,14.8793247 C11.0357,15.1883247 11.1507,15.3713247 11.2697,15.5513247 L11.7177,15.5513247 C11.7617,14.8483247 12.6037,14.9433247 12.3897,13.9833247 C11.6257,13.9693247 12.0247,15.7933247 11.0457,14.8793247 M13.0617,12.4163247 C13.2717,11.6493247 13.8687,10.0983247 13.2847,9.2813247 C13.5077,10.5003247 11.8607,11.6413247 13.0617,12.4163247 M18.4357,10.6233247 L19.5557,10.6233247 C19.8507,10.2643247 20.0397,8.6503247 19.3317,8.6093247 C19.5997,9.8483247 18.2537,9.4713247 18.4357,10.6233247 M14.4047,5.4753247 C14.9167,7.8223247 15.8437,8.3733247 16.4207,10.6233247 C18.0967,9.3893247 18.3607,6.7423247 20.2277,5.6973247 C21.8907,9.5803247 20.5807,16.4963247 15.7487,16.6703247 C15.3787,18.4143247 15.8657,19.9043247 15.7487,21.8203247 C15.3507,22.2383247 15.1797,21.6393247 14.4047,21.8203247 C13.7007,20.8093247 13.5657,19.2273247 13.5087,17.5673247 C13.4897,16.8403247 12.1737,17.4083247 12.3897,16.4453247 C9.1087,17.6783247 6.0627,13.5653247 6.1187,10.1763247 C6.1387,9.0143247 6.8967,7.0573247 8.3577,6.8163247 C8.8827,8.7563247 10.2777,9.8243247 10.8217,11.7443247 C12.8977,10.5353247 11.4607,5.8153247 14.4047,5.4753247" id="Fill-3" fill="#CBBBA0"></path>
                        <path d="M19.5555,23.1644247 C20.1105,23.1974247 20.6425,23.2074247 20.6755,22.7174247 C19.9565,22.9144247 20.2105,22.1374247 19.7795,22.0454247 C19.8715,22.5844247 19.3705,22.5314247 19.5555,23.1644247 M21.5715,18.4614247 C22.2365,18.7284247 22.5335,17.5184247 22.0185,17.3424247 C21.7355,17.6784247 21.1035,18.0164247 21.5715,18.4614247 M23.3625,15.3284247 C23.2435,19.9104247 22.7755,24.1444247 18.6595,24.7324247 C18.2635,23.3364247 17.4985,22.3104247 16.8685,21.1484247 C18.3475,18.8964247 20.6305,17.4474247 22.0185,15.1034247 C22.7025,14.9414247 22.8345,15.3324247 23.3625,15.3284247" id="Fill-5" fill="#CBBBA0"></path>
                        <path d="M3.432,28.9867247 C2.875,28.9537247 3.367,28.2287247 3.432,28.0917247 C4.424,27.9847247 4.546,28.3987247 5.224,28.0917247 C4.656,29.3597247 3.786,27.5807247 3.432,28.9867247" id="Fill-7" fill="#CBBBA0"></path>
                        <g id="Group-11" transform="translate(0.000000, 1.891025)">
                            <mask id="mask-2" fill="white">
                                <use xlink:href="#path-1"></use>
                            </mask>
                            <g id="Clip-10"></g>
                            <path d="M26.2738,0 C27.9688,9.797 28.2708,18.648 28.5128,27.32 C20.1418,29.041 10.6668,28.469 1.6408,29.336 C0.4668,25.48 0.9778,19.631 0.7448,14.332 C0.5088,8.969 -0.2332,4.002 0.0728,0.896 C1.1088,1.529 1.0578,3.529 1.1918,4.926 C1.5338,8.455 1.4908,12.914 1.6408,17.02 C1.7948,21.262 2.0428,25.012 2.3128,27.992 C12.5148,27.814 18.6978,27.471 27.1698,26.873 C27.8468,18.74 26.2208,8.57 25.6018,0.447 C25.9298,-0.072 26.3118,0.885 26.2738,0" id="Fill-9" fill="#CBBBA0" mask="url(#mask-2)"></path>
                        </g>
                        <path d="M6.3431,17.3422247 C9.3171,18.3992247 11.4731,20.2742247 13.5091,22.2702247 C14.0241,22.9472247 12.5011,23.0842247 12.6141,24.0612247 C12.1571,24.9162247 13.6521,24.9282247 13.0611,25.1802247 C12.2411,27.7662247 8.8981,25.0552247 7.6871,24.5082247 C6.7631,22.2602247 5.5571,20.2742247 6.3431,17.3422247" id="Fill-12" fill="#CBBBA0"></path>
                    </g>
                </g>
                <g id="Group" transform="translate(52.941998, 38.485934)" opacity="0.70612282">
                    <g id="Group-31">
                        <path d="M20.2239877,7.82650733 C21.1989877,7.74650733 21.2529877,7.79250733 21.7909877,7.60250733 C21.7289877,6.84450733 21.5219877,6.22950733 20.6719877,6.25950733 C20.8199877,7.07750733 20.1869877,7.11850733 20.2239877,7.82650733 M21.1199877,4.01950733 C22.0629877,5.61450733 23.5489877,6.66650733 23.5829877,9.17050733 C22.8829877,9.51250733 22.4739877,9.17250733 22.2399877,8.49850733 C21.4469877,8.60150733 20.9469877,8.99650733 19.9989877,8.94650733 C19.3289877,9.76850733 19.3529877,11.2845073 18.2079877,11.6335073 C18.2029877,11.4155073 17.9339877,11.4595073 17.7609877,11.4095073 C18.4479877,9.18350733 20.0559877,6.25750733 19.5519877,4.24350733 C19.8399877,3.93450733 20.5249877,4.02250733 21.1199877,4.01950733" id="Fill-1" fill="#A48A7B"></path>
                        <path d="M12.8342877,10.7382073 C11.8132877,9.81920733 10.2502877,9.44020733 9.92328774,7.82620733 C11.5582877,7.20320733 13.3252877,9.21720733 12.8342877,10.7382073" id="Fill-3" fill="#A48A7B"></path>
                        <path d="M33.2131877,9.84220733 C35.6101877,10.1472073 36.4791877,13.1222073 36.5711877,14.9932073 C34.9561877,14.4892073 34.7751877,13.8452073 34.3311877,12.0812073 C33.1741877,12.2662073 33.7631877,14.1992073 32.9881877,14.7682073 C32.0051877,15.1922073 31.0341877,14.3692073 30.3011877,13.8732073 C30.0551877,14.8692073 30.8421877,15.5052073 30.3011877,16.1122073 C28.5921877,15.8052073 29.1561877,13.2262073 28.7341877,11.6342073 C30.3371877,10.7672073 30.7751877,12.8272073 31.6451877,13.4252073 C33.1801877,13.0222073 32.5791877,10.5852073 33.2131877,9.84220733" id="Fill-5" fill="#A48A7B"></path>
                        <path d="M8.13118774,10.0658073 C9.18818774,10.9508073 10.2741877,11.8058073 11.0431877,12.9768073 C9.36318774,13.6378073 8.29518774,11.8778073 7.45918774,10.9618073 C7.52618774,10.5058073 7.90818774,10.3648073 8.13118774,10.0658073" id="Fill-7" fill="#A48A7B"></path>
                        <path d="M8.13118774,15.4403073 C7.73118774,17.4283073 4.44118774,15.5143073 4.99618774,14.5443073 C6.29818774,13.9083073 6.75318774,15.4693073 8.13118774,15.4403073" id="Fill-9" fill="#A48A7B"></path>
                        <g id="Group-13" transform="translate(44.104115, 15.120754)">
                            <mask id="mask-4" fill="white">
                                <use xlink:href="#path-3"></use>
                            </mask>
                            <g id="Clip-12"></g>
                            <path d="M6.79947298,0.0959537782 C7.37147298,1.13795378 6.29947298,1.61295378 6.12747298,2.55895378 C4.15147298,2.52295378 2.57847298,2.89295378 1.42547298,3.67895378 C-0.167527021,3.73395378 -0.0755270215,1.05995378 0.0804729785,0.0959537782 C2.82147298,-0.195046222 4.79447298,0.286953778 6.79947298,0.0959537782" id="Fill-11" fill="#A48A7B" mask="url(#mask-4)"></path>
                        </g>
                        <path d="M7.68288774,18.7997073 C6.84688774,19.9317073 5.12988774,19.9157073 4.10088774,19.2477073 C4.11988774,18.6367073 3.72788774,18.7967073 4.10088774,18.3517073 C4.89788774,18.0867073 7.02188774,18.2057073 7.68288774,18.7997073" id="Fill-14" fill="#A48A7B"></path>
                        <path d="M31.8684877,23.7264073 C30.4604877,24.1064073 28.4214877,22.9484073 27.6134877,24.6224073 C28.0444877,25.9084073 29.8654877,25.8044073 30.9724877,26.4144073 C31.0954877,27.5804073 30.9054877,28.4354073 30.5244877,29.1004073 C29.1894877,29.3324073 28.0054877,29.8594073 27.1664877,29.1004073 C27.2124877,27.8034073 29.6324877,28.8794073 29.6294877,27.5334073 C27.1684877,26.4744073 24.9564877,24.5454073 27.8374877,22.6064073 C29.4724877,22.7834073 31.9074877,21.5304073 31.8684877,23.7264073" id="Fill-16" fill="#A48A7B"></path>
                        <path d="M6.56378774,23.7264073 C6.21578774,24.7954073 4.68078774,24.6794073 4.10078774,25.5184073 C3.77778774,25.3924073 3.55378774,25.1674073 3.42878774,24.8464073 C3.88378774,23.9204073 5.53678774,22.6974073 6.56378774,23.7264073" id="Fill-18" fill="#A48A7B"></path>
                        <path d="M6.56378774,25.9657073 C6.85578774,26.7287073 7.52178774,26.0707073 7.90778774,26.4137073 C7.74378774,27.6277073 5.85978774,29.1407073 4.77178774,27.9807073 C5.03078774,26.9707073 6.46678774,27.1397073 6.56378774,25.9657073" id="Fill-20" fill="#A48A7B"></path>
                        <path d="M20.8957877,30.8910073 C21.1457877,30.5450073 21.6237877,30.4260073 21.5677877,29.7740073 C20.9407877,29.8030073 20.0197877,30.6800073 20.8957877,30.8910073 M22.9107877,29.1000073 C23.0147877,30.8460073 22.2427877,31.7150073 20.8957877,32.0120073 C20.9387877,33.6120073 22.0537877,34.1390073 22.0147877,35.8190073 C19.6777877,35.1330073 19.3367877,31.4960073 19.7767877,29.3250073 C20.7697877,29.0240073 21.9847877,28.2150073 22.9107877,29.1000073" id="Fill-22" fill="#A48A7B"></path>
                        <path d="M9.47488774,28.8773073 C10.0638877,28.8113073 9.65188774,29.7443073 10.3708877,29.5473073 C9.65288774,30.4713073 9.00588774,31.4693073 8.13088774,32.2363073 C7.83288774,32.0103073 7.29788774,32.0233073 7.23588774,31.5653073 C7.78188774,30.4673073 8.92188774,29.9653073 9.47488774,28.8773073" id="Fill-24" fill="#A48A7B"></path>
                        <path d="M13.7297877,29.9965073 C14.2497877,31.5645073 12.3847877,32.6825073 11.7137877,33.8035073 C11.4167877,33.5785073 10.8807877,33.5925073 10.8187877,33.1315073 C11.6657877,32.0315073 12.4517877,29.9495073 13.7297877,29.9965073" id="Fill-26" fill="#A48A7B"></path>
                        <g id="Group-30">
                            <mask id="mask-6" fill="white">
                                <use xlink:href="#path-5"></use>
                            </mask>
                            <g id="Clip-29"></g>
                            <path d="M1.41338774,18.1278073 C0.183387742,23.1888073 3.25038774,31.2718073 5.89238774,33.5788073 C7.95538774,35.3828073 13.9873877,37.4108073 17.9833877,37.6098073 C22.6893877,37.8458073 26.4303877,36.3908073 28.9573877,34.6998073 C32.6093877,32.2558073 35.3213877,30.0448073 37.9153877,27.0838073 C39.5563877,22.2678073 41.8343877,16.3088073 39.4823877,10.9618073 C39.6063877,10.9618073 39.7363877,10.7798073 39.4823877,10.7378073 C37.6843877,9.19880733 36.8603877,6.38580733 34.5563877,4.69080733 C28.8563877,0.499807326 19.5683877,0.227807326 13.0583877,3.34780733 C13.6643877,3.41280733 14.7163877,3.03280733 14.4013877,4.01980733 C7.70738774,5.19580733 2.92938774,11.8928073 1.41338774,18.1278073 M42.1693877,14.5448073 C41.7453877,23.6088073 38.4323877,30.4458073 32.0933877,34.4768073 C31.4253877,34.9008073 30.4183877,35.0978073 29.6293877,35.5938073 C28.5493877,36.2758073 27.6413877,37.2388073 26.7183877,37.6098073 C23.7873877,38.7948073 20.6173877,39.2018073 17.5363877,38.9538073 C13.8583877,38.6568073 6.84738774,36.4608073 4.54838774,34.2508073 C0.514387742,30.3698073 -1.24961226,21.6778073 0.965387742,16.1118073 C3.03038774,10.9238073 5.34138774,7.51780733 9.69838774,4.46780733 C12.5103877,2.49980733 13.3673877,1.56480733 17.0883877,0.660807326 C28.3763877,-2.08219267 39.6403877,3.93980733 42.1693877,14.5448073" id="Fill-28" fill="#A48A7B" mask="url(#mask-6)"></path>
                        </g>
                    </g>
                </g>
            </g>
        </g>
    </g>
</svg>