<?xml version="1.0" encoding="utf-8"?>
<!-- Generator: Adobe Illustrator 25.0.1, SVG Export Plug-In . SVG Version: 6.00 Build 0)  -->
<svg version="1.1" id="圖層_1" xmlns="http://www.w3.org/2000/svg" xmlns:xlink="http://www.w3.org/1999/xlink" x="0px" y="0px"
	 viewBox="0 0 38 38" style="enable-background:new 0 0 38 38;" xml:space="preserve">
<style type="text/css">
	.st0{fill:#FFFFFF;}
</style>
<desc>Created with Sketch.</desc>
<g>
	<path class="st0" d="M19,38C8.52,38,0,29.48,0,19S8.52,0,19,0s19,8.52,19,19S29.48,38,19,38z M19,2C9.63,2,2,9.63,2,19
		s7.63,17,17,17s17-7.63,17-17S28.37,2,19,2z"/>
	<g>
		<path class="st0" d="M23.68,9.65l-2.43,0c-2.73,0-4.49,1.81-4.49,4.6v2.12h-2.44c-0.21,0-0.38,0.17-0.38,0.38v3.08
			c0,0.21,0.17,0.38,0.38,0.38h2.44v7.76c0,0.21,0.17,0.38,0.38,0.38h3.18c0.21,0,0.38-0.17,0.38-0.38v-7.76h2.85
			c0.21,0,0.38-0.17,0.38-0.38l0-3.08c0-0.1-0.04-0.2-0.11-0.27c-0.07-0.07-0.17-0.11-0.27-0.11h-2.85v-1.8
			c0-0.87,0.21-1.3,1.33-1.3l1.63,0c0.21,0,0.38-0.17,0.38-0.38v-2.86C24.06,9.82,23.89,9.65,23.68,9.65z"/>
	</g>
</g>
</svg>
