<?xml version="1.0" encoding="UTF-8"?>
<svg width="125px" height="125px" viewBox="0 0 125 125" version="1.1" xmlns="http://www.w3.org/2000/svg" xmlns:xlink="http://www.w3.org/1999/xlink">
    <title>Group 9</title>
    <defs>
        <polygon id="path-1" points="0 114 110 114 110 0 0 0"></polygon>
    </defs>
    <g id="Page-1" stroke="none" stroke-width="1" fill="none" fill-rule="evenodd">
        <g id="棚拍人像花魁-攝影免費學" transform="translate(-390.000000, -6534.000000)">
            <g id="Group-9" transform="translate(390.000000, 6534.000000)">
                <g id="Group-26" transform="translate(8.000000, 5.000000)">
                    <path d="M55,105.555556 C49.2376923,105.555556 43.8053846,103.676667 39.2911538,100.123667 L41.9121154,96.8071111 C45.6732692,99.769 50.1959615,101.333333 55,101.333333 C66.6642308,101.333333 76.1538462,91.8628889 76.1538462,80.2222222 C76.1538462,75.4447778 74.5948077,70.9396667 71.6459615,67.1903333 L74.9713462,64.5852222 C78.5125,69.084 80.3846154,74.4905556 80.3846154,80.2222222 C80.3846154,94.1914444 68.9975,105.555556 55,105.555556" id="Fill-1" fill="#000333"></path>
                    <path d="M68.0889423,63.6364889 C65.9883654,61.9834889 63.6339423,60.7590444 61.0849038,59.9969333 L62.30125,55.9520444 C65.3600962,56.8682667 68.1883654,58.3376 70.7077885,60.3220444 L68.0889423,63.6364889 Z" id="Fill-3" fill="#000333"></path>
                    <path d="M35.0278077,95.8596444 C31.4866538,91.3608667 29.6145385,85.9543111 29.6145385,80.2226444 C29.6145385,66.2534222 41.0016538,54.8893111 54.9991538,54.8893111 C55.6824231,54.8893111 56.3572308,54.9146444 57.0235769,54.9674222 L56.6978077,59.1769778 C56.1372308,59.1347556 55.5703077,59.1115333 54.9991538,59.1115333 C43.3370385,59.1115333 33.8453077,68.5819778 33.8453077,80.2226444 C33.8453077,84.9979778 35.4064615,89.5052 38.3531923,93.2545333 L35.0278077,95.8596444 Z" id="Fill-5" fill="#000333"></path>
                    <path d="M55,50.6666667 C38.6692308,50.6666667 25.3846154,63.9244444 25.3846154,80.2222222 C25.3846154,96.52 38.6692308,109.777778 55,109.777778 C71.3307692,109.777778 84.6153846,96.52 84.6153846,80.2222222 C84.6153846,63.9244444 71.3307692,50.6666667 55,50.6666667 M55,114 C36.3380769,114 21.1538462,98.8464444 21.1538462,80.2222222 C21.1538462,61.598 36.3380769,46.4444444 55,46.4444444 C73.6619231,46.4444444 88.8461538,61.598 88.8461538,80.2222222 C88.8461538,98.8464444 73.6619231,114 55,114" id="Fill-7" fill="#000333"></path>
                    <path d="M101.538462,107.666667 L84.6153846,107.666667 L84.6153846,103.444444 L101.538462,103.444444 C103.871731,103.444444 105.769231,101.550778 105.769231,99.2222222 L105.769231,42.2222222 C105.769231,39.8936667 103.871731,38 101.538462,38 L8.46153846,38 C6.12826923,38 4.23076923,39.8936667 4.23076923,42.2222222 L4.23076923,99.2222222 C4.23076923,101.550778 6.12826923,103.444444 8.46153846,103.444444 L25.3846154,103.444444 L25.3846154,107.666667 L8.46153846,107.666667 C3.795,107.666667 0,103.879333 0,99.2222222 L0,42.2222222 C0,37.5651111 3.795,33.7777778 8.46153846,33.7777778 L101.538462,33.7777778 C106.205,33.7777778 110,37.5651111 110,42.2222222 L110,99.2222222 C110,103.879333 106.205,107.666667 101.538462,107.666667" id="Fill-9" fill="#000333"></path>
                    <path d="M73.2430769,30.1204889 L67.7346154,21.0363778 C66.9730769,19.7823778 65.5853846,18.9991556 64.1151923,18.9991556 L45.8848077,18.9991556 C44.4146154,18.9991556 43.0269231,19.7823778 42.2632692,21.0363778 L36.7569231,30.1204889 L33.1375,27.9354889 L38.6459615,18.8513778 C40.1690385,16.3391556 42.9444231,14.7769333 45.8848077,14.7769333 L64.1151923,14.7769333 C67.0555769,14.7769333 69.8309615,16.3391556 71.3540385,18.8513778 L76.8625,27.9354889 L73.2430769,30.1204889 Z" id="Fill-11" fill="#000333"></path>
                    <mask id="mask-2" fill="white">
                        <use xlink:href="#path-1"></use>
                    </mask>
                    <g id="Clip-14"></g>
                    <polygon id="Fill-13" fill="#000333" mask="url(#mask-2)" points="46.5384615 27.4444444 63.4615385 27.4444444 63.4615385 23.2222222 46.5384615 23.2222222"></polygon>
                    <polygon id="Fill-15" fill="#000333" mask="url(#mask-2)" points="65.5769231 8.44444444 69.8076923 8.44444444 69.8076923 0 65.5769231 0"></polygon>
                    <polygon id="Fill-16" fill="#000333" mask="url(#mask-2)" points="80.3846154 23.2222222 88.8461538 23.2222222 88.8461538 19 80.3846154 19"></polygon>
                    <polygon id="Fill-17" fill="#000333" mask="url(#mask-2)" points="78.4924038 13.3181556 75.50125 10.3330444 82.2768269 3.57115556 85.2679808 6.55626667"></polygon>
                    <path d="M12.6923077,50.6666667 C10.3590385,50.6666667 8.46153846,48.773 8.46153846,46.4444444 C8.46153846,44.1158889 10.3590385,42.2222222 12.6923077,42.2222222 C15.0255769,42.2222222 16.9230769,44.1158889 16.9230769,46.4444444 C16.9230769,48.773 15.0255769,50.6666667 12.6923077,50.6666667" id="Fill-18" fill="#000333" mask="url(#mask-2)"></path>
                    <polygon id="Fill-19" fill="#000333" mask="url(#mask-2)" points="90.9615385 46.4444444 101.538462 46.4444444 101.538462 42.2222222 90.9615385 42.2222222"></polygon>
                    <polygon id="Fill-20" fill="#000333" mask="url(#mask-2)" points="97.3076923 54.8888889 101.538462 54.8888889 101.538462 50.6666667 97.3076923 50.6666667"></polygon>
                    <polygon id="Fill-21" fill="#000333" mask="url(#mask-2)" points="97.3076923 63.3333333 101.538462 63.3333333 101.538462 59.1111111 97.3076923 59.1111111"></polygon>
                    <polygon id="Fill-22" fill="#000333" mask="url(#mask-2)" points="97.3076923 71.7777778 101.538462 71.7777778 101.538462 67.5555556 97.3076923 67.5555556"></polygon>
                    <path d="M27.5,29.5555556 L23.2692308,29.5555556 L23.2692308,25.3333333 L10.5769231,25.3333333 L10.5769231,29.5555556 L6.34615385,29.5555556 L6.34615385,25.3333333 C6.34615385,23.0047778 8.24365385,21.1111111 10.5769231,21.1111111 L23.2692308,21.1111111 C25.6025,21.1111111 27.5,23.0047778 27.5,25.3333333 L27.5,29.5555556 Z" id="Fill-23" fill="#000333" mask="url(#mask-2)"></path>
                    <polygon id="Fill-24" fill="#000333" mask="url(#mask-2)" points="40.4154808 87.2070444 37.4243269 84.2219333 50.7702885 70.9029333 61.7850962 81.8954889 58.7939423 84.8806 50.7702885 76.8731556"></polygon>
                    <polygon id="Fill-25" fill="#000333" mask="url(#mask-2)" points="57.3385577 89.3181556 54.3474038 86.3330444 65.5779808 75.1251556 72.5756731 82.1108222 69.5845192 85.0959333 65.5779808 81.0953778"></polygon>
                </g>
                <rect id="Rectangle-Copy-6" fill="#D8D8D8" opacity="0" x="0" y="0" width="125" height="125"></rect>
            </g>
        </g>
    </g>
</svg>