<?xml version="1.0" encoding="UTF-8"?>
<svg width="125px" height="125px" viewBox="0 0 125 125" version="1.1" xmlns="http://www.w3.org/2000/svg" xmlns:xlink="http://www.w3.org/1999/xlink">
    <title>Group 12</title>
    <defs>
        <polygon id="path-1" points="0 106 110 106 110 0 0 0"></polygon>
    </defs>
    <g id="Page-1" stroke="none" stroke-width="1" fill="none" fill-rule="evenodd">
        <g id="棚拍人像花魁-攝影免費學" transform="translate(-390.000000, -6710.000000)">
            <g id="Group-12" transform="translate(390.000000, 6710.000000)">
                <g id="Group-21" transform="translate(8.000000, 9.000000)">
                    <path d="M104.107143,98.1481481 L90.3571429,98.1481481 L90.3571429,94.2222222 L104.107143,94.2222222 C105.191429,94.2222222 106.071429,93.3428148 106.071429,92.2592593 L106.071429,13.7407407 C106.071429,12.6571852 105.191429,11.7777778 104.107143,11.7777778 L5.89285714,11.7777778 C4.80857143,11.7777778 3.92857143,12.6571852 3.92857143,13.7407407 L3.92857143,92.2592593 C3.92857143,93.3428148 4.80857143,94.2222222 5.89285714,94.2222222 L78.5714286,94.2222222 L78.5714286,98.1481481 L5.89285714,98.1481481 C2.64392857,98.1481481 0,95.506 0,92.2592593 L0,13.7407407 C0,10.494 2.64392857,7.85185185 5.89285714,7.85185185 L104.107143,7.85185185 C107.356071,7.85185185 110,10.494 110,13.7407407 L110,92.2592593 C110,95.506 107.356071,98.1481481 104.107143,98.1481481" id="Fill-1" fill="#000333"></path>
                    <mask id="mask-2" fill="white">
                        <use xlink:href="#path-1"></use>
                    </mask>
                    <g id="Clip-4"></g>
                    <polygon id="Fill-3" fill="#000333" mask="url(#mask-2)" points="11.7857143 3.92592593 53.0357143 3.92592593 53.0357143 0 11.7857143 0"></polygon>
                    <polygon id="Fill-5" fill="#000333" mask="url(#mask-2)" points="56.9642857 3.92592593 60.8928571 3.92592593 60.8928571 0 56.9642857 0"></polygon>
                    <polygon id="Fill-6" fill="#000333" mask="url(#mask-2)" points="64.8214286 3.92592593 68.75 3.92592593 68.75 0 64.8214286 0"></polygon>
                    <polygon id="Fill-7" fill="#000333" mask="url(#mask-2)" points="55 106 58.9285714 106 58.9285714 102.074074 55 102.074074"></polygon>
                    <polygon id="Fill-8" fill="#000333" mask="url(#mask-2)" points="62.8571429 106 98.2142857 106 98.2142857 102.074074 62.8571429 102.074074"></polygon>
                    <polygon id="Fill-9" fill="#000333" mask="url(#mask-2)" points="82.5 98.1481481 86.4285714 98.1481481 86.4285714 94.2222222 82.5 94.2222222"></polygon>
                    <polygon id="Fill-10" fill="#000333" mask="url(#mask-2)" points="23.5714286 90.2962963 27.5 90.2962963 27.5 78.5185185 23.5714286 78.5185185"></polygon>
                    <polygon id="Fill-11" fill="#000333" mask="url(#mask-2)" points="7.85714286 86.3703704 25.5357143 86.3703704 25.5357143 82.4444444 7.85714286 82.4444444"></polygon>
                    <polygon id="Fill-12" fill="#000333" mask="url(#mask-2)" points="31.4285714 86.3703704 102.142857 86.3703704 102.142857 82.4444444 31.4285714 82.4444444"></polygon>
                    <polygon id="Fill-13" fill="#000333" mask="url(#mask-2)" points="7.85714286 29.4444444 11.7857143 29.4444444 11.7857143 25.5185185 7.85714286 25.5185185"></polygon>
                    <polygon id="Fill-14" fill="#000333" mask="url(#mask-2)" points="7.85714286 37.2962963 11.7857143 37.2962963 11.7857143 33.3703704 7.85714286 33.3703704"></polygon>
                    <polygon id="Fill-15" fill="#000333" mask="url(#mask-2)" points="7.85714286 45.1481481 11.7857143 45.1481481 11.7857143 41.2222222 7.85714286 41.2222222"></polygon>
                    <polygon id="Fill-16" fill="#000333" mask="url(#mask-2)" points="7.85714286 53 11.7857143 53 11.7857143 49.0740741 7.85714286 49.0740741"></polygon>
                    <polygon id="Fill-17" fill="#000333" mask="url(#mask-2)" points="7.85714286 60.8518519 11.7857143 60.8518519 11.7857143 56.9259259 7.85714286 56.9259259"></polygon>
                    <path d="M66.7857143,76.5555556 L62.8571429,76.5555556 L62.8571429,64.7777778 C62.8571429,61.531037 60.2132143,58.8888889 56.9642857,58.8888889 L41.25,58.8888889 C38.0010714,58.8888889 35.3571429,61.531037 35.3571429,64.7777778 L35.3571429,76.5555556 L31.4285714,76.5555556 L31.4285714,64.7777778 C31.4285714,59.3658889 35.8344643,54.962963 41.25,54.962963 L56.9642857,54.962963 C62.3798214,54.962963 66.7857143,59.3658889 66.7857143,64.7777778 L66.7857143,76.5555556 Z" id="Fill-18" fill="#000333" mask="url(#mask-2)"></path>
                    <path d="M68.75,19.6296296 L68.75,33.3703704 L74.6428571,33.3703704 L74.6428571,40.174 L83.3603571,33.3703704 L94.2896429,33.3703704 L94.2857143,19.6296296 L68.75,19.6296296 Z M73.6489286,45.1501111 C73.2128571,45.1501111 72.7728571,45.05 72.3623214,44.8517407 C71.3448214,44.3570741 70.7142857,43.3461481 70.7142857,42.2174444 L70.7142857,37.2962963 L68.75,37.2962963 C66.5833929,37.2962963 64.8214286,35.5355185 64.8214286,33.3703704 L64.8214286,19.6296296 C64.8214286,17.4644815 66.5833929,15.7037037 68.75,15.7037037 L94.2857143,15.7037037 C96.4523214,15.7037037 98.2142857,17.4644815 98.2142857,19.6296296 L98.2142857,33.3703704 C98.2142857,35.5355185 96.4523214,37.2962963 94.2857143,37.2962963 L84.7117857,37.2962963 L75.4482143,44.5258889 C74.9217857,44.9381111 74.2873214,45.1501111 73.6489286,45.1501111 L73.6489286,45.1501111 Z" id="Fill-19" fill="#000333" mask="url(#mask-2)"></path>
                    <path d="M49.1071429,27.4814815 C44.7739286,27.4814815 41.25,31.003037 41.25,35.3333333 L41.25,39.2592593 C41.25,43.5895556 44.7739286,47.1111111 49.1071429,47.1111111 C53.4403571,47.1111111 56.9642857,43.5895556 56.9642857,39.2592593 L56.9642857,35.3333333 C56.9642857,31.003037 53.4403571,27.4814815 49.1071429,27.4814815 M49.1071429,51.037037 C42.6073214,51.037037 37.3214286,45.7547037 37.3214286,39.2592593 L37.3214286,35.3333333 C37.3214286,28.8378889 42.6073214,23.5555556 49.1071429,23.5555556 C55.6069643,23.5555556 60.8928571,28.8378889 60.8928571,35.3333333 L60.8928571,39.2592593 C60.8928571,45.7547037 55.6069643,51.037037 49.1071429,51.037037" id="Fill-20" fill="#000333" mask="url(#mask-2)"></path>
                </g>
                <rect id="Rectangle" fill="#D8D8D8" opacity="0" x="0" y="0" width="125" height="125"></rect>
            </g>
        </g>
    </g>
</svg>