<?xml version="1.0" encoding="UTF-8"?>
<svg width="211px" height="35px" viewBox="0 0 211 35" version="1.1" xmlns="http://www.w3.org/2000/svg" xmlns:xlink="http://www.w3.org/1999/xlink">
    <title>phone</title>
    <defs>
        <polygon id="path-1" points="0 34.0122826 211 34.0122826 211 0 0 0"></polygon>
        <polygon id="path-3" points="2.96293512e-14 -3.7036689e-15 8.44416996 -3.7036689e-15 8.44416996 8.86106176 2.96293512e-14 8.86106176"></polygon>
        <polygon id="path-5" points="0 34.0122826 211 34.0122826 211 0 0 0"></polygon>
    </defs>
    <g id="Page-1" stroke="none" stroke-width="1" fill="none" fill-rule="evenodd">
        <g id="Desktop-HD" transform="translate(-644.000000, -11153.000000)">
            <g id="Group-7" transform="translate(376.000000, 11135.000000)">
                <g id="Group" transform="translate(268.000000, 18.000000)">
                    <polygon id="Fill-1" fill="#FFFFFF" points="0 25.4639679 0 32.8646052 1.56373518 32.8646052 1.56373518 30.8849165 1.45948617 27.4436566 3.44021739 32.9698967 4.48270751 32.9698967 6.46343874 27.4436566 6.35918972 30.9891655 6.35918972 32.9698967 7.9229249 32.9698967 7.9229249 25.5682169 5.94219368 25.5682169 4.06571146 30.9891655 2.18922925 25.5682169 2.18922925 25.4639679"></polygon>
                    <g id="Group-22">
                        <path d="M11.0503953,30.2590054 C11.0503953,30.7802505 11.1546443,31.1972465 11.3631423,31.5099936 C11.5716403,31.8227406 11.8843874,31.9280321 12.1971344,31.9280321 C12.5098814,31.9280321 12.8226285,31.8227406 13.0311265,31.5099936 C13.2396245,31.1972465 13.3438735,30.7802505 13.3438735,30.1547564 C13.3438735,29.6335114 13.2396245,29.2165153 13.0311265,29.0080173 C12.8226285,28.8005618 12.5098814,28.5910212 12.1971344,28.5910212 C11.8843874,28.5910212 11.5716403,28.6952703 11.3631423,29.0080173 C11.1546443,29.2165153 11.0503953,29.6335114 11.0503953,30.2590054 M9.59090909,30.1547564 C9.59090909,29.6335114 9.6951581,29.1122663 9.90365613,28.6952703 C10.1121542,28.2793167 10.4249012,27.9655272 10.8418972,27.6527801 C11.2588933,27.3400331 11.6758893,27.3400331 12.1971344,27.3400331 C12.9268775,27.3400331 13.5523715,27.5485311 13.9693676,28.0697762 C14.3863636,28.5910212 14.6991107,29.1122663 14.8033597,29.9462584 L14.8033597,30.3642969 C14.8033597,31.1972465 14.5948617,31.9280321 14.0736166,32.4492772 C13.5523715,32.9705222 12.9268775,33.1779778 12.1971344,33.1779778 C11.4673913,33.1779778 10.7376482,32.9705222 10.3206522,32.4492772 C9.90365613,31.9280321 9.59090909,31.0929975 9.59090909,30.1547564" id="Fill-2" fill="#FFFFFF"></path>
                        <path d="M17.6178745,27.4440736 L17.6178745,28.0706102 C18.0348706,27.5493651 18.5561156,27.3398246 19.1816097,27.3398246 C19.8071038,27.3398246 20.2240998,27.5493651 20.4325978,27.8610697 C20.6410958,28.1738167 20.8495939,28.6950618 20.8495939,29.4248048 L20.8495939,32.9703137 L19.3901077,32.9703137 L19.3901077,29.4248048 C19.3901077,29.1131003 19.2858587,28.9035598 19.1816097,28.6950618 C19.0773607,28.5918552 18.8688626,28.4865637 18.5561156,28.4865637 C18.1391196,28.4865637 17.8263725,28.6950618 17.6178745,29.0078088 L17.6178745,32.8650222 L16.1583883,32.8650222 L16.1583883,27.3398246 L17.6178745,27.3398246 L17.6178745,27.4440736 Z" id="Fill-4" fill="#FFFFFF"></path>
                        <mask id="mask-2" fill="white">
                            <use xlink:href="#path-1"></use>
                        </mask>
                        <g id="Clip-7"></g>
                        <polygon id="Fill-6" fill="#FFFFFF" mask="url(#mask-2)" points="22.6220356 30.3635672 25.4367589 30.3635672 25.4367589 29.2157856 22.6220356 29.2157856"></polygon>
                        <polygon id="Fill-8" fill="#FFFFFF" mask="url(#mask-2)" points="31.6914911 29.9464669 28.7725188 29.9464669 28.7725188 32.9696882 27.2087836 32.9696882 27.2087836 25.5680084 32.0042381 25.5680084 32.0042381 26.8189965 28.7725188 26.8189965 28.7725188 28.6954788 31.6914911 28.6954788"></polygon>
                        <path d="M36.3826966,28.8001448 L35.8614516,28.8001448 C35.3402065,28.8001448 34.9232105,29.0076003 34.8189615,29.3213898 L34.8189615,32.9701052 L33.3594753,32.9701052 L33.3594753,27.4438651 L34.7147125,27.4438651 L34.7147125,28.0704017 C35.0274595,27.5491566 35.4444555,27.3406586 35.9657006,27.3406586 C36.1741986,27.3406586 36.2784476,27.3406586 36.3826966,27.4438651 L36.3826966,28.8001448 Z" id="Fill-9" fill="#FFFFFF" mask="url(#mask-2)"></path>
                        <path d="M37.6338933,32.9697925 L39.0933794,32.9697925 L39.0933794,27.4435524 L37.6338933,27.4435524 L37.6338933,32.9697925 Z M37.5296443,25.9851087 C37.5296443,25.7766107 37.6338933,25.5681126 37.7381423,25.4638636 C37.8423913,25.3596146 38.0508893,25.2553656 38.3636364,25.2553656 C38.5721344,25.2553656 38.7806324,25.3596146 38.9891304,25.4638636 C39.1976285,25.5681126 39.1976285,25.7766107 39.1976285,25.9851087 C39.1976285,26.1936067 39.0933794,26.4021047 38.9891304,26.5063538 C38.8848814,26.6106028 38.6763834,26.7148518 38.3636364,26.7148518 C38.0508893,26.7148518 37.9466403,26.6106028 37.7381423,26.5063538 C37.5296443,26.4021047 37.5296443,26.2978557 37.5296443,25.9851087 L37.5296443,25.9851087 Z" id="Fill-10" fill="#FFFFFF" mask="url(#mask-2)"></path>
                        <path d="M47.4331961,28.3827317 C47.4331961,27.7572376 47.3289471,27.3402416 47.2246981,27.0274946 C47.1204491,26.7147475 46.8077021,26.6104985 46.390706,26.6104985 C46.077959,26.6104985 45.765212,26.7147475 45.6609629,27.0274946 C45.5567139,27.3402416 45.4524649,27.7572376 45.3482159,28.2784827 L45.3482159,30.0507159 C45.3482159,30.67621 45.4524649,31.093206 45.5567139,31.4059531 C45.765212,31.7187001 45.97371,31.8229491 46.390706,31.8229491 C46.7034531,31.8229491 47.0162001,31.7187001 47.1204491,31.4059531 C47.2246981,31.093206 47.3289471,30.67621 47.3289471,30.1549649 L47.3289471,28.3827317 L47.4331961,28.3827317 Z M48.8926823,29.9464669 C48.8926823,30.988957 48.6841843,31.7187001 48.2671882,32.3441942 C47.8501922,32.9696882 47.2246981,33.1781863 46.390706,33.1781863 C45.5567139,33.1781863 44.9312199,32.8654392 44.5142238,32.3441942 C44.0972278,31.8229491 43.8887297,31.093206 43.8887297,30.0507159 L43.8887297,28.5912297 C43.8887297,27.5487396 44.0972278,26.8189965 44.5142238,26.1935025 C44.9312199,25.5680084 45.5567139,25.3595104 46.390706,25.3595104 C47.2246981,25.3595104 47.8501922,25.6722574 48.2671882,26.1935025 C48.6841843,26.7147475 48.8926823,27.4444906 48.8926823,28.4869807 L48.8926823,29.9464669 Z" id="Fill-11" fill="#FFFFFF" mask="url(#mask-2)"></path>
                        <path d="M52.8543533,29.4252218 C53.0628513,29.4252218 53.2713493,29.3209728 53.4798473,29.2167238 C53.6883454,29.1124748 53.7925944,28.9039768 53.8968434,28.7997278 L53.8968434,28.1742337 C53.8968434,27.6529886 53.7925944,27.3402416 53.5840963,27.0274946 C53.3755983,26.7147475 53.1671003,26.6104985 52.8543533,26.6104985 C52.5416062,26.6104985 52.3331082,26.7147475 52.1246102,27.0274946 C51.9161122,27.3402416 51.8118631,27.6529886 51.8118631,28.0699847 C51.8118631,28.4869807 51.9161122,28.7997278 52.1246102,29.1124748 C52.2288592,29.3209728 52.5416062,29.4252218 52.8543533,29.4252218 M53.8968434,29.9464669 C53.4798473,30.3634629 53.0628513,30.467712 52.5416062,30.467712 C51.9161122,30.467712 51.3948671,30.2592139 50.977871,29.8422179 C50.560875,29.4252218 50.352377,28.7997278 50.352377,28.0699847 C50.352377,27.5487396 50.456626,27.1317436 50.665124,26.7147475 C50.873622,26.2977515 51.1863691,25.9850044 51.6033651,25.7765064 C52.0203612,25.5680084 52.4373572,25.4637594 52.8543533,25.4637594 C53.3755983,25.4637594 53.7925944,25.5680084 54.1053414,25.8807554 C54.4180884,26.1935025 54.7308355,26.5062495 54.9393335,26.9232456 C55.1478315,27.3402416 55.2520805,27.8614867 55.2520805,28.4869807 L55.2520805,29.0082258 C55.2520805,30.2592139 54.9393335,31.197455 54.3138394,31.9271981 C53.6883454,32.6569412 52.8543533,32.9696882 51.7076141,33.0739373 L51.3948671,33.0739373 L51.3948671,31.8229491 L51.7076141,31.8229491 C53.0628513,31.7187001 53.7925944,31.093206 53.8968434,29.9464669" id="Fill-12" fill="#FFFFFF" mask="url(#mask-2)"></path>
                        <path d="M57.0243137,32.2401537 C57.0243137,32.0316556 57.1285627,31.8231576 57.2328118,31.7189086 C57.3370608,31.6136171 57.5455588,31.5104106 57.8583058,31.5104106 C58.0668039,31.5104106 58.2753019,31.6136171 58.4837999,31.7189086 C58.6922979,31.8231576 58.6922979,32.0316556 58.6922979,32.2401537 C58.6922979,32.4486517 58.5880489,32.6561072 58.4837999,32.7613987 C58.3795509,32.8656477 58.1710529,32.9698967 57.8583058,32.9698967 C57.6498078,32.9698967 57.4413098,32.8656477 57.2328118,32.7613987 C57.1285627,32.6561072 57.0243137,32.4486517 57.0243137,32.2401537 M57.0243137,28.0701932 C57.0243137,27.8616952 57.1285627,27.6531971 57.2328118,27.5489481 C57.3370608,27.4436566 57.5455588,27.3404501 57.8583058,27.3404501 C58.0668039,27.3404501 58.2753019,27.4436566 58.4837999,27.5489481 C58.6922979,27.6531971 58.6922979,27.8616952 58.6922979,28.0701932 C58.6922979,28.2786912 58.5880489,28.4861467 58.4837999,28.5914382 C58.3795509,28.6956873 58.1710529,28.7999363 57.8583058,28.7999363 C57.6498078,28.7999363 57.4413098,28.6956873 57.2328118,28.5914382 C57.1285627,28.4861467 57.0243137,28.2786912 57.0243137,28.0701932" id="Fill-13" fill="#FFFFFF" mask="url(#mask-2)"></path>
                        <path d="M63.9048528,28.3827317 C63.9048528,27.7572376 63.8006038,27.3402416 63.6963547,27.0274946 C63.5921057,26.7147475 63.2793587,26.6104985 62.8623626,26.6104985 C62.5496156,26.6104985 62.2368686,26.7147475 62.1326196,27.0274946 C62.0283706,27.3402416 61.9241215,27.7572376 61.8198725,28.2784827 L61.8198725,30.0507159 C61.8198725,30.67621 61.9241215,31.093206 62.0283706,31.4059531 C62.2368686,31.7187001 62.4453666,31.8229491 62.8623626,31.8229491 C63.1751097,31.8229491 63.4878567,31.7187001 63.5921057,31.4059531 C63.6963547,31.093206 63.8006038,30.67621 63.8006038,30.1549649 L63.8006038,28.3827317 L63.9048528,28.3827317 Z M65.3643389,29.9464669 C65.3643389,30.988957 65.1558409,31.7187001 64.7388449,32.3441942 C64.3218488,32.9696882 63.6963547,33.1781863 62.8623626,33.1781863 C62.0283706,33.1781863 61.4028765,32.8654392 60.9858804,32.3441942 C60.5688844,31.8229491 60.3603864,31.093206 60.3603864,30.0507159 L60.3603864,28.5912297 C60.3603864,27.5487396 60.5688844,26.8189965 60.9858804,26.1935025 C61.4028765,25.5680084 62.0283706,25.3595104 62.8623626,25.3595104 C63.6963547,25.3595104 64.3218488,25.6722574 64.7388449,26.1935025 C65.1558409,26.7147475 65.3643389,27.4444906 65.3643389,28.4869807 L65.3643389,29.9464669 Z" id="Fill-14" fill="#FFFFFF" mask="url(#mask-2)"></path>
                        <path d="M70.3679788,28.3827317 C70.3679788,27.7572376 70.2637297,27.3402416 70.1594807,27.0274946 C70.0552317,26.7147475 69.7424847,26.6104985 69.3254886,26.6104985 C69.0127416,26.6104985 68.6999946,26.7147475 68.5957456,27.0274946 C68.4914965,27.3402416 68.3872475,27.7572376 68.2829985,28.2784827 L68.2829985,30.0507159 C68.2829985,30.67621 68.3872475,31.093206 68.4914965,31.4059531 C68.6999946,31.7187001 68.9084926,31.8229491 69.3254886,31.8229491 C69.6382357,31.8229491 69.9509827,31.7187001 70.0552317,31.4059531 C70.1594807,31.093206 70.2637297,30.67621 70.2637297,30.1549649 L70.2637297,28.3827317 L70.3679788,28.3827317 Z M71.8274649,29.9464669 C71.8274649,30.988957 71.6189669,31.7187001 71.2019708,32.3441942 C70.7849748,32.9696882 70.1594807,33.1781863 69.3254886,33.1781863 C68.4914965,33.1781863 67.8660025,32.8654392 67.4490064,32.3441942 C67.0320104,31.8229491 66.8235124,31.093206 66.8235124,30.0507159 L66.8235124,28.5912297 C66.8235124,27.5487396 67.0320104,26.8189965 67.4490064,26.1935025 C67.8660025,25.5680084 68.4914965,25.3595104 69.3254886,25.3595104 C70.1594807,25.3595104 70.7849748,25.6722574 71.2019708,26.1935025 C71.6189669,26.7147475 71.8274649,27.4444906 71.8274649,28.4869807 L71.8274649,29.9464669 Z" id="Fill-15" fill="#FFFFFF" mask="url(#mask-2)"></path>
                        <polygon id="Fill-16" fill="#FFFFFF" mask="url(#mask-2)" points="73.4955534 30.3635672 76.3102767 30.3635672 76.3102767 29.2157856 73.4955534 29.2157856"></polygon>
                        <polygon id="Fill-17" fill="#FFFFFF" mask="url(#mask-2)" points="81.5228315 32.9701052 80.0633454 32.9701052 80.0633454 27.3406586 78.2911122 27.8619037 78.2911122 26.7151645 81.3143335 25.5673829 81.5228315 25.5673829"></polygon>
                        <path d="M87.7777722,27.5489481 C87.7777722,27.2362011 87.6735232,27.0277031 87.5692742,26.819205 C87.4650252,26.610707 87.1522782,26.506458 86.9437801,26.506458 C86.6310331,26.506458 86.4225351,26.610707 86.3182861,26.714956 C86.2140371,26.819205 86.109788,27.1319521 86.109788,27.4436566 C86.109788,27.7574461 86.2140371,27.9649017 86.3182861,28.1744422 C86.4225351,28.3829402 86.7352821,28.4861467 86.9437801,28.4861467 C87.1522782,28.4861467 87.4650252,28.3829402 87.5692742,28.1744422 C87.6735232,27.9649017 87.7777722,27.8616952 87.7777722,27.5489481 M87.9862703,30.7806675 C87.9862703,30.4679205 87.8820212,30.1551734 87.6735232,30.0498819 C87.4650252,29.9466754 87.2565272,29.7381774 86.9437801,29.7381774 C86.6310331,29.7381774 86.4225351,29.8424264 86.2140371,30.0498819 C86.005539,30.2594224 85.90129,30.4679205 85.90129,30.7806675 C85.90129,31.092372 86.005539,31.3019125 86.2140371,31.5104106 C86.4225351,31.7189086 86.6310331,31.8231576 86.9437801,31.8231576 C87.2565272,31.8231576 87.4650252,31.7189086 87.6735232,31.5104106 C87.8820212,31.3019125 87.9862703,31.1976635 87.9862703,30.7806675 M89.2372584,27.5489481 C89.2372584,27.8616952 89.1330094,28.2786912 88.9245114,28.4861467 C88.7160133,28.6956873 88.5075153,29.0073918 88.1947683,29.1126833 C88.5075153,29.3211813 88.8202624,29.5286369 89.0287604,29.8424264 C89.2372584,30.1551734 89.3415074,30.4679205 89.3415074,30.8849165 C89.3415074,31.5104106 89.1330094,32.0316556 88.7160133,32.4486517 C88.2990173,32.8656477 87.6735232,32.9698967 86.8395311,32.9698967 C86.005539,32.9698967 85.484294,32.7613987 84.9630489,32.3444027 C84.4418039,31.9274066 84.3375548,31.4061616 84.3375548,30.7806675 C84.3375548,30.3636714 84.4418039,30.0498819 84.6503019,29.7381774 C84.8587999,29.4254303 85.1715469,29.2169323 85.484294,29.0073918 C85.1715469,28.7999363 84.9630489,28.5914382 84.7545509,28.3829402 C84.5460529,28.1744422 84.4418039,27.7574461 84.4418039,27.4436566 C84.4418039,26.819205 84.6503019,26.29796 85.0672979,25.9852129 C85.484294,25.5682169 86.109788,25.4639679 86.7352821,25.4639679 C87.4650252,25.4639679 87.9862703,25.6724659 88.4032663,25.9852129 C89.0287604,26.4011665 89.2372584,26.9224116 89.2372584,27.5489481" id="Fill-18" fill="#FFFFFF" mask="url(#mask-2)"></path>
                        <path d="M91.1134279,32.2401537 C91.1134279,32.0316556 91.2176769,31.8231576 91.3219259,31.7189086 C91.4261749,31.6136171 91.6346729,31.5104106 91.94742,31.5104106 C92.155918,31.5104106 92.364416,31.6136171 92.572914,31.7189086 C92.7814121,31.8231576 92.7814121,32.0316556 92.7814121,32.2401537 C92.7814121,32.4486517 92.677163,32.6561072 92.572914,32.7613987 C92.468665,32.8656477 92.260167,32.9698967 91.94742,32.9698967 C91.7389219,32.9698967 91.5304239,32.8656477 91.3219259,32.7613987 C91.1134279,32.6561072 91.1134279,32.4486517 91.1134279,32.2401537 M91.1134279,28.0701932 C91.1134279,27.8616952 91.2176769,27.6531971 91.3219259,27.5489481 C91.4261749,27.4436566 91.6346729,27.3404501 91.94742,27.3404501 C92.155918,27.3404501 92.364416,27.4436566 92.572914,27.5489481 C92.7814121,27.6531971 92.7814121,27.8616952 92.7814121,28.0701932 C92.7814121,28.2786912 92.677163,28.4861467 92.572914,28.5914382 C92.468665,28.6956873 92.260167,28.7999363 91.94742,28.7999363 C91.7389219,28.7999363 91.5304239,28.6956873 91.3219259,28.5914382 C91.1134279,28.4861467 91.1134279,28.2786912 91.1134279,28.0701932" id="Fill-19" fill="#FFFFFF" mask="url(#mask-2)"></path>
                        <path d="M97.8896136,28.3827317 C97.8896136,27.7572376 97.7853646,27.3402416 97.6811156,27.0274946 C97.5768666,26.7147475 97.2641196,26.6104985 96.8471235,26.6104985 C96.5343765,26.6104985 96.2216294,26.7147475 96.1173804,27.0274946 C96.0131314,27.3402416 95.9088824,27.7572376 95.8046334,28.2784827 L95.8046334,30.0507159 C95.8046334,30.67621 95.9088824,31.093206 96.0131314,31.4059531 C96.2216294,31.7187001 96.4301275,31.8229491 96.8471235,31.8229491 C97.1598706,31.8229491 97.4726176,31.7187001 97.5768666,31.4059531 C97.6811156,31.093206 97.7853646,30.67621 97.7853646,30.1549649 L97.7853646,28.3827317 L97.8896136,28.3827317 Z M99.3490998,29.9464669 C99.3490998,30.988957 99.1406018,31.7187001 98.7236057,32.3441942 C98.3066097,32.9696882 97.6811156,33.1781863 96.8471235,33.1781863 C96.0131314,33.1781863 95.3876374,32.8654392 94.9706413,32.3441942 C94.5536453,31.8229491 94.3451472,31.093206 94.3451472,30.0507159 L94.3451472,28.5912297 C94.3451472,27.5487396 94.5536453,26.8189965 94.9706413,26.1935025 C95.3876374,25.5680084 96.0131314,25.3595104 96.8471235,25.3595104 C97.6811156,25.3595104 98.3066097,25.6722574 98.7236057,26.1935025 C99.1406018,26.7147475 99.3490998,27.4444906 99.3490998,28.4869807 L99.3490998,29.9464669 Z" id="Fill-20" fill="#FFFFFF" mask="url(#mask-2)"></path>
                        <path d="M104.457614,28.3827317 C104.457614,27.7572376 104.353365,27.3402416 104.249116,27.0274946 C104.144867,26.7147475 103.83212,26.6104985 103.415124,26.6104985 C103.102377,26.6104985 102.78963,26.7147475 102.685381,27.0274946 C102.581132,27.3402416 102.476883,27.7572376 102.372634,28.2784827 L102.372634,30.0507159 C102.372634,30.67621 102.476883,31.093206 102.581132,31.4059531 C102.78963,31.7187001 102.998128,31.8229491 103.415124,31.8229491 C103.727871,31.8229491 104.040618,31.7187001 104.144867,31.4059531 C104.249116,31.093206 104.353365,30.67621 104.353365,30.1549649 L104.353365,28.3827317 L104.457614,28.3827317 Z M105.9171,29.9464669 C105.9171,30.988957 105.708602,31.7187001 105.291606,32.3441942 C104.87461,32.9696882 104.249116,33.1781863 103.415124,33.1781863 C102.581132,33.1781863 101.955638,32.8654392 101.538642,32.3441942 C101.121646,31.8229491 100.913148,31.093206 100.913148,30.0507159 L100.913148,28.5912297 C100.913148,27.5487396 101.121646,26.8189965 101.538642,26.1935025 C101.955638,25.5680084 102.581132,25.3595104 103.415124,25.3595104 C104.249116,25.3595104 104.87461,25.6722574 105.291606,26.1935025 C105.708602,26.7147475 105.9171,27.4444906 105.9171,28.4869807 L105.9171,29.9464669 Z" id="Fill-21" fill="#FFFFFF" mask="url(#mask-2)"></path>
                    </g>
                    <polygon id="Fill-23" fill="#FFFFFF" points="113.527174 25.9856299 111.02624 33.1777693 111.963439 33.1777693 114.465415 25.9856299"></polygon>
                    <g id="Group-54">
                        <path d="M126.87063,29.9464669 L125.723891,29.9464669 L125.723891,30.67621 L126.975922,30.67621 L126.975922,29.9464669 L126.87063,29.9464669 Z M126.663175,26.5062495 L126.663175,26.9232456 L127.808872,26.9232456 L127.808872,27.6529886 L126.663175,27.6529886 L126.663175,28.1742337 L127.808872,28.1742337 L127.808872,28.9039768 L126.663175,28.9039768 L126.663175,29.4252218 L127.600374,29.4252218 L127.600374,31.4059531 L124.890942,31.4059531 L124.890942,29.4252218 L125.82814,29.4252218 L125.82814,28.9039768 L124.681401,28.9039768 L124.681401,28.1742337 L125.82814,28.1742337 L125.82814,27.6529886 L124.681401,27.6529886 L124.681401,26.9232456 L125.82814,26.9232456 L125.82814,26.5062495 L126.663175,26.5062495 Z M128.955611,31.7187001 C128.955611,32.2399452 128.642864,32.4484432 128.018412,32.4484432 L126.975922,32.4484432 L126.766381,31.6144511 L127.808872,31.6144511 C128.018412,31.6144511 128.121619,31.5102021 128.121619,31.3017041 L128.121619,26.1935025 L124.578195,26.1935025 L124.578195,28.6954788 C124.578195,30.1549649 124.369697,31.4059531 123.951658,32.3441942 L123.327207,31.7187001 C123.638911,30.884708 123.74316,29.9464669 123.74316,28.6954788 L123.74316,25.4637594 L129.060902,25.4637594 L129.060902,31.7187001 L128.955611,31.7187001 Z M123.014459,26.5062495 L122.493214,27.1317436 C122.179425,26.7147475 121.65818,26.2977515 121.032686,25.7765064 L121.65818,25.2552614 C122.179425,25.6722574 122.596421,26.0892535 123.014459,26.5062495 L123.014459,26.5062495 Z M123.014459,27.4444906 L123.014459,28.1742337 C122.70067,28.6954788 122.387923,29.1124748 121.971969,29.6337199 L123.117666,29.6337199 L123.117666,30.2592139 C123.014459,30.988957 122.805961,31.5102021 122.70067,32.0314471 C122.805961,32.1356961 122.805961,32.1356961 122.909168,32.2399452 C123.221915,32.5526922 123.535705,32.7611902 123.74316,32.8654392 C124.05695,32.9696882 124.369697,33.0739373 124.890942,33.0739373 L126.663175,33.0739373 C127.287626,33.0739373 128.22691,33.0739373 129.2694,32.9696882 L129.060902,33.8036803 L126.766381,33.8036803 L124.890942,33.8036803 C124.264405,33.8036803 123.74316,33.6994313 123.430413,33.5951823 C123.014459,33.4909333 122.70067,33.1781863 122.387923,32.8654392 C122.284716,32.7611902 122.284716,32.7611902 122.179425,32.7611902 C121.971969,32.7611902 121.65818,33.1781863 121.242226,34.0121784 L120.61569,33.3866843 C121.032686,32.5526922 121.450724,32.0314471 121.866678,31.9271981 C122.075176,31.5102021 122.179425,30.988957 122.284716,30.467712 L120.929479,30.467712 L120.929479,29.6337199 C121.345433,29.1124748 121.763471,28.6954788 122.075176,28.1742337 L120.824188,28.1742337 L120.824188,27.3402416 L123.014459,27.3402416 L123.014459,27.4444906 Z" id="Fill-24" fill="#FFFFFF"></path>
                        <path d="M135.315426,33.9077208 L134.377185,33.9077208 L134.377185,29.6335114 C133.646399,31.0929975 132.500703,32.2397367 130.936967,33.1779778 L130.415722,32.3439857 C131.875208,31.6142426 132.917699,30.6760015 133.646399,29.5292624 L131.040174,29.5292624 L131.040174,28.5910212 L134.377185,28.5910212 L134.377185,27.2368266 L130.62422,27.2368266 L130.62422,26.401792 L134.377185,26.401792 L134.377185,25.1518463 L135.315426,25.1518463 L135.315426,26.401792 L138.964141,26.401792 L138.964141,27.2368266 L135.315426,27.2368266 L135.315426,28.5910212 L138.651394,28.5910212 L138.651394,29.4250133 L136.045169,29.4250133 C136.670663,30.4675035 137.713153,31.4067871 139.172639,32.1354876 L138.547145,32.9705222 C136.98341,31.9280321 135.94092,30.7802505 135.315426,29.5292624 L135.315426,33.9077208 Z" id="Fill-26" fill="#FFFFFF"></path>
                        <path d="M141.779073,31.7189086 C141.883322,31.8231576 141.986529,32.0316556 141.986529,32.2401537 C141.986529,32.4486517 141.883322,32.5529007 141.779073,32.7613987 C141.673782,32.8656477 141.465284,32.9698967 141.257828,32.9698967 C141.04933,32.9698967 140.840832,32.8656477 140.736583,32.7613987 C140.631292,32.6561072 140.528085,32.4486517 140.528085,32.2401537 C140.528085,32.0316556 140.631292,31.8231576 140.736583,31.7189086 C140.840832,31.6136171 141.04933,31.5104106 141.257828,31.5104106 C141.465284,31.5104106 141.570575,31.6136171 141.779073,31.7189086" id="Fill-28" fill="#FFFFFF"></path>
                        <g id="Group-32" transform="translate(143.238142, 25.151221)">
                            <mask id="mask-4" fill="white">
                                <use xlink:href="#path-3"></use>
                            </mask>
                            <g id="Clip-31"></g>
                            <path d="M6.46343874,8.65266798 L6.25494071,7.81867589 C6.56768775,7.81867589 6.88043478,7.9229249 7.19318182,7.9229249 C7.40167984,7.9229249 7.50592885,7.81867589 7.50592885,7.61017787 L7.50592885,0.207455534 L8.44416996,0.207455534 L8.44416996,7.81867589 C8.44416996,8.44416996 8.13142292,8.756917 7.50592885,8.756917 L6.46343874,8.756917 L6.46343874,8.65266798 Z M6.1506917,6.67193676 L6.98468379,6.67193676 L6.98468379,0.833992095 L6.1506917,0.833992095 L6.1506917,6.67193676 Z M4.48270751,5.10820158 C4.69120553,4.58695652 4.79545455,3.96146245 4.89970356,3.33492589 L3.85721344,3.33492589 C3.75296443,3.75296443 3.64871542,4.06571146 3.44021739,4.37741601 C3.85721344,4.58695652 4.16996047,4.79545455 4.48270751,5.10820158 L4.48270751,5.10820158 Z M5.83794466,0.521245059 L5.83794466,1.35523715 L4.16996047,1.35523715 C4.16996047,1.77119071 4.06571146,2.08498024 3.96146245,2.50197628 L5.62944664,2.50197628 L5.62944664,3.23171937 C5.3166996,5.83794466 4.3784585,7.61017787 2.81472332,8.65266798 L2.39772727,7.81867589 C3.12747036,7.29743083 3.64871542,6.67193676 4.06571146,5.83794466 C3.75296443,5.52519763 3.44021739,5.21245059 3.02322134,5.00395257 C2.81472332,5.3166996 2.6062253,5.62944664 2.50197628,5.83794466 L2.08498024,5.00395257 C2.81472332,4.06571146 3.23171937,2.91897233 3.33596838,1.35523715 L2.71047431,1.35523715 L2.71047431,0.521245059 L5.83794466,0.521245059 Z M0.312747036,4.69120553 L2.96293512e-14,3.75296443 C0.729743083,2.71047431 1.35523715,1.45948617 1.7722332,-3.7036689e-15 L2.6062253,0.416996047 C2.39772727,1.14673913 2.08498024,1.87648221 1.7722332,2.50197628 L1.7722332,8.86116601 L0.938241107,8.86116601 L0.938241107,4.06571146 C0.729743083,4.16996047 0.521245059,4.37741601 0.312747036,4.69120553 L0.312747036,4.69120553 Z" id="Fill-30" fill="#FFFFFF" mask="url(#mask-4)"></path>
                        </g>
                        <path d="M160.126482,31.4063701 C160.439229,30.989374 160.647727,30.468129 160.751976,29.9468839 L159.605237,29.9468839 C159.605237,30.468129 159.813735,30.989374 160.126482,31.4063701 L160.126482,31.4063701 Z M158.875494,28.3831487 L158.875494,27.5491566 L160.647727,27.5491566 L160.647727,26.2981685 L158.875494,26.2981685 L158.875494,25.4641764 L161.481719,25.4641764 L161.481719,28.3831487 L158.875494,28.3831487 Z M161.585968,29.1128918 L161.585968,29.8426349 C161.37747,30.676627 161.064723,31.4063701 160.647727,32.0318641 C161.064723,32.4488602 161.481719,32.7616072 162.002964,33.0743542 L161.585968,33.8040973 C161.064723,33.4913503 160.543478,33.1775608 160.126482,32.7616072 C159.709486,33.1775608 159.083992,33.5955993 158.458498,33.9073039 L157.937253,33.1775608 C158.562747,32.8648137 159.083992,32.5531092 159.500988,32.1350707 C159.083992,31.5106191 158.875494,30.7798335 158.771245,30.0500904 L158.458498,30.0500904 L158.458498,29.2160983 L161.585968,29.2160983 L161.585968,29.1128918 Z M156.582016,27.5491566 L157.624506,27.5491566 L157.624506,26.2981685 L156.582016,26.2981685 L156.582016,27.5491566 Z M156.582016,31.197872 L158.25,31.197872 L158.25,32.0318641 L156.582016,32.0318641 L156.582016,33.8040973 L155.748024,33.8040973 L155.748024,25.4641764 L158.458498,25.4641764 L158.458498,28.3831487 L156.582016,28.3831487 L156.582016,29.3213898 L158.25,29.3213898 L158.25,30.1553819 L156.582016,30.1553819 L156.582016,31.197872 Z M153.454545,29.8426349 L153.141798,28.9043938 C153.871542,27.8619037 154.392787,26.5066665 154.705534,25.1514293 L155.539526,25.5673829 C155.331028,26.1939195 155.12253,26.8194135 154.914032,27.3406586 L154.914032,33.9073039 L154.08004,33.9073039 L154.08004,29.0076003 C153.871542,29.2160983 153.663043,29.5288454 153.454545,29.8426349 L153.454545,29.8426349 Z" id="Fill-33" fill="#FFFFFF"></path>
                        <mask id="mask-6" fill="white">
                            <use xlink:href="#path-5"></use>
                        </mask>
                        <g id="Clip-36"></g>
                        <path d="M165.338933,32.2400494 L169.613142,32.2400494 L169.613142,29.6338241 L165.338933,29.6338241 L165.338933,32.2400494 Z M165.338933,28.8008745 L169.613142,28.8008745 L169.613142,26.4021047 L165.338933,26.4021047 L165.338933,28.8008745 Z M170.447134,33.8037846 L169.508893,33.8037846 L169.508893,33.1782905 L165.338933,33.1782905 L165.338933,33.8037846 L164.400692,33.8037846 L164.400692,25.4638636 L170.447134,25.4638636 L170.447134,33.8037846 Z" id="Fill-35" fill="#FFFFFF" mask="url(#mask-6)"></path>
                        <path d="M175.555336,28.0700889 L176.389328,28.0700889 L176.389328,27.7573419 L175.555336,27.7573419 L175.555336,28.0700889 Z M175.555336,27.3403458 L176.389328,27.3403458 L176.389328,27.0275988 L175.555336,27.0275988 L175.555336,27.3403458 Z M174.930884,32.7612945 L179.516798,32.7612945 L179.516798,32.2400494 L174.930884,32.2400494 L174.930884,32.7612945 Z M174.930884,31.5103063 L179.516798,31.5103063 L179.516798,30.9890613 L174.930884,30.9890613 L174.930884,31.5103063 Z M180.45504,33.8037846 L179.621047,33.8037846 L179.621047,33.4910375 L175.034091,33.4910375 L175.034091,33.8037846 L174.200099,33.8037846 L174.200099,30.2593182 L180.45504,30.2593182 L180.45504,33.8037846 Z M174.09585,28.0700889 L174.929842,28.0700889 L174.929842,27.7573419 L174.09585,27.7573419 L174.09585,28.0700889 Z M174.09585,27.3403458 L174.929842,27.3403458 L174.929842,27.0275988 L174.09585,27.0275988 L174.09585,27.3403458 Z M174.825593,26.6106028 L174.825593,26.2978557 L173.157609,26.2978557 L173.157609,25.6723617 L174.825593,25.6723617 L174.825593,25.1511166 L175.659585,25.1511166 L175.659585,25.6723617 L177.327569,25.6723617 L177.327569,26.2978557 L175.659585,26.2978557 L175.659585,26.6106028 L177.119071,26.6106028 L177.119071,28.695583 L175.659585,28.695583 L175.659585,29.00833 L177.431818,29.00833 L177.431818,29.6338241 C177.744565,29.1125791 177.848814,28.591334 177.848814,27.8615909 L177.848814,25.8808597 C178.995553,25.8808597 180.038043,25.6723617 180.767787,25.3596146 L181.184783,26.0893577 C180.45504,26.2978557 179.516798,26.5063538 178.682806,26.5063538 L178.682806,27.2360968 L181.393281,27.2360968 L181.393281,28.0700889 L180.45504,28.0700889 L180.45504,30.2593182 L179.621047,30.2593182 L179.621047,28.0700889 L178.578557,28.0700889 C178.578557,29.1125791 178.370059,29.8423221 177.953063,30.3635672 L177.22332,30.0508202 C177.22332,29.9465711 177.327569,29.9465711 177.327569,29.8423221 L175.555336,29.8423221 L175.555336,30.3635672 L174.721344,30.3635672 L174.721344,29.8423221 L172.949111,29.8423221 L172.949111,29.2168281 L174.721344,29.2168281 L174.721344,28.591334 L173.261858,28.591334 L173.261858,26.5063538 L174.825593,26.5063538 L174.825593,26.6106028 Z" id="Fill-37" fill="#FFFFFF" mask="url(#mask-6)"></path>
                        <path d="M186.70998,28.278587 L189.524704,28.278587 L189.524704,27.7573419 L186.70998,27.7573419 L186.70998,28.278587 Z M186.084486,30.7805632 L190.358696,30.7805632 L190.358696,30.0508202 L186.084486,30.0508202 L186.084486,30.7805632 Z M185.877031,28.904081 L190.462945,28.904081 L190.462945,27.0275988 L185.877031,27.0275988 L185.877031,28.904081 Z M188.482213,25.8808597 L191.088439,25.8808597 L191.088439,26.7148518 L185.250494,26.7148518 L185.250494,25.8808597 L187.543972,25.8808597 C187.439723,25.6723617 187.335474,25.4638636 187.335474,25.2553656 L188.273715,25.1511166 C188.377964,25.3596146 188.377964,25.5681126 188.482213,25.8808597 L188.482213,25.8808597 Z M191.192688,31.0933103 L190.671443,31.0933103 L190.671443,31.6145553 L188.690711,31.6145553 L188.690711,32.9697925 C188.690711,33.5952866 188.377964,33.8037846 187.75247,33.8037846 L186.70998,33.8037846 L186.501482,32.9697925 L187.439723,32.9697925 C187.648221,32.9697925 187.75247,32.8655435 187.75247,32.6570455 L187.75247,31.5103063 L185.771739,31.5103063 L185.771739,30.9890613 L185.146245,30.9890613 L185.146245,29.3210771 L191.192688,29.3210771 L191.192688,31.0933103 Z M185.354743,25.4638636 C185.146245,26.1936067 184.937747,26.8191008 184.625,27.4445949 L184.625,33.8037846 L183.686759,33.8037846 L183.686759,28.904081 C183.478261,29.2168281 183.165514,29.5295751 182.957016,29.8423221 L182.644269,28.904081 C183.478261,27.8615909 184.103755,26.6106028 184.520751,25.1511166 L185.354743,25.4638636 Z" id="Fill-38" fill="#FFFFFF" mask="url(#mask-6)"></path>
                        <path d="M199.428568,31.4063701 C199.741315,30.885125 199.949813,30.3638799 200.054062,29.7373434 L198.594576,29.7373434 C198.698825,30.3638799 199.011572,30.885125 199.428568,31.4063701 L199.428568,31.4063701 Z M197.656335,33.0743542 C198.17758,32.7616072 198.594576,32.4488602 198.907323,32.0318641 C198.386078,31.3010786 197.969082,30.5713355 197.759542,29.6341369 L197.656335,29.6341369 L197.656335,33.0743542 Z M197.656335,33.8040973 L196.822343,33.8040973 L196.822343,25.4641764 L200.783805,25.4641764 C200.783805,26.7151645 200.679556,27.4438651 200.575307,27.8619037 C200.471058,28.2788997 200.054062,28.4863552 199.532817,28.4863552 L198.698825,28.4863552 L198.490327,27.7576546 L199.115821,27.7576546 L199.532817,27.7576546 C199.637066,27.7576546 199.741315,27.6523631 199.741315,27.5491566 C199.844522,27.3406586 199.844522,27.0279116 199.844522,26.401375 L197.656335,26.401375 L197.656335,29.0076003 L200.783805,29.0076003 L200.783805,29.7373434 C200.575307,30.676627 200.365767,31.4063701 199.949813,32.1350707 C200.365767,32.5531092 200.783805,32.8648137 201.30505,33.1775608 L200.887012,33.9073039 C200.365767,33.5955993 199.844522,33.2828523 199.532817,32.8648137 C199.115821,33.2828523 198.698825,33.6988058 198.17758,33.9073039 L197.759542,33.1775608 L197.759542,33.8040973 L197.656335,33.8040973 Z M194.00762,29.8426349 L195.362857,29.8426349 L195.362857,28.4863552 L194.00762,28.4863552 L194.00762,29.8426349 Z M194.00762,27.6534056 L195.362857,27.6534056 L195.362857,26.2981685 L194.00762,26.2981685 L194.00762,27.6534056 Z M193.382125,33.8040973 L192.756631,33.1775608 C193.173627,32.3435687 193.277876,31.3010786 193.277876,30.0500904 L193.277876,25.4641764 L196.195806,25.4641764 L196.195806,32.7616072 C196.195806,33.3860588 195.884102,33.6988058 195.362857,33.6988058 L194.528865,33.6988058 L194.320367,32.8648137 L195.05011,32.8648137 C195.258608,32.8648137 195.362857,32.6563157 195.362857,32.3435687 L195.362857,30.676627 L194.00762,30.676627 C194.00762,31.9276151 193.694873,32.9701052 193.382125,33.8040973 L193.382125,33.8040973 Z" id="Fill-39" fill="#FFFFFF" mask="url(#mask-6)"></path>
                        <path d="M208.289734,25.2552614 C208.184443,25.4637594 208.184443,25.6722574 208.081236,25.8807554 L210.790668,25.8807554 L210.790668,26.7147475 L210.166216,26.7147475 C209.957718,27.3402416 209.644971,27.8614867 209.332224,28.1742337 C209.853469,28.3827317 210.374714,28.5912297 211.000208,28.7997278 L210.478963,29.5294708 C209.748178,29.3209728 209.226933,29.0082258 208.705688,28.6954788 C208.289734,29.0082258 207.663198,29.2167238 207.038746,29.5294708 L206.517501,28.9039768 C207.141953,28.6954788 207.559991,28.4869807 207.976987,28.2784827 C207.663198,28.0699847 207.455742,27.7572376 207.247244,27.4444906 L207.872738,27.1317436 C208.081236,27.3402416 208.289734,27.6529886 208.602481,27.7572376 C208.915228,27.4444906 209.123726,27.1317436 209.332224,26.7147475 L207.663198,26.7147475 C207.351493,27.1317436 207.038746,27.5487396 206.620708,27.8614867 L206.099462,27.2359926 C206.725999,26.7147475 207.247244,25.9850044 207.455742,25.1510124 L208.289734,25.2552614 Z M210.583212,32.7611902 C210.478963,33.3866843 210.061967,33.6994313 209.226933,33.6994313 L208.393983,33.6994313 L208.184443,32.9696882 L209.123726,32.9696882 C209.540722,32.9696882 209.748178,32.7611902 209.853469,32.4484432 C209.853469,32.2399452 209.957718,31.7187001 209.957718,30.780459 L208.705688,30.780459 C208.602481,31.3017041 208.393983,31.8229491 208.289734,32.1356961 C207.872738,32.7611902 207.247244,33.3866843 206.309003,33.8036803 L205.787758,33.0739373 C206.620708,32.6569412 207.141953,32.2399452 207.559991,31.7187001 C207.663198,31.5102021 207.872738,31.197455 207.976987,30.780459 L206.620708,30.780459 L206.620708,29.9464669 L208.184443,29.9464669 C208.184443,29.7379689 208.184443,29.4252218 208.289734,29.2167238 L209.123726,29.2167238 L209.019477,29.9464669 L210.895959,29.9464669 C210.687461,31.5102021 210.583212,32.4484432 210.583212,32.7611902 L210.583212,32.7611902 Z M204.432521,27.2359926 C204.745268,26.9232456 204.953766,26.6104985 205.266513,26.2977515 L202.764537,26.2977515 L202.764537,25.4637594 L206.204754,25.4637594 L206.204754,26.1935025 C205.787758,26.8189965 205.370762,27.3402416 204.953766,27.7572376 C205.056972,27.8614867 205.266513,27.9657357 205.370762,28.1742337 L205.162264,28.3827317 L206.517501,28.3827317 L206.517501,29.1124748 C206.309003,29.7379689 205.996256,30.3634629 205.683509,30.780459 L205.162264,30.2592139 C205.370762,29.9464669 205.475011,29.5294708 205.683509,29.1124748 L204.953766,29.1124748 L204.953766,32.8654392 C204.953766,33.3866843 204.641019,33.6994313 204.119774,33.6994313 L203.285782,33.6994313 L203.077284,32.9696882 C203.390031,32.9696882 203.598529,33.0739373 203.807027,33.0739373 C204.014482,33.0739373 204.119774,32.9696882 204.119774,32.7611902 L204.119774,29.5294708 C203.807027,30.67621 203.285782,31.6144511 202.764537,32.5526922 L202.450747,31.7187001 C202.971992,30.988957 203.390031,30.1549649 203.702778,29.2167238 L202.556039,29.2167238 L202.556039,28.3827317 L204.432521,28.3827317 C204.014482,27.9657357 203.598529,27.5487396 202.971992,27.1317436 L203.493237,26.6104985 C203.911276,26.8189965 204.119774,27.0274946 204.432521,27.2359926 L204.432521,27.2359926 Z" id="Fill-40" fill="#FFFFFF" mask="url(#mask-6)"></path>
                        <path d="M1.64150494,0.965450099 L5.7072164,0.0272089921 C6.12421245,-0.0770400198 6.64545751,0.131458004 6.74970652,0.548454051 L8.62618874,5.03011907 C8.83468676,5.44815761 8.73043775,5.86515366 8.3134417,6.17790069 L5.91571443,8.15758943 C7.37520059,11.1818533 11.7943162,18.3135282 12.9003982,15.1433157 L14.8811294,12.7455884 C15.1938765,12.4328414 15.6108725,12.3275499 16.0278686,12.4328414 L20.5105761,14.3093236 C20.9275721,14.5178216 21.1360702,14.9337752 21.0318211,15.3518137 L20.09358,19.4175252 C19.989331,19.8345212 19.572335,20.1462258 19.1553389,20.1462258 C9.04318478,20.1462258 0.807512846,11.9115963 0.807512846,1.79944219 C0.807512846,1.48669516 1.12025988,1.06969911 1.64150494,0.965450099" id="Fill-41" fill="#FFFFFF" mask="url(#mask-6)"></path>
                        <path d="M35.1320212,8.57541947 C35.1320212,7.01168429 34.9235232,5.86494516 34.5065272,5.13520208 C34.0895311,4.40545899 33.4640371,4.09271196 32.5257959,4.09271196 C31.6918039,4.09271196 30.9620608,4.40545899 30.5450647,5.13520208 C30.1280687,5.76069615 29.9195707,6.90743528 29.9195707,8.26267243 L29.9195707,12.849629 C29.9195707,14.4133641 30.1280687,15.5601033 30.5450647,16.2898463 C30.9620608,17.0195894 31.5875548,17.4365855 32.5257959,17.4365855 C33.4640371,17.4365855 34.0895311,17.1238384 34.5065272,16.3940954 C34.9235232,15.6643523 35.1320212,14.6218622 35.1320212,13.058127 L35.1320212,8.57541947 Z M38.7807367,12.3283839 C38.7807367,14.9346092 38.2594916,16.9153404 37.2170015,18.2705776 C36.1745114,19.6258147 34.6107762,20.3555578 32.5257959,20.3555578 C30.4408157,20.3555578 28.8770805,19.7300637 27.8345904,18.3748266 C26.7921003,17.0195894 26.1666062,15.0388582 26.1666062,12.5368819 L26.1666062,9.09666453 C26.1666062,6.49043923 26.6878513,4.509708 27.8345904,3.15447085 C28.8770805,1.7992337 30.5450647,1.06949061 32.5257959,1.06949061 C34.5065272,1.06949061 36.1745114,1.69498468 37.2170015,3.05022184 C38.2594916,4.40545899 38.8849857,6.38619022 38.8849857,8.8881665 L38.8849857,12.3283839 L38.7807367,12.3283839 Z" id="Fill-42" fill="#FFFFFF" mask="url(#mask-6)"></path>
                        <path d="M50.9775583,6.49043923 C50.9775583,5.76069615 50.7690603,5.13520208 50.3520642,4.71820603 C49.9350682,4.30120998 49.4138231,4.09271196 48.68408,4.09271196 C47.954337,4.09271196 47.4330919,4.30120998 47.0160958,4.71820603 C46.5990998,5.13520208 46.3906018,5.76069615 46.3906018,6.49043923 C46.3906018,7.22018231 46.5990998,7.84567638 47.0160958,8.26267243 C47.4330919,8.67966848 47.954337,8.99241551 48.68408,8.99241551 C49.4138231,8.99241551 49.9350682,8.78391749 50.3520642,8.26267243 C50.7690603,7.84567638 50.9775583,7.22018231 50.9775583,6.49043923 M51.2903053,14.7261112 C51.2903053,13.8921191 51.0818073,13.266625 50.5605623,12.7453799 C50.0393172,12.2241349 49.4138231,12.0156369 48.68408,12.0156369 C47.8500879,12.0156369 47.2245939,12.2241349 46.8075978,12.7453799 C46.3906018,13.266625 46.0778547,13.8921191 46.0778547,14.7261112 C46.0778547,15.5601033 46.2863528,16.1855973 46.8075978,16.7068424 C47.2245939,17.2280875 47.954337,17.4365855 48.7883291,17.4365855 C49.6223211,17.4365855 50.2478152,17.2280875 50.6648113,16.7068424 C51.0818073,16.1855973 51.2903053,15.5601033 51.2903053,14.7261112 M54.6262737,6.28194121 C54.6262737,7.22018231 54.4177757,8.05417441 53.8965306,8.67966848 C53.3752856,9.30516255 52.8540405,9.93065662 52.0200484,10.3476527 C52.9582895,10.7646487 53.6880326,11.3901428 54.2092777,12.1198859 C54.7305227,12.849629 55.0432698,13.7878701 55.0432698,14.8303602 C55.0432698,16.4983444 54.5220247,17.8535815 53.3752856,18.7918226 C52.2285464,19.7300637 50.6648113,20.2513088 48.68408,20.2513088 C46.7033488,20.2513088 45.1396136,19.7300637 43.9928745,18.7918226 C42.8461354,17.8535815 42.3248903,16.4983444 42.3248903,14.8303602 C42.3248903,13.7878701 42.6376374,12.849629 43.1588824,12.1198859 C43.6801275,11.3901428 44.4098706,10.7646487 45.3481117,10.3476527 C44.5141196,9.93065662 43.8886255,9.40941156 43.4716294,8.67966848 C43.0546334,7.9499254 42.7418864,7.1159333 42.7418864,6.28194121 C42.7418864,4.71820603 43.2631314,3.36296887 44.3056215,2.42472777 C45.3481117,1.48648666 46.8075978,0.965241601 48.68408,0.965241601 C50.5605623,0.965241601 51.9157994,1.48648666 53.0625385,2.42472777 C54.1050287,3.46721789 54.6262737,4.71820603 54.6262737,6.28194121" id="Fill-43" fill="#FFFFFF" mask="url(#mask-6)"></path>
                        <path d="M67.5535682,8.57541947 C67.5535682,7.01168429 67.3450702,5.86494516 66.9280741,5.13520208 C66.5110781,4.40545899 65.885584,4.09271196 64.9473429,4.09271196 C64.1133508,4.09271196 63.3836077,4.40545899 62.9666117,5.13520208 C62.5496156,5.76069615 62.3411176,6.90743528 62.3411176,8.26267243 L62.3411176,12.849629 C62.3411176,14.4133641 62.5496156,15.5601033 62.9666117,16.2898463 C63.3836077,17.0195894 64.0091018,17.4365855 64.9473429,17.4365855 C65.885584,17.4365855 66.5110781,17.1238384 66.9280741,16.3940954 C67.3450702,15.6643523 67.5535682,14.6218622 67.5535682,13.058127 L67.5535682,8.57541947 Z M71.3065326,12.3283839 C71.3065326,14.9346092 70.7852875,16.9153404 69.7427974,18.2705776 C68.7003073,19.6258147 67.1365721,20.3555578 65.0515919,20.3555578 C62.9666117,20.3555578 61.4028765,19.7300637 60.3603864,18.3748266 C59.3178962,17.0195894 58.6924022,15.0388582 58.6924022,12.5368819 L58.6924022,9.09666453 C58.6924022,6.49043923 59.2136472,4.509708 60.3603864,3.15447085 C61.4028765,1.7992337 63.0708607,1.06949061 65.0515919,1.06949061 C67.0323231,1.06949061 68.7003073,1.69498468 69.7427974,3.05022184 C70.7852875,4.40545899 71.4107816,6.38619022 71.4107816,8.8881665 L71.4107816,12.3283839 L71.3065326,12.3283839 Z" id="Fill-44" fill="#FFFFFF" mask="url(#mask-6)"></path>
                        <path d="M83.815997,8.57541947 C83.815997,7.01168429 83.607499,5.86494516 83.190503,5.13520208 C82.7735069,4.40545899 82.1480128,4.09271196 81.2097717,4.09271196 C80.3757796,4.09271196 79.6460366,4.40545899 79.2290405,5.13520208 C78.8120445,5.76069615 78.6035464,6.90743528 78.6035464,8.26267243 L78.6035464,12.849629 C78.6035464,14.4133641 78.8120445,15.5601033 79.2290405,16.2898463 C79.6460366,17.0195894 80.2715306,17.4365855 81.2097717,17.4365855 C82.1480128,17.4365855 82.7735069,17.1238384 83.190503,16.3940954 C83.607499,15.6643523 83.815997,14.6218622 83.815997,13.058127 L83.815997,8.57541947 Z M87.5689615,12.3283839 C87.5689615,14.9346092 87.0477164,16.9153404 86.0052263,18.2705776 C84.9627362,19.6258147 83.399001,20.3555578 81.3140208,20.3555578 C79.2290405,20.3555578 77.6653053,19.7300637 76.6228152,18.3748266 C75.5803251,17.0195894 74.954831,15.0388582 74.954831,12.5368819 L74.954831,9.09666453 C74.954831,6.49043923 75.4760761,4.509708 76.6228152,3.15447085 C77.6653053,1.7992337 79.3332895,1.06949061 81.3140208,1.06949061 C83.294752,1.06949061 84.9627362,1.69498468 86.0052263,3.05022184 C87.0477164,4.40545899 87.6732105,6.38619022 87.6732105,8.8881665 L87.6732105,12.3283839 L87.5689615,12.3283839 Z" id="Fill-45" fill="#FFFFFF" mask="url(#mask-6)"></path>
                        <polygon id="Fill-46" fill="#FFFFFF" mask="url(#mask-6)" points="91.3221344 13.5794763 98.6195652 13.5794763 98.6195652 10.5572974 91.3221344 10.5572974"></polygon>
                        <path d="M111.025615,6.49043923 C111.025615,5.76069615 110.817117,5.13520208 110.399078,4.71820603 C109.983125,4.30120998 109.461879,4.09271196 108.732136,4.09271196 C108.002393,4.09271196 107.481148,4.30120998 107.06311,4.71820603 C106.647156,5.13520208 106.438658,5.76069615 106.438658,6.49043923 C106.438658,7.22018231 106.647156,7.84567638 107.06311,8.26267243 C107.481148,8.67966848 108.002393,8.99241551 108.732136,8.99241551 C109.461879,8.99241551 109.983125,8.78391749 110.399078,8.26267243 C110.817117,7.84567638 111.025615,7.22018231 111.025615,6.49043923 M111.441568,14.7261112 C111.441568,13.8921191 111.23307,13.266625 110.711825,12.7453799 C110.19058,12.2241349 109.566128,12.0156369 108.835343,12.0156369 C108.002393,12.0156369 107.376899,12.2241349 106.959903,12.7453799 C106.542907,13.266625 106.229118,13.8921191 106.229118,14.7261112 C106.229118,15.5601033 106.438658,16.1855973 106.959903,16.7068424 C107.376899,17.2280875 108.1056,17.4365855 108.940634,17.4365855 C109.774626,17.4365855 110.399078,17.2280875 110.817117,16.7068424 C111.129864,16.1855973 111.441568,15.5601033 111.441568,14.7261112 M114.778579,6.28194121 C114.778579,7.22018231 114.569039,8.05417441 114.047793,8.67966848 C113.63184,9.40941156 113.005303,9.93065662 112.172354,10.3476527 C113.110595,10.7646487 113.839295,11.3901428 114.360541,12.1198859 C114.881786,12.849629 115.195575,13.7878701 115.195575,14.8303602 C115.195575,16.4983444 114.67433,17.8535815 113.526548,18.7918226 C112.380852,19.7300637 110.817117,20.2513088 108.835343,20.2513088 C106.855654,20.2513088 105.291919,19.7300637 104.144137,18.7918226 C102.998441,17.8535815 102.477196,16.4983444 102.477196,14.8303602 C102.477196,13.7878701 102.789943,12.849629 103.311188,12.1198859 C103.832433,11.3901428 104.562176,10.7646487 105.500417,10.3476527 C104.665382,9.93065662 104.040931,9.40941156 103.622892,8.67966848 C103.206939,7.9499254 102.894192,7.1159333 102.894192,6.28194121 C102.894192,4.71820603 103.415437,3.36296887 104.457927,2.42472777 C105.500417,1.48648666 106.959903,0.965241601 108.835343,0.965241601 C110.711825,0.965241601 112.068105,1.48648666 113.214844,2.42472777 C114.257334,3.46721789 114.778579,4.71820603 114.778579,6.28194121" id="Fill-47" fill="#FFFFFF" mask="url(#mask-6)"></path>
                        <path d="M127.288043,6.49043923 C127.288043,5.76069615 127.079545,5.13520208 126.662549,4.71820603 C126.245553,4.30120998 125.724308,4.09271196 124.994565,4.09271196 C124.264822,4.09271196 123.743577,4.30120998 123.326581,4.71820603 C122.909585,5.13520208 122.701087,5.76069615 122.701087,6.49043923 C122.701087,7.22018231 122.909585,7.84567638 123.326581,8.26267243 C123.743577,8.67966848 124.264822,8.99241551 124.994565,8.99241551 C125.724308,8.99241551 126.245553,8.78391749 126.662549,8.26267243 C127.079545,7.84567638 127.288043,7.22018231 127.288043,6.49043923 M127.600791,14.7261112 C127.600791,13.8921191 127.392292,13.266625 126.871047,12.7453799 C126.349802,12.2241349 125.724308,12.0156369 124.994565,12.0156369 C124.160573,12.0156369 123.535079,12.2241349 123.118083,12.7453799 C122.596838,13.266625 122.38834,13.8921191 122.38834,14.7261112 C122.38834,15.5601033 122.596838,16.1855973 123.118083,16.7068424 C123.535079,17.2280875 124.264822,17.4365855 125.098814,17.4365855 C125.932806,17.4365855 126.5583,17.2280875 126.975296,16.7068424 C127.392292,16.1855973 127.600791,15.5601033 127.600791,14.7261112 M130.936759,6.28194121 C130.936759,7.22018231 130.728261,8.05417441 130.207016,8.67966848 C129.79002,9.40941156 129.164526,9.93065662 128.330534,10.3476527 C129.268775,10.7646487 129.998518,11.3901428 130.519763,12.1198859 C131.041008,12.849629 131.353755,13.7878701 131.353755,14.8303602 C131.353755,16.4983444 130.83251,17.8535815 129.685771,18.7918226 C128.539032,19.7300637 126.975296,20.2513088 124.994565,20.2513088 C123.013834,20.2513088 121.450099,19.7300637 120.30336,18.7918226 C119.156621,17.8535815 118.635375,16.4983444 118.635375,14.8303602 C118.635375,13.7878701 118.948123,12.849629 119.469368,12.1198859 C119.990613,11.3901428 120.720356,10.7646487 121.658597,10.3476527 C120.824605,9.93065662 120.199111,9.40941156 119.782115,8.67966848 C119.365119,7.9499254 119.052372,7.1159333 119.052372,6.28194121 C119.052372,4.71820603 119.573617,3.36296887 120.616107,2.42472777 C121.658597,1.48648666 123.118083,0.965241601 124.994565,0.965241601 C126.871047,0.965241601 128.226285,1.48648666 129.373024,2.42472777 C130.415514,3.46721789 130.936759,4.71820603 130.936759,6.28194121" id="Fill-48" fill="#FFFFFF" mask="url(#mask-6)"></path>
                        <path d="M135.524132,10.8691062 L136.566623,1.27819713 L147.095773,1.27819713 L147.095773,4.40566749 L139.588801,4.40566749 L139.172848,8.47137895 C140.110046,7.95013389 141.04933,7.74163587 141.986529,7.74163587 C143.758762,7.74163587 145.219291,8.26288093 146.156489,9.40962006 C147.198979,10.5563592 147.720224,12.1200944 147.720224,14.1008256 C147.720224,15.3518137 147.512769,16.3943039 146.991524,17.332545 C146.470279,18.2707861 145.740536,19.0005292 144.801252,19.5217742 C143.864053,20.0430193 142.716272,20.3557663 141.465284,20.3557663 C140.319587,20.3557663 139.277097,20.1462258 138.337813,19.6249807 C137.400615,19.2090272 136.566623,18.4792841 136.045377,17.645292 C135.524132,16.8112999 135.210343,15.8730588 135.107136,14.8305687 L138.755852,14.8305687 C138.859058,15.6645608 139.067556,16.1858058 139.588801,16.7070509 C140.110046,17.1240469 140.631292,17.3315025 141.465284,17.3315025 C142.300318,17.3315025 142.925812,17.0187554 143.447057,16.3943039 C143.864053,15.7677673 144.1768,14.9337752 144.1768,13.7880786 C144.1768,12.7455884 143.864053,11.9115963 143.342808,11.2850598 C142.821563,10.7638147 142.09182,10.4521102 141.152537,10.4521102 C140.215338,10.4521102 139.588801,10.6606082 138.96435,11.1818533 L138.651603,11.4946003 L135.524132,10.8691062 Z" id="Fill-49" fill="#FFFFFF" mask="url(#mask-6)"></path>
                        <polygon id="Fill-50" fill="#FFFFFF" mask="url(#mask-6)" points="151.369565 13.5794763 158.666996 13.5794763 158.666996 10.5572974 151.369565 10.5572974"></polygon>
                        <path d="M175.451295,20.1466428 L162.524418,20.1466428 L162.524418,17.5404175 L168.569818,11.0780212 C169.404853,10.1387376 170.030347,9.40899457 170.447343,8.67925148 C170.864339,7.95055089 171.072837,7.32401433 171.072837,6.69956275 C171.072837,5.86557065 170.864339,5.23903409 170.447343,4.71778903 C170.030347,4.19654397 169.404853,3.98804595 168.67511,3.98804595 C167.841118,3.98804595 167.215624,4.30183547 166.694378,4.82308053 C166.173133,5.34432559 165.963593,6.17831769 165.963593,7.1155163 L162.211671,7.1155163 C162.211671,5.96877717 162.524418,4.92628706 163.045663,3.98804595 C163.566908,3.05084733 164.399858,2.32006176 165.339141,1.7988167 C166.277382,1.27757164 167.424122,0.965867095 168.779359,0.965867095 C170.76009,0.965867095 172.218534,1.38182065 173.261024,2.32006176 C174.303514,3.25934536 174.824759,4.61458251 174.824759,6.28152421 C174.824759,7.22080781 174.617303,8.15800642 174.096058,9.09624753 C173.574813,10.0355311 172.739779,11.1812278 171.594082,12.4332584 L167.319873,16.9149234 L175.451295,16.9149234 L175.451295,20.1466428 Z" id="Fill-51" fill="#FFFFFF" mask="url(#mask-6)"></path>
                        <path d="M191.713724,20.1466428 L178.787889,20.1466428 L178.787889,17.5404175 L184.83329,11.0780212 C185.667282,10.1387376 186.292776,9.40899457 186.709772,8.67925148 C187.12781,7.95055089 187.335266,7.32401433 187.335266,6.69956275 C187.335266,5.86557065 187.12781,5.23903409 186.709772,4.71778903 C186.292776,4.19654397 185.667282,3.98804595 184.937539,3.98804595 C184.103546,3.98804595 183.479095,4.30183547 182.95785,4.82308053 C182.436605,5.34432559 182.227064,6.17831769 182.227064,7.1155163 L178.4741,7.1155163 C178.4741,5.96877717 178.787889,4.92628706 179.309134,3.98804595 C179.830379,3.05084733 180.663329,2.32006176 181.60157,1.7988167 C182.539811,1.27757164 183.68655,0.965867095 185.04283,0.965867095 C187.022519,0.965867095 188.482005,1.38182065 189.524495,2.32006176 C190.566985,3.25934536 191.08823,4.61458251 191.08823,6.28152421 C191.08823,7.22080781 190.879732,8.15800642 190.358487,9.09624753 C189.837242,10.0355311 189.00325,11.1812278 187.856511,12.4332584 L183.582301,16.9149234 L191.713724,16.9149234 L191.713724,20.1466428 Z" id="Fill-52" fill="#FFFFFF" mask="url(#mask-6)"></path>
                        <path d="M208.706105,20.1466428 L195.78027,20.1466428 L195.78027,17.5404175 L201.82567,11.0780212 C202.659662,10.1387376 203.286199,9.40899457 203.702152,8.67925148 C204.120191,7.95055089 204.328689,7.32401433 204.328689,6.69956275 C204.328689,5.86557065 204.120191,5.23903409 203.702152,4.71778903 C203.286199,4.19654397 202.659662,3.98804595 201.929919,3.98804595 C201.095927,3.98804595 200.471475,4.30183547 199.95023,4.82308053 C199.428985,5.34432559 199.219445,6.17831769 199.219445,7.1155163 L195.467523,7.1155163 C195.467523,5.96877717 195.78027,4.92628706 196.301515,3.98804595 C196.82276,3.05084733 197.655709,2.32006176 198.594993,1.7988167 C199.532192,1.27757164 200.679973,0.965867095 202.03521,0.965867095 C204.014899,0.965867095 205.474385,1.38182065 206.516875,2.32006176 C207.559366,3.25934536 208.080611,4.61458251 208.080611,6.28152421 C208.080611,7.22080781 207.872113,8.15800642 207.350868,9.09624753 C206.829623,10.0355311 205.99563,11.1812278 204.849934,12.4332584 L200.574682,16.9149234 L208.706105,16.9149234 L208.706105,20.1466428 Z" id="Fill-53" fill="#FFFFFF" mask="url(#mask-6)"></path>
                    </g>
                </g>
            </g>
        </g>
    </g>
</svg>