<?xml version="1.0" encoding="utf-8"?>
<!-- Generator: Adobe Illustrator 25.0.1, SVG Export Plug-In . SVG Version: 6.00 Build 0)  -->
<svg version="1.1" id="圖層_1" xmlns="http://www.w3.org/2000/svg" xmlns:xlink="http://www.w3.org/1999/xlink" x="0px" y="0px"
	 viewBox="0 0 38 38" style="enable-background:new 0 0 38 38;" xml:space="preserve">
<style type="text/css">
	.st0{fill:#FFFFFF;}
	.st1{fill-rule:evenodd;clip-rule:evenodd;fill:#FFFFFF;}
</style>
<desc>Created with Sketch.</desc>
<g id="群組-12-copy" transform="translate(1.000000, 1.000000)">
	<path class="st0" d="M18,37C7.52,37-1,28.48-1,18S7.52-1,18-1s19,8.52,19,19S28.48,37,18,37z M18,1C8.63,1,1,8.63,1,18
		s7.63,17,17,17s17-7.63,17-17S27.37,1,18,1z"/>
	<path id="_xE008_" class="st1" d="M25.54,12.47c0.34,0.25,0.61,0.63,0.8,1.15c0.19,0.52,0.34,1.08,0.44,1.67
		c0.1,0.59,0.16,1.16,0.18,1.71s0.04,0.95,0.05,1.22C27,18.56,26.98,19,26.95,19.54s-0.09,1.08-0.19,1.63
		c-0.1,0.55-0.25,1.07-0.44,1.55c-0.19,0.48-0.45,0.84-0.78,1.09c-0.13,0.08-0.33,0.17-0.59,0.26c-0.26,0.09-0.67,0.18-1.23,0.26
		c-0.56,0.08-1.29,0.15-2.21,0.2s-2.09,0.08-3.51,0.08c-3.06,0-5-0.1-5.84-0.29s-1.32-0.33-1.48-0.41c-0.38-0.23-0.67-0.61-0.9-1.12
		s-0.39-1.06-0.51-1.64s-0.19-1.14-0.23-1.69s-0.06-0.95-0.07-1.22C8.98,18.03,9,17.65,9.03,170s0.1-1.14,0.22-1.76
		s0.29-1.22,0.52-1.78c0.23-0.57,0.54-0.96,0.92-1.19c0.14-0.09,0.63-0.24,1.46-0.43s2.78-0.29,5.84-0.29
		c1.42,0,2.59,0.03,3.51,0.08c0.92,0.05,1.66,0.12,2.21,0.2c0.55,0.08,0.97,0.17,1.23,0.26C25.2,12.28,25.41,12.38,25.54,12.47z
		 M21.66,17.69c0.09,0.05,0.16,0.11,0.21,0.2s0.07,0.18,0.07,0.27c0,0.11-0.02,0.2-0.07,0.28s-0.12,0.15-0.21,0.21l-5.06,3.09
		c-0.04,0.04-0.08,0.06-0.13,0.07s-0.1,0.02-0.15,0.02s-0.09-0.01-0.14-0.02s-0.09-0.03-0.14-0.05c-0.08-0.05-0.15-0.11-0.2-0.2
		s-0.08-0.18-0.08-0.29v-6.21c0-0.11,0.03-0.2,0.08-0.29s0.12-0.16,0.2-0.2c0.09-0.06,0.19-0.08,0.29-0.08
		c0.1,0,0.19,0.03,0.27,0.08L21.66,17.69z"/>
</g>
</svg>
