<?xml version="1.0" encoding="UTF-8"?>
<svg width="80px" height="80px" viewBox="0 0 80 80" version="1.1" xmlns="http://www.w3.org/2000/svg" xmlns:xlink="http://www.w3.org/1999/xlink">
    <title>Group 14</title>
    <g id="Page-1" stroke="none" stroke-width="1" fill="none" fill-rule="evenodd">
        <g id="Desktop-HD" transform="translate(-418.000000, -9943.000000)">
            <g id="Group-14" transform="translate(418.000000, 9943.000000)">
                <rect id="Rectangle" fill="#D8D8D8" opacity="0" x="0" y="0" width="80" height="80"></rect>
                <g id="Group-25" transform="translate(9.000000, 4.000000)" fill="#FFC500">
                    <path d="M29.8968293,3.71694803 C29.8968293,2.83675777 30.6162178,2.12094039 31.5007993,2.12094039 C32.3853808,2.12094039 33.1047694,2.83675777 33.1047694,3.71694803 L33.1047694,6.90472143 C33.1047694,7.78385122 32.3853808,8.50072907 31.5007993,8.50072907 C30.6162178,8.50072907 29.8968293,7.78385122 29.8968293,6.90472143 L29.8968293,3.71694803 Z M31.5007993,10.6216695 C33.560915,10.6216695 35.236291,8.95354985 35.236291,6.90472143 L35.236291,3.71694803 C35.236291,1.66705914 33.560915,0 31.5007993,0 C29.4406836,0 27.7653076,1.66705914 27.7653076,3.71694803 L27.7653076,6.90472143 C27.7653076,8.95354985 29.4406836,10.6216695 31.5007993,10.6216695 L31.5007993,10.6216695 Z" id="Fill-1"></path>
                    <path d="M4.2675195,50.4697914 C4.2675195,49.5896012 4.98690806,48.8727233 5.87148954,48.8727233 C6.75607103,48.8727233 7.47545959,49.5896012 7.47545959,50.4697914 L7.47545959,53.6575648 C7.47545959,54.5366946 6.75607103,55.2535725 5.87148954,55.2535725 C4.98690806,55.2535725 4.2675195,54.5366946 4.2675195,53.6575648 L4.2675195,50.4697914 Z M5.87148954,57.3745128 C7.93160522,57.3745128 9.60698124,55.7063932 9.60698124,53.6575648 L9.60698124,50.4697914 C9.60698124,48.4188421 7.93160522,46.7517829 5.87148954,46.7517829 C3.81137387,46.7517829 2.13599785,48.4188421 2.13599785,50.4697914 L2.13599785,53.6575648 C2.13599785,55.7063932 3.81137387,57.3745128 5.87148954,57.3745128 L5.87148954,57.3745128 Z" id="Fill-3"></path>
                    <path d="M8.54100726,58.4409217 L3.20154552,58.4409217 C1.43664559,58.4409217 0,59.8704355 0,61.6265741 L0,66.9395298 C0,67.5238489 0.47746085,68 1.06576083,68 C1.65512656,68 2.13152165,67.5238489 2.13152165,66.9395298 L2.13152165,61.6265741 C2.13152165,61.0390736 2.61217979,60.5618621 3.20154552,60.5618621 L8.54100726,60.5618621 C9.13143876,60.5618621 9.61103113,61.0390736 9.61103113,61.6265741 L9.61103113,66.9395298 C9.61103113,67.5238489 10.0874262,68 10.676792,68 C11.2661577,68 11.7425528,67.5238489 11.7425528,66.9395298 L11.7425528,61.6265741 C11.7425528,59.8704355 10.3059072,58.4409217 8.54100726,58.4409217" id="Fill-5"></path>
                    <path d="M21.353051,50.4697914 C21.353051,49.5896012 22.0724396,48.8727233 22.9570211,48.8727233 C23.8416026,48.8727233 24.5620569,49.5896012 24.5620569,50.4697914 L24.5620569,53.6575648 C24.5620569,54.5366946 23.8416026,55.2535725 22.9570211,55.2535725 C22.0724396,55.2535725 21.353051,54.5366946 21.353051,53.6575648 L21.353051,50.4697914 Z M22.9570211,57.3745128 C25.0171368,57.3745128 26.6935785,55.7063932 26.6935785,53.6575648 L26.6935785,50.4697914 C26.6935785,48.4188421 25.0171368,46.7517829 22.9570211,46.7517829 C20.8969054,46.7517829 19.2215294,48.4188421 19.2215294,50.4697914 L19.2215294,53.6575648 C19.2215294,55.7063932 20.8969054,57.3745128 22.9570211,57.3745128 L22.9570211,57.3745128 Z" id="Fill-8"></path>
                    <path d="M25.627498,58.4409217 L20.2869705,58.4409217 C18.5220706,58.4409217 17.085425,59.8704355 17.085425,61.6265741 L17.085425,66.9395298 C17.085425,67.5238489 17.5628858,68 18.1511858,68 C18.7405515,68 19.2169466,67.5238489 19.2169466,66.9395298 L19.2169466,61.6265741 C19.2169466,61.0390736 19.6976047,60.5618621 20.2869705,60.5618621 L25.627498,60.5618621 C26.2179295,60.5618621 26.6975219,61.0390736 26.6975219,61.6265741 L26.6975219,66.9395298 C26.6975219,67.5238489 27.1739169,68 27.7632827,68 C28.3526484,68 28.8290435,67.5238489 28.8290435,66.9395298 L28.8290435,61.6265741 C28.8290435,59.8704355 27.3923979,58.4409217 25.627498,58.4409217" id="Fill-10"></path>
                    <path d="M41.6471621,50.4697914 L41.6471621,53.6575648 C41.6471621,54.5366946 40.9277736,55.2535725 40.0431921,55.2535725 C39.1586106,55.2535725 38.439222,54.5366946 38.439222,53.6575648 L38.439222,50.4697914 C38.439222,49.5896012 39.1586106,48.8727233 40.0431921,48.8727233 C40.9277736,48.8727233 41.6471621,49.5896012 41.6471621,50.4697914 M36.3077004,50.4697914 L36.3077004,53.6575648 C36.3077004,55.7063932 37.9830764,57.3745128 40.0431921,57.3745128 C42.1033077,57.3745128 43.7786838,55.7063932 43.7786838,53.6575648 L43.7786838,50.4697914 C43.7786838,48.4188421 42.1033077,46.7517829 40.0431921,46.7517829 C37.9830764,46.7517829 36.3077004,48.4188421 36.3077004,50.4697914" id="Fill-13"></path>
                    <path d="M42.7129229,58.4409217 L37.3734612,58.4409217 C35.6085613,58.4409217 34.1719157,59.8704355 34.1719157,61.6265741 L34.1719157,66.9395298 C34.1719157,67.5238489 34.6493765,68 35.2376765,68 C35.8270422,68 36.3034373,67.5238489 36.3034373,66.9395298 L36.3034373,61.6265741 C36.3034373,61.0390736 36.7840955,60.5618621 37.3734612,60.5618621 L42.7129229,60.5618621 C43.3033544,60.5618621 43.7829468,61.0390736 43.7829468,61.6265741 L43.7829468,66.9395298 C43.7829468,67.5238489 44.2593419,68 44.8487076,68 C45.4380734,68 45.9144685,67.5238489 45.9144685,66.9395298 L45.9144685,61.6265741 C45.9144685,59.8704355 44.4778229,58.4409217 42.7129229,58.4409217" id="Fill-15"></path>
                    <path d="M58.7326937,50.4697914 L58.7326937,53.6575648 C58.7326937,54.5366946 58.0133051,55.2535725 57.1287236,55.2535725 C56.2441421,55.2535725 55.5247536,54.5366946 55.5247536,53.6575648 L55.5247536,50.4697914 C55.5247536,49.5896012 56.2441421,48.8727233 57.1287236,48.8727233 C58.0133051,48.8727233 58.7326937,49.5896012 58.7326937,50.4697914 M53.3932319,50.4697914 L53.3932319,53.6575648 C53.3932319,55.7063932 55.0686079,57.3745128 57.1287236,57.3745128 C59.1888393,57.3745128 60.8642153,55.7063932 60.8642153,53.6575648 L60.8642153,50.4697914 C60.8642153,48.4188421 59.1888393,46.7517829 57.1287236,46.7517829 C55.0686079,46.7517829 53.3932319,48.4188421 53.3932319,50.4697914" id="Fill-18"></path>
                    <path d="M59.7984545,58.4409217 L54.4589927,58.4409217 C52.6940928,58.4409217 51.2574472,59.8704355 51.2574472,61.6265741 L51.2574472,66.9395298 C51.2574472,67.5238489 51.7349081,68 52.323208,68 C52.9125738,68 53.3889689,67.5238489 53.3889689,66.9395298 L53.3889689,61.6265741 C53.3889689,61.0390736 53.869627,60.5618621 54.4589927,60.5618621 L59.7984545,60.5618621 C60.388886,60.5618621 60.8684783,61.0390736 60.8684783,61.6265741 L60.8684783,66.9395298 C60.8684783,67.5238489 61.3448734,68 61.9342392,68 C62.5236049,68 63,67.5238489 63,66.9395298 L63,61.6265741 C63,59.8704355 61.5633544,58.4409217 59.7984545,58.4409217" id="Fill-20"></path>
                    <path d="M21.355076,26.5636118 L19.9408114,26.5636118 L18.6576353,23.3715966 L21.8868906,23.3715966 L21.8890222,23.3715966 L21.8911537,23.3715966 L26.6956035,23.3715966 L36.3055689,23.3715966 L41.1078871,23.3715966 L41.1110844,23.3715966 L41.1142817,23.3715966 L44.3424712,23.3715966 L43.0592952,26.5636118 L41.6450306,26.5636118 L21.355076,26.5636118 Z M22.954783,14.8740489 C22.954783,14.2865484 23.4343754,13.8093368 24.0248069,13.8093368 L25.6298427,13.8093368 L25.6298427,21.2506562 L22.954783,21.2506562 L22.954783,14.8740489 Z M31.501119,16.4753589 L29.0882365,13.8093368 L33.9129358,13.8093368 L31.501119,16.4753589 Z M27.7613643,21.2506562 L27.7613643,15.5113915 L30.4353582,18.4669219 L30.4353582,21.2506562 L27.7613643,21.2506562 Z M32.5668799,21.2506562 L32.5668799,18.4669219 L35.239808,15.5113915 L35.239808,21.2506562 L32.5668799,21.2506562 Z M40.0453236,14.8740489 L40.0453236,21.2506562 L37.3713297,21.2506562 L37.3713297,13.8093368 L38.9752997,13.8093368 C39.5657312,13.8093368 40.0453236,14.2865484 40.0453236,14.8740489 L40.0453236,14.8740489 Z M61.9339194,40.9032898 C62.5232852,40.9032898 62.9996803,40.4292596 62.9996803,39.8428196 C62.9996803,39.2585005 62.5232852,38.7823494 61.9339194,38.7823494 L40.7775013,38.7823494 L42.5413354,28.6845522 L43.7808153,28.6845522 C44.2167115,28.6845522 44.6078457,28.4204951 44.7709071,28.0185769 L46.9066918,22.7045608 C47.0377804,22.3789965 46.9972815,22.0078319 46.79905,21.7172631 C46.5997527,21.4245733 46.2704326,21.2506562 45.9166,21.2506562 L42.1768452,21.2506562 L42.1768452,14.8740489 C42.1768452,13.1168498 40.7401997,11.6883964 38.9752997,11.6883964 L36.3055689,11.6883964 L26.6956035,11.6883964 L24.0248069,11.6883964 C22.2599069,11.6883964 20.8232613,13.1168498 20.8232613,14.8740489 L20.8232613,21.2506562 L17.0835066,21.2506562 C16.729674,21.2506562 16.4003539,21.4245733 16.2010566,21.7172631 C16.0038909,22.0078319 15.9623262,22.3789965 16.0934148,22.7045608 L18.2291995,28.0185769 C18.3922609,28.4204951 18.7833951,28.6845522 19.2192913,28.6845522 L20.4587711,28.6845522 L22.2226053,38.7823494 L1.06618713,38.7823494 C0.476821394,38.7823494 0.00042630433,39.2585005 0.00042630433,39.8428196 C0.00042630433,40.4292596 0.476821394,40.9032898 1.06618713,40.9032898 L23.4908607,40.9032898 C23.5228335,40.9032898 23.5505433,40.8884432 23.5825161,40.8852618 C23.6123574,40.8831409 23.6421987,40.8937456 23.6731058,40.8884432 C23.7146705,40.8810199 23.7455775,40.8566291 23.7850107,40.8449639 C23.8564166,40.8237545 23.9214281,40.8014847 23.9853737,40.7675496 C24.0450563,40.7357355 24.0972786,40.698619 24.1495009,40.6562002 C24.2038547,40.6137814 24.2518139,40.5692417 24.2965759,40.5172786 C24.3402721,40.4642551 24.3754422,40.4101712 24.4084807,40.3507848 C24.4415193,40.2913985 24.4692291,40.2341331 24.4905443,40.1694444 C24.5129253,40.1015743 24.5246487,40.0326438 24.532109,39.9605318 C24.5374378,39.9202339 24.5566215,39.8852384 24.5566215,39.8428196 C24.5566215,39.812066 24.5406351,39.7855542 24.5385036,39.7537401 C24.5353063,39.7229865 24.5459639,39.6932933 24.5406351,39.6625397 L22.6211998,28.6845522 L40.3789067,28.6845522 L38.612941,38.7823494 L31.501119,38.7823494 C30.9117533,38.7823494 30.4353582,39.2585005 30.4353582,39.8428196 C30.4353582,40.4292596 30.9117533,40.9032898 31.501119,40.9032898 L61.9339194,40.9032898 Z" id="Fill-23"></path>
                </g>
            </g>
        </g>
    </g>
</svg>