<?xml version="1.0" encoding="utf-8"?>
<!-- Generator: Adobe Illustrator 25.0.1, SVG Export Plug-In . SVG Version: 6.00 Build 0)  -->
<svg version="1.1" id="圖層_1" xmlns="http://www.w3.org/2000/svg" xmlns:xlink="http://www.w3.org/1999/xlink" x="0px" y="0px"
	 viewBox="0 0 38 38" style="enable-background:new 0 0 38 38;" xml:space="preserve">
<style type="text/css">
	.st0{fill:#FFFFFF;}
</style>
<g>
	<desc>Created with Sketch.</desc>
	<path class="st0" d="M19,38C8.52,38,0,29.48,0,19S8.52,0,19,0s19,8.52,19,19S29.48,38,19,38z M19,2C9.63,2,2,9.63,2,19
		s7.63,17,17,17s17-7.63,17-17S28.37,2,19,2z"/>
	<path class="st0" d="M28.25,17.93C28.03,14.07,24.03,11,19.13,11C14.09,11,10,14.25,10,18.26c0,3.69,3.45,6.73,7.93,7.2
		c0.27,0.03,0.47,0.28,0.44,0.55l-0.19,1.71c-0.04,0.39,0.36,0.67,0.71,0.5c3.78-1.82,6.04-3.7,7.39-5.33
		c0.25-0.3,1.05-1.42,1.21-1.71c0.35-0.63,0.59-1.3,0.7-2c0.04-0.22,0.06-0.41,0.07-0.55C28.28,18.39,28.26,18.04,28.25,17.93z
		 M14.92,20.67h-1.87c-0.26,0-0.47-0.21-0.47-0.47v-3.53c0-0.26,0.21-0.47,0.47-0.47s0.47,0.21,0.47,0.47v3.06h1.4
		c0.26,0,0.47,0.21,0.47,0.47C15.39,20.46,15.18,20.67,14.92,20.67z M16.95,20.31c0,0.2-0.16,0.36-0.36,0.36h-0.2
		c-0.2,0-0.36-0.16-0.36-0.36v-3.73c0-0.2,0.16-0.36,0.36-0.36h0.2c0.2,0,0.36,0.16,0.36,0.36V20.31z M21.37,20.19
		c0,0.26-0.21,0.49-0.47,0.49c-0.12,0-0.23-0.05-0.32-0.13c-0.03-0.03-1.92-2.48-1.92-2.48v2.14c0,0.26-0.21,0.47-0.47,0.47
		c-0.26,0-0.47-0.21-0.47-0.47V16.7c0-0.25,0.19-0.48,0.45-0.49c0.15-0.01,0.28,0.06,0.37,0.16c0.03,0.03,1.89,2.46,1.89,2.46v-2.15
		c0-0.26,0.21-0.47,0.47-0.47c0.26,0,0.47,0.21,0.47,0.47V20.19z M24.35,17.98c0.26,0,0.47,0.21,0.47,0.47
		c0,0.26-0.21,0.47-0.47,0.47h-1.4v0.83h1.4c0.26,0,0.47,0.21,0.47,0.47c0,0.26-0.21,0.47-0.47,0.47h-1.87
		c-0.26,0-0.47-0.21-0.47-0.47v-3.53c0-0.26,0.21-0.47,0.47-0.47h1.87c0.26,0,0.47,0.21,0.47,0.47c0,0.26-0.21,0.47-0.47,0.47h-1.4
		v0.83H24.35z"/>
</g>
</svg>
