<?xml version="1.0" encoding="UTF-8"?>
<svg width="126px" height="126px" viewBox="0 0 126 126" version="1.1" xmlns="http://www.w3.org/2000/svg" xmlns:xlink="http://www.w3.org/1999/xlink">
    <title>Group 12</title>
    <g id="Page-1" stroke="none" stroke-width="1" fill="none" fill-rule="evenodd">
        <g id="Desktop-HD" transform="translate(-497.000000, -1324.000000)">
            <g id="Group-12" transform="translate(497.000000, 1324.000000)">
                <rect id="Rectangle-Copy-75" fill="#D8D8D8" opacity="0" x="0" y="0" width="126" height="126"></rect>
                <g id="Group-21-Copy" transform="translate(9.000000, 19.000000)" stroke="#000000" stroke-width="3">
                    <path d="M38.6773989,32 L0,32 L0,21.5002362 C0,19.5671054 1.57403235,18 3.51609841,18 L105.483902,18 C107.425968,18 109,19.5671054 109,21.5002362 L109,32 L91.419508,32" id="Stroke-1" stroke-linecap="round" stroke-linejoin="round"></path>
                    <path d="M39,81 L4.45451719,81 C2.54646463,81 1,79.4012086 1,77.4285944 L1,31 L39,31" id="Stroke-3" stroke-linecap="round" stroke-linejoin="round"></path>
                    <path d="M91,31 L109,31 L109,77.4285944 C109,79.4012086 107.388408,81 105.4,81 L91,81" id="Stroke-5" stroke-linecap="round" stroke-linejoin="round"></path>
                    <path d="M96,58 C96,74.5685486 82.5686197,88 66.0001588,88 C49.431698,88 36,74.5685486 36,58 C36,41.4314514 49.431698,28 66.0001588,28 C82.5686197,28 96,41.4314514 96,58 Z" id="Stroke-7" stroke-linecap="round" stroke-linejoin="round"></path>
                    <path d="M75.3636222,74.5454828 C72.3829557,76.4886682 68.8233802,78 65.0001555,78 C54.5067295,78 46,69.4932009 46,59 C46,48.5067991 54.5067295,40 65.0001555,40 C75.4932705,40 84,48.5067991 84,59" id="Stroke-9" stroke-linecap="round" stroke-linejoin="round"></path>
                    <polygon id="Stroke-11" stroke-linecap="round" stroke-linejoin="round" points="83 18 83 10.8 74.2499212 0 56.7500788 0 48 10.8 48 18"></polygon>
                    <polygon id="Stroke-13" stroke-linecap="round" stroke-linejoin="round" points="90 18 104 18 104 11 90 11"></polygon>
                    <path d="M41,18 L9,18 L9,14.5 C9,12.5668257 10.592,11 12.55552,11 L37.44448,11 C39.408,11 41,12.5668257 41,14.5 L41,18 Z" id="Stroke-15" stroke-linecap="round" stroke-linejoin="round"></path>
                    <path d="M74,59 C74,63.9704442 69.9704442,68 65,68 C60.0295558,68 56,63.9704442 56,59 C56,54.0295558 60.0295558,50 65,50" id="Stroke-16" stroke-linecap="round" stroke-linejoin="round"></path>
                    <line x1="96" y1="25" x2="99" y2="25" id="Stroke-17"></line>
                    <line x1="12" y1="25" x2="37" y2="25" id="Stroke-18"></line>
                    <path d="M30,71.5 C30,73.4331743 28.4331743,75 26.5,75 C24.5668257,75 23,73.4331743 23,71.5 C23,69.5668257 24.5668257,68 26.5,68 C28.4331743,68 30,69.5668257 30,71.5 Z" id="Stroke-19" stroke-linecap="round" stroke-linejoin="round"></path>
                    <line x1="23" y1="71" x2="23" y2="64" id="Stroke-20" stroke-linecap="round" stroke-linejoin="round"></line>
                </g>
            </g>
        </g>
    </g>
</svg>