<?xml version="1.0" encoding="utf-8"?>
<!-- Generator: Adobe Illustrator 25.0.1, SVG Export Plug-In . SVG Version: 6.00 Build 0)  -->
<svg version="1.1" id="圖層_1" xmlns="http://www.w3.org/2000/svg" xmlns:xlink="http://www.w3.org/1999/xlink" x="0px" y="0px"
	 viewBox="0 0 121.9 121.9" style="enable-background:new 0 0 121.9 121.9;" xml:space="preserve">
<style type="text/css">
	.st0{fill-rule:evenodd;clip-rule:evenodd;fill:#FFFFFF;}
	.st1{fill-rule:evenodd;clip-rule:evenodd;}
	.st2{fill-rule:evenodd;clip-rule:evenodd;fill:#FFC33B;}
</style>
<path id="Fill-252" class="st0" d="M103.2,67.6H90.6c-5.1,0-9.3-4.2-9.3-9.3c0-0.3,0-0.5,0-0.7H62.2c0,0.2,0,0.5,0,0.7
	c0,5.1-4.2,9.3-9.3,9.3H25.2c-5.1,0-9.3-4.2-9.3-9.3v-7.5c0-6.5,5.3-11.8,11.8-11.8h72.9c6.5,0,11.8,5.3,11.8,11.8v7.5
	C112.5,63.4,108.3,67.6,103.2,67.6"/>
<path id="Fill-254" class="st0" d="M58,102.8H27.7c-6.5,0-11.8-5.3-11.8-11.8V58.2c0-5.1,4.2-9.3,9.3-9.3h36.5
	c5.1,0,9.3,4.2,9.3,9.3s-4.2,9.3-9.3,9.3H34.5v16.6H58c5.1,0,9.3,4.2,9.3,9.3C67.3,98.6,63.1,102.8,58,102.8L58,102.8z"/>
<path id="Fill-256" class="st0" d="M100.7,102.8H85.5c-5.1,0-9.3-4.2-9.3-9.3c0-5.1,4.2-9.3,9.3-9.3h8.4V67.6H81.8
	c-5.1,0-9.3-4.2-9.3-9.3c0-5.1,4.2-9.3,9.3-9.3h21.4c5.1,0,9.3,4.2,9.3,9.3v32.7C112.5,97.5,107.2,102.8,100.7,102.8"/>
<path id="Fill-258" class="st0" d="M71.7,65c-6.7,0-12.1,5.4-12.1,12.1c0,6.7,5.4,12.1,12.1,12.1c6.7,0,12.1-5.4,12.1-12.1
	C83.8,70.5,78.4,65,71.7,65 M71.7,107.8C54.8,107.8,41,94,41,77.1c0-16.9,13.8-30.7,30.7-30.7s30.7,13.8,30.7,30.7
	C102.4,94,88.7,107.8,71.7,107.8"/>
<path id="Fill-260" class="st0" d="M71.7,95.5c-10.2,0-18.4-8.3-18.4-18.4c0-10.2,8.3-18.4,18.4-18.4c10.2,0,18.4,8.3,18.4,18.4
	c0,3.2-1.6,6.1-4.1,7.7c0,0.5-0.1,1.1-0.2,1.6c-0.5,2.4-1.9,4.5-4,5.9C78.6,94.5,75.2,95.5,71.7,95.5"/>
<path id="Fill-262" class="st0" d="M84.3,57.5H59.2c-5.1,0-9.3-4.2-9.3-9.3v-5c0-2.2,0.8-4.3,2.2-6l6.3-7.5c1.8-2.1,4.4-3.4,7.2-3.4
	H78c2.8,0,5.4,1.2,7.2,3.4l6.3,7.5c1.4,1.7,2.2,3.8,2.2,6v5C93.6,53.3,89.5,57.5,84.3,57.5"/>
<path id="Fill-264" class="st0" d="M99.4,57.5H89.4c-5.1,0-9.3-4.2-9.3-9.3v-5c0-5.1,4.2-9.3,9.3-9.3h10.1c5.1,0,9.3,4.2,9.3,9.3v5
	C108.7,53.3,104.6,57.5,99.4,57.5"/>
<path id="Fill-266" class="st0" d="M54.1,57.5H31.5c-5.1,0-9.3-4.2-9.3-9.3c0-7.9,6.4-14.3,14.3-14.3h12.6c7.9,0,14.3,6.4,14.3,14.3
	C63.5,53.3,59.3,57.5,54.1,57.5"/>
<path id="Fill-424" class="st1" d="M98.8,63.1H86.2c-5.1,0-9.3-4.2-9.3-9.3c0-0.3,0-0.5,0-0.7H57.7c0,0.2,0,0.5,0,0.7
	c0,5.1-4.2,9.3-9.3,9.3H20.8c-5.1,0-9.3-4.2-9.3-9.3v-7.5c0-6.5,5.3-11.8,11.8-11.8h72.9c6.5,0,11.8,5.3,11.8,11.8v7.5
	C108.1,59,103.9,63.1,98.8,63.1"/>
<path id="Fill-426" class="st1" d="M53.5,98.4H23.3c-6.5,0-11.8-5.3-11.8-11.8V53.8c0-5.1,4.2-9.3,9.3-9.3h36.5
	c5.1,0,9.3,4.2,9.3,9.3s-4.2,9.3-9.3,9.3h-8.8l5.1,16.6c5.1,0,9.3,4.2,9.3,9.3C62.9,94.2,58.7,98.4,53.5,98.4L53.5,98.4z"/>
<path id="Fill-428" class="st1" d="M96.2,98.4H81.1c-5.1,0-9.3-4.2-9.3-9.3c0-5.1,4.2-9.3,9.3-9.3h8.4V63.1H77.4
	c-5.1,0-9.3-4.2-9.3-9.3c0-5.1,4.2-9.3,9.3-9.3h21.4c5.1,0,9.3,4.2,9.3,9.3v32.7C108.1,93.1,102.8,98.4,96.2,98.4"/>
<path id="Fill-430" class="st1" d="M67.3,60.6c-6.7,0-12.1,5.4-12.1,12.1c0,6.7,5.4,12.1,12.1,12.1c6.7,0,12.1-5.4,12.1-12.1
	C79.4,66,74,60.6,67.3,60.6 M67.3,103.4c-16.9,0-30.7-13.8-30.7-30.7C36.6,55.8,50.4,42,67.3,42C84.2,42,98,55.8,98,72.7
	C98,89.6,84.2,103.4,67.3,103.4"/>
<path id="Fill-432" class="st1" d="M67.3,91.1c-10.2,0-18.4-8.3-18.4-18.4c0-10.2,8.3-18.4,18.4-18.4c10.2,0,18.4,8.3,18.4,18.4
	c0,3.2-1.6,6.1-4.1,7.7c0,0.5-0.1,1.1-0.2,1.6c-0.5,2.4-1.9,4.5-4,5.9C74.2,90.1,70.8,91.1,67.3,91.1"/>
<path id="Fill-434" class="st1" d="M79.9,53.1H54.7c-5.1,0-9.3-4.2-9.3-9.3v-5c0-2.2,0.8-4.3,2.2-6l6.3-7.5c1.8-2.1,4.4-3.4,7.2-3.4
	h12.6c2.8,0,5.4,1.2,7.2,3.3l6.3,7.5c1.4,1.7,2.2,3.8,2.2,6v5C89.2,48.9,85,53.1,79.9,53.1"/>
<path id="Fill-436" class="st1" d="M95,53.1H84.9c-5.1,0-9.3-4.2-9.3-9.3v-5c0-5.1,4.2-9.3,9.3-9.3H95c5.1,0,9.3,4.2,9.3,9.3v5
	C104.3,48.9,100.1,53.1,95,53.1"/>
<path id="Fill-438" class="st1" d="M49.7,53.1H27.1c-5.1,0-9.3-4.2-9.3-9.3c0-7.9,6.4-14.3,14.3-14.3h12.6c7.9,0,14.3,6.4,14.3,14.3
	C59,48.9,54.8,53.1,49.7,53.1"/>
<g id="Group-653" transform="translate(157.857776, 4.256665)">
	<path id="Fill-637" class="st2" d="M-61.1,50.2h-12.6c-1.5,0-2.7-1.2-2.7-2.7c0-1.5,1.2-2.7,2.7-2.7h9.9v-4.7h-72.7v4.7h25
		c1.5,0,2.7,1.2,2.7,2.7c0,1.5-1.2,2.7-2.7,2.7h-27.7c-1.5,0-2.7-1.2-2.7-2.7V40c0-2.9,2.3-5.2,5.2-5.2h72.9c2.9,0,5.2,2.3,5.2,5.2
		v7.5C-58.5,49-59.6,50.2-61.1,50.2"/>
	<path id="Fill-639" class="st2" d="M-106.3,85.4h-30.2c-2.9,0-5.2-2.3-5.2-5.2V47.5c0-1.5,1.2-2.7,2.7-2.7h36.5
		c1.5,0,2.7,1.2,2.7,2.7c0,1.5-1.2,2.7-2.7,2.7h-33.8v29.9h30.1c1.5,0,2.7,1.2,2.7,2.7C-103.7,84.2-104.9,85.4-106.3,85.4"/>
	<path id="Fill-641" class="st2" d="M-63.6,85.4h-15.2c-1.5,0-2.7-1.2-2.7-2.7c0-1.5,1.2-2.7,2.7-2.7h15V50.2h-18.7
		c-1.5,0-2.7-1.2-2.7-2.7c0-1.5,1.2-2.7,2.7-2.7h21.4c1.5,0,2.7,1.2,2.7,2.7v32.7C-58.5,83.1-60.8,85.4-63.6,85.4"/>
	<path id="Fill-643" class="st2" d="M-92.6,47.7c-10.3,0-18.7,8.4-18.7,18.7c0,10.3,8.4,18.7,18.7,18.7s18.7-8.4,18.7-18.7
		C-73.8,56.1-82.2,47.7-92.6,47.7 M-92.6,90.4c-13.3,0-24-10.8-24-24c0-13.3,10.8-24,24-24c13.3,0,24,10.8,24,24
		C-68.5,79.7-79.3,90.4-92.6,90.4"/>
	<path id="Fill-645" class="st2" d="M-92.6,78.2c-6.5,0-11.8-5.3-11.8-11.8s5.3-11.8,11.8-11.8s11.8,5.3,11.8,11.8
		c0,1.5-1.2,2.7-2.7,2.7c-1.5,0-2.7-1.2-2.7-2.7c0-3.6-2.9-6.4-6.4-6.4c-3.6,0-6.4,2.9-6.4,6.4s2.9,6.4,6.4,6.4
		c1.1,0,2.3-0.4,3.5-1.2c1.2-0.8,2.9-0.5,3.7,0.8c0.8,1.2,0.5,2.9-0.8,3.7C-88.3,77.5-90.4,78.2-92.6,78.2"/>
	<path id="Fill-647" class="st2" d="M-102.5,34.8h19.8v-1.4l-4.9-5.8h-10.1l-4.9,5.8V34.8z M-80,40.1h-25.2c-1.5,0-2.7-1.2-2.7-2.7
		v-5c0-0.6,0.2-1.2,0.6-1.7l6.3-7.5c0.5-0.6,1.3-1,2-1h12.6c0.8,0,1.5,0.4,2,1l6.3,7.5c0.4,0.5,0.6,1.1,0.6,1.7v5
		C-77.3,38.9-78.5,40.1-80,40.1L-80,40.1z"/>
	<path id="Fill-649" class="st2" d="M-64.9,40.1H-75c-1.5,0-2.7-1.2-2.7-2.7v-5c0-1.5,1.2-2.7,2.7-2.7h10.1c1.5,0,2.7,1.2,2.7,2.7v5
		C-62.2,38.9-63.4,40.1-64.9,40.1"/>
	<path id="Fill-651" class="st2" d="M-110.2,40.1h-22.6c-1.5,0-2.7-1.2-2.7-2.7c0-4.2,3.4-7.7,7.7-7.7h12.6c4.2,0,7.7,3.4,7.7,7.7
		C-107.5,38.9-108.7,40.1-110.2,40.1"/>
</g>
</svg>
