<?xml version="1.0" encoding="UTF-8"?>
<svg width="245px" height="191px" viewBox="0 0 245 191" version="1.1" xmlns="http://www.w3.org/2000/svg" xmlns:xlink="http://www.w3.org/1999/xlink">
    <title>Group 7</title>
    <g id="Web" stroke="none" stroke-width="1" fill="none" fill-rule="evenodd">
        <g id="赫綵官網/首頁02_Normal-" transform="translate(-1063.000000, -4545.000000)">
            <g id="Group-14" transform="translate(571.555311, 4545.500000)">
                <g id="Group-7" transform="translate(491.444689, -0.000000)">
                    <g id="Group-8" transform="translate(115.980045, 149.983470) rotate(17.000000) translate(-115.980045, -149.983470) translate(64.997849, 123.712000)" fill="#975D38" fill-rule="nonzero">
                        <path d="M86.479802,8.50698885 C86.8452561,9.44927657 101.929944,18.2479461 101.964393,21.9601645 C101.967069,22.2482143 83.6289159,28.8227512 82.16384,27.6502108 C81.4055643,27.0433419 80.4283113,19.8758373 80.42724,20.0326583 C80.3887862,25.6616208 81.261567,31.5352029 80.3062572,36.0634524 C79.6008659,39.4070666 77.4587619,41.9148955 75.4911457,43.5777507 C67.6578921,50.1977234 59.7163886,48.6488954 52.5158904,45.258189 C45.4428423,41.9274987 43.2727301,37.5456712 42.7222872,33.5280703 C42.7123687,33.4556766 44.3530696,39.2091196 44.2262184,39.2389819 C37.5278318,40.8158617 38.6044817,40.1034954 38.6044817,40.1034954 C38.6044817,40.1034954 37.350669,42.8558641 33.7135119,46.208957 C30.0763548,49.5620498 18.9457215,59.2571703 6.5607354,44.9651439 C1.01640236,38.2116649 -1.07116054,22.7547292 0.635505475,13.2960751 C-7.37090312,8.93090622 62.4720236,-11.2093567 86.479802,8.50698885 Z" id="Path"></path>
                    </g>
                    <path d="M94.3341511,44.2815127 C94.9616855,43.4333291 95.9296031,42.901919 96.9830645,42.8271954 C98.036526,42.7524718 99.0699583,43.141923 99.8112732,43.8930121 C101.43745,45.6362841 102.445081,47.4791717 104.290741,48.6645967 C105.896964,49.6607521 107.972085,49.4814441 109.877605,49.3021361 C130.782904,47.4219643 153.66029,54.0167955 169.527356,67.7370921 C179.12479,76.1346825 184.72163,87.873275 184.791466,100.614103 C191.116595,100.056256 198.309682,100.155872 203.517437,103.781877 C210.750431,108.822424 215.289758,121.114982 210.979892,128.805302 C209.372113,131.663951 207.255721,134.205882 204.734576,136.306353 C200.710887,139.269765 195.751687,140.684551 190.767416,140.290974 C185.599566,139.952282 175.34368,134.17458 174.625369,134.403696 C173.707527,134.702542 170.155878,138.796741 169.527356,139.523935 C164.239788,145.630368 159.371235,147.672486 151.569578,149.953682 C127.705687,151.338338 108.530772,148.618834 78.4714478,132.022884 C69.3927937,125.159373 59.7454766,119.650634 59.4162507,108.264577 C59.3563914,106.17265 60.5934828,98.8011002 59.017189,97.4264057 C57.2613174,95.8923263 55.415657,96.4900195 53.2307941,94.8463631 C45.9080115,89.347585 39.8821795,81.7269959 42.7953301,73.0504819 C44.6709202,67.4620499 48.7114201,63.3280048 54.5377212,62.4015802 C63.207337,61.0169242 66.8587518,65.9877398 70.5001899,70.6597089 C75.5483207,63.9655443 81.3147625,57.5204186 89.0964661,54.3725673 C89.0066772,54.3426827 92.917482,45.9949001 94.3341511,44.2815127 Z" id="Path" fill="#975D38" fill-rule="nonzero"></path>
                    <path d="M78.2982442,82.2524844 C79.6189354,82.7340197 80.8281276,83.4813146 81.8519328,84.4487054 C84.1846613,87.2438956 84.8298841,91.0174026 85.653784,94.591253 C86.4876103,98.4346397 85.5644454,102.737236 84.9192226,106.57064 C84.3859968,110.515553 82.2649723,114.06704 79.0526586,116.393737 C76.1379387,118.407911 72.8273697,119.769609 69.3445373,120.386866 C68.828359,120.456746 66.9323967,120.386866 66.5750425,120.736265 C65.9298198,121.445046 66.5750425,122.223706 67.0614413,123.012349 C69.5529939,126.755907 74.7644087,129.4912 78.7846429,131.457816 C86.3210018,135.134846 94.0445789,138.410415 101.923325,141.270931 C105.0601,142.428938 109.060481,143.876448 112.18733,145.024472 C115.542489,146.262342 118.728897,146.242377 122.203173,147.021037 C130.263495,148.897807 145.410749,148.342836 153.679528,147.843695 C150.26481,145.996873 142.260245,144.4536 139.580089,141.638444 C136.96926,138.896106 134.647641,136.057474 134.224422,132.296374 C134.213184,132.196503 134.198318,121.61171 136.650165,118.197585 C140.620767,112.657118 147.813554,108.287685 154.315415,110.274267 C155.179021,110.543803 154.682695,110.913168 156.479393,111.671862 C157.035277,111.901467 157.472043,110.99303 157.829397,110.513855 C160.450374,106.899498 161.814426,102.517487 161.710661,98.0453096 C161.710661,93.6129364 161.780146,88.6714393 160.449995,84.4387225 C158.67315,78.788445 155.486742,75.1646804 151.029742,71.2214655 C145.272369,66.080312 135.296232,63.1054309 127.662751,62.0572345 C116.376315,60.509897 109.795043,61.6778872 98.0222084,65.7209304 C90.8056398,68.1966703 84.5420155,75.2645087 80.0750885,81.4738242 C80.085015,81.5736525 77.3055938,81.8531715 78.2982442,82.2524844 Z" id="Path" fill="#ECDBC3" fill-rule="nonzero"></path>
                    <path d="M65.0262651,78.5890937 C63.9873396,80.0114785 63.2094431,81.5979203 62.7270075,83.2781988 L61.3270151,87.2520168 C59.4773902,86.0598714 57.2394462,85.8214423 55.7474835,84.2716533 C54.2555208,82.7218643 52.0175768,80.5958717 51.7927605,78.45001 C51.6394767,76.8505483 51.8745119,74.1682212 52.7533392,72.8071886 C53.2234096,72.0819668 55.3693834,71.6249777 56.1868972,71.3070723 C57.2883326,70.9788769 58.4726784,71.0315318 59.5387037,71.4560905 C60.5928903,71.7588639 61.5779179,72.2545312 62.4408777,72.9164686 C63.8408701,74.0291376 64.9138569,74.5556685 66.3036304,75.6882066 L65.0262651,78.5890937 Z" id="Path" fill="#ECDBC3" fill-rule="nonzero"></path>
                    <path d="M186.346307,113.387332 C188.733598,112.875463 191.218839,113.061046 193.502453,113.92171 C194.684608,114.301279 195.819814,114.812515 196.886444,115.445678 C198.641117,116.534871 199.895594,118.265442 200.379918,120.26498 C200.827542,122.281626 200.246706,124.388053 198.827263,125.895746 C197.752639,126.858892 196.46312,127.554228 195.065061,127.924405 C194.250737,128.202076 193.404917,128.378249 192.546973,128.448888 C191.598855,128.481942 190.651475,128.365033 189.740251,128.102531 C187.222995,127.418922 185.00202,125.930526 183.420149,123.867087 C183.095342,123.480079 182.86688,123.022382 182.753304,122.531141 C182.694409,121.850472 182.821648,121.166631 183.121562,120.551961 C184.166618,117.860277 184.116854,117.850381 185.221627,115.168593 L186.346307,113.387332 Z" id="Path" fill="#ECDBC3" fill-rule="nonzero"></path>
                    <path d="M135.206567,117.879685 C133.64092,120.789285 132.544819,123.931506 131.959406,127.188402 C131.459868,130.677841 132.132418,134.235422 133.870083,137.295294 C134.75655,138.759203 135.82812,140.10074 137.057845,141.286169 C138.605779,142.776613 140.260206,144.150506 142.007785,145.396771 C142.972481,145.930051 143.963782,146.412921 144.97775,146.843463 C146.601701,147.536653 148.352531,147.876634 150.115788,147.841182 C153.87186,147.687474 157.513155,146.493 160.639362,144.389075 C161.706118,143.674267 162.718694,142.880558 163.668726,142.014504 C164.860276,141.077821 165.88186,139.94024 166.688189,138.652192 C167.757377,136.736571 168.975062,134.980586 168.984962,132.785605 C169.057021,129.421968 168.667234,126.064444 167.826676,122.808417 C166.915887,119.635671 163.866723,116.592628 161.767948,114.078377 C159.334659,111.10491 155.776102,109.295452 151.957166,109.089783 C148.333809,108.990011 144.472856,109.089783 141.413792,111.374559 C141.354393,111.40449 136.691549,114.816689 135.206567,117.879685 Z" id="Path" fill="#E7AFAB" fill-rule="nonzero"></path>
                    <path d="M59.5714678,92.9060184 C58.6701844,96.1227538 58.2149362,99.4442188 58.2180434,102.780525 C58.208799,105.209579 58.4888488,107.63136 59.0524855,109.996511 C60.171859,112.904893 60.7620742,114.404059 62.1053225,117.232486 C62.8137388,118.327323 63.6542744,119.334066 64.6086488,120.230818 C65.2571353,120.70938 66.0220201,121.012628 66.8270437,121.110329 C68.5807317,121.240258 70.3432763,121.19673 72.0880994,120.980401 C74.7745959,120.670574 76.2501338,119.751085 78.8043408,117.862136 C80.5838968,116.467405 82.0995302,114.775844 83.281835,112.864916 C87.6779203,106.238602 87.1385857,97.1936333 84.3808563,88.94822 C83.8136993,87.0308094 82.7637669,85.2846659 81.3280193,83.8710444 C78.6720512,81.2824843 74.6645832,81.7832365 71.0520595,82.6827361 C67.4205425,83.6912387 64.7269222,86.1315331 62.6629488,89.2346052 C61.6838734,90.5709649 60.0403665,91.3253739 59.5714678,92.9060184 Z" id="Path" fill="#E7AFAB" fill-rule="nonzero"></path>
                    <path d="M134.065614,39.9512448 C134.065614,39.9512448 133.327587,14.9392389 122.995201,10.8172603 C118.307729,9.15646315 117.280474,14.3489556 115.684739,19.8215825 C114.089004,25.2942094 106.319768,43.2928488 107.706063,53.2376224 C109.092358,63.1823959 111.276521,63.4925448 114.936738,61.2414642 C118.596956,58.9903837 124.710616,54.978458 124.710616,54.978458 C124.710616,54.978458 129.916703,60.4010609 134.863482,57.9098651 C136.16999,63.6626264 140.917302,78.3196619 151.668568,80.8308673 C157.044201,81.1310113 162.060794,73.5973952 163.546822,70.7360217 C166.419145,75.4682932 172.612593,87.4940656 173.1711,97.448844 C174.687048,99.5198381 175.165769,98.6494203 176.312704,95.2778019 C177.459638,91.9061835 179.952975,79.9004207 167.945067,63.8627225 C171.834672,57.7697978 181.030096,42.6425367 182.685671,40.801653 C184.341246,38.9607694 185.288714,25.9845407 169.032162,27.5052707 C152.775609,29.0260006 141.784983,39.9712544 138.862793,43.4629305 C138.064925,40.851677 136.738471,40.0212784 134.065614,39.9512448 Z" id="Path" fill="#D8908F" fill-rule="nonzero"></path>
                    <path d="M86.7331837,56.4215794 C90.2447373,55.0589817 92.9941581,52.2913113 94.2885833,48.8160299 C95.5594915,45.7385266 95.4494129,43.3078871 99.9626383,46.3657885 C100.683153,46.8558368 101.213532,47.8457343 101.964069,48.4141903 C103.483808,49.5861188 105.2802,50.3646946 107.187802,50.6782134 C109.189232,51.0604511 109.999812,48.1005594 108.018396,47.7379237 C104.135621,46.9832493 103.275006,44.4055953 100.613103,42.2787857 C99.4034561,41.2406152 97.7145704,40.9255508 96.1999493,41.4555046 C94.4540119,42.1386158 93.0692544,43.491301 92.3672101,45.1994735 C90.6659943,48.6690154 90.0055223,51.7955235 85.9226044,53.4812897 C84.1013027,54.235964 84.9218892,57.2056567 86.7632051,56.4215794 L86.7331837,56.4215794 Z" id="Path-Copy-3" fill="#75361D" fill-rule="nonzero"></path>
                    <path d="M156.948813,79.8992791 C162.274151,89.4324509 162.862531,102.363189 156.260707,111.43669 C155.840427,112.183725 156.087589,113.130159 156.819169,113.575159 C168.088144,121.20969 171.648342,139.956263 157.297852,146.601503 C155.482849,147.440902 157.058511,150.138969 158.873514,149.299571 C175.477799,141.63506 171.389056,119.700771 158.424749,110.877091 L158.983211,113.015559 C166.223278,103.022717 165.495283,88.7529376 159.671317,78.32041 C158.674063,76.5716625 155.991448,78.1405388 156.97873,79.8992791 L156.948813,79.8992791 Z" id="Path-Copy-4" fill="#75361D" fill-rule="nonzero"></path>
                    <path d="M62.0748155,96.6039336 C63.7197112,88.4446677 70.4875651,84.4146654 78.3652283,84.037473 C84.3106344,83.7595418 84.7763579,78.905672 88.4922367,74.7863346 C99.2534218,62.8749975 121.241515,61.8129033 135.688852,65.6741617 C136.461519,65.78162 137.194169,65.2992451 137.402176,64.546114 C137.610183,63.7929828 137.229228,63.0019785 136.5113,62.6963275 C121.59824,58.7258818 99.9074165,59.7979021 87.9571502,70.91515 C85.1826273,73.4959397 83.4386415,78.2306962 80.4659384,80.2258452 C78.0481399,81.863654 73.5296313,81.2184566 70.4974742,82.3500336 C64.6172606,84.5463147 60.2908715,89.6350288 59.0624764,95.7999184 C58.666116,97.7851412 61.658637,98.5891565 62.0351794,96.6237859 L62.0748155,96.6039336 Z" id="Path-Copy-5" fill="#75361D" fill-rule="nonzero"></path>
                    <path d="M169.03165,68.5608773 C178.824389,77.057937 183.40567,87.7218975 184.345933,100.66311 C184.357017,101.152311 184.591377,101.609342 184.981701,101.902939 C185.372025,102.196535 185.875121,102.294207 186.346493,102.167902 C199.760245,99.509436 216.414904,112.400489 210.973382,127.067196 C208.352649,134.08956 201.240659,138.774479 193.898606,139.215885 C186.966667,139.637227 181.745206,136.396908 176.163645,132.865662 C175.415866,132.442879 174.468489,132.691513 174.023046,133.427451 C164.870486,148.134287 148.72597,149.869814 132.851529,148.064063 C115.949445,146.016987 99.5117489,141.129979 84.2279275,133.608026 C77.7361116,130.447963 71.3443236,126.585663 66.6230029,120.997868 C60.5212961,113.784898 59.4009827,104.806304 61.3415255,95.7675195 C64.5224153,80.8901411 73.0147909,63.6652868 86.7886438,56.2416455 C88.5591391,55.2384508 86.978697,52.5699527 85.2082017,53.5229877 C73.6249615,59.8631787 66.963098,71.51027 62.0817326,83.4482877 C56.910286,96.058446 54.3895808,110.474355 63.3720935,122.001063 C71.2342928,132.103234 83.80781,137.380039 95.3810474,141.834223 C109.965127,147.442082 125.719534,151.484957 141.393919,151.866171 C155.837959,152.197225 168.761574,147.722977 176.663785,135.042595 L174.523186,135.604384 C181.805223,140.229112 188.987232,143.840613 197.889722,141.804128 C205.481846,140.068601 212.173718,134.300231 214.324319,126.685982 C219.055643,109.902534 200.700508,96.1387016 185.446241,99.1783818 L187.446801,100.693206 C186.446521,86.9795333 181.645178,75.4528254 171.21226,66.3939766 C169.691834,65.0797915 167.471213,67.2968519 169.001641,68.621069 L169.03165,68.5608773 Z" id="Path-Copy-6" fill="#75361D" fill-rule="nonzero"></path>
                    <g fill-rule="nonzero" id="Path">
                        <path d="M8.49015888,45.0179136 C8.49015888,45.0179136 4.66193877,56.5540771 2.54340919,57.6619033 C5.15997905,59.4935093 10.4674531,63.1493357 10.9357597,64.4048721 C11.4040662,65.6604084 14.563277,53.4152362 18.6516674,50.2099257 C14.5930107,48.3192357 8.49015888,45.0179136 8.49015888,45.0179136 Z" fill="#ECAE00"></path>
                        <path d="M193.027065,1.69364691 C193.027065,1.69364691 188.469038,9.14021265 185.653786,10.9497281 C188.372217,14.50174 194.933691,20.9579125 195.492273,22.8642333 C196.981825,16.3484883 200.005614,8.4327889 200.914241,8.11258658 C197.391451,6.31051767 193.064304,2.8255249 193.027065,1.69364691 Z" fill="#ECAE00"></path>
                        <path d="M238.844318,123.636225 C238.844318,123.636225 232.052177,130.615428 230.587348,130.363257 C232.380123,133.426394 234.471695,136.370861 234.355092,138.032223 C238.275877,133.456061 241.934305,130.748931 243.304394,130.830516 C240.848437,127.745129 238.90262,124.822912 238.844318,123.636225 Z" fill="#ECAE00"></path>
                        <path d="M7.52260093,43.5558818 C6.51605227,48.1473169 4.71018556,53.0501585 0.713595298,55.9614469 C-0.270750081,56.6856481 -0.31515664,58.3657947 1.07624886,58.6989272 C5.14685005,59.6548726 8.37372663,62.6603073 11.0159169,65.701952 C12.2889049,67.1503542 14.450024,65.0429289 13.177036,63.5800427 C10.2165988,60.1618134 6.45684352,56.8811824 1.8903691,55.8093647 L2.26042375,58.5468449 C6.94531567,55.1358577 9.27665998,49.8129795 10.4756371,44.3525031 C10.8900983,42.4695802 7.93706214,41.6657169 7.51519983,43.5558818 L7.52260093,43.5558818 Z" fill="#783718"></path>
                        <path d="M8.09397289,45.0216772 C11.1964816,48.0045519 15.0980105,50.0265325 19.3270048,50.8432343 L18.4231138,48.6601504 C15.383416,53.1281954 10.2808058,58.9861372 10.6963041,64.7422018 C10.842093,66.6633156 13.852633,66.6778695 13.7141336,64.7422018 C13.342372,59.8375399 18.3647983,54.0596446 21.0035767,50.1883091 C21.2284052,49.7863931 21.2567953,49.3039105 21.0806492,48.8784813 C20.9045032,48.453052 20.5431596,48.1313832 20.0996857,48.0052252 C16.3762942,47.3039278 12.9386538,45.5336825 10.2079114,42.9113628 C8.82291721,41.5578508 6.67982092,43.6827191 8.09397289,45.0216772 Z" fill="#783718"></path>
                        <path d="M191.111689,1.62999741 C189.345009,5.08161562 187.123614,8.32494653 183.851157,10.4970856 C183.390586,10.7819278 183.110376,11.2841967 183.110376,11.8249172 C183.110376,12.3656376 183.390586,12.8679066 183.851157,13.1527487 C188.174677,16.1282817 191.708037,20.3758549 194.592869,24.7052554 C195.688657,26.3417985 198.364768,24.809399 197.261524,23.1505394 C194.056156,18.3524925 190.18735,13.7924883 185.409115,10.5045244 L185.409115,13.1453099 C189.136288,10.6533011 191.752763,7.11985569 193.772891,3.17727454 C194.674866,1.41427127 192.013665,-0.140444693 191.111689,1.62255858 L191.111689,1.62999741 Z" fill="#783718"></path>
                        <path d="M191.697592,1.87120244 C193.224598,6.15354448 196.96576,8.19873197 201.065769,9.99288562 L200.500777,7.90339803 C197.219021,12.6813447 195.303912,18.2143595 194.950113,23.9400306 C194.812683,25.8966179 198.004124,25.8892346 198.111014,23.9400306 C198.46629,18.7506248 200.23656,13.7447992 203.241751,9.43175114 C203.454534,9.07856287 203.512935,8.65791543 203.404024,8.26295978 C203.295112,7.86800413 203.027874,7.53133149 202.661489,7.32749686 C199.492954,5.95419407 195.973207,4.44799101 194.736333,1.04426742 C194.072085,-0.794186315 191.018075,-0.00416804228 191.682322,1.85643574 L191.697592,1.87120244 Z" fill="#783718"></path>
                        <path d="M237.303824,122.395382 C234.821218,125.04217 232.174597,127.792176 228.797359,129.303573 C227.708889,129.790169 227.88036,131.404783 228.797359,131.942988 C231.093582,133.270068 231.973305,135.474496 232.853027,137.841123 C233.531456,139.669544 236.513565,138.880669 235.835135,137.037502 C234.664658,133.896745 233.389806,131.06564 230.362966,129.310945 L230.362966,131.950361 C233.956407,130.343119 236.849052,127.371933 239.488219,124.577692 C240.837623,123.103159 238.660683,120.97983 237.311279,122.424873 L237.303824,122.395382 Z" fill="#783718"></path>
                        <path d="M237.138194,123.389876 C237.339177,127.118505 240.009382,130.069428 242.787256,132.235376 L243.138976,129.487965 C238.521497,130.784599 234.650822,133.979141 232.465336,138.297124 C231.582445,140.012439 234.144981,141.538778 235.027871,139.816195 C236.827186,136.171083 240.070351,133.470989 243.950087,132.38801 C245.292367,131.995523 245.278011,130.389232 244.301807,129.640599 C242.435535,128.186942 240.260611,125.904702 240.131407,123.389876 C240.030915,121.463781 237.059236,121.456512 237.159728,123.389876 L237.138194,123.389876 Z" fill="#783718"></path>
                    </g>
                    <path d="M71.7137596,68.8986437 C68.9319061,63.9181332 63.7251321,60.7648581 58.008477,60.5985856 C52.2918218,60.4323131 46.9094241,63.2775954 43.840917,68.0879445 C36.3221929,80.0210419 46.2611923,96.2745731 58.7196586,100.100678 C60.6340567,100.693873 61.4474279,97.7081266 59.5429489,97.1347052 C49.6237879,94.0896397 40.5675938,80.7823083 45.8941833,70.8166395 C48.1127704,66.5145155 52.5308872,63.7825551 57.3834761,63.7121888 C62.2360649,63.6418226 66.7320491,66.2445216 69.0752627,70.4804959 C70.0671788,72.2205333 72.725514,70.6683409 71.7534362,68.9184169 L71.7137596,68.8986437 Z" id="Path-Copy-7" fill="#75361D" fill-rule="nonzero"></path>
                    <path d="M99.9569988,94.0086163 C99.8662446,93.7374611 99.8561608,93.7977178 99.9065798,94.1994291 C99.7049037,94.4906698 99.6948199,94.5408838 99.9065798,94.3299853 C99.7846404,94.4406288 99.6220492,94.4958841 99.4576342,94.4825559 C99.2932191,94.4692278 99.1417405,94.3885126 99.0393726,94.2596858 C98.7267746,93.9584023 98.757026,93.4361776 99.3217191,93.4361776 C98.6175835,93.4485554 98.0063102,93.9226768 97.8218017,94.5995574 C97.6372931,95.276438 97.9239133,95.9933259 98.5250985,96.3586275 C100.733452,97.8449594 103.567001,94.5810549 101.691413,92.6528406 C100.877026,91.8531723 99.6066536,91.7435212 98.6662718,92.3917282 C97.5696327,93.0598186 97.1778489,94.4583649 97.7688131,95.595376 C98.3839252,96.9109806 100.259513,96.3787131 100.652781,95.2137502 C100.592279,95.4146059 100.239345,95.4648198 100.652781,95.4146059 L98.8679479,93.1047658 C98.6259366,93.5366055 98.7973612,93.1047658 98.9788697,93.2252792 C99.1603782,93.3457926 99.8763284,93.69729 99.5435628,94.159258 L98.9788697,94.7316966 C98.807445,94.8622528 98.4141767,94.1793436 98.7872774,93.9081884 C98.9788697,93.7675895 99.896496,93.8479317 99.9267474,94.2295575 L98.7771936,95.2338358 C98.479477,95.1150354 98.2680457,94.8470357 98.2225844,94.530841 L98.6763556,93.4261348 C98.7872774,93.3156642 99.0998754,93.8278462 99.0998754,93.8378889 C99.0998754,94.3199425 98.242752,94.3801992 98.0914949,93.928274 C97.9402378,93.4763488 98.7368584,92.7532684 99.0998754,93.1951508 C99.3015515,93.4462204 99.0998754,93.8981456 98.9486183,94.0889585 C98.7973612,94.2797714 98.8175288,94.1994291 98.6965232,94.2596858 C98.807445,94.1994291 98.8780317,94.1893864 98.6965232,94.2596858 C98.5150147,94.3299853 98.5150147,94.1793436 98.6965232,94.2596858 C98.8780317,94.3400281 98.6965232,94.2596858 98.6965232,94.2596858 C98.5178819,94.1049505 98.4305028,93.8703651 98.4645957,93.6370333 C98.4645957,93.3658781 98.5351823,93.5366055 98.6057689,93.4261348 C98.5049309,93.5968622 98.4444281,93.3457926 98.6057689,93.4261348 C98.703487,93.5055214 98.8080981,93.5760987 98.9183669,93.6370333 C99.0091211,93.6370333 98.8376965,93.5366055 98.9183669,93.6370333 C98.9990373,93.7374611 98.8376965,93.69729 98.807445,93.6370333 C98.7771936,93.5767766 98.9587021,93.6370333 98.9687859,93.6370333 C98.9788697,93.6370333 99.1099592,93.7776323 99.1099592,93.8278462 C99.1099592,93.8780601 98.9587021,94.2094719 98.8175288,94.1893864 C98.4343443,94.1391724 98.706607,93.7675895 98.8175288,93.69729 C99.7049037,93.235322 99.6645685,94.8019961 98.9687859,94.5710121 C98.5351823,94.4203704 98.3536738,94.0287018 98.757026,93.7173756 C99.1603782,93.4060493 99.3620543,93.9182312 99.2813839,94.068873 C98.3637576,95.8765739 101.086385,97.4633336 102.004011,95.6556327 C102.482762,94.7334826 102.535417,93.6496218 102.148293,92.6857477 C101.761168,91.7218736 100.972495,90.9731754 99.9872502,90.6342412 C99.0039306,90.3862638 97.9615118,90.5511321 97.1037058,91.0903006 C96.2458998,91.6294692 95.6479081,92.4956706 95.449538,93.4863915 C95.2999595,94.540968 95.6081892,95.6091 96.2971444,96.4236664 C96.9860995,97.2382328 97.9906372,97.7222139 99.0595402,97.7545743 C101.082051,97.7215804 102.701035,96.0733522 102.689769,94.0588302 C102.683587,93.0621334 102.255272,92.1143244 101.510248,91.4488257 C100.765225,90.7833271 99.7727307,90.4619862 98.7771936,90.5639417 C97.7124876,90.6243077 96.7339687,91.1663106 96.1208296,92.0353051 C95.5076905,92.9042997 95.3272702,94.004847 95.6310465,95.0229373 C96.0050601,96.0852762 96.883577,96.8938344 97.9763939,97.1815185 C99.0692108,97.4692026 100.234147,97.1985834 101.086385,96.4590553 C101.87063,95.7519383 102.286817,94.7262597 102.216056,93.6750254 C102.145294,92.6237911 101.595365,91.6626165 100.723368,91.0660808 C99.8691493,90.4592186 98.7673758,90.3164232 97.7856561,90.6853383 C96.8039364,91.0542535 96.0714989,91.8863172 95.8327226,92.9039101 C95.5695263,93.8844616 95.8416708,94.9306598 96.5498102,95.6605921 C97.2579496,96.3905245 98.2984457,96.6973635 99.2914677,96.4690981 C101.308229,95.9267878 102.457782,93.3759209 100.733452,91.8393751 C100.055144,91.2055735 99.1061452,90.946614 98.198189,91.1475613 C97.2902328,91.3485085 96.5406768,91.9833889 96.1957396,92.8436534 C95.5705437,94.85221 97.8393998,96.6398254 99.7049037,96.0171729 C102.104849,95.2137502 101.540156,91.7690756 99.3015515,91.1564659 C97.0629468,90.5438561 95.1671915,93.3658781 96.4175833,95.2940925 C97.6679751,97.2223068 101.459486,96.9109806 101.459486,94.2898142 C101.385701,93.0403078 100.356511,92.0591082 99.0998754,92.0402308 C98.4167948,92.0450103 97.7725781,92.3573994 97.3475247,92.8899686 C96.9224713,93.4225378 96.7622453,94.1180724 96.9116897,94.7819106 C97.118317,95.9498052 98.1411011,96.798658 99.3318029,96.7904672 C100.6911,96.7009825 101.769105,95.6144277 101.84267,94.2596858 C101.963676,91.4376638 97.3049581,90.1622304 96.5587566,93.1449369 C96.2582672,94.4251827 96.9760477,95.724929 98.2225844,96.1577718 C99.5895917,96.5234855 101.025506,95.8757464 101.651078,94.6111832 C101.958155,94.0593561 101.907802,93.3787716 101.52283,92.8777295 C101.137858,92.3766873 100.491412,92.1503879 99.8763284,92.3013431 C98.8147325,92.4901653 97.9582106,93.2727685 97.6780589,94.3098998 L100.562027,93.9383168 C100.651665,94.2723757 100.623181,94.6269778 100.481357,94.9425951 C100.017502,95.3744348 99.1906296,94.4806271 99.2007134,94.1190869 C99.1968329,93.8794133 99.3292838,93.6581365 99.5428225,93.547548 C99.7563613,93.4369596 100.014315,93.456052 100.209094,93.5968622 L99.4124733,96.5293548 C100.495605,96.4854266 101.450263,95.8080225 101.845694,94.8027955 C102.241125,93.7975685 102.00256,92.6545913 101.237642,91.889589 C99.3620543,90.2024015 96.1251529,92.4519849 97.0326954,94.7919533 C97.2858149,95.6142932 98.14106,96.0953424 98.9788697,95.8866167 C99.8137803,95.6523025 100.303895,94.7924925 100.078004,93.9584023 L99.9569988,94.0086163 Z" id="Path-Copy-8" fill="#75361D" fill-rule="nonzero"></path>
                    <path d="M137.870711,106.204562 C137.620381,105.972198 137.870711,106.204562 137.870711,106.267122 C137.963426,106.168814 137.777997,106.097317 137.870711,106.186688 C137.777997,106.070506 138.000512,106.097317 137.870711,106.097317 C137.740911,106.097317 137.870711,106.097317 137.92634,106.02582 C137.666739,106.15094 137.620381,106.186688 137.787268,106.133066 C137.870711,106.133066 137.889254,106.133066 137.833625,106.133066 C137.777997,106.133066 137.648196,105.999009 137.833625,106.186688 C138.019055,106.374367 137.833625,106.186688 137.833625,106.186688 C137.833625,106.186688 137.703825,106.284996 137.666739,106.276059 C137.629653,106.267122 137.666739,106.276059 137.666739,106.276059 C137.842897,106.338619 137.666739,106.186688 137.666739,106.159877 C137.666739,106.133066 137.666739,106.258185 137.666739,106.329682 C137.666739,106.401179 137.527667,106.329682 137.666739,106.374367 C137.434952,106.276059 137.453495,106.311808 137.370051,106.079443 C137.370051,106.079443 137.370051,106.329682 137.370051,106.142003 C137.370051,105.954323 137.472038,106.36543 137.370051,106.142003 C137.370051,106.142003 137.221708,106.142003 137.370051,106.142003 L137.11045,105.963261 C137.017735,105.963261 136.489261,106.606732 136.350188,106.553109 L135.710456,106.186688 L135.840257,106.293933 C136.411627,106.826259 137.317885,106.826259 137.889254,106.293933 C138.451364,105.74705 138.451364,104.865717 137.889254,104.318833 C137.265616,103.768475 136.368834,103.613724 135.585854,103.921353 C134.802873,104.228982 134.273839,104.943929 134.227019,105.757707 C134.167033,107.188944 135.152124,108.4662 136.591247,108.823134 C138.037287,109.214747 139.5523,108.467035 140.068053,107.10721 C140.579699,105.859419 140.026379,104.440981 138.788588,103.827293 C137.467082,103.2503 135.906627,103.709591 135.144896,104.899745 C134.423352,106.172534 134.823124,107.765445 136.068422,108.579579 C137.313719,109.393713 138.996902,109.162569 139.956795,108.045606 C140.983348,106.944347 140.930264,105.259698 139.836266,104.220525 C138.693205,103.139555 136.862788,103.139555 135.719728,104.220525 C134.619395,105.363988 134.656288,107.142083 135.803171,108.242222 C137.147536,109.48448 139.205805,107.50938 137.852168,106.267122 L137.870711,106.204562 Z" id="Path-Copy-9" fill="#75361D" fill-rule="nonzero"></path>
                    <path d="M137.928319,106.066835 C137.984581,105.684334 137.928319,105.768297 138.237759,105.796285 L136.821838,104.732746 C136.653052,104.294269 137.693895,104.079696 137.815796,104.54616 C137.872057,104.770063 137.562618,104.882015 137.506356,104.937991 C137.450094,104.993966 137.506356,104.863356 137.506356,104.937991 C137.506356,105.012625 137.506356,105.133906 137.318817,105.245857 C137.131277,105.357809 137.09377,105.292504 136.981246,105.329821 C137.046885,105.329821 136.156074,105.329821 136.915607,105.479089 C137.112524,105.525736 137.196916,105.124576 137.412586,105.404455 C137.491556,105.520334 137.515221,105.664935 137.477279,105.799753 C137.439337,105.934572 137.34364,106.045921 137.21567,106.104152 C136.231089,106.542629 136.024796,104.770063 136.953115,104.723417 C137.356325,104.723417 137.890811,105.189881 137.768911,105.591041 C137.670604,105.828861 137.477993,106.015765 137.236577,106.107602 C136.995161,106.199439 136.72635,106.188064 136.493644,106.076164 C135.966744,105.853366 135.357803,105.954689 134.932441,106.335937 C134.50708,106.717184 134.342451,107.309203 134.510366,107.853756 C134.678281,108.398309 135.148282,108.796622 135.715356,108.874951 C136.700049,109.195458 137.772976,109.108018 138.692118,108.632353 C139.61126,108.156689 140.299197,107.332866 140.600753,106.346713 C140.847691,105.259734 140.59343,104.119836 139.90752,103.238823 C139.221609,102.357811 138.175837,101.827892 137.056262,101.79402 C136.037036,101.803775 135.067642,102.234151 134.379619,102.982353 C133.691596,103.730555 133.346725,104.729398 133.427378,105.74031 C133.504507,106.792804 134.047706,107.756784 134.909959,108.371351 C135.772213,108.985917 136.86436,109.187521 137.890811,108.921598 C138.903046,108.650884 139.73347,107.931279 140.141938,106.970884 C140.550406,106.010488 140.491359,104.916418 139.981874,104.005061 C139.45961,103.100231 138.525659,102.506639 137.48092,102.415526 C136.436182,102.324413 135.412675,102.747295 134.740152,103.547926 C133.977986,104.389722 133.780059,105.596769 134.233796,106.635921 C134.814631,107.727572 136.011188,108.350623 137.243801,108.203242 C139.634926,108.016656 141.397795,105.404455 139.897481,103.23073 C138.219005,100.842432 134.177535,102.484387 135.040215,105.413784 C135.396338,106.689105 136.717481,107.441989 138.003335,107.102386 C138.644779,106.912815 139.183258,106.475664 139.498607,105.888485 C139.813956,105.301307 139.879932,104.612968 139.681811,103.977074 C139.483347,103.362875 138.922961,102.93543 138.275267,102.904205 C136.763409,102.788689 135.407843,103.82737 135.133985,105.311162 C134.949866,106.087617 135.400143,106.873633 136.16545,107.111715 C136.944242,107.320704 137.747048,106.867261 137.965827,106.094823 L137.928319,106.066835 Z" id="Path-Copy-10" fill="#75361D" fill-rule="nonzero"></path>
                    <path d="M111.697442,104.716466 C111.47452,103.735599 110.987715,102.827823 110.285464,102.08346 C109.950874,101.769118 109.440469,101.703582 109.031469,101.922449 C107.617467,102.69947 107.123329,104.426126 107.925584,105.786717 C108.547645,107.122163 109.762143,108.874343 111.519711,108.040874 C112.674965,107.491541 114.077069,106.014027 113.188412,104.735409 C112.856819,104.200158 112.233224,103.896263 111.587021,103.955006 C110.940818,104.01375 110.38784,104.424603 110.166976,105.010075 C109.894314,105.465157 110.057881,106.046094 110.532313,106.307636 C111.006746,106.569177 111.612385,106.412281 111.885047,105.9572 C112.107535,105.767196 112.341634,105.590085 112.5861,105.42681 C112.862571,105.256327 112.694713,105.341569 112.516982,105.474166 C112.003535,105.862487 111.707316,106.345521 110.986516,106.080326 C109.752269,105.616235 109.219075,107.529426 110.443447,107.974575 C112.171393,108.61862 115.015097,106.961152 114.807743,105.038489 C114.684484,104.203099 114.00008,103.546609 113.129168,103.428377 C112.093203,103.362239 111.088203,103.782448 110.433574,104.555455 L112.151645,105.50258 C111.885047,105.88143 111.578954,105.966671 111.253113,105.758303 C111.109157,105.897123 110.950289,106.020939 110.779163,106.127682 C110.433574,106.175038 110.344708,105.862487 110.137354,105.549936 C109.781891,104.981661 109.209201,103.996652 110.07811,103.608331 L108.824116,103.44732 C109.284559,103.946863 109.589102,104.560647 109.7029,105.218442 C109.979371,106.459176 111.964039,105.928786 111.677694,104.688053 L111.697442,104.716466 Z" id="Path-Copy-11" fill="#AC4423" fill-rule="nonzero"></path>
                    <path d="M66.8548597,75.615926 C64.6637265,73.4393711 62.1007037,70.9082642 58.8843614,70.415831 C55.9191669,69.8269397 52.9248313,71.2878709 51.617438,73.9613503 C48.7026278,80.5205612 55.8388873,86.0850569 60.9046264,88.7343477 C62.0906526,89.3646623 63.1460149,87.5919026 61.9097334,86.961588 C58.0702247,84.9229144 53.3361709,81.8205849 53.1150474,77.1129231 C52.924077,72.9666352 57.2560881,71.3613028 60.6030943,73.1734571 C62.3618418,74.2586033 63.9526996,75.58526 65.3270971,77.1129231 C66.2718976,78.0485463 67.7594559,76.6007925 66.8046043,75.6553207 L66.8548597,75.615926 Z" id="Path-Copy-12" fill="#75361D" fill-rule="nonzero"></path>
                    <path d="M186.904214,114.296469 C191.062335,111.337888 199.568034,116.841051 199.428433,121.627288 C199.189117,129.947667 186.196237,128.342157 183.783131,122.172556 C183.154926,120.577143 180.592247,121.273874 181.220452,122.879384 C184.391393,130.957422 198.401367,133.401028 201.741824,124.0507 C204.543819,116.204906 192.059486,107.359454 185.568031,111.933643 C184.17202,112.943398 185.498231,115.245639 186.904214,114.256079 L186.904214,114.296469 Z" id="Path-Copy-13" fill="#75361D" fill-rule="nonzero"></path>
                    <path d="M184.855279,109.510069 C185.281811,114.739381 183.473885,119.907307 179.8645,123.776129 C178.716621,125.010692 180.583172,126.862537 181.741033,125.618176 C185.851764,121.262058 187.94988,115.434328 187.540318,109.510069 C187.430521,107.844389 184.765445,107.834591 184.885224,109.510069 L184.855279,109.510069 Z" id="Path-Copy-14" fill="#75361D" fill-rule="nonzero"></path>
                    <path d="M139.8193,46.5052486 C143.820904,41.5034776 147.822508,37.1719438 153.774894,34.721076 C159.467176,32.3902507 167.140252,29.5992625 173.37275,29.8793617 C176.674073,30.0394184 182.376359,33.0904987 182.836544,36.8818411 C183.316736,40.8332402 178.294723,46.2151459 176.223893,49.3462545 C171.421968,56.5488048 166.860139,63.9114118 162.148251,71.1839869 C159.837324,74.7452479 156.515993,80.9974617 151.273891,79.1868205 C147.272287,77.7963282 144.271084,73.7448937 141.850114,70.5137496 C139.429143,67.2826055 137.528381,64.0614649 137.418337,60.0300375 C137.318297,56.348734 138.888927,52.9375262 139.419139,49.336251 C139.909336,46.0350821 139.829304,39.8829038 135.597607,39.0426062 C131.736059,38.2723335 128.414728,42.4238034 126.52397,45.1447669 C123.702839,49.206205 120.591592,54.8482027 125.423529,58.6795593 C128.014567,60.6802677 132.78648,61.8506821 135.727659,59.9400056 C137.508373,58.7795947 135.847707,55.9385888 134.05699,57.0789926 C132.266272,58.2193964 129.115008,57.3790988 127.634415,56.1686702 C124.072987,53.247636 128.474752,47.6356489 130.76567,45.0347279 C131.435939,44.2744587 133.216653,42.193722 134.387122,42.323768 C136.608012,42.563853 136.387924,46.4652344 136.237864,48.025787 C135.92774,51.236924 134.617214,54.2479902 134.237062,57.4491236 C133.506769,63.5812949 136.137824,68.5430518 139.789287,73.2647236 C142.850515,77.2661405 148.642837,84.2686199 154.485179,83.0781984 C160.327521,81.8877769 164.119041,74.2450708 166.960179,69.8235052 C171.682072,62.4909088 176.333937,55.1182983 181.195886,47.8857374 C184.127061,43.5141895 187.988609,38.4724043 184.737306,33.3605943 C181.823899,28.7113428 176.505007,26.1414425 171.05182,26.748253 C164.358932,27.5448669 157.821597,29.3316772 151.654044,32.0501303 C145.651638,34.6610548 141.489969,39.1326381 137.448349,44.1844268 C136.137824,45.8350113 138.44875,48.1858437 139.799291,46.5252557 L139.8193,46.5052486 Z" id="Path-Copy-17" fill="#75361D" fill-rule="nonzero"></path>
                    <path d="M135.827905,39.2915087 C135.240132,29.6264375 133.626247,19.1717689 126.792139,11.7855356 C124.739914,9.57666201 121.332822,6.5482064 118.32422,8.97696783 C114.827468,11.7955305 114.25962,19.371667 113.094036,23.3696282 C109.995774,34.0641744 103.609967,47.3573954 106.787927,58.631646 C107.535096,61.2503106 108.780378,64.7385317 112.047999,64.6285878 C114.279544,64.5486286 116.102637,62.5696378 117.746409,61.3002851 L125.277876,55.5032414 C126.941572,54.2238938 125.277876,51.3453617 123.614179,52.6446991 L116.082713,58.4417428 C114.090261,60.0109426 112.267168,61.3002851 110.204981,58.5516868 C109.079246,57.0524513 109.208755,54.1439345 109.208755,52.2848826 C109.208755,44.2389857 112.924677,35.6833487 115.186109,28.0472428 L118.493579,16.6330635 C120.48603,9.63663143 125.058706,14.1843123 127.350025,18.0823245 C131.12572,24.4890573 132.092059,31.9952295 132.540361,39.2815138 C132.66987,41.4004332 135.967377,41.4104281 135.837868,39.2815138 L135.827905,39.2915087 Z" id="Path-Copy-18" fill="#75361D" fill-rule="nonzero"></path>
                    <path d="M161.999502,72.1308329 C165.300178,77.2345812 167.810698,82.8043854 169.446634,88.652939 C170.138075,91.3105676 170.665526,94.0078851 171.026025,96.7297492 C171.235944,98.2734059 171.125987,99.5083312 172.385502,100.524157 C172.928633,101.025688 173.730945,101.129601 174.384732,100.783093 C179.512757,97.7356158 179.052934,89.708601 178.083307,84.7091452 C176.687999,77.3630732 173.582665,70.4454754 169.016799,64.5121402 C167.737292,62.8489746 164.858401,64.5121402 166.1579,66.1753058 C169.46872,70.4018383 171.978769,75.1940793 173.565047,80.3171929 C174.884539,84.6493907 177.813411,94.8972793 172.715375,97.9347973 L174.714605,98.1837742 C173.774967,97.4468026 173.804955,93.0349322 173.575044,91.8896385 C173.030485,89.1218034 172.288896,86.3960901 171.355898,83.7331558 C169.698538,79.0749122 167.51183,74.6208166 164.838408,70.4577082 C163.698847,68.6750337 160.839948,70.3282403 161.979509,72.1308329 L161.999502,72.1308329 Z" id="Path-Copy-19" fill="#75361D" fill-rule="nonzero"></path>
                    <path d="M139.137667,50.0094185 C142.066761,49.9248263 144.934995,50.7489016 147.229759,52.334366 C148.11046,52.9381315 149.364164,51.865772 148.473102,51.2529951 C145.847481,49.3860066 142.538338,48.4010717 139.148028,48.4774762 C138.66163,48.4774763 138.267327,48.8204132 138.267327,49.2434473 C138.267327,49.6664815 138.66163,50.0094184 139.148028,50.0094185 L139.137667,50.0094185 Z" id="Path-Copy-20" fill="#75361D" fill-rule="nonzero"></path>
                    <path d="M137.701775,52.3620898 C138.938432,53.7178158 139.991903,55.2527467 140.831462,56.9221131 C141.317264,57.9243161 142.699931,57.0223334 142.204787,56.0602186 C141.297927,54.2611177 140.159441,52.6079585 138.822857,51.1494242 C138.103496,50.3677059 136.954387,51.5803715 137.701775,52.3620898 L137.701775,52.3620898 Z" id="Path-Copy-21" fill="#75361D" fill-rule="nonzero"></path>
                    <path d="M127.517034,44.6333657 C126.288885,43.313525 124.737078,42.4094036 123.048659,42.0299789 C122.092427,41.8154677 121.681336,43.4145517 122.646505,43.6290629 C124.08238,43.9321208 125.403923,44.6920764 126.444624,45.8131777 C127.150627,46.5542166 128.231974,45.3841551 127.52597,44.6333657 L127.517034,44.6333657 Z" id="Path-Copy-22" fill="#75361D" fill-rule="nonzero"></path>
                    <path d="M126.696216,46.8759658 L121.089143,47.8941388 C120.021604,48.0860895 120.470569,49.4547811 121.538108,49.2628305 L127.145181,48.2446574 C128.21272,48.0527068 127.763755,46.6840151 126.696216,46.8759658 Z" id="Path-Copy-23" fill="#75361D" fill-rule="nonzero"></path>
                    <path d="M100.621034,90.8882935 C99.6690648,90.6234169 99.0633296,89.7573226 99.1895737,88.8415589 C99.3215523,88.0587065 98.0220708,87.719156 97.8900923,88.5114404 C97.5911751,90.0903772 98.612384,91.6270437 100.265707,92.086152 C100.611834,92.1531776 100.954453,91.9588082 101.04839,91.6421315 C101.142328,91.3254547 100.955253,90.9954632 100.621034,90.8882935 L100.621034,90.8882935 Z" id="Path-Copy-24" fill="#75361D" fill-rule="nonzero"></path>
                    <path d="M97.2090858,91.4623292 C96.2836397,91.4972224 95.4187121,90.9439175 94.9687594,90.0291647 C94.5778939,89.2209892 93.481564,89.9429593 93.8819628,90.7511348 C94.5524162,92.11043 95.8325586,92.9396386 97.2090858,92.9062695 C97.5565823,92.9062695 97.8382838,92.5878569 97.8382838,92.195075 C97.8382838,91.8022932 97.5565823,91.4838806 97.2090858,91.4838806 L97.2090858,91.4623292 Z" id="Path-Copy-25" fill="#75361D" fill-rule="nonzero"></path>
                    <path d="M138.618174,102.262432 C137.627248,101.92474 137.04386,101.030671 137.219497,100.118893 C137.373763,99.3686545 136.067646,99.0471237 135.903096,99.7973622 C135.577937,101.32532 136.568373,102.834332 138.247936,103.369926 C139.070687,103.637869 139.43064,102.476785 138.618174,102.226706 L138.618174,102.262432 Z" id="Path-Copy-26" fill="#75361D" fill-rule="nonzero"></path>
                    <path d="M135.939586,102.881582 C135.014838,103.026148 134.124049,102.431193 133.79112,101.446629 C133.531514,100.638205 132.385666,100.981785 132.645272,101.800314 C133.171037,103.466248 134.681961,104.464018 136.226048,104.164955 C136.969059,104.023481 136.655741,102.740107 135.903778,102.881582 L135.939586,102.881582 Z" id="Path-Copy-27" fill="#75361D" fill-rule="nonzero"></path>
                    <path d="M105.143897,114.832743 C105.13243,115.92881 105.928617,116.876351 107.036284,117.084869 C108.351493,117.369832 109.496387,116.570097 110.470967,115.825517 C110.665136,115.651491 110.775578,115.406528 110.775578,115.149879 C110.775578,114.893229 110.665136,114.648267 110.470967,114.474241 C110.080704,114.115872 109.470325,114.115872 109.080062,114.474241 C108.82459,114.66728 107.026822,115.816324 107.093056,114.832743 C107.168751,113.600968 105.200669,113.61016 105.115512,114.832743 L105.143897,114.832743 Z" id="Path-Copy-28" fill="#75361D" fill-rule="nonzero"></path>
                    <path d="M109.163312,112.777489 C109.410196,114.623952 109.739374,116.579614 110.937217,118.009134 C111.927386,119.251809 113.462009,119.810979 114.942219,119.468435 C116.140062,119.190473 115.637151,117.195102 114.430164,117.482991 C111.851601,118.078624 111.257252,114.127591 111.001224,112.24142 C110.818348,110.921099 108.980436,111.486951 109.172456,112.787417 L109.163312,112.777489 Z" id="Path-Copy-29" fill="#75361D" fill-rule="nonzero"></path>
                    <path d="M126.829888,158.398965 C123.250566,156.544832 120.997616,153.22245 118.542418,150.154188 C116.331798,147.377694 113.48151,143.984723 109.634092,143.810604 C106.092398,143.650603 103.458468,146.535334 102.851724,149.843597 C102.1368,153.758925 103.924109,157.947197 105.565612,161.424874 C108.806286,168.300227 114.342241,174.512045 121.783091,176.803829 C128.838259,178.968554 137.130433,177.425011 141.909134,171.50496 C144.641836,168.116696 146.024649,163.904895 146.612579,159.636623 C147.228731,155.269526 147.805013,153.077401 145.505028,149.152661 C144.564339,147.529118 142.033886,148.997366 142.988685,150.625615 C144.738367,153.613876 144.237339,154.634227 143.893988,157.980138 C143.635922,161.257301 142.715862,164.447986 141.189507,167.359042 C137.977054,173.128504 131.575665,175.646172 125.197793,174.610869 C118.866955,173.57086 113.7402,169.33553 110.344312,164.041367 C108.638736,161.394104 107.297177,158.529126 106.355791,155.523646 C105.749046,153.589512 105.288109,151.49067 105.955998,149.518889 C106.661515,147.443577 108.505265,146.28592 110.659443,146.97769 C113.881303,148.012993 116.176585,151.867144 118.184956,154.389519 C120.193327,156.911893 122.418057,159.387209 125.367117,160.92134 C127.032136,161.78723 128.509018,159.264855 126.839295,158.398965 L126.829888,158.398965 Z" id="Path" fill="#783718" fill-rule="nonzero"></path>
                    <path d="M86.0202661,149.664891 C87.9307892,145.794977 89.7946512,141.690547 92.2281374,138.130122 C93.3304475,136.507057 94.9745159,134.443006 97.1366112,134.409838 C99.2987065,134.37667 100.732022,136.285461 101.371486,138.16154 C102.739104,142.143518 102.187277,147.293714 101.070594,151.266695 C99.9539111,155.239677 97.8005868,158.945463 94.5313665,161.539786 C87.9228716,166.780037 79.5875409,165.7635 73.8119856,159.85443 C68.5967135,154.498747 62.8657281,139.727507 65.9349046,132.255151 C66.6449732,130.524266 63.8432452,129.769537 63.1331796,131.48166 C60.0967029,138.878965 64.8051159,152.99839 69.2684652,158.963948 C73.5964203,164.7466 80.0913772,168.966997 87.5444694,167.76978 C95.1516668,166.549087 100.933726,160.605396 103.423799,153.494294 C105.502759,147.518343 106.933472,136.06405 100.293678,132.331482 C96.7403133,130.338591 93.0835864,132.402954 90.7856316,135.259791 C87.7357032,139.054835 85.6756011,143.876933 83.5361873,148.220618 C82.7093847,149.890545 85.2074676,151.367649 86.0342717,149.688341 L86.0202661,149.664891 Z" id="Path" fill="#783718" fill-rule="nonzero" transform="translate(83.664399, 149.244664) rotate(18.000000) translate(-83.664399, -149.244664) "></path>
                    <path d="M99.5109916,147.035806 C101.875181,147.035806 104.203597,146.860491 104.203597,144.770263 C104.203597,142.680036 105.036373,140.233024 101.973658,139.226449 C98.910943,138.219873 96.7231557,140.239933 95.0257512,141.868964 C93.3283468,143.497995 97.1468021,147.035806 99.5109916,147.035806 Z" id="Oval" fill="#975D38"></path>
                    <path d="M160.09901,149.459473 C164.411441,153.96513 166.567657,157.735279 166.567657,160.76992" id="Path-4" stroke="#75361D" stroke-width="2.42763158" stroke-linecap="round"></path>
                </g>
            </g>
        </g>
    </g>
</svg>