<?xml version="1.0" encoding="UTF-8"?>
<svg width="221px" height="194px" viewBox="0 0 221 194" version="1.1" xmlns="http://www.w3.org/2000/svg" xmlns:xlink="http://www.w3.org/1999/xlink">
    <title>卡樂猴 貼圖-19</title>
    <g id="Web" stroke="none" stroke-width="1" fill="none" fill-rule="evenodd">
        <g id="赫綵官網/首頁02_Normal-" transform="translate(-423.000000, -5001.000000)">
            <g id="卡樂猴-貼圖-19" transform="translate(533.500000, 5098.000000) scale(-1, 1) translate(-533.500000, -5098.000000) translate(423.000000, 5001.500000)">
                <ellipse id="Oval" fill="#E5E5E5" cx="133.454106" cy="186.60221" rx="84.3429952" ry="6.39779006"></ellipse>
                <g id="色" transform="translate(34.578588, 30.037102)" fill-rule="nonzero">
                    <path d="M46.702225,10.1247199 C46.702225,10.1247199 47.5565553,3.06256057 49.2168575,1.28697784 C51.8362664,-1.525031 56.1159775,0.84509074 57.7359811,2.9420459 C60.7180774,4.15522686 63.5712181,4.66942276 75.7091558,2.39571276 C87.8470935,0.122002753 126.711061,1.51193855 144.643937,34.6293684 C145.72394,37.2244508 147.311705,42.655645 147.311705,42.655645 C147.311705,42.655645 160.118599,37.0798332 169.58071,45.9256096 C179.042821,54.771386 180.147002,64.2036671 172.296835,73.1538895 C164.454728,82.0960776 155.863067,81.5336758 148.375588,79.0109022 C145.796477,77.998579 142.008409,76.2390649 142.008409,76.2390649 C142.008409,76.2390649 138.075266,89.1260997 119.908658,95.4410681 C122.270156,105.194722 123.712846,110.039411 126.485389,113.711091 C129.257933,117.382771 131.280922,125.352808 131.280922,125.352808 C131.280922,125.352808 137.503026,115.141199 145.44185,111.630205 C153.372614,108.127245 168.855335,101.997066 180.50969,112.393464 C192.164044,122.789863 182.250589,125.296568 180.058345,123.834323 C177.866102,122.372078 170.902504,115.197439 161.666065,117.51132 C152.437686,119.825202 142.951396,124.252107 139.11497,129.072694 C135.270484,133.89328 131.313161,136.777598 129.991367,138.770107 C128.669573,140.762616 128.17793,144.112924 128.17793,144.112924 C128.17793,144.112924 131.417938,147.125791 129.451366,152.299887 C127.484794,157.473983 115.54029,159.056742 107.625645,157.755184 C99.7110008,156.453626 89.1366487,156.40542 84.0026073,145.342174 C77.5467719,144.811909 53.9479129,140.609964 47.8708844,136.070579 C47.8628246,139.983288 46.9843152,143.920101 44.5099813,147.583746 C42.6078875,150.395755 35.4266773,152.974769 32.0496548,150.893882 C30.663383,150.042245 29.3335293,147.06955 31.9932368,143.711208 C27.4797938,140.915268 19.0493271,131.80436 21.7493332,121.689162 C24.4493392,111.573965 31.9448785,112.530048 32.9281642,113.229033 C32.6299546,108.030833 33.0571198,95.1759359 33.7260765,90.8454422 C31.2033843,88.1378794 6.46004511,69.7232387 1.74510915,56.9808215 C-2.96982681,44.2384043 3.2039184,43.9572034 4.65466792,44.1982327 C4.25974166,37.8511271 3.71168073,30.8693108 9.19229005,26.7959152 C14.6728994,22.7225195 22.0153039,20.4166723 30.6714428,29.0615909 C33.2183141,23.9517691 38.884297,16.1424188 42.9625151,13.4027188 C46.8070014,10.8397736 46.702225,10.1247199 46.702225,10.1247199 Z" id="Path" fill="#844A36"></path>
                    <path d="M27.2138231,37.7065095 C27.2138231,37.7065095 20.3872406,29.2624486 14.9549896,35.1837358 C9.52273855,41.105023 17.8887275,46.9218642 24.6347128,48.673344 C25.9484471,41.105023 24.8120266,41.7397336 27.2138231,37.7065095 Z" id="Path" fill="#EFDEC5"></path>
                    <path d="M148.375588,54.4259106 C148.375588,54.4259106 147.44066,62.8137313 146.360658,64.5652111 C149.713501,67.4495287 160.199196,72.9932033 163.108755,65.1758187 C166.018314,57.3664684 159.385165,53.0359748 153.880376,53.7349599 C148.375588,54.4259106 148.375588,54.4259106 148.375588,54.4259106 Z" id="Path" fill="#EFDEC5"></path>
                    <path d="M24.054413,51.6942449 C24.054413,51.6942449 26.7060607,40.7274104 40.866988,40.3497978 C44.1553536,34.050898 46.9520763,23.3411615 63.2488293,17.7894526 C79.5455824,12.2377437 98.0103999,10.9843912 111.276698,21.4450641 C124.542997,31.905737 123.825682,43.3948016 123.116426,48.673344 C122.399111,53.9599206 120.505077,57.3584341 120.505077,57.3584341 C120.505077,57.3584341 133.021822,61.7692708 133.65048,76.3836825 C134.279138,90.9980942 126.767479,92.4282015 126.767479,92.4282015 C126.767479,92.4282015 105.844447,100.076866 88.6530655,96.0436414 C79.4246866,89.23858 69.3258579,80.5454556 67.8025709,80.2883576 C66.2792839,80.039294 60.8873315,78.8984218 60.9276301,83.5663565 C60.9679287,88.2262569 63.2488293,92.6370936 63.2488293,92.6370936 C63.2488293,92.6370936 44.1553536,88.3548058 36.1923507,82.8111313 C28.2293477,77.2674567 22.789037,70.3338463 23.6756062,57.1013362 C24.054413,51.6942449 24.054413,51.6942449 24.054413,51.6942449 Z" id="Path" fill="#EFDEC5"></path>
                    <path d="M40.866988,40.3497978 C40.866988,40.3497978 52.2150732,43.0653949 53.7222408,51.8227939 C55.1729903,60.2507861 53.7222408,68.542195 48.829991,76.7693294 C44.7598326,83.6225967 40.1254938,84.0243122 38.2717583,84.096621 C36.4099631,84.1689298 22.5230663,75.7730749 23.5788895,62.2191923 C24.6347128,48.6653096 23.0550077,49.267883 31.0260704,43.274287 C35.9989174,39.9962881 40.866988,40.3497978 40.866988,40.3497978 Z" id="Path" fill="#EEB3AF"></path>
                    <path d="M122.221798,58.6599925 C122.221798,58.6599925 110.511025,53.7590628 102.685037,60.1142028 C94.5044219,66.758578 93.8193457,75.2026388 93.8193457,78.0548192 C93.8193457,80.9069996 94.0691971,87.0130759 98.5906997,91.5122901 C101.605035,94.509088 103.321755,95.59372 108.189826,96.678352 C116.636412,95.2402103 127.089868,94.9027693 129.749576,90.6365502 C132.409283,86.370331 137.341832,75.7971778 129.419127,64.2117014 C125.59076,60.3391635 122.221798,58.6599925 122.221798,58.6599925 Z" id="Path" fill="#EEB3AF"></path>
                    <path d="M69.1969024,64.2840102 C69.1969024,64.2840102 71.4697433,67.923553 73.7345245,68.7912586 C72.4207902,70.3900865 68.4795874,72.1415663 65.7795813,69.2251114 C65.0461468,67.1120876 65.3604759,65.6900146 65.3604759,65.6900146 C65.3604759,65.6900146 67.2867489,65.3043677 69.1969024,64.2840102 Z" id="Path" fill="#EEB3AF"></path>
                </g>
                <path d="M4.67260825,112.789853 C4.67260825,112.789853 5.25713798,119.727959 3.50354879,120.884311 C5.25713798,122.040662 9.93337585,122.618837 10.5179056,124.931539 C10.5179056,121.462486 11.1024353,118.571608 14.025084,116.837082 C10.5179056,115.102555 8.17978665,116.837082 4.67260825,112.789853 Z" id="Path" fill="#F5CB4A" fill-rule="nonzero"></path>
                <path d="M3.26485584,113.313346 C4.16469713,116.041662 3.25316959,119.04223 0.799056982,120.652574 C-1.0707431,121.874813 0.682194477,124.875381 2.56368081,123.641557 C6.27990847,121.202871 8.03284604,116.6383 6.63633911,112.392322 C5.9410072,110.283815 2.56368081,111.187461 3.26485584,113.313346 L3.26485584,113.313346 Z" id="Path" fill="#783718" fill-rule="nonzero"></path>
                <path d="M4.24650088,115.311794 C7.43100414,117.582494 11.2115062,118.683089 15.1264001,118.538274 C17.3701602,118.457177 17.3760033,114.993201 15.1264001,115.074297 C11.7549168,115.195942 8.74570732,114.269125 6.0111247,112.317018 C4.17638338,111.019475 2.43513205,114.020044 4.24650088,115.311794 L4.24650088,115.311794 Z" id="Path" fill="#783718" fill-rule="nonzero"></path>
                <path d="M1.96768203,123.884846 C4.76653903,123.629972 7.39010226,124.371425 9.51115673,126.242436 C11.1822906,127.719549 13.6656188,125.280864 11.9827987,123.792165 C9.21315734,121.347686 5.68975282,120.084899 1.96768203,120.42087 C-0.252705563,120.623611 -0.270234938,124.087587 1.96768203,123.884846 L1.96768203,123.884846 Z" id="Path" fill="#783718" fill-rule="nonzero"></path>
                <path d="M14.1739707,114.732534 C9.990293,117.026404 7.93935604,121.735791 8.89178545,126.335117 C9.34754922,128.518929 12.7131894,127.592112 12.2574256,125.414093 C11.6146818,122.315051 13.1747963,119.233386 15.9327514,117.721517 C17.9018846,116.644093 16.1431039,113.65511 14.1739707,114.732534 L14.1739707,114.732534 Z" id="Path" fill="#783718" fill-rule="nonzero"></path>
                <path d="M46.0085264,2.43518616 C46.0085264,2.43518616 46.672939,9.43391291 44.6154239,10.6066165 C46.666173,11.7674796 52.1421671,12.3350839 52.8201118,14.6666772 C52.8302608,11.1663272 53.5234291,8.24739533 56.9520571,6.48735318 C52.8488674,4.74901867 50.1049501,6.5070874 46.0085264,2.43518616 Z" id="Path" fill="#F5CB4A" fill-rule="nonzero" transform="translate(50.783741, 8.550932) scale(-1, 1) rotate(22.000000) translate(-50.783741, -8.550932) "></path>
                <path d="M50.8367286,1.70147326 C49.0954773,4.52247087 46.5887766,6.48037065 43.4042733,7.47669835 C41.6571789,8.02120302 41.8441589,10.2050143 43.4042733,10.8132376 C45.8817584,11.7806023 47.6171666,13.7616725 48.3943023,16.2582844 C49.0545754,18.3841696 52.4260587,17.474731 51.7599424,15.3372605 C50.5971605,11.5894464 47.9852835,8.90167866 44.3333302,7.47090575 C44.3333302,8.58308551 44.3333302,9.69526526 44.3333302,10.807445 C48.382616,9.54465759 51.6372368,7.03066793 53.8517813,3.43925413 C55.0262494,1.54507298 52.0111968,-0.198500496 50.8367286,1.70147326 L50.8367286,1.70147326 Z" id="Path" fill="#783718" fill-rule="nonzero"></path>
                <path d="M50.1706124,2.14750368 C51.2223749,5.99379201 54.0212319,8.78582661 57.8893808,9.87483595 C57.8893808,8.7626562 57.8893808,7.65047644 57.8893808,6.53829668 C53.1447631,7.46511314 49.4635942,11.2071346 48.7273604,15.957069 C48.3884592,18.1350877 51.7540993,19.079282 52.0930006,16.8780929 C52.6597837,13.2113752 55.1314257,10.5931187 58.8125946,9.87483595 C60.5655322,9.53307238 60.3843953,6.9785345 58.8125946,6.53829668 C56.1013845,5.7736731 54.2724863,3.92004017 53.5362525,1.22647982 C52.95194,-0.922575859 49.5804567,-0.0131372035 50.1706124,2.14750368 L50.1706124,2.14750368 Z" id="Path" fill="#783718" fill-rule="nonzero"></path>
                <g id="線" transform="translate(32.825907, 23.727089)" fill-rule="nonzero">
                    <path d="M45.546591,21.3730181 C47.4273573,20.2355862 49.0498209,18.8017812 50.1476073,16.8793611 C51.552128,14.4202654 50.8982994,11.5286252 52.528835,9.38993287 C54.272378,7.09904893 55.0795738,8.38867241 56.7343252,9.86252781 C57.4930893,10.5353748 58.2679973,11.0400101 59.1720567,11.504595 C61.2223341,12.5459059 63.4824824,13.0104907 65.7668466,13.0905915 C67.7364044,13.1626823 67.7364044,10.1268606 65.7668466,10.0547698 C63.8780083,9.99068915 61.8761627,9.59018497 60.2214112,8.64499509 C58.8895381,7.87602705 58.138846,6.65048425 56.8957644,5.81743554 C55.3540204,4.77612466 53.6104774,4.69602382 51.8830783,5.40091119 C50.0991755,6.12982881 49.0175331,7.47552287 48.5655034,9.30983204 C48.2184092,10.7196068 48.6058632,12.2094823 48.258769,13.6192571 C47.6937319,15.9181511 45.9582609,17.5762384 44.012919,18.7617308 C42.3258797,19.7710014 43.8595517,22.3983088 45.546591,21.3730181 L45.546591,21.3730181 Z" id="Path" fill="#783718"></path>
                    <path d="M26.5936329,63.0334634 C26.8600076,56.769578 31.041282,51.6911849 36.9418835,49.6085631 C38.9598731,48.8956657 41.3168849,49.0718875 43.229939,48.1667481 C45.1268492,47.2696187 45.5304471,45.47536 46.2892112,43.6730911 C51.4794804,31.2734815 64.2896782,25.9467759 76.8335014,23.4476298 C89.1674537,20.9885341 102.736416,22.5905508 112.7295,30.6967555 C122.440066,38.5786779 126.605196,52.3400017 120.5593,63.66626 C120.196061,64.3391071 120.333285,65.380418 121.108193,65.7408717 C132.796388,71.1957387 138.107737,85.8541919 129.559533,96.4275024 C128.340667,97.9333981 130.487808,100.096121 131.722818,98.5742048 C141.433384,86.5590793 136.323834,69.497601 122.649937,63.1135643 C122.835592,63.8024315 123.013175,64.4993087 123.19883,65.1881759 C133.369497,46.1081566 118.630102,25.8826952 99.572208,20.8283324 C88.0858113,17.7764905 75.7760749,19.6188098 64.8143555,23.7760432 C60.0922599,25.570302 55.418596,27.7250145 51.5440561,31.0011387 C47.5968684,34.3333335 45.6757424,38.4344964 43.3348745,42.8640727 C41.5832595,46.1722372 38.2333968,45.7957633 35.0853331,47.0693666 C32.978552,47.9264456 31.025138,49.1039279 29.3219548,50.6178337 C25.6895736,53.8539075 23.7280877,58.2194031 23.5262888,63.0254533 C23.4536411,64.9799138 26.5129133,64.9799138 26.5936329,63.0334634 L26.5936329,63.0334634 Z" id="Path" fill="#783718"></path>
                    <path d="M65.2179534,98.3579326 C48.7753744,94.5451327 28.3048881,88.353338 26.7066403,68.6245019 C26.0447398,60.4221761 28.119233,52.0756689 30.6215401,44.3138978 C33.4305816,35.5829066 37.7248634,27.1963489 45.2802164,21.6133206 C46.8381044,20.4598686 45.3205762,17.824551 43.7384724,18.9940232 C36.0136083,24.7052129 31.3480164,32.843458 28.2564563,41.7666912 C25.2052561,50.5857934 22.7352369,60.406156 23.7684475,69.7939741 C26.0366678,90.363869 46.9188239,97.2285108 64.4107576,101.281613 C66.3238117,101.722168 67.1390795,98.7984872 65.2179534,98.3579326 L65.2179534,98.3579326 Z" id="Path" fill="#783718"></path>
                    <path d="M66.1704445,13.034521 C83.7915295,8.47678333 102.744488,9.38993287 119.170923,17.632309 C132.497726,24.3207289 144.072914,34.9901604 147.527712,49.8568757 C147.664936,50.4496219 148.359124,51.034358 149.004881,50.9702774 C152.007649,50.6819144 154.703683,49.4563716 157.827531,49.592543 C161.597136,49.7527447 165.092294,51.1384891 168.224213,53.1650403 C174.568773,57.2662032 178.701615,64.0187037 176.764345,71.6523135 C175.166098,77.9562494 169.830533,82.898471 163.623197,84.6767096 C156.737817,86.6552003 150.724208,84.3563062 144.476512,81.6248677 C143.798468,81.3284946 142.732969,81.3525249 142.385875,82.1695534 C133.490577,102.811539 109.726732,103.027811 90.3055998,101.561966 C88.344114,101.417785 88.3521859,104.453606 90.3055998,104.597788 C110.776086,106.143734 135.702293,105.342726 145.025405,83.6994794 C144.331217,83.8837113 143.628956,84.0599331 142.934768,84.2441651 C150.344826,87.4802389 157.440077,89.9954052 165.528179,87.2639666 C172.284408,84.9810928 177.918635,79.3820443 179.718682,72.4613319 C181.752816,64.6434903 178.354521,57.1300317 172.155257,52.2438807 C169.079841,49.8248354 165.479748,47.8543548 161.61328,47.0453364 C159.474211,46.5967717 157.278638,46.43657 155.099209,46.628812 C153.008572,46.8130439 151.039014,47.7342036 149.004881,47.9344557 C149.49727,48.3029195 149.98966,48.6793934 150.482049,49.0478573 C146.865812,33.4602344 134.717514,22.029845 120.720739,15.0130116 C103.551683,6.40217165 83.8076734,5.3448406 65.3632487,10.1108404 C63.4582665,10.5994555 64.2654623,13.5311461 66.1704445,13.034521 L66.1704445,13.034521 Z" id="Path" fill="#783718"></path>
                    <path d="M33.0108398,35.0141906 C28.4501833,29.0386682 20.0634187,26.7317641 13.1457504,30.1200295 C5.69533287,33.7646176 2.71678026,42.8800928 5.05764817,50.4816623 C5.63075721,52.3480118 8.58509395,51.5470034 8.00391295,49.6726438 C6.16350645,43.6891113 8.10077645,36.5361065 13.7672912,33.2359521 C19.1916472,30.071969 26.6017049,31.6099051 30.3713094,36.5521267 C31.5417434,38.0900628 34.2054896,36.576157 33.0108398,35.0141906 L33.0108398,35.0141906 Z" id="Path" fill="#783718"></path>
                    <path d="M72.5069318,62.5768887 C72.0387582,61.6316988 71.3607137,60.9107912 70.4808702,60.3180451 C70.0853443,60.0537123 69.5848829,60.1978938 69.2458606,60.4782467 C67.9543473,61.5515979 68.2287939,63.3698869 69.181285,64.5633894 C70.0772723,65.6848011 71.6593762,67.1266162 73.0961847,65.9811742 C74.1132515,65.1721558 75.1383902,63.3058063 73.9275964,62.2324551 C72.9024577,61.3193055 71.1831306,61.847971 71.118555,63.2657559 C71.0701232,64.3070667 72.4988598,64.5794096 73.0154652,63.7784012 C73.1769043,63.5220785 73.3787033,63.3218264 73.5482144,63.0815239 C73.7903731,63.0094332 73.822661,62.9854029 73.6612218,62.993413 C73.5078546,62.9693828 73.435207,63.0574937 73.427135,63.2657559 C72.9993212,63.7303407 72.8943858,64.2109457 72.1679095,64.1148247 C70.8763962,63.9546231 70.8844682,65.9651541 72.1679095,66.1333658 C73.9760282,66.3656582 76.139313,64.0667642 75.5984918,62.2644954 C75.3401891,61.3913963 74.4119139,60.9188013 73.5320705,60.9908921 C72.466572,61.0709929 71.7885275,61.936082 71.2638502,62.7611206 C71.8934629,62.9293323 72.5230757,63.0975441 73.1607604,63.2737659 C72.9508895,63.8585021 72.7087307,63.9626331 72.4423561,63.5941693 C72.3374207,63.8344718 72.1921254,64.0507441 72.0064704,64.2429861 C71.8531032,64.4432382 71.8046714,64.4832886 71.877319,64.3631373 C71.6997359,64.234976 71.5221529,64.0907945 71.3687857,63.9305928 C70.8521803,63.4579979 69.9239051,62.5528584 70.6988131,61.9120517 C70.2871432,61.9681223 69.8754734,62.0161828 69.4638035,62.0722534 C70.0530565,62.4727576 70.4405105,62.9773928 70.7553168,63.6021794 C71.3284259,64.7556314 73.0881128,63.7383508 72.5069318,62.5768887 L72.5069318,62.5768887 Z" id="Path" fill="#B44623"></path>
                    <path d="M28.6519823,42.7118811 C26.0770276,40.7974711 23.0419713,38.5946981 19.6517488,38.8910712 C16.9476428,39.1233636 14.5341272,40.7734408 13.8560827,43.4568189 C12.1367556,50.26539 19.8374038,54.5587949 25.0841767,56.4411645 C26.3191863,56.8817191 26.8519356,54.9272587 25.6249979,54.4867041 C21.7020262,53.0849395 16.5844046,50.6578841 15.8256405,46.0921364 C15.2363876,42.5036189 18.3521635,40.1967148 21.7504579,41.077824 C23.8814549,41.6305198 25.8913726,43.184476 27.6187716,44.4660894 C28.6761982,45.2430675 29.6932649,43.4808491 28.6519823,42.7118811 L28.6519823,42.7118811 Z" id="Path" fill="#783718"></path>
                    <path d="M151.386108,62.9373424 C153.37181,61.0629828 157.407789,62.1443441 159.530714,63.1295844 C162.3559,64.4352281 165.03579,66.7100918 163.857284,70.1303976 C161.790863,76.10592 152.193304,75.3209318 149.376191,70.5228917 C148.38334,68.832764 145.743809,70.36269 146.73666,72.0528177 C151.111662,79.5021955 165.382884,79.3019434 167.126427,69.8099942 C168.619739,61.6797593 154.953914,55.3758234 149.230895,60.7826299 C147.794087,62.1443441 149.965444,64.2830365 151.386108,62.9373424 L151.386108,62.9373424 Z" id="Path" fill="#783718"></path>
                    <path d="M148.05239,58.307514 C149.16632,63.4179474 148.149253,68.3922094 145.235276,72.7256647 C144.145562,74.3597218 146.793164,75.8816377 147.874806,74.2555907 C151.240813,69.2412783 152.282096,63.3698869 150.998654,57.4984956 C150.586984,55.5920957 147.632648,56.4011141 148.05239,58.307514 L148.05239,58.307514 Z" id="Path" fill="#783718"></path>
                    <path d="M25.4554868,60.9668618 C21.548659,58.3635846 17.6418312,55.7683175 13.7350033,53.1650403 C11.4022074,51.6110841 8.74653311,49.2801497 5.72762071,49.5444825 C-1.1819756,50.1372287 -0.697658106,58.6439376 1.2961156,63.2257054 C4.37153171,70.2745791 10.4658602,76.6666259 15.7691368,82.1375131 C21.4598674,88.0089044 27.747923,93.231479 34.4718642,97.8933477 C36.0862559,99.0147594 37.619928,96.387452 36.0136083,95.2740503 C26.4725536,88.6657313 17.9001338,80.7757988 10.6353714,71.7484345 C8.69810136,69.3373993 6.74468745,66.8542734 5.19487146,64.1708953 C3.49976021,61.2472148 0.262904932,52.2198504 6.73661549,53.1490201 C9.95732686,53.613605 12.7582964,56.1608116 15.4462585,57.9550704 C18.2714439,59.8294299 21.0885574,61.7117996 23.9137428,63.5861592 C25.5523503,64.6755306 27.0860224,62.0482231 25.4554868,60.9668618 L25.4554868,60.9668618 Z" id="Path" fill="#783718"></path>
                    <path d="M91.823128,102.827559 C84.655229,97.8773275 78.3591016,91.9018051 71.3445698,86.8073919 C66.7596975,83.475197 60.9640314,85.4456776 60.9961849,91.5733917 C61.0286071,97.9814586 66.2511641,105.262625 70.0046247,110.148776 C74.2908346,115.739814 79.5133916,120.441733 85.430137,124.278563 C87.0848885,125.351915 88.6185606,122.724607 86.9718811,121.659266 C77.9312878,115.787875 70.6261655,107.609579 66.0655091,97.8613074 C65.3793926,96.387452 64.5479809,94.8495159 64.2654623,93.2394891 C63.6923533,90.0114253 65.8475662,86.7833616 69.3023643,89.0422052 C71.9338227,90.7723833 74.2343309,93.2474992 76.6801342,95.2500201 C81.0712795,98.8385376 85.6157921,102.218793 90.281384,105.446857 C91.8957756,106.568268 93.4294477,103.940961 91.823128,102.827559 L91.823128,102.827559 Z" id="Path" fill="#783718"></path>
                    <path d="M34.4395764,96.0510285 C32.6153138,105.75925 32.5103784,115.491502 34.1166981,125.231763 C34.4315044,127.154183 37.3777692,126.337155 37.0629629,124.422745 C35.5535067,115.243189 35.6665141,105.991542 37.3858412,96.8520368 C37.7490793,94.953647 34.8028145,94.1366184 34.4395764,96.0510285 L34.4395764,96.0510285 Z" id="Path" fill="#783718"></path>
                    <path d="M43.3590903,141.572334 C55.9432733,147.82821 69.358868,151.769171 83.3475718,153.355167 C85.3009857,153.57945 85.2848418,150.535618 83.3475718,150.319346 C69.9319771,148.79743 56.976484,144.952589 44.9008344,138.953037 C43.1492194,138.079938 41.5994034,140.699235 43.3590903,141.572334 L43.3590903,141.572334 Z" id="Path" fill="#783718"></path>
                    <path d="M84.8973878,141.828657 C81.8381156,147.371635 83.5978025,154.100105 88.1180991,158.36147 C93.9783409,163.888427 103.172301,165.282182 110.897165,165.882938 C117.524243,166.395584 127.719127,166.291452 132.013408,160.131698 C136.154323,154.196226 130.24565,149.165893 125.337899,146.498536 C123.6105,145.561356 122.060684,148.180653 123.796155,149.117833 C125.951368,150.287305 128.63933,151.624989 129.785548,153.915873 C131.39994,157.119907 128.808841,159.739204 126.096663,161.052858 C120.535084,163.760266 113.262249,163.263641 107.313216,162.438602 C102.227882,161.741725 96.7873824,160.724444 92.4365968,157.864844 C87.7064293,154.748922 84.5906534,148.701309 87.5369181,143.350573 C88.4894092,141.644425 85.8498789,140.106489 84.8973878,141.828657 L84.8973878,141.828657 Z" id="Path" fill="#783718"></path>
                    <path d="M120.083054,102.483126 C120.640019,106.480157 121.624798,110.341018 123.190758,114.073717 C124.772862,117.838456 127.105658,121.10657 128.954136,124.727128 C132.893252,132.448849 132.570374,141.452183 128.348739,148.989672 C127.388176,150.695819 130.035779,152.233756 130.98827,150.519598 C134.78209,143.751077 135.887948,135.765023 133.676232,128.283605 C132.425078,124.062291 129.914699,120.569895 127.832134,116.733065 C125.273323,112.023135 123.771939,106.960762 123.037391,101.674107 C122.771016,99.7516871 119.816679,100.568716 120.083054,102.483126 L120.083054,102.483126 Z" id="Path" fill="#783718"></path>
                    <path d="M134.870882,132.833333 C140.198374,123.397454 149.682925,116.660974 160.515493,115.026917 C165.826842,114.225908 171.493356,114.698503 176.401107,116.973367 C178.645112,118.014678 180.743821,119.440473 182.398572,121.282792 C183.367207,122.356143 184.626433,123.95816 184.989671,125.424005 C186.22468,130.422298 181.809319,128.628039 179.62989,127.026022 C172.227905,121.563145 162.598058,121.402943 154.219366,124.727128 C144.524944,128.579978 137.324757,136.630112 130.5766,144.215662 C129.277015,145.673497 131.432227,147.82821 132.739885,146.362364 C141.772406,136.221598 152.750269,124.254533 167.75604,125.600227 C171.92117,125.976701 175.319465,127.586728 178.604752,130.077864 C180.283719,131.351467 182.220989,132.729202 184.473065,132.176506 C188.57362,131.159225 188.823851,126.345165 187.354755,123.165162 C182.753738,113.208628 169.548015,110.54127 159.708297,112.103236 C148.141181,113.937545 137.946298,121.202691 132.239423,131.303407 C131.262716,133.001545 133.902247,134.539481 134.870882,132.833333 L134.870882,132.833333 Z" id="Path" fill="#783718"></path>
                    <path d="M94.6079536,60.8547207 C93.6151028,59.9816215 95.2940701,59.7172888 95.9640426,59.9415711 C96.7712384,60.213914 97.3766353,60.982882 96.674375,61.7358299 C96.093194,62.3526063 94.729033,62.2644954 94.6644573,61.2311946 C94.6402415,60.8066602 94.9469759,60.3661056 95.4312934,60.4381963 C96.1416257,60.5423274 95.5604447,60.9508417 95.4151495,61.3433358 C95.2617822,61.5435879 95.1003431,61.74384 94.9469759,61.944092 C94.9066161,61.9521021 94.8581843,61.9601122 94.8178245,61.9681223 C94.5756658,61.8720013 94.333507,61.7678702 94.0994203,61.6717492 C94.0913483,61.6397089 94.0752044,61.6076685 94.0671324,61.5676181 C94.0994203,61.3112954 94.1317081,61.0469627 94.1720679,60.79064 C94.147852,60.8547207 94.1155642,60.9107912 94.0913483,60.9748719 C94.2931472,60.8226803 94.4949462,60.6624787 94.6967452,60.5102871 C94.6079536,60.5263072 94.527234,60.5503375 94.4384425,60.5663576 C94.6967452,60.598398 94.9631198,60.6304383 95.2214225,60.6704887 C95.6088765,60.9027812 95.5604447,59.7893795 95.5443008,59.7012686 C95.495869,59.3488249 95.3425018,58.9883712 95.0599833,58.7480686 C94.5110901,58.2754737 93.6958223,58.299504 93.0742815,58.6199073 C91.5890412,59.3808653 91.3953142,61.4234366 92.2993735,62.6730097 C94.4707303,65.6767911 100.306756,64.6595104 99.9273741,60.4942669 C99.6044958,56.9457998 94.5756658,55.4479142 92.3235894,58.203383 C91.2177311,59.5570871 91.1854433,61.7678702 92.0491428,63.2417256 C93.0177778,64.8837928 95.1003431,65.3243474 96.8681019,64.9398634 C99.1040344,64.4512482 100.242181,62.5848987 100.008094,60.3821257 C99.7901509,58.2914939 98.1838312,56.7295276 96.0205463,57.0979914 C94.729033,57.3222737 95.2779262,59.2687241 96.5613675,59.0524518 C97.7237295,58.8521997 98.0627518,60.3580955 97.9981761,61.1911442 C97.9093846,62.2164349 97.3362755,62.7931609 96.3192088,62.9854029 C95.4232214,63.1616248 94.333507,63.0414735 93.8007578,62.2164349 C93.3002964,61.4474669 93.3406562,60.0697325 93.962197,59.3888753 C95.0438394,58.211393 97.2878438,58.8201594 97.8044491,60.2619745 C98.6197169,62.5608685 95.0761272,63.0254533 94.0025568,61.5275677 C93.7281102,61.1430837 93.954125,60.9668618 93.8572615,60.598398 C93.5263112,59.3328048 93.4052318,60.2940148 93.3487281,60.7025291 C93.2680085,61.3353257 93.4052318,61.8800114 93.9379811,62.2725055 C94.9631198,63.0334634 96.4160723,62.0642433 95.9559707,60.8387005 C95.5765886,59.8134098 94.147852,59.6131577 93.5505271,60.5583476 C92.8563387,61.6477189 93.8653335,62.9453525 95.0680552,62.7851508 C97.8367369,62.416687 96.464504,57.730788 93.962197,59.2927543 C92.8886265,59.9656014 92.9128424,61.5435879 93.8249737,62.3445962 C94.8501124,63.2497357 96.5532956,63.0094332 97.4089232,62.0001626 C99.3058334,59.741319 95.7622437,57.4984956 93.7281102,58.9483207 C91.2258031,60.7265593 93.2760805,64.3391071 95.9963305,64.1628852 C99.3381212,63.946613 100.040382,59.6211678 97.0779729,58.2194031 C95.8106754,57.6186468 93.9299091,57.538546 92.9047704,58.6519476 C91.9361354,59.7012686 92.1217905,61.3753761 93.1630731,62.2885256 C94.147852,63.1456046 95.5927325,61.7198097 94.6079536,60.8547207 L94.6079536,60.8547207 Z" id="Path" fill="#783718"></path>
                    <path d="M58.2357095,52.5803042 C54.8212711,51.7312353 54.5387526,57.3302838 57.3800819,58.2674636 C58.6635233,58.6919981 60.1164758,57.9791006 60.7057287,56.8016183 C61.3676293,55.4719444 60.7380166,53.8619176 59.5191509,53.0849395 C58.1549899,52.2118403 56.7101094,52.6283647 56.1450723,54.1342604 C55.6446109,55.4639343 56.1289284,57.2021225 57.7352481,57.4023746 C59.1962725,57.5866065 60.3586345,55.8724486 59.8339572,54.5507848 C59.3173519,53.2611613 57.4365856,53.2050907 56.7423972,54.3745629 C56.007849,55.6081158 57.1137073,57.1700822 58.4940122,57.1220217 C59.8985329,57.0819712 60.842952,55.5440352 60.4232102,54.2544117 C59.9873244,52.9167277 58.3729328,52.2278605 57.0894914,52.7805563 C55.8302659,53.3172319 55.2167971,54.7990974 55.6526828,56.0727007 C56.7101094,59.2286737 61.3030536,58.0592015 61.5936441,55.0554201 C61.8761627,52.0756689 57.953191,50.5137026 55.9513453,52.6363748 C53.5539737,55.1755713 55.8706257,59.1485728 59.2124164,58.8842401 C63.0143088,58.5798569 62.8609416,53.3572823 59.8420292,52.0035782 C58.6554513,51.4749126 57.6141687,53.2131008 58.8168905,53.7497764 C59.6160144,54.1102302 60.2294832,54.8791982 60.1084038,55.8003578 C59.9631086,56.9778402 58.7038831,57.0899813 57.8482555,56.5613158 C55.9674892,55.3918436 57.8321116,52.5082134 59.2850641,54.0541596 C60.0034684,54.8151176 59.1962725,56.2409124 58.1549899,55.9205091 C57.7271761,55.7923478 57.4123697,55.3517932 57.6303126,54.9192486 C57.7917518,54.6068554 58.4132926,54.4306335 58.5020841,54.9032285 C58.1227021,55.5039847 57.9612629,55.6001058 58.0177666,55.1755713 C57.9935507,55.0393999 58.0177666,54.9032285 58.0904142,54.7830772 C58.2679973,54.5908352 58.2114936,54.6388957 58.5020841,54.8151176 C58.9379699,55.0874604 59.107481,55.7122469 58.7442429,56.0967309 C57.4930893,57.4344149 57.3235782,54.4146134 57.7110322,54.5107344 C58.9621857,54.8471579 59.5110789,52.9007075 58.2357095,52.5803042 L58.2357095,52.5803042 Z" id="Path" fill="#783718"></path>
                    <path d="M69.5445231,69.7699438 C70.2871432,73.3584613 73.0719689,76.2260713 76.6317025,77.1472309 C77.8989999,77.4756443 78.4478931,75.529194 77.1725237,75.1927705 C74.2585467,74.4398226 72.1114058,72.1489387 71.5060089,69.2332682 C71.2477063,67.9596649 69.2781485,68.4963405 69.5445231,69.7699438 L69.5445231,69.7699438 Z" id="Path" fill="#783718"></path>
                    <path d="M70.0530565,70.3066194 C69.0521336,71.1636984 67.7202605,71.5722127 66.4045313,71.3719606 C65.1210899,71.1797186 64.5641248,73.1261689 65.8637101,73.326421 C67.9462753,73.6388143 69.8916173,73.1101487 71.489865,71.7404244 C72.4827159,70.8833455 71.0378354,69.4575506 70.0530565,70.3066194 L70.0530565,70.3066194 Z" id="Path" fill="#783718"></path>
                    <path d="M66.0977969,72.6776042 C65.500472,75.1366999 66.7758414,77.4756443 69.1489971,78.396804 C71.8934629,79.4621451 74.6460007,78.2766527 76.8092856,76.5705049 C77.8344243,75.7614864 76.3895437,74.3356915 75.364405,75.1366999 C74.0728917,76.1539805 72.5311477,76.9389687 70.8360364,76.7307066 C69.0440617,76.5064242 67.5991811,75.1126697 68.0592828,73.2062697 C68.3740891,71.9486866 66.4126033,71.412011 66.0977969,72.6776042 L66.0977969,72.6776042 Z" id="Path" fill="#783718"></path>
                    <path d="M33.8583954,118.559364 C26.1577472,117.822436 21.9441849,126.208994 21.734314,132.809303 C21.4760114,140.771326 27.2071018,147.9003 33.9471869,151.520858 C35.674586,152.450028 37.224402,149.83073 35.488931,148.901561 C30.4843168,146.210173 26.3756901,141.748556 25.1083926,136.109457 C23.865311,130.566479 26.6904964,120.906318 33.8583954,121.587175 C35.8118093,121.779417 35.8037374,118.743596 33.8583954,118.559364 L33.8583954,118.559364 Z" id="Path" fill="#783718"></path>
                    <path d="M36.6351491,149.053752 C33.0431276,148.316825 30.4762449,151.136374 30.7668354,154.700861 C31.041282,158.153207 33.3982938,159.546962 36.6270771,159.410791 C40.6226965,159.242579 45.0542016,158.345449 47.7986674,155.213507 C50.4381978,152.185695 51.5844158,147.227453 50.9144433,143.342563 C50.583493,141.420143 47.6372282,142.237171 47.9681785,144.151581 C48.6946548,148.340855 46.4264345,153.763682 42.3339516,155.349678 C40.711488,155.982475 38.9356572,156.190737 37.2163301,156.342928 C36.0539681,156.44706 35.488931,156.647312 34.6010156,155.798243 C33.7776758,155.013255 33.1319192,151.432747 35.8279532,151.985443 C37.7490793,152.369927 38.5643471,149.446246 36.6351491,149.053752 L36.6351491,149.053752 Z" id="Path" fill="#783718"></path>
                    <path d="M95.1407029,58.1953729 C94.6563854,58.7560787 94.0752044,59.1806132 93.3890879,59.452956 C93.2599366,59.5010165 93.179217,59.6772384 93.3002964,59.7893795 C93.8895493,60.3180451 94.2447155,60.9588518 94.3657949,61.7358299 C94.4061547,61.9921525 94.7936087,61.8800114 94.7532489,61.6316988 C94.6160256,60.79064 94.2204996,60.0777425 93.5828149,59.5090266 C93.5505271,59.6211678 93.5263112,59.7333089 93.4940234,59.8454501 C94.2527875,59.5410669 94.8904722,59.1005123 95.4232214,58.4837359 C95.5927325,58.2834838 95.310214,57.9951208 95.1407029,58.1953729 L95.1407029,58.1953729 Z" id="Path" fill="#FFFFFF"></path>
                    <path d="M95.2214225,58.2754737 C95.2375664,59.068472 95.8268193,59.4849963 96.472576,59.83744 C96.472576,59.7252989 96.472576,59.6051476 96.472576,59.4930064 C95.5200849,59.9175409 94.7693928,60.6144182 94.2608594,61.5195576 C94.3900107,61.5515979 94.5110901,61.5836383 94.6402415,61.6236887 C94.7128891,60.7986501 95.1810627,60.1338131 95.9156109,59.7493291 C96.085122,59.6612182 96.0205463,59.4369358 95.8671791,59.3808653 C95.1568468,59.1085224 94.6321695,59.6051476 94.2204996,60.1338131 C94.3254351,60.213914 94.4303705,60.2940148 94.535306,60.3741156 C94.7613208,59.9415711 95.1487748,59.7172888 95.4070775,59.3408148 C95.512013,59.1886233 95.5846606,59.0124014 95.4635812,58.8441897 C95.3667177,58.7080182 95.2294944,58.6759779 95.0841992,58.7160283 C94.6240975,58.8441897 94.6725293,59.452956 94.0590605,59.5090266 C93.9137652,59.5250468 93.8007578,59.6692283 93.8814774,59.8134098 C94.0025568,60.021672 94.1317081,60.2379442 94.2527875,60.4462064 C94.3819388,60.6704887 94.729033,60.4702366 94.5998817,60.2459543 C94.4788023,60.0376921 94.349651,59.8214199 94.2285716,59.6131577 C94.1720679,59.7172888 94.1155642,59.8134098 94.0509885,59.9175409 C94.4626584,59.8774905 94.8501124,59.6772384 95.0680552,59.3087745 C95.2940701,58.9242905 94.7936087,59.3408148 94.6563854,59.4769863 C94.4545864,59.6852484 94.3012192,59.925551 94.1720679,60.1818736 C94.0752044,60.3741156 94.341579,60.6144182 94.4868742,60.4221761 C94.7936087,60.029682 95.1891346,59.5650972 95.7460997,59.7733594 C95.7299558,59.6532081 95.7138119,59.5330569 95.697668,59.4048955 C94.8258965,59.8534602 94.3092912,60.6624787 94.2204996,61.6236887 C94.2043557,61.8239408 94.5030182,61.8880215 94.5998817,61.7278198 C95.0761272,60.8787509 95.7783876,60.2459543 96.666303,59.8454501 C96.8035263,59.7813694 96.7873824,59.5650972 96.666303,59.5010165 C96.1658416,59.2286737 95.6250204,58.9323006 95.6088765,58.2914939 C95.6169484,58.019151 95.2133505,58.019151 95.2214225,58.2754737 L95.2214225,58.2754737 Z" id="Path" fill="#FFFFFF"></path>
                    <path d="M57.8724714,52.4521429 C57.5334491,52.940758 57.0814195,53.2932016 56.5244543,53.5014638 C56.4114469,53.5415142 56.3226554,53.6776857 56.403375,53.7978369 C56.7504692,54.286452 56.9199803,54.8071075 56.9199803,55.4078637 C56.9199803,55.6641864 57.3235782,55.6641864 57.3235782,55.4078637 C57.3235782,54.7430268 57.1379232,54.1422705 56.7504692,53.5975848 C56.7101094,53.6937058 56.6697496,53.7898268 56.6293898,53.8939579 C57.2912904,53.6376352 57.8159677,53.2371311 58.2195656,52.660405 C58.3729328,52.4441328 58.0258386,52.2438807 57.8724714,52.4521429 L57.8724714,52.4521429 Z" id="Path" fill="#FFFFFF"></path>
                    <path d="M57.7756079,52.8366269 C58.0661984,53.3733025 58.4778682,53.7657966 59.0186894,54.0461495 C59.0186894,53.9340083 59.0186894,53.8138571 59.0186894,53.7017159 C58.138846,54.1743109 57.4123697,54.8391478 56.8715485,55.6721965 C56.9926279,55.720257 57.1137073,55.7763276 57.2428586,55.8243881 C57.4930893,55.1034806 57.9209031,54.5027243 58.5343719,54.0461495 C58.6393074,53.9660487 58.6715952,53.8298773 58.5747317,53.7337563 C58.138846,53.2771815 57.4608015,54.190331 57.2024988,54.4306335 C57.3155062,54.478694 57.4285137,54.5267545 57.549593,54.574815 C57.5818809,54.286452 57.8078957,53.613605 57.5092332,53.3813126 C57.3397221,53.2531512 57.0572036,53.3172319 56.9603401,53.5094739 C56.8554046,53.7257462 57.0006999,53.9900789 57.2186427,54.0701798 C57.5980248,54.2063512 57.8805433,53.8539075 58.0339105,53.5655445 C58.1549899,53.3412621 57.8078957,53.133 57.6868163,53.3652924 C57.5415211,53.4774336 57.3881539,53.5815647 57.2428586,53.6937058 C57.2347867,53.805847 57.2186427,53.9179882 57.2105708,54.0221193 C57.1944269,54.2063512 57.170211,54.3905831 57.1540671,54.574815 C57.1379232,54.759047 57.3800819,54.8231276 57.5011613,54.7189965 C57.5738089,54.6549159 58.2679973,53.9820688 58.3083571,54.0221193 C58.324501,53.9179882 58.332573,53.8138571 58.3487169,53.709726 C57.6464565,54.2303814 57.1540671,54.9032285 56.8715485,55.7282671 C56.7989009,55.9525494 57.1217792,56.0646906 57.2428586,55.8804587 C57.751392,55.1034806 58.4213645,54.4947142 59.2447043,54.0541596 C59.3738556,53.9820688 59.3738556,53.7738067 59.2447043,53.709726 C58.7523148,53.4614134 58.4052206,53.1169798 58.146918,52.6363748 C57.9935507,52.4120924 57.6464565,52.6123445 57.7756079,52.8366269 L57.7756079,52.8366269 Z" id="Path" fill="#FFFFFF"></path>
                    <path d="M57.565737,53.4534033 C57.5738089,53.4934537 57.5899528,53.5415142 57.5980248,53.5815647 C57.4930893,53.8138571 57.8401835,54.0221193 57.945119,53.7818168 C58.0258386,53.5895747 58.0339105,53.4293731 57.9128312,53.2531512 C57.759464,53.0448891 57.4123697,53.2451411 57.565737,53.4534033 L57.565737,53.4534033 Z" id="Path" fill="#FFFFFF"></path>
                    <path d="M96.7308787,62.1683744 C96.658231,62.3606164 96.5129358,62.4967878 96.3272807,62.5688786 C96.1981294,62.6169391 96.1093379,62.7931609 96.2384892,62.9053021 C96.4402882,63.0815239 96.5452236,63.2577458 96.5936554,63.5140685 C96.6340152,63.7143205 96.9326776,63.6983004 96.9811094,63.5140685 C97.0376131,63.2977962 97.1909803,63.1536147 97.4250671,63.1456046 C97.634938,63.1375945 97.7156576,62.7931609 97.4815708,62.7531105 C97.2797718,62.7210702 97.1183327,62.5768887 97.1102607,62.3686265 C97.0941168,62.1042937 96.7389506,62.1203139 96.7066628,62.3686265 C96.6824469,62.5608685 96.658231,62.7531105 96.6340152,62.9533626 C96.6017273,63.2096853 97.0053252,63.2096853 97.0376131,62.9533626 C97.0618289,62.7611206 97.0860448,62.5688786 97.1102607,62.3686265 C96.9730374,62.3686265 96.8438861,62.3686265 96.7066628,62.3686265 C96.7308787,62.7611206 96.9730374,63.0735138 97.3766353,63.1375945 C97.3927792,63.0094332 97.4089232,62.8732618 97.433139,62.7451004 C97.0214692,62.7691307 96.7066628,63.0094332 96.6017273,63.4099374 C96.7308787,63.4099374 96.86003,63.4099374 96.9891813,63.4099374 C96.9246057,63.089534 96.7793104,62.8332113 96.5290797,62.6249492 C96.4967919,62.7370903 96.472576,62.8492315 96.4402882,62.9613727 C96.7793104,62.8332113 96.9972533,62.6169391 97.1264046,62.2805156 C97.2151962,62.032203 96.8277422,61.9280719 96.7308787,62.1683744 L96.7308787,62.1683744 Z" id="Path" fill="#FFFFFF"></path>
                    <path d="M58.8653222,56.1768318 C58.720027,56.4651948 58.5424439,56.7054973 58.3002852,56.9217696 C58.2034217,57.0018704 58.2276375,57.1780922 58.340645,57.2341628 C58.5585878,57.346304 58.6958111,57.4904855 58.8007466,57.7067578 C58.913754,57.9390502 59.2608482,57.7387981 59.1478408,57.5065057 C59.0106175,57.2341628 58.8088185,57.0339107 58.5424439,56.8897292 C58.5585878,56.9938603 58.5666598,57.0979914 58.5828037,57.2021225 C58.8491783,56.9698301 59.0590492,56.6974872 59.2124164,56.3770839 C59.3334958,56.1447914 58.9864016,55.9445394 58.8653222,56.1768318 L58.8653222,56.1768318 Z" id="Path" fill="#FFFFFF"></path>
                    <path d="M58.8088185,56.296983 C58.9621857,56.6013662 59.1962725,56.7936082 59.5272228,56.8977393 C59.494935,56.7855981 59.4707191,56.673457 59.4384313,56.5613158 C59.1155529,56.9137595 58.9460418,57.3302838 58.9379699,57.8108889 C59.0671212,57.7788485 59.1882006,57.7468082 59.3173519,57.7067578 C59.1801286,57.4103847 59.1316969,57.1140116 59.1801286,56.7855981 C59.2204884,56.5372855 58.8330344,56.4251444 58.7926746,56.6814671 C58.7280989,57.1220217 58.7765307,57.5065057 58.9702577,57.9070099 C59.0590492,58.0912418 59.3415678,57.9951208 59.3496397,57.8028788 C59.3577117,57.4264048 59.4787911,57.1140116 59.7290218,56.8416687 C59.8339572,56.7295276 59.7855255,56.5533057 59.6402302,56.5052452 C59.4061434,56.4331545 59.2689202,56.296983 59.1639847,56.0887209 C59.0429053,55.8644385 58.6877392,56.0727007 58.8088185,56.296983 L58.8088185,56.296983 Z" id="Path" fill="#FFFFFF"></path>
                    <path d="M27.8609304,3.71879361 C28.1676648,4.84821541 28.7246299,5.84947588 29.5076099,6.722575 C29.9434956,7.21119011 30.6618999,6.49028257 30.2260142,6.00967755 C29.5641136,5.26473977 29.104012,4.40766081 28.8457093,3.45446085 C28.6761982,2.82166424 27.6914193,3.09400708 27.8609304,3.71879361 L27.8609304,3.71879361 Z" id="Path" fill="#783718"></path>
                    <path d="M32.776753,1.89249453 C33.0834874,2.70952307 33.3982938,3.5265516 33.7050282,4.35159022 C33.931043,4.9523465 34.9158219,4.69602382 34.6898071,4.07924738 C34.3830727,3.26221884 34.0682663,2.4451903 33.7615319,1.62015168 C33.5274451,1.0193954 32.5426662,1.27571808 32.776753,1.89249453 L32.776753,1.89249453 Z" id="Path" fill="#783718"></path>
                    <path d="M37.5472804,0.626901303 C37.7732952,1.45193992 37.8459428,2.3010088 37.7167915,3.15007767 C37.619928,3.79088437 38.6047069,4.06322721 38.7015704,3.42242052 C38.8549376,2.38911972 38.8145778,1.37183909 38.5320593,0.362568541 C38.3544762,-0.270228072 37.3696973,-0.00589530932 37.5472804,0.626901303 L37.5472804,0.626901303 Z" id="Path" fill="#783718"></path>
                    <path d="M149.82822,18.2570955 C149.513414,18.6575997 149.190536,19.0581039 148.875729,19.4666182 C148.472131,19.9712534 149.190536,20.692161 149.594134,20.1795156 C149.90894,19.7790114 150.231818,19.3785073 150.546625,18.969993 C150.950223,18.4653577 150.231818,17.7444502 149.82822,18.2570955 L149.82822,18.2570955 Z" id="Path" fill="#783718"></path>
                    <path d="M153.048932,19.4185577 C152.742197,19.6268198 152.427391,19.8270719 152.120657,20.0353341 C151.579835,20.3957879 152.088369,21.268887 152.637262,20.9084332 C152.943996,20.7001711 153.258803,20.499919 153.565537,20.2916568 C154.106358,19.931203 153.597825,19.0581039 153.048932,19.4185577 L153.048932,19.4185577 Z" id="Path" fill="#783718"></path>
                    <path d="M156.148564,22.4944298 C155.938693,22.5985609 155.736894,22.702692 155.527023,22.798813 C154.93777,23.087176 155.454375,23.9602751 156.043628,23.6719121 C156.253499,23.567781 156.455298,23.4636499 156.665169,23.3675289 C157.24635,23.0791659 156.729745,22.2060668 156.148564,22.4944298 L156.148564,22.4944298 Z" id="Path" fill="#783718"></path>
                </g>
            </g>
        </g>
    </g>
</svg>