<?xml version="1.0" encoding="utf-8"?>
<!-- Generator: Adobe Illustrator 24.0.1, SVG Export Plug-In . SVG Version: 6.00 Build 0)  -->
<svg version="1.1"
	 id="Layer_1" inkscape:version="0.91 r13725" sodipodi:docname="Adobe_1993.svg" xmlns:cc="http://creativecommons.org/ns#" xmlns:dc="http://purl.org/dc/elements/1.1/" xmlns:inkscape="http://www.inkscape.org/namespaces/inkscape" xmlns:rdf="http://www.w3.org/1999/02/22-rdf-syntax-ns#" xmlns:sodipodi="http://sodipodi.sourceforge.net/DTD/sodipodi-0.dtd" xmlns:svg="http://www.w3.org/2000/svg"
	 xmlns="http://www.w3.org/2000/svg" xmlns:xlink="http://www.w3.org/1999/xlink" x="0px" y="0px" viewBox="0 0 835.2 276.1"
	 style="enable-background:new 0 0 835.2 276.1;" xml:space="preserve">
<style type="text/css">
	.st0{fill:#FFFFFF;}
</style>
<sodipodi:namedview  bordercolor="#666666" borderopacity="1" gridtolerance="10" guidetolerance="10" id="namedview21" inkscape:current-layer="Layer_1" inkscape:cx="531.06511" inkscape:cy="643.92575" inkscape:pageopacity="0" inkscape:pageshadow="2" inkscape:window-height="705" inkscape:window-maximized="1" inkscape:window-width="1366" inkscape:window-x="-8" inkscape:window-y="-8" inkscape:zoom="0.35355339" objecttolerance="10" pagecolor="#ffffff" showgrid="false">
	</sodipodi:namedview>
<g id="g4156">
	<path id="path5" inkscape:connector-curvature="0" class="st0" d="M111.4,171.5l-9.7-57.6c-2.8-16.6-6.3-42.5-9-60.5h-1.1
		c-2.8,18.1-6.8,44.8-9.7,60.7l-10.5,57.5H111.4z M66.2,209.1L53.5,273H6.8L65.1,7.1h57.2L175.2,273h-46.9l-12.4-63.9H66.2z"/>
	<path id="path7" inkscape:connector-curvature="0" class="st0" d="M281.5,154.2c0-3.5,0-7.7-0.7-11.5c-1.9-13.1-8.8-25-20.1-25
		c-19.3,0-26.4,27.8-26.4,60.2c0,37.3,10.1,58.6,25.7,58.6c7.1,0,15.3-3.7,19.8-19.3c1.1-3.1,1.7-7.3,1.7-12.2V154.2z M329.4,0
		v217.8c0,17.3,0.9,38.5,1.6,55.1h-41.4l-2.7-22.2h-1c-7,13.7-22.1,25.3-40.2,25.3c-39.6,0-59.3-43.7-59.3-99
		c0-67.3,29.3-100,61.3-100c16.7,0,27.5,8.2,33,20h0.8V0L329.4,0L329.4,0z"/>
	<path id="path9" inkscape:connector-curvature="0" class="st0" d="M429.2,239.3c18.3,0,22.8-34.5,22.8-63
		c0-27.1-4.5-62.5-23.6-62.5c-20.2,0-24.5,35.4-24.5,62.5c0,32.8,5.3,63,24.9,63H429.2z M428.3,276.1c-44.2,0-71.9-35.5-71.9-98.9
		c0-69.3,35.6-100,73-100c43.6,0,70.9,37.2,70.9,98.9c0,79.3-42.8,100-71.6,100H428.3z"/>
	<path id="path11" inkscape:connector-curvature="0" class="st0" d="M575,204.2c0,4.8,0.9,9.3,1.9,12.3c4.8,16.1,13,20.1,19.5,20.1
		c18.5,0,26-23.5,26-61c0-34.2-7.9-57.7-26.2-57.7c-9.1,0-16.7,9.9-19.4,20.5c-0.9,3.3-1.8,8.5-1.8,12.1V204.2z M527,0h47.9v100.4
		h0.8c9.4-14.8,22-23.3,40.3-23.3c36.1,0,54.3,41.1,54.3,94.8c0,67.9-27.1,104.2-62.1,104.2c-16.7,0-27.8-7.4-37.9-26.2h-1
		l-2.7,23.1h-41.1c0.7-16,1.6-37.8,1.6-55.1V0L527,0z"/>
	<path id="path13" inkscape:connector-curvature="0" class="st0" d="M785.1,158.2c0.2-27.1-7.7-46-22.9-46
		c-17.3,0-24.7,25.4-25.2,46H785.1z M736.8,192.1c0.6,34.9,18.9,46.2,41.6,46.2c14.4,0,26.8-3.2,35.9-6.6l6.5,34.5
		c-12.7,5.5-32.3,8.9-51.1,8.9c-51.4,0-79.5-35.1-79.5-95.2c0-64.4,32.6-103.1,75.1-103.1c41.1,0,63.9,34.2,63.9,90
		c0,12.8-0.5,20-1.4,25.6L736.8,192.1L736.8,192.1z"/>
</g>
</svg>
