<?xml version="1.0" encoding="utf-8"?>
<!-- Generator: Adobe Illustrator 17.0.0, SVG Export Plug-In . SVG Version: 6.00 Build 0)  -->
<!DOCTYPE svg PUBLIC "-//W3C//DTD SVG 1.1//EN" "http://www.w3.org/Graphics/SVG/1.1/DTD/svg11.dtd">
<svg version="1.1" id="圖層_1" xmlns="http://www.w3.org/2000/svg" xmlns:xlink="http://www.w3.org/1999/xlink" x="0px" y="0px"
	 width="103.361px" height="83.528px" viewBox="0 0 103.361 83.528" enable-background="new 0 0 103.361 83.528"
	 xml:space="preserve">
<g>
	<defs>
		<path id="SVGID_1_" d="M50.74,30.444c-8.408,0-15.222,6.818-15.222,15.222c0,8.408,6.814,15.222,15.222,15.222
			c8.406,0,15.222-6.814,15.222-15.222C65.962,37.261,59.145,30.444,50.74,30.444 M91.332,15.222H79.154
			c-1.674,0-3.479-1.299-4.007-2.888l-3.148-9.447C71.468,1.299,69.666,0,67.992,0H33.488c-1.674,0-3.479,1.299-4.007,2.888
			l-3.148,9.447c-0.531,1.588-2.333,2.887-4.007,2.887H10.148C4.567,15.222,0,19.789,0,25.37v45.666
			c0,5.581,4.566,10.148,10.148,10.148h81.184c5.581,0,10.148-4.566,10.148-10.148V25.37C101.48,19.788,96.913,15.222,91.332,15.222
			 M50.74,71.036c-14.011,0-25.37-11.359-25.37-25.37c0-14.01,11.359-25.37,25.37-25.37c14.009,0,25.37,11.36,25.37,25.37
			C76.11,59.677,64.749,71.036,50.74,71.036 M87.78,32.466c-1.961,0-3.552-1.589-3.552-3.552c0-1.961,1.591-3.552,3.552-3.552
			c1.963,0,3.552,1.591,3.552,3.552C91.332,30.877,89.742,32.466,87.78,32.466"/>
	</defs>
	<use xlink:href="#SVGID_1_"  overflow="visible" fill-rule="evenodd" clip-rule="evenodd"/>
	<clipPath id="SVGID_2_">
		<use xlink:href="#SVGID_1_"  overflow="visible"/>
	</clipPath>
	<rect x="-20.222" y="-20.222" clip-path="url(#SVGID_2_)" width="141.925" height="121.629"/>
</g>
</svg>
