<?xml version="1.0" encoding="utf-8"?>
<!-- Generator: Adobe Illustrator 17.0.0, SVG Export Plug-In . SVG Version: 6.00 Build 0)  -->
<!DOCTYPE svg PUBLIC "-//W3C//DTD SVG 1.1//EN" "http://www.w3.org/Graphics/SVG/1.1/DTD/svg11.dtd">
<svg version="1.1" id="圖層_1" xmlns="http://www.w3.org/2000/svg" xmlns:xlink="http://www.w3.org/1999/xlink" x="0px" y="0px"
	 width="103.361px" height="83.528px" viewBox="0 0 103.361 83.528" enable-background="new 0 0 103.361 83.528"
	 xml:space="preserve">
<g>
	<defs>
		<path id="SVGID_1_" d="M100.307,37.815L54.046,0.893c-1.738-1.387-4.208-1.375-5.933,0.029L4.069,36.777
			c-1.103,0.898-1.743,2.244-1.743,3.666c0,0.324,0.035,0.643,0.099,0.955c-0.065,0.311-0.099,0.634-0.099,0.965v22.41
			c0,2.611,2.116,4.727,4.727,4.727s4.727-2.116,4.727-4.727V50.389l10.206,8.31v17.485c0,1.699,0.912,3.268,2.389,4.108
			c1.477,0.841,3.291,0.824,4.752-0.044c0.05-0.03,4.983-2.846,12.241-3.255l8.69,4.435c0.675,0.344,1.411,0.517,2.149,0.517
			c0.703,0,1.407-0.157,2.057-0.471l9.124-4.41c1.557-0.289,3.065-0.435,4.492-0.435c5.929,0,8.845,2.484,9.222,2.83
			c1.292,1.467,3.29,1.913,5.126,1.23c1.851-0.688,3.011-2.532,3.011-4.506V57.121l15.051-11.904
			c1.13-0.894,1.791-2.255,1.795-3.697C102.088,40.078,101.433,38.714,100.307,37.815z M67.88,67.175
			c-2.234,0-4.572,0.248-6.951,0.737c-0.382,0.078-0.753,0.204-1.105,0.374l-7.56,3.654l-7.695-3.927
			c-0.666-0.34-1.402-0.516-2.148-0.516c-0.031,0-0.061,0-0.092,0.001c-4.241,0.082-7.952,0.826-10.889,1.694V58.845
			c2.728-1.673,9.379-4.776,21.16-4.776c8.461,0,14.503,1.646,18.081,3.027c2.554,0.986,4.245,1.977,5.105,2.54v8.667
			C73.602,67.638,70.972,67.175,67.88,67.175z M78.579,50.335c-4.553-2.42-13.119-5.72-25.979-5.72
			c-13.252,0-21.452,3.417-25.675,5.914L14.539,40.444l36.588-29.785l38.632,30.833L78.579,50.335z"/>
	</defs>
	<use xlink:href="#SVGID_1_"  overflow="visible" fill-rule="evenodd" clip-rule="evenodd"/>
	<clipPath id="SVGID_2_">
		<use xlink:href="#SVGID_1_"  overflow="visible"/>
	</clipPath>
	<rect x="-11.355" y="-13.819" clip-path="url(#SVGID_2_)" width="127.12" height="109.444"/>
</g>
</svg>
