<svg width="193" height="72" viewBox="0 0 193 72" fill="none" xmlns="http://www.w3.org/2000/svg">
<g clip-path="url(#clip0_1450_1016)">
<path d="M55.5873 23.161H55.5643C50.3505 14.876 41.1581 9.31896 30.6738 9.16642V6.61938H29.7877V9.16642C13.5172 9.4041 0.351562 22.6625 0.351562 38.9274C0.351562 55.1923 13.5172 68.4525 29.7895 68.6884V71.9981H30.6756V68.6884C46.9479 68.4507 60.1135 55.1923 60.1135 38.9274C60.1135 33.1558 58.4547 27.7637 55.5891 23.1964V23.1592L55.5873 23.161ZM30.6756 27.001H54.5258V46.0932C52.6916 41.2811 48.0342 37.8543 42.5901 37.8543C37.1459 37.8543 32.5258 41.2563 30.6756 46.0382V27.0028V27.001ZM42.5883 38.7412C49.1419 38.7412 54.4744 44.0783 54.4744 50.6374C54.4744 57.1966 49.1419 62.5337 42.5883 62.5337C36.0347 62.5337 30.7022 57.1966 30.7022 50.6374C30.7022 44.0783 36.0347 38.7412 42.5883 38.7412ZM54.524 23.1805V25.9386H30.6738V10.0533C40.6495 10.2023 49.4201 15.3957 54.524 23.1805ZM29.7895 10.0533V26.1532L16.5565 37.9554L4.37976 25.8605C9.11329 16.6071 18.708 10.22 29.7895 10.0533ZM1.23766 38.9274C1.23766 34.6262 2.18756 30.5413 3.88886 26.8715L16.5175 39.4152L29.7895 27.5775V67.8033C14.0063 67.5657 1.23766 54.7063 1.23766 38.9292V38.9274ZM30.6756 55.2384C32.5258 60.0203 37.1671 63.4223 42.5901 63.4223C43.9706 63.4223 45.3015 63.1988 46.5474 62.7908C42.0105 65.8789 36.5522 67.7146 30.6756 67.8033V55.2384ZM59.2274 38.9274C59.2274 44.002 57.9054 48.7733 55.5891 52.9202V24.9329C57.9054 29.0816 59.2274 33.8529 59.2274 38.9256V38.9274Z" fill="white"/>
<path d="M30.2329 2.13383C30.8212 2.13383 31.2997 1.65671 31.2997 1.06606C31.2997 0.475418 30.823 -0.00170898 30.2329 -0.00170898C29.6427 -0.00170898 29.166 0.475418 29.166 1.06606C29.166 1.65671 29.6427 2.13383 30.2329 2.13383Z" fill="white"/>
<path d="M79.0444 15.6317H79.0763L83.4235 25.5414H83.8825L88.1677 15.6317H88.1996V25.5414H89.2452V14.2979H87.7548L83.661 23.7304L79.5672 14.2979H77.9971V25.5414H79.0444V15.6317Z" fill="white"/>
<path d="M97.7036 14.2979H96.6562V25.5414H97.7036V14.2979Z" fill="white"/>
<path d="M106.27 15.6955H106.302L113.141 25.5414H114.489V14.2979H113.442V24.1437H113.41L106.571 14.2979H105.223V25.5414H106.27V15.6955Z" fill="white"/>
<path d="M131.276 19.4754H127.532V20.4279H130.229V24.2076C129.795 24.4613 129.315 24.6369 128.785 24.7309C128.255 24.8267 127.69 24.8746 127.087 24.8746C126.357 24.8746 125.699 24.7468 125.111 24.4932C124.524 24.2396 124.025 23.8901 123.612 23.4449C123.199 22.9997 122.882 22.4765 122.66 21.8734C122.438 21.2704 122.327 20.6194 122.327 19.9206C122.327 19.2218 122.438 18.5708 122.66 17.9677C122.882 17.3647 123.199 16.8397 123.612 16.3962C124.025 15.951 124.524 15.6016 125.111 15.348C125.698 15.0943 126.357 14.9666 127.087 14.9666C127.394 14.9666 127.705 15.0003 128.023 15.0695C128.34 15.1387 128.645 15.2345 128.935 15.3551C129.226 15.4775 129.495 15.6247 129.745 15.8003C129.995 15.9759 130.202 16.1621 130.373 16.3643L131.135 15.5697C130.109 14.5321 128.76 14.0142 127.089 14.0142C126.233 14.0142 125.446 14.1632 124.732 14.4594C124.018 14.7556 123.406 15.1653 122.899 15.6903C122.392 16.2153 121.995 16.8361 121.71 17.5562C121.425 18.2764 121.281 19.0657 121.281 19.9224C121.281 20.7791 121.425 21.5719 121.71 22.2974C121.995 23.0228 122.392 23.6472 122.899 24.1704C123.406 24.6936 124.018 25.1016 124.732 25.3925C125.446 25.6834 126.231 25.8288 127.089 25.8288C127.819 25.8288 128.535 25.7525 129.238 25.5982C129.942 25.4457 130.621 25.1832 131.276 24.8125V19.4772V19.4754Z" fill="white"/>
<path d="M145.129 19.2536H139.844V15.2503H145.524V14.2979H138.797V25.5414H139.844V20.2061H145.129V19.2536Z" fill="white"/>
<path d="M152.094 22.5562H158.043L159.265 25.5414H160.438L155.709 14.2979H154.63L149.727 25.5414H150.822L152.091 22.5562H152.094ZM155.125 15.4419L157.664 21.6037H152.507L155.125 15.4419Z" fill="white"/>
<path d="M175.767 25.5414V14.2979H174.72V24.1437H174.688L167.851 14.2979H166.502V25.5414H167.549V15.6955H167.579L174.418 25.5414H175.767Z" fill="white"/>
<path d="M188.81 19.4754V20.4279H191.507V24.2076C191.073 24.4613 190.593 24.6369 190.063 24.7309C189.533 24.8267 188.968 24.8746 188.365 24.8746C187.635 24.8746 186.978 24.7468 186.389 24.4932C185.803 24.2396 185.303 23.8901 184.89 23.4449C184.477 22.9997 184.16 22.4765 183.938 21.8734C183.717 21.2704 183.605 20.6194 183.605 19.9206C183.605 19.2218 183.717 18.5708 183.938 17.9677C184.16 17.3647 184.477 16.8397 184.89 16.3962C185.303 15.951 185.803 15.6016 186.389 15.348C186.976 15.0943 187.635 14.9666 188.365 14.9666C188.672 14.9666 188.984 15.0003 189.301 15.0695C189.618 15.1387 189.923 15.2345 190.214 15.3551C190.504 15.4775 190.774 15.6247 191.024 15.8003C191.273 15.9759 191.481 16.1621 191.651 16.3643L192.413 15.5697C191.387 14.5321 190.038 14.0142 188.367 14.0142C187.511 14.0142 186.724 14.1632 186.01 14.4594C185.296 14.7556 184.684 15.1653 184.178 15.6903C183.671 16.2153 183.274 16.8361 182.988 17.5562C182.703 18.2764 182.56 19.0657 182.56 19.9224C182.56 20.7791 182.703 21.5719 182.988 22.2974C183.274 23.0228 183.671 23.6472 184.178 24.1704C184.684 24.6936 185.296 25.1016 186.01 25.3925C186.724 25.6834 187.509 25.8288 188.367 25.8288C189.097 25.8288 189.813 25.7525 190.517 25.5982C191.22 25.4457 191.899 25.1832 192.555 24.8125V19.4772H188.81V19.4754Z" fill="white"/>
<path d="M79.1538 33.3545H78.1064V44.598H79.1538V33.3545Z" fill="white"/>
<path d="M95.9416 44.598V33.3545H94.8942V43.2003H94.8623L88.0234 33.3545H86.6748V44.598H87.7222V34.7522H87.7541L94.593 44.598H95.9416Z" fill="white"/>
<path d="M110.841 33.3545H102.114V34.307H105.953V44.598H107V34.307H110.841V33.3545Z" fill="white"/>
<path d="M118.059 39.2627H123.517V38.3084H118.059V34.307H123.883V33.3545H117.012V44.598H124.136V43.6455H118.059V39.2627Z" fill="white"/>
<path d="M130.863 44.598H131.911V39.2627H133.862L137.02 44.598H138.209L134.941 39.1988C135.248 39.1563 135.57 39.0818 135.909 38.9771C136.247 38.8707 136.557 38.7093 136.837 38.4929C137.117 38.2765 137.35 37.9927 137.536 37.6433C137.72 37.2939 137.814 36.8487 137.814 36.3095C137.814 35.8235 137.734 35.4102 137.576 35.0714C137.417 34.7327 137.217 34.4524 136.974 34.2289C136.731 34.0072 136.456 33.8369 136.148 33.7199C135.841 33.6028 135.54 33.5194 135.244 33.4662C134.948 33.413 134.673 33.3811 134.418 33.3705C134.165 33.3598 133.963 33.3545 133.816 33.3545H130.865V44.598H130.863ZM131.911 34.307H134.131C134.681 34.307 135.127 34.3761 135.473 34.5127C135.817 34.6511 136.084 34.8196 136.274 35.0218C136.463 35.2222 136.593 35.4404 136.662 35.6727C136.731 35.9051 136.765 36.1179 136.765 36.3077C136.765 36.4975 136.731 36.7103 136.662 36.9427C136.593 37.1751 136.463 37.3932 136.274 37.5936C136.084 37.7941 135.817 37.9644 135.473 38.1027C135.129 38.241 134.682 38.3084 134.131 38.3084H131.911V34.307Z" fill="white"/>
<path d="M145.764 33.3545H144.717V44.598H145.764V33.3545Z" fill="white"/>
<path d="M162.55 34.7433C162.041 34.22 161.431 33.8085 160.717 33.5123C160.003 33.2161 159.218 33.0671 158.36 33.0671C157.502 33.0671 156.717 33.2161 156.003 33.5123C155.289 33.8085 154.678 34.2183 154.171 34.7433C153.664 35.2683 153.267 35.8891 152.982 36.6092C152.696 37.3294 152.553 38.1187 152.553 38.9754C152.553 39.8321 152.696 40.6249 152.982 41.3503C153.267 42.0758 153.664 42.7001 154.171 43.2234C154.678 43.7466 155.289 44.1546 156.003 44.4455C156.717 44.7363 157.502 44.8818 158.36 44.8818C159.218 44.8818 160.003 44.7363 160.717 44.4455C161.431 44.1546 162.043 43.7466 162.55 43.2234C163.057 42.7001 163.454 42.074 163.739 41.3503C164.024 40.6249 164.168 39.8338 164.168 38.9754C164.168 38.1169 164.024 37.3294 163.739 36.6092C163.454 35.8891 163.057 35.2665 162.55 34.7433ZM162.787 40.93C162.566 41.533 162.248 42.058 161.835 42.5015C161.423 42.9449 160.923 43.2961 160.336 43.5497C159.75 43.8034 159.09 43.9311 158.36 43.9311C157.63 43.9311 156.973 43.8034 156.384 43.5497C155.798 43.2961 155.298 42.9467 154.885 42.5015C154.472 42.0563 154.155 41.533 153.933 40.93C153.712 40.3269 153.6 39.676 153.6 38.9771C153.6 38.2783 153.712 37.6273 153.933 37.0243C154.155 36.4212 154.472 35.8962 154.885 35.4528C155.298 35.0076 155.798 34.6582 156.384 34.4045C156.971 34.1509 157.63 34.0232 158.36 34.0232C159.09 34.0232 159.748 34.1509 160.336 34.4045C160.925 34.6582 161.423 35.0076 161.835 35.4528C162.248 35.898 162.566 36.4212 162.787 37.0243C163.009 37.6273 163.12 38.2783 163.12 38.9771C163.12 39.676 163.009 40.3269 162.787 40.93Z" fill="white"/>
<path d="M176.005 38.9754C176.343 38.869 176.653 38.7076 176.933 38.4912C177.213 38.2748 177.445 37.991 177.631 37.6416C177.816 37.2922 177.91 36.847 177.91 36.3078C177.91 35.8218 177.83 35.4085 177.672 35.0697C177.513 34.731 177.312 34.4507 177.07 34.2272C176.827 34.0055 176.552 33.8352 176.244 33.7182C175.937 33.6011 175.636 33.5177 175.34 33.4645C175.044 33.4113 174.769 33.3794 174.514 33.3687C174.261 33.3581 174.059 33.3528 173.912 33.3528H170.961V44.5963H172.008V39.261H173.959L177.118 44.5963H178.307L175.039 39.1971C175.345 39.1546 175.668 39.0801 176.006 38.9754H176.005ZM172.007 38.3085V34.307H174.227C174.776 34.307 175.223 34.3762 175.569 34.5128C175.912 34.6511 176.18 34.8196 176.37 35.0218C176.559 35.2223 176.689 35.4404 176.758 35.6728C176.827 35.9051 176.861 36.118 176.861 36.3078C176.861 36.4976 176.827 36.7104 176.758 36.9428C176.689 37.1751 176.559 37.3933 176.37 37.5937C176.18 37.7941 175.912 37.9644 175.569 38.1028C175.225 38.2411 174.778 38.3085 174.227 38.3085H172.007Z" fill="white"/>
<path d="M87.2386 56.2069C87.1163 55.7936 86.9267 55.3626 86.6679 54.9121C86.4092 54.4615 86.0547 54.0518 85.6046 53.6811C85.1545 53.3104 84.5909 53.0053 83.9139 52.7676C83.2369 52.53 82.4111 52.4111 81.4382 52.4111H77.9629V63.6547H81.4382C82.4111 63.6547 83.2369 63.5358 83.9139 63.2981C84.5909 63.0605 85.1545 62.7554 85.6046 62.3847C86.0547 62.014 86.4092 61.6042 86.6679 61.1537C86.9267 60.7032 87.118 60.2722 87.2386 59.8589C87.3608 59.4457 87.437 59.0732 87.4689 58.7397C87.5008 58.4063 87.5168 58.1704 87.5168 58.0338C87.5168 57.8972 87.5008 57.6613 87.4689 57.3278C87.437 56.9944 87.3608 56.6219 87.2386 56.2086V56.2069ZM86.0565 60.1214C85.7818 60.7085 85.4061 61.1927 84.9294 61.5741C84.4527 61.9554 83.8927 62.2392 83.2476 62.4237C82.6025 62.6099 81.9096 62.7022 81.1688 62.7022H79.0103V53.3654H81.1688C81.9096 53.3654 82.6025 53.4576 83.2476 53.6439C83.8927 53.8301 84.4527 54.1121 84.9294 54.4935C85.4061 54.8748 85.78 55.359 86.0565 55.9461C86.3312 56.5332 86.4694 57.2303 86.4694 58.0338C86.4694 58.8373 86.3312 59.5343 86.0565 60.1214Z" fill="white"/>
<path d="M95.3532 58.3176H100.812V57.3651H95.3532V53.3636H101.177V52.4111H94.3076V63.6547H101.432V62.7004H95.3532V58.3176Z" fill="white"/>
<path d="M113.102 58.2076C112.673 57.9859 112.209 57.8085 111.706 57.6755C111.202 57.5425 110.738 57.3899 110.309 57.2143C109.88 57.0405 109.524 56.801 109.239 56.4995C108.953 56.198 108.81 55.767 108.81 55.2047C108.81 54.8446 108.879 54.5325 109.016 54.2682C109.152 54.0039 109.335 53.784 109.563 53.6084C109.79 53.4345 110.058 53.3015 110.364 53.2111C110.671 53.1206 110.993 53.0763 111.332 53.0763C111.819 53.0763 112.239 53.1685 112.594 53.3547C112.948 53.5392 113.258 53.8177 113.522 54.1884L114.426 53.5374C114.045 53.0284 113.593 52.6665 113.069 52.4501C112.546 52.2337 111.977 52.1238 111.364 52.1238C110.887 52.1238 110.433 52.1894 109.999 52.3224C109.565 52.4555 109.182 52.6506 108.849 52.9095C108.516 53.1685 108.252 53.4913 108.055 53.878C107.858 54.2646 107.761 54.7063 107.761 55.2047C107.761 55.7333 107.842 56.1785 108.007 56.5385C108.17 56.8986 108.39 57.1984 108.666 57.436C108.941 57.6737 109.251 57.867 109.595 58.016C109.939 58.165 110.293 58.2963 110.658 58.4133C111.023 58.5304 111.378 58.6457 111.722 58.7628C112.065 58.8798 112.376 59.0199 112.65 59.1831C112.925 59.3481 113.145 59.5556 113.31 59.811C113.473 60.0647 113.556 60.3875 113.556 60.7795C113.556 61.1182 113.49 61.4233 113.357 61.6929C113.224 61.9625 113.045 62.1931 112.819 62.3829C112.592 62.5727 112.324 62.7217 112.018 62.8281C111.711 62.9345 111.383 62.9877 111.034 62.9877C110.474 62.9877 109.974 62.8707 109.535 62.6383C109.095 62.4059 108.739 62.0512 108.464 61.5741L107.465 62.241C107.91 62.8547 108.443 63.291 109.067 63.5518C109.691 63.8107 110.373 63.9402 111.114 63.9402C111.569 63.9402 112.007 63.871 112.431 63.7344C112.854 63.5979 113.226 63.3939 113.549 63.1225C113.871 62.8529 114.128 62.5212 114.318 62.1292C114.508 61.7373 114.603 61.2867 114.603 60.7795C114.603 60.0806 114.46 59.5325 114.174 59.1352C113.889 58.7379 113.531 58.4293 113.104 58.2058L113.102 58.2076Z" fill="white"/>
<path d="M122.47 52.4111H121.423V63.6547H122.47V52.4111Z" fill="white"/>
<path d="M135.513 58.5412H138.211V62.3209C137.776 62.5746 137.296 62.7502 136.766 62.8442C136.236 62.9399 135.671 62.9878 135.068 62.9878C134.338 62.9878 133.681 62.8601 133.092 62.6065C132.506 62.3528 132.006 62.0034 131.593 61.5582C131.18 61.113 130.863 60.5898 130.641 59.9867C130.42 59.3837 130.308 58.7327 130.308 58.0339C130.308 57.335 130.42 56.6841 130.641 56.081C130.863 55.478 131.18 54.953 131.593 54.5095C132.006 54.0643 132.506 53.7149 133.092 53.4613C133.679 53.2076 134.338 53.0799 135.068 53.0799C135.375 53.0799 135.687 53.1136 136.004 53.1828C136.321 53.252 136.626 53.3477 136.917 53.4684C137.207 53.5907 137.477 53.738 137.727 53.9136C137.977 54.0892 138.184 54.2754 138.354 54.4776L139.116 53.683C138.09 52.6454 136.741 52.1274 135.07 52.1274C134.214 52.1274 133.427 52.2764 132.713 52.5726C131.999 52.8688 131.388 53.2786 130.881 53.8036C130.374 54.3286 129.977 54.9494 129.692 55.6695C129.406 56.3896 129.263 57.179 129.263 58.0357C129.263 58.8924 129.406 59.6852 129.692 60.4106C129.977 61.1361 130.374 61.7604 130.881 62.2837C131.388 62.8069 131.999 63.2149 132.713 63.5058C133.427 63.7966 134.212 63.9421 135.07 63.9421C135.8 63.9421 136.516 63.8658 137.22 63.7115C137.923 63.559 138.602 63.2965 139.258 62.9258V57.5905H135.513V58.5429V58.5412Z" fill="white"/>
<path d="M154.997 62.257H154.965L148.128 52.4111H146.779V63.6547H147.827V53.8088H147.857L154.696 63.6547H156.044V52.4111H154.997V62.257Z" fill="white"/>
</g>
<defs>
<clipPath id="clip0_1450_1016">
<rect width="192.203" height="72" fill="white" transform="translate(0.351562)"/>
</clipPath>
</defs>
</svg>
