<?xml version="1.0" encoding="UTF-8"?>
<svg width="74px" height="75px" viewBox="0 0 74 75" version="1.1" xmlns="http://www.w3.org/2000/svg" xmlns:xlink="http://www.w3.org/1999/xlink">
    <title>Group 7</title>
    <g id="Web" stroke="none" stroke-width="1" fill="none" fill-rule="evenodd">
        <g id="赫綵官網/首頁02_Normal-" transform="translate(-436.000000, -9259.000000)">
            <g id="Group-21" transform="translate(163.000000, 9259.500000)">
                <g id="Group-7" transform="translate(273.000000, -0.000000)">
                    <rect id="Rectangle-Copy-4" x="0" y="0" width="73.4349776" height="73.6"></rect>
                    <g id="Group-2-Copy" transform="translate(9.680321, 9.600000)">
                        <path d="M2.78790293,54.3960464 L2.53121658,54.3967976 C2.49050185,54.3969162 2.45082028,54.3970315 2.41217188,54.3971435 L2.19267944,54.3977761 C2.1581637,54.3978749 2.12468112,54.3979705 2.0922317,54.3980627 L1.82808239,54.398804 C1.80183196,54.3988765 1.7766147,54.3989457 1.7524306,54.3990116 L1.35051876,54.3999901 C1.34493162,54.3999967 1.34037764,54.4 1.33685682,54.4 C1.16939519,54.4 0.999259526,54.368284 0.834639064,54.3011602 C0.150419599,54.0224285 -0.179155581,53.2394291 0.0984429859,52.5524167 L3.78660985,43.4252547 C5.41392908,39.3996712 8.33046887,34.0480565 14.8422527,34.0480565 L19.7344052,34.0480565 C26.0753802,34.0480565 29.0072657,39.1223395 30.6591736,43.1053947 C30.7422491,43.1991639 30.8078136,43.3059782 30.8560305,43.4252547 L30.8560305,43.4252547 L31.313,44.557 L41.1783513,35.4042933 C41.7208467,34.9012003 42.5666783,34.9345944 43.0677262,35.4791364 C43.5689412,36.0236784 43.5356828,36.8729626 42.9933545,37.3762235 C38.4002947,41.6382316 34.8649557,44.9187557 32.3873374,47.217796 L34.5441973,52.5524167 C34.8217959,53.2394291 34.4922207,54.0224285 33.8080013,54.3011602 C33.6433808,54.368284 33.4732451,54.4 33.3057835,54.4 C33.3022627,54.4 33.2977087,54.3999967 33.2921216,54.3999901 L32.8902097,54.3990116 C32.8660256,54.3989457 32.8408084,54.3988765 32.8145579,54.398804 L32.5504086,54.3980627 C32.5179592,54.3979705 32.4844766,54.3978749 32.4499609,54.3977761 L32.2304684,54.3971435 C32.19182,54.3970315 32.1521385,54.3969162 32.1114237,54.3967976 L31.8547374,54.3960464 C29.6123681,54.3894571 24.7870881,54.3746311 17.3788974,54.3515685 L17.2637429,54.3515685 C9.85555225,54.3746311 5.03027227,54.3894571 2.78790293,54.3960464 Z M15.6713716,36.7330094 L17.2301686,38.8779512 L18.7889656,36.7330094 L15.6713716,36.7330094 Z M54.1761813,8.77878937 L54.1761813,14.6492712 C54.1761813,17.5459999 51.750902,19.9025495 48.7699014,19.9025495 L32.4165349,19.9025495 L27.4314495,22.6175404 C27.00352,22.8506279 26.4807828,22.8457614 26.0576887,22.6047869 C25.6345945,22.3638124 25.3745211,21.9231445 25.3745211,21.4465653 L25.3745211,5.2532783 C25.3745211,2.35654966 27.7998005,0 30.780801,0 L48.7700741,0 C51.7510746,0 54.1761813,2.35654966 54.1761813,5.2532783 L54.1761813,6.09383639 L54.1761813,8.77878937 Z M17.2883289,31.599715 C13.2256296,31.599715 9.92051869,28.2811131 9.92051869,24.2019983 C9.92051869,20.8434577 12.1611954,18.0004282 15.2204619,17.1008011 C15.2365062,17.095599 15.2523833,17.0905647 15.2685946,17.0860339 C15.9232325,16.8989262 16.6026053,16.8041138 17.2879947,16.8041138 C20.9870248,16.8041138 24.0683522,19.5098752 24.5817675,23.1491611 C24.6307358,23.4930029 24.6561392,23.8447317 24.6561392,24.2019983 C24.6561392,28.2811131 21.3510282,31.599715 17.2883289,31.599715 Z" id="Shape" fill="#21505B" fill-rule="nonzero"></path>
                        <path d="M14.8365338,20 C13.5313573,20.8607377 12.6694548,22.3323324 12.6694548,23.9999689 C12.6694548,26.6467885 14.8408425,28.8 17.5097931,28.8 C19.8390497,28.8 21.789145,27.1603939 22.2479302,24.9835959 C22.1629636,24.9863305 22.0781693,24.9876979 21.9930304,24.9876979 C18.7048405,24.9878688 15.8897404,22.9397712 14.8365338,20 Z" id="Path" fill="#FFFFFF" fill-rule="nonzero"></path>
                        <path d="M44.8366418,12.8 L33.9820885,12.8 C33.232422,12.8 32.6246118,12.4418 32.6246118,12 C32.6246118,11.5582 33.232422,11.2 33.9820885,11.2 L44.8366418,11.2 C45.5863083,11.2 46.1941185,11.5582 46.1941185,12 C46.1941185,12.4418 45.5863083,12.8 44.8366418,12.8 Z" id="Path" fill="#FFFFFF" fill-rule="nonzero"></path>
                        <path d="M41.6224698,8.8 L34.0034354,8.8 C33.2419801,8.8 32.6246118,8.4418 32.6246118,8 C32.6246118,7.5582 33.2419801,7.2 34.0034354,7.2 L41.6224698,7.2 C42.3839251,7.2 43.0012934,7.5582 43.0012934,8 C43.0012934,8.4418 42.3839251,8.8 41.6224698,8.8 Z" id="Path" fill="#FFFFFF" fill-rule="nonzero"></path>
                        <polygon id="Combined-Shape" fill="#FFFFFF" points="17.2869531 39.891506 15.1915924 48.0347185 17.2869531 51.0204328 19.3836896 48.0347185"></polygon>
                    </g>
                </g>
            </g>
        </g>
    </g>
</svg>