<?xml version="1.0" encoding="UTF-8"?>
<svg width="74px" height="75px" viewBox="0 0 74 75" version="1.1" xmlns="http://www.w3.org/2000/svg" xmlns:xlink="http://www.w3.org/1999/xlink">
    <title>Group 8</title>
    <g id="Web" stroke="none" stroke-width="1" fill="none" fill-rule="evenodd">
        <g id="赫綵官網/首頁02_Normal-" transform="translate(-768.000000, -9259.000000)">
            <g id="Group-21" transform="translate(163.000000, 9259.500000)">
                <g id="Group-8" transform="translate(605.500000, 0.000000)">
                    <rect id="Rectangle-Copy-3" x="0" y="0" width="73.4117647" height="74"></rect>
                    <g id="20525830_2324585001100258_3970049645386323666_n" transform="translate(4.599770, 17.695652)" fill="#21505B">
                        <path d="M49.966233,17.9571789 C50.02485,17.9571789 50.0828997,17.9606056 50.1403821,17.9672687 C56.6343844,18.2330302 59.5833845,23.6820933 61.2456479,27.8057756 L65.0226598,37.3246452 C65.3327624,38.1057481 64.9551558,38.9919371 64.1791429,39.303769 C63.9951613,39.3778244 63.8051289,39.4130435 63.618311,39.4130435 C63.0177709,39.4130435 62.4495646,39.0505722 62.2132059,38.4547028 L58.4392194,28.9436385 C56.5003218,24.1336595 54.2704193,21.7056348 51.1671243,21.136037 L50.3786317,24.9254232 L51.4696634,34.8067642 C51.5267676,35.3245803 51.3170702,35.8359238 50.9137477,36.1622241 L48.4796314,38.1314485 C48.2109388,38.3488551 47.8768222,38.4672675 47.5321167,38.4672675 L46.6683675,38.4672675 C46.323851,38.4672675 45.9895453,38.3488551 45.7208527,38.1314485 L43.2863582,36.1622241 C42.8828467,35.8359238 42.6731492,35.3245803 42.7304426,34.8067642 L43.8216634,24.9254232 L43.0329817,21.1362274 C39.9298757,21.7058251 37.6997842,24.1348017 35.7578612,28.9514438 L31.9248795,38.4623178 C31.6108061,39.2415169 30.7289046,39.617124 29.9544044,39.3009134 C29.1802824,38.9847029 28.8074029,38.0964198 29.1214764,37.3170303 L32.954458,27.8059659 C34.6170996,23.681903 37.5664779,18.2330302 44.0597239,17.9672687 C44.1172063,17.9606056 44.175256,17.9571789 44.2338729,17.9571789 L49.966233,17.9571789 Z M47.4946774,26.3747373 L46.7056176,26.3747373 L45.8290105,34.3117929 L47.1002421,35.3400006 L48.3710955,34.3119832 L47.4946774,26.3747373 Z M46.5802529,23.32876 L47.619853,23.32876 L48.1039156,21.0033466 L46.0963794,21.0033466 L46.5802529,23.32876 Z M1.51251215,39.4130435 C1.32304703,39.4130435 1.13055651,39.3770629 0.94430586,39.3009134 C0.170183873,38.9847029 -0.202695598,38.0964198 0.111377831,37.3170303 L3.88744429,27.9470328 C5.56899456,23.7757571 8.58530964,18.2301746 15.3394956,18.2301746 L20.3482199,18.2301746 C23.9890892,18.2301746 28.8394497,19.8601532 31.1086823,23.074992 C31.1461215,23.1279158 31.3180015,23.3637887 31.5267535,23.6499202 C32.0086731,24.311278 32.3347851,24.7626538 32.5050894,25.0040475 L26.0849822,39.3009134 C10.1016787,39.3756668 1.91085534,39.4130435 1.51251215,39.4130435 Z M15.8422778,21.276152 L17.8441414,24.0380919 L19.846005,21.276152 L15.8422778,21.276152 Z M53.9790363,25.0906675 C54.8144225,25.0906675 55.491732,25.7725857 55.491732,26.6136562 L55.491732,26.8042201 C55.491732,27.6452906 54.8144225,28.3272088 53.9790363,28.3272088 C53.1436502,28.3272088 52.4663407,27.6452906 52.4663407,26.8042201 L52.4663407,26.6136562 C52.4663407,25.7725857 53.1436502,25.0906675 53.9790363,25.0906675 Z M17.9089982,0.539328369 C21.6710722,0.570549637 24.8067012,3.29593789 25.4138594,6.98347425 C25.4834434,7.40096352 25.5197481,7.82968484 25.5197481,8.26697297 C25.5199372,12.5282953 22.0766638,15.9949983 17.8441414,15.9949983 C13.6118081,15.9949983 10.1685347,12.5282953 10.1685347,8.26697297 C10.1685347,4.75705516 12.5045149,1.78646573 15.6932773,0.847923951 C15.7087824,0.842974238 15.7242876,0.838024525 15.7401709,0.833645932 C16.2454112,0.688771634 16.7648331,0.597011565 17.2906839,0.559127222 L17.2946311,0.558627491 C17.3020291,0.558175354 17.3044872,0.55798498 17.3071344,0.55798498 C17.3198033,0.557223486 17.3218832,0.557033112 17.3249086,0.556652365 L17.3345521,0.556081244 L17.3345521,0.556081244 L17.3384283,0.555581514 C17.3483554,0.555700497 17.3538389,0.554939003 17.3597006,0.554367882 C17.3846601,0.55265452 17.4094305,0.551321905 17.4345791,0.550179663 C17.443088,0.549608542 17.4512187,0.549227795 17.4593494,0.548847048 C17.4619967,0.549037422 17.4699383,0.548085554 17.4758,0.54789518 L17.4930069,0.547133686 L17.4930069,0.547133686 L17.4965523,0.546943312 L17.5156974,0.546181818 L17.5156974,0.546181818 L17.5197627,0.545705884 L17.5310134,0.545420323 C17.5368751,0.545039576 17.5429259,0.546562565 17.5485985,0.544658829 C17.6423856,0.541041731 17.7363618,0.539328369 17.8305271,0.539053385 L17.9089982,0.539328369 L17.9089982,0.539328369 Z M20.4253674,4.47244665 C19.3057835,7.4112437 16.4800681,9.4271096 13.193926,9.40826261 C13.7010572,11.4403103 15.5310407,12.9492113 17.7044061,12.9492113 C20.2686143,12.9492113 22.3546216,10.8490099 22.3546216,8.26716334 C22.3546216,6.70762292 21.5933575,5.32379733 20.4253674,4.47244665 Z M47.0998639,15.6426168 C42.8164771,15.6426168 39.3316046,12.1338412 39.3316046,7.82111803 C39.3316046,3.50858519 42.8164771,0 47.0998639,0 C47.6122895,0 48.113559,0.0502586267 48.5987562,0.146206914 C48.6303337,0.151537374 48.6621003,0.158010076 48.6936778,0.16562502 C52.2154223,0.907891631 54.8685014,4.05857448 54.8685014,7.8213084 C54.8685014,12.1338412 51.3834397,15.6426168 47.0998639,15.6426168 Z M44.4127492,3.88819012 C43.1719606,4.75020171 42.3569958,6.19190088 42.3569958,7.82111803 C42.3569958,10.4543655 44.4846022,12.5966394 47.0998639,12.5966394 C49.7153146,12.5966394 51.8431101,10.4543655 51.8431101,7.82111803 C51.8431101,5.86179308 50.6649093,4.17432162 48.9843045,3.43890845 C48.3497287,4.26170309 47.5565089,4.95142659 46.6454879,5.46619677 C45.9169359,5.87816521 44.9949479,5.61716302 44.5859528,4.8836536 C44.4102911,4.56915643 44.357914,4.21848829 44.4127492,3.88819012 Z" id="Shape" fill-rule="nonzero"></path>
                        <path d="M6.08251701,16.8913043 C7.66087175,16.814545 8.96419656,16.3319363 9.99249143,15.4434783 C11.0207863,14.5550202 11.5793541,13.4289332 11.6681948,12.0652174 C10.08984,12.1419767 8.78651521,12.6245854 7.75822033,13.5130435 C6.72992546,14.4015016 6.17135768,15.5275885 6.08251701,16.8913043 Z" id="Oval"></path>
                    </g>
                </g>
            </g>
        </g>
    </g>
</svg>