<?xml version="1.0" encoding="UTF-8"?>
<svg width="75px" height="75px" viewBox="0 0 75 75" version="1.1" xmlns="http://www.w3.org/2000/svg" xmlns:xlink="http://www.w3.org/1999/xlink">
    <title>Group 18</title>
    <g id="Web" stroke="none" stroke-width="1" fill="none" fill-rule="evenodd">
        <g id="赫綵官網/首頁02_Normal-" transform="translate(-1085.000000, -9259.000000)">
            <g id="Group-21" transform="translate(163.000000, 9259.500000)">
                <g id="Group-18" transform="translate(922.679028, 0.000000)">
                    <rect id="Rectangle-Copy-3" x="0" y="0" width="73.4117647" height="74"></rect>
                    <g id="Group-29" transform="translate(13.000000, 13.000000)">
                        <rect id="Rectangle-Copy-29" fill="#FFFFFF" x="7.8778626" y="0.549618321" width="39.5725191" height="39.5725191" rx="1.45057017"></rect>
                        <path d="M45.9847328,40.6717557 L9.34351145,40.6717557 C8.23051012,40.6717557 7.32824427,39.7694899 7.32824427,38.6564885 L7.32824427,2.01526718 C7.32824427,0.902265848 8.23051012,0 9.34351145,0 L45.9847328,0 C47.0977342,0 48,0.902265848 48,2.01526718 L48,38.6564885 C48,39.7694899 47.0977342,40.6717557 45.9847328,40.6717557 Z" id="Shape-Copy" fill="#21505B"></path>
                        <rect id="Rectangle-Copy-30" fill="#FFFFFF" x="0.549618321" y="7.8778626" width="39.5725191" height="39.5725191" rx="1.45057017"></rect>
                        <path d="M2.7480916,10.0763359 L37.1908397,10.0763359 C37.5955675,10.0763359 37.9236641,10.4044325 37.9236641,10.8091603 L37.9236641,45.2519084 C37.9236641,46.4660917 36.9393741,47.4503817 35.7251908,47.4503817 L2.01526718,47.4503817 C1.20581166,47.4503817 0.549618321,46.7941883 0.549618321,45.9847328 L0.549618321,12.2748092 C0.549618321,11.0606259 1.53390834,10.0763359 2.7480916,10.0763359 Z" id="Path-Copy-4" fill="#FFFFFF" fill-rule="nonzero"></path>
                        <path d="M38.6564885,48 L2.01526718,48 C0.902265848,48 0,47.0977342 0,45.9847328 L0,9.34351145 C0,8.23051012 0.902265848,7.32824427 2.01526718,7.32824427 L38.6564885,7.32824427 C39.7694899,7.32824427 40.6717557,8.23051012 40.6717557,9.34351145 L40.6717557,45.9847328 C40.6717557,47.0977342 39.7694899,48 38.6564885,48 Z M2.01526718,8.42748092 C1.50935748,8.42748092 1.09923664,8.83760176 1.09923664,9.34351145 L1.09923664,45.9847328 C1.09923664,46.4906425 1.50935748,46.9007634 2.01526718,46.9007634 L38.6564885,46.9007634 C39.1623982,46.9007634 39.5725191,46.4906425 39.5725191,45.9847328 L39.5725191,9.34351145 C39.5725191,8.83760176 39.1623982,8.42748092 38.6564885,8.42748092 L2.01526718,8.42748092 Z" id="Shape-Copy-2" stroke="#00515D" stroke-width="0.734351148" fill="#21505B"></path>
                        <path d="M34.9923664,40.6717557 L5.67938931,40.6717557 C4.97111574,40.6717557 4.39694656,40.0975865 4.39694656,39.389313 L4.39694656,13.0076336 C4.39694656,12.29936 4.97111574,11.7251908 5.67938931,11.7251908 L34.9923664,11.7251908 C35.698975,11.7291944 36.2708056,12.301025 36.2748092,13.0076336 L36.2748092,39.389313 C36.2748092,40.0975865 35.70064,40.6717557 34.9923664,40.6717557 L34.9923664,40.6717557 Z M5.67938931,12.8244275 C5.57820737,12.8244275 5.49618321,12.9064516 5.49618321,13.0076336 L5.49618321,39.389313 C5.49618321,39.4904949 5.57820737,39.5725191 5.67938931,39.5725191 L34.9923664,39.5725191 C35.0935484,39.5725191 35.1755725,39.4904949 35.1755725,39.389313 L35.1755725,13.0076336 C35.1755725,12.9064516 35.0935484,12.8244275 34.9923664,12.8244275 L5.67938931,12.8244275 Z" id="Shape-Copy-3" stroke="#00515D" stroke-width="0.734351148" fill="#21505B"></path>
                        <path d="M11.8189039,21.5200508 C12.6542639,21.2665306 13.5443052,21.3177635 14.4654035,21.8288166 C15.3739477,22.3329043 16.2969547,23.253732 17.2396367,24.6905945 C17.6175602,25.2652202 17.9811738,25.8228754 18.3330584,26.362539 C21.3426044,30.978094 23.5536195,34.277661 26.4044885,35.7513564 C28.6329177,36.9032949 31.2592213,37.0149496 34.9751908,35.703294 L34.9751908,35.703294 L34.9751908,39.3721374 L5.69656489,39.3721374 L5.69656489,28.3909803 C6.63464413,26.5272651 8.89732223,22.4067103 11.8189039,21.5200508 Z" id="Path-Copy-8" stroke="#00515D" stroke-width="1.5" fill="#FFFFFF" fill-rule="nonzero"></path>
                        <path d="M34.9923664,40.6717557 L5.67938931,40.6717557 C4.97111574,40.6717557 4.39694466,40.0975865 4.39694466,39.389313 L4.39694466,28.2137405 C4.39694466,28.1382547 4.41170201,28.0634969 4.44091603,27.9938931 C4.58015267,27.6861069 7.85587786,20.4458015 12.4067176,20.0720611 C14.5319084,19.8961832 16.5178626,21.2152672 18.3279389,23.9780153 C18.7090076,24.5496183 19.0607634,25.1065649 19.4198473,25.6415267 C24.7108397,33.7685496 27.1218321,37.4766412 35.5419847,34.1056489 C35.7092478,34.0499055 35.8930269,34.0766512 36.0374634,34.1777567 C36.1818999,34.2788623 36.2699344,34.4423861 36.2748092,34.618626 L36.2748092,39.389313 C36.2748092,39.7294379 36.139695,40.0556323 35.8991904,40.2961369 C35.6586857,40.5366416 35.3324914,40.6717557 34.9923664,40.6717557 L34.9923664,40.6717557 Z M5.49618321,28.3383206 L5.49618321,39.389313 C5.49618321,39.4904949 5.57820737,39.5725191 5.67938931,39.5725191 L34.9923664,39.5725191 C35.0935484,39.5725191 35.1755725,39.4904949 35.1755725,39.389313 L35.1755725,35.4174046 C26.5355725,38.5758779 23.6555725,34.1349618 18.5258015,26.279084 L17.4412214,24.6155725 L17.4412214,24.6155725 C15.8656489,22.2119084 14.2167939,21.0760305 12.5239695,21.2006107 C8.85251908,21.4644275 5.89923664,27.4735878 5.49618321,28.3383206 Z" id="Shape-Copy-5" fill="#21505B"></path>
                        <circle id="Oval-Copy-4" fill="#21505B" cx="24.3664122" cy="19.2366412" r="2.93129771"></circle>
                        <path d="M24.3883969,22.7175573 C22.4659401,22.7175573 20.9074809,21.1590981 20.9074809,19.2366412 C20.9074809,17.3141844 22.4659401,15.7557252 24.3883969,15.7557252 C26.3108538,15.7557252 27.869313,17.3141844 27.869313,19.2366412 C27.869313,21.1590981 26.3108538,22.7175573 24.3883969,22.7175573 Z M24.3883969,16.8549618 C23.0730317,16.8549618 22.0067176,17.921276 22.0067176,19.2366412 C22.0067176,20.5520064 23.0730317,21.6183206 24.3883969,21.6183206 C25.7037622,21.6183206 26.7700763,20.5520064 26.7700763,19.2366412 C26.7700763,17.921276 25.7037622,16.8549618 24.3883969,16.8549618 Z" id="Shape-Copy-7" fill="#21505B"></path>
                        <path d="" id="Path-Copy-13" stroke="#21505B" stroke-width="0.5" fill="#21505B"></path>
                        <path d="" id="Path-Copy-14" stroke="#21505B" stroke-width="0.5" fill="#21505B"></path>
                        <path d="M29.6427481,4.76335878 L19.6030534,4.76335878 C19.2995076,4.76335878 19.0534351,4.51728627 19.0534351,4.21374046 C19.0534351,3.91019464 19.2995076,3.66412214 19.6030534,3.66412214 L29.6427481,3.66412214 C29.9462939,3.66412214 30.1923664,3.91019464 30.1923664,4.21374046 C30.1923664,4.51728627 29.9462939,4.76335878 29.6427481,4.76335878 L29.6427481,4.76335878 Z" id="Path-Copy-15" fill="#FFFFFF"></path>
                        <path d="M34.259542,4.76335878 L32.5740458,4.76335878 C32.2705,4.76335878 32.0244275,4.51728627 32.0244275,4.21374046 C32.0244275,3.91019464 32.2705,3.66412214 32.5740458,3.66412214 L34.259542,3.66412214 C34.5630878,3.66412214 34.8091603,3.91019464 34.8091603,4.21374046 C34.8091603,4.51728627 34.5630878,4.76335878 34.259542,4.76335878 Z" id="Path-Copy-16" fill="#FFFFFF"></path>
                    </g>
                </g>
            </g>
        </g>
    </g>
</svg>