<?xml version="1.0" encoding="UTF-8"?>
<svg width="74px" height="75px" viewBox="0 0 74 75" version="1.1" xmlns="http://www.w3.org/2000/svg" xmlns:xlink="http://www.w3.org/1999/xlink">
    <title>Group 6</title>
    <g id="Web" stroke="none" stroke-width="1" fill="none" fill-rule="evenodd">
        <g id="赫綵官網/首頁02_Normal-" transform="translate(-163.000000, -9259.000000)">
            <g id="Group-21" transform="translate(163.000000, 9259.500000)">
                <g id="Group-6" transform="translate(0.000000, -0.000000)">
                    <g id="Group-5" transform="translate(8.018018, 10.400000)" fill="#21505B">
                        <path d="M17.7770085,31.1420262 C17.0810851,28.8517418 15.7434217,26.8077048 13.9216987,25.2508612 L12.1788874,23.9862104 L11.3972629,23.438195 L11.3972629,23.438195 L10.7635134,22.9955672 L10.7635134,22.9955672 L10.562826,22.8480246 L9.81288903,22.3210868 L9.42207681,22.0365404 L8.90451466,21.6571451 C6.59718188,20.1411603 4.52286718,18.2987073 2.74658142,16.1875304 L0.634082882,22.5107844 L0.359458072,23.3222687 L0.359458072,23.3222687 L0.000333320774,24.4288382 L0.000333320774,24.4288382 C-0.00298112624,24.575395 0.0184429202,24.7214636 0.0637082769,24.8609272 C0.50733297,26.2836594 3.04233122,28.5389533 8.51370243,32.3961383 L8.80945223,32.6069134 L9.39038933,33.0179249 L9.96076393,33.4183977 C13.5836989,36.0109318 16.0658847,38.0132956 17.2488839,39.7416517 C17.2699361,39.7791591 17.2947059,39.814465 17.3228213,39.8470393 C18.5033667,37.0907622 18.6643304,34.0057107 17.7770085,31.1420262 Z" id="Path"></path>
                        <path d="M16.6679468,41.4278528 C16.3229054,40.0718661 13.9815528,37.8587272 9.64388915,34.7884361 L9.54882672,35.09406 C7.29901577,41.9126356 6.65470372,45.4536579 7.43632818,46.5075336 C7.56586663,46.5779931 7.71129712,46.6142691 7.85882789,46.6129574 C9.5805142,46.6129574 13.1506367,44.1152358 16.6679468,41.4278528 Z" id="Path"></path>
                        <path d="M10.9642007,21.5201413 C12.4006997,20.9405097 14.0378861,16.0610653 15.0941354,12.5621981 L14.0378861,12.5621981 C7.01382847,12.5621981 3.60214333,13.0680584 2.97895626,14.1957054 C2.72545644,15.7449026 8.01726528,19.5072388 10.9642007,21.5201413 Z" id="Path"></path>
                        <path d="M28.0965639,9.83266005 C29.7955759,12.2120017 32.5628447,13.6004155 35.4903088,13.5423024 C36.5342595,13.5318592 37.5719051,13.3793987 38.5745566,13.0891359 C38.3949943,12.5516593 38.2154319,12.0352602 38.025307,11.3923961 L37.7401197,10.5387568 C36.1346208,5.52230854 34.2650596,0.368856486 32.6278733,0 C31.0646243,0.316162703 29.1739381,6.20732773 28.0965639,9.83266005 Z" id="Path"></path>
                        <path d="M37.5922448,41.8388643 L37.4549324,41.8388643 C35.8071836,41.8388643 32.5433733,44.0414645 29.0049383,46.6972312 L29.342938,46.9396226 C34.5502469,50.7441138 37.6767448,52.5251637 39.1449312,52.5251637 C39.3318101,52.5245493 39.5160719,52.481291 39.6836184,52.3986986 C40.8243676,51.2710516 38.796369,45.2007277 37.5922448,41.8388643 Z" id="Path"></path>
                        <path d="M45.9683015,34.4828121 C44.1198653,29.4242089 43.6762406,27.9277054 42.9474286,25.4616363 C42.8101162,25.0295473 42.7467413,24.7976946 42.5883039,24.2707568 L42.5883039,24.2707568 C40.7251633,25.8418914 39.2961198,27.8627273 38.4372442,30.1408443 C37.8069699,31.6825977 37.4909821,33.3342229 37.5077449,34.9992112 C37.5021916,35.0693603 37.5021916,35.1398372 37.5077449,35.2099863 C37.5077449,35.2837576 37.5077449,35.3575289 37.5077449,35.441839 L37.5077449,35.526149 C37.5547719,37.5293453 38.0225587,39.5004057 38.8808689,41.3119265 C38.9548064,41.5332404 39.0393063,41.7545543 39.1026813,41.9653294 C39.1660562,42.1761045 39.3561811,42.6819649 39.482931,43.0192051 C40.6870552,46.5602274 41.4053047,49.2792266 41.3841797,51.1129703 L45.5035519,48.0251145 L46.665426,47.1714752 L47.3731131,46.6445374 L48.3342999,45.9173632 L48.3342999,45.9173632 C49.4644866,44.7580999 47.7744878,39.4887216 45.9683015,34.4828121 Z" id="Path"></path>
                        <path d="M19.4564449,40.9746863 C20.0585069,40.510981 20.6288816,40.0788919 21.1781312,39.6784192 C20.5713794,40.065259 19.9957436,40.4986584 19.4564449,40.9746863 L19.4564449,40.9746863 Z" id="Path"></path>
                        <path d="M27.948689,37.7182104 C25.5514609,37.7196454 23.2037888,38.3993423 21.1781312,39.6784192 C20.6288816,40.0788919 20.0585069,40.510981 19.4564449,40.9746863 L18.6959454,41.5648566 L18.6959454,41.5648566 L18.0727583,42.0496395 L18.0727583,42.0496395 L17.8826335,42.1971821 L17.1538215,42.7557362 L16.7630092,43.0508214 L16.2454471,43.4407554 C14.1132604,45.1778 11.740253,46.5976949 9.20026446,47.6562581 L14.6610732,51.4923655 L15.3687602,51.9876871 L15.3687602,51.9876871 L16.3193845,52.6621675 L16.3193845,52.6621675 C16.4588183,52.7087851 16.6054718,52.7301983 16.7524467,52.7254001 C18.2417582,52.7254001 21.1464437,50.9654277 26.4593775,46.834235 L26.7445648,46.6129211 L27.3043769,46.1808321 L27.8641891,45.7592818 C31.4131866,43.0613601 34.0643723,41.2803102 36.0078709,40.6479848 L36.1240583,40.6479848 C33.8298803,38.7410711 30.934615,37.7035064 27.948689,37.7182104 L27.948689,37.7182104 Z" id="Path"></path>
                        <path d="M17.9882584,37.7392879 C18.1026828,37.4354044 18.201396,37.1258602 18.2840082,36.8118774 L17.9882584,37.7392879 Z" id="Path"></path>
                        <path d="M26.0580028,11.9931052 C25.9523779,12.3303454 25.8573154,12.6781244 25.7516905,13.0469809 C25.8725923,12.7014016 25.9748431,12.3496051 26.0580028,11.9931052 Z" id="Path"></path>
                        <path d="M23.9032543,0.147542595 L23.0160049,0.147542595 L21.8118807,0.147542595 L21.8118807,0.147542595 C20.5971941,0.35831773 19.0867576,3.64640984 17.0270715,10.8022257 C17.0270715,10.9392295 16.9425716,11.0551558 16.9108841,11.1921597 C16.8791966,11.3291635 16.7735717,11.6347875 16.7101968,11.8561014 C16.6468218,12.0774152 16.5834469,12.3092679 16.5095094,12.5305818 C15.2314478,16.8303945 14.1223861,19.8550177 12.9182619,21.488525 C13.1295117,21.488525 13.3301991,21.488525 13.5520114,21.488525 L14.0906986,21.488525 C19.384625,21.3426622 24.0358668,17.9438922 25.7728155,12.9521321 C25.8784404,12.6254306 25.9735029,12.2776516 26.0791278,11.8982564 L26.4382525,10.6862994 C26.4382525,10.6862994 26.4382525,10.6862994 26.4382525,10.6862994 L26.6811899,9.87481508 L26.6811899,9.87481508 L26.7762523,9.56919114 C26.8501898,9.29518346 26.9346897,9.02117578 27.0086271,8.75770686 L27.262127,7.95676135 C27.262127,7.86191254 27.3149394,7.76706373 27.3466269,7.67221492 C28.4768136,4.04688259 29.4591254,1.45434843 30.5787497,0 L23.9032543,0.147542595 Z" id="Path"></path>
                        <path d="M28.9204383,12.6570469 L28.9204383,12.7413569 C28.9204383,12.7413569 28.9204383,12.6886631 28.9204383,12.6675856 L28.9204383,12.6570469 Z" id="Path"></path>
                        <path d="M43.0741785,21.2882886 C42.6728038,21.3725987 42.2397416,21.4779863 41.7855544,21.5939126 C42.2236021,21.5144264 42.6572421,21.4124158 43.084741,21.2882886 L43.084741,21.2882886 L43.0741785,21.2882886 Z" id="Path"></path>
                        <path d="M50.6263608,12.7202794 C49.9186738,12.6675856 49.2109868,12.6254306 48.5138623,12.6254306 C46.0066965,12.6412757 43.5154832,13.0247706 41.1201174,13.7636163 L40.2645555,14.0165465 L39.6624934,14.2167829 L39.6624934,14.2167829 L39.5146185,14.2167829 L39.0181813,14.3643255 C37.8829142,14.7008786 36.7062426,14.8782242 35.5219963,14.8912633 C33.3310547,14.9047715 31.1901241,14.2381549 29.3957505,12.9837483 L28.9626883,12.6675856 C28.9626883,12.6675856 28.9626883,12.6675856 28.9626883,12.7413569 C29.8316129,17.5639749 33.7949087,21.2303817 38.6801816,21.7309164 C39.0393063,21.7309164 39.4195561,21.7836102 39.7998058,21.7836102 C40.4698371,21.7851907 41.1384301,21.7216583 41.7961169,21.5939126 C42.2503041,21.4779863 42.6833663,21.3725987 43.084741,21.2882886 L43.084741,21.2882886 C44.2936549,20.9951275 45.5398764,20.8849959 46.7816135,20.9615872 C48.6528277,21.1236001 50.5053826,21.4551818 52.3163596,21.9522303 L58.284168,14.3010929 C55.8034949,13.4727747 53.2327984,12.9421017 50.6263608,12.7202794 L50.6263608,12.7202794 Z" id="Path"></path>
                    </g>
                    <rect id="Rectangle-Copy-5" x="0" y="0" width="73.7657658" height="73.6"></rect>
                </g>
            </g>
        </g>
    </g>
</svg>