<?xml version="1.0" encoding="UTF-8"?>
<svg width="10px" height="9px" viewBox="0 0 10 9" version="1.1" xmlns="http://www.w3.org/2000/svg" xmlns:xlink="http://www.w3.org/1999/xlink">
    <title>Group</title>
    <g id="Symbols" stroke="none" stroke-width="1" fill="none" fill-rule="evenodd">
        <g id="Button/Fill/Normal" transform="translate(-227.000000, -22.000000)" fill="#FFFFFF" fill-rule="nonzero">
            <g id="Group" transform="translate(228.000000, 23.000000)">
                <path d="M7,3 C7.27614237,3 7.5,3.22385763 7.5,3.5 C7.5,3.74545989 7.32312484,3.94960837 7.08987563,3.99194433 L7,4 L0,4 C-0.276142375,4 -0.5,3.77614237 -0.5,3.5 C-0.5,3.25454011 -0.323124839,3.05039163 -0.0898756324,3.00805567 L0,3 L7,3 Z" id="Path"></path>
                <path d="M3.62371165,-0.329252304 C3.78534812,-0.513979696 4.05289296,-0.551143977 4.2563093,-0.429409356 L4.3292523,-0.376288347 L8.3292523,3.12371165 C8.53161994,3.30078334 8.55410524,3.60029236 8.39670818,3.80457234 L8.3292523,3.87628835 L4.3292523,7.37628835 C4.12143399,7.55812937 3.80555268,7.53707062 3.62371165,7.3292523 C3.46207518,7.14452491 3.46075459,6.87441441 3.60841409,6.68895768 L3.6707477,6.62371165 L7.24,3.49999315 L3.6707477,0.376288347 C3.4860203,0.21465188 3.44885602,-0.05289296 3.57059064,-0.256309302 L3.62371165,-0.329252304 Z" id="Path"></path>
            </g>
        </g>
    </g>
</svg>