<?xml version="1.0" encoding="utf-8"?>
<!-- Generator: Adobe Illustrator 25.0.1, SVG Export Plug-In . SVG Version: 6.00 Build 0)  -->
<svg version="1.1" id="圖層_1" xmlns="http://www.w3.org/2000/svg" xmlns:xlink="http://www.w3.org/1999/xlink" x="0px" y="0px"
	 viewBox="0 0 132 30" style="enable-background:new 0 0 132 30;" xml:space="preserve">
<style type="text/css">
	.st0{fill-rule:evenodd;clip-rule:evenodd;fill:#F9C270;}
</style>
<g id="Symbols">
	<g id="Logo_x2F_Header_x2F_Normal" transform="translate(1.000000, 0.000000)">
		<g id="Group" transform="translate(-1.000000, 0.000000)">
			<path id="Path" class="st0" d="M10.4,18.1c-0.4-1.3-1.2-2.4-2.3-3.3l-1-0.7l-0.5-0.3l0,0l-0.4-0.2l0,0l-0.1-0.1l-0.4-0.3L5.5,13
				l-0.3-0.2c-1.4-0.8-2.6-1.9-3.6-3.1l-1.2,3.5l-0.2,0.5l0,0L0,14.3l0,0c0,0.1,0,0.2,0,0.2c0.3,0.8,1.7,2.1,5,4.2l0.2,0.1l0.3,0.2
				l0.3,0.2c2.1,1.5,3.6,2.6,4.3,3.5c0,0,0,0,0,0.1C10.9,21.4,11,19.7,10.4,18.1z"/>
			<path id="Path_1_" class="st0" d="M9.9,23.8c-0.2-0.7-1.5-1.9-4-3.5l-0.1,0.2c-1.3,3.6-1.6,5.4-1.2,6c0.1,0,0.2,0.1,0.2,0.1
				C5.9,26.5,7.9,25.2,9.9,23.8z"/>
			<path id="Path_2_" class="st0" d="M6.5,12.4C7.4,12,8.4,9.1,9,7.1H8.4c-4.2,0-6.2,0.3-6.6,1C1.7,8.9,4.8,11.2,6.5,12.4z"/>
			<path id="Path_3_" class="st0" d="M16.2,5.8c1,1.4,2.7,2.2,4.4,2.2c0.6,0,1.2-0.1,1.9-0.3c-0.1-0.3-0.2-0.6-0.3-1l-0.2-0.5
				c-1-2.9-2.1-6-3.1-6.2C17.9,0.2,16.8,3.6,16.2,5.8z"/>
			<path id="Path_4_" class="st0" d="M22,23.8L22,23.8c-1,0-2.9,1.3-4.9,2.8l0.2,0.1c3,2.2,4.8,3.2,5.6,3.2c0.1,0,0.2,0,0.3-0.1
				C23.8,29.3,22.6,25.8,22,23.8z"/>
			<path id="Path_5_" class="st0" d="M26.3,19.8c-1-2.8-1.3-3.7-1.7-5c-0.1-0.2-0.1-0.4-0.2-0.7l0,0c-1,0.9-1.8,2-2.3,3.3
				c-0.4,0.9-0.5,1.8-0.5,2.7c0,0,0,0.1,0,0.1c0,0,0,0.1,0,0.1v0c0,1.1,0.3,2.2,0.8,3.2c0,0.1,0.1,0.2,0.1,0.4s0.1,0.4,0.2,0.6
				c0.7,2,1.1,3.5,1.1,4.5l2.3-1.7l0.7-0.5l0.4-0.3l0.5-0.4l0,0C28.3,25.6,27.3,22.6,26.3,19.8z"/>
			<path id="Path_6_" class="st0" d="M11.7,23.8c0.3-0.3,0.6-0.6,0.9-0.9C12.3,23.2,12,23.5,11.7,23.8L11.7,23.8z"/>
			<path id="Path_7_" class="st0" d="M16,22.1c-1.4,0-2.7,0.4-3.8,1c-0.3,0.2-0.6,0.4-1,0.7l-0.4,0.3l0,0l-0.4,0.3l0,0l-0.1,0.1
				l-0.4,0.3l-0.2,0.2l-0.3,0.2c-1.2,0.9-2.6,1.7-4,2.2l3.1,2l0.4,0.3l0,0L9.4,30l0,0c0.1,0,0.2,0,0.2,0c0.8,0,2.5-0.9,5.5-3.1
				l0.2-0.1l0.3-0.2l0.3-0.2c2-1.4,3.5-2.4,4.6-2.7h0.1C19.4,22.6,17.7,22.1,16,22.1L16,22.1z"/>
			<path id="Path_8_" class="st0" d="M10.2,22c0.1-0.3,0.2-0.5,0.3-0.8L10.2,22z"/>
			<path id="Path_9_" class="st0" d="M14.9,7.1c-0.1,0.3-0.2,0.6-0.3,0.9C14.8,7.7,14.9,7.4,14.9,7.1z"/>
			<path id="Path_10_" class="st0" d="M14.2,0.1h-0.5h-0.7l0,0c-0.7,0.1-1.5,2-2.7,6.1c0,0.1,0,0.1-0.1,0.2c0,0.1-0.1,0.3-0.1,0.4
				c0,0.1-0.1,0.3-0.1,0.4c-0.7,2.5-1.3,4.2-2,5.1c0.1,0,0.2,0,0.4,0h0.3c3-0.1,5.6-2,6.5-4.9c0.1-0.2,0.1-0.4,0.2-0.6l0.2-0.7l0,0
				l0.1-0.5l0,0l0.1-0.2c0-0.2,0.1-0.3,0.1-0.5l0.1-0.5c0-0.1,0-0.1,0-0.2C16.8,2.3,17.3,0.8,18,0L14.2,0.1z"/>
			<path id="Path_11_" class="st0" d="M16.6,7.5L16.6,7.5C16.6,7.5,16.6,7.5,16.6,7.5L16.6,7.5z"/>
			<path id="Path_12_" class="st0" d="M25.1,12.7c-0.3,0.1-0.6,0.2-0.9,0.3C24.5,12.9,24.8,12.8,25.1,12.7L25.1,12.7L25.1,12.7z"/>
			<path id="Path_13_" class="st0" d="M29,8c-0.4,0-0.8-0.1-1.2-0.1c-1.4,0-2.8,0.2-4.1,0.6l-0.5,0.1L23,8.8l0,0h-0.1l-0.3,0.1
				c-0.6,0.2-1.3,0.3-1.9,0.3c-1.2,0-2.4-0.4-3.4-1.1L17.1,8c0,0,0,0,0,0c0.5,2.7,2.7,4.8,5.4,5.1c0.2,0,0.4,0,0.6,0
				c0.4,0,0.7,0,1.1-0.1c0.3-0.1,0.5-0.1,0.7-0.2l0,0c0.7-0.2,1.4-0.2,2-0.2c1,0.1,2.1,0.3,3.1,0.6l3.3-4.3C31.9,8.4,30.4,8.1,29,8
				L29,8z"/>
			<path id="Shape" class="st0" d="M36.9,14.2l-0.8,4.7L35,18.2c0,0,0.8-3.9,0.8-4.1L36.9,14.2z M40.8,13c-0.1,0-0.2,0-0.3,0.1
				c-0.1,0.1-0.1,0.2-0.1,0.3v6.8c0,0.4-0.1,0.8-0.3,1.1c-0.3,0.3-0.7,0.4-1.2,0.4h-0.8l-0.3-1.4l0.8,0.1c0.3,0,0.5-0.2,0.5-0.5
				v-6.6c0,0,0-0.3-0.3-0.3c-0.1,0-0.1,0-0.2,0.1s-0.1,0.1-0.1,0.2c0,0.3,0,0.3,0,0.5v0.3c0,1.5-0.1,3.1-0.5,4.6
				c-0.4,1.2-1,2.3-1.8,3.3l-1.1-0.8c0.8-0.8,1.4-1.8,1.8-2.9c0.4-1.5,0.5-3.1,0.5-4.7c0-0.6-0.4-0.5-0.4-0.5h-1.8v-1.3h2.5
				c0,0,0.4,0,0.4-0.4V11c0-0.1,0-0.2-0.1-0.3s-0.2-0.1-0.3-0.1h-2V9.3h2.1c0.1,0,0.2,0,0.3-0.1c0.1-0.1,0.1-0.2,0.1-0.3v-1h1.4V9
				c0,0.1,0,0.2,0.1,0.2c0.1,0.1,0.2,0.1,0.2,0.1h1.2c0,0,0.7-0.1,0.7,0.6s-0.7,0.6-0.7,0.6h-1c-0.1,0-0.2,0-0.3,0.1
				c-0.1,0.1-0.1,0.2-0.1,0.3v0.5c0,0,0,0.3,0.4,0.3h1.2c0.2,0,0.4,0,0.5,0.2c0.1,0.1,0.2,0.3,0.2,0.5c0,0.6-0.7,0.7-0.7,0.7
				L40.8,13z M42,16.7L40.9,17l-0.5-2.6l1-0.2L42,16.7z M43.6,14.5L43,19.3l-1.1-0.9l0.7-4.1L43.6,14.5z M47.6,13
				c-0.1,0-0.2,0-0.3,0.1c-0.1,0.1-0.1,0.2-0.1,0.3v7.1c0,0.4-0.1,0.7-0.3,1.1c-0.3,0.3-0.7,0.4-1.2,0.4h-0.8l-0.3-1.4l0.9,0.1
				c0.3,0,0.5-0.2,0.5-0.5v-6.8c0,0,0-0.3-0.3-0.3s-0.3,0.3-0.3,0.3v0.8c0,1.5-0.1,3.1-0.5,4.6c-0.4,1.2-1.1,2.4-1.9,3.4l-1.1-0.8
				c0.8-0.8,1.4-1.8,1.8-2.9c0.3-1,0.5-4.2,0.5-4.9c0-0.5-0.4-0.4-0.4-0.4h-1.3v-1.3h2c0.1,0,0.2,0,0.3-0.1c0.1-0.1,0.1-0.2,0.1-0.3
				V11c0-0.1,0-0.2-0.1-0.3c-0.1-0.1-0.2-0.1-0.3-0.1h-1.8V9.3h1.9c0.1,0,0.2,0,0.3-0.1c0.1-0.1,0.1-0.2,0.1-0.3v-1h1.3v1
				c0,0,0,0.3,0.3,0.3h1.8c0.3,0,0.6,0.3,0.6,0.6c0,0.2,0,0.3-0.1,0.5c-0.1,0.1-0.3,0.2-0.4,0.2h-1.7c-0.1,0-0.2,0-0.2,0.1
				s-0.1,0.1-0.1,0.2v0.6c0,0.4,0.4,0.3,0.4,0.3h2c0.2,0,0.3,0,0.5,0.2s0.2,0.3,0.2,0.5c0,0.2-0.1,0.3-0.2,0.5
				c-0.1,0.1-0.3,0.2-0.5,0.2L47.6,13z M48.1,19.9l-0.4-5.3l1.2-0.2l0.6,5.2L48.1,19.9z"/>
			<polygon id="Path_14_" class="st0" points="53.9,17.8 53.3,22.1 52.1,22.1 52.7,17.6 			"/>
			<path id="Path_15_" class="st0" d="M56.7,10.1l1.2,0.5l-3.3,5.1c0,0-0.3,0.4,0,0.4c0.6,0,2-0.2,1.9-0.2l-0.5-1.2l1.1-0.3l1.2,2.8
				l-1.2,0.4l-0.3-0.6l-4,0.4c0,0-1,0.1-0.6-0.7l2.4-3.5l-1.9,0.2c0,0-1,0.1-0.8-0.6c0,0,2.3-4.9,2.3-4.9l1.3,0.4L54,11.8
				c0,0-0.2,0.3,0.2,0.3c0.4,0,1.3-0.2,1.3-0.2"/>
			<polygon id="Path_16_" class="st0" points="54.1,21.2 53.9,17.8 55.3,17.6 55.7,21 			"/>
			<polygon id="Path_17_" class="st0" points="56.1,20.3 55.7,17.8 56.9,17.6 57.5,20 			"/>
			<path id="Path_18_" class="st0" d="M57.5,8.8V7.9h8.2c0,0,0.8,0,0.8,0.4c0,0.5-0.8,0.5-0.8,0.5L57.5,8.8z"/>
			<path id="Path_19_" class="st0" d="M61.1,16h-2.6v-1.4h2.8c0.1,0,0.2,0,0.2-0.1s0.1-0.1,0.1-0.2v-1.1h1.4v1.2c0,0,0,0.3,0.2,0.3
				h2.6c0.2,0,0.4,0,0.5,0.2c0.1,0.1,0.2,0.3,0.2,0.5c0,0.2-0.1,0.4-0.2,0.5S65.9,16,65.8,16c0,0-2,0-2.4,0c-0.4,0-0.2,0.3-0.2,0.3
				l3.2,5.6h-1.8l-1.7-3.4v3.5h-1.4v-3.5L59.1,22h-1.6l3.7-5.5C61.3,16.3,61.5,16,61.1,16z"/>
			<polygon id="Path_20_" class="st0" points="58.5,14.1 57.5,11 59,10.6 60.2,13.7 			"/>
			<polygon id="Path_21_" class="st0" points="61.4,13.2 61.1,10.7 62.4,10.6 62.9,13.1 			"/>
			<polygon id="Path_22_" class="st0" points="66.4,11 65.1,14.1 63.8,13.5 65.2,10.6 			"/>
			<path id="Shape_1_" class="st0" d="M70.2,9.7c0,0,0.7,0,0.3-0.6l-0.5-1l1.4-0.2l0.4,0.9c0,0,0.4,0.8,1,0.8h0.7c0,0,0.8,0,0.8,0.6
				c0,0.2-0.1,0.4-0.2,0.5c-0.1,0.1-0.3,0.2-0.5,0.2h-5.3V9.7L70.2,9.7z M68.7,11.9H73c0,0,0.8,0,0.8,0.6S73,13.2,73,13.2h-4.3V11.9
				z M68.7,14.2H73c0,0,0.8,0,0.8,0.6s-0.8,0.6-0.8,0.6h-4.2V14.2z M68.7,16.6h4.2c0,0,0.8-0.1,0.8,0.9v4.5h-1.4v-0.7h-2.2v0.8h-1.4
				V16.6z M72.3,17.8h-2.2V20h2.2V17.8z M80.9,9.3v2.4c0,0.2,0,0.5,0.1,0.7c0.2,0.1,0.4,0.2,0.6,0.1h0.3c0,0,0.7,0,0.7,0.6
				s-0.7,0.6-0.7,0.6h-0.8c-0.5,0-0.9-0.1-1.3-0.4c-0.3-0.4-0.5-0.9-0.4-1.4V9.6h-2.2v0.5c0,0.7-0.1,1.4-0.4,2.1
				c-0.5,0.8-1.1,1.5-1.8,2l-1.2-1c0.6-0.4,1.2-1,1.6-1.6c0.3-0.8,0.4-1.6,0.3-2.4V8.4H80C80,8.4,80.9,8.3,80.9,9.3L80.9,9.3z
				 M81.7,15.7c0.1,1.1-0.1,2.2-0.6,3.1c-0.3,0.6-0.8,1.1-1.4,1.6c0.6,0.2,1.3,0.3,2,0.3c0,0,0.7,0,0.7,0.6S81.7,22,81.7,22
				c-1.2,0-2.3-0.2-3.4-0.7c-1.1,0.7-4.1,0.6-4.1,0.6v-1.4c0.9,0.1,1.8,0,2.6-0.3c-0.4-0.5-0.7-1-1-1.5c-0.3-0.7-0.5-1.5-0.6-2.3
				h1.4c0,0.5,0.1,1,0.2,1.4c0.3,0.8,0.9,1.5,1.6,1.9c0.6-0.4,1.1-0.9,1.4-1.4c0.3-0.8,0.4-1.6,0.3-2.5h-5.6v-1.3h5.8
				C80.4,14.6,81.7,14.4,81.7,15.7L81.7,15.7z"/>
			<path id="Shape_2_" class="st0" d="M91.3,10.4c0,0.6-0.7,0.7-0.7,0.7h-6.2V9.7h2.2c0,0,0.7,0,0.4-0.4c-0.2-0.4-0.6-1.2-0.6-1.2
				l1.5-0.2l0.7,1.4c0.1,0.3,0.4,0.4,0.6,0.4h1.4c0.2,0,0.4,0.1,0.5,0.2S91.3,10.2,91.3,10.4z M84.9,12h5.2c0.2,0,0.3,0,0.5,0.2
				c0.1,0.1,0.2,0.3,0.2,0.5c0,0.2,0,0.3-0.2,0.4c-0.1,0.1-0.3,0.2-0.5,0.1h-5.3L84.9,12z M84.9,14.3h5.2c0,0,0.7,0,0.7,0.6
				c0,0.6-0.7,0.6-0.7,0.6h-5.2V14.3z M85,16.7h4.9c0.3,0,0.5,0.1,0.7,0.2s0.3,0.4,0.2,0.7c0,0.9,0,4.3,0,4.3h-1.5v-0.7h-2.8v0.8
				h-1.5L85,16.7z M89.2,17.9h-2.8V20h2.8L89.2,17.9z M95.9,7.9v3.9c0,0.1,0,0.3,0.1,0.4c0.1,0.1,0.2,0.2,0.4,0.1h1.7
				c0.2,0,0.4,0,0.5,0.2s0.2,0.3,0.2,0.5c0,0.2,0,0.4-0.2,0.5c-0.1,0.1-0.3,0.2-0.5,0.2h-1.7c-0.6,0-0.5,0.6-0.5,0.6v7.8h-1.5v-7.9
				c0-0.1,0-0.3-0.1-0.4c-0.1-0.1-0.2-0.1-0.4-0.1h-2.3v-1.4h2.4c0.1,0,0.3,0,0.4-0.1s0.1-0.2,0.1-0.4V7.9H95.9z"/>
			<path id="Shape_3_" class="st0" d="M111.1,16.2c0,0,0.9-0.1,0.9,0.6c0,0.8-0.9,1-0.9,1l-2.5,0.8h5.4c0,0,0.9-0.1,0.9,0.6
				c0,0.7-0.9,0.6-0.9,0.6h-5.4v0.9c0,0.8-0.5,1.3-1.4,1.3h-2.4v-1.2l1.9,0.1c0.1,0,0.3,0,0.3-0.1c0.1-0.1,0.1-0.2,0.1-0.3v-0.6
				h-6.6v-1.2h6.6c0-0.2,0.1-0.4,0.3-0.5c0.2-0.2,0.3-0.2,0.9-0.4l1.5-0.4h-6.4v-1.1L111.1,16.2z M113.3,15.6h-11v2.2h-1.4V15
				c0-0.2,0.1-0.4,0.2-0.5s0.3-0.2,0.5-0.1V8.7l3.3-0.4l0.7,1.1l-2.6,0.4v0.7h2.3v1h-2.3v0.8h2.3v1h-2.3v1h9.7v-1h-2.2v-1h2.2v-0.8
				h-2.2v-1h2.2V9.7h-2.4V8.5h2.8c0,0,0.9,0,0.9,1v5c0,0,0.7-0.1,0.7,0.7v2.7h-1.4V15.6z M108,10.2l-1.7,1l-0.8-1l1.5-0.8l-0.8-0.8
				l0.8-0.7l1,1l1-0.7l0.7,0.7l-0.9,0.6l0.9,0.8l-0.9,0.6L108,10.2z M108,13.3l-1.6,0.9l-0.6-0.9l1.4-0.8l-0.8-0.8l0.9-0.6l0.8,0.9
				l1.2-0.8L110,12l-1,0.6l0.8,0.8l-0.9,0.7L108,13.3z"/>
			<path id="Shape_4_" class="st0" d="M122.1,9.5c0,0-0.7,2.9-0.8,3.2c-0.1,0.3,0,0.7,0.1,1l0.9,2.9c0.2,0.4,0.1,0.8-0.1,1.2
				c-0.2,0.4-0.5,0.6-1,0.7l-1.9,0.1v-1.4h1.1c0.6,0,0.4-0.7,0.4-0.7l-1-2.6c-0.2-0.4-0.2-0.8-0.1-1.2c0.1-0.4,0.8-2.9,0.8-2.9h-1.6
				V22h-1.4V8.5h3.6C122.4,8.5,122.1,9.5,122.1,9.5z M124.1,16.2h-1.5v-1.3h8.1c0,0,0.8,0,0.8,0.7c0,0.2-0.1,0.4-0.2,0.5
				c-0.1,0.1-0.3,0.2-0.5,0.2h-1.6c0,0-0.6,0-0.6,0.7V20c0,0.1,0,0.3,0.1,0.4c0.1,0.1,0.3,0.1,0.4,0.1h2.4c0.2,0,0.3,0.1,0.4,0.2
				c0.1,0.1,0.2,0.3,0.1,0.4c0,0.2,0,0.3-0.1,0.4c-0.1,0.1-0.3,0.2-0.4,0.2h-2.8c-0.4,0-0.8-0.1-1.2-0.4c-0.3-0.4-0.5-0.9-0.4-1.4
				v-3.2c0-0.2,0-0.3-0.2-0.4c-0.1-0.1-0.3-0.2-0.4-0.2c-0.5,0-0.5,0.6-0.5,0.6c0,1.1-0.3,2.1-0.9,3.1c-0.8,1-1.8,1.7-2.9,2.2
				l-0.9-1.3c1-0.3,1.9-0.8,2.6-1.6c0.5-0.7,0.7-1.5,0.7-2.3C124.6,16.8,124.7,16.2,124.1,16.2z M130,13.4h-6.3v-0.7h-1.2V9.3h3.2
				c0.4,0,0.2-0.3,0.2-0.3l-0.5-0.9l1.5-0.2l0.5,1.1c0.1,0.2,0.3,0.4,0.6,0.3h2.5c0.2,0,0.4,0.1,0.5,0.2c0.1,0.1,0.2,0.3,0.2,0.5
				v2.6h-1.2L130,13.4z M129.8,10.7H124v1.5h5.8V10.7z"/>
			<path id="Shape_5_" class="st0" d="M38,26.6h-1.9l-0.5,1.1H35l1.7-3.7h0.6l1.7,3.7h-0.7L38,26.6z M37,24.5l-0.7,1.6h1.4L37,24.5z
				"/>
			<path id="Shape_6_" class="st0" d="M39.4,24.9h0.5v0.4l0,0c0.3-0.3,0.7-0.5,1.1-0.4c0.8,0,1.5,0.6,1.5,1.4c0,0.8-0.7,1.4-1.5,1.4
				c-0.4,0-0.8-0.1-1.1-0.4l0,0v1.4h-0.5V24.9z M40.9,25.3c-0.6,0-1,0.5-1,1s0.5,1,1,1s1-0.5,1-1S41.5,25.3,40.9,25.3z"/>
			<path id="Shape_7_" class="st0" d="M43,24.9h0.5v0.4l0,0c0.3-0.3,0.7-0.5,1.1-0.4c0.8,0,1.5,0.6,1.5,1.4c0,0.8-0.7,1.4-1.5,1.4
				c-0.4,0-0.8-0.1-1.1-0.4l0,0v1.4H43V24.9z M44.5,25.3c-0.6,0-1,0.5-1,1s0.5,1,1,1s1-0.5,1-1S45.1,25.3,44.5,25.3L44.5,25.3z"/>
			<path id="Shape_8_" class="st0" d="M47.1,26.4c0.1,0.5,0.5,0.9,1,0.9c0.4,0,0.7-0.2,0.9-0.5h0.5c-0.2,0.6-0.8,0.9-1.4,0.9
				c-0.8,0-1.5-0.7-1.5-1.5c0-0.8,0.7-1.5,1.5-1.5c0.4,0,0.8,0.1,1.1,0.4c0.3,0.3,0.4,0.7,0.4,1.1v0.1L47.1,26.4z M49.1,26
				c-0.1-0.5-0.5-0.8-1-0.8c-0.5,0-0.9,0.3-1,0.8H49.1z"/>
			<path id="Shape_9_" class="st0" d="M52.6,27.3L52.6,27.3c-0.3,0.3-0.7,0.5-1.1,0.4c-0.5,0-1-0.3-1.3-0.7c-0.3-0.4-0.3-1,0-1.4
				c0.3-0.4,0.7-0.7,1.3-0.7c0.4,0,0.8,0.1,1.1,0.4l0,0v-1.4h0.5v3.8h-0.5V27.3z M51.7,27.3c0.4,0,0.7-0.2,0.9-0.5
				c0.2-0.3,0.2-0.7,0-1c-0.2-0.3-0.5-0.5-0.9-0.5c-0.6,0-1,0.5-1,1S51.1,27.3,51.7,27.3L51.7,27.3z"/>
			<path id="Path_23_" class="st0" d="M56.6,27.7h-0.5v-0.4l0,0c-0.3,0.3-0.7,0.5-1.1,0.5c-0.7,0-1.2-0.3-1.2-1v-1.9h0.5v1.8
				c0,0.4,0.3,0.6,0.8,0.6c0.2,0,0.5-0.1,0.6-0.2c0.2-0.2,0.3-0.4,0.3-0.6v-1.6h0.5L56.6,27.7z"/>
			<path id="Path_24_" class="st0" d="M62.2,25.3c-0.1-0.6-0.7-1-1.3-1c-0.4,0-0.8,0.1-1.1,0.4c-0.3,0.3-0.4,0.7-0.4,1.1
				c0,0.4,0.1,0.8,0.4,1c0.3,0.3,0.7,0.4,1,0.4c0.7,0.1,1.2-0.4,1.3-1h0.6c-0.1,0.9-1,1.6-1.9,1.5c-1.1-0.1-1.9-0.9-1.9-2
				c0-1,0.8-1.9,1.9-2c0.8,0,1.8,0.3,1.9,1.4H62.2z"/>
			<path id="Shape_10_" class="st0" d="M64.9,24.8c0.8,0.1,1.4,0.8,1.4,1.5c0,0.8-0.7,1.4-1.5,1.4c-0.8,0-1.4-0.7-1.4-1.5
				c0-0.4,0.2-0.8,0.5-1.1S64.4,24.8,64.9,24.8L64.9,24.8z M64.9,25.3c-0.6,0-1,0.5-1,1c0,0.6,0.5,1,1,1c0.6,0,1-0.5,1-1
				c0-0.3-0.1-0.6-0.3-0.7C65.4,25.3,65.1,25.2,64.9,25.3L64.9,25.3z"/>
			<path id="Path_25_" class="st0" d="M71.2,25.9c0-0.2,0-0.4-0.2-0.5c-0.1-0.1-0.3-0.2-0.5-0.2c-0.5,0-0.9,0.2-0.9,0.7v1.7h-0.5
				v-1.8c0-0.2,0-0.4-0.2-0.5c-0.1-0.1-0.3-0.2-0.5-0.2c-0.2,0-0.5,0.1-0.6,0.2s-0.3,0.4-0.3,0.6v1.6H67v-2.7h0.5v0.4l0,0
				c0.3-0.3,0.7-0.5,1.1-0.5c0.4,0,0.7,0.2,0.9,0.5c0.3-0.3,0.7-0.5,1.1-0.5c0.3,0,0.5,0.1,0.7,0.3c0.2,0.2,0.3,0.4,0.3,0.7v1.9
				h-0.5L71.2,25.9z"/>
			<path id="Shape_11_" class="st0" d="M72.4,24.9h0.5v0.4l0,0c0.3-0.3,0.7-0.5,1.1-0.4c0.5,0,1,0.3,1.3,0.7c0.3,0.4,0.3,1,0,1.4
				c-0.3,0.4-0.7,0.7-1.3,0.7c-0.4,0-0.8-0.1-1.1-0.4l0,0v1.4h-0.5V24.9z M73.9,25.3c-0.6,0-1,0.5-1,1s0.5,1,1,1s1-0.5,1-1
				c0-0.3-0.1-0.5-0.3-0.7C74.5,25.4,74.2,25.3,73.9,25.3z"/>
			<path id="Path_26_" class="st0" d="M78.8,27.7h-0.5v-0.4l0,0c-0.3,0.3-0.7,0.5-1.1,0.5c-0.7,0-1.2-0.3-1.2-1v-1.9h0.5v1.8
				c0,0.4,0.3,0.6,0.8,0.6c0.2,0,0.5-0.1,0.6-0.2c0.2-0.2,0.3-0.4,0.3-0.6v-1.6h0.5L78.8,27.7z"/>
			<path id="Path_27_" class="st0" d="M79.7,24.1h0.5v0.8H81v0.4h-0.8V27c0,0.2,0.2,0.3,0.4,0.3c0.1,0,0.2,0,0.4,0v0.4
				c-0.2,0-0.4,0-0.6,0c-0.5,0-0.7-0.3-0.7-0.7v-1.8h-0.6v-0.4h0.6V24.1z"/>
			<path id="Shape_12_" class="st0" d="M81.9,26.4c0.1,0.5,0.5,0.9,1,0.9c0.4,0,0.7-0.2,0.9-0.5h0.6c-0.2,0.6-0.8,0.9-1.4,0.9
				c-0.8,0-1.5-0.7-1.5-1.5s0.7-1.5,1.5-1.5c0.4,0,0.8,0.1,1.1,0.4s0.4,0.7,0.4,1.1v0.1L81.9,26.4z M83.9,26c-0.1-0.5-0.5-0.8-1-0.8
				c-0.5,0-0.9,0.3-1,0.8H83.9z"/>
			<path id="Path_28_" class="st0" d="M85,24.9h0.5v0.5l0,0c0.2-0.4,0.5-0.6,1-0.6c0.1,0,0.2,0,0.3,0v0.6c-0.1,0-0.3-0.1-0.4-0.1
				c-0.2,0-0.5,0.1-0.7,0.2c-0.2,0.2-0.3,0.4-0.2,0.7v1.4H85L85,24.9z"/>
			<path id="Shape_13_" class="st0" d="M89,23.9h1.9c1.1,0,1.7,0.7,1.7,1.8c0,1.1-0.5,1.9-1.6,1.9h-2V23.9z M90.9,27.2
				c0.9,0,1.1-0.8,1.1-1.4c0-0.7-0.2-1.3-1.2-1.3h-1.3v2.8H90.9z"/>
			<path id="Shape_14_" class="st0" d="M93.6,26.4c0.1,0.5,0.5,0.9,1,0.9c0.4,0,0.7-0.2,0.9-0.5h0.6c-0.2,0.6-0.8,0.9-1.4,0.9
				c-0.8,0-1.5-0.7-1.5-1.5c0-0.8,0.7-1.5,1.5-1.5c0.4,0,0.8,0.1,1.1,0.4c0.3,0.3,0.4,0.7,0.4,1.1v0.1L93.6,26.4z M95.6,26
				c-0.1-0.5-0.5-0.8-1-0.8c-0.5,0-0.9,0.3-1,0.8H95.6z"/>
			<path id="Path_29_" class="st0" d="M97,26.8c0,0.2,0.2,0.5,0.9,0.5s0.9-0.2,0.9-0.4s-0.1-0.3-0.5-0.4l-0.9-0.1
				c-0.4,0-0.7-0.3-0.8-0.7c0-0.6,0.5-0.9,1.3-0.9c0.9,0,1.3,0.4,1.4,0.9h-0.5c0-0.3-0.3-0.5-0.8-0.5c-0.3,0-0.7,0.1-0.7,0.4
				c0,0.2,0.1,0.3,0.5,0.3l0.8,0.1c0.7,0.1,1,0.3,1,0.7c0,0.6-0.5,0.9-1.4,0.9c-0.6,0-1.4-0.2-1.4-1H97z"/>
			<path id="Shape_15_" class="st0" d="M99.8,23.9h0.5v0.6h-0.5V23.9z M99.8,24.9h0.5v2.7h-0.5V24.9z"/>
			<path id="Shape_16_" class="st0" d="M103.5,24.9h0.5v2.5c0,1-0.5,1.4-1.6,1.4c-0.6,0-1.3-0.1-1.4-0.9h0.5
				c0.1,0.4,0.4,0.4,0.9,0.4c0.7,0,1-0.4,1-0.8v-0.4l0,0c-0.2,0.3-0.7,0.5-1.1,0.5c-0.8,0-1.4-0.6-1.4-1.4s0.6-1.4,1.4-1.4
				c0.4,0,0.8,0.1,1.1,0.5l0,0L103.5,24.9z M102.4,25.3c-0.3,0-0.5,0.1-0.7,0.3c-0.2,0.2-0.3,0.4-0.3,0.7c0,0.3,0.1,0.5,0.3,0.7
				c0.2,0.2,0.5,0.3,0.7,0.3c0.3,0,0.5-0.1,0.7-0.3c0.2-0.2,0.3-0.4,0.3-0.7c0-0.3-0.1-0.5-0.3-0.7C103,25.4,102.7,25.3,102.4,25.3
				L102.4,25.3z"/>
			<path id="Path_30_" class="st0" d="M104.6,24.9h0.5v0.4l0,0c0.3-0.3,0.7-0.5,1.1-0.5c0.7,0,1.2,0.3,1.2,1v1.9h-0.5v-1.8
				c0-0.4-0.3-0.6-0.8-0.6c-0.2,0-0.5,0.1-0.6,0.2c-0.2,0.2-0.3,0.4-0.3,0.6v1.6h-0.5L104.6,24.9z"/>
			<polygon id="Path_31_" class="st0" points="110,23.9 110.5,23.9 110.5,27.7 110,27.7 			"/>
			<path id="Path_32_" class="st0" d="M111.3,24.9h0.5v0.4l0,0c0.3-0.3,0.7-0.5,1.1-0.5c0.7,0,1.2,0.3,1.2,1v1.9h-0.5v-1.8
				c0-0.4-0.3-0.6-0.8-0.6c-0.2,0-0.5,0.1-0.6,0.2c-0.2,0.2-0.3,0.4-0.3,0.6v1.6h-0.5L111.3,24.9z"/>
			<path id="Path_33_" class="st0" d="M115.1,26.8c0,0.2,0.2,0.5,0.9,0.5s0.9-0.2,0.9-0.4s-0.1-0.3-0.5-0.4l-0.9-0.1
				c-0.4,0-0.7-0.3-0.8-0.7c0-0.6,0.5-0.9,1.3-0.9c0.9,0,1.3,0.4,1.4,0.9h-0.5c0-0.3-0.3-0.5-0.8-0.5c-0.3,0-0.7,0.1-0.7,0.4
				c0,0.2,0.1,0.3,0.5,0.3l0.8,0.1c0.7,0.1,1,0.3,1,0.7c0,0.6-0.5,0.9-1.4,0.9c-0.6,0-1.4-0.2-1.4-1H115.1z"/>
			<path id="Path_34_" class="st0" d="M118.2,24.1h0.5v0.8h0.8v0.4h-0.8V27c0,0.2,0.2,0.3,0.4,0.3c0.1,0,0.2,0,0.4,0v0.4
				c-0.2,0-0.4,0-0.6,0c-0.5,0-0.7-0.3-0.7-0.7v-1.8h-0.6v-0.4h0.6V24.1z"/>
			<path id="Shape_17_" class="st0" d="M119.9,23.9h0.5v0.6h-0.5V23.9z M119.9,24.9h0.5v2.7h-0.5V24.9z"/>
			<path id="Path_35_" class="st0" d="M121.3,24.1h0.5v0.8h0.8v0.4h-0.8V27c0,0.2,0.2,0.3,0.4,0.3c0.1,0,0.2,0,0.4,0v0.4
				c-0.2,0-0.4,0-0.6,0c-0.5,0-0.7-0.3-0.7-0.7v-1.8h-0.6v-0.4h0.6V24.1z"/>
			<path id="Path_36_" class="st0" d="M125.8,27.7h-0.5v-0.4l0,0c-0.2,0.3-0.7,0.5-1.1,0.5c-0.7,0-1.2-0.3-1.2-1v-1.9h0.5v1.8
				c0,0.4,0.3,0.6,0.8,0.6c0.2,0,0.5-0.1,0.6-0.2c0.2-0.2,0.3-0.4,0.3-0.6v-1.6h0.5L125.8,27.7z"/>
			<path id="Path_37_" class="st0" d="M126.7,24.1h0.5v0.8h0.8v0.4h-0.8V27c0,0.2,0.2,0.3,0.4,0.3c0.1,0,0.2,0,0.4,0v0.4
				c-0.2,0-0.4,0-0.6,0c-0.5,0-0.7-0.3-0.7-0.7v-1.8h-0.6v-0.4h0.6V24.1z"/>
			<path id="Shape_18_" class="st0" d="M128.8,26.4c0.1,0.5,0.5,0.9,1,0.9c0.4,0,0.7-0.2,0.9-0.5h0.6c-0.2,0.6-0.8,0.9-1.4,0.9
				c-0.8,0-1.5-0.7-1.5-1.5s0.7-1.5,1.5-1.5c0.4,0,0.8,0.1,1.1,0.4s0.4,0.7,0.4,1.1v0.1L128.8,26.4z M130.8,26
				c-0.1-0.5-0.5-0.8-1-0.8c-0.5,0-0.9,0.3-1,0.8H130.8z"/>
		</g>
	</g>
</g>
</svg>
