<?xml version="1.0" encoding="UTF-8"?>
<svg width="132px" height="30px" viewBox="0 0 132 30" version="1.1" xmlns="http://www.w3.org/2000/svg" xmlns:xlink="http://www.w3.org/1999/xlink">
    <title>Group</title>
    <g id="Symbols" stroke="none" stroke-width="1" fill="none" fill-rule="evenodd">
        <g id="Logo/Header/Normal" transform="translate(1.000000, 0.000000)" fill="#21505B">
            <g id="Group" transform="translate(-1.000000, 0.000000)">
                <path d="M10.4433006,18.0715315 C10.0344726,16.7903304 9.24864746,15.6468819 8.1784561,14.7759727 L7.1546223,14.0685183 L6.69544835,13.7619547 L6.69544835,13.7619547 L6.32314516,13.5143456 L6.32314516,13.5143456 L6.20524914,13.4318092 L5.76469036,13.1370366 L5.53510338,12.9778593 L5.23105577,12.765623 C3.87558757,11.9175705 2.65700842,10.8868894 1.61350968,9.70588235 L0.372499013,13.2431547 L0.211167626,13.6971047 L0.211167626,13.6971047 L0.000195812981,14.3161273 L0.000195812981,14.3161273 C-0.00175129563,14.3981122 0.0108344978,14.4798241 0.037426133,14.557841 C0.298038373,15.3537272 1.78725117,16.6153544 5.0014688,18.7730905 L5.17521029,18.8909996 L5.51648822,19.1209223 L5.8515611,19.3449496 C7.97989439,20.7952312 9.43808193,21.9153675 10.1330479,22.8822219 C10.1454153,22.9032038 10.1599666,22.9229542 10.1764833,22.9411765 C10.8700077,21.3992959 10.9645676,19.6734966 10.4433006,18.0715315 Z" id="Path"></path>
                <path d="M9.87755102,23.7621787 C9.6828782,23.0538869 8.36188403,21.8978665 5.91456853,20.2941176 L5.86093418,20.4537586 C4.59158791,24.0154022 4.22806621,25.8650348 4.66905975,26.4155207 C4.74214552,26.4523249 4.82419759,26.4712734 4.90743464,26.4705882 C5.8788123,26.4705882 7.89308009,25.1659178 9.87755102,23.7621787 Z" id="Path"></path>
                <path d="M6.53252962,12.3529412 C7.38368169,12.0103806 8.35374472,9.1266436 8.97959184,7.05882353 L8.35374472,7.05882353 C4.19186141,7.05882353 2.17037523,7.35778547 1.80112543,8.02422145 C1.65092212,8.93979239 4.78641617,11.1633218 6.53252962,12.3529412 Z" id="Path"></path>
                <path d="M16.1632653,5.76510332 C17.1824972,7.16016327 18.8425729,7.97422062 20.5987492,7.94014765 C21.2250119,7.93402458 21.8474921,7.84463361 22.4489796,7.67444622 C22.3412607,7.35931195 22.2335418,7.05653589 22.1194865,6.6796106 L21.9484036,6.17910323 C20.9852699,3.23785009 19.8637261,0.216268613 18.8815833,0 C17.9437953,0.185373097 16.8095787,3.6394918 16.1632653,5.76510332 Z" id="Path"></path>
                <path d="M21.9615007,23.8235294 L21.8831445,23.8235294 C20.9428701,23.8235294 19.0804035,25.0965889 17.0612245,26.6315698 L17.2541013,26.7716672 C20.2256095,28.9705882 22.0097199,30 22.8475285,30 C22.9541694,29.9996449 23.0593169,29.9746425 23.1549259,29.9269057 C23.8058851,29.2751479 22.6486243,25.7666203 21.9615007,23.8235294 Z" id="Path"></path>
                <path d="M26.3032919,19.8243608 C25.2655412,16.9975057 25.0164811,16.1612277 24.6073108,14.7831359 C24.5302207,14.5416753 24.4946407,14.4121111 24.4056906,14.1176471 L24.4056906,14.1176471 C23.3596846,14.9956305 22.5573898,16.1249166 22.075199,17.3979769 C21.7213499,18.2595414 21.5439477,19.1825047 21.5533587,20.1129356 C21.550241,20.1521365 21.550241,20.1915204 21.5533587,20.2307213 C21.5533587,20.2719462 21.5533587,20.3131712 21.5533587,20.3602855 L21.5533587,20.4073997 C21.5797606,21.5268284 21.8423859,22.6282989 22.3242592,23.6406153 C22.3657692,23.7642902 22.4132093,23.8879651 22.4487893,24.0057507 C22.4843693,24.1235363 22.5911094,24.4062219 22.6622694,24.5946789 C23.3382899,26.5734774 23.7415302,28.0929121 23.7296702,29.1176471 L26.0423718,27.3920876 L26.6946722,26.9150558 L27.0919825,26.6205917 L27.6316129,26.2142313 L27.6316129,26.2142313 C28.2661233,25.5664103 27.3173226,22.6217696 26.3032919,19.8243608 Z" id="Path"></path>
                <path d="M11.6734694,23.8235294 C11.9874797,23.507891 12.2849631,23.2137733 12.5714286,22.9411765 C12.2549724,23.2044936 11.9547449,23.4995031 11.6734694,23.8235294 L11.6734694,23.8235294 Z" id="Path"></path>
                <path d="M16.0177741,22.0589051 C14.658589,22.0596644 13.3275011,22.419312 12.1789898,23.0961093 C11.8675751,23.3080112 11.544183,23.5366422 11.2028246,23.7820024 L10.7716351,24.0942789 L10.7716351,24.0942789 L10.4182993,24.3507917 L10.4182993,24.3507917 L10.3105019,24.4288609 L9.89727864,24.7244083 L9.67569515,24.8805466 L9.38224674,25.0868721 C8.17333531,26.0059936 6.82788283,26.7573018 5.3877551,27.3174187 L8.48393528,29.3472161 L8.88518106,29.6093054 L8.88518106,29.6093054 L9.42416794,29.9661928 L9.42416794,29.9661928 C9.50322435,29.9908595 9.58637427,30.0021899 9.66970641,29.999651 C10.5141192,29.999651 12.1610235,29.0683978 15.1733613,26.8824621 L15.3350574,26.7653584 L15.6524607,26.5367274 L15.9698641,26.3136727 C17.9820818,24.8861229 19.4852563,23.943717 20.5871851,23.609135 L20.6530612,23.609135 C19.3523036,22.6001308 17.7107403,22.0511248 16.0177741,22.0589051 L16.0177741,22.0589051 Z" id="Path"></path>
                <path d="M10.2008163,22.0058824 C10.2980931,21.7514572 10.382013,21.4922926 10.4522449,21.2294118 L10.2008163,22.0058824 Z" id="Path"></path>
                <path d="M14.9465306,7.05882353 C14.8567347,7.34117647 14.7759184,7.63235294 14.6861224,7.94117647 C14.7889058,7.65184167 14.8758332,7.35730155 14.9465306,7.05882353 Z" id="Path"></path>
                <path d="M14.2255639,0.0848166633 L13.7293233,0.0848166633 L13.0558539,0.0848166633 L13.0558539,0.0848166633 C12.3764769,0.205983325 11.5316864,2.09618325 10.3796992,6.20979142 C10.3796992,6.28854975 10.3324382,6.35519141 10.3147154,6.43394974 C10.2969925,6.51270807 10.2379162,6.68839973 10.2024705,6.81562473 C10.1670247,6.94284972 10.1315789,7.07613305 10.0902256,7.20335805 C9.37540279,9.67515795 8.75510204,11.4138995 8.08163265,12.3529412 C8.19978518,12.3529412 8.31203008,12.3529412 8.43609023,12.3529412 L8.73737916,12.3529412 C11.6982843,12.2690901 14.2997344,10.3152657 15.2712137,7.44569137 C15.33029,7.25788305 15.3834586,7.05795805 15.4425349,6.83985806 L15.6433942,6.14314976 C15.6433942,6.14314976 15.6433942,6.14314976 15.6433942,6.14314976 L15.7792696,5.67665811 L15.7792696,5.67665811 L15.8324382,5.50096645 C15.8737916,5.34344979 15.9210526,5.18593313 15.962406,5.0344748 L16.104189,4.57404149 C16.104189,4.51951649 16.1337272,4.46499149 16.1514501,4.41046649 C16.7835661,2.32639991 17.3329753,0.836049967 17.9591837,0 L14.2255639,0.0848166633 Z" id="Path"></path>
                <path d="M16.6122449,7.46470588 L16.6122449,7.53529412 C16.6122449,7.53529412 16.6122449,7.49117647 16.6122449,7.47352941 L16.6122449,7.46470588 Z" id="Path"></path>
                <path d="M25.1355567,12.6661765 C24.8581384,12.7367647 24.5588186,12.825 24.244898,12.9220588 C24.5476635,12.8555094 24.8473826,12.7701014 25.1428571,12.6661765 L25.1428571,12.6661765 L25.1355567,12.6661765 Z" id="Path"></path>
                <path d="M29.0031759,7.99501496 C28.6130683,7.96510469 28.2229607,7.94117647 27.8386755,7.94117647 C26.4566175,7.95017056 25.0833532,8.16785156 23.7629242,8.58723829 L23.2913015,8.73080758 L22.9594189,8.8444666 L22.9594189,8.8444666 L22.8779039,8.8444666 L22.6042463,8.92821535 C21.9784381,9.1192511 21.3298059,9.21991672 20.6769982,9.22731805 C19.4692566,9.23498561 18.2890832,8.85659786 17.2999471,8.1445663 L17.0612245,7.96510469 C17.0612245,7.96510469 17.0612245,7.96510469 17.0612245,8.00697906 C17.5402132,10.744414 19.7249529,12.8255553 22.4179262,13.109671 C22.6158913,13.109671 22.8255014,13.1395813 23.0351115,13.1395813 C23.4044616,13.1404784 23.773019,13.1044158 24.1355643,13.0319043 C24.3859319,12.9661017 24.6246545,12.9062812 24.8459095,12.8584247 L24.8459095,12.8584247 C25.512315,12.6920193 26.1992861,12.629506 26.8837852,12.6729811 C27.9152792,12.7649435 28.9364875,12.9531573 29.9347762,13.2352941 L33.2244898,8.89232303 C31.8570357,8.42214954 30.4399568,8.12092667 29.0031759,7.99501496 L29.0031759,7.99501496 Z" id="Path"></path>
                <path d="M36.9134336,14.1869568 L36.0870665,18.8870933 L35.0204082,18.2033326 C35.0204082,18.2033326 35.7764462,14.3478417 35.8116108,14.0835308 L36.9134336,14.1869568 Z M40.7756745,13.0377792 C40.6703714,13.0235832 40.5641695,13.0568471 40.4867662,13.1282694 C40.4093629,13.1996916 40.3690656,13.3016068 40.3771428,13.4055161 L40.3771428,20.2431229 C40.4090166,20.6191455 40.2984306,20.9934963 40.0665225,21.2946204 C39.74563,21.5716854 39.318359,21.6994488 38.8943705,21.6451196 L38.0738641,21.6451196 L37.8101299,20.2833441 L38.6599401,20.3465489 C38.9940034,20.3465489 39.1639655,20.1914099 39.1639655,19.8753861 L39.1639655,13.3250736 C39.1639655,13.3250736 39.19913,13.0550169 38.8767882,13.0550169 C38.8036706,13.0513584 38.7325443,13.0790544 38.6819124,13.1309001 C38.6312805,13.1827459 38.6061484,13.2536158 38.613054,13.3250736 C38.613054,13.6583351 38.613054,13.6353516 38.613054,13.81922 L38.613054,14.129498 C38.6599143,15.6625102 38.4982992,17.1948125 38.1324717,18.6859872 C37.7404652,19.8868725 37.1133854,21.0012994 36.2863323,21.9668893 L35.2138132,21.1509732 C36.0103716,20.3333221 36.611012,19.3518759 36.9720412,18.2780292 C37.3352635,16.731988 37.4928595,15.1463592 37.440902,13.560655 C37.440902,12.9860662 37.0130666,13.0550169 37.0130666,13.0550169 L35.2606993,13.0550169 L35.2606993,11.7736838 L37.7632438,11.7736838 C37.7632438,11.7736838 38.1441932,11.813905 38.1441932,11.3772176 L38.1441932,10.9692595 C38.1473426,10.861599 38.106318,10.7571979 38.0303066,10.6794363 C37.9542952,10.6016746 37.8496483,10.5570499 37.7398008,10.5555556 L35.7178386,10.5555556 L35.7178386,9.30869784 L37.8452945,9.30869784 C37.9458182,9.30720626 38.0415235,9.26621385 38.1109407,9.19491648 C38.1803579,9.12361911 38.2176756,9.0279855 38.2145224,8.92946922 L38.2145224,7.94117647 L39.5683579,7.94117647 L39.5683579,8.99841988 C39.5561499,9.08487613 39.5864038,9.17189533 39.6499293,9.23304339 C39.7134548,9.29419144 39.8027538,9.32225082 39.8906997,9.30869784 L41.0921555,9.30869784 C41.0921555,9.30869784 41.836472,9.25698485 41.836472,9.95223731 C41.836472,10.6474898 41.0921555,10.5268261 41.0921555,10.5268261 L40.0489402,10.5268261 C39.9364962,10.5215672 39.8271577,10.5638744 39.7486863,10.6430059 C39.6702149,10.7221374 39.6301583,10.8304818 39.638687,10.9405301 L39.638687,11.4519141 C39.638687,11.4519141 39.638687,11.7679379 40.0254972,11.7679379 L41.2738391,11.7679379 C41.4541274,11.7500064 41.6337005,11.8079872 41.7678383,11.927441 C41.9019762,12.0468947 41.9780556,12.2165802 41.9771386,12.3942397 C41.9771386,13.0320333 41.2738391,13.049271 41.2738391,13.049271 L40.7756745,13.0377792 Z M42.0474594,16.6864182 L40.933915,17.0196797 L40.4123073,14.4053006 L41.4496619,14.1582274 L42.0474594,16.6864182 Z M43.6181431,14.4685054 L42.9675987,19.3180349 L41.8481935,18.438914 L42.4987379,14.3248581 L43.6181431,14.4685054 Z M47.5858776,13.0377792 C47.490138,13.031483 47.3966548,13.0681114 47.3317128,13.1373656 C47.2667707,13.2066198 47.2373836,13.3010202 47.2518142,13.3940243 L47.2518142,20.444229 C47.2771781,20.820469 47.1649753,21.1932592 46.9353332,21.4957265 C46.6118622,21.7682294 46.1867123,21.8953586 45.7631812,21.8462257 L44.9368141,21.8462257 L44.6496368,20.4901961 L45.5170293,20.547655 C45.8510926,20.547655 46.0210547,20.392516 46.0210547,20.0764921 L46.0210547,13.3135818 C46.0210547,13.3135818 46.0210547,13.0550169 45.6811306,13.0550169 C45.3412065,13.0550169 45.3646495,13.3135818 45.3646495,13.3135818 L45.3646495,14.129498 C45.4129846,15.6625627 45.2513493,17.1950569 44.8840672,18.6859872 C44.4686142,19.917802 43.8204705,21.0619839 42.9734595,22.0588235 L41.8716366,21.2199239 C42.6716356,20.3976206 43.2848513,19.418473 43.6708899,18.3469798 C44.0049532,17.3529412 44.1690545,14.1007685 44.1690545,13.4859585 C44.1690545,13.0033039 43.7588013,13.0722545 43.7588013,13.0722545 L42.4108265,13.0722545 L42.4108265,11.7736838 L44.4093457,11.7736838 C44.5115377,11.7957225 44.6184481,11.7727627 44.7018849,11.7108589 C44.7853216,11.6489551 44.8369084,11.5543221 44.8430419,11.4519141 L44.8430419,10.9922431 C44.8521038,10.8729001 44.8072596,10.755675 44.7203838,10.6716081 C44.633508,10.5875413 44.5133634,10.5451121 44.3917634,10.5555556 L42.6393961,10.5555556 L42.6393961,9.30869784 L44.5382824,9.30869784 C44.6375264,9.32143382 44.7372738,9.28907448 44.8091807,9.22081499 C44.8810876,9.15255549 44.9172935,9.05585756 44.9075103,8.95819866 L44.9075103,7.94117647 L46.2554851,7.94117647 L46.2554851,8.98118222 C46.2554851,8.98118222 46.2554851,9.30869784 46.5426623,9.30869784 L48.3594979,9.30869784 C48.6831787,9.30869784 48.9455739,9.56595001 48.9455739,9.88328665 C48.96579,10.0472224 48.9130885,10.2117612 48.8009109,10.3349375 C48.6887334,10.4581139 48.5279243,10.5280199 48.3594979,10.5268261 L46.6598775,10.5268261 C46.5746322,10.5136272 46.4880046,10.5403601 46.4258396,10.5990494 C46.3636747,10.6577386 46.3331589,10.7415994 46.3433965,10.8256123 L46.3433965,11.4002011 C46.3433965,11.7679379 46.7595104,11.7334626 46.7595104,11.7334626 L48.746308,11.7334626 C48.9202729,11.7172775 49.0925301,11.7780434 49.2160944,11.8991859 C49.3396588,12.0203284 49.4016396,12.1892093 49.3851309,12.3597644 C49.3931414,12.5307895 49.3293903,12.6975743 49.2087086,12.821318 C49.0880269,12.9450617 48.920936,13.0149759 48.746308,13.0147957 L47.5858776,13.0377792 Z M48.0605991,19.8581484 L47.6210421,14.5604396 L48.7931941,14.3708253 L49.3441056,19.5421245 L48.0605991,19.8581484 Z" id="Shape"></path>
                <polygon id="Path" points="53.877551 17.8230081 53.2735666 22.0588235 52.0816327 22.0588235 52.7069971 17.6470588"></polygon>
                <path d="M56.650003,10.1449275 L57.8594001,10.654838 L54.6000749,15.7539429 C54.6000749,15.7539429 54.2674907,16.1642157 54.6000749,16.1466326 C55.2047734,16.1056053 56.5592982,15.9356351 56.5472043,15.912191 L56.0936803,14.7399829 L57.1579498,14.4352089 L58.3673469,17.2485081 L57.1579498,17.6470588 L56.9039764,17.0609548 L52.9008719,17.4712276 C52.9008719,17.4712276 51.8849783,17.5708653 52.3505962,16.797208 L54.7693905,13.280584 L52.8827309,13.4739983 C52.8827309,13.4739983 51.8728843,13.579497 52.1208108,12.846867 C52.1208108,12.7999787 54.4489002,7.94117647 54.4489002,7.94117647 L55.797378,8.29283887 L53.9832823,11.8094629 C53.9832823,11.8094629 53.7958258,12.1552643 54.2130678,12.1318201 C54.6303098,12.108376 55.4950288,11.96185 55.4950288,11.96185" id="Path"></path>
                <polygon id="Path" points="54.0913508 21.1764706 53.877551 17.7959559 55.3028831 17.6470588 55.6734694 21.0330882"></polygon>
                <polygon id="Path" points="56.0857619 20.2941176 55.6734694 17.8495107 56.9452871 17.6470588 57.4693878 20.010685"></polygon>
                <path d="M57.4693878,8.8186821 L57.4693878,7.94117647 L65.6253343,7.94117647 C65.6253343,7.94117647 66.4489796,7.94117647 66.4489796,8.34931862 C66.4489796,8.86357774 65.6253343,8.82276352 65.6253343,8.82276352 L57.4693878,8.8186821 Z" id="Path"></path>
                <path d="M61.0991312,16.0338928 L58.4760519,16.0338928 L58.4760519,14.6407039 L61.2314357,14.6407039 C61.3122983,14.6390985 61.389247,14.6034287 61.4453465,14.5415447 C61.501446,14.4796607 61.5320988,14.3966343 61.5305587,14.3107381 L61.5305587,13.2352941 L62.8881173,13.2352941 L62.8881173,14.3962848 C62.8881173,14.3962848 62.8881173,14.6651458 63.118212,14.6651458 L65.7643007,14.6651458 C65.9429136,14.6495255 66.1193846,14.7150947 66.2498906,14.8455705 C66.3803966,14.9760463 66.4526951,15.1591892 66.4488324,15.3495193 C66.4458978,15.5375553 66.3715148,15.716342 66.2425941,15.845233 C66.1136734,15.9741239 65.9411695,16.0421669 65.7643007,16.0338928 C65.7643007,16.0338928 63.7164581,16.0338928 63.3310495,16.0338928 C62.945641,16.0338928 63.1584785,16.3516376 63.1584785,16.3516376 L66.4028134,21.9549454 L64.5793131,21.9549454 L62.8536031,18.5391885 L62.8536031,22.0588235 L61.5017969,22.0588235 L61.5017969,18.5391885 L59.0685457,22.0160502 L57.4693878,22.0160502 L61.1624073,16.4738472 C61.3062164,16.2599804 61.4672827,16.0338928 61.0991312,16.0338928 Z" id="Path"></path>
                <polygon id="Path" points="58.4997959 14.1176471 57.4693878 10.9934641 58.9846939 10.5882353 60.1632653 13.7124183"></polygon>
                <polygon id="Path" points="61.3964626 13.2352941 61.0612245 10.7484956 62.4440816 10.5882353 62.8571429 13.1026649"></polygon>
                <polygon id="Path" points="66.4489796 11.0226244 65.107797 14.1176471 63.755102 13.5366516 65.1711146 10.5882353"></polygon>
                <path d="M70.1684113,9.68656859 C70.1684113,9.68656859 70.8764531,9.72662677 70.4929305,9.0742507 L70.0209027,8.11857698 L71.4428865,7.94117647 L71.8677115,8.8739598 C71.8677115,8.8739598 72.2453338,9.72090417 72.8353686,9.72090417 L73.4962075,9.72090417 C73.4962075,9.72090417 74.269166,9.68656859 74.269166,10.361835 C74.2703633,10.5545942 74.1865776,10.7386662 74.0389038,10.867678 C73.89123,10.9966899 73.6937475,11.0583417 73.4962075,11.0371015 L68.244898,11.0371015 L68.244898,9.72090417 L70.1684113,9.68656859 Z M68.7051251,11.9412718 L72.9592759,11.9412718 C72.9592759,11.9412718 73.7322214,11.9412718 73.7322214,12.5764801 C73.7322214,13.2116884 72.9592759,13.1945206 72.9592759,13.1945206 L68.7051251,13.1945206 L68.7051251,11.9412718 Z M68.7051251,14.1788073 L72.9710766,14.1788073 C72.9710766,14.1788073 73.7617232,14.1444717 73.7617232,14.8197382 C73.7617232,15.4950046 72.9415748,15.4435013 72.9415748,15.4435013 L68.7051251,15.4435013 L68.7051251,14.1788073 Z M68.7051251,16.5880207 L72.8825713,16.5880207 C72.8825713,16.5880207 73.7145204,16.5021817 73.7145204,17.4521329 L73.7145204,21.9043134 L72.2925366,21.9043134 L72.2925366,21.2176018 L70.1271089,21.2176018 L70.1271089,22.0588235 L68.7051251,22.0588235 L68.7051251,16.5880207 Z M72.2925366,17.8241017 L70.1271089,17.8241017 L70.1271089,19.964353 L72.2925366,19.964353 L72.2925366,17.8241017 Z M80.883443,9.28026419 L80.883443,11.6608646 C80.8529398,11.8938105 80.9049523,12.1298958 81.0309517,12.3304085 C81.2011946,12.4502214 81.4126382,12.5014898 81.6209865,12.4734734 L81.8983028,12.4734734 C81.8983028,12.4734734 82.6122449,12.4734734 82.6122449,13.0972365 C82.6122449,13.7209995 81.9042032,13.7267221 81.9042032,13.7267221 L81.0958555,13.7267221 C80.6388862,13.7622894 80.1846115,13.6317444 79.8213804,13.3604759 C79.4888616,12.9532842 79.3380234,12.4340433 79.4024557,11.9183815 L79.4024557,9.62934262 L77.219327,9.62934262 L77.219327,10.121486 C77.2413322,10.8338596 77.104472,11.5424418 76.8181033,12.1987887 C76.3668865,12.9775049 75.766021,13.6651665 75.047999,14.2245881 L73.8679294,13.2345788 C74.5156989,12.8153869 75.053221,12.2548602 75.437422,11.597916 C75.7177478,10.8114871 75.8360281,9.97930212 75.7855425,9.14864446 L75.7855425,8.35320346 L80.0101915,8.35320346 C80.0101915,8.35320346 80.901144,8.26164191 80.901144,9.268819 L80.883443,9.28026419 Z M81.715392,15.6666826 C81.7956562,16.7473034 81.5926781,17.8300517 81.1253572,18.814111 C80.7851091,19.4242978 80.3143762,19.9569417 79.7446759,20.37638 C80.3913918,20.5674041 81.0629823,20.6676131 81.7389934,20.673955 C81.7389934,20.673955 82.4647362,20.673955 82.4647362,21.3148859 C82.4647362,21.9558168 81.6917906,21.967262 81.6917906,21.967262 C80.5212239,21.9906052 79.3606816,21.7537439 78.2990906,21.2748277 C77.1898253,21.9500942 74.2278506,21.9214812 74.2278506,21.9214812 L74.2278506,20.5308901 C75.1019727,20.6123323 75.9840084,20.5168477 76.8181033,20.2504828 C76.4156385,19.7826069 76.069234,19.2719343 75.7855425,18.728272 C75.4559345,18.0013322 75.2449326,17.2290858 75.1601056,16.4392332 L76.5525877,16.4392332 C76.5704386,16.9251665 76.6476832,17.4073285 76.7827013,17.875605 C77.0670346,18.6703954 77.6423283,19.3362851 78.3993966,19.7468943 C78.9872948,19.3927912 79.4693969,18.8956191 79.797779,18.3047998 C80.0813206,17.5074792 80.1918068,16.6619069 80.1222981,15.8211927 L74.5523698,15.8211927 L74.5523698,14.5622213 L80.358312,14.5622213 C80.358312,14.5622213 81.7330931,14.396266 81.7330931,15.6552374 L81.715392,15.6666826 Z" id="Shape"></path>
                <path d="M91.2911581,10.3695263 C91.2911581,10.9880682 90.6063093,11.0224317 90.6063093,11.0224317 L84.4081633,11.0224317 L84.4081633,9.72234817 L86.5844786,9.72234817 C86.5844786,9.72234817 87.2460784,9.76816609 87.0313487,9.34435032 C86.8166189,8.92053454 86.4103733,8.11872092 86.4103733,8.11872092 L87.9192853,7.94117647 L88.5750816,9.31571412 C88.6719919,9.58202361 88.9396662,9.74948007 89.2250745,9.72234817 L90.6063093,9.72234817 C90.785661,9.71284312 90.9610038,9.77699978 91.0907259,9.89959271 C91.2204481,10.0221856 91.2929852,10.1922861 91.2911581,10.3695263 Z M84.9072649,12.007517 L90.1304217,12.007517 C90.3049226,11.9908041 90.4777269,12.0528354 90.6005653,12.1762839 C90.7234038,12.2997323 90.7831091,12.4713652 90.763004,12.6432407 C90.779458,12.8058268 90.7185481,12.9667465 90.598113,13.0788715 C90.4776778,13.1909965 90.3113464,13.241638 90.1478322,13.2159647 L84.8840509,13.2159647 L84.9072649,12.007517 Z M84.9072649,14.2640496 L90.1304217,14.2640496 C90.1304217,14.2640496 90.8268425,14.2640496 90.8268425,14.8367737 C90.8268425,15.4094977 90.1304217,15.4438611 90.1304217,15.4438611 L84.9072649,15.4438611 L84.9072649,14.2640496 Z M84.953693,16.658036 L89.8112287,16.658036 C90.0615607,16.6300043 90.3111338,16.7165163 90.4887146,16.8928797 C90.6662955,17.0692431 90.7523732,17.3160808 90.7223794,17.56294 C90.7223794,18.4162988 90.7223794,21.904188 90.7223794,21.904188 L89.230878,21.904188 L89.230878,21.2455554 L86.4568014,21.2455554 L86.4568014,22.0588235 L84.9478895,22.0588235 L84.953693,16.658036 Z M89.230878,17.8550292 L86.4568014,17.8550292 L86.4568014,20.0313805 L89.254092,20.0313805 L89.230878,17.8550292 Z M95.8758941,7.94117647 L95.8758941,11.7956091 C95.8691998,11.9357553 95.9226878,12.0721924 96.0232173,12.1714008 C96.1237468,12.2706091 96.2620008,12.3233943 96.4040132,12.316788 L98.0638164,12.316788 C98.2537108,12.2934958 98.4440831,12.3562837 98.581628,12.4875706 C98.7191728,12.6188575 98.7891055,12.8045313 98.7718443,12.9926023 C98.792386,13.1869893 98.7259073,13.380539 98.5898275,13.5225357 C98.4537478,13.6645323 98.2616306,13.7408226 98.0638164,13.7314163 L96.3227641,13.7314163 C95.7714309,13.7314163 95.85268,14.3041403 95.85268,14.3041403 L95.85268,22.0588235 L94.3147506,22.0588235 L94.3147506,14.1666866 C94.3248092,14.0307719 94.2697847,13.8980529 94.1660724,13.8080754 C94.0623601,13.7180979 93.9219321,13.6812486 93.7866314,13.7085073 L91.4652284,13.7085073 L91.4652284,12.316788 L93.873684,12.316788 C94.0079827,12.3240179 94.1382852,12.2703805 94.2275709,12.1711147 C94.3168565,12.0718489 94.3553671,11.9378039 94.3321611,11.8070636 L94.3321611,7.94117647 L95.8758941,7.94117647 Z" id="Shape"></path>
                <path d="M111.140125,16.2247532 C111.140125,16.2247532 112.018426,16.1731243 112.059142,16.8328274 C112.099858,17.601525 111.140125,17.8023042 111.140125,17.8023042 L108.60992,18.6341038 L114.04259,18.6341038 C114.04259,18.6341038 114.915075,18.5537921 114.938341,19.2077587 C114.961607,19.8617253 114.04259,19.8445156 114.04259,19.8445156 L108.60992,19.8445156 L108.60992,20.7853097 C108.60992,21.6343189 108.150411,22.0588235 107.225578,22.0588235 L104.805887,22.0588235 L104.805887,20.8484117 L106.73117,20.9172503 C106.856321,20.9331468 106.981767,20.8900681 107.069842,20.8009481 C107.157917,20.7118282 107.198366,20.5870449 107.179045,20.4640629 L107.179045,19.8502522 L100.571429,19.8502522 L100.571429,18.6341038 L107.179045,18.6341038 C107.22043,18.4422894 107.308236,18.2631904 107.434974,18.1120778 C107.615287,17.9342448 107.749068,17.8826159 108.348174,17.727729 L109.843031,17.3433803 L103.444811,17.3433803 L103.444811,16.1960705 L111.140125,16.2247532 Z M113.263171,15.5822597 L102.269865,15.5822597 L102.269865,17.7965676 L100.914606,17.7965676 L100.914606,15.0086048 C100.899218,14.8311092 100.968314,14.6566359 101.101607,14.5364128 C101.234899,14.4161898 101.41726,14.3638621 101.595144,14.3947941 L101.595144,8.65824509 L104.858236,8.22226737 L105.527141,9.32942133 L102.909687,9.7367163 L102.909687,10.4767311 L105.236313,10.4767311 L105.236313,11.5035734 L102.909687,11.5035734 L102.909687,12.3468461 L105.236313,12.3468461 L105.236313,13.390898 L102.909687,13.390898 L102.909687,14.3947941 L112.594266,14.3947941 L112.594266,13.390898 L110.407238,13.390898 L110.407238,12.3468461 L112.594266,12.3468461 L112.594266,11.5035734 L110.407238,11.5035734 L110.407238,10.4767311 L112.594266,10.4767311 L112.594266,9.65640462 L110.232741,9.65640462 L110.232741,8.45746588 L113.036325,8.45746588 C113.036325,8.45746588 113.902993,8.42304659 113.902993,9.43841576 L113.902993,14.3947941 C113.902993,14.3947941 114.630063,14.3030093 114.630063,15.1405455 L114.630063,17.7908311 L113.263171,17.7908311 L113.263171,15.5822597 Z M107.993364,10.1841671 L106.318194,11.2052728 L105.550407,10.2071133 L107.074347,9.42694266 L106.254211,8.64103545 L107.062714,7.94117647 L108.080612,8.8934436 L109.110144,8.18211153 L109.825582,8.9278629 L108.889115,9.54741019 L109.779049,10.3620001 L108.842582,10.9930205 L107.993364,10.1841671 Z M107.993364,13.276167 L106.428708,14.1940149 L105.78307,13.2474843 L107.167412,12.4787867 L106.364726,11.7043526 L107.307009,11.0905419 L108.127145,11.9510242 L109.33699,11.1536439 L110.000078,11.9911801 L108.999629,12.627937 L109.779049,13.4482635 L108.877482,14.1481225 L107.993364,13.276167 Z" id="Shape"></path>
                <path d="M122.146195,9.48315248 C122.146195,9.48315248 121.432615,12.3386636 121.322387,12.7327242 C121.261948,13.0825987 121.300071,13.4420882 121.432615,13.7721302 L122.36085,16.6276413 C122.519428,17.0165663 122.499389,17.4539993 122.305893,17.8272945 C122.112397,18.2005897 121.764356,18.4732642 121.351394,18.5750999 L119.494924,18.6950314 L119.494924,17.2786979 L120.568196,17.2786979 C121.188953,17.2444318 120.997505,16.5990862 120.997505,16.5990862 L120.017057,13.9605939 C119.828773,13.578214 119.791555,13.1406001 119.91263,12.7327242 C120.034461,12.3272416 120.70163,9.80296973 120.70163,9.80296973 L119.077219,9.80296973 L119.077219,22.0188464 L117.632653,22.0188464 L117.632653,8.48943461 L121.241166,8.48943461 C122.395659,8.48943461 122.146195,9.48315248 122.146195,9.48315248 Z M124.089687,16.1536265 L122.581306,16.1536265 L122.581306,14.8572244 L130.703361,14.8572244 C130.703361,14.8572244 131.480758,14.8172473 131.457552,15.5425471 C131.447333,15.7271881 131.361125,15.899758 131.218814,16.0204536 C131.076502,16.1411492 130.890374,16.1995484 130.703361,16.1821816 L129.073149,16.1821816 C129.073149,16.1821816 128.493002,16.1536265 128.493002,16.8332381 L128.493002,19.9971445 C128.472777,20.142256 128.52356,20.2882228 128.629908,20.3906616 C128.736256,20.4931003 128.885603,20.5399063 129.032538,20.5168475 L131.416942,20.5168475 C131.581406,20.5160358 131.738492,20.5839795 131.849125,20.7037776 C131.959757,20.8235758 132.013537,20.9839692 131.997089,21.14506 C132.013537,21.3061508 131.959757,21.4665441 131.849125,21.5863423 C131.738492,21.7061405 131.581406,21.7740842 131.416942,21.7732724 L128.632237,21.7732724 C128.212941,21.8040209 127.79764,21.6752407 127.471943,21.413478 C127.161393,21.0151092 127.021845,20.5127777 127.083245,20.0142776 L127.083245,16.7647059 C127.093619,16.6103353 127.035836,16.4590635 126.924709,16.3496684 C126.813581,16.2402733 126.659914,16.1833912 126.503098,16.1936037 C125.992569,16.1936037 125.99837,16.7647059 125.992569,16.8103941 C125.991356,17.8941439 125.688369,18.9568296 125.116547,19.882924 C124.363335,20.8683579 123.341299,21.6229344 122.169401,22.0588235 L121.246968,20.8023986 C122.270789,20.5292968 123.18686,19.9579643 123.875033,19.1633352 C124.339038,18.471301 124.590796,17.6623735 124.600217,16.8332381 C124.600217,16.8332381 124.73365,16.1536265 124.089687,16.1536265 Z M130.030391,13.4351799 L123.747401,13.4351799 L123.747401,12.698458 L122.587107,12.698458 L122.587107,9.34608795 L125.772113,9.34608795 C126.15501,9.34608795 125.975165,9.03769275 125.975165,9.03769275 L125.493643,8.11821816 L126.973017,7.94117647 L127.512554,8.99771559 C127.621826,9.21397113 127.847367,9.34940645 128.092701,9.34608795 L130.575729,9.34608795 C130.767164,9.34300487 130.950563,9.42173982 131.07852,9.56194176 C131.206478,9.70214369 131.266436,9.89005265 131.242898,10.0770988 L131.242898,12.7155911 L130.082604,12.7155911 L130.030391,13.4351799 Z M129.780928,10.6767561 L123.979459,10.6767561 L123.979459,12.1501999 L129.780928,12.1501999 L129.780928,10.6767561 Z" id="Shape"></path>
                <path d="M37.9610321,26.560658 L36.1000287,26.560658 L35.6168836,27.6508205 L35.0204082,27.6508205 L36.7382575,23.9173068 L37.382451,23.9173068 L39.0943355,27.6508205 L38.4441773,27.6508205 L37.9610321,26.560658 Z M37.0364952,24.4623881 L36.3207246,26.1093541 L37.7522657,26.1093541 L37.0364952,24.4623881 Z" id="Shape"></path>
                <path d="M39.3806437,24.913692 L39.9115069,24.913692 L39.9115069,25.2946628 L39.9115069,25.2946628 C40.1771699,24.9974859 40.5650276,24.8338425 40.9672684,24.84922 C41.7809464,24.84922 42.4405628,25.4973724 42.4405628,26.296909 C42.4405628,27.0964455 41.7809464,27.744598 40.9672684,27.744598 C40.5643815,27.7634417 40.1750571,27.5991795 39.9115069,27.2991552 L39.9115069,27.2991552 L39.9115069,28.7058166 L39.3806437,28.7058166 L39.3806437,24.913692 Z M40.9135856,25.2888017 C40.3469758,25.2888017 39.8876479,25.7401467 39.8876479,26.296909 C39.8876479,26.8536713 40.3469758,27.3050163 40.9135856,27.3050163 C41.4801954,27.3050163 41.9395234,26.8536713 41.9395234,26.296909 C41.9395234,25.7401467 41.4801954,25.2888017 40.9135856,25.2888017 Z" id="Shape"></path>
                <path d="M43.0012497,24.913692 L43.5321129,24.913692 L43.5321129,25.2946628 L43.5321129,25.2946628 C43.7977759,24.9974859 44.1856336,24.8338425 44.5878744,24.84922 C45.4015524,24.84922 46.0611688,25.4973724 46.0611688,26.296909 C46.0611688,27.0964455 45.4015524,27.744598 44.5878744,27.744598 C44.1849875,27.7634417 43.7956631,27.5991795 43.5321129,27.2991552 L43.5321129,27.2991552 L43.5321129,28.7058166 L43.0012497,28.7058166 L43.0012497,24.913692 Z M44.5341916,25.2888017 C43.9675818,25.2888017 43.5082539,25.7401467 43.5082539,26.296909 C43.5082539,26.8536713 43.9675818,27.3050163 44.5341916,27.3050163 C45.1008014,27.3050163 45.5601294,26.8536713 45.5601294,26.296909 C45.5601294,25.7401467 45.1008014,25.2888017 44.5341916,25.2888017 L44.5341916,25.2888017 Z" id="Shape"></path>
                <path d="M47.0930713,26.4375751 C47.1433689,26.9476664 47.5920849,27.3292792 48.1130443,27.3050163 C48.4877938,27.3315286 48.8423878,27.1353918 49.0137223,26.8068237 L49.5624797,26.8068237 C49.3272936,27.3776566 48.7575218,27.7462373 48.1309386,27.7328758 C47.3073779,27.7328758 46.63975,27.076851 46.63975,26.2676035 C46.63975,25.458356 47.3073779,24.8023313 48.1309386,24.8023313 C48.5494718,24.7798841 48.9571293,24.9380562 49.2471457,25.2354225 C49.5371622,25.5327888 49.6806469,25.9397265 49.6400215,26.3496588 L49.6400215,26.4199918 L47.0930713,26.4375751 Z M49.0852993,26.0272989 C49.0149579,25.5603886 48.5924553,25.2241856 48.1130443,25.2536351 C47.62822,25.2300407 47.1991224,25.559369 47.1050008,26.0272989 L49.0852993,26.0272989 Z" id="Shape"></path>
                <path d="M52.6462578,27.2991552 L52.6462578,27.2991552 C52.3821696,27.5984569 51.9932205,27.7625608 51.5904962,27.744598 C51.0641388,27.744598 50.5777645,27.46867 50.3145858,27.0207535 C50.0514071,26.5728369 50.0514071,26.020981 50.3145858,25.5730645 C50.5777645,25.1251479 51.0641388,24.84922 51.5904962,24.84922 C51.9935467,24.8294855 52.3832522,24.9939085 52.6462578,25.2946628 L52.6462578,25.2946628 L52.6462578,23.8762792 L53.1771209,23.8762792 L53.1771209,27.6390984 L52.6462578,27.6390984 L52.6462578,27.2991552 Z M51.6501438,27.2991552 C52.0166761,27.2991552 52.3553659,27.1070111 52.538632,26.7951016 C52.7218982,26.4831921 52.7218982,26.0989037 52.538632,25.7869942 C52.3553659,25.4750847 52.0166761,25.2829406 51.6501438,25.2829406 C51.083534,25.2829406 50.624206,25.7342856 50.624206,26.2910479 C50.624206,26.8478102 51.083534,27.2991552 51.6501438,27.2991552 L51.6501438,27.2991552 Z" id="Shape"></path>
                <path d="M56.6187843,27.6508205 L56.0879211,27.6508205 L56.0879211,27.2346832 L56.0879211,27.2346832 C55.8363683,27.576436 55.4249066,27.7686492 54.9963711,27.744598 C54.3283186,27.744598 53.8034202,27.4632657 53.8034202,26.7775183 L53.8034202,24.913692 L54.3342833,24.913692 L54.3342833,26.6720187 C54.3342833,27.0764338 54.584803,27.3050163 55.1574194,27.3050163 C55.3913812,27.3282926 55.6243964,27.2528494 55.7984507,27.0974699 C55.9725049,26.9420904 56.071223,26.7213929 56.0700269,26.4903249 L56.0700269,24.913692 L56.60089,24.913692 L56.6187843,27.6508205 Z" id="Path"></path>
                <path d="M62.2375831,25.2653573 C62.1256818,24.6639659 61.5622044,24.2480647 60.9432313,24.3099998 C60.529256,24.2757381 60.1219129,24.4284654 59.8363887,24.7249942 C59.5508645,25.0215231 59.4181972,25.4296191 59.4759017,25.8338829 C59.4442343,26.2156524 59.5823002,26.5922008 59.8544854,26.8663981 C60.1266707,27.1405954 60.5063236,27.2855929 60.8955133,27.2639887 C61.5544191,27.3235294 62.1449283,26.8644956 62.2375831,26.2207148 L62.8340585,26.2207148 C62.709837,27.1581464 61.8535249,27.8312902 60.8955133,27.744598 C59.8359284,27.687649 59.0064527,26.8267896 59.0064527,25.7840637 C59.0064527,24.7413378 59.8359284,23.8804784 60.8955133,23.8235294 C61.6590019,23.8235294 62.6849397,24.1517504 62.79827,25.2653573 L62.2375831,25.2653573 Z" id="Path"></path>
                <path d="M64.8561103,24.8199145 C65.6606295,24.8865553 66.2650505,25.5702571 66.2196828,26.3623444 C66.1743151,27.1544317 65.4956388,27.767175 64.6885903,27.7446919 C63.8815419,27.7222088 63.2392858,27.0726664 63.2396618,26.2793257 C63.2284354,25.865891 63.3999082,25.4679259 63.7098416,25.1881024 C64.0197749,24.908279 64.4378149,24.7740022 64.8561103,24.8199145 L64.8561103,24.8199145 Z M64.8561103,25.2536351 C64.2804057,25.2568677 63.8160605,25.7175066 63.8182428,26.2832108 C63.8204406,26.848915 64.288339,27.3060691 64.864052,27.3049996 C65.4397649,27.3039263 65.9058977,26.845034 65.9059071,26.2793257 C65.9257847,26.000725 65.8213636,25.7274043 65.6198149,25.5304837 C65.4182662,25.3335631 65.1395208,25.2325158 64.8561103,25.2536351 L64.8561103,25.2536351 Z" id="Shape"></path>
                <path d="M71.2205034,25.9100771 C71.2446377,25.7286762 71.1811869,25.5466061 71.0489538,25.4178211 C70.9167207,25.289036 70.7308736,25.2283088 70.5464861,25.2536351 C70.063341,25.2536351 69.6338787,25.4822176 69.6338787,25.9921323 L69.6338787,27.6508205 L69.1030155,27.6508205 L69.1030155,25.8924938 C69.1267382,25.7122505 69.0640241,25.531391 68.9332384,25.4028783 C68.8024527,25.2743656 68.6183943,25.2127414 68.434963,25.2360519 C68.2003921,25.2145538 67.967493,25.2914174 67.7936862,25.4476922 C67.6198794,25.6039671 67.5213375,25.825112 67.5223556,26.0566043 L67.5223556,27.6332373 L66.9914924,27.6332373 L66.9914924,24.913692 L67.5223556,24.913692 L67.5223556,25.3239682 L67.5223556,25.3239682 C67.7745181,24.9835563 68.1862673,24.7934196 68.6139056,24.8199145 C68.9986112,24.8108859 69.3594319,25.0026549 69.5623016,25.3239682 C69.8288105,24.9847462 70.2482173,24.7962243 70.6836755,24.8199145 C70.9578513,24.7986207 71.2285869,24.8910289 71.4302891,25.0747505 C71.6319913,25.2584722 71.7462568,25.5167446 71.7454065,25.7869942 L71.7454065,27.6508205 L71.2145386,27.6508205 L71.2205034,25.9100771 Z" id="Path"></path>
                <path d="M72.3895953,24.913692 L72.9204584,24.913692 L72.9204584,25.2946628 L72.9204584,25.2946628 C73.1845466,24.9953611 73.5734957,24.8312572 73.97622,24.84922 C74.5025774,24.84922 74.9889517,25.1251479 75.2521304,25.5730645 C75.5153091,26.020981 75.5153091,26.5728369 75.2521304,27.0207535 C74.9889517,27.46867 74.5025774,27.744598 73.97622,27.744598 C73.5730052,27.7652333 73.1829124,27.6006469 72.9204584,27.2991552 L72.9204584,27.2991552 L72.9204584,28.7058166 L72.3895953,28.7058166 L72.3895953,24.913692 Z M73.9165724,25.2888017 C73.3499626,25.2888017 72.8906346,25.7401467 72.8906346,26.296909 C72.8906346,26.8536713 73.3499626,27.3050163 73.9165724,27.3050163 C74.4831822,27.3050163 74.9425102,26.8536713 74.9425102,26.296909 C74.9642906,26.0235409 74.8632171,25.7545005 74.6658958,25.5606086 C74.4685745,25.3667167 74.1947756,25.2673998 73.9165724,25.2888017 Z" id="Shape"></path>
                <path d="M78.8255654,27.6508205 L78.2887375,27.6508205 L78.2887375,27.2346832 L78.2887375,27.2346832 C78.0371847,27.576436 77.625723,27.7686492 77.1971874,27.744598 C76.5291349,27.744598 76.0042365,27.4632657 76.0042365,26.7775183 L76.0042365,24.913692 L76.5350997,24.913692 L76.5350997,26.6720187 C76.5350997,27.0764338 76.7856193,27.3050163 77.3582358,27.3050163 C77.5921976,27.3282926 77.8252128,27.2528494 77.999267,27.0974699 C78.1733212,26.9420904 78.2720393,26.7213929 78.2708432,26.4903249 L78.2708432,24.913692 L78.8076711,24.913692 L78.8255654,27.6508205 Z" id="Path"></path>
                <path d="M79.7023843,24.0696951 L80.2332475,24.0696951 L80.2332475,24.913692 L81.0265598,24.913692 L81.0265598,25.3181071 L80.2332475,25.3181071 L80.2332475,27.0061007 C80.2332475,27.2288221 80.3883311,27.3050163 80.6627098,27.3050163 C80.7847029,27.3020175 80.90631,27.2902641 81.0265598,27.2698497 L81.0265598,27.7035703 C80.8298916,27.7388874 80.6298419,27.7526475 80.4300844,27.744598 C79.905186,27.744598 79.7023843,27.4925711 79.7023843,27.0940171 L79.7023843,25.3356904 L79.1059089,25.3356904 L79.1059089,24.9312752 L79.7023843,24.9312752 L79.7023843,24.0696951 Z" id="Path"></path>
                <path d="M81.8675902,26.4375751 C81.9208558,26.9485641 82.3713735,27.3294816 82.893528,27.3050163 C83.2655812,27.3336933 83.6194474,27.1425646 83.7942059,26.8185459 L84.3548928,26.8185459 C84.1183307,27.388269 83.5494414,27.7562788 82.9233518,27.744598 C82.099791,27.744598 81.4321631,27.0885732 81.4321631,26.2793257 C81.4321631,25.4700782 82.099791,24.8140535 82.9233518,24.8140535 C83.341885,24.7916062 83.7495424,24.9497784 84.0395589,25.2471447 C84.3295753,25.544511 84.4730601,25.9514486 84.4324347,26.361381 L84.4324347,26.431714 L81.8675902,26.4375751 Z M83.865783,26.0272989 C83.7954416,25.5603886 83.372939,25.2241856 82.893528,25.2536351 C82.4087036,25.2300407 81.9796061,25.559369 81.8854845,26.0272989 L83.865783,26.0272989 Z" id="Shape"></path>
                <path d="M84.9692626,24.913692 L85.5001257,24.913692 L85.5001257,25.4118845 L85.5001257,25.4118845 C85.6769239,25.0523031 86.048077,24.8243639 86.4544864,24.8257756 C86.5554718,24.8130197 86.6577036,24.8130197 86.7586889,24.8257756 L86.7586889,25.4118845 C86.6346017,25.3767338 86.5060851,25.3589752 86.3769446,25.3591347 C86.1310423,25.34229 85.8901292,25.4330601 85.7187276,25.6071345 C85.547326,25.781209 85.4629495,26.0208012 85.4881962,26.2617424 L85.4881962,27.6508205 L84.957333,27.6508205 L84.9692626,24.913692 Z" id="Path"></path>
                <path d="M88.9835424,23.9173068 L90.9041933,23.9173068 C92.0434614,23.9173068 92.5623951,24.649943 92.5623951,25.7283833 C92.5623951,26.8068237 92.103109,27.6508205 90.9399818,27.6508205 L88.9835424,27.6508205 L88.9835424,23.9173068 Z M90.9101581,27.1702112 C91.834695,27.1702112 92.0017081,26.4082697 92.0017081,25.7401055 C92.0017081,25.0719414 91.7810122,24.4037772 90.8087572,24.4037772 L89.526335,24.4037772 L89.526335,27.1702112 L90.9101581,27.1702112 Z" id="Shape"></path>
                <path d="M93.5644738,26.4375751 C93.6147714,26.9476664 94.0634874,27.3292792 94.5844469,27.3050163 C94.9612875,27.333967 95.3188935,27.1374656 95.4910895,26.8068237 L96.0577412,26.8068237 C95.8190258,27.3774693 95.2479946,27.7453318 94.6202354,27.7328758 C93.7966746,27.7328758 93.1290467,27.076851 93.1290467,26.2676035 C93.1290467,25.458356 93.7966746,24.8023313 94.6202354,24.8023313 C95.0387686,24.7798841 95.4464261,24.9380562 95.7364425,25.2354225 C96.0264589,25.5327888 96.1699437,25.9397265 96.1293183,26.3496588 L96.1293183,26.4199918 L93.5644738,26.4375751 Z M95.5626666,26.0272989 C95.4895182,25.5594996 95.0651538,25.2238742 94.5844469,25.2536351 C94.1004419,25.2325709 93.6728247,25.560763 93.5764033,26.0272989 L95.5626666,26.0272989 Z" id="Shape"></path>
                <path d="M97.0299962,26.8068237 C97.0299962,27.0529895 97.2327979,27.351905 97.9068151,27.351905 C98.5808324,27.351905 98.759775,27.1174614 98.759775,26.9240455 C98.759775,26.7306296 98.6583742,26.6192689 98.2348766,26.560658 L97.3580577,26.4434362 C96.9515499,26.4317962 96.6220923,26.1157117 96.6005339,25.7166612 C96.6005339,25.1305523 97.083679,24.8374978 97.8710266,24.8374978 C98.7776693,24.8374978 99.1892373,25.2243297 99.2309906,25.7576888 L98.7001275,25.7576888 C98.7001275,25.4763565 98.419784,25.241913 97.8650618,25.241913 C97.5250708,25.241913 97.131397,25.3415515 97.131397,25.6639114 C97.131397,25.8456051 97.2149036,25.9511047 97.5966479,25.9979934 L98.348207,26.0976319 C99.052048,26.1972705 99.3204619,26.4434362 99.3204619,26.824407 C99.3204619,27.4632657 98.7717045,27.7621812 97.9247094,27.7621812 C97.2864807,27.7621812 96.5587806,27.5980707 96.4991331,26.8068237 L97.0299962,26.8068237 Z" id="Path"></path>
                <path d="M99.8036071,23.8762792 L100.33447,23.8762792 L100.33447,24.4623881 L99.8036071,24.4623881 L99.8036071,23.8762792 Z M99.8036071,24.9019698 L100.33447,24.9019698 L100.33447,27.6390984 L99.8036071,27.6390984 L99.8036071,24.9019698 Z" id="Shape"></path>
                <path d="M103.477896,24.913692 L104.002794,24.913692 L104.002794,27.3929326 C104.002794,28.3775956 103.525614,28.7761496 102.386346,28.7761496 C101.78987,28.7761496 101.091994,28.6823722 100.984628,27.9204306 L101.515492,27.9204306 C101.616892,28.2779571 101.92706,28.3658734 102.440029,28.3658734 C103.185623,28.3658734 103.477896,27.9907637 103.477896,27.5394598 L103.477896,27.1467669 L103.477896,27.1467669 C103.230286,27.4861599 102.822448,27.6765713 102.398275,27.6508205 C101.604363,27.6508205 100.960769,27.0184127 100.960769,26.2382981 C100.960769,25.4581835 101.604363,24.8257756 102.398275,24.8257756 C102.815843,24.7939404 103.222363,24.9673301 103.483861,25.2888017 L103.483861,25.2888017 L103.477896,24.913692 Z M102.445993,25.2888017 C102.178805,25.2768846 101.918917,25.3763806 101.730361,25.562776 C101.541805,25.7491714 101.442112,26.0051353 101.455844,26.2676035 C101.440856,26.5345991 101.544805,26.7947957 101.740636,26.980471 C101.936466,27.1661464 102.204808,27.2589338 102.475817,27.2346832 C102.747822,27.258544 103.017093,27.166034 103.21471,26.9808316 C103.412326,26.7956291 103.519107,26.5357106 103.50772,26.2676035 C103.519734,25.9930226 103.409325,25.7269387 103.205348,25.538893 C103.001371,25.3508474 102.724098,25.2595282 102.445993,25.2888017 L102.445993,25.2888017 Z" id="Shape"></path>
                <path d="M104.617164,24.913692 L105.148027,24.913692 L105.148027,25.3239682 L105.148027,25.3239682 C105.399448,24.982675 105.811722,24.7922959 106.239577,24.8199145 C106.90763,24.8199145 107.432528,25.1012468 107.432528,25.7869942 L107.432528,27.6508205 L106.901665,27.6508205 L106.901665,25.8924938 C106.901665,25.4939398 106.651145,25.2594962 106.078529,25.2594962 C105.843958,25.2379981 105.611059,25.3148618 105.437252,25.4711366 C105.263445,25.6274115 105.164903,25.8485563 105.165921,26.0800487 L105.165921,27.6566816 L104.635058,27.6566816 L104.617164,24.913692 Z" id="Path"></path>
                <polygon id="Path" points="109.967549 23.9173068 110.528236 23.9173068 110.528236 27.6508205 109.967549 27.6508205"></polygon>
                <path d="M111.303654,24.913692 L111.834517,24.913692 L111.834517,25.3239682 L111.834517,25.3239682 C112.086679,24.9835563 112.498429,24.7934196 112.926067,24.8199145 C113.59412,24.8199145 114.119018,25.1012468 114.119018,25.7869942 L114.119018,27.6508205 L113.588155,27.6508205 L113.588155,25.8924938 C113.588155,25.4939398 113.337635,25.2594962 112.765019,25.2594962 C112.529898,25.2381031 112.296455,25.3148175 112.121735,25.470893 C111.947016,25.6269684 111.847115,25.8480267 111.846446,26.0800487 L111.846446,27.6566816 L111.315583,27.6566816 L111.303654,24.913692 Z" id="Path"></path>
                <path d="M115.121097,26.8068237 C115.121097,27.0529895 115.323898,27.351905 115.997916,27.351905 C116.671933,27.351905 116.850875,27.1174614 116.850875,26.9240455 C116.850875,26.7306296 116.749475,26.6192689 116.320012,26.560658 L115.443193,26.4434362 C115.039006,26.4288205 114.712973,26.1135396 114.691634,25.7166612 C114.691634,25.1305523 115.174779,24.8374978 115.962127,24.8374978 C116.86877,24.8374978 117.280338,25.2243297 117.322091,25.7576888 L116.791228,25.7576888 C116.791228,25.4763565 116.50492,25.241913 115.956162,25.241913 C115.616171,25.241913 115.222498,25.3415515 115.222498,25.6639114 C115.222498,25.8456051 115.306004,25.9511047 115.681784,25.9979934 L116.439307,26.0976319 C117.143148,26.1972705 117.411562,26.4434362 117.411562,26.824407 C117.411562,27.4632657 116.862805,27.7621812 116.01581,27.7621812 C115.377581,27.7621812 114.649881,27.5980707 114.590234,26.8068237 L115.121097,26.8068237 Z" id="Path"></path>
                <path d="M118.157157,24.0696951 L118.68802,24.0696951 L118.68802,24.913692 L119.487297,24.913692 L119.487297,25.3181071 L118.68802,25.3181071 L118.68802,27.0061007 C118.68802,27.2288221 118.849068,27.3050163 119.117482,27.3050163 C119.24147,27.3023049 119.365081,27.2905504 119.487297,27.2698497 L119.487297,27.7035703 C119.290629,27.7388874 119.090579,27.7526475 118.890822,27.744598 C118.365923,27.744598 118.157157,27.4925711 118.157157,27.0940171 L118.157157,25.3356904 L117.560681,25.3356904 L117.560681,24.9312752 L118.157157,24.9312752 L118.157157,24.0696951 Z" id="Path"></path>
                <path d="M119.857112,23.8762792 L120.387975,23.8762792 L120.387975,24.4623881 L119.857112,24.4623881 L119.857112,23.8762792 Z M119.857112,24.9019698 L120.387975,24.9019698 L120.387975,27.6390984 L119.857112,27.6390984 L119.857112,24.9019698 Z" id="Shape"></path>
                <path d="M121.270759,24.0696951 L121.801622,24.0696951 L121.801622,24.913692 L122.600899,24.913692 L122.600899,25.3181071 L121.801622,25.3181071 L121.801622,27.0061007 C121.801622,27.2288221 121.96267,27.3050163 122.231084,27.3050163 C122.355037,27.3017394 122.478607,27.2899888 122.600899,27.2698497 L122.600899,27.7035703 C122.404177,27.7384641 122.204174,27.7522209 122.004423,27.744598 C121.47356,27.744598 121.270759,27.4925711 121.270759,27.0940171 L121.270759,25.3356904 L120.674283,25.3356904 L120.674283,24.9312752 L121.270759,24.9312752 L121.270759,24.0696951 Z" id="Path"></path>
                <path d="M125.798007,27.6508205 L125.267144,27.6508205 L125.267144,27.2346832 L125.267144,27.2346832 C125.018237,27.5763604 124.608474,27.7688318 124.181559,27.744598 C123.513506,27.744598 122.988608,27.4632657 122.988608,26.7775183 L122.988608,24.913692 L123.525436,24.913692 L123.525436,26.6720187 C123.525436,27.0764338 123.775955,27.3050163 124.348572,27.3050163 C124.582534,27.3282926 124.815549,27.2528494 124.989603,27.0974699 C125.163657,26.9420904 125.262375,26.7213929 125.261179,26.4903249 L125.261179,24.913692 L125.792043,24.913692 L125.798007,27.6508205 Z" id="Path"></path>
                <path d="M126.674826,24.0696951 L127.205689,24.0696951 L127.205689,24.913692 L128.004966,24.913692 L128.004966,25.3181071 L127.205689,25.3181071 L127.205689,27.0061007 C127.205689,27.2288221 127.366738,27.3050163 127.635152,27.3050163 C127.759121,27.302013 127.882711,27.2902605 128.004966,27.2698497 L128.004966,27.7035703 C127.808298,27.7388874 127.608249,27.7526475 127.408491,27.744598 C126.883593,27.744598 126.674826,27.4925711 126.674826,27.0940171 L126.674826,25.3356904 L126.078351,25.3356904 L126.078351,24.9312752 L126.674826,24.9312752 L126.674826,24.0696951 Z" id="Path"></path>
                <path d="M128.845997,26.4375751 C128.896367,26.9500443 129.348723,27.3325157 129.871935,27.3050163 C130.242248,27.332842 130.593936,27.1416234 130.766648,26.8185459 L131.363123,26.8185459 C131.124408,27.3891914 130.553377,27.757054 129.925617,27.744598 C129.102057,27.744598 128.434429,27.0885732 128.434429,26.2793257 C128.434429,25.4700782 129.102057,24.8140535 129.925617,24.8140535 C130.344151,24.7916062 130.751808,24.9497784 131.041825,25.2471447 C131.331841,25.544511 131.475326,25.9514486 131.4347,26.361381 L131.4347,26.431714 L128.845997,26.4375751 Z M130.84419,26.0272989 C130.773848,25.5603886 130.351346,25.2241856 129.871935,25.2536351 C129.398212,25.2447033 128.986078,25.5706555 128.893715,26.0272989 L130.84419,26.0272989 Z" id="Shape"></path>
            </g>
        </g>
    </g>
</svg>