<?xml version="1.0" encoding="utf-8"?>
<!-- Generator: Adobe Illustrator 25.0.1, SVG Export Plug-In . SVG Version: 6.00 Build 0)  -->
<svg version="1.1" id="圖層_1" xmlns="http://www.w3.org/2000/svg" xmlns:xlink="http://www.w3.org/1999/xlink" x="0px" y="0px"
	 viewBox="0 0 53 53" style="enable-background:new 0 0 53 53;" xml:space="preserve">
<style type="text/css">
	.st0{fill:none;}
	.st1{fill-rule:evenodd;clip-rule:evenodd;fill:#21505B;}
	.st2{fill-rule:evenodd;clip-rule:evenodd;fill:#F9C270;}
</style>
<g>
	<path class="st0" d="M9,9h35v35H9V9z"/>
	<path class="st1" d="M41.3,18.8c-0.3-1.4-1.4-2.5-2.7-2.9c-2.4-0.6-12-0.6-12-0.6s-9.6,0-12,0.7c-1.3,0.4-2.4,1.5-2.7,2.9
		c-0.4,2.5-0.7,5.1-0.6,7.7c0,2.6,0.2,5.2,0.6,7.7c0.4,1.4,1.4,2.4,2.7,2.8c2.4,0.7,12,0.7,12,0.7s9.6,0,12-0.7
		c1.3-0.4,2.4-1.5,2.7-2.9c0.4-2.5,0.7-5.1,0.6-7.6C41.9,23.9,41.7,21.4,41.3,18.8z"/>
	<path class="st2" d="M23.4,31.3l8.1-4.7l-8-4.7L23.4,31.3z"/>
</g>
</svg>
