<?xml version="1.0" encoding="utf-8"?>
<!-- Generator: Adobe Illustrator 25.0.1, SVG Export Plug-In . SVG Version: 6.00 Build 0)  -->
<svg version="1.1" id="圖層_1" xmlns="http://www.w3.org/2000/svg" xmlns:xlink="http://www.w3.org/1999/xlink" x="0px" y="0px"
	 viewBox="0 0 53 53" style="enable-background:new 0 0 53 53;" xml:space="preserve">
<style type="text/css">
	.st0{fill-rule:evenodd;clip-rule:evenodd;fill:none;}
	.st1{fill-rule:evenodd;clip-rule:evenodd;fill:#F9C270;}
	.st2{fill:none;}
	.st3{fill-rule:evenodd;clip-rule:evenodd;fill:#21505B;}
</style>
<g>
	<circle class="st0" cx="26.5" cy="26.5" r="26.5"/>
	<g transform="translate(9 9)">
		<circle class="st1" cx="17.5" cy="17.5" r="16.1"/>
		<path class="st2" d="M0,0h35v35H0V0z"/>
		<path class="st3" d="M17.5,1.4C8.6,1.4,1.4,8.6,1.4,17.6c0,8,5.8,14.6,13.4,15.9V20.9h-3.9v-4.5h3.9v-3.3c0-3.9,2.3-6,5.8-6
			c1.6,0,3.1,0.1,3.5,0.2v4h-2.4c-1.9,0-2.2,0.9-2.2,2.2v2.9h4.5l-0.6,4.5h-3.9v12.7c8-1,14.1-7.8,14.1-16
			C33.6,8.6,26.4,1.4,17.5,1.4z"/>
	</g>
</g>
</svg>
