<?xml version="1.0" encoding="utf-8"?>
<!-- Generator: Adobe Illustrator 25.0.1, SVG Export Plug-In . SVG Version: 6.00 Build 0)  -->
<svg version="1.1" id="圖層_1" xmlns="http://www.w3.org/2000/svg" xmlns:xlink="http://www.w3.org/1999/xlink" x="0px" y="0px"
	 viewBox="0 0 53 53" style="enable-background:new 0 0 53 53;" xml:space="preserve">
<style type="text/css">
	.st0{fill-rule:evenodd;clip-rule:evenodd;fill:none;}
	.st1{fill:none;}
	.st2{fill-rule:evenodd;clip-rule:evenodd;fill:#21505B;}
	.st3{fill-rule:evenodd;clip-rule:evenodd;fill:#F9C270;}
</style>
<g>
	<circle class="st0" cx="26.5" cy="26.5" r="26.5"/>
	<path class="st1" d="M9,9h35v35H9V9z"/>
	<path class="st2" d="M37.8,14.2c-3-2.5-7.1-3.8-11.3-3.8s-8.3,1.4-11.3,3.8c-3.1,2.5-4.8,5.9-4.8,9.4c0,3.4,1.5,6.5,4.1,8.9
		c2.5,2.2,5.9,3.6,9.6,4v5.4c0,0.4,0.3,0.7,0.7,0.7c0,0,0,0,0,0c0.1,0,0.3,0,0.4-0.1l10.1-7.6c2.4-1.8,4-3.3,5.2-4.9
		c1.4-2,2.1-4,2.1-6.3C42.6,20.1,40.9,16.8,37.8,14.2z"/>
	<g>
		<path class="st3" d="M30.7,20.3c0-0.5-0.3-0.8-0.7-0.8c-0.5,0-0.7,0.3-0.7,0.9c0,1,0,2,0,3c0,0.1,0,0.3,0,0.6
			c-0.2-0.2-0.3-0.3-0.4-0.4c-0.9-1.2-1.9-2.4-2.8-3.6c-0.2-0.3-0.5-0.5-0.9-0.4c-0.4,0.1-0.5,0.4-0.5,0.8c0,1.9,0,3.8,0,5.8
			c0,0.3,0.1,0.6,0.4,0.7c0.5,0.3,1.1-0.1,1.1-0.8c0-0.9,0-1.9,0-2.8v-0.5c0.1,0.1,0.3,0.2,0.4,0.3c0.9,1.2,1.9,2.4,2.8,3.6
			c0.2,0.3,0.5,0.5,0.9,0.4c0.4-0.1,0.5-0.4,0.5-0.8C30.7,24.1,30.7,22.2,30.7,20.3z M33.5,21c0.1,0,0.3,0,0.5,0c0.5,0,1.1,0,1.7,0
			c0.2,0,0.4,0,0.6-0.1c0.3-0.2,0.5-0.5,0.4-0.8c-0.1-0.4-0.4-0.5-0.7-0.5c-1,0-2,0-2.9,0c-0.7,0-1,0.3-1,1c0,1.8,0,3.7,0,5.5
			c0,0.7,0.3,1,1,1c0.9,0,1.8,0,2.7,0c0.2,0,0.3,0,0.4-0.1c0.3-0.1,0.5-0.3,0.5-0.7c0-0.4-0.2-0.6-0.5-0.7c-0.2-0.1-0.4-0.1-0.6-0.1
			c-0.7,0-1.4,0-2.1,0V24c0.1,0,0.2,0,0.3,0c0.6,0,1.3,0,1.9,0c0.6,0,0.9-0.3,0.8-0.8c0-0.4-0.3-0.7-0.8-0.7c-0.4,0-0.7,0-1.1,0
			c-1.3,0-1.3,0-1.2-1.3C33.5,21.1,33.5,21,33.5,21z M20.2,25.4c-0.1,0-0.3,0-0.5,0h-2v-0.6c0-1.5,0-2.9,0-4.4c0-0.6-0.3-1-0.8-1
			c-0.5,0-0.8,0.3-0.8,1c0,1.9,0,3.7,0,5.6c0,0.6,0.3,0.9,0.9,0.9c0.5,0,2.5,0,3,0c0.5,0,0.8-0.4,0.8-0.8
			C21,25.7,20.7,25.4,20.2,25.4L20.2,25.4z M23.3,20.2c0-0.6-0.2-0.7-0.7-0.7c-0.6,0-0.7,0.2-0.7,0.7c0,2,0,4,0,5.9
			c0,0.6,0.2,0.8,0.7,0.8c0.5,0,0.7-0.2,0.7-0.8c0-1,0-1.9,0-2.9C23.3,22.2,23.3,21.2,23.3,20.2z"/>
	</g>
</g>
</svg>
