<?xml version="1.0" encoding="utf-8"?>
<!-- Generator: Adobe Illustrator 25.0.1, SVG Export Plug-In . SVG Version: 6.00 Build 0)  -->
<svg version="1.1" id="圖層_1" xmlns="http://www.w3.org/2000/svg" xmlns:xlink="http://www.w3.org/1999/xlink" x="0px" y="0px"
	 viewBox="0 0 247.98 56.32" style="enable-background:new 0 0 247.98 56.32;" xml:space="preserve">
<style type="text/css">
	.st0{fill:url(#SVGID_1_);}
	.st1{fill:#B3B7B8;}
	.st2{fill:url(#SVGID_2_);}
	.st3{opacity:0.3;enable-background:new    ;}
	.st4{fill:url(#SVGID_3_);}
	.st5{fill:url(#SVGID_4_);}
	.st6{opacity:0.5;fill:#80AADC;enable-background:new    ;}
	.st7{fill:url(#SVGID_5_);}
	.st8{fill:#FFFFFF;}
</style>
<g>
	<g>
		
			<linearGradient id="SVGID_1_" gradientUnits="userSpaceOnUse" x1="3.4677" y1="32.1852" x2="17.8096" y2="22.7733" gradientTransform="matrix(1 0 0 -1 0 57.2756)">
			<stop  offset="0" style="stop-color:#7DC759"/>
			<stop  offset="1" style="stop-color:#00B204"/>
		</linearGradient>
		<path class="st0" d="M18.98,33.18c-0.78-2.53-2.24-4.67-4.12-6.28c-0.58-0.43-1.2-0.88-1.86-1.35c-0.28-0.2-0.54-0.39-0.84-0.59
			c-0.01-0.01-0.02-0.02-0.04-0.02c-0.23-0.17-0.45-0.32-0.68-0.48c-0.01,0-0.01-0.01-0.01-0.01c-0.07-0.05-0.14-0.1-0.21-0.15
			c-0.27-0.19-0.54-0.38-0.8-0.56c-0.14-0.1-0.27-0.2-0.42-0.3c-0.19-0.14-0.38-0.27-0.56-0.41C6.32,20.75,4,18.8,2.89,17.2
			l-2.21,6.76L0.4,24.81l-0.01,0.05L0,26.04v0.02c0,0.09,0.01,0.26,0.07,0.46c0.47,1.52,3.17,3.93,9.04,8.04
			c0.11,0.08,0.21,0.15,0.32,0.23c0.21,0.15,0.41,0.29,0.61,0.43c0.2,0.15,0.41,0.29,0.61,0.43c3.86,2.77,6.5,4.91,7.76,6.7
			c0.02,0.04,0.05,0.07,0.08,0.11C19.7,39.62,19.95,36.36,18.98,33.18z"/>
		<path class="st1" d="M17.79,44.16c-0.37-1.44-2.86-3.81-7.48-7.08c-0.04,0.11-0.07,0.21-0.11,0.32
			c-2.4,7.28-3.09,11.07-2.22,12.19c0.12,0.06,0.26,0.11,0.45,0.11C10.24,49.69,14.05,47.03,17.79,44.16z"/>
		<path class="st1" d="M11.72,22.91c1.53-0.62,3.27-5.83,4.39-9.56h-1.08c-7.47,0-11.11,0.54-11.77,1.74
			C2.94,16.74,8.57,20.76,11.72,22.91z"/>
		<path class="st1" d="M29.96,10.43c0.75,1.28,3.49,3.97,7.88,3.97c1.06,0,2.17-0.17,3.28-0.49c-0.19-0.57-0.38-1.17-0.58-1.81
			l-0.29-0.91c-1.72-5.36-3.7-10.85-5.45-11.2C33.12,0.28,31.11,6.57,29.96,10.43z"/>
		<path class="st1" d="M40.08,44.6c-0.05-0.01-0.1-0.02-0.15-0.02c-1.75,0-5.23,2.35-8.98,5.19c0.13,0.09,0.23,0.17,0.36,0.26
			c5.55,4.07,8.87,5.96,10.45,5.96c0.22,0,0.4-0.05,0.56-0.13C43.52,54.67,41.36,48.19,40.08,44.6z"/>
		<path d="M18.64,44.41L18.64,44.41L18.64,44.41z"/>
		<path d="M45.4,25.84c-0.01,0.01-0.03,0.03-0.04,0.04C45.37,25.87,45.38,25.86,45.4,25.84C45.4,25.85,45.4,25.84,45.4,25.84z"/>
		
			<linearGradient id="SVGID_2_" gradientUnits="userSpaceOnUse" x1="41.8157" y1="27.4356" x2="48.0903" y2="6.819" gradientTransform="matrix(1 0 0 -1 0 57.2756)">
			<stop  offset="0" style="stop-color:#FC5535"/>
			<stop  offset="1" style="stop-color:#CD0037"/>
		</linearGradient>
		<path class="st2" d="M49,36.76c-1.96-5.4-2.43-7-3.22-9.63c-0.14-0.47-0.21-0.72-0.38-1.27c-0.01,0.01-0.02,0.02-0.04,0.03
			c-1.96,1.66-3.49,3.81-4.42,6.26c-0.57,1.37-1,3.11-0.99,5.19c0,0.07-0.01,0.15-0.01,0.22c0,0.08,0.01,0.16,0.01,0.25
			c0,0.03,0,0.06,0,0.09c0.05,2.21,0.57,4.3,1.46,6.18c0.08,0.23,0.17,0.46,0.25,0.69c0.14,0.4,0.26,0.77,0.39,1.16
			c1.28,3.78,2.05,6.68,2.03,8.63l4.39-3.29l1.29-0.97l0.76-0.57l1.02-0.77c0,0,0.01-0.01,0.01-0.02
			C52.73,47.71,50.93,42.1,49,36.76z"/>
		<path class="st3" d="M20.76,43.68c0.65-0.5,1.26-0.96,1.83-1.38C21.94,42.71,21.33,43.17,20.76,43.68z"/>
		
			<linearGradient id="SVGID_3_" gradientUnits="userSpaceOnUse" x1="35.0073" y1="17.6584" x2="12.8236" y2="2.197" gradientTransform="matrix(1 0 0 -1 0 57.2756)">
			<stop  offset="0" style="stop-color:#00BDE7"/>
			<stop  offset="1" style="stop-color:#0564B1"/>
		</linearGradient>
		<path class="st4" d="M29.81,40.21c-2.66,0-5.13,0.77-7.22,2.09c-0.58,0.43-1.19,0.89-1.83,1.38c-0.27,0.21-0.53,0.4-0.81,0.63
			c-0.02,0.01-0.02,0.02-0.03,0.03c-0.23,0.17-0.44,0.34-0.66,0.51l-0.01,0.01c-0.07,0.05-0.13,0.1-0.2,0.16
			c-0.26,0.2-0.52,0.4-0.77,0.6c-0.14,0.11-0.27,0.21-0.41,0.31c-0.18,0.14-0.37,0.28-0.55,0.42c-3.1,2.31-5.64,3.95-7.5,4.55
			l5.82,4.1l0.75,0.53l0.04,0.03l1.01,0.72h0.02c0.08,0.04,0.25,0.07,0.46,0.07c1.6,0,4.69-1.88,10.34-6.28
			c0.11-0.08,0.21-0.16,0.31-0.24c0.2-0.16,0.4-0.3,0.59-0.46c0.2-0.15,0.4-0.31,0.59-0.45c3.78-2.88,6.61-4.78,8.68-5.45
			c0.04-0.01,0.08-0.03,0.12-0.05C36.18,41.4,33.14,40.21,29.81,40.21z"/>
		<path class="st3" d="M19.2,40.23c0.12-0.33,0.22-0.66,0.31-1L19.2,40.23z"/>
		<path class="st3" d="M27.79,12.74c-0.11,0.36-0.21,0.73-0.32,1.08C27.59,13.47,27.7,13.11,27.79,12.74z"/>
		
			<linearGradient id="SVGID_4_" gradientUnits="userSpaceOnUse" x1="23.185" y1="54.2902" x2="23.185" y2="35.6271" gradientTransform="matrix(1 0 0 -1 0 57.2756)">
			<stop  offset="0" style="stop-color:#BD008A"/>
			<stop  offset="1" style="stop-color:#984C9D"/>
		</linearGradient>
		<path class="st5" d="M25.49,0.1l-0.95,0.01l0,0l-1.28,0.02c-0.01,0-0.01,0-0.02,0c-1.3,0.22-2.91,3.73-5.1,11.37
			c-0.05,0.15-0.09,0.28-0.12,0.42c-0.07,0.24-0.14,0.48-0.21,0.71c-0.07,0.24-0.14,0.48-0.21,0.71c-1.37,4.6-2.55,7.82-3.83,9.57
			c0.22,0.01,0.44,0.03,0.67,0.03l0.58-0.01c5.77-0.16,10.64-3.92,12.44-9.11c0.11-0.36,0.22-0.72,0.32-1.08
			c0.13-0.43,0.26-0.86,0.38-1.3c0-0.01,0.01-0.03,0.01-0.04c0.09-0.3,0.17-0.57,0.26-0.86l0,0l0,0c0.03-0.11,0.07-0.22,0.1-0.34
			c0.08-0.28,0.17-0.58,0.25-0.86c0.09-0.3,0.18-0.57,0.27-0.86c0.03-0.1,0.06-0.2,0.09-0.3c1.22-3.86,2.3-6.63,3.46-8.18L25.49,0.1
			z"/>
		<path d="M30.84,13.45l0.03,0.1c0-0.03-0.01-0.05-0.01-0.08C30.85,13.46,30.85,13.45,30.84,13.45z"/>
		<path class="st6" d="M45.91,22.66c-0.43,0.09-0.88,0.21-1.36,0.33c0.47-0.09,0.93-0.19,1.38-0.33l0,0
			C45.92,22.66,45.91,22.66,45.91,22.66z"/>
		
			<linearGradient id="SVGID_5_" gradientUnits="userSpaceOnUse" x1="59.9772" y1="38.9106" x2="33.7228" y2="38.9106" gradientTransform="matrix(1 0 0 -1 0 57.2756)">
			<stop  offset="0" style="stop-color:#F9D124"/>
			<stop  offset="1" style="stop-color:#F9A200"/>
		</linearGradient>
		<path class="st7" d="M53.96,13.46c-0.76-0.06-1.51-0.11-2.25-0.11c-3.13,0-5.75,0.59-7.87,1.22c-0.3,0.09-0.62,0.18-0.9,0.27
			c-0.22,0.07-0.44,0.15-0.65,0.22c-0.01,0-0.02,0.01-0.03,0.01c-0.05,0.02-0.1,0.03-0.15,0.05c-0.18,0.06-0.36,0.11-0.53,0.16
			c-1.26,0.36-2.51,0.55-3.72,0.56c-1.72,0-3.22-0.37-4.5-0.91c-0.75-0.32-1.43-0.71-2.02-1.12c-0.16-0.11-0.32-0.22-0.47-0.34
			c0.01,0.03,0.01,0.06,0.01,0.08c0.92,5.1,5.12,9.06,10.35,9.59c0.39,0.04,0.79,0.06,1.19,0.06c0.73,0,1.44-0.07,2.13-0.2
			c0.48-0.12,0.94-0.24,1.36-0.33c0,0,0,0,0.01,0l0,0c1.36-0.3,2.53-0.44,3.94-0.35c1.49,0.09,3.27,0.42,5.89,1.06l6.34-8.17
			C59.21,14.25,56.53,13.68,53.96,13.46z"/>
	</g>
	<g>
		<g>
			<path class="st8" d="M69.39,25.63l-1.58,9.2l-2.04-1.34c0,0,1.45-7.55,1.51-8.07L69.39,25.63z M76.8,23.41
				c0,0-0.76-0.08-0.76,0.72c0,0.51,0,12.63,0,12.63v0.72c0,0.93-0.2,1.61-0.6,2.07c-0.4,0.45-1.14,0.68-2.2,0.68h-1.63l-0.51-2.66
				l1.63,0.13c0.65,0,0.97-0.31,0.97-0.93l0.01-12.82c0,0,0.06-0.53-0.54-0.54c-0.54-0.01-0.51,0.54-0.51,0.54
				c0,0.65-0.01,0.6-0.01,0.97c0,0.2,0,0.4,0,0.6c0,3.85-0.31,6.82-0.92,8.92c-0.62,2.12-1.79,4.26-3.54,6.43l-2.05-1.6
				c1.61-1.78,2.71-3.65,3.31-5.63s0.9-5.3,0.9-9.24c0-1.07-0.82-0.99-0.82-0.99h-3.31V20.9h4.81c0,0,0.73,0.08,0.73-0.78
				c0-0.22,0-0.5,0-0.79c0-0.79-0.78-0.81-0.78-0.81h-3.89v-2.44h4.09c0,0,0.71-0.02,0.71-0.74c0-0.72,0-1.94,0-1.94h2.59v2.08
				c0,0-0.08,0.6,0.61,0.6s2.32,0,2.32,0s1.42-0.1,1.42,1.26c0,1.28-1.42,1.18-1.42,1.18H75.4c0,0-0.74-0.06-0.79,0.81v0.95
				c0,0-0.04,0.62,0.74,0.62s2.4,0,2.4,0s1.32-0.09,1.34,1.22c0.01,1.25-1.34,1.28-1.34,1.28H76.8V23.41z M79.24,30.55l-2.13,0.65
				l-1-5.13l1.99-0.48L79.24,30.55z M82.26,26.21l-1.24,9.46l-2.15-1.72l1.2-8.11L82.26,26.21z M89.89,23.41
				c-0.72,0-0.64,0.7-0.64,0.7l-0.02,13.05v0.72c0,0.9-0.2,1.58-0.6,2.06c-0.4,0.46-1.15,0.69-2.23,0.69h-1.6l-0.55-2.65l1.66,0.11
				c0.65,0,0.97-0.31,0.97-0.93V23.91c0,0,0.01-0.5-0.65-0.5c-0.67,0-0.61,0.5-0.61,0.5c0,0.65,0,0.63,0,1c0,0.2,0,0.4,0,0.6
				c0,3.86-0.31,6.84-0.92,8.92c-0.61,2.1-1.84,4.3-3.66,6.61l-2.11-1.63c1.67-1.83,2.81-3.72,3.45-5.67
				c0.63-1.95,0.95-8.32,0.95-9.53c0-0.94-0.79-0.81-0.79-0.81h-2.59v-2.5h3.84c0,0,0.78,0.07,0.78-0.69c0-0.21,0-0.5,0-0.85
				c0-0.91-0.87-0.85-0.87-0.85h-3.31v-2.44c0,0,2.86,0,3.64,0s0.7-0.69,0.7-0.69v-1.99h2.6v2.04c0,0,0.01,0.64,0.55,0.64
				c0.7,0,3.51,0,3.51,0s1.12-0.05,1.12,1.18c0,1.31-1.12,1.26-1.12,1.26H88.1c0,0-0.61-0.09-0.61,0.59c0,0.33,0,0.78,0,1.15
				c0,0.72,0.8,0.65,0.8,0.65h3.81c0,0,1.2-0.11,1.23,1.22c0.03,1.25-1.23,1.28-1.23,1.28S90.32,23.41,89.89,23.41z M90.8,36.76
				l-0.85-10.37l2.26-0.37l1.06,10.11L90.8,36.76z"/>
		</g>
		<g>
			<polygon class="st8" points="100.35,33.53 99.07,40.85 96.56,40.85 97.88,33.23 			"/>
			<path class="st8" d="M105.69,17.7l2.24,0.98l-6.06,9.78c0,0-0.63,0.79,0.05,0.76c1.1-0.07,3.65-0.4,3.63-0.45
				c-0.09-0.22-0.85-2.19-0.85-2.19l1.99-0.59l2.2,5.4l-2.24,0.77l-0.47-1.13l-7.44,0.78c0,0-1.88,0.19-1.02-1.29l4.45-6.79
				l-3.5,0.37c0,0-1.88,0.2-1.42-1.21c0.03-0.09,4.33-9.41,4.33-9.41l2.52,0.67l-3.33,6.81c0,0-0.35,0.66,0.43,0.61
				c0.72-0.06,2.38-0.32,2.38-0.32"/>
			<polygon class="st8" points="101.68,40.21 101.34,33.32 103.6,33.02 104.18,39.92 			"/>
			<polygon class="st8" points="105.6,38.14 104.93,32.71 106.98,32.27 107.83,37.51 			"/>
			<path class="st8" d="M107.97,16.39v-2.42h14.82c0,0,1.49,0,1.49,1.12c0,1.42-1.49,1.3-1.49,1.3H107.97z"/>
			<path class="st8" d="M113.75,30.04c-0.65,0-5.13,0-5.13,0v-2.57H114c0,0,0.58-0.02,0.58-0.61c0-0.57,0-1.98,0-1.98h2.65v2.09
				c0,0,0.01,0.49,0.44,0.49s5.2,0,5.2,0s1.33-0.06,1.33,1.26c0,1.33-1.33,1.31-1.33,1.31s-4.01-0.02-4.77,0
				c-0.78,0.02-0.34,0.58-0.34,0.58l6.35,10.31h-3.57l-3.31-6.29v6.48h-2.65v-6.48l-4.75,6.4h-3.13l7.17-10.21
				C114.15,30.45,114.46,30.04,113.75,30.04z"/>
			<polygon class="st8" points="110.18,25.27 108.46,19.9 110.99,19.21 112.95,24.58 			"/>
			<polygon class="st8" points="114.85,23.85 114.21,18.79 116.81,18.45 117.59,23.58 			"/>
			<polygon class="st8" points="123.83,19.03 121.21,25.45 118.56,24.24 121.34,18.13 			"/>
		</g>
		<g>
			<path class="st8" d="M131.28,16.83c0,0,1.35,0.07,0.62-1.21l-0.9-1.87l2.71-0.36l0.82,1.84c0,0,0.67,1.61,1.82,1.61
				c1.15,0,1.26-0.01,1.26-0.01s1.47-0.07,1.47,1.25c0,1.43-1.47,1.34-1.47,1.34h-10.02v-2.59H131.28z M128.43,21.26h8.12
				c0,0,1.47-0.04,1.47,1.25c0,1.29-1.47,1.22-1.47,1.22h-8.12V21.26z M128.43,25.66h8.14c0,0,1.51-0.07,1.51,1.26
				c0,1.32-1.51,1.21-1.51,1.21h-8.14V25.66z M128.53,30.37h7.96c0,0,1.59-0.17,1.59,1.71c0,2.53,0,8.75,0,8.75h-2.71v-1.36h-4.13
				v1.66h-2.7L128.53,30.37L128.53,30.37z M135.37,32.8h-4.13v4.23h4.13V32.8z M151.74,16c0,2.1,0,4.68,0,4.68
				c0,0.69,0.09,1.11,0.28,1.31c0.19,0.19,0.56,0.29,1.1,0.29h0.53c0,0,1.36-0.01,1.36,1.22s-1.36,1.31-1.36,1.31h-1.53
				c-1.09,0-1.89-0.24-2.43-0.73c-0.53-0.48-0.79-1.43-0.79-2.83v-4.52h-4.17v0.97c0,1.62-0.26,2.99-0.76,4.08
				c-0.51,1.09-1.66,2.42-3.42,3.99l-2.2-1.95c1.55-1.18,2.54-2.26,2.99-3.22c0.44-0.95,0.66-2.55,0.66-4.81v-1.6h8.05
				C150.04,14.2,151.74,14.03,151.74,16z M153.33,28.56c0,2.07-0.06,4.4-1.1,6.19c-1.27,2.18-2.63,3.07-2.63,3.07
				c1.35,0.55,3.81,0.58,3.81,0.58s1.38-0.06,1.38,1.26c0,1.33-1.47,1.28-1.47,1.28s-3.68,0.13-6.48-1.36
				c-2.11,1.33-7.76,1.28-7.76,1.28v-2.71c0,0,2.47,0.31,4.94-0.55c0,0-1.29-1.44-2.07-2.99c-0.94-1.88-1.19-4.52-1.19-4.52h2.66
				c0,0,0.06,1.79,0.43,2.82c0.36,0.99,1.33,2.82,3.08,3.68c0,0,1.9-1.09,2.7-2.79c0.85-1.79,0.62-4.88,0.62-4.88h-10.62v-2.51
				h11.07C150.71,26.41,153.33,26.08,153.33,28.56z"/>
		</g>
		<g>
			<path class="st8" d="M171.62,18.17c0,1.21-1.33,1.29-1.33,1.29h-12.02V16.9h4.22c0,0,1.29,0.1,0.87-0.73
				c-0.38-0.72-1.21-2.41-1.21-2.41l2.93-0.36l1.27,2.7c0.37,0.92,1.26,0.79,1.26,0.79h2.68C170.28,16.89,171.62,16.87,171.62,18.17
				z M159.23,21.38h10.17c0,0,1.23-0.08,1.23,1.25s-1.2,1.16-1.2,1.16h-10.2V21.38z M159.23,25.81h10.11c0,0,1.36-0.02,1.36,1.18
				c0,1.21-1.36,1.2-1.36,1.2h-10.11V25.81z M159.32,30.52h9.42c0,0,1.79-0.17,1.77,1.78c-0.02,1.68,0,8.53,0,8.53h-2.9v-1.3h-5.42
				v1.6h-2.87L159.32,30.52L159.32,30.52z M167.61,32.86h-5.42v4.31h5.42V32.86z M180.49,13.39v7.57c0,0-0.04,1.02,1.02,1.02
				c0.84,0,3.22,0,3.22,0s1.38-0.13,1.36,1.33c-0.03,1.47-1.36,1.41-1.36,1.41s-2.21,0-3.33,0c-1.06,0-0.91,1.13-0.91,1.13v15.27
				h-2.98c0,0,0-14.44,0-15.51c0-1.06-1.03-0.9-1.03-0.9h-4.53v-2.74c0,0,3.52,0,4.67,0c1.01,0,0.89-1,0.89-1v-7.59L180.49,13.39
				L180.49,13.39z"/>
		</g>
		<g>
			<path class="st8" d="M209.61,29.4c0,0,1.7-0.09,1.78,1.2c0.08,1.51-1.78,1.9-1.78,1.9l-4.89,1.63h10.51c0,0,1.69-0.16,1.73,1.13
				c0.04,1.34-1.73,1.24-1.73,1.24h-10.51v1.21v0.64c0,1.67-0.89,2.5-2.68,2.5h-4.68v-2.38l3.72,0.13c0.58,0,0.87-0.3,0.87-0.88
				v-1.21h-12.78v-2.38h12.78c0,0,0.15-0.69,0.49-1.03c0.35-0.35,0.61-0.45,1.77-0.75l2.9-0.75h-12.39v-2.2
				C194.72,29.4,209.61,29.4,209.61,29.4z M213.71,28.13h-21.26v4.34h-2.62c0,0,0-3.94,0-5.46c0-1.42,1.32-1.2,1.32-1.2v-11.3
				l6.31-0.85l1.29,2.17l-5.06,0.79v1.51h4.52v2.01h-4.52v1.66h4.52v2.05h-4.52v1.96h18.72v-1.96h-4.23V21.8h4.23v-1.66h-4.23v-2.01
				h4.23v-1.6h-4.56v-2.35h5.42c0,0,1.68-0.07,1.68,1.93c0,1.98,0,9.72,0,9.72s1.41-0.17,1.41,1.46c0,1.64,0,5.2,0,5.2h-2.65
				L213.71,28.13L213.71,28.13z M203.51,17.55l-3.24,2l-1.48-1.96l2.95-1.53l-1.59-1.52l1.56-1.38l1.97,1.87l1.99-1.39l1.38,1.47
				l-1.81,1.21l1.72,1.6l-1.81,1.24L203.51,17.55z M203.56,23.61l-3.06,1.81l-1.25-1.85l2.68-1.51l-1.56-1.51l1.82-1.21l1.6,1.69
				l2.33-1.56l1.29,1.64l-1.93,1.25l1.51,1.61l-1.74,1.38L203.56,23.61z"/>
		</g>
		<g>
			<path class="st8" d="M228.69,16.43c0,0-1.38,5.64-1.6,6.4c-0.25,0.91,0.22,2.05,0.22,2.05l1.8,5.63c0,0,1.06,2.97-1.96,3.84
				l-3.6,0.23v-2.8c0,0,2.02,0,2.08,0c1.21-0.06,0.83-1.33,0.83-1.33l-1.9-5.2c0,0-0.61-1.13-0.2-2.42c0.24-0.8,1.53-5.77,1.53-5.77
				h-3.15v24.07h-2.8V14.47c0,0,5.13,0,7,0C229.18,14.47,228.69,16.43,228.69,16.43z M232.46,29.57c-1.38,0-2.92,0-2.92,0v-2.61
				h15.79c0,0,1.51-0.07,1.46,1.35c-0.06,1.34-1.46,1.26-1.46,1.26h-3.16c0,0-1.12-0.05-1.12,1.28c0,1.48,0,6.32,0,6.32
				c0,0.69,0.35,1.03,1.05,1.03h4.62c0,0,1.15,0,1.17,1.24c0.04,1.3-1.17,1.24-1.17,1.24h-5.4c-1.01,0-1.76-0.24-2.26-0.72
				c-0.5-0.47-0.75-1.39-0.75-2.75v-6.43c0,0,0.1-1.17-1.15-1.17c-0.99,0-0.99,1.13-0.99,1.21c-0.2,2.56-0.55,4.35-1.7,6.06
				c-1.16,1.71-3.06,3.13-5.72,4.28l-1.78-2.47c2.45-0.84,4.15-1.92,5.1-3.23c0.83-1.16,1.3-2.69,1.4-4.59
				C233.47,30.87,233.72,29.57,232.46,29.57z M243.98,24.21H231.8v-1.45h-2.3v-6.6c0,0,5.42,0,6.17,0c0.74,0,0.4-0.62,0.4-0.62
				l-0.93-1.8l2.86-0.36l1.04,2.09c0,0,0.32,0.69,1.08,0.69c1.31,0,3.73,0,4.81,0c1.41,0,1.3,1.44,1.3,1.44v5.19h-2.27v1.42H243.98z
				 M243.5,18.79h-11.25v2.9h11.25V18.79z"/>
		</g>
	</g>
	<g>
		<path class="st8" d="M71.73,50.18h-3.51l-0.91,2.08h-1.14l3.24-7.16h1.21l3.24,7.16h-1.21L71.73,50.18z M69.97,46.08l-1.34,3.17
			h2.72L69.97,46.08z"/>
		<path class="st8" d="M74.41,47.01h1v0.73h0.02c0.39-0.55,1.22-0.85,1.99-0.85c1.57,0,2.86,1.01,2.86,2.78
			c0,1.76-1.28,2.78-2.86,2.78c-0.78,0-1.59-0.29-1.99-0.85h-0.02v2.7h-1V47.01z M77.3,47.73c-1.36,0-1.94,0.93-1.94,1.93
			c0,1.2,0.78,1.93,1.94,1.93c1.17,0,1.92-0.72,1.92-1.93C79.22,48.66,78.65,47.73,77.3,47.73z"/>
		<path class="st8" d="M81.27,47.01h1v0.73h0.02c0.39-0.55,1.22-0.85,1.99-0.85c1.57,0,2.86,1.01,2.86,2.78
			c0,1.76-1.28,2.78-2.86,2.78c-0.78,0-1.59-0.29-1.99-0.85h-0.02v2.7h-1V47.01z M84.15,47.73c-1.36,0-1.94,0.93-1.94,1.93
			c0,1.2,0.78,1.93,1.94,1.93c1.17,0,1.92-0.72,1.92-1.93C86.08,48.66,85.51,47.73,84.15,47.73z"/>
		<path class="st8" d="M88.95,49.93c0.08,1.09,1.04,1.67,1.93,1.67c0.57,0,1.34-0.18,1.69-0.93h1.06c-0.51,1.25-1.66,1.78-2.7,1.78
			c-2.05,0-3.05-1.3-3.05-2.81c0-1.51,1-2.81,3.05-2.81c1.38,0,2.84,0.8,2.84,2.98v0.13L88.95,49.93L88.95,49.93z M92.72,49.15
			c-0.16-0.95-0.89-1.49-1.83-1.49c-0.92,0-1.74,0.55-1.9,1.49H92.72z"/>
		<path class="st8" d="M99.43,51.59h-0.02c-0.39,0.55-1.22,0.85-1.99,0.85c-1.57,0-2.86-1.01-2.86-2.78c0-1.76,1.28-2.78,2.86-2.78
			c0.77,0,1.59,0.29,1.99,0.85h0.02v-2.69h1v7.22h-1V51.59z M97.55,51.6c1.36,0,1.94-0.93,1.94-1.93c0-1.2-0.78-1.93-1.94-1.93
			c-1.17,0-1.92,0.72-1.92,1.93C95.63,50.66,96.2,51.6,97.55,51.6z"/>
		<path class="st8" d="M106.93,52.26h-1v-0.8h-0.02c-0.49,0.74-1.29,0.98-2.06,0.98c-1.26,0-2.21-0.54-2.21-1.85v-3.58h1v3.38
			c0,0.77,0.47,1.21,1.55,1.21c0.91,0,1.72-0.53,1.72-1.56v-3.03h1v5.25H106.93z"/>
		<path class="st8" d="M117.53,47.68c-0.16-1-0.94-1.83-2.45-1.83c-1.68,0-2.77,0.96-2.77,2.92c0,1.35,0.73,2.75,2.71,2.75
			c1.25,0,2.19-0.59,2.5-2h1.06c-0.16,1.58-1.54,2.92-3.58,2.92c-1.8,0-3.76-1-3.76-3.78c0-2.09,1.3-3.74,3.75-3.74
			c1.44,0,3.4,0.62,3.59,2.76C118.58,47.68,117.53,47.68,117.53,47.68z"/>
		<path class="st8" d="M122.46,46.83c2.04,0,3.05,1.29,3.05,2.81c0,1.51-1,2.81-3.05,2.81s-3.05-1.3-3.05-2.81
			C119.41,48.12,120.41,46.83,122.46,46.83z M122.46,47.67c-1.45,0-1.99,1.01-1.99,1.97c0,0.95,0.53,1.96,1.99,1.96
			c1.45,0,1.98-1.01,1.98-1.96C124.44,48.68,123.91,47.67,122.46,47.67z"/>
		<path class="st8" d="M134.46,48.92c0-0.96-0.61-1.25-1.26-1.25c-0.91,0-1.72,0.43-1.72,1.42v3.18h-1v-3.34
			c0-0.96-0.61-1.25-1.26-1.25c-0.91,0-1.72,0.53-1.72,1.57v3.03h-1v-5.25h1v0.79h0.02c0.49-0.73,1.29-0.97,2.05-0.97
			c0.68,0,1.35,0.28,1.78,0.97c0.48-0.6,1.12-0.97,2.13-0.97c0.53,0,1.99,0.25,1.99,1.85v3.58h-1v-3.36H134.46z"/>
		<path class="st8" d="M136.67,47.01h1v0.73h0.02c0.39-0.55,1.22-0.85,1.99-0.85c1.57,0,2.86,1.01,2.86,2.78
			c0,1.76-1.28,2.78-2.86,2.78c-0.78,0-1.59-0.29-1.99-0.85h-0.02v2.7h-1V47.01z M139.55,47.73c-1.36,0-1.94,0.93-1.94,1.93
			c0,1.2,0.78,1.93,1.94,1.93c1.17,0,1.92-0.72,1.92-1.93C141.48,48.66,140.91,47.73,139.55,47.73z"/>
		<path class="st8" d="M148.8,52.26h-1v-0.8h-0.02c-0.49,0.74-1.29,0.98-2.05,0.98c-1.26,0-2.21-0.54-2.21-1.85v-3.58h1v3.38
			c0,0.77,0.47,1.21,1.55,1.21c0.91,0,1.72-0.53,1.72-1.56v-3.03h1v5.25H148.8z"/>
		<path class="st8" d="M150.46,45.39h1V47h1.5v0.78h-1.5v3.24c0,0.43,0.3,0.57,0.81,0.57c0.23,0,0.46-0.03,0.69-0.07v0.84
			c-0.35,0.07-0.71,0.07-1.12,0.07c-0.99,0-1.38-0.48-1.38-1.24v-3.41h-1.08V47h1.08V45.39z"/>
		<path class="st8" d="M154.55,49.93c0.08,1.09,1.04,1.67,1.93,1.67c0.57,0,1.34-0.18,1.69-0.93h1.06
			c-0.51,1.25-1.66,1.78-2.71,1.78c-2.04,0-3.05-1.3-3.05-2.81c0-1.51,1-2.81,3.05-2.81c1.38,0,2.85,0.8,2.85,2.98v0.13
			L154.55,49.93L154.55,49.93z M158.32,49.15c-0.16-0.95-0.89-1.49-1.83-1.49c-0.92,0-1.74,0.55-1.9,1.49H158.32z"/>
		<path class="st8" d="M160.39,47.01h1v0.96h0.02c0.47-0.83,1.13-1.14,1.8-1.14c0.25,0,0.38,0.01,0.57,0.06v1.08
			c-0.25-0.07-0.44-0.1-0.71-0.1c-0.99,0-1.68,0.59-1.68,1.72v2.67h-1L160.39,47.01L160.39,47.01z"/>
		<path class="st8" d="M167.97,45.1h3.63c2.14,0,3.13,1.41,3.13,3.48c0,2-0.87,3.68-3.07,3.68h-3.69V45.1z M171.6,51.34
			c1.74,0,2.05-1.46,2.05-2.74c0-1.25-0.41-2.58-2.25-2.58h-2.37v5.31h2.57V51.34z"/>
		<path class="st8" d="M176.6,49.93c0.08,1.09,1.04,1.67,1.93,1.67c0.57,0,1.34-0.18,1.69-0.93h1.06c-0.51,1.25-1.66,1.78-2.71,1.78
			c-2.05,0-3.05-1.3-3.05-2.81c0-1.51,1-2.81,3.05-2.81c1.38,0,2.84,0.8,2.84,2.98v0.13L176.6,49.93L176.6,49.93z M180.37,49.15
			c-0.16-0.95-0.89-1.49-1.83-1.49c-0.92,0-1.74,0.55-1.9,1.49H180.37z"/>
		<path class="st8" d="M183.15,50.61c0,0.47,0.38,1.05,1.65,1.05c1.28,0,1.6-0.45,1.6-0.82s-0.19-0.59-0.99-0.7l-1.65-0.22
			c-0.76-0.11-1.42-0.57-1.42-1.39c0-1.07,0.91-1.69,2.4-1.69c1.71,0,2.49,0.74,2.57,1.76h-1c-0.03-0.53-0.53-0.98-1.57-0.98
			c-0.64,0-1.38,0.19-1.38,0.8c0,0.35,0.16,0.56,0.87,0.65l1.42,0.19c1.32,0.19,1.83,0.66,1.83,1.39c0,1.23-1.03,1.8-2.63,1.8
			c-1.2,0-2.58-0.31-2.69-1.84C182.16,50.61,183.15,50.61,183.15,50.61z"/>
		<path class="st8" d="M188.38,45.05h1v1.1h-1V45.05z M188.38,47.01h1v5.25h-1V47.01z"/>
		<path class="st8" d="M195.3,47.01h1v4.81c0,1.89-0.9,2.65-3.06,2.65c-1.13,0-2.43-0.18-2.65-1.63h1c0.19,0.68,0.78,0.85,1.74,0.85
			c1.41,0,1.95-0.72,1.95-1.58v-0.76h-0.02c-0.56,0.8-1.35,0.97-2.03,0.97c-1.4,0-2.88-0.76-2.88-2.7c0-1.96,1.46-2.72,2.87-2.72
			c0.87,0,1.65,0.29,2.05,0.89h0.02L195.3,47.01L195.3,47.01z M193.36,47.73c-1.23,0-1.93,0.8-1.93,1.88s0.7,1.85,1.93,1.85
			c1.22,0,1.94-0.77,1.94-1.85C195.3,48.53,194.58,47.73,193.36,47.73z"/>
		<path class="st8" d="M197.45,47.01h1v0.79h0.02c0.49-0.73,1.29-0.97,2.05-0.97c1.26,0,2.2,0.54,2.2,1.85v3.58h-1v-3.38
			c0-0.77-0.47-1.21-1.55-1.21c-0.91,0-1.72,0.53-1.72,1.57v3.03h-1V47.01z"/>
		<path class="st8" d="M207.54,45.1h1.06v7.16h-1.06V45.1z"/>
		<path class="st8" d="M210.07,47.01h1v0.79h0.02c0.49-0.73,1.29-0.97,2.05-0.97c1.26,0,2.2,0.54,2.2,1.85v3.58h-1v-3.38
			c0-0.77-0.47-1.21-1.55-1.21c-0.91,0-1.72,0.53-1.72,1.57v3.03h-1V47.01z"/>
		<path class="st8" d="M217.27,50.61c0,0.47,0.38,1.05,1.65,1.05c1.28,0,1.6-0.45,1.6-0.82s-0.19-0.59-0.99-0.7l-1.65-0.22
			c-0.76-0.11-1.42-0.57-1.42-1.39c0-1.07,0.91-1.69,2.4-1.69c1.71,0,2.49,0.74,2.57,1.76h-1c-0.03-0.53-0.53-0.98-1.57-0.98
			c-0.64,0-1.38,0.19-1.38,0.8c0,0.35,0.16,0.56,0.87,0.65l1.42,0.19c1.32,0.19,1.83,0.66,1.83,1.39c0,1.23-1.03,1.8-2.63,1.8
			c-1.2,0-2.58-0.31-2.69-1.84C216.28,50.61,217.27,50.61,217.27,50.61z"/>
		<path class="st8" d="M222.94,45.39h1V47h1.51v0.78h-1.51v3.24c0,0.43,0.3,0.57,0.81,0.57c0.23,0,0.46-0.03,0.69-0.07v0.84
			c-0.35,0.07-0.71,0.07-1.12,0.07c-0.99,0-1.38-0.48-1.38-1.24v-3.41h-1.08V47h1.08V45.39z"/>
		<path class="st8" d="M226.2,45.05h1v1.1h-1V45.05z M226.2,47.01h1v5.25h-1V47.01z"/>
		<path class="st8" d="M228.86,45.39h1V47h1.51v0.78h-1.51v3.24c0,0.43,0.3,0.57,0.81,0.57c0.23,0,0.46-0.03,0.69-0.07v0.84
			c-0.35,0.07-0.71,0.07-1.12,0.07c-0.99,0-1.38-0.48-1.38-1.24v-3.41h-1.08V47h1.08V45.39z"/>
		<path class="st8" d="M237.4,52.26h-1v-0.8h-0.02c-0.49,0.74-1.29,0.98-2.05,0.98c-1.26,0-2.21-0.54-2.21-1.85v-3.58h1v3.38
			c0,0.77,0.47,1.21,1.55,1.21c0.91,0,1.72-0.53,1.72-1.56v-3.03h1v5.25H237.4z"/>
		<path class="st8" d="M239.06,45.39h1V47h1.5v0.78h-1.5v3.24c0,0.43,0.3,0.57,0.81,0.57c0.23,0,0.46-0.03,0.69-0.07v0.84
			c-0.35,0.07-0.71,0.07-1.12,0.07c-0.99,0-1.38-0.48-1.38-1.24v-3.41h-1.08V47h1.08V45.39z"/>
		<path class="st8" d="M243.15,49.93c0.08,1.09,1.04,1.67,1.93,1.67c0.57,0,1.34-0.18,1.7-0.93h1.06c-0.51,1.25-1.67,1.78-2.71,1.78
			c-2.04,0-3.05-1.3-3.05-2.81c0-1.51,1-2.81,3.05-2.81c1.38,0,2.85,0.8,2.85,2.98v0.13L243.15,49.93L243.15,49.93z M246.92,49.15
			c-0.16-0.95-0.89-1.49-1.83-1.49c-0.92,0-1.74,0.55-1.9,1.49H246.92z"/>
	</g>
</g>
</svg>
