<?xml version="1.0" encoding="utf-8"?>
<!-- Generator: Adobe Illustrator 25.0.1, SVG Export Plug-In . SVG Version: 6.00 Build 0)  -->
<svg version="1.1" id="圖層_1" xmlns="http://www.w3.org/2000/svg" xmlns:xlink="http://www.w3.org/1999/xlink" x="0px" y="0px"
	 viewBox="0 0 40 40" style="enable-background:new 0 0 40 40;" xml:space="preserve">
<style type="text/css">
	.st0{fill:#EC8225;}
</style>
<path class="st0" d="M19.2,4.4c0.5,0,1.1,0,1.6,0c0.6,0.1,1.3,0.2,1.9,0.3c5.1,1.1,9,5.9,9.2,11.1c0.1,2.8-0.7,5.4-2.4,7.7
	c-2.5,3.3-4.9,6.6-7.4,9.9c-0.5,0.7-1.1,1.4-1.6,2.2c-0.4,0-0.7,0-1.1,0c-0.1-0.1-0.1-0.2-0.2-0.3c-3-4-6-8-8.9-12
	c-2.2-3.1-2.9-6.5-1.8-10.2c1.3-4.4,4.2-7.2,8.7-8.4C17.9,4.6,18.6,4.5,19.2,4.4z M16.1,16.3c0,2.2,1.8,4,3.9,4c2.2,0,4-1.8,4-3.9
	c0-2.2-1.8-4-3.9-4C17.9,12.4,16.1,14.2,16.1,16.3z"/>
</svg>
