<?xml version="1.0" encoding="utf-8"?>
<!-- Generator: Adobe Illustrator 25.0.1, SVG Export Plug-In . SVG Version: 6.00 Build 0)  -->
<svg version="1.1" id="圖層_1" xmlns="http://www.w3.org/2000/svg" xmlns:xlink="http://www.w3.org/1999/xlink" x="0px" y="0px"
	 viewBox="0 0 48 48" style="enable-background:new 0 0 48 48;" xml:space="preserve">
<style type="text/css">
	.st0{fill-rule:evenodd;clip-rule:evenodd;fill:#979797;}
</style>
<g id="Page-1">
	<g id="_x30_" transform="translate(-1338.000000, -626.000000)">
		<g id="Group-5" transform="translate(1338.000000, 626.000000)">
			<path id="Combined-Shape" class="st0" d="M18.8,31.9c1.4,0,2.6,1.2,2.6,2.6c0,1.4-1.2,2.6-2.6,2.6s-2.6-1.2-2.6-2.6
				C16.2,33,17.3,31.9,18.8,31.9z M31.7,31.9c1.4,0,2.6,1.2,2.6,2.6c0,1.4-1.2,2.6-2.6,2.6c-1.4,0-2.6-1.2-2.6-2.6
				C29.1,33,30.3,31.9,31.7,31.9z M15.1,13l1.2,2.4h18.5c0.7,0,1.2,0.5,1.2,1.2c0,0.2-0.1,0.4-0.2,0.6l0,0L31.4,25
				c-0.4,0.7-1.2,1.2-2.2,1.2l0,0h-9.3l-1.1,2c0,0,0,0.1,0,0.1c0,0.2,0.1,0.3,0.3,0.3l0,0h14.5V31h-15c-1.4,0-2.5-1.1-2.5-2.4
				c0-0.4,0.1-0.8,0.3-1.2l0,0l1.7-2.9l-4.5-9.1H11V13H15.1z"/>
		</g>
	</g>
</g>
</svg>
