<?xml version="1.0" encoding="UTF-8"?>
<svg width="54px" height="54px" viewBox="0 0 54 54" version="1.1" xmlns="http://www.w3.org/2000/svg" xmlns:xlink="http://www.w3.org/1999/xlink">
    <title>Group</title>
    <g id="Page-1" stroke="none" stroke-width="1" fill="none" fill-rule="evenodd">
        <g id="3_spnp_catalogue_default" transform="translate(-1193.000000, -495.000000)">
            <g id="Group" transform="translate(1193.000000, 495.333333)">
                <circle id="Oval" fill="#F6851D" opacity="0" cx="26.6666667" cy="26.6666667" r="26.6666667"></circle>
                <g transform="translate(13.000000, 12.666667)" id="icon/bool">
                    <rect id="Rectangle" x="0" y="0" width="28" height="28"></rect>
                    <path d="M26.9982188,7.1049221 C27.5505843,7.1049221 28,7.55433776 28,8.10670325 L28,8.10670325 L28,24.0299892 C28,24.3362933 27.8627335,24.621668 27.62346,24.812672 C27.383338,25.0039588 27.07364,25.0744776 26.7739353,25.0062214 C24.3736578,24.459324 20.1619534,23.8233353 16.1667076,24.8015473 C18.4767625,22.6151831 21.7385378,22.2284612 23.7167398,22.2237474 C25.1256065,22.2202592 26.2717248,21.0731981 26.2717248,19.6664998 L26.2717248,19.6664998 L26.2717248,7.1049221 Z M1.72827518,7.10489382 L1.72827518,19.6664715 C1.72827518,21.0731698 2.87448779,22.2202309 4.28326021,22.2235306 C6.26146216,22.2283387 9.52323745,22.6149662 11.8331981,24.8013305 C7.83814087,23.8231185 3.62634218,24.4589186 1.22606473,25.0060046 C0.925888639,25.074355 0.616473456,25.0035534 0.376539988,24.8123608 C0.137266455,24.6214511 0,24.3360764 0,24.0296781 L0,24.0296781 L0,8.10676925 C0,7.55430948 0.449509931,7.10489382 1.00178115,7.10489382 L1.00178115,7.10489382 L1.72827518,7.10489382 Z M4.28317536,3.64008485 C6.62066472,3.64555288 10.8721538,4.18688804 13.0845383,7.74978219 C13.1745723,7.89496786 13.2222762,8.07041626 13.2222762,8.25717784 L13.2222762,8.25717784 L13.2222762,23.9805978 C10.526725,21.1597533 6.61934485,20.6736641 4.28713497,20.6681961 C3.73392099,20.6666876 3.28393968,20.2173663 3.28393968,19.6665092 L3.28393968,19.6665092 L3.28393968,4.64205455 C3.28393968,4.37317823 3.38868077,4.12061172 3.57883629,3.93092758 C3.76691773,3.74331752 4.01599601,3.64008485 4.28081845,3.64008485 L4.28081845,3.64008485 Z M23.7193795,3.63995286 C23.9839191,3.63995286 24.233186,3.74327981 24.4212674,3.93079559 C24.6114229,4.12057401 24.716164,4.37314052 24.716164,4.64192257 L24.716164,4.64192257 L24.716164,19.6664715 C24.716164,20.2173285 24.2661827,20.6665556 23.713063,20.6679698 C21.3808531,20.6736264 17.473473,21.1597156 14.7779218,23.9805601 L14.7779218,23.9805601 L14.7779218,8.25714013 C14.7779218,8.07047283 14.8255314,7.89502443 14.9155654,7.74983875 C17.1280442,4.1869446 21.3795333,3.64551517 23.7169283,3.63995286 L23.7169283,3.63995286 Z" id="Combined-Shape" fill="#FFFFFF"></path>
                </g>
            </g>
        </g>
    </g>
</svg>