<?xml version="1.0" encoding="UTF-8"?>
<svg width="48px" height="48px" viewBox="0 0 48 48" version="1.1" xmlns="http://www.w3.org/2000/svg" xmlns:xlink="http://www.w3.org/1999/xlink">
    <title>Group</title>
    <g id="Symbols" stroke="none" stroke-width="1" fill="none" fill-rule="evenodd">
        <g id="block/head-copy-2" transform="translate(-1648.000000, -14.000000)">
            <g id="Group-2" transform="translate(1641.000000, 14.000000)">
                <g id="Group" transform="translate(7.000000, 0.000000)">
                    <circle id="Oval-Copy-3" stroke="#FFFFFF" opacity="0" cx="24" cy="24" r="24"></circle>
                    <g id="Fill-1" transform="translate(11.000124, 11.000378)" fill="#FFFFFF">
                        <path d="M15.9114583,23.7498256 C16.7091743,22.2910387 17.2778001,20.2405126 17.6092603,17.9548065 L22.9712634,17.9548065 C21.5666571,20.7707547 19.0043005,22.9112281 15.9114583,23.7498256 L15.9114583,23.7498256 Z M3.02836391,17.9548065 L8.39036697,17.9548065 C8.72182722,20.2403884 9.29045298,22.2909145 10.088169,23.7498256 C6.9952026,22.9112281 4.43309442,20.7707547 3.02836391,17.9548065 L3.02836391,17.9548065 Z M10.088169,2.25054712 C9.29045298,3.709334 8.72182722,5.75986009 8.39036697,8.04556618 L3.02836391,8.04556618 C4.43309442,5.22986649 6.9952026,3.08914458 10.088169,2.25054712 L10.088169,2.25054712 Z M22.9712634,8.04556618 L17.6092603,8.04556618 C17.2778001,5.75998433 16.7091743,3.70945823 15.9114583,2.25067136 C19.0043005,3.08914458 21.5666571,5.22986649 22.9712634,8.04556618 L22.9712634,8.04556618 Z M17.8230696,9.9091161 L23.6994075,9.9091161 C23.983534,10.8909584 24.1362194,11.9280861 24.1362194,13.0003727 C24.1362194,14.0724109 23.983534,15.1095385 23.6994075,16.0913808 L17.8230696,16.0913808 C17.9101586,15.077237 17.9543865,14.0378731 17.9543865,13.0003727 C17.9543865,11.9626239 17.9101586,10.92326 17.8230696,9.9091161 L17.8230696,9.9091161 Z M12.9997515,1.86354992 C13.4949541,1.86354992 14.2932913,2.75954472 14.9604358,4.76124581 C15.2823299,5.72718585 15.5402427,6.83761313 15.7278383,8.04544195 L10.2716648,8.04544195 C10.4595088,6.83748889 10.7171732,5.72718585 11.0393157,4.76124581 C11.7065845,2.75954472 12.5047974,1.86354992 12.9997515,1.86354992 L12.9997515,1.86354992 Z M1.86340787,13.0003727 C1.86340787,11.9280861 2.01609327,10.8909584 2.30009557,9.9091161 L8.17655772,9.9091161 C8.08946865,10.92326 8.04524083,11.9626239 8.04524083,13.0003727 C8.04524083,14.0378731 8.08934442,15.077237 8.17655772,16.0913808 L2.30009557,16.0913808 C2.01609327,15.1094143 1.86340787,14.0724109 1.86340787,13.0003727 L1.86340787,13.0003727 Z M10.0456804,16.0912566 C9.95598242,15.0976118 9.90877294,14.0609811 9.90877294,13.0002485 C9.90877294,11.9393916 9.95598242,10.9026367 10.0456804,9.90899187 L15.9539469,9.90899187 C16.0433964,10.9026367 16.0908544,11.9393916 16.0908544,13.0002485 C16.0908544,14.0609811 16.0433964,15.0976118 15.9539469,16.0912566 L10.0456804,16.0912566 Z M12.9997515,24.1368228 C12.5047974,24.1368228 11.7065845,23.240828 11.03944,21.2391269 C10.7174216,20.2733111 10.459633,19.1627596 10.2716648,17.9548065 L15.7278383,17.9548065 C15.5401185,19.1627596 15.2823299,20.2730626 14.9604358,21.2391269 C14.293167,23.240828 13.4949541,24.1368228 12.9997515,24.1368228 L12.9997515,24.1368228 Z M25.2762041,17.2769713 C25.7441992,15.9369547 25.9997515,14.4979214 25.9997515,13.0002485 C25.9997515,11.502327 25.7441992,10.0632938 25.2762041,8.72327717 C25.2647745,8.68314873 25.2512328,8.64376571 25.2348337,8.60599776 C23.4291953,3.59366966 18.6265004,0 12.9997515,0 C7.37300268,0 2.57043196,3.59366966 0.764917813,8.60599776 C0.748518731,8.64388995 0.734852829,8.68314873 0.723547401,8.72327717 C0.255303899,10.0632938 0,11.502327 0,13.0002485 C0,14.4979214 0.255303899,15.9369547 0.723547401,17.2769713 C0.734977064,17.317224 0.748518731,17.3564828 0.764917813,17.3942507 C2.57055619,22.406703 7.37300268,26.0002485 12.9997515,26.0002485 C18.6265004,26.0002485 23.4291953,22.4065788 25.2348337,17.3942507 C25.2512328,17.3564828 25.2647745,17.3174725 25.2762041,17.2769713 L25.2762041,17.2769713 Z"></path>
                    </g>
                </g>
            </g>
        </g>
    </g>
</svg>