<?xml version="1.0" encoding="utf-8"?>
<!-- Generator: Adobe Illustrator 25.0.1, SVG Export Plug-In . SVG Version: 6.00 Build 0)  -->
<svg version="1.1" id="圖層_1" xmlns="http://www.w3.org/2000/svg" xmlns:xlink="http://www.w3.org/1999/xlink" x="0px" y="0px"
	 viewBox="0 0 48 49" style="enable-background:new 0 0 48 49;" xml:space="preserve">
<style type="text/css">
	.st0{fill-rule:evenodd;clip-rule:evenodd;fill:#FFFFFF;}
</style>
<g id="Page-1">
	<g id="_x32__x5F_1_x5F_1_x5F_1_x5F_spnp_x5F_Products_x5F_productlist1" transform="translate(-1648.000000, -182.000000)">
		<g id="Group" transform="translate(1648.000000, 182.081036)">
			<path id="Rectangle-Copy-20" class="st0" d="M12.5,14.9c0-1.4,1.1-2.5,2.5-2.5h19c1.4,0,2.5,1.1,2.5,2.5s-1.1,2.5-2.5,2.5H15
				C13.6,17.4,12.5,16.3,12.5,14.9z"/>
			<path id="Rectangle-Copy-22" class="st0" d="M12.5,23.9c0-1.4,1.1-2.5,2.5-2.5h19c1.4,0,2.5,1.1,2.5,2.5s-1.1,2.5-2.5,2.5H15
				C13.6,26.4,12.5,25.3,12.5,23.9z"/>
			<path id="Rectangle-Copy-33" class="st0" d="M12.5,33.9c0-1.4,1.1-2.5,2.5-2.5h19c1.4,0,2.5,1.1,2.5,2.5c0,1.4-1.1,2.5-2.5,2.5
				H15C13.6,36.4,12.5,35.3,12.5,33.9z"/>
		</g>
	</g>
</g>
</svg>
