<?xml version="1.0" encoding="UTF-8"?>
<svg width="25px" height="25px" viewBox="0 0 25 25" version="1.1" xmlns="http://www.w3.org/2000/svg" xmlns:xlink="http://www.w3.org/1999/xlink">
    <title>Group 11</title>
    <g id="Page-1" stroke="none" stroke-width="1" fill="none" fill-rule="evenodd">
        <g id="3_1_spnp_catalogue" transform="translate(-505.000000, -817.000000)">
            <g id="Group-11" transform="translate(505.000000, 817.000000)">
                <rect id="Rectangle" fill="#D8D8D8" opacity="0" x="0" y="0" width="25" height="25"></rect>
                <g id="icon/downlond-copy" transform="translate(0.000000, 1.000000)">
                    <g id="Group-5" transform="translate(0.750000, 0.000000)" fill="#EC8225">
                        <path d="M17.898418,10.9395 C17.7718555,10.671 17.4937793,10.5 17.1874805,10.5 L14.0624805,10.5 L14.0624805,0.75 C14.0624805,0.336 13.7124805,0 13.2812305,0 L10.1562305,0 C9.72498047,0 9.37498047,0.336 9.37498047,0.75 L9.37498047,10.5 L6.24998047,10.5 C5.94373047,10.5 5.6656543,10.6725 5.53904297,10.9395 C5.41091797,11.208 5.46091797,11.5215 5.66248047,11.7435 L11.1312305,17.7435 C11.279668,17.907 11.4937793,18 11.7187305,18 C11.9437793,18 12.1578418,17.9055 12.3062793,17.7435 L17.7750293,11.7435 C17.9781543,11.523 18.0250293,11.208 17.898418,10.9395" id="Fill-1"></path>
                        <path d="M20.3125,16.5 L20.3125,21 L3.125,21 L3.125,16.5 L0,16.5 L0,22.5 C0,23.3295 0.7,24 1.5625,24 L21.875,24 C22.7390625,24 23.4375,23.3295 23.4375,22.5 L23.4375,16.5 L20.3125,16.5 Z" id="Fill-3"></path>
                    </g>
                    <rect id="Rectangle" x="0" y="0" width="25" height="24"></rect>
                </g>
            </g>
        </g>
    </g>
</svg>