<?xml version="1.0" encoding="UTF-8"?>
<svg width="48px" height="48px" viewBox="0 0 48 48" version="1.1" xmlns="http://www.w3.org/2000/svg" xmlns:xlink="http://www.w3.org/1999/xlink">
    <title>Group 6</title>
    <g id="Page-1" stroke="none" stroke-width="1" fill="none" fill-rule="evenodd">
        <g id="7_spnp_contact_us" transform="translate(-1437.000000, -1021.000000)">
            <g id="Group-6" transform="translate(1437.000000, 1021.000000)">
                <path d="M5,0 L48,0 L48,0 L48,48 L5,48 C2.23857625,48 3.38176876e-16,45.7614237 0,43 L0,5 C-3.38176876e-16,2.23857625 2.23857625,5.07265313e-16 5,0 Z" id="Rectangle-Copy-36"></path>
                <path d="M24,14 C24.6903559,14 25.25,14.5596441 25.25,15.25 L25.25,22.75 L32.75,22.75 C33.4403559,22.75 34,23.3096441 34,24 C34,24.6903559 33.4403559,25.25 32.75,25.25 L25.25,25.25 L25.25,32.75 C25.25,33.4403559 24.6903559,34 24,34 C23.3096441,34 22.75,33.4403559 22.75,32.75 L22.75,25.25 L15.25,25.25 C14.5596441,25.25 14,24.6903559 14,24 C14,23.3096441 14.5596441,22.75 15.25,22.75 L22.75,22.75 L22.75,15.25 C22.75,14.5596441 23.3096441,14 24,14 Z" id="Combined-Shape-Copy-3" fill="#FFFFFF"></path>
            </g>
        </g>
    </g>
</svg>