<?xml version="1.0" encoding="UTF-8"?>
<svg width="54px" height="54px" viewBox="0 0 54 54" version="1.1" xmlns="http://www.w3.org/2000/svg" xmlns:xlink="http://www.w3.org/1999/xlink">
    <title>Group 3</title>
    <g id="Page-1" stroke="none" stroke-width="1" fill="none" fill-rule="evenodd">
        <g id="search" transform="translate(-1365.000000, -466.000000)">
            <g id="Group-2" transform="translate(495.000000, 391.000000)">
                <g id="Group" transform="translate(0.000000, 70.000000)">
                    <g id="Group-3" transform="translate(870.000000, 5.333333)">
                        <circle id="Oval" fill="#F6851D" opacity="0" cx="26.6666667" cy="26.6666667" r="26.6666667"></circle>
                        <g id="Group" transform="translate(12.000000, 12.666667)" fill="#FFFFFF">
                            <g id="Group" transform="translate(2.933333, 2.933333)">
                                <path d="M5.41620722,13.6189275 C3.15477837,11.3575107 3.15477837,7.67774836 5.41620722,5.41633155 C7.67763607,3.15473018 11.3572335,3.15491474 13.6188469,5.41633155 C15.8802757,7.67774836 15.8804603,11.3575107 13.6188469,13.6189275 C11.3572335,15.8803444 7.67763607,15.8803444 5.41620722,13.6189275 M14.2762515,17.6828394 C14.2762515,17.6828394 14.5406504,17.5252308 14.7638559,17.7484351 C15.9757027,18.9602754 19.6116908,22.5962442 19.6116908,22.5962442 C20.5786161,23.5631643 21.9306099,23.7933087 22.7880593,22.9356401 L22.9358182,22.7881059 C23.7932675,21.9304372 23.5631218,20.5784505 22.5961966,19.6115305 C22.5961966,19.6115305 18.9525966,15.9679499 17.7380633,14.7536469 C17.5251562,14.5407409 17.6827656,14.2763434 17.6827656,14.2763434 C19.8772091,10.6184348 19.400127,5.93405509 16.2503999,2.78456867 C12.5378458,-0.928189558 6.49696971,-0.928189558 2.78441559,2.78456867 C-0.92813853,6.49710303 -0.92813853,12.5379469 2.78441559,16.2507052 C5.93414265,19.4001916 10.6185473,19.8772712 14.2762515,17.6828394" id="Fill-1"></path>
                            </g>
                        </g>
                    </g>
                </g>
            </g>
        </g>
    </g>
</svg>