<?xml version="1.0" encoding="utf-8"?>
<!-- Generator: Adobe Illustrator 25.0.1, SVG Export Plug-In . SVG Version: 6.00 Build 0)  -->
<svg version="1.1" id="圖層_1" xmlns="http://www.w3.org/2000/svg" xmlns:xlink="http://www.w3.org/1999/xlink" x="0px" y="0px"
	 viewBox="0 0 48 48" style="enable-background:new 0 0 48 48;" xml:space="preserve">
<style type="text/css">
	.st0{fill:#FFFFFF;}
</style>
<g>
	<path class="st0" d="M19,20.3h-2.3c-0.6,0-1.1-0.5-1.1-1.1V17c0-0.6,0.5-1.1,1.1-1.1H19c0.6,0,1.1,0.5,1.1,1.1v2.3
		C20.1,19.9,19.6,20.3,19,20.3z"/>
	<path class="st0" d="M25.1,20.3h-2.3c-0.6,0-1.1-0.5-1.1-1.1V17c0-0.6,0.5-1.1,1.1-1.1h2.3c0.6,0,1.1,0.5,1.1,1.1v2.3
		C26.2,19.9,25.7,20.3,25.1,20.3z"/>
	<path class="st0" d="M31.3,20.3H29c-0.6,0-1.1-0.5-1.1-1.1V17c0-0.6,0.5-1.1,1.1-1.1h2.3c0.6,0,1.1,0.5,1.1,1.1v2.3
		C32.4,19.9,31.9,20.3,31.3,20.3z"/>
	<path class="st0" d="M19,26.2h-2.3c-0.6,0-1.1-0.5-1.1-1.1v-2.3c0-0.6,0.5-1.1,1.1-1.1H19c0.6,0,1.1,0.5,1.1,1.1v2.3
		C20.1,25.7,19.6,26.2,19,26.2z"/>
	<path class="st0" d="M25.1,26.2h-2.3c-0.6,0-1.1-0.5-1.1-1.1v-2.3c0-0.6,0.5-1.1,1.1-1.1h2.3c0.6,0,1.1,0.5,1.1,1.1v2.3
		C26.2,25.7,25.7,26.2,25.1,26.2z"/>
	<path class="st0" d="M31.3,26.2H29c-0.6,0-1.1-0.5-1.1-1.1v-2.3c0-0.6,0.5-1.1,1.1-1.1h2.3c0.6,0,1.1,0.5,1.1,1.1v2.3
		C32.4,25.7,31.9,26.2,31.3,26.2z"/>
	<path class="st0" d="M19,32.1h-2.3c-0.6,0-1.1-0.5-1.1-1.1v-2.3c0-0.6,0.5-1.1,1.1-1.1H19c0.6,0,1.1,0.5,1.1,1.1V31
		C20.1,31.6,19.6,32.1,19,32.1z"/>
	<path class="st0" d="M25.1,32.1h-2.3c-0.6,0-1.1-0.5-1.1-1.1v-2.3c0-0.6,0.5-1.1,1.1-1.1h2.3c0.6,0,1.1,0.5,1.1,1.1V31
		C26.2,31.6,25.7,32.1,25.1,32.1z"/>
	<path class="st0" d="M31.3,32.1H29c-0.6,0-1.1-0.5-1.1-1.1v-2.3c0-0.6,0.5-1.1,1.1-1.1h2.3c0.6,0,1.1,0.5,1.1,1.1V31
		C32.4,31.6,31.9,32.1,31.3,32.1z"/>
</g>
</svg>
