<?xml version="1.0" encoding="utf-8"?>
<!-- Generator: Adobe Illustrator 25.0.1, SVG Export Plug-In . SVG Version: 6.00 Build 0)  -->
<svg version="1.1" id="圖層_1" xmlns="http://www.w3.org/2000/svg" xmlns:xlink="http://www.w3.org/1999/xlink" x="0px" y="0px"
	 viewBox="0 0 48 48" style="enable-background:new 0 0 48 48;" xml:space="preserve">
<style type="text/css">
	.st0{fill:#EC8225;}
</style>
<g id="Symbols">
	<g id="Group">
		<path id="Combined-Shape" class="st0" d="M25.6,20.3L25.6,20.3l3,3c0.4,0.4,0.4,0.9,0.1,1.3l-0.1,0.1l-3,3c-0.4,0.4-1,0.4-1.4,0
			c-0.4-0.4-0.4-0.9-0.1-1.3l0.1-0.1l1.2-1.2l-5.9,0c-0.6,0-1-0.4-1-1c0-0.5,0.4-0.9,0.9-1l0.1,0l5.9,0l-1.2-1.2
			c-0.4-0.4-0.4-0.9-0.1-1.3l0.1-0.1C24.7,20,25.2,19.9,25.6,20.3z"/>
	</g>
</g>
</svg>
