<?xml version="1.0" encoding="utf-8"?>
<!-- Generator: Adobe Illustrator 25.0.1, SVG Export Plug-In . SVG Version: 6.00 Build 0)  -->
<svg version="1.1" id="圖層_1" xmlns="http://www.w3.org/2000/svg" xmlns:xlink="http://www.w3.org/1999/xlink" x="0px" y="0px"
	 viewBox="0 0 25 25" style="enable-background:new 0 0 25 25;" xml:space="preserve">
<style type="text/css">
	.st0{fill-rule:evenodd;clip-rule:evenodd;fill:#FFFFFF;}
</style>
<g id="Page-1">
	<g id="_x33__x5F_1_x5F_spnp_x5F_catalogue" transform="translate(-505.000000, -817.000000)">
		<g id="Group-11" transform="translate(505.000000, 817.000000)">
			<g id="icon_x2F_downlond-copy" transform="translate(0.000000, 1.000000)">
				<g id="Group-5" transform="translate(0.750000, 0.000000)">
					<path id="Fill-1" class="st0" d="M17.9,10.9c-0.1-0.3-0.4-0.4-0.7-0.4h-3.1V0.8c0-0.4-0.4-0.8-0.8-0.8h-3.1
						C9.7,0,9.4,0.3,9.4,0.8v9.8H6.2c-0.3,0-0.6,0.2-0.7,0.4c-0.1,0.3-0.1,0.6,0.1,0.8l5.5,6c0.1,0.2,0.4,0.3,0.6,0.3
						c0.2,0,0.4-0.1,0.6-0.3l5.5-6C18,11.5,18,11.2,17.9,10.9"/>
					<path id="Fill-3" class="st0" d="M20.3,16.5V21H3.1v-4.5H0v6C0,23.3,0.7,24,1.6,24h20.3c0.9,0,1.6-0.7,1.6-1.5v-6H20.3z"/>
				</g>
			</g>
		</g>
	</g>
</g>
</svg>
