<?xml version="1.0" encoding="UTF-8"?>
<svg width="12px" height="12px" viewBox="0 0 12 12" version="1.1" xmlns="http://www.w3.org/2000/svg" xmlns:xlink="http://www.w3.org/1999/xlink">
    <title>icon/right-arrow</title>
    <defs>
        <path d="M8.83709142,5.5973623 L4.29221414,1.00491573 C4.18709667,0.898612207 4.04677399,0.84004878 3.89715182,0.84004878 C3.74752964,0.84004878 3.60720696,0.898612207 3.5020895,1.00491573 L3.16739084,1.34303981 C2.94960008,1.56336583 2.94960008,1.92145853 3.16739084,2.14144893 L6.98383565,5.99790929 L3.16315625,9.85864863 C3.05803879,9.96495216 3,10.1066622 3,10.2577693 C3,10.4090442 3.05803879,10.5507542 3.16315625,10.6571416 L3.49785491,10.9951818 C3.6030554,11.1014854 3.74329506,11.1600488 3.89291723,11.1600488 C4.0425394,11.1600488 4.18286208,11.1014854 4.28797955,10.9951818 L8.83709142,6.39854017 C8.94245798,6.29190104 9.0003307,6.14951976 9,5.99816099 C9.0003307,5.84621491 8.94245798,5.70391753 8.83709142,5.5973623 Z" id="path-1"></path>
    </defs>
    <g id="Page-1" stroke="none" stroke-width="1" fill="none" fill-rule="evenodd">
        <g id="2_1_spnp_Products_Big1" transform="translate(-377.000000, -143.000000)">
            <g id="icon/right-arrow" transform="translate(377.000000, 143.000000)">
                <g id="color/sub"></g>
                <mask id="mask-2" fill="white">
                    <use xlink:href="#path-1"></use>
                </mask>
                <use id="Mask" fill="#FFAF00" fill-rule="nonzero" xlink:href="#path-1"></use>
                <g id="Group" mask="url(#mask-2)">
                    <g transform="translate(0.840000, 0.840049)" id="color/sub">
                        <rect id="Rectangle-Copy-4" fill="#FFA400" x="0" y="0" width="11.16" height="11.16"></rect>
                    </g>
                </g>
            </g>
        </g>
    </g>
</svg>