<?xml version="1.0" encoding="utf-8"?>
<!-- Generator: Adobe Illustrator 25.0.1, SVG Export Plug-In . SVG Version: 6.00 Build 0)  -->
<svg version="1.1" id="圖層_1" xmlns="http://www.w3.org/2000/svg" xmlns:xlink="http://www.w3.org/1999/xlink" x="0px" y="0px"
	 viewBox="0 0 48 48" style="enable-background:new 0 0 48 48;" xml:space="preserve">
<style type="text/css">
	.st0{fill:none;stroke:#000000;stroke-opacity:0;}
	.st1{fill-rule:evenodd;clip-rule:evenodd;fill:#2D2D2D;}
</style>
<g id="Symbols">
	<g id="block_x2F_head" transform="translate(-1451.000000, -15.000000)">
		<g id="Group-3-Copy" transform="translate(1446.000000, 15.000000)">
			<g id="Group-3" transform="translate(5.000000, 0.000000)">
				<circle id="Oval-Copy-2" class="st0" cx="24" cy="24" r="24"/>
				<g id="icon_x2F_search" transform="translate(11.999955, 11.999838)">
					<path id="Fill-1" class="st1" d="M1.9,10.1c0-4.5,3.7-8.2,8.2-8.2c4.5,0,8.2,3.7,8.2,8.2c0,4.5-3.7,8.2-8.2,8.2
						C5.6,18.3,1.9,14.6,1.9,10.1 M23.7,22.4l-5.9-5.9c1.5-1.8,2.3-4,2.3-6.4C20.2,4.5,15.7,0,10.1,0C4.5,0,0,4.5,0,10.1
						c0,5.6,4.5,10.1,10.1,10.1c2.4,0,4.7-0.9,6.4-2.3l5.9,5.9c0.2,0.2,0.4,0.3,0.7,0.3s0.5-0.1,0.7-0.3
						C24.1,23.4,24.1,22.8,23.7,22.4"/>
				</g>
			</g>
		</g>
	</g>
</g>
</svg>
