<?xml version="1.0" encoding="UTF-8"?>
<svg width="48px" height="48px" viewBox="0 0 48 48" version="1.1" xmlns="http://www.w3.org/2000/svg" xmlns:xlink="http://www.w3.org/1999/xlink">
    <title>Group 2</title>
    <g id="Symbols" stroke="none" stroke-width="1" fill="none" fill-rule="evenodd">
        <g id="block/footer" transform="translate(-1698.000000, -283.000000)">
            <g id="Group" transform="translate(1403.000000, 283.000000)">
                <g id="Group-2" transform="translate(295.000000, 0.000000)">
                    <g id="icon/tag-copy-2" transform="translate(8.000000, 8.000000)">
                        <rect id="Rectangle" x="0" y="0" width="33" height="33"></rect>
                        <g id="Group" transform="translate(4.290000, 6.600000)" fill="#FFFFFF">
                            <path d="M22.010267,18.81 C22.5556675,18.81 23.0282511,18.6336098 23.43,18.2853169 L16.5558208,11.5518122 C16.3908923,11.6674928 16.2310297,11.7799803 16.0800215,11.8869449 C15.5655891,12.2581927 15.1480697,12.5478903 14.8274636,12.7554766 C14.5069014,12.9635376 14.0803956,13.1756114 13.5479902,13.3921295 C13.0152324,13.6089064 12.5189051,13.7169497 12.0584797,13.7169497 L12.045,13.7169497 L12.0315203,13.7169497 C11.5710508,13.7169497 11.0747235,13.6089496 10.5420098,13.3921295 C10.009296,13.1756114 9.58279023,12.9635376 9.26253645,12.7554766 C8.9419743,12.5478903 8.52467525,12.2582359 8.00997853,11.8869449 C7.86654712,11.78395 7.70747746,11.6709446 7.53550074,11.55 L0.66,18.2853169 C1.06170485,18.6336098 1.53459679,18.81 2.0799533,18.81 L22.010267,18.81 Z" id="Fill-1"></path>
                            <path d="M1.34083059,7.45949833 C0.836534561,7.1132433 0.389331908,6.71668455 0,6.27 L0,16.83 L5.94,10.712561 C4.75166314,9.8581539 3.22055009,8.77504505 1.34083059,7.45949833" id="Fill-3"></path>
                            <path d="M23.0920696,7.45946827 C21.2833174,8.71974245 19.7460185,9.80469193 18.48,10.7148949 L24.42,16.83 L24.42,6.27 C24.0391532,6.7076891 23.5965674,7.10397096 23.0920696,7.45946827" id="Fill-5"></path>
                            <path d="M22.2394473,0 L2.18024234,0 C1.48043665,0 0.942414464,0.236308279 0.565510749,0.708437146 C0.18829668,1.18078769 0,1.77151405 0,2.4799512 C0,3.05218965 0.249879936,3.67222179 0.749418126,4.34022495 C1.24895632,5.00796209 1.78050538,5.5324512 2.34379931,5.91395828 C2.65260232,6.13213333 3.58384401,6.77952048 5.13752439,7.85589804 C5.97623602,8.43709227 6.70561409,8.94366983 7.33239774,9.38081797 C7.86665133,9.75305893 8.32739517,10.0754224 8.70780146,10.3429429 C8.75147281,10.3735788 8.82014989,10.4227025 8.91130553,10.4878757 C9.00951065,10.5584135 9.13378557,10.6479269 9.28710083,10.7586327 C9.5823369,10.9721525 9.82760585,11.1447507 10.022952,11.2766045 C10.2180322,11.4085026 10.4543895,11.5558295 10.7316693,11.7194276 C11.0087275,11.8828039 11.2700462,12.0056576 11.5153152,12.087368 C11.7606284,12.169034 11.9877195,12.21 12.1966326,12.21 L12.2101995,12.21 L12.2237665,12.21 C12.4326352,12.21 12.6597706,12.169034 12.9051282,12.087368 C13.1503528,12.0056576 13.4114499,11.8830699 13.6887297,11.7194276 C13.9657435,11.5558295 14.2017905,11.4081923 14.3974913,11.2766045 C14.5928375,11.1447507 14.8381065,10.9721968 15.1333869,10.7586327 C15.2863918,10.6479269 15.4106667,10.5583692 15.5088718,10.4880974 C15.6000718,10.4226582 15.6687045,10.3738448 15.7126419,10.3429429 C16.0089864,10.1367385 16.4707943,9.81570501 17.0916812,9.38458649 C18.2214613,8.59962625 19.8853176,7.44428715 22.0902553,5.91395828 C22.7533948,5.45078519 23.3074224,4.89184739 23.7526929,4.23794292 C24.1971653,3.58403845 24.42,2.89812375 24.42,2.18042048 C24.42,1.58078268 24.2039487,1.0676878 23.7727773,0.6403378 C23.3411181,0.213519826 22.8299638,0 22.2394473,0" id="Fill-7"></path>
                        </g>
                    </g>
                    <rect id="Rectangle-Copy-4" x="0" y="0" width="48" height="48" rx="24"></rect>
                </g>
            </g>
        </g>
    </g>
</svg>