<?xml version="1.0" encoding="utf-8"?>
<!-- Generator: Adobe Illustrator 25.0.1, SVG Export Plug-In . SVG Version: 6.00 Build 0)  -->
<svg version="1.1" id="圖層_1" xmlns="http://www.w3.org/2000/svg" xmlns:xlink="http://www.w3.org/1999/xlink" x="0px" y="0px"
	 viewBox="0 0 48 48" style="enable-background:new 0 0 48 48;" xml:space="preserve">
<style type="text/css">
	.st0{fill:none;stroke:#000000;stroke-opacity:0;}
	.st1{fill-rule:evenodd;clip-rule:evenodd;fill:#2D2D2D;}
</style>
<g id="Symbols">
	<g id="block_x2F_head" transform="translate(-1608.000000, -15.000000)">
		<g id="Group-2" transform="translate(1601.000000, 15.000000)">
			<g id="Group" transform="translate(7.000000, 0.000000)">
				<circle id="Oval-Copy-3" class="st0" cx="24" cy="24" r="24"/>
				<g id="Fill-1" transform="translate(11.000124, 11.000378)">
					<path class="st1" d="M15.9,23.7c0.8-1.5,1.4-3.5,1.7-5.8H23C21.6,20.8,19,22.9,15.9,23.7L15.9,23.7z M3,18h5.4
						c0.3,2.3,0.9,4.3,1.7,5.8C7,22.9,4.4,20.8,3,18L3,18z M10.1,2.3C9.3,3.7,8.7,5.8,8.4,8H3C4.4,5.2,7,3.1,10.1,2.3L10.1,2.3z
						 M23,8h-5.4c-0.3-2.3-0.9-4.3-1.7-5.8C19,3.1,21.6,5.2,23,8L23,8z M17.8,9.9h5.9c0.3,1,0.4,2,0.4,3.1c0,1.1-0.2,2.1-0.4,3.1
						h-5.9c0.1-1,0.1-2.1,0.1-3.1C18,12,17.9,10.9,17.8,9.9L17.8,9.9z M13,1.9c0.5,0,1.3,0.9,2,2.9c0.3,1,0.6,2.1,0.8,3.3h-5.5
						c0.2-1.2,0.4-2.3,0.8-3.3C11.7,2.8,12.5,1.9,13,1.9L13,1.9z M1.9,13c0-1.1,0.2-2.1,0.4-3.1h5.9C8.1,10.9,8,12,8,13
						c0,1,0,2.1,0.1,3.1H2.3C2,15.1,1.9,14.1,1.9,13L1.9,13z M10,16.1c-0.1-1-0.1-2-0.1-3.1c0-1.1,0-2.1,0.1-3.1H16
						c0.1,1,0.1,2,0.1,3.1c0,1.1,0,2.1-0.1,3.1H10z M13,24.1c-0.5,0-1.3-0.9-2-2.9c-0.3-1-0.6-2.1-0.8-3.3h5.5
						c-0.2,1.2-0.4,2.3-0.8,3.3C14.3,23.2,13.5,24.1,13,24.1L13,24.1z M25.3,17.3c0.5-1.3,0.7-2.8,0.7-4.3c0-1.5-0.3-2.9-0.7-4.3
						c0,0,0-0.1,0-0.1C23.4,3.6,18.6,0,13,0S2.6,3.6,0.8,8.6c0,0,0,0.1,0,0.1C0.3,10.1,0,11.5,0,13c0,1.5,0.3,2.9,0.7,4.3
						c0,0,0,0.1,0,0.1C2.6,22.4,7.4,26,13,26s10.4-3.6,12.2-8.6C25.3,17.4,25.3,17.3,25.3,17.3L25.3,17.3z"/>
				</g>
			</g>
		</g>
	</g>
</g>
</svg>
