<?xml version="1.0" encoding="UTF-8"?>
<svg width="20px" height="19px" viewBox="0 0 20 19" version="1.1" xmlns="http://www.w3.org/2000/svg" xmlns:xlink="http://www.w3.org/1999/xlink">
    <title>icon/tag</title>
    <g id="Page-1" stroke="none" stroke-width="1" fill="none" fill-rule="evenodd" opacity="0.5">
        <g id="3_1_spnp_catalogue" transform="translate(-486.000000, -640.000000)" fill="#56585A">
            <g id="icon/tag" transform="translate(486.000000, 639.000000)">
                <path d="M13.033593,6.33314202 C12.4264156,6.33314202 11.933634,5.84036038 11.933634,5.23318301 C11.933634,4.62600564 12.4264156,4.13322401 13.033593,4.13322401 C13.6407703,4.13322401 14.133552,4.62600564 14.133552,5.23318301 C14.133552,5.84036038 13.6407703,6.33314202 13.033593,6.33314202 M15.600164,1.2 L9.45945952,1.2 C9.07080734,1.2 8.69755458,1.35472757 8.42256483,1.62971732 L0.429529408,9.62128613 C-0.14318258,10.1939981 -0.14318258,11.1223635 0.429529408,11.6958088 L6.57023387,17.8365133 C7.14294586,18.4092253 8.07131126,18.4092253 8.64402325,17.8365133 L16.6370587,9.84494446 C16.9120484,9.56922141 17.066776,9.19596865 17.066776,8.80658316 L17.066776,2.666612 C17.066776,1.85630887 16.4104671,1.2 15.600164,1.2" id="Fill-1"></path>
                <path d="M18.533388,2.666612 L18.5326547,9.49295758 C18.5326547,9.83101165 18.3984597,10.1558662 18.1586686,10.394924 L10.0365713,18.5170212 L10.1612334,18.6416833 C10.7339454,19.2143953 11.6623108,19.2143953 12.2350227,18.6416833 L19.5695494,11.3086232 C19.8452724,11.0336335 20,10.6603807 20,10.2717286 L20,4.13322401 C20,3.32292088 19.3436911,2.666612 18.533388,2.666612" id="Fill-4"></path>
            </g>
        </g>
    </g>
</svg>