<svg width="402" height="289" viewBox="0 0 402 289" fill="none" xmlns="http://www.w3.org/2000/svg">
<path d="M120.854 208.709C109.794 207.755 98.5998 207.27 87.2917 207.27H75.25C35.3474 207.27 3 174.992 3 135.175C3 95.3576 35.3474 63.0794 75.25 63.0794H87.2917C98.5998 63.0794 109.794 62.5933 120.854 61.641M120.854 208.709C124.915 224.116 130.219 239.019 136.656 253.305C140.63 262.123 137.613 272.681 129.222 277.515L118.685 283.585C109.832 288.686 98.4599 285.463 94.17 276.204C84.1094 254.489 76.3002 231.524 71.0412 207.606M120.854 208.709C114.669 185.233 111.375 160.587 111.375 135.175C111.375 109.762 114.669 85.1165 120.854 61.641M120.854 208.709C171.583 213.076 219.501 227.252 262.694 249.324M120.854 61.641C171.583 57.2733 219.501 43.0983 262.694 21.0253M262.694 249.324C260.804 255.399 258.768 261.409 256.588 267.349M262.694 249.324C271.284 221.716 276.839 192.777 278.973 162.893M262.694 21.0253C260.804 14.951 258.768 8.94113 256.588 3M262.694 21.0253C271.284 48.6326 276.839 77.5725 278.973 107.457M278.973 107.457C286.933 114.069 292 124.032 292 135.175C292 146.317 286.933 156.281 278.973 162.893M278.973 107.457C279.626 116.611 279.958 125.854 279.958 135.175C279.958 144.496 279.626 153.738 278.973 162.893" stroke="#0F172A" stroke-width="5" stroke-linecap="round" stroke-linejoin="round"/>
<path d="M358.119 37C412.627 91.1239 412.627 178.876 358.119 233M317 77.8347C348.797 109.408 348.797 160.596 317 192.167" stroke="#0F172A" stroke-width="5" stroke-linecap="round" stroke-linejoin="round"/>
</svg>
