<svg width="244" height="315" viewBox="0 0 244 315" fill="none" xmlns="http://www.w3.org/2000/svg">
<path d="M212.631 211.796L200.402 166.156M200.402 166.156L177.817 186.184L182.933 100.956L229.977 172.208L200.402 166.156ZM185.25 37V57.25M147.066 149.433L132.747 163.752M131.25 111.25H111M147.066 73.0662L132.747 58.7473" stroke="#0F172A" stroke-width="5" stroke-linecap="round" stroke-linejoin="round"/>
<path d="M98.2 276.7H145.8M38.7 312.4H205.3C225.016 312.4 241 296.416 241 276.7V38.7C241 18.9834 225.016 3 205.3 3H38.7C18.9834 3 3 18.9834 3 38.7V276.7C3 296.416 18.9834 312.4 38.7 312.4Z" stroke="#0F172A" stroke-width="5" stroke-linecap="round" stroke-linejoin="round"/>
</svg>
