<svg width="386" height="417" viewBox="0 0 386 417" fill="none" xmlns="http://www.w3.org/2000/svg">
<path d="M129.735 133.366L126 146.438L122.265 133.366C120.304 126.501 114.937 121.134 108.071 119.172L95 115.438L108.071 111.703C114.937 109.741 120.304 104.374 122.265 97.5089L126 84.4375L129.735 97.5089C131.696 104.375 137.063 109.741 143.929 111.703L157 115.438L143.929 119.172C137.063 121.134 131.696 126.501 129.735 133.366Z" stroke="#0F172A" stroke-width="5" stroke-linecap="round" stroke-linejoin="round"/>
<path d="M269.989 392.486L264.5 414.438L259.011 392.486C252.603 366.85 232.588 346.834 206.953 340.426L185 334.938L206.953 329.449C232.588 323.041 252.603 303.025 259.011 277.389L264.5 255.438L269.989 277.389C276.397 303.025 296.412 323.041 322.047 329.449L344 334.938L322.047 340.426C296.412 346.834 276.397 366.85 269.989 392.486Z" stroke="#0F172A" stroke-width="5" stroke-linecap="round" stroke-linejoin="round"/>
<path d="M56.7415 307.711L50.5 326.437L44.2585 307.711C40.7118 297.073 32.3645 288.726 21.7261 285.179L3 278.937L21.7261 272.696C32.3645 269.149 40.7118 260.802 44.2585 250.164L50.5 231.438L56.7415 250.164C60.2882 260.802 68.6355 269.149 79.2739 272.696L98 278.937L79.2739 285.179C68.6355 288.726 60.2882 297.073 56.7415 307.711Z" stroke="#0F172A" stroke-width="5" stroke-linecap="round" stroke-linejoin="round"/>
<path d="M217.461 191.433C211.408 176.518 196.776 166 179.688 166C157.183 166 138.938 184.244 138.938 206.75C138.938 223.629 125.255 237.312 108.375 237.312C107.687 237.312 107.003 237.289 106.326 237.245C116.885 255.552 136.66 267.875 159.313 267.875C192.975 267.875 220.282 240.663 220.437 207.037C220.438 206.942 220.438 206.846 220.438 206.75C220.438 201.333 219.381 196.162 217.461 191.433ZM217.461 191.433C233.685 185.904 249.115 178.503 263.463 169.434M263.463 169.434C289.007 153.287 311.119 131.854 328.162 106.288L380.811 27.315C382.524 24.746 383.438 21.7273 383.438 18.6397C383.438 10.0021 376.436 3 367.798 3C364.711 3 361.693 3.91402 359.123 5.62675L280.149 58.2756C254.584 75.3194 233.151 97.4319 217.005 122.975M263.463 169.434C254.255 148.794 237.644 132.183 217.005 122.975M194.969 169.082C200.502 152.82 207.916 137.354 217.005 122.975" stroke="#0F172A" stroke-width="5" stroke-linecap="round" stroke-linejoin="round"/>
</svg>
