<svg width="64" height="58" viewBox="0 0 64 58" fill="none" xmlns="http://www.w3.org/2000/svg">
<path fill-rule="evenodd" clip-rule="evenodd" d="M29.6658 0L0.514648 50.0622H58.8169L29.6658 0ZM29.6658 3.96354L3.97815 48.0778H55.3534L29.6658 3.96354Z" fill="white"/>
<path d="M32.1223 32.9351C38.5916 21.8252 54.7648 21.8252 61.234 32.9351V32.9351C67.7121 44.06 59.6167 58.0001 46.6782 58.0001V58.0001C33.7396 58.0001 25.6443 44.06 32.1223 32.9351V32.9351Z" fill="#EFEFEF"/>
<path d="M33.4196 33.677C27.5149 43.8174 34.8984 56.5156 46.6782 56.5156C58.458 56.5156 65.8414 43.8174 59.9367 33.677C54.0439 23.5571 39.3125 23.5571 33.4196 33.677ZM32.5544 33.1867C38.8308 22.408 54.5255 22.408 60.8019 33.1867C67.0829 43.9732 59.2369 57.5001 46.6782 57.5001C34.1195 57.5001 26.2734 43.9732 32.5544 33.1867Z" fill="white" stroke="black"/>
</svg>
