<svg width="722" height="22" viewBox="0 0 722 22" fill="none" xmlns="http://www.w3.org/2000/svg">
<path d="M1 13.0519C3.50554 15.7931 6.53622 20.2312 10.9749 20.6401C19.6247 21.4369 28.3862 18.4745 35.2356 13.9C36.8897 12.7953 38.0335 13.1258 39.0952 11.445C39.602 10.6428 40.4223 17.8194 42.5038 18.4976C48.1201 20.3273 56.1219 20.1862 61.9524 20.5509C72.3748 21.2027 82.6698 20.1872 92.8797 18.319C95.3294 17.8708 101.204 14.5349 103.055 16.8014C109.66 24.8884 130.308 19.0845 138.694 17.5156C145.383 16.2642 151.634 14.3858 157.892 11.9806C159.043 11.5384 161.178 10.1281 160.749 11.8467C158.028 22.7512 219.853 7.97113 221.852 10.6415C224.749 14.5115 226.335 14.9274 232.278 16.2211C249.633 19.9988 268.297 17.9633 285.311 13.9893C292.261 12.3659 290.026 13.4611 292.429 17.5156C295.98 23.5084 313.955 19.9182 318.995 19.2118C333.999 17.1086 348.962 14.0762 364.158 13.2304C366.16 13.119 365.967 13.3669 367.316 14.0339C369.133 14.9331 370.467 15.5752 372.629 15.864C385.528 17.587 399.032 17.0692 412.028 17.0692C423.045 17.0692 434.136 17.081 445.11 16.0872C448.128 15.8139 453.719 13.8792 456.89 14.7481C458.558 15.2052 457.428 17.8727 459.797 17.8727C462.612 17.8727 465.791 17.0293 468.469 16.5336C479.018 14.5804 489.364 12.9499 500.148 12.427C503.594 12.2599 508.616 11.5236 511.877 13.0519C513.02 13.5875 513.256 13.8554 514.584 13.8554C525.669 13.8554 535.689 13.3332 546.363 10.6862C551.687 9.36592 554.706 8.061 558.143 11.8021C559.548 13.3313 562.542 13.0843 564.509 13.0519C575.174 12.876 585.963 11.4236 596.539 10.2844C606.795 9.17961 616.788 6.90041 626.965 5.37439C629.412 5.00746 641.492 1.96536 643.807 4.61557C646.705 7.93327 650.99 5.86714 655.135 5.0173C658.509 4.32568 676.436 0.459404 678.393 5.0173C679.1 6.66198 678.664 9.58968 681.501 8.90069C686.965 7.5737 692.097 4.21384 697.992 4.21384C701.649 4.21384 703.985 4.73506 708.168 3.58893C712.115 2.50744 716.799 1 721 1" stroke="white" stroke-linecap="round"/>
</svg>
