<svg width="40" height="40" viewBox="0 0 40 40" fill="none" xmlns="http://www.w3.org/2000/svg">
<path d="M33.75 32.5H18.0178L30.8832 19.6345L30.8839 19.6339L30.8846 19.6331L34.9998 15.5179C35.232 15.2858 35.4162 15.0102 35.5419 14.7068C35.6676 14.4035 35.7323 14.0784 35.7323 13.7501C35.7323 13.4218 35.6676 13.0967 35.542 12.7933C35.4163 12.49 35.2322 12.2144 35 11.9823L28.0177 4.99984C27.5484 4.53182 26.9127 4.26901 26.2499 4.26904C25.5871 4.26907 24.9514 4.53194 24.4821 5L5.73212 23.7501C5.48935 23.9928 5.29934 24.2831 5.17399 24.6027C5.16114 24.6339 5.1503 24.6656 5.14008 24.6976C5.04787 24.9612 5.00052 25.2384 5 25.5177V32.5C5.00076 33.1628 5.26439 33.7982 5.73307 34.2669C6.20175 34.7356 6.83719 34.9992 7.5 35H33.75C34.0815 35 34.3995 34.8683 34.6339 34.6339C34.8683 34.3995 35 34.0815 35 33.75C35 33.4185 34.8683 33.1005 34.6339 32.8661C34.3995 32.6317 34.0815 32.5 33.75 32.5ZM26.25 6.76773L33.2321 13.75L30 16.9821L23.0178 10L26.25 6.76773Z" fill="white"/>
</svg>
