<svg width="100" height="100" viewBox="0 0 100 100" fill="none" xmlns="http://www.w3.org/2000/svg">
<g clip-path="url(#clip0_1912_23071)">
<path d="M75.0004 51.9068L50.0004 76.6668L25.0004 51.9068C23.3514 50.3021 22.0525 48.3735 21.1855 46.2422C20.3185 44.111 19.9022 41.8233 19.9628 39.5232C20.0234 37.2232 20.5596 34.9606 21.5375 32.8779C22.5155 30.7952 23.9141 28.9376 25.6453 27.422C27.3765 25.9065 29.4027 24.7657 31.5964 24.0717C33.7901 23.3777 36.1037 23.1454 38.3916 23.3894C40.6795 23.6335 42.892 24.3486 44.8899 25.4898C46.8879 26.631 48.6278 28.1734 50.0004 30.0201C51.3788 28.1868 53.1208 26.6578 55.1174 25.5288C57.1139 24.3997 59.322 23.6949 61.6035 23.4585C63.8849 23.2221 66.1906 23.4591 68.3763 24.1547C70.5619 24.8504 72.5804 25.9897 74.3055 27.5013C76.0306 29.0129 77.4251 30.8644 78.4018 32.9397C79.3784 35.0151 79.9162 37.2697 79.9814 39.5625C80.0466 41.8552 79.6379 44.1367 78.7808 46.2643C77.9237 48.3918 76.6367 50.3195 75.0004 51.9268" stroke="white" stroke-width="5" stroke-linecap="round" stroke-linejoin="round"/>
<path d="M49.9995 30L39.0228 40.9767C38.3979 41.6018 38.0469 42.4495 38.0469 43.3333C38.0469 44.2172 38.3979 45.0649 39.0228 45.69L40.8328 47.5C43.1328 49.8 46.8662 49.8 49.1662 47.5L52.4995 44.1667C54.4886 42.1776 57.1865 41.0601 59.9995 41.0601C62.8125 41.0601 65.5104 42.1776 67.4995 44.1667L74.9995 51.6667" stroke="white" stroke-width="5" stroke-linecap="round" stroke-linejoin="round"/>
<path d="M51.667 61.6667L58.3337 68.3334" stroke="white" stroke-width="5" stroke-linecap="round" stroke-linejoin="round"/>
<path d="M60 53.3333L66.6667 59.9999" stroke="white" stroke-width="5" stroke-linecap="round" stroke-linejoin="round"/>
</g>
<defs>
<clipPath id="clip0_1912_23071">
<rect width="80" height="80" fill="white" transform="translate(10 10)"/>
</clipPath>
</defs>
</svg>
