<svg width="100" height="100" viewBox="0 0 100 100" fill="none" xmlns="http://www.w3.org/2000/svg">
<g clip-path="url(#clip0_1912_23078)">
<path d="M20 80H80" stroke="white" stroke-width="5" stroke-linecap="round" stroke-linejoin="round"/>
<path d="M26.667 80V26.6667C26.667 24.8986 27.3694 23.2029 28.6196 21.9526C29.8699 20.7024 31.5655 20 33.3337 20H66.667C68.4351 20 70.1308 20.7024 71.381 21.9526C72.6313 23.2029 73.3337 24.8986 73.3337 26.6667V80" stroke="white" stroke-width="5" stroke-linecap="round" stroke-linejoin="round"/>
<path d="M40 80V66.6667C40 64.8986 40.7024 63.2029 41.9526 61.9526C43.2029 60.7024 44.8986 60 46.6667 60H53.3333C55.1014 60 56.7971 60.7024 58.0474 61.9526C59.2976 63.2029 60 64.8986 60 66.6667V80" stroke="white" stroke-width="5" stroke-linecap="round" stroke-linejoin="round"/>
<path d="M43.333 40H56.6663" stroke="white" stroke-width="5" stroke-linecap="round" stroke-linejoin="round"/>
<path d="M50 33.3333V46.6666" stroke="white" stroke-width="5" stroke-linecap="round" stroke-linejoin="round"/>
</g>
<defs>
<clipPath id="clip0_1912_23078">
<rect width="80" height="80" fill="white" transform="translate(10 10)"/>
</clipPath>
</defs>
</svg>
