<svg width="100" height="100" viewBox="0 0 100 100" fill="none" xmlns="http://www.w3.org/2000/svg">
<g clip-path="url(#clip0_1912_23041)">
<path d="M20 26.6666C20 25.7825 20.3512 24.9347 20.9763 24.3096C21.6014 23.6844 22.4493 23.3333 23.3333 23.3333H76.6667C77.5507 23.3333 78.3986 23.6844 79.0237 24.3096C79.6488 24.9347 80 25.7825 80 26.6666V59.9999C80 60.884 79.6488 61.7318 79.0237 62.3569C78.3986 62.9821 77.5507 63.3333 76.6667 63.3333H23.3333C22.4493 63.3333 21.6014 62.9821 20.9763 62.3569C20.3512 61.7318 20 60.884 20 59.9999V26.6666Z" stroke="white" stroke-width="5" stroke-linecap="round" stroke-linejoin="round"/>
<path d="M33.333 76.6667H66.6663" stroke="white" stroke-width="5" stroke-linecap="round" stroke-linejoin="round"/>
<path d="M40 63.3333V76.6666" stroke="white" stroke-width="5" stroke-linecap="round" stroke-linejoin="round"/>
<path d="M60 63.3333V76.6666" stroke="white" stroke-width="5" stroke-linecap="round" stroke-linejoin="round"/>
</g>
<defs>
<clipPath id="clip0_1912_23041">
<rect width="80" height="80" fill="white" transform="translate(10 10)"/>
</clipPath>
</defs>
</svg>
