<?xml version="1.0" encoding="utf-8"?>
<!-- Generator: Adobe Illustrator 25.0.1, SVG Export Plug-In . SVG Version: 6.00 Build 0)  -->
<svg version="1.1" id="圖層_1" xmlns="http://www.w3.org/2000/svg" xmlns:xlink="http://www.w3.org/1999/xlink" x="0px" y="0px"
	 viewBox="0 0 800 300" style="enable-background:new 0 0 800 300;" xml:space="preserve">
<style type="text/css">
	.st0{fill:#EC8225;}
	.st1{fill:#CCCCCC;}
	.st2{fill:#E6E6E6;}
	.st3{fill:#808080;}
	.st4{fill:#FBB03B;}
	.st5{fill:#A87628;}
	.st6{fill:#1A1A1A;}
	.st7{fill:#4D4D4D;}
	.st8{fill:#CC8F30;}
	.st9{fill:#FFD27D;}
	.st10{fill:#FCA51A;}
	.st11{fill:#333333;}
	.st12{fill:#666666;}
	.st13{fill:#404040;}
	.st14{fill:#B3B3B3;}
	.st15{fill:#595959;}
	.st16{fill:#262626;}
	.st17{fill:#FAFAFA;}
	.st18{fill:#F5F5F5;}
	.st19{fill:#999999;}
	.st20{fill:#BF6C0A;}
	.st21{fill:#D97B0B;}
	.st22{fill:#F29F3C;}
	.st23{fill:#FFAF4D;}
	.st24{fill:#DEDEDB;}
	.st25{fill:#BF0A0A;}
	.st26{fill:#088F30;}
	.st27{fill:#9D3011;}
	.st28{fill:#D83D12;}
	.st29{fill:#F1A08A;}
	.st30{fill:#B53512;}
	.st31{fill:#CC3A12;}
	.st32{fill:#E44013;}
	.st33{fill:#F2F2F2;}
	.st34{fill:#FFFFFF;}
	.st35{fill:#CCCCC9;}
	.st36{fill:#B7CCD6;}
	.st37{fill:#343F45;}
	.st38{fill:#D1E1E8;}
	.st39{fill:#6A7D8A;}
</style>
<g>
	<g>
		<path class="st0" d="M164.13,213.5l-15.78,4.14l7.27,27.74L117.4,255.4l-7.27-27.74l-57.14,14.98l-7.45-28.42l36.75-102.76
			l35.78-9.38l22.72,86.65l15.78-4.14L164.13,213.5z M102.54,198.75l-4.37-16.66c-0.82-3.14-1.82-7.4-2.98-12.78
			c-1.17-5.38-1.72-8.23-1.66-8.52l-1.08,0.28c-0.9,5.61-2.19,10.98-3.85,16.09l-9.69,27.78L102.54,198.75z"/>
		<path class="st0" d="M266.27,140c6.65,25.35,7.27,45.04,1.87,59.06c-5.4,14.02-16.86,23.33-34.37,27.92
			c-17.12,4.49-31.64,1.71-43.56-8.33c-11.92-10.04-21.07-27.21-27.44-51.52c-6.68-25.48-7.33-45.29-1.96-59.41
			c5.38-14.12,16.82-23.47,34.33-28.07c17.05-4.47,31.57-1.66,43.54,8.44C250.65,98.2,259.85,115.5,266.27,140z M201.29,157.04
			c4.25,16.21,8.18,27.08,11.8,32.63c3.62,5.55,7.81,7.69,12.58,6.44c4.84-1.27,7.43-5.3,7.78-12.09c0.35-6.8-1.55-18.1-5.7-33.91
			c-4.16-15.88-8.09-26.74-11.79-32.58c-3.7-5.84-7.93-8.13-12.7-6.88c-4.77,1.25-7.36,5.21-7.78,11.89
			C195.07,129.2,197,140.71,201.29,157.04z"/>
		<path class="st0" d="M399.37,151.83l-15.78,4.14l7.27,27.74l-38.23,10.02l-7.27-27.74l-57.14,14.98l-7.45-28.42l36.75-102.76
			l35.78-9.38l22.72,86.65l15.78-4.14L399.37,151.83z M337.78,137.07l-4.37-16.66c-0.82-3.14-1.82-7.4-2.98-12.78
			c-1.17-5.38-1.72-8.23-1.66-8.52l-1.08,0.28c-0.9,5.61-2.19,10.98-3.85,16.09l-9.69,27.78L337.78,137.07z"/>
	</g>
	<path class="st1" d="M283.9,255.69c-8.4,1.64,92.82,3.05,226.09,3.15s248.12-1.14,256.52-2.78c8.4-1.64-92.82-3.05-226.09-3.15
		C407.15,252.81,292.3,254.05,283.9,255.69z"/>
	<path class="st1" d="M32.29,255.69c-3.23,1.64,35.63,3.05,86.78,3.15s95.23-1.14,98.46-2.78c3.23-1.64-35.63-3.05-86.78-3.15
		C79.6,252.81,35.52,254.05,32.29,255.69z"/>
	<g id="Exhaust">
		<rect x="463.8" y="224.04" class="st2" width="55.85" height="6.14"/>
		<path class="st2" d="M541.53,223.94c-0.21-0.11-3.14-1.62-3.34-1.73c0,0-0.81,1.57-0.81,1.57c-0.49,0.96-1.52,1.59-2.58,1.58
			c-14.64,0-61.71,0-76.35,0c-0.01,0-0.01,0-0.02,0c-1.83,0-3.67,0.52-5.23,1.47c-1.57,0.95-2.86,2.34-3.7,3.97
			c0,0,0,0.01-0.01,0.01c-0.66,1.27-1.84,3.57-2.04,3.96c0.29,0.15,3.05,1.57,3.34,1.72c0,0,1.41-2.73,2.04-3.96
			c1.04-2.07,3.29-3.45,5.6-3.42c14.65,0,61.72,0,76.35,0c0.01,0,0.01,0,0.02,0c2.44,0.02,4.81-1.42,5.91-3.6
			c0,0,0.01-0.01,0.01-0.01C540.72,225.51,541.53,223.94,541.53,223.94z"/>
		<path class="st3" d="M539.86,223.08l-0.81,1.57c-0.82,1.56-2.5,2.64-4.25,2.59c-14.64,0.59-61.72,0.24-76.35,0
			c-3.04,0.08-5.89,1.73-7.28,4.43c-0.01,0.01-2.05,3.98-2.05,3.98c0.76,0.39,1.52,0.79,1.67,0.86c0,0,1.41-2.73,2.04-3.96
			c1.04-2.07,3.29-3.45,5.6-3.42c0.01,0,76.35,0,76.35,0c0.01,0,0.01,0,0.02,0c2.44,0.02,4.81-1.42,5.91-3.6
			c0,0,0.01-0.01,0.01-0.01c0,0,0.81-1.57,0.81-1.57C541.42,223.89,540.64,223.48,539.86,223.08z"/>
		<rect x="463.8" y="227.11" class="st3" width="55.85" height="3.07"/>
		<path d="M476.6,225.76c-0.16,0-0.29,0.13-0.29,0.29c0,0.16,0.13,0.29,0.29,0.29c0.16,0,0.29-0.13,0.29-0.29
			C476.89,225.89,476.76,225.76,476.6,225.76z M476.6,226.88c-0.16,0-0.29,0.13-0.29,0.29c0,0.16,0.13,0.29,0.29,0.29
			c0.16,0,0.29-0.13,0.29-0.29C476.89,227.01,476.76,226.88,476.6,226.88z M476.6,228.01c-0.16,0-0.29,0.13-0.29,0.29
			s0.13,0.29,0.29,0.29c0.16,0,0.29-0.13,0.29-0.29S476.76,228.01,476.6,228.01z M476.6,229.14c-0.16,0-0.29,0.13-0.29,0.29
			s0.13,0.29,0.29,0.29c0.16,0,0.29-0.13,0.29-0.29S476.76,229.14,476.6,229.14z M474.98,225.76c-0.16,0-0.29,0.13-0.29,0.29
			c0,0.16,0.13,0.29,0.29,0.29c0.16,0,0.29-0.13,0.29-0.29C475.27,225.89,475.14,225.76,474.98,225.76z M474.98,226.88
			c-0.16,0-0.29,0.13-0.29,0.29c0,0.16,0.13,0.29,0.29,0.29c0.16,0,0.29-0.13,0.29-0.29C475.27,227.01,475.14,226.88,474.98,226.88z
			 M474.98,228.01c-0.16,0-0.29,0.13-0.29,0.29s0.13,0.29,0.29,0.29c0.16,0,0.29-0.13,0.29-0.29S475.14,228.01,474.98,228.01z
			 M474.98,229.14c-0.16,0-0.29,0.13-0.29,0.29s0.13,0.29,0.29,0.29c0.16,0,0.29-0.13,0.29-0.29S475.14,229.14,474.98,229.14z
			 M473.35,225.76c-0.16,0-0.29,0.13-0.29,0.29c0,0.16,0.13,0.29,0.29,0.29c0.16,0,0.29-0.13,0.29-0.29
			C473.65,225.89,473.52,225.76,473.35,225.76z M473.35,226.88c-0.16,0-0.29,0.13-0.29,0.29c0,0.16,0.13,0.29,0.29,0.29
			c0.16,0,0.29-0.13,0.29-0.29C473.65,227.01,473.52,226.88,473.35,226.88z M473.35,228.01c-0.16,0-0.29,0.13-0.29,0.29
			s0.13,0.29,0.29,0.29c0.16,0,0.29-0.13,0.29-0.29S473.52,228.01,473.35,228.01z M473.35,229.14c-0.16,0-0.29,0.13-0.29,0.29
			s0.13,0.29,0.29,0.29c0.16,0,0.29-0.13,0.29-0.29S473.52,229.14,473.35,229.14z M471.73,225.76c-0.16,0-0.29,0.13-0.29,0.29
			c0,0.16,0.13,0.29,0.29,0.29c0.16,0,0.29-0.13,0.29-0.29C472.02,225.89,471.89,225.76,471.73,225.76z M471.73,226.88
			c-0.16,0-0.29,0.13-0.29,0.29c0,0.16,0.13,0.29,0.29,0.29c0.16,0,0.29-0.13,0.29-0.29C472.02,227.01,471.89,226.88,471.73,226.88z
			 M471.73,228.01c-0.16,0-0.29,0.13-0.29,0.29s0.13,0.29,0.29,0.29c0.16,0,0.29-0.13,0.29-0.29S471.89,228.01,471.73,228.01z
			 M471.73,229.14c-0.16,0-0.29,0.13-0.29,0.29s0.13,0.29,0.29,0.29c0.16,0,0.29-0.13,0.29-0.29S471.89,229.14,471.73,229.14z
			 M470.11,225.76c-0.16,0-0.29,0.13-0.29,0.29c0,0.16,0.13,0.29,0.29,0.29c0.16,0,0.29-0.13,0.29-0.29
			C470.4,225.89,470.27,225.76,470.11,225.76z M470.11,226.88c-0.16,0-0.29,0.13-0.29,0.29c0,0.16,0.13,0.29,0.29,0.29
			c0.16,0,0.29-0.13,0.29-0.29C470.4,227.01,470.27,226.88,470.11,226.88z M470.11,228.01c-0.16,0-0.29,0.13-0.29,0.29
			s0.13,0.29,0.29,0.29c0.16,0,0.29-0.13,0.29-0.29S470.27,228.01,470.11,228.01z M470.11,229.14c-0.16,0-0.29,0.13-0.29,0.29
			s0.13,0.29,0.29,0.29c0.16,0,0.29-0.13,0.29-0.29S470.27,229.14,470.11,229.14z M468.49,225.76c-0.16,0-0.29,0.13-0.29,0.29
			c0,0.16,0.13,0.29,0.29,0.29c0.16,0,0.29-0.13,0.29-0.29C468.78,225.89,468.65,225.76,468.49,225.76z M468.49,226.88
			c-0.16,0-0.29,0.13-0.29,0.29c0,0.16,0.13,0.29,0.29,0.29c0.16,0,0.29-0.13,0.29-0.29C468.78,227.01,468.65,226.88,468.49,226.88z
			 M468.49,228.01c-0.16,0-0.29,0.13-0.29,0.29s0.13,0.29,0.29,0.29c0.16,0,0.29-0.13,0.29-0.29S468.65,228.01,468.49,228.01z
			 M468.49,229.14c-0.16,0-0.29,0.13-0.29,0.29s0.13,0.29,0.29,0.29c0.16,0,0.29-0.13,0.29-0.29S468.65,229.14,468.49,229.14z
			 M466.87,225.76c-0.16,0-0.29,0.13-0.29,0.29c0,0.16,0.13,0.29,0.29,0.29c0.16,0,0.29-0.13,0.29-0.29
			C467.16,225.89,467.03,225.76,466.87,225.76z M466.87,226.88c-0.16,0-0.29,0.13-0.29,0.29c0,0.16,0.13,0.29,0.29,0.29
			c0.16,0,0.29-0.13,0.29-0.29C467.16,227.01,467.03,226.88,466.87,226.88z M466.87,228.01c-0.16,0-0.29,0.13-0.29,0.29
			s0.13,0.29,0.29,0.29c0.16,0,0.29-0.13,0.29-0.29S467.03,228.01,466.87,228.01z M466.87,229.14c-0.16,0-0.29,0.13-0.29,0.29
			s0.13,0.29,0.29,0.29c0.16,0,0.29-0.13,0.29-0.29S467.03,229.14,466.87,229.14z M465.24,225.76c-0.16,0-0.29,0.13-0.29,0.29
			c0,0.16,0.13,0.29,0.29,0.29c0.16,0,0.29-0.13,0.29-0.29C465.54,225.89,465.41,225.76,465.24,225.76z M465.24,226.88
			c-0.16,0-0.29,0.13-0.29,0.29c0,0.16,0.13,0.29,0.29,0.29c0.16,0,0.29-0.13,0.29-0.29C465.54,227.01,465.41,226.88,465.24,226.88z
			 M465.24,228.01c-0.16,0-0.29,0.13-0.29,0.29s0.13,0.29,0.29,0.29c0.16,0,0.29-0.13,0.29-0.29S465.41,228.01,465.24,228.01z
			 M465.24,229.14c-0.16,0-0.29,0.13-0.29,0.29s0.13,0.29,0.29,0.29c0.16,0,0.29-0.13,0.29-0.29S465.41,229.14,465.24,229.14z
			 M478.41,225.76c-0.16,0-0.29,0.13-0.29,0.29c0,0.16,0.13,0.29,0.29,0.29c0.16,0,0.29-0.13,0.29-0.29
			C478.7,225.89,478.57,225.76,478.41,225.76z M478.41,226.88c-0.16,0-0.29,0.13-0.29,0.29c0,0.16,0.13,0.29,0.29,0.29
			c0.16,0,0.29-0.13,0.29-0.29C478.7,227.01,478.57,226.88,478.41,226.88z M478.41,228.01c-0.16,0-0.29,0.13-0.29,0.29
			s0.13,0.29,0.29,0.29c0.16,0,0.29-0.13,0.29-0.29S478.57,228.01,478.41,228.01z M478.41,229.14c-0.16,0-0.29,0.13-0.29,0.29
			s0.13,0.29,0.29,0.29c0.16,0,0.29-0.13,0.29-0.29S478.57,229.14,478.41,229.14z M480.22,225.76c-0.16,0-0.29,0.13-0.29,0.29
			c0,0.16,0.13,0.29,0.29,0.29c0.16,0,0.29-0.13,0.29-0.29C480.51,225.89,480.38,225.76,480.22,225.76z M480.22,226.88
			c-0.16,0-0.29,0.13-0.29,0.29c0,0.16,0.13,0.29,0.29,0.29c0.16,0,0.29-0.13,0.29-0.29C480.51,227.01,480.38,226.88,480.22,226.88z
			 M480.22,228.01c-0.16,0-0.29,0.13-0.29,0.29s0.13,0.29,0.29,0.29c0.16,0,0.29-0.13,0.29-0.29S480.38,228.01,480.22,228.01z
			 M480.22,229.14c-0.16,0-0.29,0.13-0.29,0.29s0.13,0.29,0.29,0.29c0.16,0,0.29-0.13,0.29-0.29S480.38,229.14,480.22,229.14z
			 M482.03,225.76c-0.16,0-0.29,0.13-0.29,0.29c0,0.16,0.13,0.29,0.29,0.29c0.16,0,0.29-0.13,0.29-0.29
			C482.32,225.89,482.19,225.76,482.03,225.76z M482.03,226.88c-0.16,0-0.29,0.13-0.29,0.29c0,0.16,0.13,0.29,0.29,0.29
			c0.16,0,0.29-0.13,0.29-0.29C482.32,227.01,482.19,226.88,482.03,226.88z M482.03,228.01c-0.16,0-0.29,0.13-0.29,0.29
			s0.13,0.29,0.29,0.29c0.16,0,0.29-0.13,0.29-0.29S482.19,228.01,482.03,228.01z M482.03,229.14c-0.16,0-0.29,0.13-0.29,0.29
			s0.13,0.29,0.29,0.29c0.16,0,0.29-0.13,0.29-0.29S482.19,229.14,482.03,229.14z M483.84,225.76c-0.16,0-0.29,0.13-0.29,0.29
			c0,0.16,0.13,0.29,0.29,0.29s0.29-0.13,0.29-0.29C484.13,225.89,484,225.76,483.84,225.76z M483.84,226.88
			c-0.16,0-0.29,0.13-0.29,0.29c0,0.16,0.13,0.29,0.29,0.29s0.29-0.13,0.29-0.29C484.13,227.01,484,226.88,483.84,226.88z
			 M483.84,228.01c-0.16,0-0.29,0.13-0.29,0.29s0.13,0.29,0.29,0.29s0.29-0.13,0.29-0.29S484,228.01,483.84,228.01z M483.84,229.14
			c-0.16,0-0.29,0.13-0.29,0.29s0.13,0.29,0.29,0.29s0.29-0.13,0.29-0.29S484,229.14,483.84,229.14z M485.65,225.76
			c-0.16,0-0.29,0.13-0.29,0.29c0,0.16,0.13,0.29,0.29,0.29c0.16,0,0.29-0.13,0.29-0.29C485.94,225.89,485.81,225.76,485.65,225.76z
			 M485.65,226.88c-0.16,0-0.29,0.13-0.29,0.29c0,0.16,0.13,0.29,0.29,0.29c0.16,0,0.29-0.13,0.29-0.29
			C485.94,227.01,485.81,226.88,485.65,226.88z M485.65,228.01c-0.16,0-0.29,0.13-0.29,0.29s0.13,0.29,0.29,0.29
			c0.16,0,0.29-0.13,0.29-0.29S485.81,228.01,485.65,228.01z M485.65,229.14c-0.16,0-0.29,0.13-0.29,0.29s0.13,0.29,0.29,0.29
			c0.16,0,0.29-0.13,0.29-0.29S485.81,229.14,485.65,229.14z M487.46,225.76c-0.16,0-0.29,0.13-0.29,0.29
			c0,0.16,0.13,0.29,0.29,0.29c0.16,0,0.29-0.13,0.29-0.29C487.75,225.89,487.62,225.76,487.46,225.76z M487.46,226.88
			c-0.16,0-0.29,0.13-0.29,0.29c0,0.16,0.13,0.29,0.29,0.29c0.16,0,0.29-0.13,0.29-0.29C487.75,227.01,487.62,226.88,487.46,226.88z
			 M487.46,228.01c-0.16,0-0.29,0.13-0.29,0.29s0.13,0.29,0.29,0.29c0.16,0,0.29-0.13,0.29-0.29S487.62,228.01,487.46,228.01z
			 M487.46,229.14c-0.16,0-0.29,0.13-0.29,0.29s0.13,0.29,0.29,0.29c0.16,0,0.29-0.13,0.29-0.29S487.62,229.14,487.46,229.14z
			 M489.26,225.76c-0.16,0-0.29,0.13-0.29,0.29c0,0.16,0.13,0.29,0.29,0.29c0.16,0,0.29-0.13,0.29-0.29
			C489.56,225.89,489.43,225.76,489.26,225.76z M489.26,226.88c-0.16,0-0.29,0.13-0.29,0.29c0,0.16,0.13,0.29,0.29,0.29
			c0.16,0,0.29-0.13,0.29-0.29C489.56,227.01,489.43,226.88,489.26,226.88z M489.26,228.01c-0.16,0-0.29,0.13-0.29,0.29
			s0.13,0.29,0.29,0.29c0.16,0,0.29-0.13,0.29-0.29S489.43,228.01,489.26,228.01z M489.26,229.14c-0.16,0-0.29,0.13-0.29,0.29
			s0.13,0.29,0.29,0.29c0.16,0,0.29-0.13,0.29-0.29S489.43,229.14,489.26,229.14z M491.07,225.76c-0.16,0-0.29,0.13-0.29,0.29
			c0,0.16,0.13,0.29,0.29,0.29c0.16,0,0.29-0.13,0.29-0.29C491.37,225.89,491.24,225.76,491.07,225.76z M491.07,226.88
			c-0.16,0-0.29,0.13-0.29,0.29c0,0.16,0.13,0.29,0.29,0.29c0.16,0,0.29-0.13,0.29-0.29C491.37,227.01,491.24,226.88,491.07,226.88z
			 M491.07,228.01c-0.16,0-0.29,0.13-0.29,0.29s0.13,0.29,0.29,0.29c0.16,0,0.29-0.13,0.29-0.29S491.24,228.01,491.07,228.01z
			 M491.07,229.14c-0.16,0-0.29,0.13-0.29,0.29s0.13,0.29,0.29,0.29c0.16,0,0.29-0.13,0.29-0.29S491.24,229.14,491.07,229.14z
			 M492.88,225.76c-0.16,0-0.29,0.13-0.29,0.29c0,0.16,0.13,0.29,0.29,0.29c0.16,0,0.29-0.13,0.29-0.29
			C493.18,225.89,493.05,225.76,492.88,225.76z M492.88,226.88c-0.16,0-0.29,0.13-0.29,0.29c0,0.16,0.13,0.29,0.29,0.29
			c0.16,0,0.29-0.13,0.29-0.29C493.18,227.01,493.05,226.88,492.88,226.88z M492.88,228.01c-0.16,0-0.29,0.13-0.29,0.29
			s0.13,0.29,0.29,0.29c0.16,0,0.29-0.13,0.29-0.29S493.05,228.01,492.88,228.01z M492.88,229.14c-0.16,0-0.29,0.13-0.29,0.29
			s0.13,0.29,0.29,0.29c0.16,0,0.29-0.13,0.29-0.29S493.05,229.14,492.88,229.14z M494.69,225.76c-0.16,0-0.29,0.13-0.29,0.29
			c0,0.16,0.13,0.29,0.29,0.29c0.16,0,0.29-0.13,0.29-0.29C494.99,225.89,494.85,225.76,494.69,225.76z M494.69,226.88
			c-0.16,0-0.29,0.13-0.29,0.29c0,0.16,0.13,0.29,0.29,0.29c0.16,0,0.29-0.13,0.29-0.29C494.99,227.01,494.85,226.88,494.69,226.88z
			 M494.69,228.01c-0.16,0-0.29,0.13-0.29,0.29s0.13,0.29,0.29,0.29c0.16,0,0.29-0.13,0.29-0.29S494.85,228.01,494.69,228.01z
			 M494.69,229.14c-0.16,0-0.29,0.13-0.29,0.29s0.13,0.29,0.29,0.29c0.16,0,0.29-0.13,0.29-0.29S494.85,229.14,494.69,229.14z
			 M496.5,225.76c-0.16,0-0.29,0.13-0.29,0.29c0,0.16,0.13,0.29,0.29,0.29c0.16,0,0.29-0.13,0.29-0.29
			C496.8,225.89,496.66,225.76,496.5,225.76z M496.5,226.88c-0.16,0-0.29,0.13-0.29,0.29c0,0.16,0.13,0.29,0.29,0.29
			c0.16,0,0.29-0.13,0.29-0.29C496.8,227.01,496.66,226.88,496.5,226.88z M496.5,228.01c-0.16,0-0.29,0.13-0.29,0.29
			s0.13,0.29,0.29,0.29c0.16,0,0.29-0.13,0.29-0.29S496.66,228.01,496.5,228.01z M496.5,229.14c-0.16,0-0.29,0.13-0.29,0.29
			s0.13,0.29,0.29,0.29c0.16,0,0.29-0.13,0.29-0.29S496.66,229.14,496.5,229.14z M498.31,225.76c-0.16,0-0.29,0.13-0.29,0.29
			c0,0.16,0.13,0.29,0.29,0.29s0.29-0.13,0.29-0.29C498.6,225.89,498.47,225.76,498.31,225.76z M498.31,226.88
			c-0.16,0-0.29,0.13-0.29,0.29c0,0.16,0.13,0.29,0.29,0.29s0.29-0.13,0.29-0.29C498.6,227.01,498.47,226.88,498.31,226.88z
			 M498.31,228.01c-0.16,0-0.29,0.13-0.29,0.29s0.13,0.29,0.29,0.29s0.29-0.13,0.29-0.29S498.47,228.01,498.31,228.01z
			 M498.31,229.14c-0.16,0-0.29,0.13-0.29,0.29s0.13,0.29,0.29,0.29s0.29-0.13,0.29-0.29S498.47,229.14,498.31,229.14z
			 M500.12,225.76c-0.16,0-0.29,0.13-0.29,0.29c0,0.16,0.13,0.29,0.29,0.29c0.16,0,0.29-0.13,0.29-0.29
			C500.41,225.89,500.28,225.76,500.12,225.76z M500.12,226.88c-0.16,0-0.29,0.13-0.29,0.29c0,0.16,0.13,0.29,0.29,0.29
			c0.16,0,0.29-0.13,0.29-0.29C500.41,227.01,500.28,226.88,500.12,226.88z M500.12,228.01c-0.16,0-0.29,0.13-0.29,0.29
			s0.13,0.29,0.29,0.29c0.16,0,0.29-0.13,0.29-0.29S500.28,228.01,500.12,228.01z M500.12,229.14c-0.16,0-0.29,0.13-0.29,0.29
			s0.13,0.29,0.29,0.29c0.16,0,0.29-0.13,0.29-0.29S500.28,229.14,500.12,229.14z M501.93,225.76c-0.16,0-0.29,0.13-0.29,0.29
			c0,0.16,0.13,0.29,0.29,0.29c0.16,0,0.29-0.13,0.29-0.29C502.22,225.89,502.09,225.76,501.93,225.76z M501.93,226.88
			c-0.16,0-0.29,0.13-0.29,0.29c0,0.16,0.13,0.29,0.29,0.29c0.16,0,0.29-0.13,0.29-0.29C502.22,227.01,502.09,226.88,501.93,226.88z
			 M501.93,228.01c-0.16,0-0.29,0.13-0.29,0.29s0.13,0.29,0.29,0.29c0.16,0,0.29-0.13,0.29-0.29S502.09,228.01,501.93,228.01z
			 M501.93,229.14c-0.16,0-0.29,0.13-0.29,0.29s0.13,0.29,0.29,0.29c0.16,0,0.29-0.13,0.29-0.29S502.09,229.14,501.93,229.14z
			 M503.74,225.76c-0.16,0-0.29,0.13-0.29,0.29c0,0.16,0.13,0.29,0.29,0.29s0.29-0.13,0.29-0.29
			C504.03,225.89,503.9,225.76,503.74,225.76z M503.74,226.88c-0.16,0-0.29,0.13-0.29,0.29c0,0.16,0.13,0.29,0.29,0.29
			s0.29-0.13,0.29-0.29C504.03,227.01,503.9,226.88,503.74,226.88z M503.74,228.01c-0.16,0-0.29,0.13-0.29,0.29s0.13,0.29,0.29,0.29
			s0.29-0.13,0.29-0.29S503.9,228.01,503.74,228.01z M503.74,229.14c-0.16,0-0.29,0.13-0.29,0.29s0.13,0.29,0.29,0.29
			s0.29-0.13,0.29-0.29S503.9,229.14,503.74,229.14z M505.55,225.76c-0.16,0-0.29,0.13-0.29,0.29c0,0.16,0.13,0.29,0.29,0.29
			s0.29-0.13,0.29-0.29C505.84,225.89,505.71,225.76,505.55,225.76z M505.55,226.88c-0.16,0-0.29,0.13-0.29,0.29
			c0,0.16,0.13,0.29,0.29,0.29s0.29-0.13,0.29-0.29C505.84,227.01,505.71,226.88,505.55,226.88z M505.55,228.01
			c-0.16,0-0.29,0.13-0.29,0.29s0.13,0.29,0.29,0.29s0.29-0.13,0.29-0.29S505.71,228.01,505.55,228.01z M505.55,229.14
			c-0.16,0-0.29,0.13-0.29,0.29s0.13,0.29,0.29,0.29s0.29-0.13,0.29-0.29S505.71,229.14,505.55,229.14z M507.36,225.76
			c-0.16,0-0.29,0.13-0.29,0.29c0,0.16,0.13,0.29,0.29,0.29c0.16,0,0.29-0.13,0.29-0.29C507.65,225.89,507.52,225.76,507.36,225.76z
			 M507.36,226.88c-0.16,0-0.29,0.13-0.29,0.29c0,0.16,0.13,0.29,0.29,0.29c0.16,0,0.29-0.13,0.29-0.29
			C507.65,227.01,507.52,226.88,507.36,226.88z M507.36,228.01c-0.16,0-0.29,0.13-0.29,0.29s0.13,0.29,0.29,0.29
			c0.16,0,0.29-0.13,0.29-0.29S507.52,228.01,507.36,228.01z M507.36,229.14c-0.16,0-0.29,0.13-0.29,0.29s0.13,0.29,0.29,0.29
			c0.16,0,0.29-0.13,0.29-0.29S507.52,229.14,507.36,229.14z M509.17,225.76c-0.16,0-0.29,0.13-0.29,0.29
			c0,0.16,0.13,0.29,0.29,0.29c0.16,0,0.29-0.13,0.29-0.29C509.46,225.89,509.33,225.76,509.17,225.76z M509.17,226.88
			c-0.16,0-0.29,0.13-0.29,0.29c0,0.16,0.13,0.29,0.29,0.29c0.16,0,0.29-0.13,0.29-0.29C509.46,227.01,509.33,226.88,509.17,226.88z
			 M509.17,228.01c-0.16,0-0.29,0.13-0.29,0.29s0.13,0.29,0.29,0.29c0.16,0,0.29-0.13,0.29-0.29S509.33,228.01,509.17,228.01z
			 M509.17,229.14c-0.16,0-0.29,0.13-0.29,0.29s0.13,0.29,0.29,0.29c0.16,0,0.29-0.13,0.29-0.29S509.33,229.14,509.17,229.14z
			 M510.98,225.76c-0.16,0-0.29,0.13-0.29,0.29c0,0.16,0.13,0.29,0.29,0.29c0.16,0,0.29-0.13,0.29-0.29
			C511.27,225.89,511.14,225.76,510.98,225.76z M510.98,226.88c-0.16,0-0.29,0.13-0.29,0.29c0,0.16,0.13,0.29,0.29,0.29
			c0.16,0,0.29-0.13,0.29-0.29C511.27,227.01,511.14,226.88,510.98,226.88z M510.98,228.01c-0.16,0-0.29,0.13-0.29,0.29
			s0.13,0.29,0.29,0.29c0.16,0,0.29-0.13,0.29-0.29S511.14,228.01,510.98,228.01z M510.98,229.14c-0.16,0-0.29,0.13-0.29,0.29
			s0.13,0.29,0.29,0.29c0.16,0,0.29-0.13,0.29-0.29S511.14,229.14,510.98,229.14z M512.79,225.76c-0.16,0-0.29,0.13-0.29,0.29
			c0,0.16,0.13,0.29,0.29,0.29s0.29-0.13,0.29-0.29C513.08,225.89,512.95,225.76,512.79,225.76z M512.79,226.88
			c-0.16,0-0.29,0.13-0.29,0.29c0,0.16,0.13,0.29,0.29,0.29s0.29-0.13,0.29-0.29C513.08,227.01,512.95,226.88,512.79,226.88z
			 M512.79,228.01c-0.16,0-0.29,0.13-0.29,0.29s0.13,0.29,0.29,0.29s0.29-0.13,0.29-0.29S512.95,228.01,512.79,228.01z
			 M512.79,229.14c-0.16,0-0.29,0.13-0.29,0.29s0.13,0.29,0.29,0.29s0.29-0.13,0.29-0.29S512.95,229.14,512.79,229.14z
			 M514.6,225.76c-0.16,0-0.29,0.13-0.29,0.29c0,0.16,0.13,0.29,0.29,0.29s0.29-0.13,0.29-0.29
			C514.89,225.89,514.76,225.76,514.6,225.76z M514.6,226.88c-0.16,0-0.29,0.13-0.29,0.29c0,0.16,0.13,0.29,0.29,0.29
			s0.29-0.13,0.29-0.29C514.89,227.01,514.76,226.88,514.6,226.88z M514.6,228.01c-0.16,0-0.29,0.13-0.29,0.29s0.13,0.29,0.29,0.29
			s0.29-0.13,0.29-0.29S514.76,228.01,514.6,228.01z M514.6,229.14c-0.16,0-0.29,0.13-0.29,0.29s0.13,0.29,0.29,0.29
			s0.29-0.13,0.29-0.29S514.76,229.14,514.6,229.14z M516.41,225.76c-0.16,0-0.29,0.13-0.29,0.29c0,0.16,0.13,0.29,0.29,0.29
			s0.29-0.13,0.29-0.29C516.7,225.89,516.57,225.76,516.41,225.76z M516.41,226.88c-0.16,0-0.29,0.13-0.29,0.29
			c0,0.16,0.13,0.29,0.29,0.29s0.29-0.13,0.29-0.29C516.7,227.01,516.57,226.88,516.41,226.88z M516.41,228.01
			c-0.16,0-0.29,0.13-0.29,0.29s0.13,0.29,0.29,0.29s0.29-0.13,0.29-0.29S516.57,228.01,516.41,228.01z M516.41,229.14
			c-0.16,0-0.29,0.13-0.29,0.29s0.13,0.29,0.29,0.29s0.29-0.13,0.29-0.29S516.57,229.14,516.41,229.14z M518.22,225.76
			c-0.16,0-0.29,0.13-0.29,0.29c0,0.16,0.13,0.29,0.29,0.29c0.16,0,0.29-0.13,0.29-0.29C518.51,225.89,518.38,225.76,518.22,225.76z
			 M518.22,226.88c-0.16,0-0.29,0.13-0.29,0.29c0,0.16,0.13,0.29,0.29,0.29c0.16,0,0.29-0.13,0.29-0.29
			C518.51,227.01,518.38,226.88,518.22,226.88z M518.22,228.01c-0.16,0-0.29,0.13-0.29,0.29s0.13,0.29,0.29,0.29
			c0.16,0,0.29-0.13,0.29-0.29S518.38,228.01,518.22,228.01z M518.22,229.14c-0.16,0-0.29,0.13-0.29,0.29s0.13,0.29,0.29,0.29
			c0.16,0,0.29-0.13,0.29-0.29S518.38,229.14,518.22,229.14z"/>
	</g>
	<g id="Tow">
		<rect x="299.88" y="89.69" transform="matrix(0.0902 -0.9959 0.9959 0.0902 202.3572 401.4156)" width="42.01" height="0.53"/>
		<polygon points="309.32,70.05 312.75,110.9 313.28,110.85 309.85,70.01 		"/>
		<polygon points="317.36,67.54 317.36,68.13 518.27,161.2 518.34,160.65 		"/>
		<path class="st2" d="M474.49,142.52c-0.17,2.71-2.51,4.76-5.21,4.59c-2.71-0.17-4.76-2.51-4.59-5.21
			c0.17-2.71,2.51-4.76,5.21-4.59C472.61,137.48,474.66,139.82,474.49,142.52z"/>
		<path class="st3" d="M473.51,142.46c-0.14,2.17-2,3.81-4.17,3.67c-2.17-0.14-3.81-2-3.67-4.17c0.14-2.17,2.01-3.81,4.17-3.67
			C472,138.43,473.65,140.29,473.51,142.46z"/>
		<path class="st2" d="M323.95,75.41c-0.27,4.3-3.98,7.56-8.28,7.29c-4.3-0.27-7.56-3.98-7.29-8.28c0.27-4.3,3.98-7.56,8.28-7.29
			C320.96,67.4,324.22,71.11,323.95,75.41z"/>
		<path class="st3" d="M322.4,75.31c-0.22,3.44-3.18,6.05-6.62,5.83c-3.44-0.22-6.05-3.18-5.83-6.62s3.18-6.05,6.62-5.83
			C320,68.9,322.61,71.87,322.4,75.31z"/>
		<path class="st4" d="M384.95,98.2l-1.51,3.15l-4.79-2.38l1.48-3.09c0.54-1.13,1.89-1.6,3.02-1.06l0.74,0.36
			C385.02,95.72,385.49,97.07,384.95,98.2z"/>
		<polygon class="st4" points="317.97,104.76 314.06,104.76 311.78,111.18 314.06,113.29 315.03,113.29 315.03,114.23 316.9,114.23 
			316.9,113.29 317.97,113.29 320.24,111.18 		"/>
		<path class="st4" d="M462.61,150.58l14.19,9.99l-4.7-18.99c-0.21-0.83-0.8-1.51-1.59-1.82l-1.28-0.51
			c-0.59-0.24-1.27,0.03-1.54,0.61L462.61,150.58z"/>
		<polygon class="st4" points="517.1,167.58 369.68,94.52 363.74,106.88 433.02,142.42 438.39,148.77 514.19,188.71 		"/>
		<path class="st4" d="M325.04,87.43l-8.99-4.25c-3.71-1.76-5.3-6.19-3.53-9.9c0.35-0.73,0.87-1.82,1.68-3.54l15.72,7.43
			L325.04,87.43z"/>
		<path class="st3" d="M368.17,97.66l-3.28,6.83c-5.88-2.77-19.75-9.38-39.21-18.58l3.32-6.82
			C336.51,82.64,352.63,90.3,368.17,97.66z"/>
		<path class="st2" d="M329,79.08l-1.62,3.33c16.97,8.03,35.34,16.76,39.19,18.58l1.6-3.33C352.63,90.3,336.51,82.64,329,79.08z"/>
		<path class="st5" d="M316.48,73.62c0.71,0.17,1.15,0.89,0.98,1.6c-0.17,0.71-0.89,1.15-1.6,0.98c-0.71-0.17-1.15-0.89-0.98-1.6
			C315.05,73.89,315.77,73.45,316.48,73.62z M316.54,73.37c-0.85-0.21-1.71,0.32-1.92,1.17c-0.21,0.85,0.32,1.71,1.17,1.92
			c0.85,0.21,1.71-0.32,1.92-1.17C317.92,74.43,317.4,73.57,316.54,73.37z"/>
		<path class="st6" d="M317.23,117.43c-0.03,0.5-0.5,1.27-1.31,1.23c-0.81-0.04-1.21-0.81-0.97-1.55c0.24-0.74,0.86-0.58,1.57-1.5
			c0.51-0.67-0.06-0.99-0.02-1.38c0-0.01-1.11-0.01-1.11-0.01c0.07,1.43-1.03,0.45-1.96,2.02c-1.05,1.77,0.42,4.66,3.18,3.79
			c1.23-0.39,1.46-1.3,1.46-1.3s0.19-0.33,0.21-1.16c0.01-0.83,0.43-0.48,0.44-1.12C318.74,115.8,317.25,116.93,317.23,117.43z"/>
		<path class="st7" d="M317.22,117.95c-0.23,0.61-0.62,1.06-1.28,1.06c-0.41,0-0.84-0.17-1.15-0.44c-0.31-0.26-0.53-0.63-0.52-1.04
			c0.01-0.38,0.22-0.73,0.46-1.02c0.28-0.33,0.6-0.57,0.81-0.73c0.22-0.15,0.39-0.35,0.45-0.62c0.04-0.16,0.02-0.3,0-0.47
			c-0.05-0.34-0.15-0.33-0.28-0.03c-0.11,0.28-0.09,0.25-0.15,0.35c-0.11,0.15-0.19,0.18-0.34,0.24c-0.38,0.18-0.76,0.41-1.06,0.7
			c-0.44,0.41-0.76,0.92-0.81,1.52c-0.06,0.67,0.24,1.35,0.82,1.84c0.5,0.42,1.16,0.66,1.81,0.63c0.94-0.05,1.71-0.7,1.91-1.81
			c0.08-0.46-0.01-0.46,0.13-0.9c0.07-0.22,0.21-0.57,0.21-0.57c0.02-0.09-0.07-0.09-0.15-0.06c-0.18,0.06-0.35,0.25-0.46,0.4
			C317.34,117.38,317.36,117.58,317.22,117.95z"/>
		<path d="M316.18,135.26l0-17.25c0-0.04-0.12-0.07-0.27-0.07c-0.15,0-0.27,0.03-0.27,0.07l0,17.34L316.18,135.26z"/>
		<rect x="315.3" y="120.72" class="st2" width="1.24" height="7.43"/>
		<polygon class="st8" points="317.97,104.76 317.22,105.82 319.01,110.88 317.55,112.23 314.48,112.23 314.06,113.29 
			317.97,113.29 320.24,111.18 		"/>
		<polygon class="st9" points="313.01,110.87 314.81,105.82 317.22,105.82 317.97,104.76 314.06,104.76 311.78,111.18 
			314.06,113.29 314.48,112.23 		"/>
		<path class="st5" d="M469.79,141.4c0.45,0.11,0.72,0.56,0.62,1.01c-0.11,0.45-0.56,0.72-1.01,0.62c-0.45-0.11-0.72-0.56-0.62-1.01
			C468.89,141.57,469.34,141.29,469.79,141.4z M469.83,141.24c-0.54-0.13-1.08,0.2-1.21,0.74c-0.13,0.54,0.2,1.08,0.74,1.21
			c0.54,0.13,1.08-0.2,1.21-0.74C470.69,141.91,470.36,141.37,469.83,141.24z"/>
		<polygon class="st8" points="490.3,175.32 489.75,175.83 438.39,148.77 433.04,142.42 363.74,106.88 364.69,106.56 433.33,141.78 
			433.47,141.84 433.56,141.96 438.83,148.21 		"/>
		<polygon class="st8" points="502.42,164.07 501.87,164.58 371.5,99.68 368.93,105.05 367.98,105.38 371.18,98.74 		"/>
		<polygon class="st10" points="508.97,163.55 506.72,163.41 370.02,95.46 364.69,106.56 363.74,106.88 369.68,94.52 		"/>
		<path class="st9" d="M492.59,173.19l-0.54,0.51l-51.6-27.47l-5.44-6.37c-0.49-0.24-66.53-34.24-67.02-34.47l0.95-0.33l66.44,34.19
			l5.44,6.38L492.59,173.19z"/>
		<path class="st8" d="M383.9,95.18l-0.74-0.36c-0.22-0.1-0.44-0.17-0.67-0.2c-0.95-0.13-1.91,0.35-2.35,1.26l-1.48,3.09l0.42,0.21
			l1.47-3.1c0.34-0.71,1.09-1.12,1.87-1.01c0.19,0.03,0.37,0.08,0.54,0.16l0.74,0.36c0.9,0.43,1.28,1.51,0.85,2.41l-1.51,3.14
			l0.41,0.2l1.51-3.15C385.49,97.07,385.02,95.72,383.9,95.18z"/>
		<path class="st5" d="M381.45,97.56c0.1-0.41,0.51-0.66,0.91-0.56s0.66,0.51,0.56,0.91c-0.1,0.41-0.51,0.66-0.91,0.56
			C381.6,98.38,381.35,97.97,381.45,97.56z M381.59,97.6c-0.08,0.33,0.12,0.65,0.45,0.73c0.33,0.08,0.65-0.12,0.73-0.45
			c0.08-0.33-0.12-0.65-0.45-0.73C382,97.07,381.67,97.27,381.59,97.6z"/>
		<path class="st9" d="M469.31,139.31c0.04,0.01,0.08,0.01,0.12,0.02l-0.2-0.08c-0.09-0.04-0.19-0.06-0.28-0.07
			c-0.51-0.07-1.03,0.2-1.26,0.68l-1.24,2.62l0.34,0.17l1.24-2.62c0.02-0.04,0.05-0.08,0.07-0.12
			C468.35,139.47,468.83,139.24,469.31,139.31z"/>
		<path class="st8" d="M470.51,139.76l-1.08-0.43c-0.04-0.01-0.08-0.02-0.12-0.02c-0.48-0.07-0.96,0.16-1.21,0.59
			c0.18-0.25,0.48-0.39,0.79-0.35c0.07,0.01,0.13,0.03,0.19,0.05l1.28,0.51c0.68,0.27,1.19,0.85,1.36,1.56l0.87,3.5l0.14-1.01
			l-0.64-2.59C471.89,140.75,471.3,140.07,470.51,139.76z"/>
		<path class="st8" d="M317.62,82.33c-3.52-1.66-5.02-5.86-3.35-9.37l0.61-1.29l-0.68-1.92l-1.68,3.54
			c-1.76,3.71-0.18,8.15,3.53,9.9l8.99,4.25l-0.68-1.92L317.62,82.33z"/>
		<polygon class="st9" points="314.2,69.74 314.88,71.67 328,77.86 324.36,85.51 325.04,87.43 329.92,77.18 		"/>
		<rect x="315.94" y="120.72" class="st3" width="0.6" height="7.43"/>
		<path class="st9" d="M380.23,96.75l0.32-0.68c0.03-0.06,0.06-0.11,0.09-0.16c0.47-0.8,1.37-1.22,2.26-1.1
			c0.22,0.03,0.43,0.09,0.64,0.19l-0.38-0.18c-0.22-0.1-0.44-0.17-0.67-0.2c-0.95-0.13-1.91,0.35-2.35,1.26l-1.48,3.09l0.42,0.21
			C379.07,99.16,380.23,96.75,380.23,96.75z"/>
		<polygon class="st0" points="524.77,143.99 496.49,143.99 526.79,102.14 539.91,102.14 		"/>
		<rect x="520.89" y="102.14" class="st4" width="24.77" height="2.49"/>
		<polygon class="st9" points="520.89,104.63 521.34,104.17 521.34,102.6 545.2,102.6 545.66,102.14 520.89,102.14 		"/>
		<polygon class="st8" points="545.2,104.17 521.34,104.17 520.89,104.63 545.66,104.63 545.66,102.14 545.2,102.6 		"/>
		<polygon class="st8" points="523.96,143.99 524.77,143.99 539.01,104.63 538.21,104.63 		"/>
		<polygon class="st9" points="524.99,104.63 496.49,143.99 497.43,143.99 525.92,104.63 		"/>
		<g>
			
				<rect x="338.11" y="214.07" transform="matrix(0.3642 -0.9313 0.9313 0.3642 17.458 460.2834)" class="st4" width="15.43" height="6.58"/>
			<polygon class="st4" points="349.21,217.75 346.08,225.74 283.41,211.87 285.05,204.48 			"/>
			<polygon class="st4" points="287.17,205.36 285.25,211.87 243.84,201.17 244.66,197.48 			"/>
			
				<rect x="276.39" y="203.63" transform="matrix(0.2161 -0.9764 0.9764 0.2161 17.973 437.5107)" class="st4" width="10.14" height="7.87"/>
			<polygon class="st9" points="342.67,216.4 343.18,217.09 285.96,205.45 286.12,204.7 			"/>
			<path class="st5" d="M341.88,220.3c0.22-0.44,0.76-0.61,1.19-0.38c0.44,0.22,0.61,0.76,0.38,1.19c-0.22,0.44-0.76,0.61-1.19,0.38
				C341.83,221.27,341.66,220.74,341.88,220.3z M341.72,220.22c-0.27,0.52-0.06,1.16,0.46,1.43c0.52,0.27,1.16,0.06,1.43-0.46
				c0.27-0.52,0.06-1.16-0.46-1.43C342.63,219.49,341.99,219.7,341.72,220.22z"/>
			<polygon class="st8" points="284.64,211.36 284.48,212.11 346.09,225.75 345.62,224.86 			"/>
			<polygon class="st8" points="345.62,224.86 346.08,225.74 350.93,213.37 350.22,213.1 			"/>
			<polygon class="st9" points="342.67,216.4 343.18,217.09 345.5,211.25 344.79,210.97 			"/>
			<polygon class="st9" points="244.66,197.47 243.85,201.17 244.75,200.62 245.24,198.35 278.12,204.44 278.28,203.7 			"/>
			<polygon class="st8" points="244.75,200.62 243.85,201.17 276.95,209.74 277.11,209 			"/>
			<polygon class="st9" points="278.72,201.76 276.52,211.66 277.43,211.09 279.29,202.66 285.49,204.04 286.4,203.46 			"/>
			<polygon class="st8" points="285.49,204.04 283.63,212.46 277.43,211.09 276.52,211.66 284.2,213.36 286.4,203.46 			"/>
			<polygon class="st8" points="287.47,206.94 286.65,210.67 287.55,210.09 288.05,207.84 345.59,219.71 346.63,219.15 			"/>
			<polygon class="st9" points="345.59,219.71 344.44,222.67 287.55,210.09 286.65,210.67 344.91,223.55 346.63,219.15 			"/>
		</g>
		<g>
			
				<rect x="423.46" y="119.41" transform="matrix(0.7999 -0.6002 0.6002 0.7999 -0.1674 283.4845)" class="st3" width="3.03" height="45.16"/>
			
				<rect x="424.82" y="118.96" transform="matrix(0.7997 -0.6003 0.6003 0.7997 0.2523 283.8359)" class="st2" width="1.52" height="45.16"/>
			<polygon class="st11" points="422.5,142.03 409.52,124.69 412.72,122.29 425.71,139.63 			"/>
			<polygon class="st12" points="425.71,139.63 424.1,140.83 411.1,123.51 412.73,122.29 			"/>
			<path class="st8" d="M410.82,120.57c0.34,0.01,0.65,0.17,0.85,0.45l0.49,0.65l-3.08,2.31l-0.49-0.65
				c-0.37-0.49-0.27-1.19,0.22-1.56l1.3-0.97C410.31,120.64,410.56,120.56,410.82,120.57z M410.85,119.73
				c-0.43-0.02-0.87,0.11-1.25,0.39l-1.3,0.97c-0.86,0.65-1.04,1.88-0.39,2.74l1,1.33l4.43-3.33l-0.99-1.32
				C411.98,120.02,411.42,119.75,410.85,119.73z"/>
			<path class="st5" d="M409.22,121.93c0.06-0.41,0.44-0.7,0.85-0.65c0.41,0.06,0.7,0.44,0.65,0.85c-0.06,0.41-0.44,0.7-0.85,0.65
				C409.46,122.73,409.17,122.35,409.22,121.93z M409.37,121.95c-0.05,0.33,0.19,0.64,0.52,0.68c0.33,0.05,0.64-0.19,0.68-0.52
				c0.05-0.33-0.19-0.64-0.52-0.68C409.73,121.39,409.42,121.62,409.37,121.95z"/>
			<path class="st9" d="M412.77,121.08c-0.37-0.42-0.88-0.66-1.41-0.68c-0.4-0.01-0.8,0.09-1.15,0.32c-0.03,0.02-0.07,0.04-0.1,0.07
				l-1.3,0.97c-0.49,0.37-0.59,1.07-0.22,1.56l0.49,0.65l-0.17,1.18l-1-1.33c-0.65-0.87-0.47-2.09,0.39-2.74l1.3-0.97
				c0.37-0.28,0.81-0.41,1.25-0.39c0.57,0.02,1.13,0.29,1.5,0.78L412.77,121.08z"/>
		</g>
		<polygon class="st4" points="488.62,160.59 456.01,145.42 440.42,145.42 424.31,168.71 488.63,168.69 		"/>
		<polygon class="st8" points="456.01,145.42 455.87,146.04 488.62,161.27 488.62,160.59 		"/>
		<polygon class="st9" points="456.01,145.42 440.42,145.42 424.31,168.71 425.06,168.71 440.74,146.04 455.87,146.04 		"/>
		<path class="st5" d="M456.18,150.47c0.71,0.17,1.15,0.89,0.98,1.6c-0.17,0.71-0.89,1.15-1.6,0.98c-0.71-0.17-1.15-0.89-0.98-1.6
			C454.75,150.73,455.47,150.29,456.18,150.47z M456.24,150.21c-0.85-0.21-1.71,0.32-1.92,1.17c-0.21,0.85,0.32,1.71,1.17,1.92
			c0.85,0.21,1.71-0.32,1.92-1.17C457.62,151.28,457.1,150.42,456.24,150.21z"/>
		<path class="st5" d="M439.14,159.04c0.71,0.17,1.15,0.89,0.98,1.6c-0.17,0.71-0.89,1.15-1.6,0.98c-0.71-0.17-1.15-0.89-0.98-1.6
			C437.71,159.31,438.43,158.87,439.14,159.04z M439.21,158.79c-0.85-0.21-1.71,0.32-1.92,1.17c-0.21,0.85,0.32,1.71,1.17,1.92
			c0.85,0.21,1.71-0.32,1.92-1.17C440.58,159.85,440.06,158.99,439.21,158.79z"/>
	</g>
	<g id="Wheels">
		<rect x="98.68" y="240.01" class="st3" width="47.81" height="5.43"/>
		<rect x="98.68" y="240.01" class="st2" width="47.81" height="2.71"/>
		<g>
			<path class="st13" d="M87.64,242.35c0,7.98,6.47,14.45,14.45,14.45c7.98,0,14.45-6.47,14.45-14.45c0-7.98-6.47-14.45-14.45-14.45
				C94.1,227.91,87.64,234.37,87.64,242.35z"/>
			
				<ellipse transform="matrix(0.9352 -0.354 0.354 0.9352 -79.1879 51.8361)" class="st6" cx="102.08" cy="242.35" rx="8.48" ry="8.47"/>
			<path class="st2" d="M102,232.24c-5.59,0.05-10.08,4.62-10.03,10.2c0.04,5.5,4.53,10.08,10.19,10.03
				c5.59-0.05,10.08-4.62,10.03-10.19C112.15,236.77,107.66,232.19,102,232.24z M102.16,251.19c-4.95,0.04-8.87-3.96-8.91-8.76
				c-0.04-4.87,3.88-8.87,8.76-8.91c4.95-0.04,8.87,3.96,8.91,8.76C110.97,247.15,107.04,251.15,102.16,251.19z"/>
			<path class="st1" d="M102.02,233.52c-4.88,0.04-8.81,4.03-8.76,8.91c0.03,4.8,3.96,8.8,8.91,8.76c4.88-0.04,8.81-4.03,8.76-8.91
				C110.89,237.48,106.97,233.48,102.02,233.52z M106.4,238.14l0.19-0.97c0.23-1.17,1.52,0.35,2.08,1.3
				c0.56,0.95,1.27,2.83,0.13,2.45l-0.94-0.31C106.82,240.28,106.2,239.21,106.4,238.14z M97.76,246.56l-0.19,0.97
				c-0.23,1.17-1.52-0.35-2.08-1.3c-0.56-0.95-1.27-2.83-0.13-2.45l0.94,0.31C97.34,244.42,97.97,245.49,97.76,246.56z
				 M96.27,240.71l-0.94,0.32c-1.13,0.39-0.46-1.49,0.09-2.46c0.54-0.96,1.81-2.51,2.06-1.34l0.2,0.97
				C97.92,239.28,97.31,240.36,96.27,240.71z M102.15,250c-1.1,0.01-3.08-0.32-2.19-1.12l0.74-0.66c0.82-0.73,2.05-0.74,2.88-0.02
				l0.75,0.65C105.22,249.63,103.25,249.99,102.15,250z M104.21,235.82l-0.74,0.66c-0.82,0.73-2.05,0.74-2.88,0.02l-0.75-0.65
				c-0.9-0.78,1.07-1.14,2.17-1.15C103.13,234.69,105.1,235.02,104.21,235.82z M108.74,246.12c-0.55,0.96-1.81,2.51-2.06,1.34
				l-0.2-0.97c-0.23-1.07,0.38-2.15,1.42-2.5l0.94-0.32C109.96,243.28,109.28,245.16,108.74,246.12z"/>
			<path class="st14" d="M99.03,239.29c-1.69,1.69-1.69,4.43,0,6.12c1.69,1.69,4.43,1.69,6.12,0c1.69-1.69,1.69-4.43,0-6.12
				C103.46,237.6,100.72,237.6,99.03,239.29z"/>
			<path class="st3" d="M99.36,242.37c0.01,0.71,0.28,1.35,0.74,1.84c0.07-0.05,0.14-0.08,0.23-0.09c0.15-0.03,0.3,0.01,0.42,0.1
				c0.11,0.08,0.2,0.21,0.22,0.36c0.01,0.09,0.01,0.17-0.02,0.25c0.35,0.16,0.74,0.25,1.15,0.24c0.41,0,0.79-0.1,1.13-0.26
				c-0.02-0.08-0.03-0.16-0.02-0.25c0.02-0.15,0.11-0.28,0.22-0.37c0.11-0.08,0.26-0.12,0.41-0.1c0.09,0.01,0.17,0.05,0.23,0.09
				c0.45-0.49,0.72-1.15,0.72-1.86c0-0.11-0.01-0.21-0.02-0.32c-0.08,0-0.16-0.02-0.24-0.06c-0.14-0.07-0.24-0.19-0.28-0.33
				c-0.04-0.13-0.04-0.29,0.03-0.42c0.04-0.08,0.09-0.14,0.16-0.19c-0.38-0.68-1.06-1.18-1.86-1.33c-0.03,0.08-0.07,0.15-0.13,0.21
				c-0.11,0.11-0.25,0.17-0.4,0.17c-0.14,0-0.28-0.05-0.39-0.16c-0.06-0.06-0.11-0.13-0.13-0.21c-0.8,0.16-1.46,0.67-1.84,1.35
				c0.06,0.05,0.12,0.11,0.16,0.19c0.07,0.14,0.08,0.29,0.04,0.43c-0.04,0.13-0.14,0.25-0.27,0.32c-0.08,0.04-0.16,0.06-0.24,0.06
				C99.37,242.15,99.36,242.26,99.36,242.37z"/>
			<polygon class="st6" points="101.82,239.06 101.6,239.46 101.84,239.85 102.3,239.84 102.51,239.44 102.27,239.05 			"/>
			<polygon class="st6" points="105.12,241.09 104.68,241.01 104.38,241.36 104.53,241.79 104.98,241.87 105.28,241.52 			"/>
			<polygon class="st6" points="104.21,244.86 104.15,244.41 103.73,244.24 103.37,244.52 103.43,244.97 103.85,245.14 			"/>
			<polygon class="st6" points="100.34,245.16 100.75,244.97 100.79,244.51 100.41,244.26 100,244.45 99.97,244.9 			"/>
			<polygon class="st6" points="98.87,241.57 99.18,241.9 99.62,241.8 99.75,241.36 99.44,241.03 98.99,241.14 			"/>
			<path class="st15" d="M102.08,230.07c6.57,0,12.16,4.17,14.27,10.01c-1.09-6.9-7.06-12.18-14.27-12.18
				c-7.21,0-13.18,5.28-14.27,12.18C89.92,234.24,95.52,230.07,102.08,230.07z"/>
			<path class="st16" d="M102.08,254.63c-6.57,0-12.16-4.17-14.27-10.01c1.09,6.9,7.06,12.18,14.27,12.18
				c7.21,0,13.18-5.28,14.27-12.18C114.24,250.46,108.65,254.63,102.08,254.63z"/>
			<path class="st1" d="M102,233.01c3.98-0.03,7.42,2.08,9.31,5.2c-1.58-3.52-5.12-6.01-9.31-5.97c-4.08,0.03-7.58,2.48-9.14,5.97
				C94.73,235.12,98.12,233.04,102,233.01z"/>
			<path class="st17" d="M102.17,251.69c-3.98,0.03-7.42-2.08-9.31-5.2c1.58,3.52,5.12,6.01,9.31,5.97
				c4.08-0.03,7.58-2.48,9.14-5.97C109.43,249.58,106.05,251.66,102.17,251.69z"/>
			<path class="st14" d="M102.32,234.71c4.15,0.1,7.55,2.97,8.56,6.75c-0.45-4.43-4.2-7.97-8.86-7.93
				c-4.55,0.04-8.27,3.52-8.72,7.94C94.41,237.28,98.33,234.54,102.32,234.71z"/>
			<path class="st18" d="M101.86,250c-4.15-0.1-7.55-2.97-8.56-6.75c0.45,4.43,4.2,7.97,8.86,7.93c4.55-0.04,8.27-3.52,8.72-7.94
				C109.77,247.42,105.86,250.16,101.86,250z"/>
			<path class="st19" d="M105.41,240.48c0.44,0.44,0.77,0.94,1,1.48c-0.09-0.97-0.5-1.92-1.25-2.67c-1.69-1.69-4.43-1.69-6.12,0
				c-0.75,0.75-1.16,1.7-1.25,2.67c0.23-0.54,0.56-1.04,1-1.48C100.61,238.65,103.58,238.65,105.41,240.48z"/>
			<path class="st2" d="M98.78,244.22c-0.44-0.44-0.77-0.94-1-1.48c0.09,0.97,0.5,1.92,1.25,2.67c1.69,1.69,4.43,1.69,6.12,0
				c0.75-0.75,1.16-1.7,1.25-2.67c-0.23,0.54-0.56,1.04-1,1.48C103.58,246.05,100.61,246.05,98.78,244.22z"/>
			<path class="st1" d="M103.79,242.26c-0.08-0.26-0.23-0.51-0.44-0.72c-0.17-0.17-0.37-0.3-0.58-0.39
				c-0.22-0.09-0.45-0.14-0.69-0.14c-0.48,0-0.93,0.19-1.27,0.52c-0.21,0.21-0.35,0.45-0.44,0.72c0.03-0.4,0.19-0.79,0.5-1.09
				c0.32-0.32,0.75-0.5,1.21-0.5c0.23,0,0.45,0.04,0.65,0.13c0.21,0.09,0.39,0.21,0.55,0.37
				C103.59,241.47,103.76,241.86,103.79,242.26z"/>
			<path class="st7" d="M103.79,242.44c-0.08,0.26-0.23,0.51-0.44,0.72c-0.17,0.17-0.37,0.3-0.58,0.39
				c-0.22,0.09-0.45,0.14-0.69,0.14c-0.48,0-0.93-0.19-1.27-0.52c-0.21-0.21-0.35-0.45-0.44-0.72c0.03,0.4,0.19,0.79,0.5,1.09
				c0.32,0.32,0.75,0.5,1.21,0.5c0.23,0,0.45-0.04,0.65-0.13c0.21-0.09,0.39-0.21,0.55-0.37
				C103.59,243.23,103.76,242.84,103.79,242.44z"/>
		</g>
		<g>
			<path class="st13" d="M127.02,242.35c0,7.98,6.47,14.45,14.45,14.45c7.98,0,14.45-6.47,14.45-14.45
				c0-7.98-6.47-14.45-14.45-14.45C133.49,227.91,127.02,234.37,127.02,242.35z"/>
			<path class="st6" d="M149.38,239.33c-1.67-4.37-6.56-6.57-10.94-4.9c-4.37,1.67-6.57,6.56-4.9,10.93
				c1.67,4.37,6.56,6.57,10.94,4.9C148.85,248.6,151.05,243.71,149.38,239.33z"/>
			<path class="st2" d="M141.38,232.24c-5.59,0.05-10.08,4.62-10.03,10.2c0.04,5.5,4.53,10.08,10.19,10.03
				c5.59-0.05,10.08-4.62,10.03-10.19C151.54,236.77,147.04,232.19,141.38,232.24z M141.55,251.19c-4.95,0.04-8.87-3.96-8.91-8.76
				c-0.04-4.87,3.88-8.87,8.76-8.91c4.95-0.04,8.87,3.96,8.91,8.76C150.35,247.15,146.43,251.15,141.55,251.19z"/>
			<path class="st1" d="M141.4,233.52c-4.88,0.04-8.81,4.03-8.76,8.91c0.03,4.8,3.96,8.8,8.91,8.76c4.88-0.04,8.81-4.03,8.76-8.91
				C150.27,237.48,146.35,233.48,141.4,233.52z M145.79,238.14l0.19-0.97c0.23-1.17,1.52,0.35,2.08,1.3
				c0.56,0.95,1.27,2.83,0.13,2.45l-0.94-0.31C146.2,240.28,145.58,239.21,145.79,238.14z M137.14,246.56l-0.19,0.97
				c-0.23,1.17-1.52-0.35-2.08-1.3c-0.56-0.95-1.27-2.83-0.13-2.45l0.94,0.31C136.73,244.42,137.35,245.49,137.14,246.56z
				 M135.66,240.71l-0.94,0.32c-1.13,0.39-0.46-1.49,0.09-2.46c0.54-0.96,1.81-2.51,2.06-1.34l0.2,0.97
				C137.3,239.28,136.69,240.36,135.66,240.71z M141.53,250c-1.1,0.01-3.08-0.32-2.19-1.12l0.74-0.66c0.82-0.73,2.05-0.74,2.88-0.02
				l0.75,0.65C144.6,249.63,142.63,249.99,141.53,250z M143.59,235.82l-0.74,0.66c-0.82,0.73-2.05,0.74-2.88,0.02l-0.75-0.65
				c-0.9-0.78,1.07-1.14,2.17-1.15C142.51,234.69,144.48,235.02,143.59,235.82z M148.12,246.12c-0.55,0.96-1.81,2.51-2.06,1.34
				l-0.2-0.97c-0.23-1.07,0.38-2.15,1.42-2.5l0.94-0.32C149.34,243.28,148.66,245.16,148.12,246.12z"/>
			<path class="st14" d="M138.41,239.29c-1.69,1.69-1.69,4.43,0,6.12c1.69,1.69,4.43,1.69,6.12,0c1.69-1.69,1.69-4.43,0-6.12
				C142.85,237.6,140.1,237.6,138.41,239.29z"/>
			<path class="st3" d="M138.74,242.37c0.01,0.71,0.28,1.35,0.74,1.84c0.07-0.05,0.14-0.08,0.23-0.09c0.15-0.03,0.3,0.01,0.42,0.1
				c0.11,0.08,0.2,0.21,0.22,0.36c0.01,0.09,0.01,0.17-0.02,0.25c0.35,0.16,0.74,0.25,1.15,0.24c0.41,0,0.79-0.1,1.13-0.26
				c-0.02-0.08-0.03-0.16-0.02-0.25c0.02-0.15,0.11-0.28,0.22-0.37c0.11-0.08,0.26-0.12,0.41-0.1c0.09,0.01,0.17,0.05,0.23,0.09
				c0.45-0.49,0.72-1.15,0.72-1.86c0-0.11-0.01-0.21-0.02-0.32c-0.08,0-0.16-0.02-0.24-0.06c-0.14-0.07-0.24-0.19-0.28-0.33
				c-0.04-0.13-0.04-0.29,0.03-0.42c0.04-0.08,0.09-0.14,0.16-0.19c-0.38-0.68-1.06-1.18-1.86-1.33c-0.03,0.08-0.07,0.15-0.13,0.21
				c-0.11,0.11-0.25,0.17-0.4,0.17c-0.14,0-0.28-0.05-0.39-0.16c-0.06-0.06-0.11-0.13-0.13-0.21c-0.8,0.16-1.46,0.67-1.84,1.35
				c0.06,0.05,0.12,0.11,0.16,0.19c0.07,0.14,0.08,0.29,0.04,0.43c-0.04,0.13-0.14,0.25-0.27,0.32c-0.08,0.04-0.16,0.06-0.24,0.06
				C138.75,242.15,138.74,242.26,138.74,242.37z"/>
			<polygon class="st6" points="141.2,239.06 140.99,239.46 141.22,239.85 141.68,239.84 141.89,239.44 141.66,239.05 			"/>
			<polygon class="st6" points="144.51,241.09 144.06,241.01 143.77,241.36 143.92,241.79 144.36,241.87 144.66,241.52 			"/>
			<polygon class="st6" points="143.59,244.86 143.53,244.41 143.11,244.24 142.75,244.52 142.81,244.97 143.23,245.14 			"/>
			<polygon class="st6" points="139.73,245.16 140.14,244.97 140.17,244.51 139.8,244.26 139.39,244.45 139.35,244.9 			"/>
			<polygon class="st6" points="138.25,241.57 138.56,241.9 139,241.8 139.13,241.36 138.82,241.03 138.38,241.14 			"/>
			<path class="st15" d="M141.47,230.07c6.57,0,12.16,4.17,14.27,10.01c-1.09-6.9-7.06-12.18-14.27-12.18
				c-7.21,0-13.18,5.28-14.27,12.18C129.31,234.24,134.9,230.07,141.47,230.07z"/>
			<path class="st16" d="M141.46,254.63c-6.57,0-12.16-4.17-14.27-10.01c1.09,6.9,7.06,12.18,14.27,12.18
				c7.21,0,13.18-5.28,14.27-12.18C153.62,250.46,148.03,254.63,141.46,254.63z"/>
			<path class="st1" d="M141.38,233.01c3.98-0.03,7.42,2.08,9.31,5.2c-1.58-3.52-5.12-6.01-9.31-5.97
				c-4.08,0.03-7.58,2.48-9.14,5.97C134.11,235.12,137.5,233.04,141.38,233.01z"/>
			<path class="st17" d="M141.55,251.69c-3.98,0.03-7.42-2.08-9.31-5.2c1.58,3.52,5.12,6.01,9.31,5.97
				c4.08-0.03,7.58-2.48,9.14-5.97C148.82,249.58,145.43,251.66,141.55,251.69z"/>
			<path class="st14" d="M141.71,234.71c4.15,0.1,7.55,2.97,8.56,6.75c-0.45-4.43-4.2-7.97-8.86-7.93
				c-4.55,0.04-8.27,3.52-8.72,7.94C133.8,237.28,137.71,234.54,141.71,234.71z"/>
			<path class="st18" d="M141.24,250c-4.15-0.1-7.55-2.97-8.56-6.75c0.45,4.43,4.2,7.97,8.86,7.93c4.55-0.04,8.27-3.52,8.72-7.94
				C149.15,247.42,145.24,250.16,141.24,250z"/>
			<path class="st19" d="M144.79,240.48c0.44,0.44,0.77,0.94,1,1.48c-0.09-0.97-0.5-1.92-1.25-2.67c-1.69-1.69-4.43-1.69-6.12,0
				c-0.75,0.75-1.16,1.7-1.25,2.67c0.23-0.54,0.56-1.04,1-1.48C139.99,238.65,142.96,238.65,144.79,240.48z"/>
			<path class="st2" d="M138.16,244.22c-0.44-0.44-0.77-0.94-1-1.48c0.09,0.97,0.5,1.92,1.25,2.67c1.69,1.69,4.43,1.69,6.12,0
				c0.75-0.75,1.16-1.7,1.25-2.67c-0.23,0.54-0.56,1.04-1,1.48C142.96,246.05,139.99,246.05,138.16,244.22z"/>
			<path class="st1" d="M143.17,242.26c-0.08-0.26-0.23-0.51-0.44-0.72c-0.17-0.17-0.37-0.3-0.58-0.39
				c-0.22-0.09-0.45-0.14-0.69-0.14c-0.48,0-0.93,0.19-1.27,0.52c-0.21,0.21-0.35,0.45-0.44,0.72c0.03-0.4,0.19-0.79,0.5-1.09
				c0.32-0.32,0.75-0.5,1.21-0.5c0.23,0,0.45,0.04,0.65,0.13c0.21,0.09,0.39,0.21,0.55,0.37
				C142.98,241.47,143.14,241.86,143.17,242.26z"/>
			<path class="st7" d="M143.17,242.44c-0.08,0.26-0.23,0.51-0.44,0.72c-0.17,0.17-0.37,0.3-0.58,0.39
				c-0.22,0.09-0.45,0.14-0.69,0.14c-0.48,0-0.93-0.19-1.27-0.52c-0.21-0.21-0.35-0.45-0.44-0.72c0.03,0.4,0.19,0.79,0.5,1.09
				c0.32,0.32,0.75,0.5,1.21,0.5c0.23,0,0.45-0.04,0.65-0.13c0.21-0.09,0.39-0.21,0.55-0.37
				C142.98,243.23,143.14,242.84,143.17,242.44z"/>
		</g>
	</g>
	<g id="Siren">
		<path class="st20" d="M544.21,100.62h-20.52c-1.55,0-2.8-1.25-2.8-2.8v-1.71c0-1.55,1.25-2.8,2.8-2.8h10.52
			c3.11,0,6.2,0.54,9.13,1.59l1.48,0.53c0.71,0.25,1.18,0.92,1.18,1.67v1.74C545.99,99.82,545.19,100.62,544.21,100.62z"/>
		<path class="st21" d="M530.98,96.97c0,1.72-1.39,3.12-3.12,3.12s-3.12-1.39-3.12-3.12c0-1.72,1.39-3.12,3.12-3.12
			S530.98,95.25,530.98,96.97z"/>
		<path class="st22" d="M528.73,96.97c0,0.48-0.39,0.87-0.87,0.87S527,97.44,527,96.97c0-0.48,0.39-0.87,0.87-0.87
			S528.73,96.49,528.73,96.97z"/>
		<path class="st21" d="M538.78,96.96c0,1.72-1.39,3.12-3.12,3.12c-1.72,0-3.12-1.39-3.12-3.12c0-1.72,1.39-3.12,3.12-3.12
			C537.38,93.85,538.78,95.24,538.78,96.96z"/>
		<rect x="525.53" y="100.62" class="st3" width="14.33" height="1.52"/>
		<rect x="525.53" y="100.62" class="st2" width="7.17" height="1.52"/>
		<path class="st22" d="M545.99,97.1v1.74c0,0.43-0.15,0.82-0.4,1.12v-0.07c0-0.75-0.47-1.42-1.18-1.67l-1.48-0.53
			c-2.93-1.05-6.02-1.59-9.13-1.59h-10.52c-1.02,0-1.91,0.54-2.4,1.36v-1.35c0-1.54,1.25-2.8,2.8-2.8h10.52
			c3.11,0,6.2,0.54,9.13,1.59l1.48,0.53C545.52,95.69,545.99,96.35,545.99,97.1z"/>
		<path class="st23" d="M527.86,93.85c-1.42,0-2.62,0.95-2.99,2.25h5.98C530.48,94.8,529.28,93.85,527.86,93.85z"/>
		<path class="st23" d="M538.75,96.56c-0.2-1.53-1.5-2.71-3.09-2.71c-1.42,0-2.62,0.95-2.99,2.25h1.13
			C535.47,96.1,537.12,96.26,538.75,96.56z"/>
		<path class="st22" d="M536.53,96.97c0,0.48-0.39,0.87-0.87,0.87c-0.48,0-0.87-0.39-0.87-0.87c0-0.48,0.39-0.87,0.87-0.87
			C536.14,96.1,536.53,96.49,536.53,96.97z"/>
	</g>
	<g id="Body">
		<path class="st24" d="M766.97,214.17c0-0.42-1.73-0.86-1.74-1.32l-0.09-10.95c0-0.48,1.73-0.98,1.73-1.47l-0.06-7.06
			c-0.02-2.54-2.14-4.45-4.65-4.48c-0.48-0.01-0.93-0.1-1.35-0.24c-0.47-7.83-1.39-15.35-2.08-19.41c0.61-0.42,0.57-1.17,0.14-1.54
			c-14.01-12.6-59.2-18.16-77.86-19.4l-6.65,0.91l-0.14,0c-28.15-21.21-45.85-32.59-54.78-37.32c-8.96-4.74-14.9-5.81-22.12-6.67
			c-11.91-1.44-28.52-2.67-43.85-3.07c-3.18-0.09-7.71,2.2-7.73,5.45l-0.09,44.55v74.39c57.3,0.05,116.5,0.12,116.51,0.12
			c0-0.56,0.05-1.05,0.08-1.56l76.54-1.91c0.03,0.48,0.09,0.98,0.14,1.53c2.83-0.12,18.18-1.92,21.65-2.32
			c3.68-0.79,6.45-2.97,6.42-6.62L766.97,214.17z"/>
		<path class="st24" d="M544.14,143.99h-55.51v24.68l-99.14,0.06l-45.02,20.09v27.07l18.34,6.01c0.06-0.52,0.15-1,0.24-1.53
			l77.68,4.59c0.06,0.53,0.11,1.01,0.14,1.56c11.61-0.07,101.75,0.02,103.27,0.02C544.14,226.44,544.14,147.09,544.14,143.99z"/>
	</g>
	<g id="Door">
		<path class="st19" d="M453.26,180.54h79.07v24.34h-79.07V180.54z M532.03,180.83h-78.48v23.75h78.48V180.83z"/>
		<rect x="487.35" y="197.32" class="st12" width="10.89" height="4.91"/>
		<path d="M488.12,198.1h9.34v3.36h-9.34V198.1z M497.24,198.32h-8.9v2.92h8.9V198.32z"/>
		<rect x="488.34" y="200.32" width="8.9" height="0.92"/>
	</g>
	<g id="Chassis">
		<path d="M734.69,204.91c-3.03-7.72-9.37-13.76-17.29-16.23c-8.24-2.57-18.05-2.6-28.35-1.08c-7.48,1.11-14.23,5.16-18.58,11.35
			c-4.79,6.81-7.65,14.7-8.33,26.15l76.51-1.91C737.96,215.86,736.86,210.42,734.69,204.91z"/>
		<path d="M440.74,224.97l-77.8-4.59c1.62-10.25,4.26-17.54,8.74-23.9c4.36-6.18,11.11-10.24,18.6-11.34
			c10.3-1.52,20.09-1.51,28.34,1.07c7.92,2.46,14.27,8.52,17.28,16.21C438.47,208.95,439.97,215.35,440.74,224.97z"/>
		<rect x="544.14" y="194.28" width="1.52" height="32.25"/>
		<path class="st6" d="M369.43,200.02c-0.81,1.37-2.52,4.68-3.88,8.94c-1.15,3.62-2.11,8.07-2.72,12.75
			c-0.68,5.26-1,10.81-0.43,15.82c0.02,0.16-0.09,0.3-0.25,0.34c-0.81,0.17-1.7-0.21-1.95-1c-1.75-5.42-2.53-10.21-2.79-16.73
			c2.77-5.67,4.8-13.43,9.8-19.28C367.54,200.48,368.63,200.02,369.43,200.02z"/>
		<path class="st6" d="M664.22,212.37c-0.98,4.03-1.84,9.03-2.07,14.79c-0.19,4.72,0.08,9.62,0.52,13.19
			c0.02,0.14-0.07,0.26-0.21,0.29c-0.69,0.15-1.4-0.2-1.7-0.84c-0.82-1.78-1.91-11.28-2.28-13.12c1.05-5.5,2.73-8.92,4.57-13.59
			c0.17-0.44,0.61-0.72,1.09-0.73L664.22,212.37z"/>
		<g>
			<path class="st13" d="M666.34,222.72c0,18.82,15.25,34.07,34.07,34.07c18.82,0,34.07-15.25,34.07-34.07s-15.25-34.07-34.07-34.07
				C681.6,188.65,666.34,203.91,666.34,222.72z"/>
			<path class="st1" d="M700.56,239.88c-9.61,0.08-17.23-7.69-17.3-17.01c-0.09-9.46,7.54-17.22,17.01-17.3
				c9.61-0.08,17.23,7.69,17.3,17.01C717.65,232.05,710.03,239.8,700.56,239.88z"/>
			<path class="st2" d="M700.25,203.09c-10.85,0.09-19.57,8.97-19.47,19.8c0.08,10.67,8.8,19.56,19.8,19.47
				c10.85-0.09,19.57-8.97,19.47-19.8C719.97,211.89,711.25,203,700.25,203.09z M700.57,239.88c-9.61,0.08-17.23-7.69-17.3-17.01
				c-0.09-9.46,7.54-17.22,17.01-17.3c9.61-0.08,17.23,7.69,17.3,17.01C717.67,232.05,710.05,239.8,700.57,239.88z"/>
			
				<ellipse transform="matrix(0.9758 -0.2185 0.2185 0.9758 -31.7397 158.4056)" class="st2" cx="700.41" cy="222.72" rx="8.84" ry="8.84"/>
			<path class="st15" d="M700.41,193.76c15.49,0,28.67,9.84,33.65,23.61c-2.57-16.28-16.66-28.72-33.65-28.72
				c-17,0-31.09,12.45-33.65,28.72C671.74,203.6,684.93,193.76,700.41,193.76z"/>
			<path class="st16" d="M700.41,251.69c-15.49,0-28.67-9.84-33.65-23.61c2.57,16.28,16.66,28.72,33.65,28.72
				c17,0,31.09-12.45,33.65-28.72C729.09,241.84,715.9,251.69,700.41,251.69z"/>
			<path class="st1" d="M700.25,204.59c7.73-0.06,14.4,4.04,18.08,10.1c-3.07-6.83-9.95-11.66-18.07-11.6
				c-7.92,0.07-14.71,4.82-17.76,11.6C686.14,208.69,692.71,204.65,700.25,204.59z"/>
			<path class="st17" d="M700.58,240.86c-7.73,0.06-14.4-4.04-18.08-10.1c3.07,6.83,9.95,11.66,18.07,11.6
				c7.92-0.07,14.71-4.82,17.76-11.6C714.69,236.76,708.12,240.8,700.58,240.86z"/>
			<path class="st14" d="M699.98,237.57c-8.06-0.2-14.65-5.76-16.61-13.1c0.87,8.59,8.16,15.48,17.21,15.41
				c8.84-0.07,16.06-6.83,16.92-15.41C715.34,232.58,707.74,237.88,699.98,237.57z"/>
			<path class="st14" d="M700.88,207.88c8.06,0.2,14.65,5.76,16.61,13.1c-0.87-8.59-8.16-15.48-17.21-15.41
				c-8.84,0.07-16.06,6.83-16.92,15.41C685.52,212.87,693.12,207.57,700.88,207.88z"/>
			<path class="st19" d="M707.2,218.91c0.89,0.89,1.57,1.92,2.04,3.02c-0.18-1.99-1.03-3.93-2.55-5.45c-3.45-3.45-9.05-3.45-12.5,0
				c-1.52,1.52-2.37,3.46-2.55,5.45c0.47-1.1,1.14-2.12,2.04-3.02C697.4,215.17,703.46,215.17,707.2,218.91z"/>
			<path d="M697.7,220.01c-1.5,1.5-1.5,3.93,0,5.43c1.5,1.5,3.93,1.5,5.43,0c1.5-1.5,1.5-3.93,0-5.43
				C701.63,218.51,699.2,218.51,697.7,220.01z"/>
			<path class="st3" d="M698.09,220.41c-1.28,1.28-1.28,3.36,0,4.64c1.28,1.28,3.36,1.28,4.64,0c1.28-1.28,1.28-3.36,0-4.64
				C701.45,219.12,699.38,219.12,698.09,220.41z"/>
			<path class="st1" d="M703.7,222.54c-0.16-0.51-0.44-0.99-0.84-1.39c-0.33-0.33-0.71-0.58-1.12-0.76
				c-0.41-0.17-0.86-0.26-1.32-0.26c-0.92,0-1.79,0.36-2.44,1.02c-0.4,0.4-0.68,0.88-0.84,1.39c0.05-0.78,0.37-1.53,0.95-2.13
				c0.62-0.63,1.45-0.97,2.33-0.97c0.44,0,0.86,0.09,1.26,0.25c0.39,0.17,0.76,0.41,1.07,0.72
				C703.33,221.01,703.64,221.77,703.7,222.54z"/>
			<path class="st7" d="M703.7,222.91c-0.16,0.51-0.44,0.99-0.84,1.39c-0.33,0.33-0.71,0.58-1.12,0.76
				c-0.41,0.17-0.86,0.26-1.32,0.26c-0.92,0-1.79-0.36-2.44-1.02c-0.4-0.4-0.68-0.88-0.84-1.39c0.05,0.78,0.37,1.53,0.95,2.13
				c0.62,0.63,1.45,0.97,2.33,0.97c0.44,0,0.86-0.09,1.26-0.25c0.39-0.17,0.76-0.41,1.07-0.72
				C703.33,224.44,703.64,223.68,703.7,222.91z"/>
			<path d="M700.41,208.95c1.78,0,3.33-1.31,3.69-2.97c-1.23-0.27-2.51-0.42-3.83-0.41c-1.22,0.01-2.4,0.15-3.55,0.4
				C697.08,207.64,698.6,208.95,700.41,208.95z"/>
			<path d="M690.68,212.99c1.26-1.26,1.43-3.27,0.51-4.7c-2.09,1.34-3.88,3.12-5.22,5.21C687.4,214.41,689.39,214.27,690.68,212.99z
				"/>
			<path d="M686.64,222.72c0-1.78-1.31-3.33-2.97-3.69c-0.27,1.23-0.42,2.51-0.41,3.83c0.01,1.21,0.15,2.4,0.4,3.55
				C685.33,226.06,686.64,224.54,686.64,222.72z"/>
			<path d="M690.68,232.46c-1.26-1.26-3.27-1.43-4.7-0.51c1.34,2.09,3.11,3.87,5.21,5.22C692.1,235.74,691.96,233.74,690.68,232.46z
				"/>
			<path d="M700.41,236.5c-1.78,0-3.33,1.31-3.69,2.97c1.23,0.27,2.51,0.42,3.83,0.41c1.22-0.01,2.4-0.15,3.55-0.4
				C703.75,237.81,702.23,236.5,700.41,236.5z"/>
			<path d="M710.15,232.46c-1.26,1.26-1.43,3.27-0.51,4.7c2.09-1.34,3.88-3.12,5.22-5.21C713.43,231.03,711.43,231.18,710.15,232.46
				z"/>
			<path d="M714.19,222.72c0,1.78,1.31,3.33,2.97,3.69c0.27-1.23,0.42-2.51,0.41-3.83c-0.01-1.21-0.15-2.4-0.4-3.55
				C715.5,219.39,714.19,220.91,714.19,222.72z"/>
			<path d="M710.15,212.99c1.26,1.26,3.27,1.43,4.7,0.51c-1.34-2.09-3.11-3.87-5.21-5.22C708.72,209.71,708.87,211.7,710.15,212.99z
				"/>
			<polygon class="st6" points="700.9,216.22 699.97,216.22 699.5,217.02 699.97,217.83 700.9,217.83 701.36,217.02 			"/>
			<polygon class="st6" points="696.16,217.78 695.5,218.44 695.74,219.34 696.64,219.58 697.29,218.92 697.05,218.02 			"/>
			<polygon class="st6" points="693.91,222.24 693.91,223.17 694.71,223.63 695.52,223.17 695.52,222.24 694.71,221.78 			"/>
			<polygon class="st6" points="695.47,226.98 696.13,227.64 697.03,227.4 697.27,226.5 696.61,225.85 695.71,226.09 			"/>
			<polygon class="st6" points="699.93,229.23 700.86,229.23 701.32,228.43 700.86,227.62 699.93,227.62 699.47,228.43 			"/>
			<polygon class="st6" points="704.67,227.66 705.33,227.01 705.09,226.11 704.19,225.87 703.54,226.53 703.78,227.42 			"/>
			<polygon class="st6" points="706.92,223.21 706.92,222.28 706.11,221.81 705.31,222.28 705.31,223.21 706.11,223.67 			"/>
			<polygon class="st6" points="705.35,218.47 704.7,217.81 703.8,218.05 703.56,218.95 704.22,219.6 705.11,219.36 			"/>
		</g>
		<g>
			<path class="st13" d="M367.43,222.72c0,18.82,15.25,34.07,34.07,34.07c18.82,0,34.07-15.25,34.07-34.07s-15.25-34.07-34.07-34.07
				C382.69,188.65,367.43,203.91,367.43,222.72z"/>
			<path class="st1" d="M401.65,239.88c-9.61,0.08-17.23-7.69-17.3-17.01c-0.09-9.46,7.54-17.22,17.01-17.3
				c9.61-0.08,17.23,7.69,17.3,17.01C418.75,232.05,411.12,239.8,401.65,239.88z"/>
			<path class="st2" d="M401.34,203.09c-10.85,0.09-19.57,8.97-19.47,19.8c0.08,10.67,8.8,19.56,19.8,19.47
				c10.85-0.09,19.57-8.97,19.47-19.8C421.06,211.89,412.34,203,401.34,203.09z M401.66,239.88c-9.61,0.08-17.23-7.69-17.3-17.01
				c-0.09-9.46,7.54-17.22,17.01-17.3c9.61-0.08,17.23,7.69,17.3,17.01C418.76,232.05,411.14,239.8,401.66,239.88z"/>
			
				<ellipse transform="matrix(0.9754 -0.2206 0.2206 0.9754 -39.2425 94.0617)" class="st2" cx="401.51" cy="222.72" rx="10.21" ry="10.21"/>
			<path class="st15" d="M401.51,193.76c15.49,0,28.67,9.84,33.65,23.61c-2.57-16.28-16.66-28.72-33.65-28.72
				c-17,0-31.09,12.45-33.65,28.72C372.83,203.6,386.02,193.76,401.51,193.76z"/>
			<path class="st16" d="M401.51,251.69c-15.49,0-28.67-9.84-33.65-23.61c2.57,16.28,16.66,28.72,33.65,28.72
				c17,0,31.09-12.45,33.65-28.72C430.18,241.84,416.99,251.69,401.51,251.69z"/>
			<path class="st1" d="M401.34,204.59c7.73-0.06,14.4,4.04,18.08,10.1c-3.07-6.83-9.95-11.66-18.07-11.6
				c-7.92,0.07-14.71,4.82-17.76,11.6C387.23,208.69,393.8,204.65,401.34,204.59z"/>
			<path class="st17" d="M401.67,240.86c-7.73,0.06-14.4-4.04-18.08-10.1c3.07,6.83,9.95,11.66,18.07,11.6
				c7.92-0.07,14.71-4.82,17.76-11.6C415.78,236.76,409.21,240.8,401.67,240.86z"/>
			<path d="M398.79,220.01c-1.5,1.5-1.5,3.93,0,5.43c1.5,1.5,3.93,1.5,5.43,0c1.5-1.5,1.5-3.93,0-5.43
				C402.72,218.51,400.29,218.51,398.79,220.01z"/>
			<path class="st2" d="M395.09,226.35c-0.85-0.85-1.49-1.83-1.94-2.87c0.17,1.89,0.98,3.74,2.43,5.19c3.28,3.28,8.61,3.28,11.89,0
				c1.45-1.45,2.26-3.29,2.43-5.19c-0.44,1.04-1.09,2.02-1.94,2.87C404.4,229.91,398.64,229.91,395.09,226.35z"/>
			<path class="st3" d="M399.19,220.41c-1.28,1.28-1.28,3.36,0,4.64c1.28,1.28,3.36,1.28,4.64,0c1.28-1.28,1.28-3.36,0-4.64
				C402.54,219.12,400.47,219.12,399.19,220.41z"/>
			<path class="st1" d="M404.79,222.54c-0.16-0.51-0.44-0.99-0.84-1.39c-0.33-0.33-0.71-0.58-1.12-0.76
				c-0.41-0.17-0.86-0.26-1.32-0.26c-0.92,0-1.79,0.36-2.44,1.02c-0.4,0.4-0.68,0.88-0.84,1.39c0.05-0.78,0.37-1.53,0.95-2.13
				c0.62-0.63,1.45-0.97,2.33-0.97c0.44,0,0.86,0.09,1.26,0.25c0.39,0.17,0.76,0.41,1.07,0.72
				C404.42,221.01,404.73,221.77,404.79,222.54z"/>
			<path class="st7" d="M404.79,222.91c-0.16,0.51-0.44,0.99-0.84,1.39c-0.33,0.33-0.71,0.58-1.12,0.76
				c-0.41,0.17-0.86,0.26-1.32,0.26c-0.92,0-1.79-0.36-2.44-1.02c-0.4-0.4-0.68-0.88-0.84-1.39c0.05,0.78,0.37,1.53,0.95,2.13
				c0.62,0.63,1.45,0.97,2.33,0.97c0.44,0,0.86-0.09,1.26-0.25c0.39-0.17,0.76-0.41,1.07-0.72
				C404.42,224.44,404.73,223.68,404.79,222.91z"/>
			<polygon class="st6" points="401.99,215.4 401.06,215.4 400.6,216.21 401.06,217.01 401.99,217.01 402.45,216.21 			"/>
			<polygon class="st6" points="396.67,217.21 396.01,217.86 396.25,218.76 397.15,219 397.81,218.34 397.57,217.45 			"/>
			<polygon class="st6" points="394.18,222.24 394.18,223.17 394.99,223.63 395.79,223.17 395.79,222.24 394.99,221.78 			"/>
			<polygon class="st6" points="395.99,227.56 396.64,228.22 397.54,227.98 397.78,227.08 397.12,226.42 396.23,226.66 			"/>
			<polygon class="st6" points="401.02,230.05 401.95,230.05 402.42,229.24 401.95,228.44 401.02,228.44 400.56,229.24 			"/>
			<polygon class="st6" points="406.34,228.24 407,227.59 406.76,226.69 405.86,226.45 405.21,227.11 405.45,228 			"/>
			<polygon class="st6" points="408.83,223.21 408.83,222.28 408.02,221.81 407.22,222.28 407.22,223.21 408.02,223.67 			"/>
			<polygon class="st6" points="407.02,217.89 406.37,217.23 405.47,217.47 405.23,218.37 405.89,219.03 406.78,218.78 			"/>
			<path class="st19" d="M418.66,222.58c0.02,2.18-0.37,4.27-1.1,6.2c0.21-3.43-2.18-5.89-5.84-6.04c0-2.62-0.99-5.24-2.99-7.24
				c-3.98-3.98-10.45-3.98-14.44,0c-2,2-3,4.62-3,7.24c-3.65,0.15-6.03,2.61-5.82,6.04c-0.7-1.85-1.1-3.85-1.11-5.91
				c-0.09-9.46,7.53-17.22,17.01-17.3C410.97,205.5,418.59,213.26,418.66,222.58z"/>
			<path d="M399.07,209.3c0-0.89,1.09-1.62,2.44-1.62c1.35,0,2.44,0.72,2.44,1.62C403.94,210.76,399.07,210.76,399.07,209.3z
				 M395.59,210.43c-0.52-0.72-1.83-0.67-2.92,0.12c-1.09,0.79-1.54,2.02-1.02,2.74C392.5,214.47,396.44,211.61,395.59,210.43z
				 M389.49,216.26c-0.85-0.28-1.87,0.54-2.29,1.82c-0.42,1.28-0.06,2.54,0.78,2.82C389.37,221.34,390.88,216.71,389.49,216.26z
				 M387.99,224.56c-0.85,0.28-1.2,1.54-0.78,2.82c0.42,1.28,1.44,2.09,2.29,1.82C390.88,228.74,389.37,224.11,387.99,224.56z
				 M391.65,232.15c-0.52,0.72-0.07,1.95,1.02,2.74c1.09,0.79,2.4,0.85,2.92,0.12C396.44,233.84,392.5,230.97,391.65,232.15z
				 M399.07,236.15c0,0.89,1.09,1.62,2.44,1.62c1.35,0,2.44-0.72,2.44-1.62C403.94,234.69,399.07,234.69,399.07,236.15z
				 M407.43,235.02c0.52,0.72,1.83,0.67,2.92-0.12c1.09-0.79,1.54-2.02,1.02-2.74C410.51,230.97,406.57,233.84,407.43,235.02z
				 M413.52,229.19c0.85,0.28,1.87-0.54,2.29-1.82c0.42-1.28,0.06-2.54-0.78-2.82C413.64,224.11,412.13,228.74,413.52,229.19z
				 M415.02,220.89c0.85-0.28,1.2-1.54,0.78-2.82c-0.42-1.28-1.44-2.09-2.29-1.82C412.13,216.71,413.64,221.34,415.02,220.89z
				 M411.37,213.3c0.52-0.72,0.07-1.95-1.02-2.74c-1.09-0.79-2.4-0.85-2.92-0.12C406.57,211.61,410.51,214.47,411.37,213.3z"/>
		</g>
	</g>
	<g id="Console">
		<path d="M500.46,163.14c0,0.3,0.24,0.55,0.55,0.55c0.36,0,0.6-0.24,0.6-0.55v-12.7c0-0.3-0.24-0.55-0.55-0.55
			c-0.36,0-0.6,0.24-0.6,0.55V163.14z"/>
		<path d="M505.81,163.14c0,0.3,0.24,0.55,0.55,0.55c0.36,0,0.6-0.24,0.6-0.55v-12.7c0-0.3-0.24-0.55-0.55-0.55
			c-0.36,0-0.6,0.24-0.6,0.55V163.14z"/>
		<path d="M511.15,163.14c0,0.3,0.24,0.55,0.55,0.55c0.36,0,0.6-0.24,0.6-0.55v-12.7c0-0.3-0.24-0.55-0.55-0.55
			c-0.36,0-0.6,0.24-0.6,0.55V163.14z"/>
		<path d="M516.49,163.14c0,0.3,0.24,0.55,0.55,0.55c0.36,0,0.6-0.24,0.6-0.55v-12.7c0-0.3-0.24-0.55-0.55-0.55
			c-0.36,0-0.6,0.24-0.6,0.55V163.14z"/>
		<path d="M521.84,163.14c0,0.3,0.24,0.55,0.55,0.55c0.36,0,0.6-0.24,0.6-0.55v-12.7c0-0.3-0.24-0.55-0.55-0.55
			c-0.36,0-0.6,0.24-0.6,0.55V163.14z"/>
		<path class="st25" d="M528.28,152.16c0,0.57,0.46,1.03,1.03,1.03s1.03-0.46,1.03-1.03s-0.46-1.03-1.03-1.03
			S528.28,151.59,528.28,152.16z"/>
		<path class="st25" d="M533.21,152.16c0,0.57,0.46,1.03,1.03,1.03c0.57,0,1.03-0.46,1.03-1.03s-0.46-1.03-1.03-1.03
			C533.67,151.13,533.21,151.59,533.21,152.16z"/>
		<path class="st20" d="M528.28,156.78c0,0.57,0.46,1.03,1.03,1.03s1.03-0.46,1.03-1.03c0-0.57-0.46-1.03-1.03-1.03
			S528.28,156.22,528.28,156.78z"/>
		<path class="st20" d="M533.21,156.78c0,0.57,0.46,1.03,1.03,1.03c0.57,0,1.03-0.46,1.03-1.03c0-0.57-0.46-1.03-1.03-1.03
			C533.67,155.75,533.21,156.22,533.21,156.78z"/>
		<path class="st26" d="M528.28,161.41c0,0.57,0.46,1.03,1.03,1.03s1.03-0.46,1.03-1.03c0-0.57-0.46-1.03-1.03-1.03
			S528.28,160.84,528.28,161.41z"/>
		<path class="st26" d="M533.21,161.41c0,0.57,0.46,1.03,1.03,1.03c0.57,0,1.03-0.46,1.03-1.03c0-0.57-0.46-1.03-1.03-1.03
			C533.67,160.38,533.21,160.84,533.21,161.41z"/>
		<rect x="525.86" y="147.51" class="st19" width="0.3" height="17.69"/>
		<path class="st19" d="M497.3,147.21h39.69v18.29H497.3V147.21z M536.69,147.51h-39.1v17.69h39.1V147.51z"/>
		<path class="st14" d="M501.34,154.61v5.04c0,0.53-0.65,0.53-0.65,0v-5.06L501.34,154.61z"/>
		<path class="st3" d="M499.56,153.16c0,0.82,0.66,1.48,1.48,1.48c0.82,0,1.48-0.66,1.48-1.48s-0.66-1.48-1.48-1.48
			C500.22,151.68,499.56,152.34,499.56,153.16z"/>
		<path class="st2" d="M500.62,152.69c0,0.38,0.31,0.68,0.68,0.68c0.38,0,0.68-0.31,0.68-0.68c0-0.38-0.31-0.68-0.68-0.68
			C500.93,152.01,500.62,152.31,500.62,152.69z"/>
		<g>
			<path class="st14" d="M506.69,154.61v5.04c0,0.53-0.65,0.53-0.65,0v-5.06L506.69,154.61z"/>
			<path class="st3" d="M504.9,153.16c0,0.82,0.66,1.48,1.48,1.48c0.82,0,1.48-0.66,1.48-1.48s-0.66-1.48-1.48-1.48
				C505.57,151.68,504.9,152.34,504.9,153.16z"/>
			<path class="st2" d="M505.97,152.69c0,0.38,0.31,0.68,0.68,0.68c0.38,0,0.68-0.31,0.68-0.68c0-0.38-0.31-0.68-0.68-0.68
				C506.27,152.01,505.97,152.31,505.97,152.69z"/>
		</g>
		<g>
			<path class="st14" d="M512.03,154.61v5.04c0,0.53-0.65,0.53-0.65,0v-5.06L512.03,154.61z"/>
			<path class="st3" d="M510.25,153.16c0,0.82,0.66,1.48,1.48,1.48c0.82,0,1.48-0.66,1.48-1.48s-0.66-1.48-1.48-1.48
				C510.91,151.68,510.25,152.34,510.25,153.16z"/>
			<path class="st2" d="M511.31,152.69c0,0.38,0.31,0.68,0.68,0.68s0.68-0.31,0.68-0.68c0-0.38-0.31-0.68-0.68-0.68
				S511.31,152.31,511.31,152.69z"/>
		</g>
		<g>
			<path class="st14" d="M517.37,154.61v5.04c0,0.53-0.65,0.53-0.65,0v-5.06L517.37,154.61z"/>
			<path class="st3" d="M515.59,153.16c0,0.82,0.66,1.48,1.48,1.48c0.82,0,1.48-0.66,1.48-1.48s-0.66-1.48-1.48-1.48
				C516.25,151.68,515.59,152.34,515.59,153.16z"/>
			<path class="st2" d="M516.65,152.69c0,0.38,0.31,0.68,0.68,0.68c0.38,0,0.68-0.31,0.68-0.68c0-0.38-0.31-0.68-0.68-0.68
				C516.96,152.01,516.65,152.31,516.65,152.69z"/>
		</g>
		<g>
			<path class="st14" d="M522.71,154.61v5.04c0,0.53-0.65,0.53-0.65,0v-5.06L522.71,154.61z"/>
			<path class="st3" d="M520.93,153.16c0,0.82,0.66,1.48,1.48,1.48c0.82,0,1.48-0.66,1.48-1.48s-0.66-1.48-1.48-1.48
				C521.59,151.68,520.93,152.34,520.93,153.16z"/>
			<path class="st2" d="M521.99,152.69c0,0.38,0.31,0.68,0.68,0.68c0.38,0,0.68-0.31,0.68-0.68c0-0.38-0.31-0.68-0.68-0.68
				C522.3,152.01,521.99,152.31,521.99,152.69z"/>
		</g>
	</g>
	<g id="Back_Lamp">
		<rect x="343.73" y="197.68" class="st3" width="0.74" height="10.31"/>
		<rect x="343.73" y="197.68" class="st2" width="0.74" height="5.21"/>
		<path class="st22" d="M343.73,207.85h-1.61c-0.49,0-0.88-0.39-0.88-0.88v-8.26c0-0.49,0.4-0.88,0.88-0.88h1.61V207.85z"/>
		<path class="st20" d="M343.73,207.85h-0.7c-0.39,0-0.7-0.31-0.7-0.7v-6.81c0-0.39,0.31-0.7,0.7-0.7h0.7V207.85z"/>
	</g>
	<g id="Side_Lamps">
		<path class="st14" d="M356.72,191.18c-0.59-0.5-1.35-0.8-2.18-0.8c-0.83,0-1.59,0.3-2.18,0.8c-0.63,0.54-1.07,1.31-1.17,2.18
			c0.1,0.87,0.54,1.64,1.17,2.18c-0.39-0.49-0.63-1.1-0.63-1.78c0-0.14,0.01-0.27,0.03-0.4c0.2-1.36,1.37-2.42,2.79-2.42
			c1.42,0,2.59,1.05,2.79,2.42c0.02,0.13,0.03,0.26,0.03,0.4c0,0.67-0.24,1.29-0.63,1.78c0.63-0.54,1.07-1.31,1.17-2.18
			C357.79,192.49,357.36,191.72,356.72,191.18z"/>
		<g>
			<path class="st27" d="M351.73,193.76c0,1.55,1.26,2.81,2.81,2.81c1.55,0,2.81-1.26,2.81-2.81c0-1.55-1.26-2.81-2.81-2.81
				C352.99,190.94,351.73,192.2,351.73,193.76z"/>
			<g>
				<path class="st28" d="M355.6,191.53v1.27c-0.07-0.03-0.15-0.05-0.23-0.07v-1.29C355.44,191.46,355.52,191.49,355.6,191.53z"/>
				<path class="st29" d="M355.36,191.43v1.29c-0.08-0.02-0.15-0.04-0.23-0.05v-1.31C355.21,191.38,355.29,191.41,355.36,191.43z"/>
				<path class="st29" d="M354.89,191.32v1.32c-0.08-0.01-0.15-0.01-0.23-0.02v-1.32C354.74,191.3,354.82,191.31,354.89,191.32z"/>
				<path class="st29" d="M355.83,191.66v1.24c-0.07-0.04-0.15-0.07-0.23-0.1v-1.27C355.68,191.57,355.76,191.61,355.83,191.66z"/>
				<path class="st28" d="M355.13,191.36v1.31c-0.08-0.01-0.15-0.03-0.23-0.03v-1.32C354.97,191.33,355.05,191.34,355.13,191.36z"/>
				<path class="st28" d="M356.54,192.31v1.09c-0.07-0.07-0.15-0.14-0.23-0.21v-1.16C356.39,192.12,356.46,192.21,356.54,192.31z"/>
				<path class="st28" d="M357.01,193.76c0,0.27-0.05,0.15-0.23-0.08v-0.96C356.92,193.03,357.01,193.38,357.01,193.76z"/>
				<path class="st29" d="M356.77,192.71v0.96c-0.06-0.08-0.14-0.17-0.23-0.27v-1.09C356.63,192.44,356.71,192.57,356.77,192.71z"/>
				<path class="st28" d="M354.54,191.29c0.04,0,0.08,0,0.12,0.01v1.32c-0.04,0-0.08,0-0.12,0c-0.04,0-0.08,0-0.12,0v-1.32
					C354.46,191.29,354.5,191.29,354.54,191.29z"/>
				<path class="st29" d="M356.3,192.03v1.16c-0.07-0.06-0.15-0.11-0.23-0.17v-1.21C356.15,191.89,356.23,191.96,356.3,192.03z"/>
				<path class="st28" d="M356.07,191.82v1.21c-0.07-0.05-0.15-0.09-0.23-0.13v-1.24C355.91,191.71,355.99,191.76,356.07,191.82z"/>
				<path class="st29" d="M353.01,191.82v1.21c-0.09,0.05-0.16,0.11-0.23,0.17v-1.16C352.85,191.96,352.93,191.89,353.01,191.82z"/>
				<path class="st28" d="M353.25,191.66v1.24c-0.08,0.04-0.16,0.08-0.23,0.13v-1.21C353.09,191.76,353.17,191.71,353.25,191.66z"/>
				<path class="st28" d="M352.78,192.03v1.16c-0.09,0.07-0.17,0.14-0.23,0.21v-1.09C352.62,192.21,352.69,192.12,352.78,192.03z"/>
				<path class="st29" d="M354.42,191.3v1.32c-0.08,0-0.16,0.01-0.23,0.02v-1.32C354.27,191.31,354.34,191.3,354.42,191.3z"/>
				<path class="st28" d="M352.31,193.67c-0.19,0.24-0.23,0.35-0.23,0.08c0-0.37,0.09-0.73,0.23-1.05V193.67z"/>
				<path class="st29" d="M352.54,192.31v1.09c-0.1,0.1-0.17,0.19-0.23,0.27v-0.96C352.38,192.57,352.45,192.44,352.54,192.31z"/>
				<path class="st29" d="M353.95,191.36v1.31c-0.08,0.02-0.16,0.03-0.23,0.05v-1.29C353.8,191.41,353.87,191.38,353.95,191.36z"/>
				<path class="st28" d="M354.19,191.32v1.32c-0.08,0.01-0.16,0.02-0.23,0.03v-1.31C354.03,191.34,354.11,191.33,354.19,191.32z"/>
				<path class="st29" d="M353.48,191.53v1.27c-0.08,0.03-0.16,0.06-0.23,0.1v-1.24C353.32,191.61,353.4,191.57,353.48,191.53z"/>
				<path class="st28" d="M353.72,191.43v1.29c-0.08,0.02-0.16,0.05-0.23,0.07v-1.27C353.56,191.49,353.64,191.46,353.72,191.43z"/>
			</g>
			<path class="st30" d="M355.36,193.3v2.77c-0.08,0.03-0.15,0.05-0.23,0.07v-2.91C355.21,193.26,355.29,193.28,355.36,193.3z"/>
			<path class="st31" d="M355.6,193.4v2.58c-0.08,0.04-0.15,0.07-0.23,0.1v-2.77C355.45,193.33,355.52,193.37,355.6,193.4z"/>
			<path class="st30" d="M354.89,193.2v3c-0.08,0.01-0.16,0.02-0.23,0.02v-3.04C354.74,193.18,354.82,193.19,354.89,193.2z"/>
			<path class="st31" d="M355.13,193.24v2.91c-0.08,0.02-0.16,0.03-0.23,0.04v-3C354.97,193.21,355.05,193.22,355.13,193.24z"/>
			<path class="st30" d="M355.83,193.54v2.32c-0.08,0.05-0.15,0.09-0.23,0.13v-2.58C355.68,193.44,355.76,193.49,355.83,193.54z"/>
			<path class="st31" d="M356.41,194.11c0.04,0.05,0.08,0.1,0.13,0.15v0.94c-0.07,0.1-0.15,0.19-0.23,0.28v-1.51
				C356.34,194.02,356.38,194.07,356.41,194.11z"/>
			<path class="st31" d="M356.07,193.72v1.97c-0.07,0.06-0.15,0.11-0.23,0.16v-2.32C355.92,193.6,356,193.66,356.07,193.72z"/>
			<path class="st31" d="M356.9,194.46c-0.04,0.12-0.08,0.23-0.13,0.34v-0.38C356.81,194.44,356.85,194.45,356.9,194.46z"/>
			<path class="st30" d="M356.77,194.42v0.38c-0.07,0.14-0.14,0.27-0.23,0.4v-0.94C356.6,194.33,356.68,194.39,356.77,194.42z"/>
			<path class="st30" d="M356.3,193.97v1.51c-0.07,0.08-0.15,0.15-0.23,0.21v-1.97C356.16,193.81,356.24,193.89,356.3,193.97z"/>
			<path class="st31" d="M354.53,193.17c0.04,0,0.08,0,0.12,0.01v3.04c-0.04,0-0.08,0-0.12,0s-0.08,0-0.12,0v-3.04
				C354.46,193.17,354.5,193.17,354.53,193.17z"/>
			<path class="st31" d="M353.25,193.53v2.32c-0.08-0.05-0.16-0.11-0.23-0.16v-1.97C353.08,193.66,353.16,193.59,353.25,193.53z"/>
			<path class="st30" d="M353.01,193.72v1.97c-0.08-0.07-0.16-0.14-0.23-0.21v-1.51C352.84,193.89,352.92,193.81,353.01,193.72z"/>
			<path class="st31" d="M352.67,194.11c0.03-0.04,0.07-0.09,0.11-0.14v1.51c-0.09-0.09-0.16-0.18-0.23-0.28v-0.94
				C352.59,194.21,352.64,194.16,352.67,194.11z"/>
			<path class="st30" d="M352.54,194.26v0.94c-0.09-0.12-0.17-0.26-0.23-0.4v-0.38C352.4,194.39,352.48,194.33,352.54,194.26z"/>
			<path class="st30" d="M354.42,193.17v3.04c-0.08,0-0.16-0.01-0.23-0.02v-3C354.26,193.19,354.34,193.18,354.42,193.17z"/>
			<path class="st31" d="M352.31,194.42v0.38c-0.05-0.11-0.1-0.23-0.13-0.34C352.23,194.45,352.27,194.44,352.31,194.42z"/>
			<path class="st31" d="M354.19,193.19v3c-0.08-0.01-0.16-0.03-0.23-0.04v-2.91C354.03,193.22,354.11,193.21,354.19,193.19z"/>
			<path class="st30" d="M353.48,193.4v2.58c-0.08-0.04-0.16-0.08-0.23-0.13v-2.32C353.32,193.49,353.4,193.44,353.48,193.4z"/>
			<path class="st30" d="M353.95,193.23v2.91c-0.08-0.02-0.16-0.04-0.23-0.07v-2.78C353.79,193.28,353.87,193.25,353.95,193.23z"/>
			<path class="st31" d="M353.72,193.3v2.78c-0.08-0.03-0.16-0.06-0.23-0.1v-2.58C353.56,193.36,353.63,193.33,353.72,193.3z"/>
			<path class="st31" d="M355.36,195.84v0.23c-0.08,0.03-0.15,0.05-0.23,0.07v-0.24C355.21,195.89,355.29,195.87,355.36,195.84z"/>
			<path class="st29" d="M355.13,195.91v0.24c-0.08,0.02-0.16,0.03-0.23,0.04v-0.24C354.97,195.94,355.05,195.93,355.13,195.91z"/>
			<path class="st29" d="M355.6,195.76v0.23c-0.08,0.04-0.15,0.07-0.23,0.1v-0.23C355.44,195.82,355.52,195.79,355.6,195.76z"/>
			<path class="st31" d="M356.77,194.74v0.06c-0.07,0.14-0.14,0.27-0.23,0.4v-0.14C356.62,194.96,356.7,194.86,356.77,194.74z"/>
			<path class="st31" d="M355.83,195.64v0.22c-0.08,0.05-0.15,0.09-0.23,0.13v-0.23C355.68,195.72,355.76,195.68,355.83,195.64z"/>
			<path class="st29" d="M356.54,195.06v0.14c-0.07,0.1-0.15,0.19-0.23,0.28v-0.18C356.38,195.23,356.46,195.15,356.54,195.06z"/>
			<path class="st29" d="M356.85,194.6c-0.02,0.07-0.05,0.13-0.08,0.2v-0.06C356.8,194.7,356.83,194.65,356.85,194.6z"/>
			<path class="st31" d="M356.3,195.3v0.18c-0.07,0.08-0.15,0.15-0.23,0.21v-0.2C356.15,195.43,356.23,195.37,356.3,195.3z"/>
			<path class="st29" d="M356.07,195.49v0.2c-0.08,0.06-0.15,0.11-0.23,0.17v-0.22C355.91,195.59,355.99,195.54,356.07,195.49z"/>
			<path class="st31" d="M354.42,195.97v0.24c-0.08,0-0.16-0.01-0.23-0.02v-0.24C354.27,195.96,354.34,195.97,354.42,195.97z"/>
			<path class="st31" d="M353.48,195.76v0.23c-0.08-0.04-0.16-0.08-0.23-0.13v-0.22C353.32,195.68,353.4,195.72,353.48,195.76z"/>
			<path class="st31" d="M353.01,195.49v0.2c-0.08-0.07-0.16-0.14-0.23-0.21v-0.18C352.85,195.37,352.93,195.43,353.01,195.49z"/>
			<path class="st29" d="M353.25,195.64v0.22c-0.08-0.05-0.16-0.11-0.23-0.17v-0.2C353.09,195.54,353.17,195.59,353.25,195.64z"/>
			<path class="st31" d="M353.95,195.91v0.24c-0.08-0.02-0.16-0.04-0.23-0.07v-0.23C353.8,195.87,353.87,195.89,353.95,195.91z"/>
			<path class="st29" d="M353.72,195.84v0.23c-0.08-0.03-0.16-0.06-0.23-0.1v-0.23C353.56,195.79,353.64,195.82,353.72,195.84z"/>
			<path class="st29" d="M352.31,194.74v0.06c-0.03-0.06-0.06-0.13-0.08-0.2C352.25,194.65,352.28,194.7,352.31,194.74z"/>
			<path class="st29" d="M352.78,195.3v0.18c-0.08-0.09-0.16-0.18-0.23-0.28v-0.14C352.62,195.15,352.7,195.23,352.78,195.3z"/>
			<path class="st31" d="M352.54,195.06v0.14c-0.09-0.12-0.17-0.26-0.23-0.4v-0.06C352.38,194.86,352.46,194.96,352.54,195.06z"/>
			<path class="st29" d="M354.54,195.98c0.04,0,0.08,0,0.12,0v0.24c-0.04,0-0.08,0-0.12,0c-0.04,0-0.08,0-0.12,0v-0.24
				C354.46,195.97,354.5,195.98,354.54,195.98z"/>
			<path class="st29" d="M354.19,195.95v0.24c-0.08-0.01-0.16-0.03-0.23-0.04v-0.24C354.03,195.93,354.11,195.94,354.19,195.95z"/>
			<path class="st31" d="M354.89,195.95v0.24c-0.08,0.01-0.16,0.02-0.23,0.02v-0.24C354.74,195.97,354.82,195.96,354.89,195.95z"/>
			<path class="st29" d="M354.19,194.14v-0.78c0.07-0.06,0.15-0.1,0.23-0.12v1.03C354.34,194.25,354.26,194.21,354.19,194.14z"/>
			<path class="st32" d="M354.42,194.27v-1.03c0.08-0.02,0.16-0.02,0.23,0v1.03C354.58,194.29,354.5,194.29,354.42,194.27z"/>
			<path class="st32" d="M354.91,193.38c0.21,0.21,0.21,0.54,0,0.75c-0.01,0.01-0.01,0.01-0.02,0.02v-0.78
				C354.9,193.37,354.91,193.38,354.91,193.38z"/>
			<path class="st32" d="M354.17,194.13c-0.21-0.21-0.21-0.54,0-0.75c0.01-0.01,0.01-0.01,0.02-0.02v0.78
				C354.18,194.14,354.17,194.13,354.17,194.13z"/>
			<path class="st29" d="M354.66,193.24c0.09,0.02,0.17,0.06,0.23,0.12v0.78c-0.07,0.06-0.15,0.1-0.23,0.12V193.24z"/>
		</g>
		<g>
			<path class="st6" d="M671.93,169.99h-5.06c-0.48,0-0.87,0.39-0.87,0.87v1.81c0,0.48,0.39,0.87,0.87,0.87h5.06
				c0.48,0,0.87-0.39,0.87-0.87v-1.81C672.8,170.38,672.41,169.99,671.93,169.99z"/>
			<path class="st22" d="M672.59,170.86c0-0.36-0.29-0.65-0.65-0.65h-5.06c-0.36,0-0.65,0.29-0.65,0.65v0.97h6.37V170.86z"/>
			<path class="st20" d="M666.22,171.83v0.84c0,0.36,0.29,0.65,0.65,0.65h5.06c0.36,0,0.65-0.29,0.65-0.65v-0.84H666.22z"/>
		</g>
		<path class="st33" d="M357.92,193.76c0,1.86-1.51,3.38-3.38,3.38c-1.86,0-3.38-1.51-3.38-3.38c0-0.14,0.01-0.27,0.02-0.4
			c0.1,0.87,0.54,1.64,1.17,2.18c0.52,0.63,1.31,1.04,2.18,1.04c0.88,0,1.67-0.41,2.18-1.04c0.63-0.54,1.07-1.31,1.17-2.18
			C357.91,193.49,357.92,193.62,357.92,193.76z"/>
	</g>
	<g id="Head_Lamp">
		<path class="st1" d="M756.18,185.02l-5.46,0.05c-4.18,0.03-8.31-1.18-11.69-3.63c-4.24-3.08-7.81-7.37-12.22-12.42
			c-1.79-2.05-1.03-3.64,1.69-3.53l21.47,0.79C753.8,173.06,754.58,177.18,756.18,185.02z"/>
		<path class="st19" d="M748.26,175.85c0,0.55-0.01,1.08-0.03,1.59l-13.69,0.11c-2.5-2.47-4.95-5.36-7.73-8.55
			c-0.05-0.06-0.1-0.12-0.15-0.18l20.79-0.17C747.88,170.57,748.25,173.01,748.26,175.85z"/>
		<path class="st33" d="M747.45,168.45l-20.36-0.59c0.05,0.06-0.34,1.08-0.28,1.14c1.25,1.43,2.43,2.8,3.58,4.1h17.75
			C747.99,171.41,747.74,169.72,747.45,168.45z"/>
		<path class="st19" d="M752.54,182.72c0,0.83-0.04,1.61-0.11,2.33l-1.72,0.01c-4.18,0.03-8.3-1.18-11.69-3.63
			c-1.56-1.13-3.03-2.43-4.49-3.88l17.34-0.14C752.22,178.79,752.53,180.59,752.54,182.72z"/>
		<path class="st33" d="M751.88,177.41l-17.34,0.14c1.05,1.04,2.11,2,3.2,2.89h14.67C752.29,179.28,752.09,178.26,751.88,177.41z"/>
		<path class="st14" d="M728.19,165.47c0.22,0,21.55,0.79,21.77,0.8c0.45,0.79,0.84,1.53,1.21,2.26c-3.34,0.03,0.97,0.14-20.62-0.66
			c-0.94-0.03-1.21,0.52-0.59,1.23c3.68,4.22,6.86,7.86,10.43,10.46c5.14,3.73,9.93,3.18,15.31,3.13c0.15,0.74,0.31,1.51,0.48,2.33
			l-5.49,0.05c-4.16,0.03-8.27-1.17-11.64-3.61c-4.25-3.08-7.83-7.38-12.25-12.44C725.09,167.04,725.72,165.49,728.19,165.47z"/>
		<path class="st22" d="M736.52,168.67c0-0.32-0.25-0.59-0.57-0.6c-1.59-0.06-3.38-0.13-5.4-0.2c-0.94-0.04-1.21,0.52-0.59,1.23
			c0.71,0.81,1.39,1.6,2.07,2.36h4.49V168.67z"/>
		<path class="st20" d="M732.03,171.46c1.18,1.33,2.33,2.6,3.47,3.76c0.57,0.58,1.03,0.4,1.03-0.42v-3.35H732.03z"/>
		<path class="st33" d="M755.38,206.71c0.41-1.8,1.55-3.17,2.81-3.57c0.25-0.08,0.5-0.12,0.75-0.12h-2.62
			c-1.29,0.43-2.45,1.83-2.86,3.67c-0.04,0.16-0.06,0.32-0.09,0.48h1.93C755.32,207.01,755.35,206.86,755.38,206.71z"/>
		<path class="st14" d="M755.3,207.17h-1.93c-0.32,2.16,0.51,4.12,1.99,4.64H758c-0.29,0-0.58-0.06-0.73-0.12
			C755.81,211.2,754.98,209.28,755.3,207.17z"/>
		<path class="st14" d="M759.46,203.07c-1.45-0.33-2.97,0.79-3.74,2.6c0.74-0.65,1.61-0.96,2.47-0.77c1.71,0.39,2.65,2.64,2.11,5.04
			c-0.08,0.37-0.2,0.71-0.34,1.04c0.74-0.66,1.34-1.67,1.61-2.87C762.11,205.72,761.16,203.46,759.46,203.07z"/>
		<path class="st1" d="M758.19,204.9c-0.85-0.19-1.73,0.11-2.47,0.77c-0.14,0.33-0.25,0.67-0.34,1.04c-0.54,2.39,0.4,4.65,2.11,5.04
			c0.85,0.19,1.73-0.11,2.47-0.77c0.14-0.33,0.25-0.67,0.34-1.04C760.83,207.55,759.89,205.29,758.19,204.9z"/>
		<path class="st34" d="M757.12,204.18c-0.14-0.03-0.27-0.05-0.41-0.06c-0.37,0.4-0.7,0.9-0.95,1.47c1.54,0.35,2.48,1.97,2.11,3.62
			c-0.06,0.25-0.14,0.48-0.25,0.69c0.77-0.4,1.38-1.15,1.6-2.1C759.59,206.14,758.65,204.53,757.12,204.18z"/>
		<path class="st19" d="M755.76,205.59c-0.16,0.35-0.29,0.72-0.38,1.12c-0.28,1.25-0.16,2.47,0.27,3.4
			c0.03,0.01,0.07,0.02,0.11,0.03c0.65,0.15,1.29,0.04,1.85-0.25c0.1-0.22,0.19-0.45,0.25-0.69
			C758.23,207.55,757.29,205.94,755.76,205.59z"/>
	</g>
	<g id="Grille">
		<path d="M756.13,175.68l1.81,9.66c0.19,1.03,0.75,1.93,1.52,2.56c0.4,0.33,0.85,0.58,1.34,0.75c-0.46-7.59-1.07-12.6-2.08-19.38
			C756.69,170.71,755.67,173.22,756.13,175.68z"/>
		<path class="st3" d="M749.96,166.27c3.78,6.7,4.59,10.78,6.14,18.41l0.19,0.55c0.74,2.21,2.82,3.69,5.15,3.67l0.83-0.01
			c-1.06,0.01-2.05-0.37-2.81-1c-0.77-0.63-1.33-1.53-1.52-2.56l-1.81-9.66c-0.47-2.49,0.58-5.03,2.67-6.46
			c0.51-0.35,0.57-1.09,0.1-1.51c-1.44-1.3-3.21-2.51-5.22-3.65C751.92,164.38,751.04,164.97,749.96,166.27z"/>
		<path class="st33" d="M761.42,188.82c-2.31-0.22-4.21-1.9-4.73-4.16c-0.54-2.38-0.63-8.64-2.2-13.99
			c-0.44-1.51-1.18-3.05-1.85-4.69c-0.33-0.82,0.16-1.74,1.03-1.9l0.02,0c2.01,1.14,3.77,2.36,5.22,3.65
			c0.46,0.41,0.41,1.16-0.1,1.51c-2.09,1.43-3.13,3.96-2.67,6.45l1.81,9.66c0.2,1.03,0.75,1.93,1.52,2.56
			C760.02,188.36,760.69,188.68,761.42,188.82z"/>
		<path class="st3" d="M756.54,171.99c0.64,4.55,1.15,9.11,1.49,13.69c0.24,0.89,0.76,1.65,1.44,2.21c0.08,0.06,0.16,0.12,0.24,0.18
			c-0.36-6.02-1.03-12.04-1.91-18C757.26,170.64,756.84,171.29,756.54,171.99z"/>
		<path class="st3" d="M758.9,169.16c-0.3,0.19-0.57,0.41-0.82,0.64c0.93,6.14,1.61,12.31,1.98,18.51c0.29,0.17,0.61,0.3,0.94,0.4
			C760.62,182.17,759.89,175.63,758.9,169.16z"/>
		<path class="st2" d="M757.79,170.09c-0.22,0.23-0.41,0.47-0.59,0.72c0.8,5.51,1.41,11.06,1.77,16.62
			c0.15,0.17,0.32,0.33,0.49,0.48c0.08,0.06,0.16,0.12,0.24,0.18C759.34,182.06,758.68,176.04,757.79,170.09z"/>
		<path class="st2" d="M761,188.71c-0.37-6.54-1.1-13.08-2.09-19.55c-0.15,0.1-0.3,0.21-0.45,0.32c0.96,6.31,1.67,12.67,2.04,19.05
			C760.65,188.6,760.82,188.66,761,188.71z"/>
	</g>
	<g id="Handle_2_">
		<path class="st35" d="M576.71,168.54c2.36,2.14,8.94,2.4,11.97,0.38c-1.67-0.61-4.02-0.97-6.61-0.97
			C580.07,167.95,578.23,168.15,576.71,168.54z"/>
		<path class="st33" d="M576.59,173.88c1.53,0.41,3.41,0.61,5.49,0.61c2.67,0,5.08-0.39,6.76-1.03
			C585.81,171.35,579.06,171.52,576.59,173.88z"/>
		<path class="st33" d="M588.69,168.92c-2.19,1.48-6.94,1.88-10.17,0.63c-0.73-0.27-1.35-0.62-1.8-1.02
			c-2.44,0.65-3.82,1.64-3.84,2.67h18.44C591.3,170.33,590.3,169.51,588.69,168.92z"/>
		<path class="st35" d="M572.87,171.21c-0.02,0.96,1.14,1.93,3.72,2.67c2.42-2.33,9.27-2.52,12.25-0.41
			c1.52-0.59,2.47-1.37,2.47-2.25C591.31,171.21,572.87,171.21,572.87,171.21z"/>
	</g>
	<g id="Window">
		<path class="st6" d="M568.75,114.95l3.1,35.59c0.11,1.26,1.16,2.24,2.43,2.26l73.45,1.31c3.51,0.05,5.12-4.63,2.23-6.81
			c-1-0.75-27.9-21.64-34.77-26c-4.58-2.91-9.72-4.82-15.08-5.65c-9.61-1.5-19.27-2.51-28.95-3.17
			C569.78,112.38,568.63,113.56,568.75,114.95z M569.61,114.82c-0.07-0.83,0.63-1.54,1.46-1.48c10.35,0.71,19.84,1.75,28.9,3.17
			c5.31,0.83,10.28,2.69,14.75,5.53c2.72,1.72,8.79,6.16,18.11,13.24l0.14,17.71l-58.76-1.04c-0.79-0.01-1.44-0.62-1.5-1.4
			L569.61,114.82z"/>
		<path class="st36" d="M619.38,114.71l45.95,34.59l8.93-0.07c-19.85-14.96-35.96-27.15-54.81-37.34
			C618.47,112.56,618.43,114,619.38,114.71z"/>
		<path id="_x3C_Path_x3E__15_" class="st6" d="M677.62,148.77c0.07-0.62-0.25-1.23-0.82-1.51l-6.84-4.2l-2.58-0.07l-3.14,0.68
			l0.54,0.58l3.54-0.37l0.88,0.22l5.61,5.06C674.81,149.15,677.62,148.8,677.62,148.77z"/>
		<path class="st36" d="M569.61,114.82c-0.07-0.83,0.63-1.54,1.46-1.48c10.35,0.71,19.84,1.75,28.9,3.17
			c5.31,0.83,10.28,2.69,14.75,5.53c2.72,1.72,8.79,6.16,18.11,13.24l0.14,17.71l-58.76-1.04c-0.79-0.01-1.44-0.62-1.5-1.4
			L569.61,114.82z"/>
		<path class="st37" d="M669.49,145.64c-0.94,0.06-1.25,0.08-1.69,0.11c-3.1,0.21-6.18-0.71-8.67-2.58l-35.04-26.38
			c-0.64-0.48-0.81-1.37-0.38-2.05c0.06-0.1,0.14-0.22,0.22-0.35c-0.94-0.56-3.53-1.98-4.49-2.5c-0.97,0.68-1.01,2.11-0.06,2.82
			c5.23,3.94,40.23,30.29,45.96,34.6l8.93-0.07C672.64,148.01,671.06,146.82,669.49,145.64z"/>
		<path class="st37" d="M632.86,137.84c-0.14,0.09-0.25,0.22-0.31,0.38l-2.27,5.59l-2.85,0.2l2.29-5.5
			c0.39-0.94-0.16-2.05-1.21-2.26c-0.78-0.16-1.56,0.32-1.87,1.06l-6.43,15.45l12.78,0.23L632.86,137.84z"/>
		<path class="st37" d="M576.13,132.11c0.63-5.24-0.89-10.13-3.3-11.31c0,0-1.71-0.59-2.77-0.82l2.66,30.56
			c0.07,0.78,0.72,1.39,1.5,1.4l3.02,0.05l-5.16-10.68C574.32,140.28,575.58,136.69,576.13,132.11z"/>
		<path class="st38" d="M632.84,135.28c-9.33-7.08-15.4-11.52-18.11-13.24c-4.47-2.84-9.43-4.7-14.75-5.53
			c-9.07-1.42-18.55-2.46-28.9-3.17c-0.84-0.06-1.54,0.65-1.46,1.48l1.62,18.66l61.63,4.69L632.84,135.28z"/>
		<path class="st39" d="M628.5,136.25c-0.78-0.16-1.56,0.32-1.87,1.06l-0.16,0.38l3.36,0.26
			C629.87,137.17,629.35,136.42,628.5,136.25z"/>
		<path class="st39" d="M572.83,120.8c0,0-1.71-0.59-2.77-0.82l0.4,4.62l0.77,8.88l4.64,0.35c0.1-0.56,0.18-1.13,0.25-1.73
			C576.76,126.87,575.24,121.98,572.83,120.8z"/>
	</g>
	<g id="Mirror">
		<path id="_x3C_Path_x3E__7_" class="st24" d="M644.95,145.79c1.54,0.53,2.61,2.09,2.4,3.87c-0.21,1.76-1.75,3.14-3.53,3.17
			c-0.55,0.01-1.07-0.1-1.53-0.31l-7.97,0.07c-1.26,0.01-2.3-0.98-2.35-2.23l-0.55-12.9c-0.05-1.18,0.95-2.14,2.13-2.05l3.37,0.27
			c4.04,0.33,7.29,3.47,7.74,7.51L644.95,145.79z"/>
		<path class="st7" d="M642.28,152.51c0.47,0.21,0.99,0.32,1.54,0.31c1.77-0.03,3.32-1.41,3.53-3.17c0.21-1.78-0.86-3.33-2.4-3.87
			l0.43,3.88c0.17,1.51-1,2.83-2.52,2.84L642.28,152.51z"/>
		<path class="st2" d="M644.65,143.18c-0.45-4.03-3.7-7.18-7.74-7.51l-3.37-0.27c-1.18-0.1-2.18,0.86-2.13,2.05l0.28,6.66
			c0,3.19,13.06,3.19,13.06,0L644.65,143.18z"/>
		<path class="st33" d="M640.05,138.93c-0.13-0.52-0.79-1.33-2.01-1.79c-0.95-0.36-2.6-0.53-3.57-0.19
			c-0.45,0.15-0.94,0.51-1.25,0.94c-0.8,1.09-0.8,2.58-0.49,6.22c0.04,0.49,0.09,0.98,0.14,1.45c0.15,1.34,0.35,2.6,0.69,3.79
			c0.1,0.31,0.36,1.09,0.68,1.09c0.32-0.01,0.52-0.79,0.6-1.1c0.15-0.74,0.3-1.66,0.38-3.07c0.04-0.62,0.06-1.32,0.07-2.15
			c0.02-1.5-0.01-2.22-0.06-3.77c-0.02-0.86-0.24-1.52,2.35-1.35c1,0.06,1.64,0.36,2.08,0.53c0.17,0.06,0.34,0.07,0.41-0.1
			C640.13,139.27,640.1,139.08,640.05,138.93z"/>
	</g>
	<g id="Bump">
		<path class="st35" d="M765.56,219.75c-1.16,1.33-2.93,2.21-5,2.65c-3.47,0.39-18.81,2.2-21.64,2.32
			c-0.05-0.54-0.11-1.04-0.14-1.53l-0.13,0c-0.01-0.15-0.03-0.29-0.04-0.43L765.56,219.75z"/>
		<path class="st33" d="M762.78,218.07c3.81-0.44,3.31,1.07,2.78,1.68l-26.95,3c0-0.01,0-0.01,0-0.02
			c-0.11-1.08,0.67-2.05,1.75-2.17L762.78,218.07z"/>
		<path class="st35" d="M544.14,224.54v1.99c-1.51,0-91.66-0.09-103.26-0.01c-0.03-0.55-0.08-1.03-0.14-1.56
			c-0.01-0.15-0.02-0.29-0.04-0.43L544.14,224.54z"/>
		<path class="st33" d="M544.14,224.54l-103.44-0.02c0-0.01,0-0.01,0-0.02c-0.09-1.06,0.74-1.97,1.81-1.97l99.64,0.02
			C543.25,222.55,544.14,223.44,544.14,224.54z"/>
	</g>
	<g id="Shadow">
		<path class="st14" d="M747.39,201.27l17.78,0.63c0-0.48,1.73-0.98,1.72-1.46l-18.53-0.55
			C747.63,199.86,747.12,200.6,747.39,201.27z"/>
		<path class="st35" d="M551.75,226.52V123.15c0-4.41-2.29-8.51-6.05-10.82c0,0-0.04,94.37-0.04,114.19H551.75z"/>
		<polygon class="st35" points="544.14,168.67 543.38,168.67 543.38,144.75 544.14,143.99 		"/>
		<path class="st35" d="M366.78,201.38c-4.34,5.36-6.37,12.17-8.78,17.52c-0.22,0.43-0.41,0.85-0.58,1.23l-12.19-4v-14.75H366.78z"
			/>
		<path class="st19" d="M347.04,210.52c0.35-0.68,1.18-0.95,1.86-0.6c0.68,0.35,0.94,1.18,0.6,1.86c-0.35,0.68-1.18,0.94-1.86,0.6
			C346.97,212.03,346.7,211.2,347.04,210.52z M346.8,210.4c-0.42,0.81-0.09,1.81,0.72,2.22c0.81,0.42,1.81,0.09,2.23-0.72
			c0.42-0.81,0.09-1.81-0.72-2.23C348.22,209.27,347.22,209.59,346.8,210.4z"/>
	</g>
	<g id="Highlight">
		<path class="st33" d="M680.72,148.33c18.42,5.32,53.48,6.24,69.25,17.94c1.14-1.29,1.95-1.88,3.72-2.21
			c-21.71-12.32-72.78-15.76-72.78-15.76L680.72,148.33z"/>
		<path class="st33" d="M744.49,192.84c1.38,0.34,2.48,0.54,3.91,0.72c3,0.36,5.91,0.42,9.14,0.41c0.32,0,3.78-0.02,4.53-0.03
			c0.99-0.04,3.3-0.02,3.31-2.46c0-0.51-0.12-1.03-0.41-1.45c-0.53-0.74-1.39-0.83-1.94-0.9c-2.46-0.17-8.57,0.26-13.66-0.27
			c-4.29-0.4-6.52-1.27-9.63-1.46c-0.99-0.06-3.05-0.08-3.33,0.87c-0.27,0.93,1.48,1.96,2.35,2.42
			C740.14,191.4,742.58,192.35,744.49,192.84z"/>
		<path class="st33" d="M751.05,214.16H767c-0.07-0.42-1.73-0.85-1.74-1.3c0,0-12.57,0.3-12.57,0.3
			C751.85,213.19,751.34,213.72,751.05,214.16z"/>
		<path class="st33" d="M442.84,213.18c0.79,0,1.42-0.67,1.38-1.46c-0.26-4.71-0.85-8.12-1.67-11.84
			c-1.68-6.99-5.44-13.07-11.29-17.99c-4.03-3.3-7.96-5.13-12.41-6.46c-8.97-2.71-18.8-2.62-28.18-0.97
			c-2.57,0.5-7.85,1.32-13.79,5.13c-4.31,2.75-7.89,6.39-10.65,10.94c-1.2,2.14-2.14,4.06-2.98,6.32c-0.55,1.47,0.55,3.05,2.12,3.05
			c0.99-1.93,2.1-3.75,3.33-5.51c4.88-6.92,12.55-11.6,21.04-12.84c9.73-1.43,20.48-1.76,29.95,1.2c8.84,2.74,16.16,9.6,19.58,18.35
			C440.84,205.07,441.99,208.93,442.84,213.18z"/>
		<polygon class="st33" points="489.37,144.75 489.37,143.99 544.14,143.99 543.38,144.75 		"/>
		<polygon class="st33" points="345.23,216.13 344.47,215.88 344.47,188.81 345.23,188.48 		"/>
		<rect x="488.62" y="143.98" class="st33" width="0.76" height="24.69"/>
		<path class="st33" d="M647.01,209.72c-24.9,0.08-43.15,0.26-67.8-0.22c-5.71-0.11-11.64-3.79-13.18-7.97
			c0.1,3.35,1.49,6.59,3.87,8.96c3.62,3.62,8.03,3.87,12.86,3.87h69.82L647.01,209.72z"/>
		<path class="st33" d="M527.46,209.72c-24.9,0.08-43.15,0.26-67.8-0.22c-5.71-0.11-11.64-3.79-13.18-7.97
			c0.1,3.35,1.49,6.59,3.87,8.96c3.62,3.62,8.03,3.87,12.86,3.87h69.82L527.46,209.72z"/>
		<path class="st33" d="M619.44,111.88c-3.85-2.04-7.14-3.39-10.22-4.35c-3.11-0.9-6.97-1.73-11.89-2.32
			c-11.91-1.44-28.52-2.67-43.85-3.07c-3.18-0.09-7.71,2.2-7.73,5.45l-0.01,3.02c0.88-2.07,3.36-2.85,4.94-2.87
			c11.48-0.23,46.88,1.36,57.93,4.5c4.06,1.15,7.36,1.01,7.36,1.01C617.89,113.25,619.14,112.1,619.44,111.88z"/>
		<path class="st33" d="M739.83,208.79c-0.5-1.78-1.09-3.49-1.76-5.21c-3.49-8.88-10.63-15.57-19.59-18.37
			c-4.82-1.5-10.35-2.27-16.45-2.27c-4.18,0-8.73,0.36-13.51,1.06c-8.5,1.26-16.16,5.94-21.02,12.85
			c-2.62,3.72-4.62,7.63-6.07,11.93c-1.41,0-2.48-1.28-2.22-2.67c0.67-3.62,1.62-6.53,2.94-9.68c2.15-5.31,5.78-10,10.28-13.53
			c4.43-3.49,10.46-5.93,17.08-7.23c1.81-0.35,2.19-1.67,0.84-2.92c-2.84-2.61-6.15-3.97-11.7-4.7
			c-12.54-1.87-62.73-2.8-102.33-3.56c-8.93,0.14-17.9-1.89-22.44-6.6c-1.19-1.24-0.76-2.22,0.95-2.19l105.7,1.94
			c34.17,1.08,52.4,2.14,74.1,8.04c-3.55-0.13-6.35-0.23-6.44-0.23c-2.47,0.02-3.11,1.57-1.38,3.54c0.89,1.02,1.76,2.02,2.59,2.97
			c-5.44-0.13-9.11,0.17-12.88,1.22c-3.36,0.94-3.39,2.49-0.03,3.46c3.42,0.98,6.64,2.31,9.51,4c4.82,2.86,9.09,7.37,11.69,11.96
			c2.52,4.46,3.73,8.74,4.35,13.67C742.21,207.67,741.22,208.79,739.83,208.79z"/>
		<path class="st33" d="M534.98,172.02H398.64c-3.34,0-6.58-1.16-9.15-3.29h154.65C541.56,170.86,538.32,172.02,534.98,172.02z"/>
	</g>
	<g id="Step">
		<path class="st2" d="M652.23,229.05H547.52c-1.63,0-2.96-1.32-2.96-2.96c0-1.63,1.32-2.96,2.96-2.96h104.71
			c1.63,0,2.96,1.32,2.96,2.96C655.19,227.73,653.87,229.05,652.23,229.05z"/>
		<path class="st3" d="M652.94,226.5H546.81c-0.87,0-1.64-0.37-2.19-0.96c-0.03,0.18-0.05,0.36-0.05,0.55
			c0,1.63,1.32,2.96,2.96,2.96h104.71c1.63,0,2.96-1.32,2.96-2.96c0-0.19-0.02-0.37-0.05-0.55
			C654.59,226.13,653.81,226.5,652.94,226.5z"/>
		<path class="st11" d="M646.98,225.13h-82.35c-1.1,0-1.99-0.89-1.99-1.99h86.34C648.98,224.24,648.09,225.13,646.98,225.13z"/>
	</g>
	<g id="Lines">
		<path class="st19" d="M651.05,219.79c-0.03,0-1.55-0.01-87.76-0.52c-2.72-0.02-4.97-2.24-5.02-4.96l-0.88-49.68
			c-0.04-2.1,0.25-4.2,0.84-6.22l0.79-2.71v-42.59c0-1.31,0.54-2.58,1.49-3.49c0.96-0.93,2.25-1.4,3.62-1.35
			c21.6,1.1,36.9,2.99,40.3,3.75c5.44,1.18,10.74,3.51,15.3,6.73c1.48,1.04,30.26,23.23,33.6,26.39c2.21,2.21,3.21,4.61,3.66,6.24
			c1.49,5.37,3.61,46.22-1.4,65.17C655.04,218.62,653.39,219.79,651.05,219.79z M563.91,108.58c-1.21,0-2.33,0.45-3.19,1.27
			c-0.89,0.85-1.4,2.04-1.4,3.27v42.63l-0.8,2.75c-0.58,1.99-0.86,4.06-0.83,6.13l0.88,49.68c0.05,2.56,2.16,4.65,4.72,4.67
			c85.02,0.5,87.74,0.52,87.77,0.52c2.19,0,3.74-1.09,4.24-3c4.99-18.92,2.89-59.67,1.4-65.02c-0.44-1.59-1.42-3.95-3.58-6.1
			c-3.33-3.15-32.08-25.32-33.56-26.36c-4.53-3.2-9.79-5.52-15.19-6.69c-3.39-0.76-18.67-2.64-40.25-3.75
			C564.04,108.58,563.97,108.58,563.91,108.58z"/>
		<polygon class="st19" points="737.63,180.35 724.03,191.88 724.29,192.04 737.86,180.54 		"/>
		<path class="st1" d="M731.9,185.21l-4.93,4.18c0.08,0.06,0.16,0.12,0.24,0.17l4.89-4.15C732.03,185.35,731.97,185.28,731.9,185.21
			z"/>
		<path class="st19" d="M730.77,160.83c-19.15-4.94-50.74-5.54-62.82-10.5c-1.09-0.52-1.57-0.73-2.06-1.03h-0.54
			c0.74,0.51,1.06,0.62,2.49,1.29c12.15,4.99,43.71,5.56,62.86,10.51c6.76,1.77,9.72,3.51,11.9,4.88l0.56,0.02
			C741.72,165.09,738.94,162.96,730.77,160.83z"/>
		<path class="st1" d="M657.52,157.6c0.22,2.49,0.42,5.55,0.58,8.99c0.1,0,0.2,0.01,0.3,0.01c-0.16-3.44-0.36-6.51-0.58-9
			L657.52,157.6z"/>
		<path class="st1" d="M558.52,158.5l0.79-2.7l-0.31-0.01l-0.77,2.62c-0.22,0.77-0.4,1.54-0.54,2.33c0.09,0.05,0.18,0.1,0.28,0.15
			C558.1,160.09,558.28,159.29,558.52,158.5z"/>
	</g>
</g>
</svg>
