<?xml version="1.0" encoding="utf-8"?>
<!-- Generator: Adobe Illustrator 24.0.1, SVG Export Plug-In . SVG Version: 6.00 Build 0)  -->
<svg version="1.1"
	 id="Layer_1" xmlns:cc="http://creativecommons.org/ns#" xmlns:dc="http://purl.org/dc/elements/1.1/" xmlns:inkscape="http://www.inkscape.org/namespaces/inkscape" xmlns:rdf="http://www.w3.org/1999/02/22-rdf-syntax-ns#" xmlns:sodipodi="http://sodipodi.sourceforge.net/DTD/sodipodi-0.dtd" xmlns:svg="http://www.w3.org/2000/svg"
	 xmlns="http://www.w3.org/2000/svg" xmlns:xlink="http://www.w3.org/1999/xlink" x="0px" y="0px" viewBox="0 0 634.7 1025.3"
	 style="enable-background:new 0 0 634.7 1025.3;" xml:space="preserve">
<style type="text/css">
	.st0{fill:#FE0000;}
	.st1{fill:#FFFFFF;}
</style>
<rect class="st0" width="634.7" height="1025.3"/>
<sodipodi:namedview  bordercolor="#666666" borderopacity="1" gridtolerance="10" guidetolerance="10" id="namedview21" inkscape:current-layer="Layer_1" inkscape:cx="531.06511" inkscape:cy="643.92575" inkscape:pageopacity="0" inkscape:pageshadow="2" inkscape:window-height="705" inkscape:window-maximized="1" inkscape:window-width="1366" inkscape:window-x="-8" inkscape:window-y="-8" inkscape:zoom="0.35355339" objecttolerance="10" pagecolor="#ffffff" showgrid="false">
	</sodipodi:namedview>
<g>
	<g id="g4156">
		<path id="path5" inkscape:connector-curvature="0" class="st1" d="M181.9,866.5l-4.3-25.7c-1.2-7.4-2.8-19-4-27h-0.5
			c-1.3,8.1-3,20-4.3,27.1l-4.7,25.7L181.9,866.5L181.9,866.5z M161.7,883.3l-5.6,28.6h-20.9l26-118.8h25.6l23.6,118.8h-21
			l-5.5-28.6H161.7z"/>
		<path id="path7" inkscape:connector-curvature="0" class="st1" d="M257.9,858.8c0-1.6,0-3.4-0.3-5.1c-0.8-5.9-4-11.2-9-11.2
			c-8.6,0-11.8,12.4-11.8,26.9c0,16.7,4.5,26.2,11.5,26.2c3.2,0,6.9-1.6,8.8-8.6c0.5-1.4,0.7-3.3,0.7-5.4L257.9,858.8L257.9,858.8z
			 M279.3,789.9v97.4c0,7.7,0.4,17.2,0.7,24.6h-18.5l-1.2-9.9h-0.4c-3.1,6.1-9.9,11.3-17.9,11.3c-17.7,0-26.5-19.5-26.5-44.2
			c0-30.1,13.1-44.7,27.4-44.7c7.5,0,12.3,3.7,14.7,8.9h0.4v-43.4L279.3,789.9L279.3,789.9z"/>
		<path id="path9" inkscape:connector-curvature="0" class="st1" d="M323.9,896.8c8.2,0,10.2-15.4,10.2-28.2
			c0-12.1-2-27.9-10.6-27.9c-9,0-10.9,15.8-10.9,27.9c0,14.6,2.4,28.2,11.1,28.2H323.9z M323.5,913.2c-19.7,0-32.1-15.8-32.1-44.2
			c0-31,15.9-44.7,32.6-44.7c19.5,0,31.7,16.6,31.7,44.2c0,35.5-19.1,44.7-32,44.7H323.5z"/>
		<path id="path11" inkscape:connector-curvature="0" class="st1" d="M389.1,881.1c0,2.1,0.4,4.2,0.8,5.5c2.1,7.2,5.8,9,8.7,9
			c8.3,0,11.6-10.5,11.6-27.3c0-15.3-3.5-25.8-11.7-25.8c-4.1,0-7.5,4.4-8.7,9.1c-0.4,1.5-0.8,3.8-0.8,5.4v24.1H389.1z M367.7,789.9
			h21.4v44.9h0.3c4.2-6.6,9.8-10.4,18-10.4c16.1,0,24.3,18.4,24.3,42.4c0,30.3-12.1,46.6-27.8,46.6c-7.5,0-12.4-3.3-16.9-11.7h-0.5
			l-1.2,10.3h-18.4c0.3-7.1,0.7-16.9,0.7-24.6L367.7,789.9L367.7,789.9z"/>
		<path id="path13" inkscape:connector-curvature="0" class="st1" d="M483,860.6c0.1-12.1-3.4-20.6-10.2-20.6
			c-7.7,0-11,11.3-11.3,20.6H483z M461.4,875.7c0.3,15.6,8.4,20.6,18.6,20.6c6.4,0,12-1.4,16-3l2.9,15.4c-5.7,2.4-14.4,4-22.9,4
			c-23,0-35.5-15.7-35.5-42.5c0-28.8,14.6-46.1,33.6-46.1c18.4,0,28.6,15.3,28.6,40.2c0,5.7-0.2,8.9-0.6,11.4L461.4,875.7
			L461.4,875.7z"/>
	</g>
	<g id="g4151">
		<polygon id="polygon15" class="st1" points="365.7,401.5 502.7,401.5 502.7,729.5 		"/>
		<polygon id="polygon17" class="st1" points="269.2,401.5 132.1,401.5 132.1,729.5 		"/>
		<polygon id="polygon19" class="st1" points="257.6,663.5 317.5,522.4 404.7,729.5 347.5,729.5 321.4,663.5 		"/>
	</g>
</g>
</svg>
