<?xml version="1.0" encoding="UTF-8"?>
<svg width="297px" height="95px" viewBox="0 0 297 95" version="1.1" xmlns="http://www.w3.org/2000/svg" xmlns:xlink="http://www.w3.org/1999/xlink">
    <title>Group 26</title>
    <g id="Web" stroke="none" stroke-width="1" fill="none" fill-rule="evenodd">
        <g id="赫綵官網/首頁02_Normal-" transform="translate(-572.000000, -662.000000)">
            <g id="Group-26" transform="translate(572.000000, 662.000000)">
                <path d="M148.5,0 C214.283975,0 271.001991,38.899957 297,94.9989808 L3.37507799e-14,94.9989808 C25.9980089,38.899957 82.7160246,0 148.5,0 Z" id="Combined-Shape" fill="#FFFFFF"></path>
                <g id="2615496-04" transform="translate(61.000000, 30.000000)" fill="#F9C270" fill-rule="nonzero">
                    <path d="M4.36413149,53.0485478 C2.25412993,51.8015074 0.752360895,49.7271049 0.217480946,47.3207547 C-0.317998093,44.9058992 0.145013251,42.3752992 1.49982664,40.3120628 C2.7375757,38.1661672 4.79614625,36.6280038 7.19248273,36.0585118 C9.57098008,35.4558485 12.0913022,35.894748 14.1315309,37.2669069 C16.2421409,38.4846086 17.7471674,40.5415812 18.2781815,42.9342803 C18.849907,45.3490695 18.4168773,47.8945737 17.0797275,49.9792241 C15.8387624,52.1222157 13.7815885,53.6593355 11.3870714,54.2327751 C8.98525268,54.8552279 6.43439666,54.4250956 4.36413149,53.0485478 L4.36413149,53.0485478 Z M14.3712217,44.009752 C14.0305627,42.645884 13.168984,41.4731046 11.9743139,40.747085 C10.804338,39.961968 9.36759179,39.6914343 7.99544686,39.99788 C6.65824988,40.2958396 5.49749298,41.1266135 4.7773709,42.3011129 C4.05724882,43.4756122 3.83902878,44.8939119 4.17237887,46.2331991 C4.50108369,47.5996432 5.36617716,48.7728457 6.5692867,49.4837821 C7.74857437,50.2679014 9.19057399,50.5421515 10.5721228,50.245071 C11.9024563,49.9351192 13.0547793,49.1019744 13.7727599,47.9309677 C14.4907405,46.7599611 14.7148338,45.3482087 14.3951908,44.009752 L14.3712217,44.009752 Z" id="Shape"></path>
                    <path d="M20.7709656,19.9747721 L23.8749612,17.4613102 L30.4544732,25.7025652 C31.7413294,27.2587982 32.3159202,29.2909373 32.0364324,31.2974348 C31.7754353,33.3607771 30.7048377,35.2324531 29.0642667,36.493534 C27.4914034,37.8487411 25.4447727,38.5104887 23.3835951,38.3302947 C21.3714888,38.1828195 19.5159264,37.1814636 18.2781815,35.5751537 L11.6986695,27.3338987 L14.7906806,24.8204367 L21.3821771,33.0616918 C21.9935423,33.8787746 22.9134511,34.403797 23.9228994,34.511766 C24.9414771,34.6149099 25.9579271,34.2965425 26.7392661,33.6296375 C27.5462162,33.005399 28.0661505,32.0766498 28.179213,31.0574864 C28.2922755,30.0383231 27.9887094,29.0166957 27.3384931,28.2281111 L20.7709656,19.9747721 Z" id="Path"></path>
                    <path d="M36.5546037,10.7305491 C38.0383704,9.96888795 39.7584433,9.82146896 41.3484193,10.3196947 C42.8898671,10.7665744 44.1572402,11.8764339 44.8119511,13.3527666 C45.752716,15.3254233 45.5067837,17.6647848 44.1767706,19.3947424 L50.4207155,23.6966292 L46.4298639,25.6179775 L40.8690378,21.8357007 L37.8129803,23.3945304 L40.3057644,28.6631333 L36.7104027,30.4032224 L29.0642667,14.3194827 L36.5546037,10.7305491 Z M34.3015103,15.9266483 L36.2549902,19.99894 L40.0900427,18.1500954 C41.1371062,17.5757455 41.5550794,16.2754807 41.0412452,15.1910178 C40.527411,14.1065549 39.2615807,13.6173913 38.1605319,14.0778037 L34.3015103,15.9266483 Z" id="Shape"></path>
                    <path d="M68.9128594,19.2255671 L65.0178842,19.7693449 L62.6209763,2.1509434 L70.5547413,1.08755565 C72.2085963,0.819924494 73.9004751,1.21927311 75.2646651,2.1992792 C76.6078691,3.09031665 77.4867295,4.53917277 77.661573,6.1507314 C77.913127,7.75506633 77.4530233,9.38983285 76.4031964,10.6217935 C75.3390512,11.9251341 73.8035922,12.7470695 72.1367004,12.9056604 L68.169818,13.4373543 L68.9128594,19.2255671 Z M67.0792249,5.26860293 L67.6784519,9.73966504 L71.6453343,9.22005512 C72.8731362,9.05321055 73.7343248,7.91436989 73.5688528,6.6763833 C73.4033809,5.43839671 72.2739093,4.57006452 71.0461074,4.73690905 L67.0792249,5.26860293 Z" id="Shape"></path>
                    <path d="M89.8378648,0.181259275 C91.5135101,0.168901495 93.1271211,0.819699917 94.3320669,1.99385202 C95.510972,3.09082931 96.1510076,4.65556938 96.0818097,6.27157091 C96.0455652,8.47402169 94.7726384,10.46483 92.7980459,11.4072504 L96.4653149,18.0896756 L92.0310354,17.993004 L88.7592562,12.0839517 L85.3916007,12.011448 L85.2597708,17.8479966 L81.2569347,17.7634089 L81.64044,0 L89.8378648,0.181259275 Z M85.5114461,3.80644477 L85.3916007,8.30167479 L89.6461121,8.39834641 C90.4467832,8.41561513 91.1957707,8.00087589 91.6109384,7.31035696 C92.026106,6.61983803 92.04438,5.75844565 91.6588765,5.050658 C91.2733731,4.34287035 90.5426595,3.8962172 89.7419884,3.87894848 L85.5114461,3.80644477 Z" id="Shape"></path>
                    <path d="M98.9221454,9.31672673 C99.3202651,6.88160971 100.705318,4.72331787 102.745213,3.35933856 C107.033742,0.586966718 112.723746,1.68027267 115.7005,5.84863261 C117.111752,7.86935423 117.620198,10.3932384 117.102691,12.8089888 C116.705809,15.2509441 115.309942,17.4125357 113.255654,18.7663769 C108.964109,21.5362379 103.273461,20.4375002 100.300367,16.2649989 C98.9062394,14.2413938 98.4071647,11.7253209 98.9221454,9.31672673 L98.9221454,9.31672673 Z M110.906685,15.5157939 C112.060926,14.6923128 112.83491,13.4323303 113.051917,12.0235319 C113.360034,10.6432163 113.100627,9.19592304 112.332845,8.01165995 C111.579708,6.84364295 110.38637,6.03619558 109.028944,5.77614526 C107.671518,5.51609495 106.267633,5.82597651 105.142121,6.63408946 C103.98964,7.44642401 103.218438,8.70019299 103.008873,10.1021836 C102.702329,11.4903283 102.961399,12.9444486 103.727946,14.1382234 C104.489984,15.2952693 105.682469,16.093689 107.035764,16.3529479 C108.389059,16.6122067 109.788866,16.3104084 110.918669,15.5157939 L110.906685,15.5157939 Z" id="Shape"></path>
                    <polygon id="Path" points="117.25849 21.9565402 124.257461 5.65528938 127.852823 7.23828705 129.123184 19.3222387 138.710815 11.9872801 142.306177 13.5702777 135.307206 29.8715285 131.711845 28.2885308 135.726665 18.8630485 128.236328 24.6875132 125.83942 23.6241255 124.94058 14.1261395 120.90179 23.5395378"></polygon>
                    <polygon id="Path" points="137.104887 31.5874497 146.896256 16.8208607 150.215973 19.0684757 140.424605 33.8350647"></polygon>
                    <path d="M157.598449,31.490778 C157.935457,30.540353 157.631295,29.4791252 156.843423,28.8564766 C155.968552,28.0226839 154.889943,27.8414246 154.32667,28.4456222 C153.955149,28.8323087 153.979118,29.50901 154.422546,30.48781 C154.59033,30.8261607 155.033758,31.6962052 155.764815,32.9046004 C156.294448,33.7163572 156.698554,34.6046147 156.963269,35.5389018 C157.53902,37.2019551 157.104007,39.050769 155.848706,40.2758109 C154.815025,41.4802317 153.277446,42.1209766 151.702056,42.003816 C149.987818,41.8511732 148.384718,41.0837057 147.183885,39.8407886 C145.974618,38.746738 145.111773,37.3177496 144.703085,35.7322451 C144.333013,34.3632578 144.491472,32.9037093 145.146513,31.6478694 L148.741875,33.7142251 C148.297009,34.9570579 148.704793,36.3471917 149.748576,37.1460674 C150.791231,38.1369515 152.145484,38.4390502 152.732726,37.762349 C152.963872,37.5080969 153.061703,37.158364 152.996386,36.8198007 C152.867225,36.0067721 152.564646,35.2316811 152.10953,34.5480178 L151.9777,34.3184227 C151.678087,33.7867289 151.450381,33.3637905 151.282597,33.1100276 L150.707339,31.9016324 C150.515832,31.5123727 150.355526,31.1082845 150.227958,30.6932372 C150.012304,29.9072467 149.947224,29.0870104 150.036205,28.2764469 C150.21061,27.3760617 150.624919,26.5405688 151.234659,25.8596566 C152.210518,24.7339093 153.63554,24.1086166 155.11765,24.1558194 C156.715752,24.2288604 158.225383,24.9164243 159.336207,26.0771677 C160.421409,27.0675246 161.185652,28.3644609 161.529378,29.7990248 C161.86347,31.0418787 161.722316,32.3659299 161.133888,33.508798 L157.598449,31.490778 Z" id="Path"></path>
                    <polygon id="Path" points="175 48.00954 171.824097 49.8583846 167.246003 41.8588086 164.489559 43.490142 168.336596 50.2088192 165.160693 52.0576638 161.301672 45.3389866 158.389429 47.0428238 163.027445 55.1511554 159.839558 57 153.200123 45.3994064 168.456442 36.5177019"></polygon>
                </g>
            </g>
        </g>
    </g>
</svg>