<?xml version="1.0" encoding="UTF-8"?>
<svg width="80px" height="80px" viewBox="0 0 80 80" version="1.1" xmlns="http://www.w3.org/2000/svg" xmlns:xlink="http://www.w3.org/1999/xlink">
    <title>promise_nav1_c.svg</title>
    <g id="Web" stroke="none" stroke-width="1" fill="none" fill-rule="evenodd">
        <g id="赫綵官網/首頁02_Hover" transform="translate(-368.000000, -907.000000)">
            <g id="Group-32" transform="translate(360.000000, 907.000000)">
                <g id="promise_nav1_c.svg" transform="translate(8.000000, 0.000000)">
                    <g id="Group-2" transform="translate(7.000000, 5.000000)">
                        <rect id="Rectangle" fill="#FFD300" x="8" y="0" width="63" height="45" rx="4"></rect>
                        <line x1="34.5" y1="56.5" x2="37.5" y2="63.5" id="Line-4" stroke="#21505B" stroke-width="3" stroke-linecap="round"></line>
                        <line x1="34.5" y1="56.5" x2="31.5" y2="59.5" id="Line-4" stroke="#21505B" stroke-width="3" stroke-linecap="round"></line>
                        <path d="M1.48531084,65 C1.29925309,65 1.11022436,64.9650191 0.927323281,64.8909855 C0.167123254,64.5835608 -0.199050282,63.7199585 0.109374791,62.9622243 L4.20710176,52.8955015 C6.01513001,48.4555197 9.25554298,42.5530035 16.4904413,42.5530035 L21.9258529,42.5530035 C29.1609369,42.5530035 32.4013499,48.4555197 34.2091924,52.8953164 L34.7378416,54.1936812 L45.7510863,44.0488529 C46.3538242,43.4939709 47.293583,43.5308026 47.8502708,44.1314004 C48.4071442,44.7319983 48.3701926,45.6687088 47.7676403,46.2237759 L35.1769898,57.8216993 C34.8188008,58.1517042 34.3204186,58.2853349 33.8450615,58.1792817 C33.3691473,58.0734136 32.9754922,57.7413728 32.7922197,57.2908781 L31.4565776,54.0091524 C29.5180118,49.2486049 27.3074155,46.6703838 24.3239925,45.8280661 L20.3434336,51.2650959 C20.0637899,51.6471094 19.6179569,51.872912 19.1435282,51.872912 C18.6690995,51.872912 18.2232666,51.6471094 17.9436229,51.2650959 L13.9857177,45.8591603 C11.0567008,46.7327571 8.87544296,49.3061661 6.96008799,54.0095226 L2.8625467,64.0760603 C2.62802481,64.6511165 2.0720798,65 1.48531084,65 Z M17.4116314,45.5143486 L19.1435282,47.8800933 L20.8754251,45.5143486 L17.4116314,45.5143486 Z M64.5143233,60.2749887 L41.9339314,60.2749887 C41.113569,60.2749887 40.4484404,59.6120175 40.4484404,58.7943161 C40.4484404,57.9766146 41.113569,57.3136435 41.9339314,57.3136435 L63.0288323,57.3136435 L63.0288323,14.6824883 L60.1921015,14.6824883 L60.1921015,21.1572844 C60.1921015,24.3522057 57.5845077,26.9513414 54.3791895,26.9513414 L36.7952466,26.9513414 L31.435038,29.9458166 C30.9749071,30.2028984 30.4128345,30.197531 29.9579028,29.9317502 C29.5029712,29.6659695 29.2233275,29.1799387 29.2233275,28.6543 L29.2233275,10.794057 C29.2233275,7.59913566 31.831107,5 35.0364253,5 L54.3793752,5 C57.5846934,5 60.1922872,7.59913566 60.1922872,10.794057 L60.1922872,11.7211431 L64.514509,11.7211431 C65.3348714,11.7211431 66,12.3841142 66,13.2018157 L66,58.7943161 C66,59.6122026 65.3346857,60.2749887 64.5143233,60.2749887 Z M35.0362396,7.96134519 C33.4692322,7.96134519 32.1941239,9.23213245 32.1941239,10.794057 L32.1941239,26.1269769 L35.6809427,24.1791521 C35.9026522,24.0551458 36.1527718,23.9901813 36.4071621,23.9901813 L54.3790038,23.9901813 C55.9460111,23.9901813 57.2209338,22.719394 57.2209338,21.1574695 L57.2209338,10.794057 C57.2209338,9.23213245 55.9461968,7.96134519 54.3790038,7.96134519 L35.0362396,7.96134519 Z M2.66293385,47.3198438 C1.84257143,47.3198438 1.17744283,46.6568726 1.17744283,45.8391712 L1.17744283,13.2018157 C1.17744283,12.3841142 1.84257143,11.7211431 2.66293385,11.7211431 L24.221865,11.7211431 C25.0422274,11.7211431 25.707356,12.3841142 25.707356,13.2018157 C25.707356,14.0195171 25.0422274,14.6824883 24.221865,14.6824883 L4.14842486,14.6824883 L4.14842486,45.8391712 C4.14842486,46.6570577 3.48329626,47.3198438 2.66293385,47.3198438 Z M19.2081471,39.8526268 C14.694297,39.8526268 11.0221632,36.1924041 11.0221632,31.6933805 C11.0221632,27.9891078 13.5116604,24.8534134 16.9106496,23.8611777 C16.9284755,23.8554401 16.9461157,23.8498876 16.9641272,23.8448903 C17.6914608,23.6385215 18.4462759,23.533949 19.2077757,23.533949 C23.3175723,23.533949 26.741072,26.5182447 27.3115006,30.532163 C27.3659067,30.9114003 27.394131,31.2993365 27.394131,31.6933805 C27.394131,36.1924041 23.7219972,39.8526268 19.2081471,39.8526268 Z M16.3281514,27.3618579 C14.9219485,28.2939413 13.9933309,29.8875152 13.9933309,31.6933805 C13.9933309,34.5595924 16.3327936,36.8912816 19.2083328,36.8912816 C21.7178842,36.8912816 23.8189255,35.1157701 24.3132227,32.7585393 C24.2216793,32.7615007 24.1303216,32.7629813 24.0385925,32.7629813 C20.4958821,32.7631664 17.4628808,30.545304 16.3281514,27.3618579 Z M19.1760234,26.4954793 C19.9345522,28.4508926 21.8311529,29.8018212 24.0385925,29.8018212 C24.0476911,29.8018212 24.0569755,29.8018212 24.0658884,29.8018212 C23.305317,27.8682479 21.4146583,26.4954793 19.2083328,26.4954793 C19.197563,26.4954793 19.1866075,26.4954793 19.1760234,26.4954793 Z M49.9637531,19.4728158 L38.0855813,19.4728158 C37.2652188,19.4728158 36.6000902,19.0250658 36.6000902,18.4728158 C36.6000902,17.9205658 37.2652188,17.4728158 38.0855813,17.4728158 L49.9637531,17.4728158 C50.7841155,17.4728158 51.4492441,17.9205658 51.4492441,18.4728158 C51.4492441,19.0250658 50.7841155,19.4728158 49.9637531,19.4728158 Z M46.2942189,14.5171804 L38.0857669,14.5171804 C37.2654045,14.5171804 36.6002759,14.0694304 36.6002759,13.5171804 C36.6002759,12.9649304 37.2654045,12.5171804 38.0857669,12.5171804 L46.2942189,12.5171804 C47.1145813,12.5171804 47.7797099,12.9649304 47.7797099,13.5171804 C47.7797099,14.0694304 47.1145813,14.5171804 46.2942189,14.5171804 Z" id="Shape" fill="#21505B"></path>
                    </g>
                </g>
            </g>
        </g>
    </g>
</svg>