<?xml version="1.0" encoding="UTF-8"?>
<svg width="80px" height="80px" viewBox="0 0 80 80" version="1.1" xmlns="http://www.w3.org/2000/svg" xmlns:xlink="http://www.w3.org/1999/xlink">
    <title>promise_nav1_g.svg</title>
    <g id="Web" stroke="none" stroke-width="1" fill="none" fill-rule="evenodd">
        <g id="赫綵官網/首頁02_四大優勢03" transform="translate(-992.000000, -1327.000000)">
            <g id="Group-12" transform="translate(984.000000, 1327.000000)">
                <g id="Group" transform="translate(8.000000, 0.000000)">
                    <rect id="Rectangle" x="0" y="0" width="80" height="80"></rect>
                    <g id="3135680" transform="translate(7.000000, 10.875000)" fill="#DCD9DB" fill-rule="nonzero" stroke="#DDD9DB" stroke-width="0.5">
                        <path d="M62.2329238,21.2242563 C62.1135801,21.1034065 61.9922734,20.9854718 61.8699199,20.8688623 L61.8699199,17.0497683 C61.8699199,13.252141 58.8188027,10.162519 55.0685039,10.162519 L43.1381855,10.162519 L43.1381855,6.70133665 C43.1381855,3.00614022 40.1693789,0 36.5203652,0 L25.3498164,0 C21.7006719,0 18.7319961,3.00614022 18.7319961,6.70133665 L18.7319961,10.162519 L6.80141602,10.162519 C3.05111719,10.162519 0,13.252141 0,17.0497683 L0,47.7062765 C0,51.5039038 3.05111719,54.5935259 6.80141602,54.5935259 L21.001752,54.5935259 C21.5437715,54.5935259 21.9831973,54.1485546 21.9831973,53.5996948 C21.9831973,53.050835 21.5437715,52.6058637 21.001752,52.6058637 L6.80141602,52.6058637 C4.13332422,52.6058637 1.96275977,50.4079069 1.96275977,47.706144 L1.96275977,27.6572586 C3.88456055,30.5438741 7.04586133,32.5173575 10.6673945,32.7891372 L10.6673945,36.4074774 C10.6673945,38.4739834 12.3277383,40.1552806 14.3684902,40.1552806 C16.409373,40.1552806 18.0697168,38.4739834 18.0697168,36.4074774 L18.0697168,32.8216024 L34.4701914,32.8216024 C34.4701914,32.8375036 34.469668,32.8532724 34.469668,32.8691737 C34.469668,36.2533673 35.4719199,39.4811981 37.3324785,42.2068129 L35.2489355,44.31665 C34.5213574,44.1082105 33.7061035,44.292268 33.1346406,44.8712078 L25.1314121,52.9754364 C23.5472285,54.5796122 23.5472285,57.1898101 25.1314121,58.793986 C26.7192598,60.4018722 29.2894687,60.4021372 30.8774473,58.793986 L38.8806758,50.6897574 C39.4522695,50.1109502 39.6341641,49.2855404 39.4283223,48.5487803 L41.5136973,46.437088 C47.0285039,50.2832142 54.3796602,50.2954052 59.907291,46.468228 L59.907291,47.7062765 C59.907291,50.4080394 57.7367266,52.6059962 55.0686348,52.6059962 L39.5665098,52.6059962 C39.0244902,52.6059962 38.5850645,53.0509675 38.5850645,53.5998273 C38.5850645,54.1486871 39.0244902,54.5936584 39.5665098,54.5936584 L55.0685039,54.5936584 C58.8188027,54.5936584 61.8699199,51.5040363 61.8699199,47.706409 L61.8699199,44.8697502 C61.9921426,44.7534057 62.1134492,44.635471 62.2329238,44.5144887 C68.5886328,38.0785712 68.589418,27.6609689 62.2329238,21.2242563 L62.2329238,21.2242563 Z M20.694625,6.70133665 C20.694625,4.10213712 22.7828789,1.98752963 25.3496855,1.98752963 L36.5202344,1.98752963 C39.087041,1.98752963 41.1752949,4.10213712 41.1752949,6.70133665 L41.1752949,10.162519 L39.0816758,10.162519 L39.0816758,6.70133665 C39.0816758,5.27114748 37.9325996,4.10757007 36.5202344,4.10757007 L25.3496855,4.10757007 C23.9373203,4.10757007 22.7882441,5.27114748 22.7882441,6.70133665 L22.7882441,10.162519 L20.694625,10.162519 L20.694625,6.70133665 Z M24.7510039,10.162519 L24.7510039,6.70133665 C24.7510039,6.36714439 25.0195273,6.09523221 25.3496855,6.09523221 L36.5202344,6.09523221 C36.8503926,6.09523221 37.118916,6.36714439 37.118916,6.70133665 L37.118916,10.162519 L24.7510039,10.162519 Z M16.106957,33.3528382 L12.6302852,33.3528382 L12.6302852,30.0072053 C12.6302852,29.0365636 13.4100762,28.2469317 14.3686211,28.2469317 C15.327166,28.2469317 16.106957,29.0365636 16.106957,30.0072053 L16.106957,33.3528382 Z M14.3686211,38.1678835 C13.4100762,38.1678835 12.6302852,37.3782516 12.6302852,36.4076099 L12.6302852,35.3403678 L16.106957,35.3403678 L16.106957,36.4076099 C16.106957,37.3782516 15.327166,38.1678835 14.3686211,38.1678835 L14.3686211,38.1678835 Z M18.0697168,30.8342052 L18.0697168,30.0072053 C18.0697168,27.9406992 16.409373,26.2594021 14.3684902,26.2594021 C12.3277383,26.2594021 10.6673945,27.9406992 10.6673945,30.0072053 L10.6673945,30.7931269 C5.79510742,30.3510708 1.96275977,26.1955318 1.96275977,21.1487252 L1.96275977,17.0497683 C1.96275977,14.3480054 4.13332422,12.1500486 6.80141602,12.1500486 L55.0685039,12.1500486 C57.7365957,12.1500486 59.9071602,14.3480054 59.9071602,17.0497683 L59.9071602,19.2668066 C53.7011543,14.9553024 44.9592246,15.4255833 39.2330801,21.2241238 C36.6401016,23.849693 35.0306621,27.2057943 34.5918906,30.8342052 L18.0697168,30.8342052 L18.0697168,30.8342052 Z M29.4894219,57.3887089 C28.6686719,58.2198167 27.3400566,58.2199492 26.5191758,57.3887089 C26.1224102,56.9869361 25.9040059,56.4529175 25.9040059,55.8848437 C25.9040059,55.3167698 26.1224102,54.7826188 26.5191758,54.3809785 L32.0635566,48.766628 L35.0338027,51.7743584 L29.4894219,57.3887089 Z M37.4926504,49.2844803 L36.4216973,50.3689487 L33.4514512,47.3612184 L34.5224043,46.2767499 C34.5600918,46.2387193 34.6094258,46.2196378 34.6587598,46.2196378 C34.7080937,46.2196378 34.7574277,46.2387193 34.7949844,46.2766174 C34.7952461,46.2767499 34.795377,46.2770149 34.7956387,46.2771475 L37.4926504,49.0081952 C37.5677637,49.084389 37.5677637,49.2082866 37.4926504,49.2844803 L37.4926504,49.2844803 Z M38.2335762,46.9476522 L36.8299785,45.5263412 L38.5530039,43.7815714 C38.7718008,44.0313543 38.9979258,44.2762342 39.2330801,44.5142237 C39.4687578,44.7528756 39.7105859,44.9815893 39.9568633,45.2024848 L38.2335762,46.9476522 Z M40.6209746,43.1089465 C37.9199062,40.3739234 36.4324277,36.7372968 36.4324277,32.8693062 C36.4324277,29.0013157 37.9199062,25.3646891 40.6209746,22.629666 C46.2094551,16.9705268 55.2557637,16.9697318 60.8450293,22.629666 C66.4336406,28.2886726 66.4344258,37.4491448 60.8450293,43.1089465 C55.2562871,48.7682182 46.2102402,48.7688807 40.6209746,43.1089465 Z" id="Shape"></path>
                        <path d="M61.237613,33.8189097 C60.7153293,33.706548 60.1996274,34.0341846 60.0861884,34.5511762 C59.692314,36.3430905 58.7878998,37.9792306 57.4705111,39.282499 C53.6839219,43.0287413 47.5549929,43.0291244 43.7680166,39.282499 C39.9902032,35.5448115 39.9902032,29.4632326 43.7680166,25.7255451 C47.5546058,21.9791751 53.6835348,21.978792 57.4705111,25.7255451 C58.7864802,27.0275367 59.6906363,28.6618892 60.085156,30.4518882 C60.1989821,30.9686245 60.7148131,31.2966441 61.2369677,31.1835163 C61.7592514,31.0708992 62.0902763,30.5606748 61.9764502,30.0439385 C61.5028201,27.894765 60.4179876,25.9332866 58.8393925,24.3713308 C54.2962857,19.8764784 46.9430163,19.8759677 42.3993933,24.3713308 C37.8668689,28.8557132 37.8668689,36.1523309 42.3993933,40.6367133 C46.9317886,45.1209679 54.3066101,45.1212233 58.8393925,40.6367133 C60.4196653,39.0732253 61.5048849,37.1095763 61.9777408,34.9581045 C62.0911797,34.4413682 61.7598967,33.9313991 61.237613,33.8189097 L61.237613,33.8189097 Z" id="Path"></path>
                    </g>
                </g>
            </g>
        </g>
    </g>
</svg>