<?xml version="1.0" encoding="UTF-8"?>
<svg width="80px" height="80px" viewBox="0 0 80 80" version="1.1" xmlns="http://www.w3.org/2000/svg" xmlns:xlink="http://www.w3.org/1999/xlink">
    <title>promise_list1</title>
    <g id="Web" stroke="none" stroke-width="1" fill="none" fill-rule="evenodd">
        <g id="赫綵官網/首頁02_四大優勢03" transform="translate(-368.000000, -1327.000000)">
            <g id="Group-32" transform="translate(360.000000, 1327.000000)">
                <g id="Group" transform="translate(8.000000, 0.000000)">
                    <rect id="Rectangle" x="0" y="0" width="80" height="80"></rect>
                    <g id="Group-2" transform="translate(7.000000, 10.000000)">
                        <line x1="34.5" y1="51.5" x2="37.5" y2="58.5" id="Line-4" stroke="#DCD9DB" stroke-width="3" stroke-linecap="round"></line>
                        <line x1="34.5" y1="51.5" x2="31.5" y2="54.5" id="Line-4" stroke="#DCD9DB" stroke-width="3" stroke-linecap="round"></line>
                        <path d="M1.48531084,60 C1.29925309,60 1.11022436,59.9650191 0.927323281,59.8909855 C0.167123254,59.5835608 -0.199050282,58.7199585 0.109374791,57.9622243 L4.20710176,47.8955015 C6.01513001,43.4555197 9.25554298,37.5530035 16.4904413,37.5530035 L21.9258529,37.5530035 C29.1609369,37.5530035 32.4013499,43.4555197 34.2091924,47.8953164 L34.7378416,49.1936812 L45.7510863,39.0488529 C46.3538242,38.4939709 47.293583,38.5308026 47.8502708,39.1314004 C48.4071442,39.7319983 48.3701926,40.6687088 47.7676403,41.2237759 L35.1769898,52.8216993 C34.8188008,53.1517042 34.3204186,53.2853349 33.8450615,53.1792817 C33.3691473,53.0734136 32.9754922,52.7413728 32.7922197,52.2908781 L31.4565776,49.0091524 C29.5180118,44.2486049 27.3074155,41.6703838 24.3239925,40.8280661 L20.3434336,46.2650959 C20.0637899,46.6471094 19.6179569,46.872912 19.1435282,46.872912 C18.6690995,46.872912 18.2232666,46.6471094 17.9436229,46.2650959 L13.9857177,40.8591603 C11.0567008,41.7327571 8.87544296,44.3061661 6.96008799,49.0095226 L2.8625467,59.0760603 C2.62802481,59.6511165 2.0720798,60 1.48531084,60 Z M17.4116314,40.5143486 L19.1435282,42.8800933 L20.8754251,40.5143486 L17.4116314,40.5143486 Z M64.5143233,55.2749887 L41.9339314,55.2749887 C41.113569,55.2749887 40.4484404,54.6120175 40.4484404,53.7943161 C40.4484404,52.9766146 41.113569,52.3136435 41.9339314,52.3136435 L63.0288323,52.3136435 L63.0288323,9.68248827 L60.1921015,9.68248827 L60.1921015,16.1572844 C60.1921015,19.3522057 57.5845077,21.9513414 54.3791895,21.9513414 L36.7952466,21.9513414 L31.435038,24.9458166 C30.9749071,25.2028984 30.4128345,25.197531 29.9579028,24.9317502 C29.5029712,24.6659695 29.2233275,24.1799387 29.2233275,23.6543 L29.2233275,5.79405695 C29.2233275,2.59913566 31.831107,3.55271368e-15 35.0364253,3.55271368e-15 L54.3793752,3.55271368e-15 C57.5846934,3.55271368e-15 60.1922872,2.59913566 60.1922872,5.79405695 L60.1922872,6.72114308 L64.514509,6.72114308 C65.3348714,6.72114308 66,7.38411423 66,8.20181567 L66,53.7943161 C66,54.6122026 65.3346857,55.2749887 64.5143233,55.2749887 Z M35.0362396,2.96134519 C33.4692322,2.96134519 32.1941239,4.23213245 32.1941239,5.79405695 L32.1941239,21.1269769 L35.6809427,19.1791521 C35.9026522,19.0551458 36.1527718,18.9901813 36.4071621,18.9901813 L54.3790038,18.9901813 C55.9460111,18.9901813 57.2209338,17.719394 57.2209338,16.1574695 L57.2209338,5.79405695 C57.2209338,4.23213245 55.9461968,2.96134519 54.3790038,2.96134519 L35.0362396,2.96134519 Z M2.66293385,42.3198438 C1.84257143,42.3198438 1.17744283,41.6568726 1.17744283,40.8391712 L1.17744283,8.20181567 C1.17744283,7.38411423 1.84257143,6.72114308 2.66293385,6.72114308 L24.221865,6.72114308 C25.0422274,6.72114308 25.707356,7.38411423 25.707356,8.20181567 C25.707356,9.01951712 25.0422274,9.68248827 24.221865,9.68248827 L4.14842486,9.68248827 L4.14842486,40.8391712 C4.14842486,41.6570577 3.48329626,42.3198438 2.66293385,42.3198438 Z M19.2081471,34.8526268 C14.694297,34.8526268 11.0221632,31.1924041 11.0221632,26.6933805 C11.0221632,22.9891078 13.5116604,19.8534134 16.9106496,18.8611777 C16.9284755,18.8554401 16.9461157,18.8498876 16.9641272,18.8448903 C17.6914608,18.6385215 18.4462759,18.533949 19.2077757,18.533949 C23.3175723,18.533949 26.741072,21.5182447 27.3115006,25.532163 C27.3659067,25.9114003 27.394131,26.2993365 27.394131,26.6933805 C27.394131,31.1924041 23.7219972,34.8526268 19.2081471,34.8526268 Z M16.3281514,22.3618579 C14.9219485,23.2939413 13.9933309,24.8875152 13.9933309,26.6933805 C13.9933309,29.5595924 16.3327936,31.8912816 19.2083328,31.8912816 C21.7178842,31.8912816 23.8189255,30.1157701 24.3132227,27.7585393 C24.2216793,27.7615007 24.1303216,27.7629813 24.0385925,27.7629813 C20.4958821,27.7631664 17.4628808,25.545304 16.3281514,22.3618579 Z M19.1760234,21.4954793 C19.9345522,23.4508926 21.8311529,24.8018212 24.0385925,24.8018212 C24.0476911,24.8018212 24.0569755,24.8018212 24.0658884,24.8018212 C23.305317,22.8682479 21.4146583,21.4954793 19.2083328,21.4954793 C19.197563,21.4954793 19.1866075,21.4954793 19.1760234,21.4954793 Z M49.9637531,14.4728158 L38.0855813,14.4728158 C37.2652188,14.4728158 36.6000902,14.0250658 36.6000902,13.4728158 C36.6000902,12.9205658 37.2652188,12.4728158 38.0855813,12.4728158 L49.9637531,12.4728158 C50.7841155,12.4728158 51.4492441,12.9205658 51.4492441,13.4728158 C51.4492441,14.0250658 50.7841155,14.4728158 49.9637531,14.4728158 Z M46.2942189,9.51718043 L38.0857669,9.51718043 C37.2654045,9.51718043 36.6002759,9.06943043 36.6002759,8.51718043 C36.6002759,7.96493043 37.2654045,7.51718043 38.0857669,7.51718043 L46.2942189,7.51718043 C47.1145813,7.51718043 47.7797099,7.96493043 47.7797099,8.51718043 C47.7797099,9.06943043 47.1145813,9.51718043 46.2942189,9.51718043 Z" id="Shape" fill="#DCD9DB" fill-rule="nonzero"></path>
                    </g>
                </g>
            </g>
        </g>
    </g>
</svg>