<?xml version="1.0" encoding="UTF-8"?>
<svg width="80px" height="80px" viewBox="0 0 80 80" version="1.1" xmlns="http://www.w3.org/2000/svg" xmlns:xlink="http://www.w3.org/1999/xlink">
    <title>promise_nav3_c.svg</title>
    <g id="Web" stroke="none" stroke-width="1" fill="none" fill-rule="evenodd">
        <g id="赫綵官網/首頁02_Hover" transform="translate(-784.000000, -907.000000)">
            <g id="Group-30" transform="translate(776.000000, 907.000000)">
                <g id="Group" transform="translate(8.000000, 0.000000)">
                    <rect id="Rectangle" fill="#FFD300" x="17" y="3" width="48" height="64" rx="4"></rect>
                    <g id="79884" transform="translate(12.000000, 6.000000)">
                        <path d="M20.2098288,66.7860984 L0,66.7860984 L0,8.29853966 C0,7.28256469 0.812466827,6.45883848 1.81455461,6.45883848 L48.3760259,6.45883848 C49.3781137,6.45883848 50.1905806,7.28256469 50.1905806,8.29853966 L50.1905806,36.3818082 C50.1905806,37.3977832 50.0485828,38.2215094 49.046495,38.2215094 C48.0444072,38.2215094 47.8358873,37.3977832 47.8358873,36.3818082 L47.8358873,8.7704264 C25.9194686,8.7704264 14.2463149,8.7704264 12.816426,8.7704264 L12.816426,25.2789816 L16.3235065,23.1387282 C16.7989198,22.912215 17.3480494,22.9055461 17.8286795,23.1212511 L21.4834244,25.2789816 L21.4834244,20.8335736 C21.4834244,19.8175987 21.889869,18.9938725 22.8919568,18.9938725 C23.8940446,18.9938725 24.2764725,19.8175987 24.2764725,20.8335736 L24.2764725,25.6623293 C24.2764725,26.2843783 23.9664105,26.8643441 23.4522111,27.2039989 C22.9380117,27.5434238 22.2895352,27.5967751 21.7281574,27.344966 L17.1178277,25.2789816 L12.816426,27.3274888 C12.2541409,27.5951654 11.5963649,27.5528522 11.0721854,27.215497 C10.548006,26.8779119 10.2304589,26.291967 10.2304589,25.6625593 L10.2304589,8.7704264 C6.86807354,8.7704264 4.25160559,8.7704264 2.38105504,8.7704264 L2.38105504,64.0940651 L20.2100556,64.0940651 C21.2121434,64.0940651 22.0246102,64.4751343 22.0246102,65.4911093 C22.0246102,66.5070843 21.2121434,66.7860984 20.2098288,66.7860984 Z M39.0741224,42.4241173 C39.2574172,42.4241173 39.4283833,42.518738 39.5292133,42.6754617 C39.6315781,42.8328137 39.6492272,43.0324754 39.576073,43.2060601 L39.576073,43.2060601 L29.7539656,66.6648672 C29.6668967,66.8690845 29.469636,67.0007785 29.2519638,66.9999965 C29.2153355,66.9999965 29.1787584,66.9962229 29.1428463,66.9888396 C28.8887504,66.9357431 28.7063252,66.7069674 28.7063252,66.4414849 L28.7063252,66.4414849 L28.7063252,42.9826778 C28.7063252,42.674205 28.9506502,42.4241173 29.2520149,42.4241173 L29.2520149,42.4241173 Z M42.0306857,50.9504428 L42.1238038,50.9586241 C42.306235,50.9909718 42.4625595,51.1169615 42.5338169,51.2957842 L42.5338169,51.2957842 L48.5107222,66.2384918 C48.5370071,66.3044885 48.5506081,66.3749992 48.5506081,66.4462362 C48.5508117,66.7518862 48.3076766,66.999789 48.007591,66.9999965 L48.007591,66.9999965 L43.6607554,66.9999965 C43.4344304,66.9999965 43.2318433,66.8571074 43.1521736,66.6413728 L43.1521736,66.6413728 L41.6535792,62.5725603 L37.6837991,62.5725603 C37.6113629,62.5725603 37.5395889,62.5578252 37.472807,62.5291851 C37.1962555,62.4105777 37.0664102,62.0860938 37.1828583,61.8043625 L37.1828583,61.8043625 L41.5296939,51.289143 C41.6145594,51.0838371 41.8120016,50.9504428 42.0306857,50.9504428 L42.0306857,50.9504428 Z M54.4544588,42.4241173 C54.7557981,42.4241173 55,42.6742086 55,42.9826814 L55,42.9826814 L55,66.441485 C55,66.7069151 54.8175902,66.9357431 54.5635159,66.9888396 C54.5276069,66.9962229 54.4910328,66.9999965 54.4544077,66.9999965 C54.236805,67.0007785 54.0395099,66.8690845 53.9524484,66.6648673 L53.9524484,66.6648673 L44.1311733,43.2060636 C44.100891,43.1350065 44.0853918,43.0582417 44.0856444,42.9806915 C44.0867218,42.6722188 44.3318444,42.4230213 44.6331836,42.4241173 L44.6331836,42.4241173 Z M18.1052879,40.0132025 L12.4602758,40.0132025 C11.3504158,40.0132025 10.4505701,39.5271237 10.4505701,38.9275995 C10.4505701,38.3280753 11.3504158,37.8419966 12.4602758,37.8419966 L18.1052879,37.8419966 C19.2151478,37.8419966 20.1149935,38.3280753 20.1149935,38.9275995 C20.1149935,39.5271237 19.2151478,40.0132025 18.1052879,40.0132025 Z M34.1209261,35.6707907 L12.55201,35.6707907 C11.3914898,35.6707907 10.4505701,35.184712 10.4505701,34.5851878 C10.4505701,33.9856636 11.3914898,33.4995849 12.55201,33.4995849 L34.1209261,33.4995849 C35.2814463,33.4995849 36.222366,33.9856636 36.222366,34.5851878 C36.222366,35.184712 35.2814463,35.6707907 34.1209261,35.6707907 Z M39.9555853,22.2254631 L34.4706403,22.2254631 C33.4685525,22.2254631 32.6560857,21.7393844 32.6560857,21.1398602 C32.6560857,20.540336 33.4685525,20.0542573 34.4706403,20.0542573 L39.9555853,20.0542573 C40.9576731,20.0542573 41.7701399,20.540336 41.7701399,21.1398602 C41.7701399,21.7393844 40.9576731,22.2254631 39.9555853,22.2254631 Z M39.8419488,17.8830514 L34.356777,17.8830514 C33.3546892,17.8830514 32.5422224,17.3969727 32.5422224,16.7974485 C32.5422224,16.1979243 33.3546892,15.7118455 34.356777,15.7118455 L39.8419488,15.7118455 C40.8440366,15.7118455 41.6565034,16.1979243 41.6565034,16.7974485 C41.6565034,17.3969727 40.8440366,17.8830514 39.8419488,17.8830514 Z" id="Shape" fill="#21505B"></path>
                        <circle id="Oval" stroke="#21505B" stroke-width="2" fill="#FFD300" cx="17" cy="8" r="7"></circle>
                    </g>
                </g>
            </g>
        </g>
    </g>
</svg>