<?xml version="1.0" encoding="UTF-8"?>
<svg width="80px" height="80px" viewBox="0 0 80 80" version="1.1" xmlns="http://www.w3.org/2000/svg" xmlns:xlink="http://www.w3.org/1999/xlink">
    <title>promise_nav1_g.svg</title>
    <g id="Web" stroke="none" stroke-width="1" fill="none" fill-rule="evenodd">
        <g id="赫綵官網/首頁02_Hover" transform="translate(-576.000000, -907.000000)">
            <g id="Group-31" transform="translate(568.000000, 907.000000)">
                <g id="Group" transform="translate(8.000000, 0.000000)">
                    <rect id="Rectangle" x="0" y="0" width="80" height="80"></rect>
                    <rect id="Rectangle" fill="#FFD300" x="4" y="7" width="62" height="46" rx="4"></rect>
                    <path d="M65.5920963,13.9730404 L64.7788626,13.9730404 C66.3290266,11.4323472 65.7566172,8.02135239 63.2687245,6.16310073 C60.5880652,4.16105659 56.778651,4.80549487 54.9078789,7.61989241 L50.6849537,13.9731752 L14.4077698,13.9731752 C11.4259129,13.9731752 9,16.4153564 9,19.4172097 L9,54.2230759 C9,57.2249293 11.4259129,59.6671105 14.4077698,59.6671105 L35.4131612,59.6671105 L33.8260503,66.3779204 L30.4005627,66.3779204 C28.1680856,66.3779204 26.3517967,68.2062546 26.3517967,70.4537028 L26.3517967,71.3047333 L22.1290054,71.3047333 C21.3896656,71.3047333 20.7903492,71.9082035 20.7903492,72.6523666 C20.7903492,73.3965298 21.3896656,74 22.1290054,74 L57.8709946,74 C58.6103344,74 59.2096508,73.3965298 59.2096508,72.6523666 C59.2096508,71.9082035 58.6103344,71.3047333 57.8709946,71.3047333 L53.6482033,71.3047333 L53.6482033,70.4537028 C53.6482033,68.2062546 51.8319144,66.3779204 49.5994373,66.3779204 L46.1739497,66.3779204 L44.5868388,59.6671105 L65.5922302,59.6671105 C68.5740871,59.6671105 71,57.2249293 71,54.2230759 L71,46.5644755 L71,19.417075 C71,16.4152216 68.5740871,13.9730404 65.5920963,13.9730404 Z M46.4115612,37.6643004 C44.3185721,39.1392851 40.397514,37.1344109 36.6530246,39.1458885 C35.7393917,34.3678544 36.3154155,29.8741709 41.070992,28.8823127 C41.6855691,28.7533442 42.3472669,28.6949917 42.9105734,28.7063118 C44.5201738,29.9085355 46.1482475,31.1245051 47.7532964,32.3234946 C48.4559571,34.3810612 48.1922418,36.4095189 46.4115612,37.6643004 Z M47.7606591,23.2192878 L51.5499934,26.0495874 L48.6358725,29.6263411 C47.4361688,28.7302997 46.404868,27.9599925 45.2051642,27.0638163 C45.4542881,26.6890394 47.5329536,23.5617214 47.7606591,23.2192878 L47.7606591,23.2192878 Z M57.1331272,9.11886501 C58.1470255,7.59320926 60.2148479,7.23824263 61.6734478,8.32780422 C63.1325831,9.41750056 63.3938888,11.5125314 62.2376914,12.9317241 C60.1862006,15.4495075 55.3089403,21.4358298 53.2496853,23.9633162 L49.251119,20.9766911 L57.1331272,9.11886501 Z M50.9707568,70.4537028 L50.9707568,71.3047333 L29.0291093,71.3047333 L29.0291093,70.4537028 C29.0291093,69.6925594 29.6443557,69.0731871 30.4005627,69.0731871 L49.5993035,69.0731871 C50.3555104,69.0731871 50.9707568,69.6925594 50.9707568,70.4537028 Z M43.4216724,66.3779204 L36.5781937,66.3779204 L38.1653046,59.6671105 L41.8345615,59.6671105 L43.4216724,66.3779204 Z M68.3226874,54.2230759 C68.3226874,55.7387592 67.0978169,56.9718437 65.5922302,56.9718437 C63.4672472,56.9718437 16.7971374,56.9718437 14.4079037,56.9718437 C12.902317,56.9718437 11.6771787,55.7387592 11.6771787,54.2230759 L11.6771787,47.9121088 L15.5027907,47.9121088 C16.2421305,47.9121088 16.841447,47.3086386 16.841447,46.5644755 C16.841447,45.8203123 16.2421305,45.2168421 15.5027907,45.2168421 L11.6771787,45.2168421 L11.6771787,19.417075 C11.6771787,17.9013917 12.9020492,16.6683072 14.407636,16.6683072 L48.89343,16.6683072 C47.6109973,18.5977139 43.8695868,24.226509 42.6844744,26.0092931 C40.0611097,26.0331463 37.4420286,26.9531756 35.7274776,28.968157 C33.3943336,31.7099171 32.984437,36.0180315 34.5091666,41.7726955 C34.7698029,42.7567374 35.9894527,43.1092783 36.7274539,42.3996145 C40.1888175,39.0700168 44.4998262,42.7018887 48.3603771,39.5562429 C50.7169476,37.6358653 51.2746318,34.5829367 50.3860318,31.7281101 C51.5872081,30.2537992 61.4519001,18.1461219 62.6558876,16.6683072 L65.5919624,16.6683072 C67.0975492,16.6683072 68.3226874,17.9013917 68.3226874,19.417075 L68.3226874,45.2167073 L26.2117733,45.2167073 C25.4724334,45.2167073 24.873117,45.8201776 24.873117,46.5643407 C24.873117,47.3085039 25.4724334,47.9119741 26.2117733,47.9119741 L68.3226874,47.9119741 L68.3226874,54.2230759 Z" id="Shape" fill="#21505B"></path>
                    <circle id="Oval" fill="#21505B" cx="20.25" cy="46.55" r="1.25"></circle>
                </g>
            </g>
        </g>
    </g>
</svg>