<?xml version="1.0" encoding="UTF-8"?>
<svg width="80px" height="80px" viewBox="0 0 80 80" version="1.1" xmlns="http://www.w3.org/2000/svg" xmlns:xlink="http://www.w3.org/1999/xlink">
    <title>promise_nav1_g.svg</title>
    <g id="Web" stroke="none" stroke-width="1" fill="none" fill-rule="evenodd">
        <g id="赫綵官網/首頁02_Hover" transform="translate(-992.000000, -907.000000)">
            <g id="Group-12" transform="translate(984.000000, 907.000000)">
                <g id="Group" transform="translate(8.000000, 0.000000)">
                    <rect id="Rectangle" x="0" y="0" width="80" height="80"></rect>
                    <g id="3135680" transform="translate(3.000000, 7.000000)">
                        <rect id="Rectangle" fill="#FFD300" x="0" y="0" width="59" height="47" rx="5"></rect>
                        <path d="M66.2329238,25.0992563 C66.1135801,24.9784065 65.9922734,24.8604718 65.8699199,24.7438623 L65.8699199,20.9247683 C65.8699199,17.127141 62.8188027,14.037519 59.0685039,14.037519 L47.1381855,14.037519 L47.1381855,10.5763366 C47.1381855,6.88114022 44.1693789,3.875 40.5203652,3.875 L29.3498164,3.875 C25.7006719,3.875 22.7319961,6.88114022 22.7319961,10.5763366 L22.7319961,14.037519 L10.801416,14.037519 C7.05111719,14.037519 4,17.127141 4,20.9247683 L4,51.5812765 C4,55.3789038 7.05111719,58.4685259 10.801416,58.4685259 L25.001752,58.4685259 C25.5437715,58.4685259 25.9831973,58.0235546 25.9831973,57.4746948 C25.9831973,56.925835 25.5437715,56.4808637 25.001752,56.4808637 L10.801416,56.4808637 C8.13332422,56.4808637 5.96275977,54.2829069 5.96275977,51.581144 L5.96275977,31.5322586 C7.88456055,34.4188741 11.0458613,36.3923575 14.6673945,36.6641372 L14.6673945,40.2824774 C14.6673945,42.3489834 16.3277383,44.0302806 18.3684902,44.0302806 C20.409373,44.0302806 22.0697168,42.3489834 22.0697168,40.2824774 L22.0697168,36.6966024 L38.4701914,36.6966024 C38.4701914,36.7125036 38.469668,36.7282724 38.469668,36.7441737 C38.469668,40.1283673 39.4719199,43.3561981 41.3324785,46.0818129 L39.2489355,48.19165 C38.5213574,47.9832105 37.7061035,48.167268 37.1346406,48.7462078 L29.1314121,56.8504364 C27.5472285,58.4546122 27.5472285,61.0648101 29.1314121,62.668986 C30.7192598,64.2768722 33.2894687,64.2771372 34.8774473,62.668986 L42.8806758,54.5647574 C43.4522695,53.9859502 43.6341641,53.1605404 43.4283223,52.4237803 L45.5136973,50.312088 C51.0285039,54.1582142 58.3796602,54.1704052 63.907291,50.343228 L63.907291,51.5812765 C63.907291,54.2830394 61.7367266,56.4809962 59.0686348,56.4809962 L43.5665098,56.4809962 C43.0244902,56.4809962 42.5850645,56.9259675 42.5850645,57.4748273 C42.5850645,58.0236871 43.0244902,58.4686584 43.5665098,58.4686584 L59.0685039,58.4686584 C62.8188027,58.4686584 65.8699199,55.3790363 65.8699199,51.581409 L65.8699199,48.7447502 C65.9921426,48.6284057 66.1134492,48.510471 66.2329238,48.3894887 C72.5886328,41.9535712 72.589418,31.5359689 66.2329238,25.0992563 L66.2329238,25.0992563 Z M24.694625,10.5763366 C24.694625,7.97713712 26.7828789,5.86252963 29.3496855,5.86252963 L40.5202344,5.86252963 C43.087041,5.86252963 45.1752949,7.97713712 45.1752949,10.5763366 L45.1752949,14.037519 L43.0816758,14.037519 L43.0816758,10.5763366 C43.0816758,9.14614748 41.9325996,7.98257007 40.5202344,7.98257007 L29.3496855,7.98257007 C27.9373203,7.98257007 26.7882441,9.14614748 26.7882441,10.5763366 L26.7882441,14.037519 L24.694625,14.037519 L24.694625,10.5763366 Z M28.7510039,14.037519 L28.7510039,10.5763366 C28.7510039,10.2421444 29.0195273,9.97023221 29.3496855,9.97023221 L40.5202344,9.97023221 C40.8503926,9.97023221 41.118916,10.2421444 41.118916,10.5763366 L41.118916,14.037519 L28.7510039,14.037519 Z M20.106957,37.2278382 L16.6302852,37.2278382 L16.6302852,33.8822053 C16.6302852,32.9115636 17.4100762,32.1219317 18.3686211,32.1219317 C19.327166,32.1219317 20.106957,32.9115636 20.106957,33.8822053 L20.106957,37.2278382 Z M18.3686211,42.0428835 C17.4100762,42.0428835 16.6302852,41.2532516 16.6302852,40.2826099 L16.6302852,39.2153678 L20.106957,39.2153678 L20.106957,40.2826099 C20.106957,41.2532516 19.327166,42.0428835 18.3686211,42.0428835 L18.3686211,42.0428835 Z M22.0697168,34.7092052 L22.0697168,33.8822053 C22.0697168,31.8156992 20.409373,30.1344021 18.3684902,30.1344021 C16.3277383,30.1344021 14.6673945,31.8156992 14.6673945,33.8822053 L14.6673945,34.6681269 C9.79510742,34.2260708 5.96275977,30.0705318 5.96275977,25.0237252 L5.96275977,20.9247683 C5.96275977,18.2230054 8.13332422,16.0250486 10.801416,16.0250486 L59.0685039,16.0250486 C61.7365957,16.0250486 63.9071602,18.2230054 63.9071602,20.9247683 L63.9071602,23.1418066 C57.7011543,18.8303024 48.9592246,19.3005833 43.2330801,25.0991238 C40.6401016,27.724693 39.0306621,31.0807943 38.5918906,34.7092052 L22.0697168,34.7092052 L22.0697168,34.7092052 Z M33.4894219,61.2637089 C32.6686719,62.0948167 31.3400566,62.0949492 30.5191758,61.2637089 C30.1224102,60.8619361 29.9040059,60.3279175 29.9040059,59.7598437 C29.9040059,59.1917698 30.1224102,58.6576188 30.5191758,58.2559785 L36.0635566,52.641628 L39.0338027,55.6493584 L33.4894219,61.2637089 Z M41.4926504,53.1594803 L40.4216973,54.2439487 L37.4514512,51.2362184 L38.5224043,50.1517499 C38.5600918,50.1137193 38.6094258,50.0946378 38.6587598,50.0946378 C38.7080937,50.0946378 38.7574277,50.1137193 38.7949844,50.1516174 C38.7952461,50.1517499 38.795377,50.1520149 38.7956387,50.1521475 L41.4926504,52.8831952 C41.5677637,52.959389 41.5677637,53.0832866 41.4926504,53.1594803 L41.4926504,53.1594803 Z M42.2335762,50.8226522 L40.8299785,49.4013412 L42.5530039,47.6565714 C42.7718008,47.9063543 42.9979258,48.1512342 43.2330801,48.3892237 C43.4687578,48.6278756 43.7105859,48.8565893 43.9568633,49.0774848 L42.2335762,50.8226522 Z M44.6209746,46.9839465 C41.9199062,44.2489234 40.4324277,40.6122968 40.4324277,36.7443062 C40.4324277,32.8763157 41.9199062,29.2396891 44.6209746,26.504666 C50.2094551,20.8455268 59.2557637,20.8447318 64.8450293,26.504666 C70.4336406,32.1636726 70.4344258,41.3241448 64.8450293,46.9839465 C59.2562871,52.6432182 50.2102402,52.6438807 44.6209746,46.9839465 Z" id="Shape" stroke="#21505B" stroke-width="0.5" fill="#21505B"></path>
                        <path d="M65.237613,37.6939097 C64.7153293,37.581548 64.1996274,37.9091846 64.0861884,38.4261762 C63.692314,40.2180905 62.7878998,41.8542306 61.4705111,43.157499 C57.6839219,46.9037413 51.5549929,46.9041244 47.7680166,43.157499 C43.9902032,39.4198115 43.9902032,33.3382326 47.7680166,29.6005451 C51.5546058,25.8541751 57.6835348,25.853792 61.4705111,29.6005451 C62.7864802,30.9025367 63.6906363,32.5368892 64.085156,34.3268882 C64.1989821,34.8436245 64.7148131,35.1716441 65.2369677,35.0585163 C65.7592514,34.9458992 66.0902763,34.4356748 65.9764502,33.9189385 C65.5028201,31.769765 64.4179876,29.8082866 62.8393925,28.2463308 C58.2962857,23.7514784 50.9430163,23.7509677 46.3993933,28.2463308 C41.8668689,32.7307132 41.8668689,40.0273309 46.3993933,44.5117133 C50.9317886,48.9959679 58.3066101,48.9962233 62.8393925,44.5117133 C64.4196653,42.9482253 65.5048849,40.9845763 65.9777408,38.8331045 C66.0911797,38.3163682 65.7598967,37.8063991 65.237613,37.6939097 L65.237613,37.6939097 Z" id="Path" stroke="#21505B" stroke-width="0.5" fill="#21505B"></path>
                    </g>
                </g>
            </g>
        </g>
    </g>
</svg>