<?xml version="1.0" encoding="UTF-8"?>
<svg width="396px" height="233px" viewBox="0 0 396 233" version="1.1" xmlns="http://www.w3.org/2000/svg" xmlns:xlink="http://www.w3.org/1999/xlink">
    <title>卡樂猴圖示</title>
    <defs>
        <path d="M14,20 L247,20 C249.761424,20 252,22.2385763 252,25 L252,156 L252,156 L9,156 L9,25 C9,22.2385763 11.2385763,20 14,20 Z" id="path-1"></path>
        <filter x="-5.3%" y="-8.1%" width="110.7%" height="119.1%" filterUnits="objectBoundingBox" id="filter-2">
            <feOffset dx="0" dy="2" in="SourceAlpha" result="shadowOffsetOuter1"></feOffset>
            <feGaussianBlur stdDeviation="4" in="shadowOffsetOuter1" result="shadowBlurOuter1"></feGaussianBlur>
            <feComposite in="shadowBlurOuter1" in2="SourceAlpha" operator="out" result="shadowBlurOuter1"></feComposite>
            <feColorMatrix values="0 0 0 0 0   0 0 0 0 0   0 0 0 0 0  0 0 0 0.1 0" type="matrix" in="shadowBlurOuter1"></feColorMatrix>
        </filter>
    </defs>
    <g id="Web" stroke="none" stroke-width="1" fill="none" fill-rule="evenodd">
        <g id="赫綵官網/首頁02_四大優勢01" transform="translate(-329.000000, -1487.000000)">
            <g id="卡樂猴圖示" transform="translate(329.000000, 1487.500000)">
                <rect id="範圍區域" x="0" y="0" width="396" height="232"></rect>
                <g id="Rectangle">
                    <use fill="black" fill-opacity="1" filter="url(#filter-2)" xlink:href="#path-1"></use>
                    <path stroke="#443B34" stroke-width="6" d="M247,23 C247.552285,23 248.052285,23.2238576 248.414214,23.5857864 C248.776142,23.9477153 249,24.4477153 249,25 L249,25 L249,153 L12,153 L12,25 C12,24.4477153 12.2238576,23.9477153 12.5857864,23.5857864 C12.9477153,23.2238576 13.4477153,23 14,23 L14,23 Z" stroke-linejoin="square" fill="#2A5F52" fill-rule="evenodd"></path>
                </g>
                <text id="Design" transform="translate(72.000000, 64.500000) rotate(-5.000000) translate(-72.000000, -64.500000) " font-family="NanumBrush, Nanum Brush Script" font-size="34" font-weight="normal" letter-spacing="1" fill="#B2C5C1">
                    <tspan x="35" y="76">Design</tspan>
                </text>
                <text id="Thinking." transform="translate(111.000000, 103.500000) rotate(-5.000000) translate(-111.000000, -103.500000) " font-family="NanumBrush, Nanum Brush Script" font-size="34" font-weight="normal" letter-spacing="1" fill="#B2C5C1">
                    <tspan x="55" y="115">Thinking.</tspan>
                </text>
                <g id="卡樂猴-貼圖_貼圖01" transform="translate(177.000000, 52.019737)">
                    <g id="色" transform="translate(2.000000, 2.980263)" fill-rule="nonzero">
                        <path d="M33.2920354,96.1328413 C33.2920354,96.1328413 17.2625369,89.9704797 13.5634218,78.2619926 C10.480826,71.4833948 8.01474926,80.1107011 8.01474926,85.0405904 C8.01474926,89.9704797 8.63126844,109.073801 44.3893805,125.712177 C40.6902655,144.815498 37.6076696,157.140221 38.840708,167 C60.4188791,167 162.144543,167 162.144543,167 C162.144543,167 172.00885,157.756458 177.557522,142.350554 C181.256637,126.944649 168.926254,136.188192 166.460177,146.04797 C163.9941,155.907749 149.19764,166.383764 146.115044,166.383764 C143.648968,160.837638 143.032448,155.907749 143.032448,155.907749 C143.032448,155.907749 157.212389,158.98893 148.581121,150.361624 C149.19764,145.431734 151.047198,149.129151 153.513274,146.04797 C155.979351,142.96679 166.460177,132.490775 142.415929,113.387454 C128.235988,115.852399 72.1327434,125.095941 33.2920354,96.1328413 Z" id="Path" fill="#844A36"></path>
                        <path d="M55.4497345,1.23247232 C56.7629204,-1.07841328 58.2795575,0.326605166 60.4127139,1.9103321 C62.6753392,3.58649446 64.2412979,5.50298893 66.6457227,6.48896679 C68.7357227,7.33937269 71.090826,6.64302583 73.2609735,6.02062731 C96.7750147,-0.72099631 123.014071,2.65597786 144.05587,15.1285978 C157.015103,22.8069004 168.463864,34.6694465 171.306018,49.4591144 C178.525457,47.4501845 186.891622,46.0205166 193.722655,49.1078598 C203.21705,53.4030258 211.133156,66.6952399 207.803953,76.5611808 C206.675723,79.9073432 204.51174,83.9806642 202.168968,86.6304797 C198.303392,91.0057565 192.569764,93.5754613 186.774484,94.2656458 C180.7141,94.9928044 167.557581,90.4881181 166.768437,90.913321 C165.769676,91.4556089 162.53295,96.9832472 161.959587,97.9630627 C157.150737,106.195978 151.934985,109.622251 143.427021,113.942066 C116.146047,121.133542 69.6173451,114.780148 54.7222419,108.944391 C42.6877876,102.899114 30.2525959,98.5854613 27.3672861,85.4349815 C26.8370796,83.0254982 26.6767847,74.1825092 24.5497935,72.9253875 C22.1823599,71.5265314 20.1725074,72.6234317 17.2810324,71.1814391 C7.58318584,66.3686347 -0.887787611,56.1021402 0.616519174,45.3919557 C1.58445428,38.4962731 5.95557522,33.3014022 12.6817994,31.4650185 C19.4018584,29.6286347 27.459764,31.9025461 32.6446903,36.5612915 C37.0528024,27.6936531 43.4337758,18.1974539 51.7814454,12.8670111 C51.7752802,12.8670111 54.1303835,3.54335793 55.4497345,1.23247232 Z" id="Path" fill="#844A36"></path>
                        <path d="M43.4461062,51.8747601 C45.0922124,52.2075277 47.0958997,52.8484133 48.07,53.6495203 C51.3992035,56.3856089 53.020649,60.6068266 54.6914159,64.5753875 C56.4916519,68.8459041 56.3498525,74.0346125 56.43,78.6687085 C56.5101475,83.3028044 55.0551622,88.1217712 51.7074631,91.3323616 C48.7111799,94.2040221 45.1785251,96.7614022 41.2512979,98.0986347 C40.6717699,98.2958303 38.4276401,98.5854613 38.100885,99.109262 C37.5028614,100.064428 38.3659882,100.840886 39.1551327,101.648155 C42.8665782,105.438007 49.5373156,107.477749 54.6544248,108.88893 C64.5680531,111.625018 73.6247198,113.529188 83.7664602,115.242325 C87.6690265,115.901697 92.6443363,116.708967 96.5469027,117.368339 C100.726903,118.077011 104.432183,117.356015 108.661504,117.540886 C118.470324,117.966089 128.155841,115.575092 137.674897,113.202583 C133.291445,111.809889 127.397522,110.256974 125.461652,108.938229 C121.657729,106.350037 117.51472,102.899114 116.343333,98.4498893 C115.079469,93.6370849 114.851357,85.1391882 116.978348,80.6468266 C120.42469,73.3690775 129.549174,67.8352768 137.557758,68.7226568 C138.630501,68.8397417 138.759971,68.6302214 141.016431,69.1232103 C141.713097,69.2772694 142.021357,68.1187454 142.348112,67.4901845 C144.752537,62.8437638 145.122448,57.3407749 144.179174,52.195203 C143.2359,47.049631 142.237139,41.3124723 139.771062,36.6968635 C136.47885,30.5283395 131.916608,27.0281181 125.924041,23.4169742 C118.100413,18.6966052 107.773717,16.7554613 98.649233,17.1929889 C85.1536283,17.8461993 70.6530973,19.3374908 60.320236,28.0449077 C53.4028909,33.8745018 49.2413864,42.5264576 45.3758112,50.7039114 C45.3881416,50.6977491 42.2069027,51.6221033 43.4461062,51.8747601 Z" id="Path" fill="#EFDEC5"></path>
                        <path d="M27.4227729,50.3957934 C26.4486726,52.21369 26.1280826,54.2965683 25.8259882,56.33631 C25.5855457,57.9693358 25.3451032,59.5961993 25.0984956,61.2292251 C22.7495575,60.2309225 20.2094985,60.4219557 18.1318289,58.9306642 C16.0603245,57.4393727 13.1010324,55.4366052 12.3920354,52.9901476 C11.8618289,51.1537638 11.5474041,47.9801476 12.250236,46.2115498 C12.6263127,45.2687085 14.9567552,44.288893 15.819882,43.7466052 C16.9296165,43.0440959 18.3414454,43.0379336 19.6423009,43.2104797 C20.8938348,43.3768635 22.1453687,43.6849815 23.2551032,44.2950554 C25.0861652,45.3056827 26.4116814,45.6877491 28.230413,46.7168635 L27.4227729,50.3957934 Z" id="Path" fill="#EFDEC5"></path>
                        <path d="M176.293658,61.9810332 C179.197463,62.1782288 182.088938,62.5048339 184.961917,62.9608487 C186.416903,63.1888561 187.878053,63.46 189.24056,64.0146125 C191.478525,64.9266421 193.40823,66.664428 194.345339,68.8890406 C195.276283,71.1136531 195.128319,73.8189299 193.765811,75.8093727 C192.804041,77.2143911 191.336726,78.1942066 189.838584,78.9953137 C188.938466,79.4759779 188.007522,79.9073432 187.014926,80.1538376 C185.929853,80.4188192 184.789292,80.449631 183.673392,80.3571956 C180.627788,80.092214 177.65,78.847417 175.399705,76.7768635 C174.961976,76.3701476 174.536578,75.9202952 174.326962,75.3595203 C174.049528,74.6138745 174.191327,73.7819557 174.333127,72.9993358 C174.955811,69.6223616 175.603156,66.2453875 176.268997,62.8745756 L176.293658,61.9810332 Z" id="Path" fill="#EFDEC5"></path>
                        <path d="M115.609676,80.4619557 C114.290324,84.4983026 114.006726,89.3850554 114.080708,93.6309225 C114.148525,97.4084502 115.548024,101.457122 118.16823,104.180886 C119.524572,105.585904 121.565251,107.434613 123.279174,108.765683 C124.999263,110.09059 127.033776,111.144354 129.678643,112.235092 C131.441888,112.962251 133.377758,113.060849 134.444336,113.171771 C136.411032,113.375129 137.693392,112.80203 139.635428,112.413801 C144.086696,111.520258 148.488643,109.819446 151.811681,106.725941 C152.952242,105.666015 153.944838,104.464354 154.912773,103.244207 C156.053333,101.808376 157.181563,100.317085 157.779587,98.5854613 C158.636549,96.0773801 159.703127,93.7171956 159.228407,91.1105166 C158.513245,87.1912546 157.415841,83.0994465 155.6341,79.5376015 C153.85236,75.9695941 149.912802,72.5371587 146.46646,70.5343911 C142.656372,68.3221033 138.032478,67.7243542 133.679853,68.4145387 C129.327227,69.1047232 125.381504,70.2878967 122.206431,72.4755351 C122.212596,72.4755351 117.150973,75.7415867 115.609676,80.4619557 Z" id="Path" fill="#EEB3AF"></path>
                        <path d="M24.7039233,68.0324723 C24.4573156,73.0732841 24.4573156,74.1516974 25.2957817,79.7471218 C25.5547198,81.4602583 26.9048968,86.4456089 27.7988496,87.9245756 C29.6915634,91.0550554 30.6903245,92.6695941 32.7988201,95.6645018 C33.2920354,96.3670111 35.5423304,98.1972325 36.2883186,98.6162731 C37.1021239,99.0784502 38.0762242,99.1277491 39.0071681,99.1647232 C40.9553687,99.2448339 43.150177,98.5792989 44.950413,97.8336531 C47.4411504,96.7983764 49.4263422,95.6028782 51.9355752,92.872952 C53.7049853,90.9502952 54.950354,88.5716236 55.949115,86.1559779 C59.5249263,77.553321 59.7715339,68.8582288 54.8578761,59.898155 C53.6618289,57.716679 49.5558112,54.3890037 47.490472,52.9901476 C43.9146608,50.5621771 38.8345428,51.4249077 34.9073156,53.2366421 C30.9800885,55.042214 27.9838053,58.5424354 26.2267257,62.4925092 C26.2328909,62.4925092 24.8333923,65.4134686 24.7039233,68.0324723 Z" id="Path" fill="#EEB3AF"></path>
                        <path d="M83.8466077,85.0405904 C83.8466077,85.0405904 85.6961652,94.900369 90.6283186,91.202952 C95.560472,87.5055351 94.3274336,85.0405904 94.3274336,85.0405904 C94.3274336,85.0405904 90.0117994,84.4243542 87.5457227,81.3431734 C85.6961652,83.1918819 83.8466077,85.0405904 83.8466077,85.0405904 Z" id="Path" fill="#EEB3AF"></path>
                    </g>
                    <g id="線" transform="translate(0.000000, 0.980263)" fill-rule="nonzero">
                        <path d="M49.3189569,20.822491 C51.3598677,19.5384477 53.1162879,17.9210469 54.3655726,15.8344765 C55.8498714,13.3528159 56.0230395,10.7476895 56.6476819,8.00057762 C57.1857402,5.61151625 58.3298872,3.41382671 61.1253165,4.9633213 C62.1334027,5.51891697 62.949767,6.75974729 63.9392995,7.44498195 C66.2647008,9.05620939 68.9859152,9.72909747 71.7937136,9.69823105 C74.1809607,9.67353791 74.1871453,5.96956679 71.7937136,5.99425993 C69.7960949,6.01895307 67.9221677,5.63620939 66.2152242,4.53119134 C64.8979091,3.67310469 63.9825915,2.35202166 62.6961993,1.46306859 C60.5625198,-0.0123465704 58.0948732,0.0864259928 56.0477779,1.67296029 C53.8584372,3.376787 53.2337948,5.9633935 52.8132435,8.56851986 C52.1886011,12.4268231 50.8774706,15.4702527 47.4450298,17.6247292 C45.4288573,18.8902527 47.2904153,22.100361 49.3189569,20.822491 L49.3189569,20.822491 Z" id="Path" fill="#783718"></path>
                        <path d="M28.1367771,72.4496751 C28.0996696,67.2888087 30.2828256,62.6156318 34.1543715,59.2018051 C36.0035603,57.5720578 38.192901,56.2756679 40.4997486,55.4237545 C42.7200121,54.6088809 45.2556891,54.6459206 47.3893686,53.6952347 C49.2818495,52.8494946 50.0301834,51.3246931 50.6981178,49.460361 C51.7309424,46.5650903 52.8627202,43.7809386 54.4830796,41.1572924 C57.8351209,35.7309747 62.8446292,31.9467509 68.4478569,29.0391336 C89.289885,18.2235379 118.474909,15.044296 136.026741,33.7123105 C144.802658,43.0463177 147.962977,57.5350181 142.137105,69.2148736 C141.54957,70.3877978 142.099997,71.4557762 143.244144,71.9372924 C150.591423,75.0054152 156.417295,81.1663538 158.383991,88.9508664 C160.338318,96.6674729 157.802641,105.322419 151.086189,109.896823 C149.125678,111.230253 150.981051,114.440361 152.960116,113.094585 C160.864007,107.717653 164.172756,97.9206498 162.131845,88.6915884 C160.041458,79.2402888 152.997224,72.0298917 144.227492,68.3691336 C144.598567,69.2766065 144.969641,70.1840794 145.334531,71.0915523 C150.647084,60.4426354 149.614259,47.6392419 143.52245,37.5088809 C137.276026,27.1254152 126.112863,20.3841877 114.436379,17.8099278 C100.836492,14.8158845 86.6057781,17.3407581 73.8655473,22.5263177 C67.8665065,24.9709386 61.9416808,27.8909025 57.0929716,32.2554152 C52.176232,36.6816606 49.3375107,42.3734296 47.1110626,48.4911552 C46.0967918,51.2691336 40.8831924,51.2629603 38.2733005,52.3618051 C35.6757777,53.4544765 33.2885306,54.9669314 31.2166969,56.8806498 C26.8256465,60.9303249 24.3765536,66.5109747 24.4132454,72.4681949 C24.4445839,74.8325632 28.1553308,74.8387365 28.1367771,72.4496751 L28.1367771,72.4496751 Z" id="Path" fill="#783718"></path>
                        <path d="M71.861744,9.85873646 C93.1119542,3.47555957 116.365968,3.88916968 136.663753,13.3713357 C152.879717,20.9459567 167.432029,33.4592058 172.089016,51.3123466 C172.274553,52.0161011 173.090918,52.7754152 173.876359,52.6704693 C177.716982,52.1704332 181.007178,50.5221661 185.039523,50.6332852 C189.789279,50.7690975 194.174144,52.5223105 198.138459,55.0471841 C205.646537,59.8314801 210.538538,67.924657 208.411043,76.9746931 C206.580408,84.7777256 200.2474,91.018917 192.628,93.3153791 C184.254081,95.8402527 177.042863,93.1672202 169.343063,90.0929242 C168.347346,89.6978339 167.388737,90.5374007 167.060954,91.3893141 C164.290263,98.5750181 159.930136,104.569278 153.362114,108.717726 C147.864024,112.187112 141.599046,114.205776 135.247485,115.458953 C118.654262,118.730794 100.879784,117.854188 84.2556384,115.298448 C70.0125551,113.113105 54.3099114,110.291913 42.2314305,101.970325 C36.1272519,97.7601444 31.5321104,91.9757762 29.5283071,84.7900722 C27.6296416,77.9685921 27.9141322,70.6779422 28.9902488,63.745343 C31.4084188,48.139278 36.4117425,31.0084116 49.3189569,20.8471841 C51.1928841,19.371769 48.5520692,16.7666426 46.6966958,18.2297112 C34.2966168,27.9835018 29.1263095,43.7192058 26.1515275,58.6338628 C23.257145,73.1596029 23.2942524,89.3891697 34.5996611,100.470217 C45.8741469,111.520397 62.5044774,115.150289 77.5144483,117.903574 C95.59197,121.224801 114.529148,122.447112 132.767469,119.638267 C140.73939,118.409783 148.773157,116.100975 155.588562,111.687076 C162.836887,106.995379 167.561905,100.352924 170.641825,92.3770397 C169.881122,92.8091697 169.120419,93.2412996 168.359716,93.6734296 C175.076167,96.3526354 181.33496,98.7725632 188.744085,97.8836101 C196.097548,97.0008303 202.869661,93.2845126 207.409141,87.426065 C211.565178,82.0614801 213.426736,75.24 212.233112,68.529639 C210.903428,61.0229242 205.59706,55.2015162 199.214575,51.3617329 C195.503829,49.1331769 191.446745,47.5404693 187.123725,47.0774729 C184.693186,46.8181949 182.262647,46.9231408 179.856846,47.3244043 C177.815935,47.663935 175.873978,48.7072202 173.876359,48.9664982 C174.470079,49.417148 175.069983,49.8739711 175.663702,50.3246209 C170.777886,31.5948736 155.600931,18.1432852 138.531496,10.173574 C117.318393,0.265451264 93.1243234,-0.395090253 70.8722115,6.29057762 C68.5962868,6.96963899 69.5672655,10.5439711 71.861744,9.85873646 L71.861744,9.85873646 Z" id="Path" fill="#783718"></path>
                        <path d="M34.4883387,37.6323466 C30.1282112,32.1072563 22.7933016,29.7181949 15.92842,30.9219856 C8.90892385,32.1566426 3.53452551,37.4286282 1.31426198,44.071083 C-1.06680057,51.1888809 0.633958395,58.6462094 5.27857652,64.4305776 C10.1953161,70.5544765 18.2847442,76.5055235 26.2875882,77.1784116 C28.6686508,77.3759567 28.6562816,73.6719856 26.2875882,73.4744404 C19.8927345,72.9373646 13.318528,67.8752708 9.13775323,63.2576534 C4.77144112,58.4363177 2.81711445,52.2136462 4.64156498,45.8613357 C8.12348243,33.76787 23.9127102,30.1750181 31.8660776,40.2498195 C33.3441918,42.1264982 35.9540837,39.4843321 34.4883387,37.6323466 L34.4883387,37.6323466 Z" id="Path" fill="#783718"></path>
                        <path d="M72.9007531,61.8748375 C72.9997063,62.0291697 72.9997063,62.3501805 72.8636456,62.4983394 C72.4740172,62.9304693 71.9606972,62.4119134 71.6885758,62.1896751 C71.5958071,62.0909025 71.5586996,61.9797834 71.583438,61.8563177 C71.583438,62.078556 71.583438,62.0970758 71.5896225,61.8995307 C71.7256833,61.7266787 72.3688794,61.430361 71.9235898,61.5106137 C70.439291,61.7822383 70.043478,64.2638989 71.4844847,64.8812274 C72.8883839,65.4862094 74.397421,65.1651986 75.2385236,63.8070758 C75.9250118,62.6958845 75.8879043,61.2081227 74.8983718,60.28213 C72.5977088,58.14 68.7509012,61.4612274 70.5691672,64.0169675 C71.0020876,64.6281227 71.6329146,65.0170397 72.4121714,64.8997473 C73.0615521,64.8009747 73.8469935,64.2947653 73.9521314,63.5786643 C74.0201617,63.0786282 73.9521314,63.5169314 73.7294865,63.5910108 C72.9687834,62.8316968 72.2142649,62.078556 71.4535618,61.3192419 C71.4164544,61.430361 71.7009449,61.2945487 71.7256833,61.300722 C71.905036,61.3624549 72.0905734,61.4241877 72.2699261,61.4859206 C72.183342,61.9674368 72.1029425,62.4551264 72.0163584,62.9366426 C71.9854355,62.9551625 71.744237,62.9922022 71.7380524,62.9860289 C71.2989474,62.6835379 71.465931,62.0970758 71.9297743,61.948917 C72.1586037,61.8007581 72.3688794,61.8316245 72.5667859,62.0415162 C73.1481362,62.1835018 73.1048442,62.4983394 72.4369097,62.9736823 C72.3565102,63.615704 72.1214963,63.8441155 71.7380524,63.658917 C71.3051319,63.5848375 71.0639334,63.2638267 71.0268259,62.6958845 C71.11341,62.3872202 71.1938095,62.0723827 71.2803936,61.7637184 C71.4226389,61.5353069 71.7566061,61.7575451 71.8555594,61.9118773 C72.2080803,62.4612996 71.2680245,62.8316968 70.8722115,62.4921661 C70.4763985,62.1526354 70.9216881,61.4056679 71.2865782,61.2513357 C71.509223,61.1587365 71.7751599,61.2822022 71.5339613,61.1525632 C72.1338654,61.4550542 71.979251,62.0476895 71.6700221,62.5353791 C71.62673,62.6032852 71.465931,62.5909386 71.4102698,62.6032852 C71.5030384,62.5785921 71.6390992,62.6711913 71.5215922,62.5909386 C71.3793469,62.4983394 71.2680245,62.4983394 71.1690712,62.3254874 C70.9897185,62.0291697 70.9835339,61.6587726 71.3298703,61.7081588 C71.4597464,61.7266787 71.5648842,61.8810108 71.6390992,61.9550903 C71.5896225,61.9118773 71.5030384,61.8007581 71.5648842,61.819278 C71.6081763,61.8316245 71.5958071,61.9180505 71.5958071,61.948917 C71.5896225,61.8810108 71.5215922,61.646426 71.583438,61.8377978 C71.5710688,61.8131047 71.6947604,61.5785199 71.6329146,61.6834657 C71.6329146,61.6834657 71.5958071,61.7945848 71.5896225,61.7884116 C71.6143608,61.8254513 71.4968539,61.8933574 71.4535618,61.8439711 C71.6576529,62.0970758 71.8802977,61.8007581 71.8864823,62.1958484 C71.8864823,62.1279422 71.7194987,62.4921661 71.6823912,62.5168592 C71.4288235,62.6711913 71.2680245,62.2822744 71.4350081,62.0476895 C71.5030384,61.9550903 71.8679286,61.8439711 72.0905734,61.8810108 C72.1771575,61.8933574 72.3132182,61.9303971 72.4059868,62.1464621 C72.375064,62.0662094 72.4059868,62.3254874 72.4059868,62.3501805 C72.4059868,62.4427798 72.4121714,62.5724188 72.300849,62.8070036 C72.2884799,62.83787 72.0596505,62.9613357 72.1338654,62.9551625 C71.6947604,62.9922022 70.9773493,62.6835379 71.3855315,62.0970758 C71.8060828,61.4920939 72.1957112,62.1094224 72.1029425,62.4427798 C71.4350081,64.7268953 75.0035096,65.7022744 75.6652595,63.4243321 C76.3950397,60.9364982 74.4468976,58.1585199 71.7937136,58.14 C69.1714525,58.1214801 67.1058034,60.7945126 67.6686,63.3255596 C68.18192,65.6281949 70.8041811,67.1159567 73.0615521,66.5048014 C75.3560306,65.8812996 76.5434696,63.3255596 75.9373809,61.1155235 C75.306554,58.8067148 72.7399541,57.6955235 70.5382443,58.4054513 C68.0767822,59.2018051 66.7594671,62.2267148 68.2870579,64.4490975 C69.8146486,66.6714801 73.1481362,66.7640794 74.7375728,64.591083 C76.2033178,62.5909386 75.5910445,59.6833213 73.3151198,58.5968231 C70.8969498,57.4424188 67.9345369,58.9301805 67.8912449,61.7390253 C67.8479528,64.3256318 70.439291,66.2270036 72.8389073,64.9491336 C75.0653554,63.7638628 75.467353,60.4549819 73.0368138,59.2511913 C70.9835339,58.2387726 68.1448126,59.5722022 68.299427,62.0476895 C68.4416723,64.3256318 71.3298703,65.5911552 73.1914283,64.3750181 C75.745659,62.708231 73.9335776,58.8190614 71.1319638,58.9425271 C68.4293031,59.0598195 67.3284483,62.6279783 69.1776371,64.4367509 C71.0082722,66.2331769 75.3683997,64.9614801 74.6386195,62.0106498 C74.2860986,60.5661011 72.6657391,59.7574007 71.2680245,60.0969314 C69.8146486,60.4488087 69.0106535,62.035343 69.4435739,63.4366787 C69.925971,64.9738267 71.5463305,65.8874729 73.092475,65.368917 C74.5087434,64.893574 75.393138,63.2946931 75.07154,61.8439711 C74.7313882,60.3129964 73.2718278,59.2697112 71.7256833,59.2944043 C70.160985,59.3190975 68.7632704,60.5167148 68.7880087,62.121769 C68.812747,63.6527437 70.1857233,64.9676534 71.7071295,64.98 C73.3398581,64.9923466 74.5211125,63.7391697 75.0035096,62.2946209 C75.4364301,60.9858845 74.0387155,59.5968953 72.7275849,60.022852 C71.5525151,60.411769 70.5444288,61.3130686 70.3650761,62.5909386 C71.4906693,62.4427798 72.6162625,62.2946209 73.7418557,62.1526354 C74.1005612,62.6526715 73.6243487,63.3379061 73.0801059,63.2576534 C72.7214003,62.9057762 72.3626948,62.5477256 72.0039893,62.1958484 C72.0410967,62.0600361 72.0843888,61.9180505 72.1214963,61.7822383 C72.3441411,61.4550542 73.3955193,61.7205054 73.3336736,61.6958123 C73.1852437,62.8193502 73.0368138,63.9428881 72.8945685,65.066426 C75.5539371,64.5787365 76.0734416,60.6401805 73.8098861,59.3252708 C71.1381483,57.7819495 68.138628,61.2204693 69.6971416,63.7329964 C70.952611,65.7516606 74.1562224,63.8996751 72.9007531,61.8748375 L72.9007531,61.8748375 Z" id="Path" fill="#783718"></path>
                        <path d="M119.278904,67.5480866 C119.526287,67.7085921 119.278904,67.4184477 119.328381,67.5604332 C119.402596,67.7579783 119.229427,67.3690614 119.365488,67.3567148 C119.433518,67.3505415 119.19232,67.5912996 119.204689,67.5727798 C119.142843,67.7271119 119.421149,67.4740072 119.223243,67.5604332 C119.291273,67.5295668 119.48918,67.7703249 119.322196,67.5357401 C119.241797,67.4184477 119.34075,67.5295668 119.272719,67.6159928 C119.186135,67.7332852 119.118105,67.8320578 119.254166,67.6962455 C119.210874,67.7826715 119.167582,67.7209386 119.12429,67.5172202 C119.149028,67.5233935 119.167582,67.5357401 119.179951,67.5666065 C119.210874,67.7209386 119.167582,67.8258845 119.068628,67.8937906 C118.957306,67.9308303 119.006783,67.8999639 119.217058,67.7950181 C118.944937,67.7950181 119.210874,67.8937906 118.777953,67.6653791 C118.573862,67.5604332 118.944937,67.251769 118.740846,67.6653791 C118.765584,67.5233935 118.74703,67.5666065 118.691369,67.7950181 C118.685185,67.7518051 118.691369,67.7147653 118.716107,67.6777256 C118.722292,67.6468592 118.740846,67.6283394 118.765584,67.6098195 C118.889276,67.5912996 118.833614,67.5851264 118.592416,67.5974729 C118.759399,67.6900722 118.431617,67.5048736 118.474909,67.5172202 C118.46254,67.6345126 118.419248,67.5727798 118.338848,67.3258484 C118.5986,67.924657 118.147126,68.2333213 116.996795,68.2456679 C119.050075,69.4556318 120.911633,66.2702166 118.864537,65.0602527 C116.866919,63.8811552 114.578625,65.5726354 114.727055,67.7703249 C114.863115,69.7396029 116.69375,71.1903249 118.592416,71.2890975 C120.392128,71.3816968 122.012488,70.1408664 122.352639,68.3753069 C122.70516,66.5541877 121.703259,64.6466426 119.816962,64.2453791 C118.01725,63.8626354 116.007262,65.0417329 115.580526,66.8566787 C115.141421,68.7148375 116.347414,70.6532491 118.147126,71.2211913 C119.977761,71.8014801 121.90735,70.7828881 122.674237,69.0728881 C123.441125,67.3752347 122.835036,65.3627437 121.183754,64.4367509 C119.458257,63.4675451 117.108117,63.8688087 116.1124,65.6775812 C115.129052,67.4554874 115.741325,69.6593502 117.411161,70.7520217 C119.40878,72.0422383 121.257969,68.8444765 119.278904,67.5480866 L119.278904,67.5480866 Z" id="Path" fill="#783718"></path>
                        <path d="M119.965392,67.5604332 C119.953023,67.3258484 119.940654,67.2641155 119.965392,67.3814079 C119.940654,67.2702888 120.293175,67.3258484 119.940654,67.3505415 C119.40878,67.0480505 118.876906,66.7393863 118.345033,66.4368953 C117.893559,65.7084477 119.322196,65.2269314 119.482995,65.9306859 C119.594317,66.4122022 119.087182,66.3628159 119.11192,66.3257762 C119.149028,66.2763899 119.155212,66.560361 119.074813,66.6961733 C118.951121,66.8998917 118.753215,66.8566787 118.586231,66.949278 C118.46254,67.0171841 117.973958,66.8690253 118.38214,67.1097834 C118.821245,67.3690614 118.283187,66.9369314 118.883091,66.8937184 C118.938752,66.8875451 119.025336,66.8875451 119.050075,66.8998917 C119.569579,67.1159567 119.223243,67.8135379 118.864537,67.9431769 C117.615252,68.3938267 117.417346,66.344296 118.468724,66.2084838 C119.928285,66.0171119 119.816962,68.3259206 118.46254,68.0728159 C117.479192,67.8937906 116.471106,68.3444404 116.186615,69.3630325 C115.939232,70.2581588 116.489659,71.4496029 117.479192,71.6348014 C120.28699,72.1471841 123.230849,70.1655596 123.29888,67.165343 C123.360726,64.5355235 120.893079,62.4427798 118.338848,62.5353791 C115.524865,62.6403249 113.780814,65.325704 114.195181,67.9616968 C114.621917,70.6594224 117.374054,72.2583032 119.971577,71.4557762 C122.649499,70.628556 123.762723,67.5110469 122.309347,65.1343321 C120.707542,62.5168592 116.916395,62.6835379 115.370251,65.2763177 C114.621917,66.5356679 114.646655,68.183935 115.543419,69.3568592 C116.532951,70.6470758 118.351217,70.9187004 119.835516,70.4186643 C122.717529,69.4494585 124.022475,65.5294224 121.412583,63.4737184 C118.555308,61.2204693 114.281765,64.5231769 116.297937,67.7703249 C117.188517,69.2148736 119.056259,69.7087365 120.509635,68.8012635 C121.913534,67.9184838 122.42067,65.9862455 121.536275,64.5725632 C121.208492,64.0478339 120.590035,63.6095307 119.940654,63.658917 C117.875005,63.8194224 116.174246,65.4059567 116.273199,67.5604332 C116.378337,69.9248014 120.076715,69.937148 119.965392,67.5604332 L119.965392,67.5604332 Z" id="Path" fill="#783718"></path>
                        <path d="M91.1538242,70.9248736 C90.2879833,69.9741877 89.2489742,69.3445126 88.0306123,68.9432491 C87.4863695,68.7642238 86.935942,69.0667148 86.6390823,69.5111913 C85.5073045,71.1903249 86.37933,73.2151625 87.888367,74.3078339 C89.2922662,75.3325993 91.6795134,76.5302166 92.9659056,74.7152708 C93.8812232,73.4312274 94.4502044,70.9063538 92.6999688,70.0297473 C91.2094854,69.2889531 89.3355583,70.4618773 89.7437404,72.1533574 C90.0406002,73.3633213 91.7846512,73.2892419 92.1186184,72.1533574 C92.2237562,71.8014801 92.3412632,71.4866426 92.4958777,71.1594585 C92.7308916,70.6470758 92.4896931,71.2644043 92.4154782,71.4681227 C92.1742796,72.1410108 92.0629572,72.6904332 91.2713312,72.8138989 C89.706633,73.0484838 90.3745674,75.4190253 91.9268965,75.1844404 C94.1100526,74.8572563 95.8541036,71.4619495 94.6481108,69.5173646 C94.0729451,68.5913718 92.8855061,68.313574 91.889789,68.6469314 C90.6281351,69.0667148 90.0962614,70.3198917 89.749925,71.4989892 C90.541551,71.4989892 91.333177,71.4989892 92.124803,71.4989892 C92.0567726,72.2644765 91.8093895,72.4558484 91.3950228,72.0854513 C91.3579153,72.4002888 91.2651466,72.7027798 91.1229014,72.9805776 C90.8569645,73.357148 90.7827496,73.1287365 90.2817987,72.8756318 C89.5396494,72.5052347 88.0986427,71.7459206 88.7727617,70.7520217 C88.3089183,70.9433935 87.845075,71.1285921 87.3812316,71.3199639 C88.2037805,71.5915884 88.8346075,72.0298917 89.4159578,72.6657401 C90.4858898,73.8386643 92.2237562,72.0977978 91.1538242,70.9248736 L91.1538242,70.9248736 Z" id="Path" fill="#B44623"></path>
                        <path d="M29.8189823,47.5404693 C26.6834012,45.3551264 22.9850235,42.836426 18.9712324,43.2006498 C15.4212845,43.5216606 12.3475493,45.8428159 11.809491,49.4727076 C10.5911291,57.6708303 19.5278444,62.3378339 25.9845439,64.3935379 C27.5059501,64.8750542 28.1553308,62.4921661 26.6401092,62.0106498 C21.6924467,60.4364621 15.5882682,57.70787 14.3575371,52.1087004 C13.4484041,47.9479061 17.1405973,44.935343 21.1358347,45.7502166 C23.8199416,46.299639 26.3556186,48.1269314 28.5635129,49.6702527 C29.8808281,50.5838989 31.1177437,48.4479422 29.8189823,47.5404693 L29.8189823,47.5404693 Z" id="Path" fill="#783718"></path>
                        <path d="M179.405372,67.1406498 C181.56379,64.7948014 186.239331,65.7825271 188.849223,66.7887726 C192.553785,68.2148014 196.388223,71.1471119 194.823525,75.5671841 C192.368248,82.5183032 180.852563,82.339278 177.352092,76.4931769 C176.127546,74.4498195 172.91775,76.3079783 174.148481,78.3636823 C179.461033,87.2346931 196.258347,86.5432852 198.682702,75.5795307 C199.907248,70.0420939 196.029518,65.9985921 191.310685,63.8379422 C187.04951,61.8871841 180.326874,60.6648736 176.770742,64.5231769 C175.168936,66.2763899 177.785012,68.9000361 179.405372,67.1406498 L179.405372,67.1406498 Z" id="Path" fill="#783718"></path>
                        <path d="M175.193674,61.5229603 C176.783111,67.6530325 175.793578,73.8633574 172.435352,79.2279422 C171.167514,81.2527798 174.37731,83.1171119 175.638964,81.0984477 C179.516694,74.9066426 180.60518,67.6036462 178.774545,60.5352347 C178.174641,58.2325993 174.59377,59.2079783 175.193674,61.5229603 L175.193674,61.5229603 Z" id="Path" fill="#783718"></path>
                        <path d="M87.5643877,81.5244043 C88.6033968,86.1296751 93.0068164,88.2038989 97.3607593,88.5496029 C99.1481024,88.6915884 99.1357332,85.9136101 97.3607593,85.7716245 C94.2066245,85.5185199 91.0030131,84.135704 90.2484946,80.7836101 C89.8526816,79.0427437 87.1685747,79.7773646 87.5643877,81.5244043 L87.5643877,81.5244043 Z" id="Path" fill="#783718"></path>
                        <path d="M88.1086305,82.6355957 C87.1067289,84.9937906 85.5482152,85.8271841 83.0249074,85.5740794 C81.2437489,85.3950542 81.2561181,88.1730325 83.0249074,88.3520578 C86.4140562,88.6915884 89.1661934,87.2038267 90.5082468,84.0369314 C91.2009196,82.4133574 88.8013033,80.9935018 88.1086305,82.6355957 L88.1086305,82.6355957 Z" id="Path" fill="#783718"></path>
                        <path d="M94.7199445,86.8457762 C94.0767484,88.9755596 93.217092,92.0004693 90.6628613,92.4819856 C87.9663853,92.9881949 87.4530653,89.5743682 87.1623901,87.6359567 C86.8964532,85.8765704 84.2123464,86.6235379 84.4782832,88.3767509 C84.979234,91.7164982 86.5006403,95.6365343 90.5762772,95.3031769 C94.6519141,94.9759928 96.3774114,90.9818773 97.4040514,87.5865704 C97.9235559,85.8642238 95.2394491,85.1357762 94.7199445,86.8457762 L94.7199445,86.8457762 Z" id="Path" fill="#783718"></path>
                        <path d="M36.6158336,97.6058123 C32.4041359,95.889639 28.2975761,93.7166426 24.8465815,90.7225993 C21.395587,87.728556 19.4474449,84.3209025 17.3323192,80.37 C15.9036816,77.6907942 13.0154837,76.1474729 10.3622997,78.4192419 C7.10302705,81.2033935 7.16487283,86.7593502 7.7091157,90.5806137 C10.3932226,109.427653 28.1120387,120.737112 43.220963,129.385884 C45.2927966,130.571155 47.1667238,127.373394 45.0948901,126.188123 C31.8227856,118.588809 17.202443,109.680758 12.3351801,94.2043321 C11.6548765,92.0498556 11.2034023,89.8212996 11.1662948,87.555704 C11.1477411,86.2469675 11.2095869,84.9135379 11.5621078,83.6418412 C11.7785681,82.8640072 12.4897945,80.931769 13.7823714,81.5799639 C14.623474,81.9997473 15.6068219,85.3024549 16.1448802,86.1914079 C17.0045365,87.598917 18.0002536,88.9385199 19.0763702,90.1916968 C23.4736052,95.3155235 29.441723,98.6552708 35.6263011,101.173971 C37.84038,102.075271 38.7989896,98.4947653 36.6158336,97.6058123 L36.6158336,97.6058123 Z" id="Path" fill="#783718"></path>
                        <path d="M44.3774791,124.607762 C40.6791014,139.300181 38.5516065,153.980253 38.5948986,169.148014 C38.6010831,171.530903 42.31183,171.537076 42.3056454,169.148014 C42.2623534,154.307437 44.3403716,139.973069 47.9583498,125.595487 C48.5397001,123.280505 44.9588294,122.29278 44.3774791,124.607762 L44.3774791,124.607762 Z" id="Path" fill="#783718"></path>
                        <path d="M138.506757,125.663394 C139.088108,140.639783 141.710369,154.751913 146.268403,169.024549 C146.991998,171.290144 150.572869,170.320939 149.849273,168.036823 C145.390193,154.072852 142.786485,140.324946 142.217504,125.663394 C142.124735,123.286679 138.413989,123.274332 138.506757,125.663394 L138.506757,125.663394 Z" id="Path" fill="#783718"></path>
                        <path d="M145.371639,117.452924 C152.044799,123.854621 162.014338,133.978809 156.231758,144.01657 C155.056688,146.059928 153.479621,147.109386 151.525294,148.276137 C150.300748,149.004585 148.958694,149.887365 148.587619,151.368953 C148.253652,152.690036 148.797895,153.91852 149.713213,154.850686 C150.053364,155.19639 150.92539,155.498881 151.166589,155.875451 C153.300268,159.227545 147.690856,157.641011 146.627108,157.110108 C144.493429,156.054477 142.613317,159.252238 144.753181,160.30787 C147.04766,161.443755 149.75032,162.419134 152.255074,161.326462 C154.147555,160.499242 155.619485,158.468231 155.501978,156.350794 C155.452501,155.480361 155.130903,154.640794 154.58666,153.961733 C154.178478,153.44935 152.545749,152.529531 152.595226,152.091227 C152.650887,151.597365 155.372102,150.344188 155.786468,150.035523 C156.868769,149.232996 157.784087,148.276137 158.581898,147.189639 C167.110431,135.552996 156.231758,122.72491 148.000085,114.823105 C146.274587,113.181011 143.646142,115.798484 145.371639,117.452924 L145.371639,117.452924 Z" id="Path" fill="#783718"></path>
                        <path d="M139.230353,132.213249 C140.80742,134.738123 142.161843,137.472888 140.894004,140.436065 C139.966318,142.602888 143.15756,144.491913 144.097616,142.30657 C145.946805,138.003791 144.833581,134.1887 142.433964,130.348917 C141.17231,128.324079 137.962514,130.182238 139.230353,132.213249 L139.230353,132.213249 Z" id="Path" fill="#783718"></path>
                        <path d="M148.65565,170.296245 C154.784567,168.184982 159.837367,164.190866 163.844974,159.147292 C165.935361,156.5113 167.735073,153.671588 169.355433,150.726931 C170.215089,149.16509 171.019084,147.578556 171.804526,145.973502 C172.633259,144.288195 173.295009,142.115199 174.538109,140.68917 C175.62041,139.448339 177.104709,138.213682 177.791197,140.843502 C178.020026,141.713935 177.574737,142.960939 177.420122,143.800505 C177.110893,145.454946 176.653235,147.07852 176.090438,148.665054 C174.841153,152.183827 172.973411,155.474188 170.814993,158.511444 C168.291685,162.061083 166.170375,165.055126 162.836887,167.833105 C161.000068,169.364079 163.640882,171.969206 165.459148,170.450578 C169.565708,167.030578 172.565229,162.783357 175.434873,158.264513 C177.599475,154.863032 179.355895,151.134368 180.425827,147.239025 C181.236007,144.269675 182.596614,139.516245 180.215552,136.911119 C178.205564,134.719603 174.717462,135.299892 172.713658,137.127184 C169.782168,139.78787 168.489592,144.48574 166.658957,147.911913 C162.373044,155.924838 156.596648,163.647617 147.672302,166.71574 C145.4273,167.493574 146.392094,171.074079 148.65565,170.296245 L148.65565,170.296245 Z" id="Path" fill="#783718"></path>
                    </g>
                    <path d="M116.666922,59.8420642 C118.586922,59.5120642 120.516922,59.3520642 122.466922,59.3220642 C124.686922,59.2820642 124.686922,55.8420642 122.466922,55.8720642 C120.206922,55.9120642 117.976922,56.1320642 115.756922,56.5120642 C113.566922,56.8920642 114.486922,60.2120642 116.666922,59.8420642 L116.666922,59.8420642 Z" id="Path" fill="#783718" fill-rule="nonzero"></path>
                    <path d="M75.8869222,53.1320642 C75.0669222,51.7920642 74.0869222,50.5620642 72.9569222,49.4720642 C71.3669222,47.9320642 68.9269222,50.3620642 70.5169222,51.9120642 C71.4469222,52.8120642 72.2369222,53.7820642 72.9069222,54.8820642 C74.0669222,56.7520642 77.0469222,55.0220642 75.8869222,53.1320642 L75.8869222,53.1320642 Z" id="Path" fill="#783718" fill-rule="nonzero" transform="translate(73.075109, 52.333160) rotate(-28.000000) translate(-73.075109, -52.333160) "></path>
                    <g id="配件線" transform="translate(49.000000, 42.980263)">
                        <ellipse id="Oval" fill="#FFFFFF" opacity="0.496214367" cx="19" cy="18" rx="17" ry="15"></ellipse>
                        <ellipse id="Oval" fill="#FFFFFF" opacity="0.496214367" cx="72" cy="27" rx="21" ry="18"></ellipse>
                        <path d="M10.4125599,6.2294017 C14.8208284,4.18259585 18.8472783,2.78859186 23.7067868,4.07379554 C27.8998485,5.18219871 31.4264633,7.52820542 33.5854735,11.2886162 C38.2089487,19.3262392 33.564647,29.8798694 24.3662916,32.0830757 C14.7444647,34.3882823 3.63007445,28.1730645 3.59536368,17.877835 C3.58147937,14.6002257 4.83800943,10.8262149 7.10809413,8.33060772 C9.26710435,5.95740093 12.8076034,5.05299834 15.7580193,4.06699552 C17.9309138,3.34619346 17.0006651,-0.0538162702 14.8069441,0.673785811 C7.87173119,2.97899241 2.85255309,5.69900019 0.693542867,12.9954211 C-1.78480648,21.379845 2.58180904,30.2266704 10.5583452,33.8782808 C18.8750469,37.6862917 29.1494364,36.5030883 35.0363839,29.2338675 C40.3887854,22.6242486 40.3054796,13.4918225 34.8767143,6.95020377 C31.8082818,3.25099318 27.4416663,1.07498696 22.6862901,0.238584566 C17.6115747,-0.652217982 13.1269426,1.088587 8.60065747,3.18979301 C6.5110688,4.16219579 8.32991342,7.19500447 10.4125599,6.2294017 L10.4125599,6.2294017 Z" id="Path" fill="#3E3A39" fill-rule="nonzero"></path>
                        <path d="M37.6424834,21.9402471 C41.8688637,22.3650576 46.121951,22.5633025 50.3550081,22.9881129 C52.5583343,23.2090144 52.5383041,20.2806543 50.3550081,20.0597529 C46.1286278,19.6349424 41.8755404,19.4366975 37.6424834,19.0118871 C35.4458339,18.7909856 35.4591874,21.7193457 37.6424834,21.9402471 L37.6424834,21.9402471 Z" id="Path" fill="#3E3A39" fill-rule="nonzero"></path>
                        <path d="M53.7130686,22.7948827 C54.4353486,12.1233216 68.6952181,8.96576626 76.9636037,11.523874 C85.3902029,14.130774 93.2320993,23.17128 91.2716252,32.5742427 C89.221726,42.3954247 75.6772575,44.6677493 67.5602068,42.7369704 C59.0373036,40.7086071 52.2891453,32.4208957 53.6511589,23.2688645 C53.9882229,20.9965399 50.5625523,20.020695 50.2186095,22.3139306 C49.0216885,30.3437401 52.8188173,39.0008785 59.6701584,43.3433883 C67.3813565,48.2365535 78.0917361,47.985622 86.105604,43.9776875 C94.6009918,39.7257919 97.0154704,30.2670666 93.3284033,21.7284236 C89.6963671,13.3152464 81.2491313,7.64140532 72.2791024,7.04892805 C62.6830975,6.41462886 50.8789797,11.9630042 50.1498209,22.7948827 C49.9984861,25.1090292 53.5548549,25.1020589 53.7130686,22.7948827 L53.7130686,22.7948827 Z" id="Path" fill="#3E3A39" fill-rule="nonzero"></path>
                        <path d="M94.720188,23.836589 C102.028088,21.5821914 109.552587,19.756584 117.274853,18.3077925 C120.297837,17.7425688 119.017071,14.500654 115.984669,15.0658777 C107.848039,16.5991279 99.9656779,18.5611686 92.271665,20.932509 C89.4087765,21.816077 91.8855517,24.7136601 94.720188,23.836589 L94.720188,23.836589 Z" id="Path" fill="#3E3A39" fill-rule="nonzero"></path>
                    </g>
                </g>
                <polygon id="Path-3" fill="#FFFFFF" points="164.199359 48.6518063 164.400387 48.5903458 191.582161 133.34661 189.669552 133.931353"></polygon>
            </g>
        </g>
    </g>
</svg>