<?xml version="1.0" encoding="UTF-8"?>
<svg width="396px" height="232px" viewBox="0 0 396 232" version="1.1" xmlns="http://www.w3.org/2000/svg" xmlns:xlink="http://www.w3.org/1999/xlink">
    <title>卡樂猴圖示</title>
    <defs>
        <linearGradient x1="14.1318243%" y1="0%" x2="50%" y2="68.929674%" id="linearGradient-1">
            <stop stop-color="#F7B500" offset="0%"></stop>
            <stop stop-color="#FCDB00" stop-opacity="0" offset="100%"></stop>
        </linearGradient>
        <linearGradient x1="65.7262293%" y1="0%" x2="32.6964386%" y2="100%" id="linearGradient-2">
            <stop stop-color="#00713A" offset="0%"></stop>
            <stop stop-color="#02723A" offset="20.1278498%"></stop>
            <stop stop-color="#9BC052" offset="100%"></stop>
        </linearGradient>
        <linearGradient x1="50%" y1="0%" x2="73.1611811%" y2="100%" id="linearGradient-3">
            <stop stop-color="#00B6E7" offset="0%"></stop>
            <stop stop-color="#1F6DB5" offset="100%"></stop>
        </linearGradient>
        <linearGradient x1="82.840443%" y1="42.3579519%" x2="18.8141599%" y2="55.155698%" id="linearGradient-4">
            <stop stop-color="#36C8BF" offset="0%"></stop>
            <stop stop-color="#028B8C" offset="100%"></stop>
        </linearGradient>
    </defs>
    <g id="Web" stroke="none" stroke-width="1" fill="none" fill-rule="evenodd">
        <g id="赫綵官網/首頁02_四大優勢03" transform="translate(-329.000000, -1488.000000)">
            <g id="卡樂猴圖示" transform="translate(329.000000, 1488.000000)">
                <rect id="範圍區域" x="0" y="0.445210767" width="396" height="231.554789"></rect>
                <polygon id="Path-4" fill="url(#linearGradient-1)" opacity="0.453383673" points="37.3032745 0 44 0 231 92.1637002 106.269469 219.094721"></polygon>
                <g id="888835" transform="translate(96.000000, 26.173521)">
                    <rect id="Rectangle" fill="#FFFFFF" x="0" y="0" width="42" height="37.6029145" rx="3"></rect>
                    <path d="M17.8491515,0.38457548 C17.6828621,0.144776644 17.4009042,0 17.0986136,0 L0.899953689,0 C0.402941682,0 0,0.382652603 0,0.854638885 L0,36.7483504 C0,37.1545582 0.300856378,37.504602 0.719912334,37.5858436 C0.779138684,37.5971405 0.839461819,37.6029145 0.899869321,37.6029145 C1.25885525,37.6041109 1.58417833,37.4026094 1.7277727,37.0901418 L17.9264326,1.19643034 C18.0470789,0.930832902 18.0179719,0.625335755 17.8491515,0.38457548 Z" id="Path" fill="#F44336" fill-rule="nonzero"></path>
                    <path d="M22.5085144,13.3964637 C22.3773713,13.0748872 22.0635759,12.864155 21.7148251,12.864155 L21.7148251,12.864155 C21.3698512,12.864155 21.0583862,13.0697688 20.9245109,13.386227 L14.0673796,29.5943715 C13.8836827,30.0286318 14.0885135,30.5287908 14.5247734,30.711612 C14.6301219,30.7557578 14.7433453,30.7784705 14.8576135,30.7784705 L21.1199399,30.7784705 L23.4839719,37.0501324 C23.6096508,37.3826654 23.9292318,37.6029145 24.2862594,37.6029145 L31.1433908,37.6029145 C31.6167757,37.6025946 32.0003212,37.2204776 32,36.7493492 C32,36.6395445 31.9785444,36.5308595 31.93708,36.4291322 L22.5085144,13.3964637 Z" id="Path" fill="#F44336" fill-rule="nonzero"></path>
                    <path d="M41.1002913,0 L24.9030039,0 C24.406034,-0.00167697052 24.0017767,0.379613538 24,0.851599751 C23.9995833,0.970257293 24.0251447,1.08771304 24.0750863,1.19643571 L40.2723737,37.0901419 C40.4159559,37.4026094 40.7413357,37.6041109 41.1002069,37.6029145 C41.1606093,37.6029145 41.2209273,37.5971405 41.2801486,37.5858436 C41.6991691,37.5046021 42,37.1544782 42,36.7483505 L42,0.854644306 C42,0.382658093 41.5972611,0 41.1002913,0 Z" id="Path" fill="#F44336" fill-rule="nonzero"></path>
                </g>
                <g id="Group-28" transform="translate(22.441913, 81.588342)">
                    <path d="M2.08500913,55.2344346 L2.78839896,52.7863282 L6.03481356,52.7863282 L6.73820339,55.2344346 L8.83484615,55.2344346 L5.61548501,45.6997043 L3.26183442,45.6997043 L0.056,55.2344346 L2.08500913,55.2344346 Z M5.60195828,51.3045795 L3.22125424,51.3045795 L3.51884224,50.2609131 C3.81643025,49.2687858 4.11401825,48.1864651 4.37102608,47.1427986 L4.42513299,47.1427986 C4.72272099,48.1735803 4.99325554,49.2687858 5.30437027,50.2609131 L5.60195828,51.3045795 Z M14.5093083,55.4148214 C16.957646,55.4148214 18.3779524,54.1134595 18.3779524,50.943806 L18.3779524,45.6997043 L16.4571571,45.6997043 L16.4571571,51.111308 C16.4571571,53.0955626 15.6996604,53.7655707 14.5093083,53.7655707 C13.3324831,53.7655707 12.6155665,53.0955626 12.6155665,51.111308 L12.6155665,45.6997043 L10.6136108,45.6997043 L10.6136108,50.943806 C10.6136108,54.1134595 12.0744974,55.4148214 14.5093083,55.4148214 Z M25.621515,55.2344346 L25.621515,47.2845311 L28.4621278,47.2845311 L28.4621278,45.6997043 L20.806,45.6997043 L20.806,47.2845311 L23.6195593,47.2845311 L23.6195593,55.2344346 L25.621515,55.2344346 Z M34.4882849,55.4148214 C37.1395235,55.4148214 38.9656317,53.5207601 38.9656317,50.4284151 C38.9656317,47.3360702 37.1395235,45.5193175 34.4882849,45.5193175 C31.8370463,45.5193175 30.0109381,47.3231854 30.0109381,50.4284151 C30.0109381,53.5207601 31.8370463,55.4148214 34.4882849,55.4148214 Z M34.4882849,53.7655707 C33.0003449,53.7655707 32.0534739,52.4642089 32.0534739,50.4284151 C32.0534739,48.3797366 33.0003449,47.1556834 34.4882849,47.1556834 C35.9762249,47.1556834 36.9230958,48.3797366 36.9230958,50.4284151 C36.9230958,52.4642089 35.9762249,53.7655707 34.4882849,53.7655707 Z M44.6265671,55.2344346 C47.5753937,55.2344346 49.4691356,53.636723 49.4691356,50.4284151 C49.4691356,47.2072225 47.5753937,45.6997043 44.5183533,45.6997043 L41.7724276,45.6997043 L41.7724276,55.2344346 L44.6265671,55.2344346 Z M44.3966128,53.7011469 L43.7743833,53.7011469 L43.7743833,47.2201073 L44.3966128,47.2201073 C46.2633012,47.2201073 47.4265997,48.0962717 47.4265997,50.4284151 C47.4265997,52.7476738 46.2633012,53.7011469 44.3966128,53.7011469 Z M58.5658598,55.2344346 L58.5658598,53.636723 L54.2778872,53.636723 L54.2778872,51.0855384 L57.7948364,51.0855384 L57.7948364,49.4878269 L54.2778872,49.4878269 L54.2778872,47.2845311 L58.4170658,47.2845311 L58.4170658,45.6997043 L52.2759316,45.6997043 L52.2759316,55.2344346 L58.5658598,55.2344346 Z M64.4296962,55.4148214 C66.7427666,55.4148214 68.1089661,54.08769 68.1089661,52.5286327 C68.1089661,51.1499623 67.3108892,50.4155304 66.0934837,49.9387939 L64.7813911,49.4105183 C63.9292073,49.088399 63.2122907,48.8435884 63.2122907,48.1606955 C63.2122907,47.5293418 63.7804133,47.1556834 64.6596506,47.1556834 C65.484781,47.1556834 66.1475906,47.4391484 66.7833468,47.9416544 L67.7978514,46.7433707 C66.9862477,45.9573997 65.8229492,45.5193175 64.6596506,45.5193175 C62.6306415,45.5193175 61.1968083,46.7176012 61.1968083,48.2766584 C61.1968083,49.6682137 62.2113129,50.4412999 63.2258175,50.8407278 L64.5649635,51.3818882 C65.4577275,51.7426617 66.0664302,51.9617028 66.0664302,52.6703652 C66.0664302,53.3403733 65.5118344,53.7655707 64.4702764,53.7655707 C63.5910391,53.7655707 62.6441682,53.3403733 61.9272516,52.7090195 L60.7774798,54.0232661 C61.7514042,54.9123153 63.0905502,55.4148214 64.4296962,55.4148214 Z M72.7283435,55.2344346 L72.7283435,52.5544023 L74.0404361,50.9566907 L76.6240411,55.2344346 L78.8288977,55.2344346 L75.2307881,49.4491726 L78.2878286,45.6997043 L76.082972,45.6997043 L72.7689237,49.8357157 L72.7283435,49.8357157 L72.7283435,45.6997043 L70.7263879,45.6997043 L70.7263879,55.2344346 L72.7283435,55.2344346 Z M81.8115411,55.4148214 C82.5284576,55.4148214 83.056,54.873661 83.056,54.1778834 C83.056,53.4821058 82.5284576,52.9409454 81.8115411,52.9409454 C81.1081512,52.9409454 80.5806089,53.4821058 80.5806089,54.1778834 C80.5806089,54.873661 81.1081512,55.4148214 81.8115411,55.4148214 Z" id="AUTODESK." fill="#000000" fill-rule="nonzero"></path>
                    <g id="Group-27" transform="translate(18.056000, 0.000000)">
                        <path d="M12.3975275,1.20942052 L1.20089233,27.2276568 C0.764267342,28.2422663 1.23281635,29.4187242 2.24742582,29.8553492 C2.49714291,29.962812 2.76614714,30.0182363 3.03800531,30.0182363 L10.7348352,30.0182363 L10.7348352,30.0182363 L23.2327509,2.19765202e-13 L14.2346405,2.19765202e-13 C13.435668,2.18536207e-13 12.7133532,0.475519124 12.3975275,1.20942052 Z" id="Path-7" fill="url(#linearGradient-2)"></path>
                        <path d="M32.2704292,39.2548466 L43.5400581,39.2548466 L35.3710474,19.6274233 L27.9708678,1.84724598 C27.5053345,0.728724098 26.4127152,-2.22555013e-16 25.2011822,0 L13.3913043,0 L14.7482529,0 C15.5693327,-1.5082991e-16 16.3092491,0.495499559 16.6218994,1.25472406 L32.2704292,39.2548466 L32.2704292,39.2548466 Z" id="Path-6" fill="url(#linearGradient-3)"></path>
                        <path d="M1.17767452,28.7761519 L6.95298537,39.5978136 C7.47304623,40.5722931 8.68461065,40.9406723 9.65909025,40.4206115 C9.67978674,40.4095662 9.70028729,40.3981575 9.72058238,40.3863909 L28.4656812,29.5184403 L28.4656812,29.5184403 L4.01682696,29.5184403 C3.02246453,29.5184403 2.04479589,29.2628316 1.17767452,28.7761519 L1.17767452,28.7761519 L1.17767452,28.7761519 Z" id="Path-8" fill="url(#linearGradient-4)"></path>
                    </g>
                </g>
                <path d="M94.044,81.588342 L94.772,78.956138 L98.132,78.956138 L98.86,81.588342 L101.03,81.588342 L97.698,71.3366001 L95.262,71.3366001 L91.944,81.588342 L94.044,81.588342 Z M97.684,77.3629619 L95.22,77.3629619 L95.528,76.2408118 C95.836,75.1740765 96.144,74.0103652 96.41,72.8882151 L96.466,72.8882151 C96.774,73.9965115 97.054,75.1740765 97.376,76.2408118 L97.684,77.3629619 Z M105.838,81.7822939 C106.65,81.7822939 107.434,81.3389753 108.008,80.7848271 L108.05,80.7848271 L108.218,81.588342 L109.884,81.588342 L109.884,70.5330852 L107.826,70.5330852 L107.826,73.2622651 L107.91,74.4813912 C107.35,73.9688041 106.804,73.6363152 105.922,73.6363152 C104.228,73.6363152 102.632,75.1879302 102.632,77.7231582 C102.632,80.2583863 103.892,81.7822939 105.838,81.7822939 Z M106.37,80.1059956 C105.334,80.1059956 104.746,79.3024807 104.746,77.6954508 C104.746,76.1438358 105.488,75.3126135 106.37,75.3126135 C106.86,75.3126135 107.35,75.4650043 107.826,75.8944691 L107.826,79.3024807 C107.378,79.8843363 106.916,80.1059956 106.37,80.1059956 Z M116.372,81.7822939 C118.332,81.7822939 120.138,80.2860937 120.138,77.7231582 C120.138,75.1325153 118.332,73.6363152 116.372,73.6363152 C114.412,73.6363152 112.606,75.1325153 112.606,77.7231582 C112.606,80.2860937 114.412,81.7822939 116.372,81.7822939 Z M116.372,80.1198493 C115.308,80.1198493 114.706,79.1777973 114.706,77.7231582 C114.706,76.2546655 115.308,75.2987598 116.372,75.2987598 C117.436,75.2987598 118.038,76.2546655 118.038,77.7231582 C118.038,79.1777973 117.436,80.1198493 116.372,80.1198493 Z M126.794,81.7822939 C128.516,81.7822939 130.126,80.2445326 130.126,77.5707675 C130.126,75.2017839 128.964,73.6363152 127.032,73.6363152 C126.262,73.6363152 125.478,74.0103652 124.862,74.5645134 L124.904,73.3176799 L124.904,70.5330852 L122.86,70.5330852 L122.86,81.588342 L124.47,81.588342 L124.652,80.7709734 L124.694,80.7709734 C125.338,81.4220976 126.094,81.7822939 126.794,81.7822939 Z M126.332,80.1059956 C125.912,80.1059956 125.394,79.9536048 124.904,79.5241399 L124.904,76.1161284 C125.45,75.5758339 125.926,75.3126135 126.458,75.3126135 C127.536,75.3126135 128.012,76.1299821 128.012,77.6123286 C128.012,79.3024807 127.284,80.1059956 126.332,80.1059956 Z M136.278,81.7822939 C137.258,81.7822939 138.252,81.449805 139.022,80.9233642 L138.322,79.6765307 C137.762,80.0228733 137.202,80.2168252 136.558,80.2168252 C135.396,80.2168252 134.556,79.5518474 134.388,78.2773065 L139.218,78.2773065 C139.274,78.0972083 139.316,77.7231582 139.316,77.3491082 C139.316,75.2017839 138.196,73.6363152 136.04,73.6363152 C134.164,73.6363152 132.386,75.2017839 132.386,77.7231582 C132.386,80.27224 134.094,81.7822939 136.278,81.7822939 Z M137.552,76.933497 L134.36,76.933497 C134.514,75.7974932 135.242,75.2156376 136.068,75.2156376 C137.076,75.2156376 137.552,75.8806154 137.552,76.933497 Z" id="Adobe" fill="#000000" fill-rule="nonzero"></path>
                <g id="卡樂猴-貼圖-19" transform="translate(131.000000, 26.173521)" fill-rule="nonzero">
                    <g id="色" transform="translate(36.000000, 31.665612)">
                        <path d="M49.7170259,10.8702109 C49.7170259,10.8702109 50.6171121,3.44603424 52.3663362,1.57943236 C55.1260345,-1.37672446 59.6349569,1.11489343 61.3417241,3.3193418 C64.4835345,4.59471232 67.4894828,5.13526671 80.2775,2.74500276 C93.0655172,0.354738819 134.010948,1.8159249 152.904267,36.6310061 C154.042112,39.3591165 155.714914,45.0687223 155.714914,45.0687223 C155.714914,45.0687223 169.207716,39.2070856 179.176595,48.5063104 C189.145474,57.8055351 190.308793,67.7213297 182.03819,77.1303545 C173.776078,86.5309332 164.724267,85.9397019 156.835776,83.2876069 C154.118534,82.2233904 150.127586,80.3736809 150.127586,80.3736809 C150.127586,80.3736809 145.983793,93.9213253 126.844224,100.560009 C129.332198,110.81365 130.852155,115.906686 133.77319,119.766582 C136.694224,123.626478 138.82556,132.005071 138.82556,132.005071 C138.82556,132.005071 145.380905,121.269999 153.744914,117.579026 C162.100431,113.896499 178.412371,107.452077 190.690905,118.381411 C202.96944,129.310746 192.525043,131.945948 190.215388,130.408747 C187.905733,128.871545 180.569181,121.329122 170.83806,123.761617 C161.115431,126.194112 151.121078,130.847947 147.079181,135.915644 C143.028793,140.983342 138.859526,144.015514 137.46694,146.110162 C136.074353,148.204811 135.556379,151.72686 135.556379,151.72686 C135.556379,151.72686 138.969914,154.894171 136.898017,160.3335 C134.826121,165.772828 122.241897,167.436722 113.903362,166.068444 C105.564828,164.700166 94.4241379,164.649489 89.0151293,153.019123 C82.2135345,152.461677 57.3507759,148.044334 50.9482759,143.272252 C50.9397845,147.385533 50.0142241,151.524152 47.4073707,155.375603 C45.4034052,158.331759 37.8375862,161.042977 34.2796983,158.855421 C32.819181,157.960128 31.4181034,154.835048 34.2202586,151.304552 C29.4650862,148.365288 20.5831034,138.78734 23.4277155,128.153621 C26.2723276,117.519903 34.1693103,118.524996 35.2052586,119.259812 C34.8910776,113.795145 35.3411207,100.281286 36.0459052,95.728804 C33.3881034,92.8824473 7.31956897,73.5238432 2.35211207,60.1282297 C-2.61534483,46.7326163 3.88905172,46.4370006 5.4175,46.6903854 C5.00142241,40.0179172 4.42400862,32.6782021 10.1981466,28.3959978 C15.9722845,24.1137935 23.707931,21.6897449 32.8276724,30.7778156 C35.5109483,25.4060563 41.4803879,17.1963865 45.7770259,14.3162452 C49.8274138,11.6219194 49.7170259,10.8702109 49.7170259,10.8702109 Z" id="Path" fill="#844A36"></path>
                        <path d="M29.1848707,39.8658863 C29.1848707,39.8658863 21.9926724,30.9889696 16.2694828,37.2137913 C10.5462931,43.4386129 19.3603448,49.5536345 26.4676293,51.3948979 C27.8517241,43.4386129 26.6544397,44.1058598 29.1848707,39.8658863 Z" id="Path" fill="#EFDEC5"></path>
                        <path d="M156.835776,57.4423501 C156.835776,57.4423501 155.850776,66.2601436 154.712931,68.101407 C158.245345,71.1335793 169.292629,76.9614313 172.358017,68.7433153 C175.423405,60.5336455 168.435,55.981164 162.635388,56.7159802 C156.835776,57.4423501 156.835776,57.4423501 156.835776,57.4423501 Z" id="Path" fill="#EFDEC5"></path>
                        <path d="M25.85625,54.5706549 C25.85625,54.5706549 28.6499138,43.0416433 43.5692672,42.6446737 C47.03375,36.0228824 49.9802586,24.764148 67.1498276,18.9278498 C84.3193966,13.0915516 103.773147,11.7739503 117.749957,22.7708537 C131.726767,33.7677571 130.971034,45.8457692 130.223793,51.3948979 C129.46806,56.9524727 127.472586,60.5251994 127.472586,60.5251994 C127.472586,60.5251994 140.659698,65.1621425 141.322026,80.5257118 C141.984353,95.8892811 134.070388,97.392698 134.070388,97.392698 C134.070388,97.392698 112.026767,105.433445 93.9146552,101.193471 C84.1920259,94.0395716 73.5523276,84.9008239 71.9474569,84.6305467 C70.3425862,84.3687157 64.6618534,83.1693606 64.7043103,88.0765809 C64.7467672,92.9753551 67.1498276,97.6122982 67.1498276,97.6122982 C67.1498276,97.6122982 47.03375,93.1104937 38.6442672,87.2826417 C30.2547845,81.4547897 24.5231034,74.1657516 25.4571552,60.2549222 C25.85625,54.5706549 25.85625,54.5706549 25.85625,54.5706549 Z" id="Path" fill="#EFDEC5"></path>
                        <path d="M43.5692672,42.6446737 C43.5692672,42.6446737 55.5251293,45.4994766 57.1130172,54.7057935 C58.6414655,63.5658178 57.1130172,72.2822574 51.95875,80.9311276 C47.6706034,88.1357041 42.7880603,88.5580122 40.8350431,88.6340277 C38.8735345,88.7100431 24.2428879,79.8838035 25.3552586,65.6351276 C26.4676293,51.3864517 24.803319,52.0199139 33.2012931,45.7190768 C38.4404741,42.2730425 43.5692672,42.6446737 43.5692672,42.6446737 Z" id="Path" fill="#EEB3AF"></path>
                        <path d="M129.28125,61.8934777 C129.28125,61.8934777 116.943276,56.7413186 108.698147,63.4222331 C100.079397,70.4072093 99.3576293,79.2841259 99.3576293,82.2825136 C99.3576293,85.2809012 99.6208621,91.6999846 104.384526,96.4298355 C107.560302,99.5802541 109.368966,100.720486 114.497759,101.860718 C123.396724,100.348855 134.410043,99.994116 137.212198,95.5092038 C140.014353,91.0242916 145.211078,79.909142 136.864052,67.7297759 C132.830647,63.6587256 129.28125,61.8934777 129.28125,61.8934777 Z" id="Path" fill="#EEB3AF"></path>
                        <path d="M73.4164655,67.8057913 C73.4164655,67.8057913 75.8110345,71.6319029 78.1971121,72.5440884 C76.8130172,74.2248747 72.6607328,76.0661381 69.8161207,73.0001812 C69.0434052,70.7788405 69.374569,69.2838697 69.374569,69.2838697 C69.374569,69.2838697 71.4040086,68.8784539 73.4164655,67.8057913 Z" id="Path" fill="#EEB3AF"></path>
                    </g>
                    <path d="M5.0058651,118.886881 C5.0058651,118.886881 5.62170088,126.180645 3.77419355,127.396273 C5.62170088,128.6119 10.5483871,129.219714 11.1642229,131.650969 C11.1642229,128.004086 11.7800587,124.965018 14.8592375,123.141577 C11.1642229,121.318136 8.70087977,123.141577 5.0058651,118.886881 Z" id="Path" fill="#F5CB4A"></path>
                    <path d="M3.52271676,119.437209 C4.47075145,122.305382 3.51040462,125.459765 0.924855491,127.152657 C-1.04508671,128.43755 0.801734104,131.591932 2.78398844,130.29486 C6.69924855,127.731163 8.54606936,122.932605 7.07476879,118.468972 C6.34219653,116.252379 2.78398844,117.202347 3.52271676,119.437209 L3.52271676,119.437209 Z" id="Path" fill="#783718"></path>
                    <path d="M4.55693642,121.5381 C7.91199422,123.9252 11.8949711,125.082213 16.0195376,124.929974 C18.3834682,124.844721 18.3896243,121.203175 16.0195376,121.288429 C12.4674855,121.416309 9.29710983,120.441983 6.41606936,118.389808 C4.48306358,117.02575 2.64855491,120.180133 4.55693642,121.5381 L4.55693642,121.5381 Z" id="Path" fill="#783718"></path>
                    <path d="M2.15606936,130.550621 C5.10482659,130.282681 7.86890173,131.062142 10.1035549,133.029064 C11.8641908,134.581897 14.4805202,132.0182 12.7075723,130.453188 C9.78959538,127.883402 6.07748555,126.555882 2.15606936,126.909075 C-0.183236994,127.122209 -0.201705202,130.763755 2.15606936,130.550621 L2.15606936,130.550621 Z" id="Path" fill="#783718"></path>
                    <path d="M15.0160983,120.929146 C10.6083526,123.340604 8.44757225,128.291401 9.45101156,133.126496 C9.93118497,135.422253 13.4770809,134.447927 12.9969075,132.158259 C12.3197399,128.900355 13.9634104,125.660719 16.8690751,124.071349 C18.9436705,122.938695 17.0906936,119.796492 15.0160983,120.929146 L15.0160983,120.929146 Z" id="Path" fill="#783718"></path>
                    <path d="M48.5624572,2.87701986 C48.5624572,2.87701986 49.2566587,10.2362375 47.0886756,11.4710745 C49.2476715,12.6901838 55.01473,13.2827002 55.7269059,15.7340252 C55.7403867,12.0531058 56.4727839,8.9830516 60.0853401,7.1294855 C55.7651016,5.30475342 52.8737085,7.15569825 48.5624572,2.87701986 Z" id="Path" fill="#F5CB4A" transform="translate(53.587008, 9.305523) scale(-1, 1) rotate(22.000000) translate(-53.587008, -9.305523) "></path>
                    <path d="M53.6424277,2.10393635 C51.8079191,5.06954272 49.1669653,7.12780752 45.8119075,8.17520854 C43.9712428,8.74762537 44.168237,11.0433823 45.8119075,11.682784 C48.4220809,12.6997374 50.2504335,14.7823603 51.0691908,17.4069524 C51.7648266,19.6418139 55.3168786,18.685756 54.6150867,16.4387154 C53.3900289,12.4987825 50.6382659,9.67323557 46.7907225,8.16911899 C46.7907225,9.33831083 46.7907225,10.5075027 46.7907225,11.6766945 C51.0568786,10.3491746 54.4858092,7.70631389 56.8189595,3.93079859 C58.0563295,1.93951875 54.8797977,0.106566964 53.6424277,2.10393635 L53.6424277,2.10393635 Z" id="Path" fill="#783718"></path>
                    <path d="M52.9406358,2.57283099 C54.0487283,6.61628609 56.9974855,9.55144476 61.0728035,10.6962784 C61.0728035,9.52708659 61.0728035,8.35789476 61.0728035,7.18870292 C56.0740751,8.16302945 52.1957514,12.0968728 51.4200867,17.0902963 C51.0630347,19.3799636 54.6089306,20.3725588 54.9659827,18.0585333 C55.5631214,14.2038539 58.1671387,11.4513815 62.0454624,10.6962784 C63.8922832,10.3369955 63.7014451,7.65150803 62.0454624,7.18870292 C59.1890462,6.38488354 57.2621965,4.43623048 56.4865318,1.604594 C55.8709249,-0.654625637 52.3188728,0.30143227 52.9406358,2.57283099 L52.9406358,2.57283099 Z" id="Path" fill="#783718"></path>
                    <g id="線" transform="translate(34.000000, 24.738760)">
                        <path d="M48.6529487,22.9884923 C50.6344444,21.7927539 52.3438034,20.2854498 53.5003846,18.2644834 C54.9801282,15.6793306 54.2912821,12.6394604 56.0091453,10.3911353 C57.8460684,7.98281711 58.6964957,9.3385487 60.4398718,10.8879562 C61.2392735,11.5952945 62.0556838,12.1257981 63.0081624,12.6141983 C65.1682479,13.7088884 67.5494444,14.1972886 69.9561538,14.2814956 C72.0311966,14.3572818 72.0311966,11.1658391 69.9561538,11.0900529 C67.9661538,11.0226873 65.857094,10.6016527 64.1137179,9.60801088 C62.7105128,8.79962434 61.9196154,7.51125829 60.6099573,6.6355062 C58.985641,5.54081609 57.1487179,5.45660916 55.3288034,6.19763016 C53.449359,6.96391323 52.3097863,8.37858968 51.833547,10.3069284 C51.4678632,11.7889704 51.8760684,13.3552193 51.5103846,14.8372613 C50.9150855,17.2540003 49.0866667,18.9970837 47.0371368,20.2433463 C45.2597436,21.3043537 46.8755556,24.066341 48.6529487,22.9884923 L48.6529487,22.9884923 Z" id="Path" fill="#783718"></path>
                        <path d="M28.6849145,66.7845174 C28.9655556,60.1995353 33.3707692,54.8608159 39.5873932,52.6714356 C41.7134615,51.921994 44.1967094,52.1072492 46.2122222,51.1557109 C48.2107265,50.2125932 48.6359402,48.326358 49.4353419,46.431702 C54.9035897,33.396469 68.3998718,27.7967081 81.6155128,25.1694518 C94.6100427,22.584299 108.905726,24.2684377 119.434017,32.7901791 C129.664658,41.0761412 134.052863,55.542892 127.683162,67.4497521 C127.30047,68.1570903 127.445043,69.2517805 128.261453,69.6307116 C140.575641,75.3652037 146.171453,90.7750721 137.165427,101.890387 C135.881282,103.473477 138.143419,105.747065 139.444573,104.147133 C149.675214,91.5160931 144.292009,73.5800167 129.885769,66.8687243 C130.081368,67.5929039 130.268462,68.3255042 130.46406,69.0496838 C141.179444,48.9915927 125.650641,27.7293425 105.572051,22.4158852 C93.4704701,19.2076011 80.501453,21.1443605 68.9526496,25.5147002 C63.9776496,27.4009355 59.0536752,29.666102 54.9716239,33.1101655 C50.8130342,36.6131738 48.7890171,40.9245687 46.3227778,45.581212 C44.4773504,49.0589583 40.9480769,48.6631857 37.6314103,50.0020759 C35.4117949,50.9030901 33.3537607,52.140932 31.559359,53.732443 C27.7324359,57.134403 25.6658974,61.7236808 25.4532906,66.7760967 C25.3767521,68.8307458 28.5998718,68.8307458 28.6849145,66.7845174 L28.6849145,66.7845174 Z" id="Path" fill="#783718"></path>
                        <path d="M69.3778632,103.919774 C52.0546581,99.9115242 30.4878205,93.4023284 28.8039744,72.6621612 C28.1066239,64.0393714 30.2922222,55.2650091 32.928547,47.1053575 C35.8880342,37.9268019 40.4123077,29.1103362 48.3723077,23.2411131 C50.0136325,22.0285333 48.4148291,19.2581252 46.7479915,20.4875464 C38.6094017,26.4915006 33.6939316,35.0469249 30.4367949,44.4275771 C27.2221795,53.6987602 24.6198718,64.02253 25.7084188,73.8915824 C28.0981197,95.5159224 50.0986752,102.732456 68.5274359,106.993327 C70.5429487,107.456465 71.4018803,104.382912 69.3778632,103.919774 L69.3778632,103.919774 Z" id="Path" fill="#783718"></path>
                        <path d="M70.3813675,14.2225507 C88.9461966,9.43117633 108.914231,10.3911353 126.220427,19.0560286 C140.260983,26.0873074 152.456111,37.3036706 156.09594,52.9324771 C156.240513,53.5556084 156.97188,54.170319 157.652222,54.1029535 C160.815812,53.7998085 163.656239,52.5114425 166.947393,52.6545943 C170.918889,52.8230081 174.601239,54.279788 177.900897,56.4102234 C184.585256,60.7216183 188.939444,67.8202626 186.898419,75.8451832 C185.214573,82.4722687 179.593248,87.6678364 173.053462,89.5372303 C165.799316,91.6171415 159.463632,89.2004025 152.881325,86.3289462 C152.166966,86.0173805 151.044402,86.0426426 150.678718,86.9015533 C141.307009,108.60168 116.270427,108.829038 95.8091453,107.288051 C93.7426068,107.136479 93.7511111,110.327922 95.8091453,110.479494 C117.375983,112.104688 143.637179,111.262619 153.459615,88.5099057 C152.728248,88.7035816 151.988376,88.8888369 151.257009,89.0825128 C159.063932,92.4844729 166.539188,95.1285705 175.06047,92.2571141 C182.178547,89.8572166 188.11453,83.9711521 190.010983,76.6956732 C192.15406,68.4770767 188.573761,60.5784665 182.042479,55.4418437 C178.80235,52.8987944 175.009444,50.8273038 170.935897,49.9768138 C168.682265,49.505255 166.369103,49.3368412 164.072949,49.5389378 C161.870342,49.7326137 159.795299,50.7009934 157.652222,50.9115108 C158.170983,51.2988627 158.689744,51.6946352 159.208504,52.0819871 C155.39859,35.6953183 142.599658,23.6789891 127.853248,16.3024619 C109.764658,7.2502168 88.9632051,6.13868531 69.5309402,11.1489977 C67.5239316,11.66266 68.374359,14.7446337 70.3813675,14.2225507 L70.3813675,14.2225507 Z" id="Path" fill="#783718"></path>
                        <path d="M35.445812,37.3289327 C30.6408974,31.0470956 21.8049573,28.621936 14.5167949,32.1838892 C6.66735043,36.0153046 3.5292735,45.5980534 5.99551282,53.5892912 C6.59931624,55.5513127 9.71188034,54.7092434 9.09957265,52.7388012 C7.16059829,46.4485434 9.20162393,38.9288644 15.1716239,35.4595388 C20.8864957,32.1333651 28.6934188,33.7501381 32.6649145,38.9457058 C33.8980342,40.5624789 36.7044444,38.9709679 35.445812,37.3289327 L35.445812,37.3289327 Z" id="Path" fill="#783718"></path>
                        <path d="M77.0572222,66.3045379 C76.5639744,65.3108961 75.8496154,64.5530337 74.9226496,63.9299024 C74.5059402,63.6520195 73.9786752,63.803592 73.6214957,64.0983162 C72.260812,65.2266891 72.5499573,67.1381865 73.5534615,68.3928698 C74.4974359,69.5717668 76.1642735,71.0874916 77.6780342,69.8833324 C78.7495726,69.0328424 79.8296154,67.0708209 78.5539744,65.942448 C77.4739316,64.982489 75.6625214,65.5382548 75.5944872,67.0287175 C75.5434615,68.1234076 77.0487179,68.4097111 77.5929915,67.5676418 C77.7630769,67.2981796 77.9756838,67.0876623 78.1542735,66.8350415 C78.4094017,66.7592553 78.4434188,66.7339932 78.2733333,66.7424139 C78.1117521,66.7171518 78.0352137,66.8097794 78.0267094,67.0287175 C77.5759829,67.5171177 77.4654274,68.0223593 76.7000427,67.9213109 C75.339359,67.7528971 75.3478632,69.8664911 76.7000427,70.0433256 C78.605,70.2875257 80.8841453,67.8707868 80.314359,65.9761308 C80.0422222,65.0582753 79.0642308,64.5614544 78.137265,64.6372406 C77.0147009,64.7214475 76.3003419,65.6308824 75.7475641,66.4982138 C76.4108974,66.6750484 77.0742308,66.8518829 77.7460684,67.0371382 C77.5249573,67.6518488 77.2698291,67.7613178 76.989188,67.3739659 C76.8786325,67.6265867 76.7255556,67.8539454 76.5299573,68.056042 C76.3683761,68.2665594 76.3173504,68.3086628 76.3938889,68.1823524 C76.2067949,68.0476213 76.0197009,67.8960489 75.8581197,67.727635 C75.3138462,67.2308141 74.3358547,66.2792758 75.152265,65.6056203 C74.718547,65.6645652 74.2848291,65.7150893 73.8511111,65.7740342 C74.4719231,66.1950688 74.8801282,66.7255725 75.2117949,67.3823866 C75.8155983,68.5949664 77.6695299,67.5255384 77.0572222,66.3045379 L77.0572222,66.3045379 Z" id="Path" fill="#B44623"></path>
                        <path d="M30.8535043,45.4212188 C28.140641,43.4086732 24.9430342,41.0929826 21.3712393,41.4045482 C18.5223077,41.6487483 15.9795299,43.3834111 15.2651709,46.2043433 C13.4537607,53.3619325 21.5668376,57.875424 27.0946154,59.8542869 C28.3957692,60.317425 28.9570513,58.2627759 27.6644017,57.7996378 C23.5313248,56.3260165 18.1396154,53.7745464 17.3402137,48.9747514 C16.7194017,45.2022808 20.0020513,42.7771212 23.5823504,43.7033974 C25.8274786,44.2844253 27.9450427,45.9180397 29.7649573,47.2653506 C30.8790171,48.0821579 31.9505556,46.2296054 30.8535043,45.4212188 L30.8535043,45.4212188 Z" id="Path" fill="#783718"></path>
                        <path d="M160.160983,66.683469 C162.253034,64.7130268 166.505171,65.8498204 168.741795,66.8855657 C171.718291,68.2581387 174.541709,70.6496155 173.300085,74.2452515 C171.122991,80.5270886 161.01141,79.7018607 158.043419,74.6578655 C156.997393,72.8810992 154.216496,74.4894516 155.262521,76.2662178 C159.871838,84.0974625 174.907393,83.8869451 176.744316,73.9084238 C178.317607,65.3614202 163.919872,58.7343347 157.890342,64.4183026 C156.376581,65.8498204 158.664231,68.0981455 160.160983,66.683469 L160.160983,66.683469 Z" id="Path" fill="#783718"></path>
                        <path d="M156.648718,61.8163084 C157.822308,67.1887106 156.750769,72.4179611 153.680726,76.9735561 C152.53265,78.6913775 155.322051,80.2913092 156.461624,78.5819085 C160.007906,73.3105546 161.104957,67.1381865 159.752778,60.9658184 C159.31906,58.9616934 156.206496,59.8121834 156.648718,61.8163084 L156.648718,61.8163084 Z" id="Path" fill="#783718"></path>
                        <path d="M27.485812,64.6119785 C23.3697436,61.8752533 19.2536752,59.1469487 15.1376068,56.4102234 C12.6798718,54.7766089 9.88196581,52.3261872 6.70136752,52.6040701 C-0.578290598,53.2272014 -0.068034188,62.1699775 2.03252137,66.986614 C5.27264957,74.396824 11.6933761,81.1165371 17.2806838,86.8678705 C23.2761966,93.0402386 29.9010256,98.5305305 36.9850855,103.431374 C38.6859402,104.610271 40.3017521,101.848284 38.6094017,100.677807 C28.5573504,93.7307354 19.525812,85.4363527 11.8719658,75.9462315 C9.83094017,73.4116029 7.77290598,70.801188 6.14008547,67.9802558 C4.35418803,64.9067028 0.943974359,55.4165816 7.76440171,56.393382 C11.1576068,56.8817822 14.1085897,59.5595626 16.9405128,61.4457979 C19.9170085,63.4162401 22.885,65.395103 25.8614957,67.3655452 C27.5878632,68.5107595 29.2036752,65.7487721 27.485812,64.6119785 L27.485812,64.6119785 Z" id="Path" fill="#783718"></path>
                        <path d="M97.4079487,108.618521 C89.8561538,103.414533 83.2228205,97.1326955 75.8326068,91.7771346 C71.0021795,88.2741263 64.8961111,90.3456168 64.9299867,96.7874471 C64.9641453,103.524002 70.4664103,111.178412 74.4208974,116.315034 C78.9366667,122.192678 84.4389316,127.135625 90.6725641,131.169137 C92.4159402,132.29751 94.0317521,129.535523 92.2968803,128.415571 C82.772094,122.243202 75.0757265,113.645675 70.270812,103.397691 C69.5479487,101.848284 68.6720085,100.231511 68.374359,98.5389512 C67.7705556,95.1454119 70.0411966,91.7518726 73.6810256,94.126508 C76.4534188,95.9453777 78.8771368,98.5473719 81.4539316,100.652545 C86.0802564,104.425016 90.8681624,107.978548 95.7836325,111.372088 C97.4844872,112.550985 99.1002991,109.788997 97.4079487,108.618521 L97.4079487,108.618521 Z" id="Path" fill="#783718"></path>
                        <path d="M36.9510684,101.494615 C35.0291026,111.700495 34.918547,121.931637 36.6108974,132.1712 C36.9425641,134.192166 40.0466239,133.333255 39.7149573,131.32071 C38.1246581,121.670595 38.2437179,111.944695 40.0551282,102.336684 C40.4378205,100.34098 37.3337607,99.4820689 36.9510684,101.494615 L36.9510684,101.494615 Z" id="Path" fill="#783718"></path>
                        <path d="M46.3482906,149.349414 C59.606453,155.925975 73.7405556,160.068956 88.4784615,161.736253 C90.5364957,161.972033 90.5194872,158.772169 88.4784615,158.544811 C74.344359,156.944879 60.695,152.902946 47.9726068,146.595847 C46.1271795,145.677991 44.494359,148.431558 46.3482906,149.349414 L46.3482906,149.349414 Z" id="Path" fill="#783718"></path>
                        <path d="M90.1112821,149.618876 C86.8881624,155.445996 88.742094,162.519378 93.5044872,166.999187 C99.6785897,172.809465 109.364957,174.274665 117.503547,174.906217 C124.485556,175.445142 135.226453,175.335673 139.750726,168.86016 C144.113419,162.620426 137.888291,157.332231 132.717692,154.52814 C130.897778,153.542919 129.264957,156.296486 131.093376,157.281707 C133.364017,158.511128 136.19594,159.917384 137.403547,162.325702 C139.104402,165.693979 136.37453,168.447546 133.517094,169.828539 C127.65765,172.674734 119.995299,172.152651 113.72765,171.285319 C108.369957,170.552719 102.638077,169.483291 98.0542735,166.477104 C93.0707692,163.201454 89.7881197,156.843831 92.8921795,151.218808 C93.8956838,149.4252 91.1147863,147.808427 90.1112821,149.618876 L90.1112821,149.618876 Z" id="Path" fill="#783718"></path>
                        <path d="M127.18141,108.256431 C127.768205,112.458357 128.805726,116.517131 130.455556,120.441174 C132.122393,124.3989 134.580128,127.834543 136.527607,131.640696 C140.677692,139.758244 140.337521,149.223103 135.889786,157.146976 C134.877778,158.940583 137.667179,160.557356 138.670684,158.755328 C142.667692,151.639842 143.832778,143.244411 141.502607,135.379484 C140.184444,130.941778 137.539615,127.270356 135.345513,123.236844 C132.649658,118.285477 131.067863,112.963599 130.293974,107.405941 C130.013333,105.384975 126.900769,106.243885 127.18141,108.256431 L127.18141,108.256431 Z" id="Path" fill="#783718"></path>
                        <path d="M142.761239,140.162437 C148.37406,130.242861 158.366581,123.161058 169.779316,121.443237 C175.375128,120.601167 181.345128,121.097988 186.515726,123.489465 C188.879915,124.584155 191.091026,126.083039 192.834402,128.019798 C193.854915,129.148171 195.181581,130.832309 195.564274,132.373296 C196.865427,137.627809 192.21359,135.741574 189.917436,134.057435 C182.119017,128.314522 171.973419,128.146108 163.145983,131.640696 C152.93235,135.691049 145.346538,144.153846 138.236966,152.128242 C136.867778,153.660809 139.138419,155.925975 140.516111,154.384988 C150.032393,143.724391 161.598205,131.143875 177.40765,132.558552 C181.795855,132.954324 185.376154,134.646883 188.837393,137.265719 C190.606282,138.604609 192.647308,140.052968 195.02,139.471941 C199.340171,138.402513 199.603803,133.341676 198.056026,129.998661 C193.20859,119.531739 179.295598,116.727648 168.928889,118.369684 C156.742265,120.298022 146.001368,127.935591 139.988846,138.554085 C138.959829,140.339272 141.740726,141.956045 142.761239,140.162437 L142.761239,140.162437 Z" id="Path" fill="#783718"></path>
                        <path d="M100.341923,64.4940888 C99.2958974,63.5762333 101.064786,63.2983504 101.770641,63.5341298 C102.621068,63.8204334 103.258889,64.6288199 102.519017,65.4203651 C101.906709,66.0687584 100.469487,65.9761308 100.401453,64.8898614 C100.37594,64.4435647 100.699103,63.9804265 101.209359,64.0562128 C101.957735,64.1656818 101.345427,64.5951371 101.19235,65.0077511 C101.030769,65.2182684 100.860684,65.4287858 100.699103,65.6393031 C100.656581,65.6477238 100.605556,65.6561445 100.563034,65.6645652 C100.307906,65.5635169 100.052778,65.4540478 99.8061538,65.3529995 C99.7976496,65.3193168 99.780641,65.285634 99.7721368,65.2435305 C99.8061538,64.9740683 99.8401709,64.6961855 99.8826923,64.4267233 C99.8571795,64.4940888 99.8231624,64.5530337 99.7976496,64.6203992 C100.010256,64.4604061 100.222863,64.2919922 100.43547,64.131999 C100.341923,64.1488404 100.25688,64.1741025 100.163333,64.1909439 C100.43547,64.2246266 100.716111,64.2583094 100.988248,64.3004129 C101.396453,64.544613 101.345427,63.3741366 101.328419,63.281509 C101.277393,62.9109985 101.115812,62.5320673 100.818162,62.2794465 C100.239872,61.7826256 99.3809402,61.8078877 98.7261111,62.1447154 C97.1613248,62.9446813 96.9572222,65.091958 97.9097009,66.4055862 C100.19735,69.5633461 106.34594,68.4939181 105.946239,64.1151576 C105.606068,60.3847906 100.307906,58.810121 97.9352137,61.7068394 C96.7701282,63.1299365 96.7361111,65.4540478 97.6460684,67.0034554 C98.6665812,68.7296975 100.860684,69.1928356 102.72312,68.7886423 C105.078803,68.2749801 106.277906,66.3129585 106.031282,63.9972679 C105.801667,61.799467 104.109316,60.1574319 101.830171,60.5447837 C100.469487,60.7805631 101.047778,62.8267916 102.399957,62.5994329 C103.624573,62.3889155 103.981752,63.9720059 103.913718,64.8477579 C103.820171,65.9256067 103.216368,66.5318966 102.144829,66.7339932 C101.200855,66.9192485 100.052778,66.7929381 99.4914957,65.9256067 C98.9642308,65.1172201 99.0067521,63.6688609 99.6615812,62.953102 C100.801154,61.7152601 103.165342,62.3552328 103.709615,63.8709575 C104.568547,66.2876965 100.835171,66.7760967 99.7041026,65.2014271 C99.4149573,64.7972338 99.6530769,64.6119785 99.5510256,64.2246266 C99.2023504,62.8941571 99.0747863,63.9046403 99.0152564,64.3340957 C98.9302137,64.9993304 99.0747863,65.5719376 99.6360684,65.9845515 C100.716111,66.7845174 102.24688,65.7656135 101.762137,64.4772474 C101.362436,63.3993987 99.8571795,63.1888814 99.2278632,64.1825232 C98.4964957,65.3277374 99.5595299,66.6918897 100.826667,66.5234759 C103.743632,66.136124 102.297906,61.2100185 99.6615812,62.8520537 C98.5305128,63.5593919 98.5560256,65.2182684 99.5170085,66.0603378 C100.597051,67.0118761 102.391453,66.7592553 103.292906,65.6982479 C105.29141,63.3236125 101.558034,60.9658184 99.4149573,62.4899639 C96.7786325,64.3593577 98.9387179,68.1570903 101.804658,67.9718351 C105.325427,67.7444764 106.065299,63.1973021 102.944231,61.7236808 C101.60906,61.0921288 99.6275641,61.0079219 98.5475214,62.1783982 C97.5270085,63.281509 97.7226068,65.0414339 98.8196581,66.0013929 C99.8571795,66.9024071 101.379444,65.4035237 100.341923,64.4940888 L100.341923,64.4940888 Z" id="Path" fill="#783718"></path>
                        <path d="M62.0216667,55.7955128 C58.424359,54.9029193 58.1267094,60.7889838 61.1202137,61.7742049 C62.4723932,62.2205017 64.0031624,61.47106 64.6239744,60.2332181 C65.3213248,58.835383 64.6579915,57.1428237 63.3738462,56.3260165 C61.9366239,55.4081609 60.414359,55.846037 59.8190598,57.4291273 C59.2917949,58.8269623 59.8020513,60.6542528 61.4944017,60.8647701 C63.0336752,61.058446 64.2582906,59.2564177 63.7055128,57.8670033 C63.1612393,56.5112717 61.1797436,56.4523269 60.4483761,57.6817481 C59.6744872,58.9785348 60.8395726,60.62057 62.2938034,60.5700458 C63.773547,60.5279424 64.768547,58.9111693 64.3263248,57.5554377 C63.867094,56.1491819 62.1662393,55.4250023 60.8140598,56.0060301 C59.4873932,56.5702166 58.8410684,58.1280448 59.3002991,59.466935 C60.414359,62.7846881 65.2532906,61.5552669 65.5594444,58.397507 C65.857094,55.2650091 61.7240171,53.622974 59.6149573,55.8544577 C57.089188,58.5238174 59.5299145,62.7004812 63.0506838,62.4225983 C67.0561966,62.102612 66.8946154,56.61232 63.7140171,55.1892229 C62.4638889,54.6334571 61.3668376,56.4607476 62.6339744,57.024934 C63.4758974,57.4038652 64.1222222,58.2122517 63.9946581,59.1806315 C63.8415812,60.4184733 62.5149145,60.536363 61.6134615,59.9805973 C59.6319658,58.7511761 61.596453,55.7197266 63.1272222,57.3449203 C63.8841026,58.1448862 63.0336752,59.6437696 61.9366239,59.3069418 C61.4858974,59.1722108 61.1542308,58.7090726 61.3838462,58.2543552 C61.5539316,57.9259482 62.2087607,57.7406929 62.3023077,58.2375138 C61.9026068,58.8690658 61.7325214,58.9701141 61.7920513,58.5238174 C61.7665385,58.3806656 61.7920513,58.2375138 61.8685897,58.1112034 C62.0556838,57.9091068 61.9961538,57.9596309 62.3023077,58.1448862 C62.7615385,58.4311898 62.9401282,59.0880038 62.5574359,59.4921971 C61.2392735,60.8984529 61.0606838,57.7238515 61.4688889,57.8248999 C62.7870513,58.178569 63.3653419,56.1323405 62.0216667,55.7955128 L62.0216667,55.7955128 Z" id="Path" fill="#783718"></path>
                        <path d="M73.9361538,73.8663203 C74.718547,77.6387908 77.6525214,80.653399 81.402906,81.6217787 C82.7380769,81.9670271 83.3163675,79.9207987 81.9726923,79.5671296 C78.9026496,78.7755844 76.6405128,76.3672662 76.0026923,73.3021339 C75.7305556,71.9632437 73.6555128,72.5274301 73.9361538,73.8663203 L73.9361538,73.8663203 Z" id="Path" fill="#783718"></path>
                        <path d="M74.4719231,74.4305067 C73.4173932,75.3315209 72.014188,75.7609763 70.6279915,75.5504589 C69.275812,75.3483623 68.6890171,77.3945907 70.0582051,77.6051081 C72.2523077,77.9335151 74.3018376,77.3777493 75.9856838,75.9378108 C77.0317094,75.0367966 75.5094444,73.5379133 74.4719231,74.4305067 L74.4719231,74.4305067 Z" id="Path" fill="#783718"></path>
                        <path d="M70.3048291,76.9230319 C69.6755128,79.5081847 71.019188,81.9670271 73.5194444,82.9354068 C76.4108974,84.055359 79.3108547,82.8090964 81.59,81.0154888 C82.6700427,80.1649988 81.1477778,78.6661154 80.067735,79.5081847 C78.7070513,80.5776127 77.082735,81.4028407 75.2968376,81.1839026 C73.4088889,80.9481232 71.8866239,79.4829226 72.3713675,77.4787977 C72.7030342,76.1567488 70.6364957,75.5925624 70.3048291,76.9230319 L70.3048291,76.9230319 Z" id="Path" fill="#783718"></path>
                        <path d="M36.3387607,125.156762 C28.2256838,124.382059 23.786453,133.198524 23.5653419,140.137175 C23.2932051,148.507344 29.3312393,156.001761 36.4323077,159.807915 C38.2522222,160.784715 39.8850427,158.031148 38.0566239,157.054348 C32.7839744,154.224995 28.4552991,149.534669 27.1201282,143.606501 C25.8104701,137.779381 28.7869658,127.624025 36.3387607,128.339784 C38.3967949,128.541881 38.3882906,125.350438 36.3387607,125.156762 L36.3387607,125.156762 Z" id="Path" fill="#783718"></path>
                        <path d="M39.2642308,157.214341 C35.4798291,156.439637 32.7754701,159.403721 33.0816239,163.15093 C33.3707692,166.780249 35.8540171,168.245449 39.2557265,168.102297 C43.4653419,167.925463 48.134188,166.982345 51.025641,163.689854 C53.8065385,160.506832 55.0141453,155.294423 54.3082906,151.210387 C53.9596154,149.189421 50.8555556,150.048331 51.2042308,152.060877 C51.9696154,156.464899 49.5799145,162.165709 45.2682479,163.833006 C43.5588889,164.498241 41.6879487,164.717179 39.8765385,164.877172 C38.6519231,164.986641 38.0566239,165.197158 37.1211538,164.304565 C36.2537179,163.479337 35.5733761,159.715287 38.4138034,160.296315 C40.4378205,160.700508 41.2967521,157.626955 39.2642308,157.214341 L39.2642308,157.214341 Z" id="Path" fill="#783718"></path>
                        <path d="M100.903205,61.6984187 C100.392949,62.2878672 99.780641,62.734164 99.0577778,63.0204675 C98.9217094,63.0709917 98.8366667,63.2562469 98.9642308,63.3741366 C99.5850427,63.9299024 99.9592308,64.6035578 100.086795,65.4203651 C100.129316,65.6898273 100.537521,65.5719376 100.495,65.3108961 C100.350427,64.4267233 99.9337179,63.6772816 99.2618803,63.0794124 C99.2278632,63.1973021 99.2023504,63.3151918 99.1683333,63.4330815 C99.967735,63.1130952 100.639573,62.649957 101.200855,62.0015637 C101.379444,61.7910463 101.081795,61.4879014 100.903205,61.6984187 L100.903205,61.6984187 Z" id="Path" fill="#FFFFFF"></path>
                        <path d="M100.988248,61.7826256 C101.005256,62.6162743 101.626068,63.0541503 102.30641,63.4246608 C102.30641,63.3067711 102.30641,63.1804607 102.30641,63.062571 C101.302906,63.5088677 100.512009,64.241468 99.9762393,65.1930064 C100.112308,65.2266891 100.239872,65.2603719 100.37594,65.3024754 C100.452479,64.435144 100.945726,63.7362264 101.719615,63.3320332 C101.898205,63.2394055 101.830171,63.0036261 101.66859,62.9446813 C100.920214,62.6583777 100.367436,63.1804607 99.9337179,63.7362264 C100.044274,63.8204334 100.154829,63.9046403 100.265385,63.9888472 C100.503504,63.5341298 100.911709,63.2983504 101.183846,62.9025778 C101.294402,62.7425847 101.37094,62.5573294 101.243376,62.3804948 C101.141325,62.2373431 100.996752,62.2036603 100.843675,62.2457638 C100.358932,62.3804948 100.409957,63.0204675 99.7636325,63.0794124 C99.6105556,63.0962538 99.4914957,63.2478262 99.5765385,63.3993987 C99.7041026,63.6183367 99.8401709,63.8456955 99.967735,64.0646335 C100.103803,64.3004129 100.469487,64.0898956 100.333419,63.8541161 C100.205855,63.6351781 100.069786,63.4078194 99.9422222,63.1888814 C99.8826923,63.2983504 99.8231624,63.3993987 99.7551282,63.5088677 C100.188846,63.4667643 100.597051,63.2562469 100.826667,62.868895 C101.064786,62.4647018 100.537521,62.9025778 100.392949,63.0457296 C100.180342,63.2646676 100.018761,63.5172884 99.8826923,63.7867506 C99.780641,63.9888472 100.061282,64.241468 100.214359,64.0393714 C100.537521,63.6267574 100.954231,63.1383572 101.541026,63.3572953 C101.524017,63.2309849 101.507009,63.1046745 101.49,62.9699434 C100.571538,63.4415022 100.027265,64.2919922 99.9337179,65.3024754 C99.9167094,65.5129927 100.231368,65.5803582 100.333419,65.4119444 C100.835171,64.5193509 101.575043,63.8541161 102.510513,63.4330815 C102.655085,63.3657159 102.638077,63.1383572 102.510513,63.0709917 C101.983248,62.7846881 101.413462,62.4731225 101.396453,61.799467 C101.404957,61.5131635 100.979744,61.5131635 100.988248,61.7826256 L100.988248,61.7826256 Z" id="Path" fill="#FFFFFF"></path>
                        <path d="M61.6389744,55.6607817 C61.2817949,56.174444 60.8055556,56.5449545 60.2187607,56.7638925 C60.0997009,56.805996 60.0061538,56.9491478 60.0911966,57.0754582 C60.4568803,57.5891204 60.6354701,58.1364655 60.6354701,58.7680175 C60.6354701,59.0374797 61.0606838,59.0374797 61.0606838,58.7680175 C61.0606838,58.0691 60.8650855,57.437548 60.4568803,56.8649408 C60.414359,56.9659892 60.3718376,57.0670375 60.3293162,57.1765065 C61.0266667,56.9070443 61.5794444,56.4860096 62.0046581,55.8797197 C62.1662393,55.652361 61.8005556,55.4418437 61.6389744,55.6607817 L61.6389744,55.6607817 Z" id="Path" fill="#FFFFFF"></path>
                        <path d="M61.5369231,56.064975 C61.8430769,56.6291614 62.2767949,57.0417754 62.8465812,57.3364997 C62.8465812,57.2186099 62.8465812,57.0922995 62.8465812,56.9744098 C61.9196154,57.4712307 61.1542308,58.1701483 60.5844444,59.0459004 C60.7120085,59.0964245 60.8395726,59.1553694 60.975641,59.2058935 C61.2392735,58.4480311 61.69,57.8164792 62.3363248,57.3364997 C62.4468803,57.2522927 62.4808974,57.1091409 62.3788462,57.0080926 C61.9196154,56.5281131 61.2052564,57.4880721 60.9331197,57.7406929 C61.0521795,57.7912171 61.1712393,57.8417412 61.2988034,57.8922654 C61.3328205,57.5891204 61.5709402,56.8817822 61.2562821,56.6375821 C61.0776923,56.502851 60.7800427,56.5702166 60.6779915,56.7723132 C60.5674359,56.9996719 60.7205128,57.2775548 60.9501282,57.3617617 C61.3498291,57.5049135 61.6474786,57.134403 61.8090598,56.8312581 C61.9366239,56.5954787 61.5709402,56.3765406 61.4433761,56.6207407 C61.2902991,56.7386304 61.1287179,56.8480994 60.975641,56.9659892 C60.9671368,57.0838789 60.9501282,57.2017686 60.9416239,57.3112376 C60.9246154,57.5049135 60.8991026,57.6985895 60.882094,57.8922654 C60.8650855,58.0859413 61.1202137,58.1533069 61.2477778,58.0438379 C61.3243162,57.9764723 62.0556838,57.2691341 62.0982051,57.3112376 C62.1152137,57.2017686 62.1237179,57.0922995 62.1407265,56.9828305 C61.4008547,57.5301756 60.882094,58.2375138 60.5844444,59.1048452 C60.507906,59.3406246 60.8480769,59.4585143 60.975641,59.2648384 C61.5114103,58.4480311 62.217265,57.8080585 63.0847009,57.3449203 C63.2207692,57.2691341 63.2207692,57.0501961 63.0847009,56.9828305 C62.5659402,56.7217891 62.2002564,56.3596992 61.9281197,55.8544577 C61.7665385,55.6186782 61.4008547,55.8291956 61.5369231,56.064975 L61.5369231,56.064975 Z" id="Path" fill="#FFFFFF"></path>
                        <path d="M61.315812,56.7133684 C61.3243162,56.7554718 61.3413248,56.805996 61.3498291,56.8480994 C61.2392735,57.0922995 61.6049573,57.3112376 61.7155128,57.0586168 C61.8005556,56.8565201 61.8090598,56.6881063 61.6814957,56.502851 C61.5199145,56.283913 61.1542308,56.4944303 61.315812,56.7133684 L61.315812,56.7133684 Z" id="Path" fill="#FFFFFF"></path>
                        <path d="M102.578547,65.8750825 C102.502009,66.0771791 102.348932,66.2203309 102.153333,66.2961172 C102.017265,66.3466413 101.923718,66.5318966 102.059786,66.6497863 C102.272393,66.8350415 102.382949,67.0202968 102.433974,67.289759 C102.476496,67.5002763 102.791154,67.4834349 102.842179,67.289759 C102.901709,67.0624002 103.063291,66.9108278 103.309915,66.9024071 C103.531026,66.8939864 103.616068,66.5318966 103.369444,66.4897931 C103.156838,66.4561103 102.986752,66.3045379 102.978248,66.0855998 C102.961239,65.807717 102.587051,65.8245583 102.553034,66.0855998 C102.527521,66.2876965 102.502009,66.4897931 102.476496,66.7003104 C102.442479,66.9697726 102.867692,66.9697726 102.901709,66.7003104 C102.927222,66.4982138 102.952735,66.2961172 102.978248,66.0855998 C102.833675,66.0855998 102.697607,66.0855998 102.553034,66.0855998 C102.578547,66.4982138 102.833675,66.8266208 103.258889,66.8939864 C103.275897,66.7592553 103.292906,66.6161035 103.318419,66.4813724 C102.884701,66.5066345 102.553034,66.7592553 102.442479,67.1802899 C102.578547,67.1802899 102.714615,67.1802899 102.850684,67.1802899 C102.78265,66.8434622 102.629573,66.574 102.36594,66.355062 C102.331923,66.4729517 102.30641,66.5908414 102.272393,66.7087311 C102.629573,66.574 102.859188,66.3466413 102.995256,65.9929722 C103.088803,65.7319307 102.680598,65.6224617 102.578547,65.8750825 L102.578547,65.8750825 Z" id="Path" fill="#FFFFFF"></path>
                        <path d="M62.685,59.576404 C62.5319231,59.879549 62.3448291,60.1321698 62.0897009,60.3595285 C61.9876496,60.4437354 62.0131624,60.6289907 62.1322222,60.6879355 C62.3618376,60.8058252 62.5064103,60.9573977 62.6169658,61.1847564 C62.7360256,61.4289565 63.1017094,61.2184392 62.9826496,60.9742391 C62.8380769,60.6879355 62.6254701,60.4774182 62.3448291,60.3258457 C62.3618376,60.4353147 62.3703419,60.5447837 62.3873504,60.6542528 C62.6679915,60.4100527 62.8891026,60.1237491 63.0506838,59.7869214 C63.1782479,59.5427213 62.8125641,59.3322039 62.685,59.576404 L62.685,59.576404 Z" id="Path" fill="#FFFFFF"></path>
                        <path d="M62.6254701,59.7027144 C62.7870513,60.0227008 63.0336752,60.2247974 63.3823504,60.3342664 C63.3483333,60.2163767 63.3228205,60.098487 63.2888034,59.9805973 C62.9486325,60.3511078 62.7700427,60.7889838 62.7615385,61.2942254 C62.8976068,61.2605427 63.0251709,61.2268599 63.1612393,61.1847564 C63.0166667,60.8731908 62.965641,60.5616251 63.0166667,60.2163767 C63.059188,59.9553352 62.6509829,59.8374455 62.6084615,60.1069077 C62.5404274,60.5700458 62.591453,60.9742391 62.7955556,61.3952737 C62.8891026,61.5889497 63.1867521,61.4879014 63.1952564,61.2858047 C63.2037607,60.8900322 63.3313248,60.5616251 63.5949573,60.2753216 C63.7055128,60.1574319 63.6544872,59.9721766 63.5014103,59.9216524 C63.2547863,59.8458662 63.1102137,59.7027144 62.9996581,59.4837764 C62.872094,59.247997 62.497906,59.466935 62.6254701,59.7027144 L62.6254701,59.7027144 Z" id="Path" fill="#FFFFFF"></path>
                        <path d="M30.0200855,4.4292846 C30.3432479,5.61660233 30.9300427,6.66918897 31.7549573,7.58704453 C32.214188,8.10070681 32.9710684,7.34284443 32.5118376,6.83760284 C31.8144872,6.05447837 31.3297436,5.15346421 31.0576068,4.15140172 C30.8790171,3.48616696 29.8414957,3.77247053 30.0200855,4.4292846 L30.0200855,4.4292846 Z" id="Path" fill="#783718"></path>
                        <path d="M35.199188,2.50936656 C35.5223504,3.36827726 35.8540171,4.22718796 36.1771795,5.09451936 C36.4152991,5.72607134 37.4528205,5.45660916 37.2147009,4.80821579 C36.8915385,3.94930509 36.5598718,3.09039439 36.2367094,2.22306299 C35.9900855,1.59151101 34.9525641,1.86097319 35.199188,2.50936656 L35.199188,2.50936656 Z" id="Path" fill="#783718"></path>
                        <path d="M40.2252137,1.17889704 C40.4633333,2.04622844 40.5398718,2.93882191 40.4038034,3.83141538 C40.3017521,4.50507083 41.3392735,4.7913744 41.4413248,4.11771895 C41.602906,3.03144953 41.5603846,1.9620215 41.262735,0.901014167 C41.075641,0.235779408 40.0381197,0.513662282 40.2252137,1.17889704 L40.2252137,1.17889704 Z" id="Path" fill="#783718"></path>
                        <path d="M158.519658,19.7128427 C158.187991,20.1338773 157.847821,20.554912 157.516154,20.9843673 C157.09094,21.514871 157.847821,22.2727334 158.273034,21.733809 C158.604701,21.3127744 158.944872,20.8917397 159.276538,20.4622844 C159.701752,19.9317807 158.944872,19.1739183 158.519658,19.7128427 L158.519658,19.7128427 Z" id="Path" fill="#783718"></path>
                        <path d="M161.912863,20.9338432 C161.589701,21.1527812 161.258034,21.3632985 160.934872,21.5822365 C160.365085,21.9611677 160.900855,22.8790233 161.479145,22.5000921 C161.802308,22.2811541 162.133974,22.0706367 162.457137,21.8516987 C163.026923,21.4727675 162.491154,20.554912 161.912863,20.9338432 L161.912863,20.9338432 Z" id="Path" fill="#783718"></path>
                        <path d="M165.178504,24.1673893 C164.957393,24.2768583 164.744786,24.3863274 164.523675,24.4873757 C163.902863,24.7905206 164.447137,25.7083762 165.067949,25.4052312 C165.28906,25.2957622 165.501667,25.1862932 165.722778,25.0852449 C166.335085,24.7820999 165.790812,23.8642444 165.178504,24.1673893 L165.178504,24.1673893 Z" id="Path" fill="#783718"></path>
                    </g>
                </g>
            </g>
        </g>
    </g>
</svg>