<?xml version="1.0" encoding="UTF-8"?>
<svg width="396px" height="232px" viewBox="0 0 396 232" version="1.1" xmlns="http://www.w3.org/2000/svg" xmlns:xlink="http://www.w3.org/1999/xlink">
    <title>卡樂猴圖示</title>
    <g id="Web" stroke="none" stroke-width="1" fill="none" fill-rule="evenodd">
        <g id="赫綵官網/首頁02_四大優勢04" transform="translate(-329.000000, -1488.000000)">
            <g id="卡樂猴圖示" transform="translate(329.000000, 1488.000000)">
                <rect id="範圍區域" x="0" y="0" width="396" height="232"></rect>
                <g id="Group-15" transform="translate(18.807500, 15.848625)">
                    <path d="M323.641054,136.847621 C323.641054,136.847621 150.290463,135.575229 127.307116,136.470616 C114.617897,137.852967 99.5018649,137.695882 75.2654569,138.497017 C55.8192291,139.455238 24.096182,139.518072 19.9246013,136.470616 C9.9159799,135.873691 0.8075,138.481309 0.8075,138.481309 L0.8075,185.151375 L356.8075,185.151375 L323.641054,136.847621 Z" id="Path" fill="#EED992" fill-rule="nonzero"></path>
                    <path d="M169.236616,5.31845017 C167.980528,3.10935663 166.533641,4.44434841 164.482561,5.9700533 C162.320181,7.57522199 160.825595,9.4028893 158.520117,10.3405621 C156.516736,11.1510928 154.274858,10.4835969 152.191977,9.89556484 C129.70959,3.44310458 104.619628,6.66933471 84.5063191,18.6047969 C72.1203365,25.9472517 61.1653404,37.2946818 58.4464662,51.4233448 C51.5459316,49.5003209 43.5483074,48.1335436 37.0134694,51.0895969 C27.9346555,55.1899288 20.3663272,67.9041362 23.5462971,77.3444352 C24.6274868,80.5388798 26.6944672,84.4484986 28.936346,86.9754473 C32.6410109,91.155243 38.110559,93.6186207 43.6596064,94.2861166 C49.4471515,94.985398 62.0398321,90.6784602 62.787125,91.0757792 C63.741116,91.6002402 66.8415866,96.8766363 67.3821814,97.8143091 C71.9772379,105.681225 76.9697905,108.971026 85.1105133,113.087251 C111.202166,119.968816 155.674044,113.881889 169.920309,108.30353 C181.4318,102.518566 193.324887,98.4023412 196.075561,85.8311686 C196.584356,83.5267185 196.727455,75.0717706 198.762636,73.8639209 C201.020414,72.5289291 202.944296,73.5778512 205.71087,72.1951812 C214.980482,67.586281 223.073505,57.7804485 221.642519,47.5296188 C220.720328,40.9341237 216.538667,35.9755828 210.115128,34.2114865 C203.691589,32.4473902 195.980162,34.6246983 191.019409,39.0905636 C186.805949,30.6197229 180.700407,21.5290646 172.718683,16.4433817 C172.750482,16.4433817 170.492704,7.52754371 169.236616,5.31845017 Z" id="Path" fill="#814936" fill-rule="nonzero"></path>
                    <path d="M48.836375,8.89340218 C49.1595374,10.093258 49.7463322,11.1569599 50.5712468,12.084508 C51.0304775,12.6035945 51.7873579,11.8377291 51.3281271,11.3271522 C50.6307767,10.535758 50.1460331,9.6252291 49.8738963,8.61258487 C49.6953066,7.94032526 48.6577852,8.22965218 48.836375,8.89340218 L48.836375,8.89340218 Z" id="Path" fill="#783718" fill-rule="nonzero"></path>
                    <path d="M54.0154775,6.95320987 C54.3386399,7.82119064 54.6703066,8.68917141 54.993469,9.5656618 C55.2315886,10.203883 56.26911,9.93157526 56.0309904,9.27633487 C55.707828,8.4083541 55.3761613,7.54037334 55.0529989,6.66388295 C54.806375,6.0256618 53.7688536,6.29796949 54.0154775,6.95320987 L54.0154775,6.95320987 Z" id="Path" fill="#783718" fill-rule="nonzero"></path>
                    <path d="M59.0415032,5.60869064 C59.2796228,6.48518103 59.3561613,7.38720026 59.2200929,8.28921949 C59.1180416,8.96998872 60.155563,9.25931564 60.2576143,8.57854641 C60.4191955,7.48080603 60.3766741,6.40008487 60.0790245,5.32787334 C59.8919305,4.65561372 58.8544092,4.93643103 59.0415032,5.60869064 L59.0415032,5.60869064 Z" id="Path" fill="#783718" fill-rule="nonzero"></path>
                    <path d="M202.93011,0.383525488 C202.600331,0.911796137 202.262095,1.44006679 201.932316,1.97890285 C201.509522,2.64452387 202.262095,3.59541104 202.68489,2.9192246 C203.014669,2.39095396 203.352905,1.86268331 203.682684,1.32384724 C204.105478,0.658226225 203.352905,-0.292660943 202.93011,0.383525488 L202.93011,0.383525488 Z" id="Path" fill="#783718" fill-rule="nonzero"></path>
                    <path d="M207.023464,2.25435331 C206.701636,2.50513358 206.371338,2.74626846 206.04951,2.99704873 C205.482077,3.4310915 206.015634,4.48243956 206.591536,4.04839678 C206.913364,3.79761651 207.243662,3.55648164 207.56549,3.30570137 C208.132923,2.87165859 207.599366,1.82031053 207.023464,2.25435331 L207.023464,2.25435331 Z" id="Path" fill="#783718" fill-rule="nonzero"></path>
                    <path d="M210.874124,5.24051416 C210.620183,5.4016188 210.376008,5.56272345 210.122067,5.71143543 C209.409077,6.15757138 210.034164,7.50837188 210.747153,7.06223593 C211.001095,6.90113129 211.245269,6.74002664 211.499211,6.59131466 C212.202433,6.14517871 211.577346,4.79437821 210.874124,5.24051416 L210.874124,5.24051416 Z" id="Path" fill="#783718" fill-rule="nonzero"></path>
                    <path d="M179.560379,53.3290778 C178.000462,53.6462959 176.109654,54.2490103 175.180006,55.0261947 C172.028659,57.6432441 170.484499,61.671914 168.908825,65.4626704 C167.207097,69.5389231 167.333151,74.4875255 167.254368,78.9127181 C167.175584,83.3379107 168.562177,87.9375733 171.729281,90.998728 C174.565493,93.7426646 177.921678,96.185244 181.640268,97.4541165 C182.191754,97.6444473 184.318913,97.9140827 184.618291,98.4216317 C185.185534,99.3257033 184.366184,100.071166 183.625617,100.84835 C180.111865,104.464637 173.793413,106.415528 168.940339,107.763705 C159.549324,110.380754 150.961902,112.188898 141.350293,113.822571 C137.64746,114.457007 132.936196,115.21833 129.233362,115.852767 C125.278422,116.518925 121.764669,115.836906 117.746702,116.011376 C108.450227,116.423759 99.2798063,114.139789 90.2511963,111.871679 C94.4109747,110.539363 99.9888595,109.064299 101.816641,107.795427 C105.424934,105.321125 109.348361,102.037918 110.451333,97.7871955 C111.648844,93.2033938 111.869439,85.0826103 109.852577,80.8001659 C106.590932,73.8530893 97.9404837,68.5714078 90.3457367,69.4278967 C89.3373056,69.5389231 89.2112517,69.3485922 87.0683355,69.8085585 C86.4065526,69.9513066 85.7920399,68.9362087 85.8075,68.2541897 C85.9811207,62.3697939 85.5084186,61.4022786 86.3907958,56.485398 C87.2889298,51.5685173 89.9203048,46.0647832 92.7250039,42.5119404 C96.8690256,37.3095634 100.587615,34.5814877 106.260041,31.1396713 C113.665707,26.6351742 125.073584,24.7953091 133.724032,25.2076927 C146.518502,25.826268 156.52403,26.0959034 166.308964,34.3911569 C172.863766,39.9583346 173.998251,44.3993881 177.669571,52.2029535 C177.716841,52.2188144 180.742134,53.0911642 179.560379,53.3290778 Z" id="Path" fill="#EDDCC4" fill-rule="nonzero"></path>
                    <path d="M195.602629,51.9777448 C196.56003,53.6785511 196.868345,55.6446208 197.160433,57.5638792 C197.40384,59.0930445 197.63102,60.6222098 197.874427,62.151375 C200.162451,61.2151514 202.645202,61.3867924 204.673592,59.9980607 C206.701983,58.5937252 209.574184,56.7212779 210.27195,54.4119263 C210.791218,52.6955163 211.099534,49.7152044 210.401767,48.0456055 C210.028544,47.1561931 207.756746,46.2355732 206.912936,45.7362539 C205.825718,45.0808974 204.46264,45.0808974 203.180697,45.2369346 C201.963662,45.3929719 200.730401,45.6894427 199.65941,46.2511769 C197.874427,47.2030043 196.576257,47.56189 194.8075,48.5293211 L195.602629,51.9777448 Z" id="Path" fill="#EDDCC4" fill-rule="nonzero"></path>
                    <path d="M54.7620212,63.151375 C51.9740752,63.3354721 49.1861292,63.6423005 46.4142059,64.0565189 C45.0202329,64.2712988 43.6102372,64.5167616 42.2963776,65.0230285 C40.1493387,65.8668067 38.2746854,67.4623146 37.3774154,69.5180651 C36.4801454,71.5738156 36.6243495,74.0744674 37.9382091,75.9000966 C38.8675245,77.2041175 40.2775201,78.0939199 41.7195612,78.8456496 C42.5847858,79.2905508 43.4820558,79.6894278 44.4434165,79.9195491 C45.4848905,80.1650119 46.5904553,80.1956947 47.6639748,80.1036462 C50.5961249,79.8581834 53.4641843,78.7075768 55.6272458,76.7898991 C56.0438354,76.4217049 56.4604251,75.9921451 56.6526972,75.4858782 C56.9250827,74.7955142 56.7808786,74.0284431 56.6526972,73.3073963 C56.0438354,70.1930877 55.4349737,67.078779 54.7940665,63.9644704 L54.7620212,63.151375 Z" id="Path" fill="#EDDCC4" fill-rule="nonzero"></path>
                    <path d="M112.34197,80.4492148 C113.589942,84.4820319 113.87429,89.3612427 113.795304,93.5932113 C113.732116,97.3604931 112.405159,101.409906 109.909215,104.131643 C108.629649,105.525703 106.686604,107.38445 105.059501,108.712126 C103.432399,110.039803 101.489354,111.085348 98.9776132,112.180681 C97.3031193,112.910903 95.4548572,113.010479 94.443842,113.110055 C92.5797827,113.309206 91.3634051,112.744943 89.515143,112.346641 C85.2815169,111.450459 81.1110793,109.757672 77.9516568,106.670824 C76.8774532,105.608683 75.9296265,104.413774 75.013394,103.202269 C73.9233932,101.775017 72.8491896,100.281381 72.2962907,98.5554019 C71.4748408,96.0494126 70.4638256,93.692787 70.9219419,91.0872221 C71.6012177,87.1705766 72.6438271,83.0879717 74.3341181,79.5364373 C76.0244091,75.9849029 79.7683247,72.5495402 83.038327,70.5414296 C86.6558657,68.3341676 91.0474629,67.7367132 95.1863063,68.4171474 C99.3251497,69.0975815 103.069065,70.2924903 106.086314,72.4665604 C106.070517,72.4831564 110.888636,75.7359636 112.34197,80.4492148 Z" id="Path" fill="#E8B0AC" fill-rule="nonzero"></path>
                    <path d="M198.667462,68.4355571 C198.909067,73.4007591 198.909067,74.4659015 198.08761,79.9882549 C197.846005,81.6760959 196.525231,86.5921375 195.655452,88.0505632 C193.819254,91.1312826 192.852834,92.7208027 190.807244,95.6868145 C190.324034,96.3750603 188.149589,98.1776089 187.424773,98.6036659 C186.63553,99.0624964 185.701324,99.1116568 184.799332,99.1444304 C182.914812,99.2263645 180.788688,98.5708922 179.033024,97.833486 C176.616974,96.8175041 174.70024,95.6376541 172.268083,92.950218 C170.56074,91.0493486 169.352715,88.7060354 168.370188,86.3299486 C164.907182,77.8415834 164.665577,69.2712841 169.43325,60.438796 C170.592954,58.2921245 174.571384,55.0147634 176.568653,53.621885 C180.031659,51.2294114 184.944295,52.0815253 188.761655,53.8676871 C192.562908,55.6538488 195.462168,59.095078 197.169511,62.9951377 C197.185618,62.9787509 198.538606,65.8628286 198.667462,68.4355571 Z" id="Path" fill="#E8B0AC" fill-rule="nonzero"></path>
                    <path d="M283.223502,58.906209 C283.223502,58.906209 293.537135,101.899134 290.109787,133.191252 C288.530363,136.699906 288.514569,136.922174 260.606162,137.557224 C262.28035,146.16216 265.723493,153.338232 260.606162,154.544828 C255.48883,155.735548 240.910754,157.053278 232.397664,155.306888 C223.884573,153.560499 219.967603,151.401327 219.967603,151.401327 C219.967603,151.401327 227.896307,148.559476 235.809218,149.670814 C235.256419,137.636606 235.509127,136.763411 235.509127,136.763411 L191.838076,138.763821 C191.838076,138.763821 176.84935,140.240313 176.264964,127.602807 C175.680577,114.9653 175.822725,62.9864091 175.822725,62.9864091 C175.822725,62.9864091 176.154404,51.7301374 194.775803,53.3018876 C213.018141,53.6035366 258.616088,53.3812689 268.25057,55.1911631 C277.885051,57.0010573 283.223502,58.906209 283.223502,58.906209 Z" id="Path" fill="#D3D9DC" fill-rule="nonzero"></path>
                    <path d="M174.631302,106.151375 C174.631302,106.151375 122.364326,124.926132 80.4970903,109.22095 C77.0252501,116.691874 71.328276,137.009539 70.8075,139.510675 C94.6053862,139.267057 110.528508,139.510675 110.528508,139.510675 C110.528508,139.510675 137.072304,145.357485 142.469437,145.763513 C147.866571,146.169541 151.90653,146.900393 154.005415,143.960747 C156.1043,141.0211 152.790271,137.350603 152.790271,137.350603 L179.8075,137.350603 C179.8075,137.350603 175.404575,133.923723 175.199421,127.03748 C174.994267,120.151237 174.631302,106.151375 174.631302,106.151375 Z" id="Path" fill="#814936" fill-rule="nonzero"></path>
                    <path d="M153.825594,143.749641 C153.825594,143.749641 162.09894,145.866582 163.496573,151.557778 C164.894206,157.264314 161.376026,159.166493 157.022479,159.120473 C152.668932,159.089792 136.604183,160.056222 131.254622,153.199174 C125.90506,146.342127 126.194226,146.587569 127.929219,143.151375 C139.624356,145.176275 151.190976,148.228965 153.825594,143.749641 Z" id="Path" fill="#D3D9DC" fill-rule="nonzero"></path>
                    <polyline id="Path" stroke="#3E3A39" stroke-width="6" stroke-linecap="round" stroke-linejoin="round" points="0.8075 188.151375 357.8075 188.151375 344.215195 165.151375"></polyline>
                    <path d="M178.010077,18.9207181 C173.9306,16.2854283 173.822432,12.910408 172.709848,8.62613572 C172.153555,6.48399958 170.979161,3.95658715 168.970327,2.78534724 C167.409619,1.87609521 165.756194,1.93773942 164.319106,3.01651302 C163.252879,3.81788769 162.681134,5.06618285 161.723075,5.96002383 C159.976936,7.57818423 157.782672,8.14839313 155.464787,8.14839313 C153.255071,8.14839313 153.255071,11.5850576 155.464787,11.5696465 C158.138081,11.5696465 160.703206,10.9686155 162.89747,9.38127724 C164.844493,7.97887157 166.714253,3.81788769 168.707634,7.60900633 C170.12927,10.3213514 169.742956,13.5730832 171.118234,16.3470725 C172.277176,18.6895523 174.100578,20.4464121 176.27939,21.8642289 C178.14915,23.0817019 179.864384,20.107369 178.010077,18.9207181 L178.010077,18.9207181 Z" id="Path" fill="#75371D" fill-rule="nonzero"></path>
                    <path d="M186.540697,51.0088348 C184.649989,50.6784686 182.06602,50.4739563 180.395894,49.530053 C178.316114,48.3659057 177.591343,43.9295603 176.252091,41.7743146 C173.274224,36.9604079 168.972862,32.9960142 163.993996,30.3530851 C152.145554,24.0761284 140.139554,22.1883219 126.873081,23.5884451 C115.450049,24.7840559 103.365269,28.9529619 95.4873156,37.6840671 C87.3415122,46.6983432 83.9382364,56.7666447 85.9865042,68.7384844 C86.2543546,68.0777521 86.522205,67.4170198 86.7900554,66.7562875 C70.3881571,73.7411716 62.352645,97.2600945 78.9593701,108.838641 C80.818567,110.128642 82.5674726,107.09242 80.7240316,105.818151 C74.2325982,101.287415 71.8849682,92.949603 73.9805037,85.4770355 C76.0445274,78.1145901 81.6378741,72.7343415 88.5547169,69.7925097 C89.3110004,69.4778752 89.4843154,68.5182403 89.3582681,67.8103128 C87.3572681,56.1688393 91.6428745,45.4083421 100.560717,37.5896768 C109.872458,29.4249136 122.650498,26.8921065 134.68801,26.5617403 C146.048019,26.2471059 159.850192,29.5664991 168.311114,37.6368719 C170.406649,39.6505322 172.391894,41.9630952 173.794169,44.5273657 C174.928595,46.5882212 175.275224,49.813224 176.961106,51.5437133 C178.930595,53.5731053 182.948351,53.9349349 185.595343,54.3911548 C187.816926,54.7687161 188.76228,51.3863961 186.540697,51.0088348 L186.540697,51.0088348 Z" id="Path" fill="#75371D" fill-rule="nonzero"></path>
                    <path d="M197.747385,52.0247811 C194.689939,40.1090087 189.854183,28.408489 179.855086,20.5517669 C178.123573,19.1987502 175.658897,21.5972798 177.406009,22.9656717 C186.968328,30.4841397 191.476501,41.5389014 194.409153,52.9319173 C194.955126,55.0690687 198.293358,54.1619325 197.747385,52.0247811 L197.747385,52.0247811 Z" id="Path" fill="#75371D" fill-rule="nonzero"></path>
                    <path d="M60.9338393,89.3170144 C64.2926399,98.2188822 69.7860054,105.314574 78.0731396,109.813887 C86.1405391,114.184188 95.2595258,115.861352 104.268645,116.635427 C116.15001,117.651401 128.141242,117.119225 139.94413,115.458188 C151.433111,113.84553 163.188914,111.68457 173.893129,106.991737 C175.949217,106.088649 174.175644,102.992347 172.135252,103.895435 C162.670968,108.039964 152.233573,109.959027 142.110086,111.539431 C131.154745,113.264974 120.011061,113.94229 108.930158,113.37786 C90.6294035,112.426392 71.575273,107.652927 64.2926399,88.3655467 C63.4921781,86.2207126 60.1176822,87.1560538 60.9338393,89.3170144 L60.9338393,89.3170144 Z" id="Path" fill="#75371D" fill-rule="nonzero"></path>
                    <path d="M155.570414,8.29834948 C134.237757,1.98031731 111.159124,2.59478927 90.8740526,12.1269824 C74.7158348,19.7054699 60.5575537,32.3572899 55.8751625,49.9721527 C55.2878795,52.1621938 58.7004697,53.0917796 59.2877527,50.9017385 C63.7638012,34.1219274 77.3189269,22.352426 92.6676465,15.1520752 C112.095602,6.02952995 134.269502,5.65139336 154.649808,11.6700674 C156.8075,12.3160507 157.744948,8.92857713 155.570414,8.29834948 L155.570414,8.29834948 Z" id="Path" fill="#75371D" fill-rule="nonzero"></path>
                    <path d="M192.673277,41.1224327 C196.833354,35.9791618 204.06285,34.0891647 210.186109,36.8467015 C216.122398,39.5112876 221.170581,46.5600474 218.599747,53.0820867 C217.789545,55.1424934 221.13942,56.0410166 221.949622,53.9961017 C225.050203,46.1262776 219.269722,37.4818645 212.242776,33.9807222 C204.857472,30.3091704 195.399919,32.30761 190.22709,38.6902233 C188.824817,40.3943191 191.271004,42.8420203 192.673277,41.1224327 L192.673277,41.1224327 Z" id="Path" fill="#75371D" fill-rule="nonzero"></path>
                    <path d="M144.804731,76.4849886 C145.259398,75.6877308 145.831941,75.1260265 146.606558,74.6549196 C146.101373,74.5824416 145.596188,74.5099636 145.091003,74.4374857 C145.781422,75.1803849 144.83841,76.1407182 144.333225,76.611825 C144.114312,76.8111395 143.693324,77.3366048 143.390213,77.3547243 C143.204979,77.5177998 143.087102,77.4272023 143.036584,77.0648124 C142.800831,76.5393471 142.396683,76.1588377 141.840979,75.9414037 C142.615596,75.7239698 143.390213,75.4884164 144.16483,75.2709824 C143.625966,74.1294542 142.885028,73.0241651 141.638905,72.7523726 C140.578017,72.5349387 139.399252,73.0785235 138.995103,74.2019322 C138.10261,76.6299445 140.561177,79.8189756 142.851349,79.7464976 C144.451102,79.6921392 144.451102,77.0104539 142.851349,77.0648124 C141.925177,77.1010514 141.82414,76.1407182 141.419992,75.4702969 C141.419992,75.2347434 141.318955,75.2166239 141.13372,75.3978189 C141.234757,75.3615799 141.318955,75.4159384 141.369473,75.5065359 C141.554708,75.8689258 141.840979,76.2313156 142.026214,76.6299445 C142.615596,77.8801897 144.282707,77.1916489 144.350065,75.9595232 C144.434262,74.1113348 142.329325,73.4046745 141.083202,74.3650077 C139.399252,75.6514918 140.493819,78.3331771 141.706263,79.5290637 C143.289176,81.0873403 145.377274,79.3841078 146.5392,78.0795041 C147.920039,76.5393471 148.374705,74.1656932 146.87599,72.5349387 C146.488681,72.1000708 145.84878,72.0457123 145.360435,72.3175048 C144.232188,72.9879261 143.356534,73.9120203 142.666115,75.107907 C141.8073,76.5937055 143.962756,77.9526677 144.804731,76.4849886 L144.804731,76.4849886 Z" id="Path" fill="#AD4523" fill-rule="nonzero"></path>
                    <path d="M195.525094,49.6635541 C197.627351,48.123109 200.064057,46.2645286 202.612246,45.7287216 C206.625644,44.8747792 211.132754,48.9435634 208.966793,53.2802512 C208.266041,54.6867445 210.304592,55.9425421 211.005344,54.5360488 C212.948339,50.6347042 211.212385,45.6784897 207.406027,43.9036291 C202.707803,41.7101692 198.105136,44.7408275 194.314705,47.5203262 C193.104315,48.4412444 194.282852,50.5844723 195.525094,49.6635541 L195.525094,49.6635541 Z" id="Path" fill="#75371D" fill-rule="nonzero"></path>
                    <path d="M57.1292063,63.6489284 C50.878172,57.2100795 35.235265,64.1906585 36.9359141,73.5703278 C38.8663806,84.2037153 54.4480029,84.6835334 59.5346289,76.5111482 C60.7143584,74.63831 57.757374,72.9047737 56.5929657,74.777612 C53.1916676,80.2413468 41.7774015,80.4889948 40.3525333,73.1059877 C39.188125,67.0850449 50.6483546,61.8999141 54.7084627,66.0789747 C56.2559001,67.673209 58.6613226,65.2276846 57.1292063,63.6489284 L57.1292063,63.6489284 Z" id="Path" fill="#75371D" fill-rule="nonzero"></path>
                    <path d="M54.7171513,59.3688868 C52.7902615,65.9288315 53.9321221,72.5809535 58.0713668,78.342029 C59.4094846,80.2162989 62.852908,78.4956577 61.4969485,76.6213878 C57.9107926,71.6130928 56.8759815,65.990283 58.5530892,60.2906589 C59.1775442,58.1398574 55.3594479,57.2334482 54.7171513,59.3688868 L54.7171513,59.3688868 Z" id="Path" fill="#75371D" fill-rule="nonzero"></path>
                    <path d="M64.3103118,52.2723032 C55.1557323,47.5955229 43.5746376,46.1893288 34.4515712,51.829905 C26.8096244,56.5540851 22.2086997,65.7180465 22.8704766,74.6924086 C24.4461357,96.3067175 55.7229696,102.247492 67.4931433,85.4679632 C68.7851838,83.619371 65.7599183,81.8497785 64.4678778,83.6983707 C53.9897445,98.6451076 25.6751498,91.5983374 26.3369267,72.3698184 C26.5890321,64.9596497 30.7802854,57.6916803 37.3822972,54.215695 C45.2921061,50.0603125 54.8406004,51.3875069 62.5455736,55.3216903 C64.5466607,56.3328861 66.3271555,53.2992988 64.3103118,52.2723032 L64.3103118,52.2723032 Z" id="Path" fill="#75371D" fill-rule="nonzero"></path>
                    <path d="M122.474969,73.4865709 C123.975981,72.7531608 124.492996,70.7917152 123.792524,69.307839 C123.008663,67.6704583 121.107381,66.9370482 119.406234,67.0905527 C115.386859,67.4487297 114.41954,73.0942818 118.122036,74.7828306 C121.707786,76.4031552 125.693806,71.422789 122.591715,68.4720926 C119.83986,65.8625172 115.570316,69.5977918 117.788477,72.7872729 C118.755796,74.1858689 120.6404,74.6804943 122.058022,73.7082995 C123.442288,72.7531608 123.642423,70.5188184 122.174767,69.5295676 C120.790501,68.608541 118.72244,69.6830721 118.889219,71.4398451 C119.055998,73.0942818 121.190771,73.8959161 122.374902,72.7531608 C123.559033,71.6274616 122.908595,69.4954555 121.407583,69.0349422 C119.723115,68.5232607 118.222103,70.38237 118.689084,72.0026947 C119.172744,73.7082995 121.35755,74.219981 122.641749,73.1113378 C123.992659,71.9515265 124.176116,69.5636797 123.275509,68.0798035 C122.208123,66.3059744 119.723115,66.0501337 118.172069,67.2781692 C116.587668,68.5403168 116.354177,70.9622757 117.388208,72.6508245 C118.372204,74.2882052 120.623722,75.1239516 122.341546,74.2540931 C124.126082,73.3671786 124.776521,71.1157801 123.842558,69.3590071 C123.125408,69.7854083 122.424936,70.2118096 121.707786,70.6382108 C122.124733,71.2522285 121.924599,72.1561991 121.240804,72.5143761 C120.323519,72.9919455 119.356201,72.0026947 119.156066,71.1328362 C118.955931,70.1947535 119.623047,69.0690543 120.590366,68.9326059 C121.774497,68.7620454 122.508325,70.1776975 121.724464,71.0987241 C120.023317,73.0601697 117.204751,70.1435854 119.506302,68.9155499 C120.456943,68.4038684 121.807853,68.6938212 122.208123,69.7854083 C122.575037,70.8087713 121.791175,71.780966 120.740467,71.4739572 C119.2061,71.0304999 118.555661,73.4695148 120.090029,73.9129721 C122.041344,74.4758217 124.176116,73.3330665 124.693131,71.2692846 C125.176791,69.3419511 124.076049,67.3122813 122.341546,66.5277031 C120.373553,65.6407885 117.755122,66.3571426 116.65438,68.3015321 C115.720417,69.9559688 116.220754,72.1561991 117.621698,73.3671786 C121.023991,76.2837629 126.827903,71.6445176 123.709135,67.8410188 C120.6404,64.0886881 115.13669,68.4550366 117.071327,72.5996564 C118.00529,74.6122701 120.473621,75.8914737 122.508325,74.6804943 C124.276184,73.6230193 125.043367,71.1157801 123.859236,69.3419511 C122.975307,67.9945232 120.95728,69.1713906 121.724464,70.6211547 C122.258157,71.6274616 121.074025,72.2755914 120.256808,71.9174144 C119.322845,71.5080693 118.789152,69.9900809 119.706437,69.2566708 C120.840535,68.3527003 121.707786,69.8536325 121.207448,70.9281636 C120.473621,72.480264 119.03932,70.8769955 119.906572,70.2629777 C120.973958,69.4954555 121.440939,71.1840043 120.840535,71.9515265 C120.140062,72.821385 118.772474,72.7019927 118.305493,71.6445176 C117.755122,70.38237 119.03932,69.4442874 120.15674,69.5807358 C120.857212,69.666016 122.458292,70.6893789 121.240804,71.2692846 C119.789826,72.0026947 121.040669,74.1858689 122.474969,73.4865709 L122.474969,73.4865709 Z" id="Path" fill="#75371D" fill-rule="nonzero"></path>
                    <path d="M125.836746,56.7800148 C124.386409,56.2633398 122.918385,55.7305186 121.468049,55.2138435 C120.795941,54.9716521 120.035399,55.4721811 119.858529,56.0534405 C119.646284,56.7315766 120.123834,57.2966899 120.778254,57.5227353 C122.228591,58.0394103 123.696615,58.5722315 125.146951,59.0889066 C125.819059,59.331098 126.579601,58.830569 126.756471,58.2493096 C126.968716,57.5711735 126.491166,57.0060602 125.836746,56.7800148 L125.836746,56.7800148 Z" id="Path" fill="#75371D" fill-rule="nonzero"></path>
                    <path d="M160.554948,67.1813751 C160.807779,67.1097724 160.934194,67.360382 160.916135,67.6109917 C160.861957,68.0048069 160.21182,68.2554166 159.868692,68.2912179 C159.507505,68.3270193 158.767071,68.2554166 158.694834,67.8078993 C158.622597,67.3961834 159.164377,67.1992758 159.507505,67.1097724 C159.724217,67.0560703 160.19376,67.0023682 160.320176,67.1097724 C160.320176,67.073971 160.320176,67.0202689 160.320176,66.9844675 C160.302117,67.0381696 160.284057,67.0918717 160.229879,67.127673 C160.21182,67.127673 160.085404,67.1813751 160.121523,67.2350772 C159.724217,66.7338578 160.410473,66.4295461 160.825838,66.7159572 C161.548212,67.1813751 160.970313,68.2375159 160.320176,68.4523241 C159.561683,68.6850331 158.622597,68.2196152 158.51424,67.4140841 C158.405884,66.6264537 159.236615,65.4450081 160.139582,65.8925254 C160.898075,66.2684399 160.952253,67.6646938 160.988372,68.3807214 C161.114788,70.081287 163.787572,70.081287 163.661157,68.3807214 C163.498622,66.1252344 162.72207,63.2611239 159.92287,63.1537197 C157.358442,63.0642163 155.408031,65.5524123 155.877575,68.0048069 C156.310999,70.2602939 158.821249,71.6028457 161.006431,71.0121229 C163.372207,70.367698 164.67248,67.3424813 163.155495,65.3197033 C161.710746,63.4043294 158.315588,63.4580315 157.502917,65.9462275 C156.798602,68.1301117 158.658715,70.5646056 161.024491,69.6874718 C163.480563,68.7745366 163.57086,65.2839019 160.934194,64.5499736 C158.749012,63.9413501 155.841456,65.4271074 155.985931,67.8974027 C156.184584,71.119527 160.536888,71.7818526 162.559536,69.8127766 C163.57086,68.8282387 163.913988,67.3066799 163.209673,66.0715323 C162.541477,64.8900867 161.168966,64.2277612 159.832573,64.639477 C158.207231,65.1406964 158.911546,67.7004951 160.554948,67.1813751 L160.554948,67.1813751 Z" id="Path" fill="#75371D" fill-rule="nonzero"></path>
                    <path d="M280.97908,58.7784063 C283.535708,63.3742511 284.329692,69.2292315 285.250713,74.3287305 C286.759282,82.7491996 287.727943,91.2641039 288.394889,99.7790082 C289.045956,108.120781 289.411189,116.509772 289.188873,124.867284 C289.141234,126.944858 289.188873,129.211302 288.172574,131.115745 C286.600486,134.074713 282.96404,133.728451 280.042179,133.9488 C273.880864,134.389497 267.68779,134.609846 261.510595,134.657063 C259.239802,134.672803 259.239802,138.182643 261.510595,138.151375 C268.783488,138.103947 276.167538,137.978033 283.40867,137.191074 C286.981598,136.797594 289.871699,136.026373 291.396148,132.57949 C293.095274,128.786344 292.77768,124.458065 292.79356,120.397353 C292.79356,115.17194 292.603004,109.962267 292.28541,104.752594 C291.681982,95.1202066 290.681563,85.5035587 289.109475,75.9656068 C288.077296,69.7328857 287.172154,62.6502481 284.043858,57.0313557 C282.93228,55.032478 279.883382,56.7952678 280.97908,58.7784063 L280.97908,58.7784063 Z" id="Path" fill="#75371D" fill-rule="nonzero"></path>
                    <path d="M247.897106,97.3065388 C253.267567,113.698695 257.560768,130.423767 260.649971,147.40249 C261.03018,149.510959 261.838126,151.809666 259.667763,152.951092 C258.859817,153.379127 257.719188,153.569365 256.81619,153.74375 C252.459622,154.631526 247.707002,154.694939 243.271223,154.568113 C234.653138,154.346169 226.256842,152.53891 217.987283,150.192644 C215.801078,149.574371 214.866396,152.982799 217.052601,153.601071 C226.351895,156.232694 235.841293,158.151375 245.536638,158.119219 C249.909049,158.103366 261.568811,158.864317 264.182752,153.807162 C265.719432,150.842623 264.008489,146.197651 263.438175,143.233112 C262.455967,138.128398 261.378706,133.039537 260.190551,127.966529 C257.687504,117.29736 254.693353,106.770869 251.287309,96.3553498 C250.590258,94.2310278 247.184213,95.1505105 247.897106,97.3065388 L247.897106,97.3065388 Z" id="Path" fill="#75371D" fill-rule="nonzero"></path>
                    <path d="M248.558414,94.9100896 C244.479488,93.8737906 236.40038,91.6895911 232.730922,94.6231145 C229.155956,97.4928656 231.597012,104.938275 231.927736,108.668952 C233.282128,123.894576 233.738842,139.168029 233.423867,154.441482 C233.376621,156.721339 236.872843,156.721339 236.920089,154.441482 C237.172069,142.850876 236.967335,131.244327 236.258642,119.669664 C235.912169,114.02582 235.439707,108.381977 234.857003,102.754076 C234.526279,99.5814066 234.242802,97.1261752 238.132743,97.078346 C241.361236,97.0464599 244.495237,97.5088086 247.629238,98.3059617 C249.818314,98.895855 250.74749,95.4680968 248.558414,94.9100896 L248.558414,94.9100896 Z" id="Path" fill="#75371D" fill-rule="nonzero"></path>
                    <path d="M235.113903,147.168144 C228.966775,147.021698 222.945098,147.835284 217.033191,149.576357 C214.884832,150.210954 215.794356,153.709371 217.958396,153.074775 C223.588037,151.41506 229.264722,150.666561 235.113903,150.796735 C237.372032,150.84555 237.372032,147.233231 235.113903,147.168144 L235.113903,147.168144 Z" id="Path" fill="#75371D" fill-rule="nonzero"></path>
                    <path d="M282.557371,57.4309578 C266.953537,52.9113955 251.031582,53.1161143 234.918754,52.9113955 C218.662772,52.7066766 202.200012,51.7303252 185.94403,52.3602293 C180.854094,52.5492006 175.71644,53.8877469 173.537312,58.9112326 C170.960532,64.8480792 172.058049,73.0998237 171.946707,79.4461081 C171.660398,96.4692679 172.058049,113.47668 173.044224,130.468345 C173.171472,132.704504 176.718521,132.720252 176.575367,130.468345 C175.700534,115.665597 175.302883,100.847102 175.398319,86.0286065 C175.446037,78.8319515 175.255165,71.4620729 175.939125,64.2969131 C176.84577,54.5963891 185.880405,55.8247022 193.324436,55.9191878 C208.292028,56.1081591 223.25962,56.2813827 238.243118,56.470354 C252.956214,56.6435776 267.367094,56.706568 281.618914,60.8166926 C283.813948,61.4465968 284.752405,58.060862 282.557371,57.4309578 L282.557371,57.4309578 Z" id="Path" fill="#75371D" fill-rule="nonzero"></path>
                    <path d="M234.080676,134.839958 C223.420602,135.302855 212.760528,135.765752 202.100454,136.228649 C194.756489,136.547888 178.499471,139.229499 176.331869,129.428851 C175.830409,127.194176 172.368716,128.135932 172.854,130.370607 C174.859841,139.421042 185.811085,140.346836 193.607983,140.123369 C207.098881,139.740282 220.589778,138.974107 234.0645,138.383514 C236.377688,138.287743 236.393864,134.744186 234.080676,134.839958 L234.080676,134.839958 Z" id="Path" fill="#75371D" fill-rule="nonzero"></path>
                    <path d="M132.92141,125.35991 C138.834921,128.730155 144.528833,132.608245 150.254115,136.270885 C151.289372,136.824898 152.152086,137.578971 152.842257,138.502326 C152.5756,141.595564 151.132515,143.042153 148.528688,142.842093 C146.850317,142.919039 145.156261,142.518919 143.524947,142.272691 C140.027035,141.749457 136.544808,141.195444 133.046896,140.641431 C119.102304,138.440769 105.361625,135.686094 92.4679754,129.85357 C90.4445194,128.930215 88.6720346,131.88495 90.7111764,132.808305 C107.887024,140.595263 127.227499,143.888562 145.909175,146.073835 C150.975658,146.674015 159.304767,143.796226 156.089198,137.225018 C154.536313,134.054834 150.614886,132.562077 147.775774,130.792314 C143.383776,128.037639 139.211378,124.975179 134.709581,122.389785 C132.733182,121.297149 130.976383,124.251884 132.92141,125.35991 L132.92141,125.35991 Z" id="Path" fill="#75371D" fill-rule="nonzero"></path>
                    <path d="M78.152908,109.333972 C74.4124306,118.722011 71.3445829,128.189342 68.867337,137.957978 C68.3095465,140.162264 71.8203454,141.097896 72.3945415,138.89361 C74.8717875,129.124974 77.9396351,119.657644 81.6801125,110.269604 C82.5167982,108.160467 78.9895937,107.240693 78.152908,109.333972 L78.152908,109.333972 Z" id="Path" fill="#75371D" fill-rule="nonzero"></path>
                    <path d="M305.792191,134.60384 C298.273771,134.745176 297.821935,134.872378 290.306837,134.95718 C287.592498,134.985447 284.878158,135.027848 282.163819,135.013714 C281.688727,135.013714 281.688727,138.151375 282.163819,138.151375 C287.947986,138.151375 293.732153,138.05244 299.512998,137.967638 C307.057997,137.854569 307.539734,137.727367 315.084733,137.54363 C317.872163,137.472962 320.659593,137.416427 323.447023,137.289225 C323.925438,137.275091 323.928761,134.123297 323.450346,134.151564 C317.563187,134.420103 311.67935,134.490771 305.792191,134.60384 Z" id="Path" fill="#75371D" fill-rule="nonzero"></path>
                    <path d="M179.106469,135.151375 C170.24049,135.151375 161.37451,135.151375 152.508531,135.151375 C150.24049,135.151375 150.24049,138.15133 152.508531,138.15133 C161.37451,138.15133 170.24049,138.15133 179.106469,138.15133 C181.37451,138.164843 181.37451,135.151375 179.106469,135.151375 L179.106469,135.151375 Z" id="Path" fill="#75371D" fill-rule="nonzero"></path>
                    <path d="M111.090396,136.57073 C74.9071355,136.57073 38.7238748,136.167504 2.52460385,136.151375 C0.235132049,136.151375 0.235132049,139.73202 2.52460385,139.73202 C38.7078645,139.73202 74.8911252,140.135246 111.090396,140.151375 C113.379868,140.151375 113.379868,136.57073 111.090396,136.57073 L111.090396,136.57073 Z" id="Path" fill="#75371D" fill-rule="nonzero"></path>
                    <path d="M164.463366,147.51102 C161.795978,143.81693 158.0226,141.623564 153.533582,141.161802 C151.224014,140.930922 151.240279,144.608521 153.533582,144.82291 C156.640113,145.136248 159.502675,146.785395 161.34057,149.341574 C162.706793,151.254585 165.845853,149.424031 164.463366,147.51102 L164.463366,147.51102 Z" id="Path" fill="#75371D" fill-rule="nonzero"></path>
                    <path d="M163.582047,149.100466 C158.05112,150.171176 149.698619,152.21949 144.231819,150.047036 C142.388176,149.317712 140.817073,148.433213 138.861209,147.828029 C137.562643,147.424573 136.248046,147.036635 134.949481,146.633179 C134.500594,146.509039 134.067739,146.400416 133.618852,146.276276 C132.304255,145.965925 131.133943,145.407294 130.091884,144.600382 C132.368381,144.476242 132.384413,141.015833 130.091884,141.15549 C127.687133,141.295148 126.180156,143.281392 127.061898,145.593504 C128.344432,148.945291 132.288223,149.441852 135.302177,150.341869 C139.598666,151.614307 143.301982,154.066077 147.838945,154.143664 C153.417967,154.236769 159.061116,153.47641 164.511884,152.421218 C166.77235,152.002245 165.826481,148.665976 163.582047,149.100466 L163.582047,149.100466 Z" id="Path" fill="#75371D" fill-rule="nonzero"></path>
                    <path d="M162.455799,150.318286 C163.953045,153.689102 162.761688,154.488692 159.799393,155.586167 C158.22165,156.166261 156.305818,156.370078 154.631478,156.511182 C151.218399,156.824746 147.773122,156.573895 144.440541,155.837018 C139.369222,154.708187 128.711402,151.431439 129.435876,144.815231 C129.677367,142.588924 126.103295,142.604602 125.861803,144.815231 C124.783142,154.582761 140.045398,159.019697 147.499432,159.86632 C152.58685,160.446414 159.268112,160.30531 163.936946,157.875187 C167.897405,155.82134 167.060234,151.933142 165.562988,148.530969 C164.645321,146.508479 161.554231,148.280117 162.455799,150.318286 L162.455799,150.318286 Z" id="Path" fill="#75371D" fill-rule="nonzero"></path>
                    <path d="M156.905825,149.609257 C155.117344,148.182795 153.198791,147.095966 151.10139,146.246881 C150.190891,145.873284 149.117802,146.654442 148.873918,147.571454 C148.597517,148.6413 149.215356,149.524349 150.142114,149.897946 C151.930595,150.611177 153.572746,151.664042 155.084826,152.869743 C155.865254,153.498065 157.117191,152.988614 157.556182,152.190475 C158.108985,151.222518 157.686253,150.23758 156.905825,149.609257 L156.905825,149.609257 Z" id="Path" fill="#75371D" fill-rule="nonzero"></path>
                    <path d="M143.096149,83.6628353 C142.112739,85.8861006 140.076907,87.2666766 137.713272,87.2128879 C136.505576,87.1949583 136.505576,89.1313507 137.713272,89.1492802 C140.680756,89.2209985 143.475711,87.4459722 144.717913,84.6310315 C145.200992,83.5014693 143.59648,82.5153436 143.096149,83.6628353 L143.096149,83.6628353 Z" id="Path" fill="#75371D" fill-rule="nonzero"></path>
                    <path d="M142.499797,85.5457217 C144.577389,85.9785536 146.709178,86.1752953 148.859034,86.1490631 C150.123655,86.135947 150.123655,84.7062903 148.859034,84.7325225 C146.871773,84.7587548 144.938709,84.5882452 143.023712,84.1816456 C141.795223,83.9324394 141.289374,85.2965155 142.499797,85.5457217 L142.499797,85.5457217 Z" id="Path" fill="#75371D" fill-rule="nonzero"></path>
                </g>
            </g>
        </g>
    </g>
</svg>