<?xml version="1.0" encoding="utf-8"?>
<!-- Generator: Adobe Illustrator 17.0.0, SVG Export Plug-In . SVG Version: 6.00 Build 0)  -->
<!DOCTYPE svg PUBLIC "-//W3C//DTD SVG 1.1//EN" "http://www.w3.org/Graphics/SVG/1.1/DTD/svg11.dtd">
<svg version="1.1" id="Capa_1" xmlns="http://www.w3.org/2000/svg" xmlns:xlink="http://www.w3.org/1999/xlink" x="0px" y="0px"
	 width="3000px" height="3000px" viewBox="0.5 480.5 3000 3000" enable-background="new 0.5 480.5 3000 3000" xml:space="preserve">
<g>
	<path fill="#ECF0F1" d="M226.101,922.5l-74.597,40.689c-4.378,2.387-8.312,5.321-11.972,8.519
		c43.492,36.67,99.636,58.793,160.978,58.793c60.889,0,116.674-21.792,160.044-57.962c-4-3.377-8.34-6.415-13.151-8.811
		l-79.88-39.934c-10.321-5.16-16.84-15.708-16.84-27.245v-31.34c2.245-2.557,4.811-5.84,7.557-9.717
		c10.887-15.377,19.123-32.292,24.831-50.038c10.246-3.16,17.793-12.623,17.793-23.868v-33.453c0-7.359-3.274-13.934-8.359-18.538
		v-48.359c0,0,9.934-75.255-91.985-75.255s-91.985,75.255-91.985,75.255v48.359c-5.095,4.604-8.359,11.179-8.359,18.538v33.453
		c0,8.811,4.632,16.566,11.566,21.047c8.359,36.387,30.246,62.576,30.246,62.576v30.566
		C241.979,906.906,235.884,917.16,226.101,922.5z"/>
	<g>
		<path fill="#2377DA" d="M304.783,530.537C166.73,528.179,52.896,638.179,50.537,776.226
			c-1.34,78.274,33.548,148.623,89.098,195.406c3.632-3.17,7.529-6.076,11.859-8.434l74.597-40.689
			c9.783-5.34,15.878-15.594,15.878-26.745v-30.566c0,0-21.897-26.189-30.246-62.576c-6.925-4.481-11.566-12.226-11.566-21.047
			v-33.453c0-7.358,3.274-13.934,8.359-18.538v-48.359c0,0-9.934-75.255,91.985-75.255s91.985,75.255,91.985,75.255v48.359
			c5.095,4.604,8.359,11.179,8.359,18.538v33.453c0,11.245-7.547,20.708-17.793,23.868c-5.708,17.745-13.944,34.66-24.831,50.038
			c-2.745,3.877-5.312,7.16-7.557,9.717v31.34c0,11.538,6.519,22.094,16.84,27.245l79.88,39.934
			c4.793,2.396,9.123,5.424,13.114,8.792c53.87-44.925,88.673-112.094,89.966-187.736
			C552.84,646.726,442.845,532.896,304.783,530.537z"/>
	</g>
</g>
<g>
	<circle fill="#71C386" cx="1229.219" cy="-11.841" r="97.627"/>
	<path fill="#FFFFFF" d="M1278.032-19.976h-40.678v-40.678c0-4.491-3.645-8.136-8.136-8.136s-8.136,3.645-8.136,8.136v40.678
		h-40.678c-4.491,0-8.136,3.645-8.136,8.136s3.645,8.136,8.136,8.136h40.678v40.678c0,4.491,3.645,8.136,8.136,8.136
		s8.136-3.645,8.136-8.136V-3.705h40.678c4.491,0,8.135-3.645,8.135-8.136S1282.523-19.976,1278.032-19.976z"/>
</g>
<circle fill="#ECF0F1" cx="850.5" cy="780.5" r="250"/>
<g>
	<g>
		<path fill="#2377DA" d="M850.5,724.601c-30.571,0-55.348,24.789-55.348,55.348c0,30.571,24.778,55.348,55.348,55.348
			c30.563,0,55.348-24.778,55.348-55.348C905.848,749.39,881.063,724.601,850.5,724.601z M998.096,669.253h-44.279
			c-6.088,0-12.649-4.723-14.571-10.501l-11.446-34.349c-1.93-5.775-8.483-10.498-14.571-10.498H787.772
			c-6.088,0-12.649,4.723-14.571,10.501l-11.446,34.349c-1.93,5.775-8.483,10.498-14.571,10.498h-44.279
			c-20.294,0-36.899,16.605-36.899,36.899v166.045c0,20.294,16.604,36.899,36.899,36.899h295.191
			c20.294,0,36.899-16.604,36.899-36.899V706.152C1034.995,685.857,1018.39,669.253,998.096,669.253z M850.5,872.197
			c-50.946,0-92.247-41.301-92.247-92.247c0-50.943,41.301-92.247,92.247-92.247c50.939,0,92.247,41.305,92.247,92.247
			C942.747,830.896,901.439,872.197,850.5,872.197z M985.181,731.955c-7.129,0-12.915-5.778-12.915-12.915
			c0-7.129,5.786-12.915,12.915-12.915c7.136,0,12.915,5.786,12.915,12.915C998.096,726.177,992.313,731.955,985.181,731.955z"/>
	</g>
</g>
</svg>
