<svg width="22" height="22" xmlns="http://www.w3.org/2000/svg" xmlns:xlink="http://www.w3.org/1999/xlink">
    <defs>
        <path d="M8.7 0C3.893 0 0 3.901 0 8.708s3.893 8.709 8.7 8.709c4.815 0 8.717-3.902 8.717-8.709C17.417 3.901 13.515 0 8.7 0zm.008 15.675a6.965 6.965 0 0 1-6.966-6.967 6.965 6.965 0 0 1 6.966-6.966 6.965 6.965 0 0 1 6.967 6.966 6.965 6.965 0 0 1-6.967 6.967z" id="a"/>
        <path id="b" d="M9.144 4.354H7.838V9.58l4.571 2.743.653-1.07-3.918-2.326z"/>
    </defs>
    <g transform="translate(2.242 2.642)" fill="none" fill-rule="evenodd">
        <use fill="#F9C270" xlink:href="#a"/>
        <mask id="c" fill="#fff">
            <use xlink:href="#b"/>
        </mask>
        <use fill="#6C7279" fill-rule="nonzero" xlink:href="#b"/>
        <g mask="url(#c)" fill="#F9C270">
            <path d="M-1.742-1.742h20.9v20.9h-20.9z"/>
        </g>
    </g>
</svg>
