<svg width="22" height="22" xmlns="http://www.w3.org/2000/svg">
    <defs>
        <filter color-interpolation-filters="auto" id="a">
            <feColorMatrix in="SourceGraphic" values="0 0 0 0 0.976471 0 0 0 0 0.760784 0 0 0 0 0.439216 0 0 0 1.000000 0"/>
        </filter>
    </defs>
    <g transform="translate(.65 .9)" filter="url(#a)" fill="none" fill-rule="evenodd">
        <path d="m17.8 1.993-9 1.667a.95.95 0 0 0-.694.548l-2.52 5.668-.256-.256a.95.95 0 0 0-1.343 0l-1.574 1.574a.95.95 0 0 0 0 1.343l5.95 5.95a.95.95 0 0 0 1.343 0l1.574-1.574a.95.95 0 0 0 0-1.343l-.256-.256 5.668-2.52a.95.95 0 0 0 .548-.695L18.907 3.1A.95.95 0 0 0 17.8 1.993zM9.034 17.7 3.2 11.866l1.459-1.459 5.834 5.834L9.034 17.7zm1.208-3.168-3.874-3.874L9.03 4.666l7.945-1.471-3.264 3.263a1.547 1.547 0 1 0 .73.73l3.263-3.264-1.471 7.945-5.992 2.663zM13.41 8.22a.515.515 0 1 1-.73-.729.515.515 0 0 1 .73.73z" fill="#000" fill-rule="nonzero"/>
    </g>
</svg>
