<?xml version="1.0" encoding="UTF-8"?>
<svg width="42px" height="40px" viewBox="0 0 42 40" version="1.1" xmlns="http://www.w3.org/2000/svg" xmlns:xlink="http://www.w3.org/1999/xlink">
    <title>Group 2</title>
    <g id="Symbols" stroke="none" stroke-width="1" fill="none" fill-rule="evenodd">
        <g id="課程/Tab2/Hover" transform="translate(-14.000000, -6.000000)">
            <g id="Group-2" transform="translate(14.000000, 6.000000)">
                <g id="Group-4" transform="translate(0.000000, 7.000000)">
                    <rect id="Rectangle" x="0" y="0" width="40" height="28"></rect>
                    <path d="M35.5858997,2.15554944 C35.8164722,2.42132788 35.9377122,2.81811384 35.909645,3.33927546 C35.8686275,4.09207306 35.7929902,4.84487831 35.7141687,5.60034116 C35.6063875,6.65671157 35.4895515,7.7130822 35.369668,8.75444798 C35.7437541,9.67493121 36.1777382,9.89092373 36.4665621,10.2351491 C36.6634239,10.4697724 36.8083095,10.7520725 36.866842,11.1092661 L36.888753,11.29423 L38.3094347,11.9052629 C38.4987858,11.9831433 38.6835972,12.0721316 38.869592,12.1756146 C39.2878175,12.425086 39.4825114,12.7455374 39.4999837,13.061858 C39.5173925,13.3770304 39.3608915,13.7160657 38.9613598,14.0167632 C38.1892558,14.5462435 37.2978918,14.8648889 36.3719625,14.9428044 C35.6765394,15.0429344 34.9741199,15.0831484 34.2683391,15.0628866 C33.8141357,15.0429538 33.493035,15.2280126 33.1837685,15.4967867 C34.1543236,15.9441752 34.87655,16.2755471 35.6029748,16.5936257 C36.8626966,17.1632001 38.0610367,17.8656269 39.175863,18.6875791 C39.7449187,19.0954748 39.9829785,19.5120377 39.9724514,19.9058127 C39.9619601,20.2982466 39.702154,20.7060062 39.107566,21.0993306 C38.2761482,21.6092051 37.3394462,21.9119964 36.3730655,21.9835651 C34.8093701,22.1651187 33.2740348,21.9459766 31.7390793,21.6590121 C29.4310221,21.2316287 27.1198398,20.8309128 24.8055014,20.4568958 C24.6055541,20.4450771 24.4062773,20.4904172 24.2298563,20.5877651 C21.443957,21.950504 18.5915388,23.1347762 15.6764673,24.1400751 C15.1172944,24.3309378 14.5526326,24.5004297 13.9883024,24.6697614 C13.601007,24.7859724 13.2138739,24.9021207 12.8252888,25.0263552 C12.648859,25.0798961 12.4825767,25.1636739 12.3372012,25.2712204 C11.1082133,26.2171752 9.8392038,26.7703935 8.52782646,26.909713 C7.24322632,27.0461878 5.91564172,26.7862689 4.54124014,26.0965728 C2.55254601,25.0967012 1.42493193,23.432928 0.978650624,21.2280435 C0.566918222,19.1863872 0.643788084,17.2470132 1.77037123,15.4337242 C2.87073169,13.650982 4.66646256,12.4391057 6.69715935,12.1055103 C7.5956687,11.9480894 8.51318714,11.9981256 9.38388595,12.2470836 L9.668,12.336 L9.57407661,12.2791771 C9.35002173,12.1391695 9.10112655,11.9608668 8.84870121,11.776524 L8.69699287,11.6654516 C8.54683969,11.5553711 8.39691849,11.4454579 8.24671405,11.3335925 C7.68654871,10.9115063 7.14434923,10.4645299 6.61440007,9.98734746 C6.3724339,9.755473 6.17377092,9.48036032 6.03041932,9.17982046 C5.80817603,8.73644128 5.80054434,8.28560193 5.9596465,7.92434631 C6.11907375,7.56235255 6.44667241,7.28020624 6.93321105,7.18265311 C7.57014629,7.07293198 8.21807458,7.04612707 8.86074011,7.10279964 C10.2876279,7.22378873 11.6854894,7.58354839 12.9959338,8.16661191 C15.1033378,9.07430078 17.3025008,9.73999402 19.553235,10.1514077 C20.3044512,10.2532746 21.0667854,10.2309461 21.8111179,10.0852653 C23.2157648,9.87743773 24.6079697,9.6606895 25.9990578,9.43287198 C26.2256364,8.42262811 26.2718847,7.85301795 26.520001,7.50565817 C26.6877196,7.27085407 26.9346868,7.11748705 27.2564881,7.04034051 C27.465102,6.99032878 27.7077017,6.97304037 27.9797682,6.9845309 L28.1892726,6.99848321 L29.0363629,5.36069006 C29.4215469,4.61442232 29.9158893,3.93284879 30.5032519,3.33847754 C31.6197982,2.22196705 32.9993941,1.81581445 34.5003477,1.75205458 C34.987776,1.7302675 35.3479392,1.88125484 35.5858997,2.15554944 Z M3.247,15.758 L3.1322834,15.9232167 C2.28129595,17.197643 1.97881046,18.7011713 2.20278863,20.4266674 C2.32635179,21.4387322 2.71367392,22.396128 3.3243644,23.1995046 C4.3381204,24.5262765 5.56718136,25.4773917 7.31357158,25.5861459 C7.5995018,25.6175092 7.88092585,25.5607031 8.12661555,25.4322954 C8.32046359,25.3309823 8.49204136,25.185147 8.6263549,25.0029402 L8.6263549,25.0029402 L7.86324857,24.2518722 L7.80558557,24.2452987 C7.37060603,24.1930367 7.10707162,24.0809307 7.57142924,22.7392201 C7.36480883,22.6070569 7.07222654,22.2814791 6.59169618,21.4805908 C6.53293468,21.3426041 6.52697054,21.1001159 6.56094717,20.6335745 L6.56094717,20.6335745 L5.66507854,18.9238077 L4.39666621,17.554757 L4.52827146,17.3473004 C4.57424673,17.279646 4.62230345,17.213522 4.67236547,17.1490264 L4.67236547,17.1490264 L4.712,17.101 L4.6584353,17.1303571 L4.57341983,17.1763207 C4.20376876,17.3733942 3.81072616,17.5321104 3.11612079,17.2222407 C3.32511565,16.8391648 3.51930741,16.5216598 3.25389406,15.7758752 L3.25389406,15.7758752 L3.247,15.758 Z M7.81740316,13.3677567 L7.63853806,13.3765476 C7.45507089,13.3902863 7.25644227,13.4175327 7.03045553,13.4462616 C6.14975349,13.5068122 5.30439613,13.824096 4.59390632,14.360372 L4.59390632,14.360372 L4.37525562,14.54075 C4.16176678,14.7232761 3.96375217,14.9122433 3.78110977,15.1076185 L3.78110977,15.1076185 L3.678,15.222 L3.74070614,15.1759616 C4.27316256,14.7871189 4.91880068,14.4317991 5.9879146,14.1957532 L5.9879146,14.1957532 L5.99687287,14.3823623 C5.9936537,14.684339 5.90272108,14.9434445 5.76959484,15.1944924 L5.76959484,15.1944924 L5.719,15.284 C5.93667375,15.2601992 6.23975601,15.686664 6.90558878,17.8669032 C7.23772036,17.8368845 7.57054971,17.936362 7.8355452,18.1486957 C8.12979031,18.3844664 8.31233782,18.7374926 8.33602126,19.1195108 C8.35920428,19.3440811 8.37882578,19.576143 8.7280639,19.95042 C8.88783324,19.9681424 9.08872326,20.0230836 9.75511034,21.0079451 C9.81863981,21.2028053 9.81971522,21.4132544 10.0388527,22.0945766 C10.1066284,22.2026194 10.1680004,22.3903882 10.1539691,22.8449527 C10.0585581,23.0305099 9.95552914,23.2117401 9.84869929,23.6178964 C10.1029059,23.5818044 10.425197,23.6321918 11.0048403,24.2540184 L11.0048403,24.2540184 L10.8965927,24.4095519 C10.8586901,24.4599876 10.8189944,24.5089819 10.7775868,24.5564368 L10.7775868,24.5564368 L10.743,24.593 L10.8719585,24.5349799 C11.2446951,24.3486587 11.5695941,24.0661023 11.8113345,23.708769 C12.292481,22.9934397 12.7194904,22.2406762 13.0882162,21.4577023 C13.4701162,20.6621558 13.5833598,19.7613161 13.4112202,18.8944805 C13.0463915,16.9715032 12.1245298,15.4070659 10.0970885,14.2370615 L10.0970885,14.2370615 L9.76167598,14.3215058 C9.64958153,14.3511571 9.53687294,14.3821997 9.4225786,14.4142973 L9.4225786,14.4142973 L9.093,14.507 L9.07214874,14.4938619 C9.31799408,14.6620503 9.54045851,14.8147554 9.7470113,14.9878075 C11.1218718,16.1433026 11.8185626,17.6907475 12.1754817,19.4384162 C12.3528517,20.4148877 12.2495006,21.4183944 11.3730603,22.6869796 C11.2174331,22.7046251 10.990587,22.6774666 10.4880491,22.2769641 C10.523994,22.0503033 10.5732653,21.8260706 10.6355925,21.6054883 C11.1116937,19.6208165 10.72862,17.8567747 9.36749955,16.3119043 C8.69643217,15.4913121 7.72003364,15.0127735 6.2699012,13.9823198 C6.40444285,13.8849703 6.63317782,13.8054686 6.99293464,13.6991579 C7.33355641,13.617874 7.66664957,13.5079318 7.98887099,13.3706432 L7.98887099,13.3706432 L7.81740316,13.3677567 Z" id="Shape" stroke="#F9C270" stroke-width="0.5" fill="#F9C270" fill-rule="nonzero"></path>
                    <path d="M18.3916583,17.5540494 C18.9307287,16.9740926 19.5465375,16.4743855 20.2211063,16.069517 C21.9187587,15.0252031 23.7858625,14.4178944 25.6968982,13.9423299 C25.9050605,13.9010498 26.1196616,13.9087411 26.3244961,13.9648228 C28.1560301,14.413601 29.9273855,15.0890748 31.5994567,15.9763321 C32.8546526,16.6189868 34.1318143,17.1941627 35.4121141,17.7757653 C36.5927695,18.3400028 37.7154617,19.0235356 38.763487,19.816194 C38.4838475,20.1931329 38.0762183,20.4488531 37.6212588,20.532754 C36.5908191,20.8710336 35.501811,20.9805754 34.4267854,20.8540814 C32.5251636,20.5938062 30.6360939,20.2531992 28.7438861,19.9479382 C27.573416,19.7551418 26.3966699,19.5944781 25.2356137,19.3631224 C23.1237467,18.9389703 20.9993277,18.5469509 18.9753244,17.7564856 L18.3916583,17.5540494 Z" id="Path" fill="#FFFFFF" fill-rule="nonzero"></path>
                    <path d="M32.1580189,14.6813828 C31.8975657,15.118388 31.6120087,15.0027102 31.3013477,14.8452597 C29.791242,14.0358722 28.1816611,13.4381983 26.5159135,13.0683195 C26.2084295,12.9865991 25.8873925,12.9734495 25.5745166,13.0297602 C23.6970427,13.4463649 21.88347,14.1219625 20.1834504,15.0380562 C19.1943089,15.6264692 18.2768339,16.3329715 17.4502614,17.1427504 C17.3542693,17.2374907 17.2718634,17.3456739 17.2054982,17.4640777 C17.0078049,17.8111113 17.0642887,18.042467 17.4471234,18.1709979 C18.9408065,18.6690553 20.4376275,19.13498 21.9375866,19.6233976 C22.2336185,19.6971581 22.5249527,19.7894453 22.8099477,19.8997391 C19.7698983,21.4385512 16.6041355,22.7019053 13.3489089,23.6753356 C14.0737845,22.2647085 14.7170724,20.9729725 14.6386227,19.4595206 C14.5601729,17.9460688 13.948265,16.6543328 13.2767352,15.3561702 C13.2767352,15.3561702 13.330081,15.2983313 13.345771,15.3047579 C14.4534813,15.8478011 15.5988475,15.8124551 16.7630417,15.5618198 C18.113243,15.2664352 19.42685,14.8169834 20.6792527,14.2218847 C21.2633145,13.9410173 21.8183808,13.6008486 22.3361113,13.2064902 C23.0076411,12.7020063 23.4030278,12.0432852 23.032745,11.0825164 L23.6791708,10.960412 C26.2672503,10.466226 28.8917183,10.1985578 31.5241449,10.1603069 C32.4507288,10.1668272 33.3760617,10.2312122 34.2949898,10.3531033 C34.7616241,10.3792596 35.1962894,10.6041367 35.4937018,10.9732651 C33.9592249,10.8415209 32.6224413,11.3652845 31.3264516,12.0272188 C30.8860531,12.2609551 30.4586322,12.5194838 30.0461518,12.8016177 C29.6695931,13.0522531 29.675869,13.2193433 29.8735624,13.6242158 C30.0588835,14.0264 30.42902,14.3064377 30.8588911,14.3696953 C31.2856577,14.4436005 31.7092863,14.5849846 32.1580189,14.6813828 Z" id="Path" fill="#FFFFFF"></path>
                    <path d="M5.55414267,19.9125922 L6.84071843,20.6227257 C6.85468937,20.7594521 6.85468937,20.8972982 6.84071843,21.0340247 C6.77168265,21.5128024 6.7873726,21.5449352 7.25807105,21.6027741 C7.32083084,21.6027741 7.38359063,21.6027741 7.52480017,21.6284803 C7.29886491,21.8116369 7.11058554,21.9498077 6.94741007,22.1040448 C6.78423461,22.2582819 6.65871503,22.4607182 6.79678657,22.6920738 C6.93485812,22.9234295 7.19531126,22.9009366 7.4243845,22.7884721 C7.6034185,22.6779275 7.80571288,22.6129184 8.01432655,22.5988889 C7.86997903,22.8206048 7.72563151,23.0423207 7.575008,23.2608233 C7.17962131,23.8263594 7.2423811,23.9709567 8.00177459,24.0545019 C7.84173712,24.2183788 7.70994156,24.3469097 7.58755996,24.4850805 C7.41810852,24.6746637 7.14196543,24.8481804 7.31455486,25.1502281 C7.48714429,25.4522759 7.77583934,25.301252 8.02374052,25.2594794 C8.17193281,25.2295756 8.31855846,25.1920397 8.46305907,25.1470149 L8.97141339,25.0088441 C8.63524913,25.6097413 7.98385592,25.9501868 7.31141687,25.876428 C5.50079685,25.7639634 4.21108311,24.7807017 3.15044261,23.3925675 C2.51308181,22.5541056 2.10868758,21.554946 1.97997247,20.5006213 C1.6379316,17.913936 2.45067092,15.8188816 4.46839826,14.202605 C5.21780192,13.6369569 6.10951088,13.3024873 7.03841177,13.238623 C7.59069795,13.1743575 8.13357016,13.0522531 8.7266502,13.3414477 C8.20710437,13.6305244 7.65192677,13.8466829 7.07606765,13.9841024 C6.94919684,14.00513 6.82350152,14.0330174 6.69950889,14.0676475 C6.50181555,14.1544059 6.27901828,14.2636572 6.31667416,14.5335722 C6.35433003,14.8034872 6.6053692,14.7938474 6.82189049,14.8034872 C7.89118196,14.8450508 8.89331027,15.3482129 9.58018338,16.1884081 C10.9985547,17.7950449 11.4002174,19.6362507 10.901277,21.7152387 C10.8416251,21.9263531 10.7944695,22.1409614 10.7600675,22.3578934 C10.7600675,22.4767845 10.7600675,22.6792208 10.8353792,22.7113535 C10.9647889,22.7725665 11.1139083,22.7725665 11.2433179,22.7113535 C11.4243999,22.6040869 11.5714731,22.4456762 11.6669465,22.2550686 C12.0218757,21.3953807 12.1222663,20.4478418 11.9556415,19.5302126 C11.6104627,17.8400307 10.9420709,16.339432 9.61156328,15.2212128 C9.29776432,14.9609376 8.95258546,14.7488615 8.54150881,14.4532404 C9.13145087,14.2893634 9.63980519,14.131913 10.1607115,14.0130219 C10.307113,14.0099933 10.4504349,14.0562793 10.5686501,14.1447661 C12.3227863,15.2308526 13.2987011,16.8696221 13.6815358,18.8875579 C13.8642216,19.8075007 13.7439343,20.7635055 13.339495,21.6059874 C12.965362,22.4004434 12.5320866,23.1642436 12.0435053,23.8906249 C11.5865389,24.5660984 10.8597103,24.9982909 10.0602958,25.0698963 L10.4902004,24.5654124 C10.6144952,24.4435205 10.7250184,24.3077107 10.8196893,24.1605399 C10.8730351,24.0609284 10.8918631,23.8617054 10.8196893,23.8006532 C10.7156914,23.7047013 10.5753822,23.6611276 10.4368546,23.6817621 C10.1299724,23.7838808 9.82833894,23.9018519 9.53311354,24.0352222 C9.412953,24.087704 9.27868594,24.0956578 9.15341679,24.0577151 C9.27893638,23.8745585 9.40759395,23.6946152 9.52369957,23.5082453 C9.6817527,23.2717014 9.82634068,23.0260129 9.95674214,22.7724057 C10.0402896,22.6296148 10.0693473,22.4602412 10.0383299,22.2968412 C9.92850023,22.0783386 9.72453091,22.1522439 9.52683756,22.2486421 C9.46064764,22.2613375 9.39331849,22.2667238 9.32600622,22.2647085 C9.4167448,22.0976673 9.48935112,21.9209555 9.54252751,21.7377316 C9.6071238,21.5395991 9.6071238,21.3253421 9.54252751,21.1272096 C9.47035375,21.0083185 9.19734865,21.014745 8.98082736,20.9536928 C9.09377182,20.7819814 9.19144115,20.6002382 9.2726604,20.4106496 C9.32258146,20.272401 9.30753362,20.1183125 9.23186653,19.992924 C9.16283076,19.922232 8.94944747,19.9382984 8.83334185,19.992924 C8.61457566,20.1140784 8.40481021,20.2515491 8.20574392,20.4042231 C8.17436402,19.9736444 8.1523981,19.5751985 8.11160423,19.1767525 C8.09231387,18.8655955 7.94411502,18.5777024 7.70432396,18.3855643 C7.4645329,18.1934262 7.15599814,18.115351 6.85640838,18.1709979 C6.79170206,18.1772883 6.72655933,18.1772883 6.66185302,18.1709979 L6.27588029,17.6954334 C6.41396207,17.5208276 6.53780595,17.3349039 6.64616307,17.1395371 C6.78423461,16.8503425 6.56771333,16.7057452 6.29784622,16.6093469 C6.46102168,16.4069107 6.58654127,16.2623134 6.70264688,16.104863 C6.8187525,15.9474126 7.05723971,15.7192702 6.88465028,15.4622083 C6.71206085,15.2051464 6.45160771,15.3497437 6.25705235,15.4397154 C5.88363159,15.6035923 5.51962479,15.7963887 5.0018565,16.0534506 C5.34389737,15.4107959 5.83969973,14.9802172 5.76438798,14.2636572 C5.62004046,14.2636572 5.45058902,14.2090316 5.35644933,14.2636572 C4.68491954,14.7745677 4.02907971,15.3079711 3.37323987,15.8445878 C3.28503037,15.9093043 3.21999085,16.0018668 3.18809848,16.1080763 C3.18222137,16.2473567 3.19488966,16.386808 3.22575436,16.5225886 C3.35729971,16.4980168 3.48366113,16.450174 3.59917513,16.3812045 C3.75855038,16.1978664 3.94361593,16.0397647 4.14832331,15.9120666 C3.9098361,16.3619249 3.67134889,16.8085699 3.36068791,17.3837459 C4.20166914,17.325907 4.6974715,16.7410912 5.45058902,16.5707877 C5.28113758,16.821423 5.16816995,16.9949398 5.04892634,17.1588167 C4.93495543,17.2870073 4.83008802,17.4233841 4.73512738,17.5669025 C4.64726367,17.7307794 4.5154681,17.9749882 4.57508991,18.0906661 C4.63471171,18.2063439 4.88888887,18.2802492 5.14306603,18.4119934 C5.14306603,18.4730456 5.18699789,18.6369226 5.21837778,18.8200792 L5.86794164,18.8200792 C5.80518185,19.006449 5.74869803,19.1414065 5.70790417,19.3020702 C5.64828236,19.5237861 5.60435051,19.7519285 5.55100468,19.9736444 C5.48824489,19.7679949 5.42862309,19.5623454 5.3658633,19.3599091 C4.86692294,19.4434543 4.73826537,19.5494923 4.80730114,19.9672178 C4.87693735,20.3807247 4.98194125,20.7871619 5.1211001,21.1818353 C5.22868753,21.4945563 5.36970763,21.7941393 5.54159072,22.0751253 C5.60435051,22.1811633 5.77693994,22.2197226 5.89932153,22.2872014 C5.98759217,22.151276 6.04742374,21.9981086 6.07504895,21.8373431 C6.04039271,21.6668514 5.98449771,21.501623 5.9087355,21.3457122 C5.78007793,20.8412283 5.6671103,20.368877 5.55414267,19.9125922 Z M6.60223121,24.2730045 C5.67628997,23.6864546 4.91843553,22.8594217 4.40563847,21.8759024 C3.96223391,20.8745782 3.772295,19.7750141 3.85335229,18.6786951 C3.69866817,18.6633992 3.5448006,18.7151613 3.4291122,18.8214124 C3.31342381,18.9276636 3.24649669,19.0786848 3.2445823,19.2378047 C3.19653651,19.5200877 3.18913595,19.8080556 3.22261637,20.0925355 C3.39610847,21.3216971 3.89536077,22.4786327 4.66609161,23.4375533 C5.01799957,23.8236171 5.4069808,24.1724104 5.82714777,24.478654 C6.07504895,24.6939433 6.32922612,24.6843035 6.59909322,24.2730045 L6.60223121,24.2730045 Z M7.04782574,16.4165505 C7.85969112,16.3570883 8.63301844,16.7792579 9.03731118,17.502637 C9.38218699,18.0397682 9.60915819,18.6471207 9.70256498,19.2827906 C9.74022086,19.6041179 9.79356668,19.9254453 9.8469125,20.2756921 C10.1084237,20.2102562 10.2963635,19.9759139 10.308197,19.7005161 C10.3454878,19.3717963 10.3338493,19.0391851 10.2736791,18.7140411 C10.0903715,17.9148063 9.71377593,17.1755892 9.17852071,16.5643611 C8.92115095,16.2379674 8.58463735,15.9864522 8.20260593,15.834948 C7.52166218,15.5778861 7.43693646,15.6132321 7.04468775,16.4165505 L7.04782574,16.4165505 Z M12.9346943,19.404895 C12.8973006,18.090892 12.4360723,16.8265459 11.6230146,15.8092418 C11.4943571,15.6421516 11.3311816,15.3915163 11.0989704,15.565033 C10.8667591,15.7385498 11.0989704,15.9474126 11.215076,16.1145028 C11.9369157,17.0288167 12.3576233,18.153623 12.416926,19.3277764 C12.4128286,19.4598271 12.4397315,19.5909571 12.4953758,19.710156 C12.5661334,19.8069307 12.668662,19.8742602 12.7840708,19.8997391 C12.8154507,19.8997391 12.9095904,19.7519285 12.9409703,19.6587436 C12.9521965,19.5743309 12.9500774,19.4886179 12.9346943,19.404895 L12.9346943,19.404895 Z M2.89312746,20.4106496 C2.85860957,19.8708196 2.83036767,19.4466675 2.80840174,19.0417951 C2.81218514,18.8658348 2.80484784,18.6898083 2.78643581,18.5148182 C2.78643581,18.4280598 2.65150226,18.2802492 2.61070839,18.289889 C2.50715473,18.3155952 2.3345653,18.41842 2.33770329,18.4858987 C2.33770329,19.1285534 2.38791113,19.7487152 2.45380891,20.3785169 C2.45380891,20.4652753 2.65777824,20.5359673 2.76760787,20.6130858 C2.84605761,20.5006213 2.90881741,20.3977965 2.90567942,20.4010098 L2.89312746,20.4106496 Z M12.2914064,21.0886503 L12.5801015,21.3457122 C12.6554132,21.2557406 12.7840708,21.1689822 12.7903468,21.0757972 C12.7966228,20.9826123 12.6616892,20.9022805 12.5895154,20.8123088 L12.2914064,21.0886503 Z" id="Shape" fill="#FFFFFF" fill-rule="nonzero"></path>
                    <path d="M34.1098484,9.29272299 L28.4614671,9.29272299 C28.4705157,9.1829613 28.4937297,9.07491158 28.5305028,8.97139563 C29.1141689,7.79212422 29.6633171,6.59357317 30.297191,5.43679468 C31.1127253,3.85353983 32.7259443,2.87181912 34.4738552,2.89509527 C34.5355103,2.90072146 34.5964732,2.91256077 34.6558586,2.93044128 C34.9351397,3.58916237 34.5052351,8.47976477 34.1098484,9.29272299 Z" id="Path" fill="#FFFFFF" fill-rule="nonzero"></path>
                    <path d="M7.03841177,8.32552764 C7.32710682,8.28696835 7.55618007,8.23876925 7.78211532,8.2323427 C9.09974938,8.1802826 10.4142326,8.39879221 11.6481186,8.87499742 C13.6752599,9.67188927 15.6961252,10.4816342 17.8236822,11.0985827 C17.5098832,11.1692748 17.1960842,11.2367535 16.8979752,11.3138721 C15.451362,11.6641189 14.0078868,12.0047259 12.5675495,12.3742524 C12.3029819,12.4697043 12.0102512,12.4353452 11.7736381,12.2810674 C10.5184423,11.407057 9.22559055,10.5555395 7.98294666,9.64939636 C7.58128398,9.35377519 7.13882744,9.02602128 7.03841177,8.32552764 Z" id="Path" fill="#FFFFFF" fill-rule="nonzero"></path>
                    <path d="M38.2112009,13.1068787 C36.4288228,14.1544059 33.1904174,14.1351263 30.9404789,13.3767937 C31.0476041,13.2777258 31.1596763,13.1844154 31.2762438,13.0972389 C32.2865148,12.4564327 33.4161744,12.0383789 34.5930988,11.8697684 C34.7588219,11.8262407 34.9325921,11.8262407 35.0983151,11.8697684 C36.1024718,12.2585745 37.0972145,12.6570204 38.2112009,13.1068787 Z" id="Path" fill="#FFFFFF" fill-rule="nonzero"></path>
                    <path d="M15.9095085,12.5220629 C15.755747,13.3414477 15.6239514,14.0290883 15.4827419,14.7713545 C14.910098,14.8553477 14.3261543,14.7530662 13.8133314,14.4789466 C13.1857335,14.1094201 13.1669055,13.5149645 13.7756755,13.1390115 C14.3844455,12.7630585 15.1312871,12.6570204 15.9095085,12.5220629 Z" id="Path" fill="#FFFFFF" fill-rule="nonzero"></path>
                    <path d="M19.1133959,13.8941308 L16.5151405,14.7038757 C16.491409,14.1348474 16.5910743,13.5675017 16.8069735,13.0426133 C17.6228508,13.1486513 18.3477264,13.4956848 19.1039819,13.7366804 L19.1133959,13.8941308 Z" id="Path" fill="#FFFFFF" fill-rule="nonzero"></path>
                    <path d="M19.2640194,12.8080443 L17.6291268,12.252148 L17.6291268,12.1075507 L19.3612971,11.7251711 C19.3267792,12.1011241 19.3016753,12.393532 19.2640194,12.8080443 Z" id="Path" fill="#FFFFFF" fill-rule="nonzero"></path>
                    <path d="M21.5578898,12.6859399 L20.4062476,13.3285946 C20.0453788,12.9397885 20.2211063,12.5799019 20.2524862,12.1975223 C20.7000643,12.190753 21.1418896,12.3013705 21.5359239,12.5188497 L21.5578898,12.6859399 Z" id="Path" fill="#FFFFFF" fill-rule="nonzero"></path>
                    <path d="M6.34491606,19.5302126 L6.97251399,18.7204677 C7.49342027,19.0739278 7.49969625,19.0899942 7.30514089,19.7679949 L6.40139988,19.6973029 L6.34491606,19.5302126 Z" id="Path" fill="#FFFFFF" fill-rule="nonzero"></path>
                    <path d="M11.4535632,13.6370689 L12.3949601,13.3671539 C12.4483059,13.75596 12.4953758,14.0933537 12.5581356,14.543212 L11.4535632,13.6370689 Z" id="Path" fill="#FFFFFF" fill-rule="nonzero"></path>
                    <path d="M21.3256786,11.4359765 C22.0223123,11.1885544 22.0223123,11.1885544 22.2670755,11.8055029 L21.3256786,11.4359765 Z" id="Path" fill="#FFFFFF" fill-rule="nonzero"></path>
                    <path d="M27.8934909,8.20984979 L27.6016579,8.8171585 C27.3129628,8.30946127 27.3443427,8.2323427 27.8934909,8.20984979 Z" id="Path" fill="#FFFFFF" fill-rule="nonzero"></path>
                    <polygon id="Path-3" fill="#FFFFFF" points="5.30204404 19.5090871 5.52067117 19.5090871 5.61016281 19.9480864 5.85416199 20.9925105 5.30204404 22.1876586"></polygon>
                    <polygon id="Path-3-Copy" fill="#FFFFFF" transform="translate(39.391200, 12.004596) rotate(-28.000000) translate(-39.391200, -12.004596) " points="38.9492489 12.1410145 39.4090961 11.710589 39.8331513 12.203125 38.997525 12.2986026"></polygon>
                </g>
                <rect id="Rectangle" fill="#D8D8D8" opacity="0" x="9.09494702e-13" y="0" width="40" height="40"></rect>
            </g>
        </g>
    </g>
</svg>