<?xml version="1.0" encoding="UTF-8"?>
<svg width="20px" height="20px" viewBox="0 0 20 20" version="1.1" xmlns="http://www.w3.org/2000/svg" xmlns:xlink="http://www.w3.org/1999/xlink">
    <title>Group</title>
    <g id="Symbols" stroke="none" stroke-width="1" fill="none" fill-rule="evenodd">
        <g id="Card/03/Hover" transform="translate(-20.000000, -273.000000)">
            <g id="Group" transform="translate(20.000000, 273.000000)">
                <rect id="Rectangle" fill="#D8D8D8" opacity="0" x="0" y="0" width="20" height="20"></rect>
                <path d="M8.44121622,3.25 L5.26891892,3.25 C4.155972,3.25 3.25,4.14478716 3.25,5.25325325 L3.25,14.026026 C3.25,15.1344921 4.155972,16.0292793 5.26891892,16.0292793 L15.4202703,16.0292793 C16.5332172,16.0292793 17.4391892,15.1344921 17.4391892,14.026026 L17.4391892,7.13313313 L17.4336393,6.98336709 C17.3564005,5.94517149 16.4826287,5.12987988 15.4202703,5.12987988 L10.108,5.129 L9.06285272,3.58039536 C8.92341064,3.3738145 8.69045454,3.25 8.44121622,3.25 Z M5.26891892,4.75 L8.042,4.75 L9.08849863,6.29948452 C9.22794071,6.50606538 9.46089681,6.62987988 9.71013514,6.62987988 L15.4202703,6.62987988 C15.7089325,6.62987988 15.9391892,6.8572939 15.9391892,7.13313313 L15.9391892,14.026026 C15.9391892,14.3018653 15.7089325,14.5292793 15.4202703,14.5292793 L5.26891892,14.5292793 C4.9802567,14.5292793 4.75,14.3018653 4.75,14.026026 L4.75,5.25325325 C4.75,4.97741402 4.9802567,4.75 5.26891892,4.75 Z" id="Path" fill="#21505B" fill-rule="nonzero"></path>
            </g>
        </g>
    </g>
</svg>