<?xml version="1.0" encoding="UTF-8"?>
<svg width="48px" height="48px" viewBox="0 0 48 48" version="1.1" xmlns="http://www.w3.org/2000/svg" xmlns:xlink="http://www.w3.org/1999/xlink">
    <title>Group</title>
    <g id="Symbols" stroke="none" stroke-width="1" fill="none" fill-rule="evenodd">
        <g id="Group">
            <circle id="Oval" fill="#FFFFFF" opacity="0" cx="24" cy="24" r="24"></circle>
            <path d="M23.2928932,19.2928932 C23.6533772,18.9324093 24.2206082,18.9046797 24.6128994,19.2097046 L24.7071068,19.2928932 L28.7071068,23.2928932 C29.0675907,23.6533772 29.0953203,24.2206082 28.7902954,24.6128994 L28.7071068,24.7071068 L24.7071068,28.7071068 C24.3165825,29.0976311 23.6834175,29.0976311 23.2928932,28.7071068 C22.9324093,28.3466228 22.9046797,27.7793918 23.2097046,27.3871006 L23.2928932,27.2928932 L26.585,24 L23.2928932,20.7071068 C22.9324093,20.3466228 22.9046797,19.7793918 23.2097046,19.3871006 L23.2928932,19.2928932 Z" id="Path" fill="#21505B" fill-rule="nonzero"></path>
            <path d="M28,23 C28.5522847,23 29,23.4477153 29,24 C29,24.5128358 28.6139598,24.9355072 28.1166211,24.9932723 L28,25 L20,25 C19.4477153,25 19,24.5522847 19,24 C19,23.4871642 19.3860402,23.0644928 19.8833789,23.0067277 L20,23 L28,23 Z" id="Path" fill="#21505B" fill-rule="nonzero"></path>
        </g>
    </g>
</svg>