<?xml version="1.0" encoding="UTF-8"?>
<svg width="24px" height="24px" viewBox="0 0 24 24" version="1.1" xmlns="http://www.w3.org/2000/svg" xmlns:xlink="http://www.w3.org/1999/xlink">
    <title>Icon/Arrow/Normal Copy 6</title>
    <g id="Web" stroke="none" stroke-width="1" fill="none" fill-rule="evenodd">
        <g id="赫綵官網/首頁02_Hover" transform="translate(-755.000000, -5598.000000)">
            <g id="Group-2" transform="translate(250.000000, 5270.000000)">
                <g id="Group-3-Copy-4" transform="translate(505.000000, 328.000000)">
                    <path d="M12,0 C18.627417,0 24,5.372583 24,12 C24,18.627417 18.627417,24 12,24 C5.372583,24 0,18.627417 0,12 C0,5.372583 5.372583,0 12,0 Z M11.5150217,8.21160821 C11.3310813,8.06206408 11.0609714,8.06062852 10.8746043,8.2203717 L10.8746043,8.2203717 L10.8116082,8.28497831 C10.6620641,8.46891873 10.6606285,8.73902865 10.8203717,8.92539569 L10.8203717,8.92539569 L13.541,12.0999909 L10.8203717,15.2746043 L10.7679977,15.3480855 C10.648345,15.5527334 10.6882373,15.8198851 10.8746043,15.9796283 C11.0842672,16.1593394 11.3999172,16.1350586 11.5796283,15.9253957 L11.5796283,15.9253957 L14.5796283,12.4253957 L14.6322909,12.3513522 C14.7376162,12.1704669 14.7200619,11.9384436 14.5796283,11.7746043 L14.5796283,11.7746043 L11.5796283,8.27460431 Z" id="Combined-Shape" fill="#FFFFFF"></path>
                    <g id="chevron-right" transform="translate(10.200000, 7.600000)"></g>
                </g>
            </g>
        </g>
    </g>
</svg>