<?xml version="1.0" encoding="UTF-8"?>
<svg width="40px" height="40px" viewBox="0 0 40 40" version="1.1" xmlns="http://www.w3.org/2000/svg" xmlns:xlink="http://www.w3.org/1999/xlink">
    <title>Group 2</title>
    <g id="Symbols" stroke="none" stroke-width="1" fill="none" fill-rule="evenodd">
        <g id="課程/Tab2/Pessed" transform="translate(-14.000000, -6.000000)">
            <g id="Group-2" transform="translate(14.000000, 6.000000)">
                <g id="Group-4-Copy" transform="translate(0.000000, 7.000000)">
                    <rect id="Rectangle" x="0" y="0" width="40" height="28"></rect>
                    <path d="M25.0050463,20.5359673 C27.3414137,20.9172757 29.6746209,21.3189349 32.004668,21.7409449 C33.5278362,22.0172864 35.0510045,22.235789 36.6026136,22.0622722 C37.5374847,21.9942189 38.4435272,21.7036334 39.2476174,21.213968 C40.2304085,20.5713133 40.2525292,19.8933126 39.3013391,19.2185251 C38.1899264,18.4072848 36.9984652,17.7159168 35.7462265,17.1556035 C34.8297975,16.7571575 33.9260088,16.3362187 32.9684985,15.9024268 C33.4298731,15.4525685 33.8533265,15.118388 34.5169476,15.1473075 C35.2121161,15.1670968 35.907689,15.1273259 36.5962934,15.0284163 C37.4879596,14.9551304 38.3463225,14.6509204 39.0896124,14.1447661 C39.6995117,13.6916945 39.6615905,13.110092 39.0106099,12.7244992 C38.838587,12.629583 38.6613275,12.5448262 38.479713,12.4706506 L36.899663,11.7958631 C36.899663,10.6647908 36.0337956,10.2695582 35.2279701,9.86789896 C35.2753716,9.59155743 35.3290933,9.35698846 35.3575342,9.11920621 C35.4807781,8.04597284 35.6008619,6.96952618 35.7114654,5.90593263 C35.7904679,5.16045315 35.8663103,4.41176041 35.9073916,3.65664112 C35.9547931,2.7826307 35.5471402,2.29742639 34.750795,2.3327724 C33.3034691,2.3938246 31.9699069,2.77620415 30.8923128,3.84622426 C30.3187642,4.42077416 29.8359005,5.08192887 29.4607874,5.80632115 L28.5285579,7.59611453 C27.078072,7.42902431 26.3164879,7.89816225 26.9105867,9.84540605 C26.7431014,9.8871786 26.5787762,9.93859098 26.4112909,9.96429717 C24.9576448,10.1870841 23.4934651,10.4098711 22.0187518,10.6326581 C21.2395125,10.7841037 20.4413651,10.8068887 19.6549969,10.7001368 C17.368544,10.2853187 15.1343898,9.61392472 12.993506,8.69826737 C11.6968058,8.12537502 10.3164863,7.77258901 8.90749657,7.65395346 C8.28110122,7.59910352 7.65039877,7.62501523 7.03039712,7.73107202 C6.24037211,7.88852243 5.9370025,8.64364172 6.30357411,9.36984155 C6.43693392,9.64737583 6.61898918,9.89783043 6.84079112,10.1088945 C7.363261,10.5758902 7.90363811,11.0182509 8.46192246,11.4359765 C9.22666667,12.0015126 10.0135316,12.5381293 10.7909162,13.0843858 C10.7909162,13.1293717 10.7561551,13.1711442 10.7403546,13.21613 C10.5645638,13.191715 10.3911698,13.1519374 10.2220982,13.0972389 C9.15137343,12.6098775 7.9624697,12.456667 6.80603002,12.6570204 C4.82963544,12.9794374 3.08474942,14.1497847 2.01531831,15.870294 C0.915603483,17.6311679 0.849241382,19.5077197 1.25057409,21.483883 C1.6835078,23.6174966 2.77374233,25.2112803 4.70456347,26.1784757 C7.39064853,27.5248373 9.90608819,27.1874436 12.2888036,25.3783706 C12.4622266,25.2509074 12.6556179,25.1542144 12.8607818,25.0923892 C13.8088118,24.7903415 14.7758024,24.5236398 15.7238324,24.208739 C18.6468136,23.2067872 21.5076873,22.0264429 24.2908637,20.674138 C24.5119578,20.5623537 24.7590287,20.5145537 25.0050463,20.5359673 Z M5.58623139,20.2403461 C5.63679299,20.0218435 5.68419449,19.8001276 5.74107629,19.5976914 C5.68419449,19.816194 5.63679299,20.0346966 5.58623139,20.2403461 Z" id="Shape" fill="#FFF3D9"></path>
                    <path d="M26.9074266,9.51443887 C26.3228081,7.55755525 27.0749119,7.08841731 28.5253978,7.26514735 L29.4576273,5.47535397 C29.8338015,4.75164134 30.3165507,4.09064345 30.8891527,3.51525708 C31.9667468,2.44523697 33.300309,2.06285742 34.7476349,2.00180522 C35.5439801,1.96645921 35.951633,2.45166352 35.9042315,3.32567394 C35.8631502,4.07436668 35.7873078,4.82305943 35.7083053,5.57496545 C35.5977018,6.6514121 35.477618,7.72785875 35.3543741,8.78823903 C35.3259332,9.02602128 35.2722115,9.26059025 35.22481,9.53371851 C36.0306355,9.93859098 36.8901827,10.3338236 36.8965029,11.4616827 L38.4765529,12.1364701 C38.6581674,12.2106458 38.8354269,12.2954025 39.0074498,12.3903187 C39.6584304,12.7759116 39.6963516,13.3543008 39.0864523,13.8105857 C38.3431624,14.3167399 37.4847995,14.6209499 36.5931333,14.6942359 C35.9045289,14.7931455 35.208956,14.8329164 34.5137875,14.813127 C33.8501664,14.7842075 33.426713,15.118388 32.9653384,15.5682463 C33.9133684,16.0020382 34.8266374,16.4229771 35.7430664,16.821423 C36.995574,17.3837732 38.187045,18.0773007 39.298179,18.8907712 C40.246209,19.5655586 40.2272484,20.2403461 39.2444573,20.8862141 C38.4403671,21.3758795 37.5343246,21.666465 36.5994535,21.7345183 C35.0478444,21.9144616 33.5246761,21.695959 32.0015079,21.413191 C29.6714608,20.9847545 27.3382536,20.5830953 25.0018862,20.2082134 C24.7485261,20.1906859 24.4954574,20.2463844 24.2719031,20.368877 C21.4866696,21.721421 18.6236787,22.9017681 15.6985516,23.903478 C14.7505216,24.2248054 13.7866911,24.4850805 12.835501,24.7871282 C12.6303371,24.8489534 12.4369458,24.9456464 12.2635228,25.0731096 C9.89660789,26.8821826 7.38116823,27.2195763 4.67928267,25.8732147 C2.74846153,24.9092326 1.658227,23.3025958 1.22529329,21.178622 C0.823960581,19.2024587 0.890322683,17.3226937 1.99003751,15.565033 C3.05946862,13.8445237 4.80435464,12.6741764 6.78074922,12.3517594 C7.9415935,12.1497999 9.1352932,12.30418 10.2094578,12.7951912 C10.3785294,12.8498897 10.5519234,12.8896673 10.7277142,12.9140823 C10.7435147,12.8690965 10.7624753,12.8273239 10.7782758,12.7823381 C10.0008912,12.2360816 9.21402627,11.6994649 8.44928206,11.1339288 C7.89099771,10.7162032 7.3506206,10.2738425 6.82815072,9.80684676 C6.60634878,9.59578271 6.42429352,9.34532811 6.29093371,9.06779384 C5.9243621,8.34159401 6.2277317,7.58647471 7.01775672,7.42902431 C7.63775837,7.32296751 8.26846082,7.2970558 8.89485617,7.35190574 C10.3038459,7.4705413 11.6841654,7.8233273 12.9808656,8.39621966 C15.1217494,9.311877 17.3559036,9.983271 19.6423565,10.3980891 C20.4287247,10.5048409 21.2268721,10.482056 22.0061114,10.3306104 C23.4660776,10.1163921 24.9249905,9.89039188 26.38285,9.65260963 C26.5756161,9.6076238 26.7399413,9.55621142 26.9074266,9.51443887 Z M5.58623139,19.9125922 L5.58623139,19.9318718 C5.63995309,19.710156 5.68419449,19.4820135 5.74423639,19.2602977 C5.78531769,19.1092738 5.8421995,18.9646765 5.9054015,18.7783066 L5.22281988,18.7783066 C5.19121888,18.59515 5.15961788,18.4312731 5.14697748,18.3702209 C4.90364977,18.2481165 4.65084177,18.1999174 4.57499937,18.0488935 C4.49915697,17.8978697 4.64768167,17.6890069 4.73616447,17.5251299 C4.83179421,17.3816115 4.93740052,17.2452347 5.05217448,17.1170442 C5.17225828,16.9531672 5.28602188,16.7957168 5.45666729,16.5290151 C4.69824327,16.7057452 4.19262726,17.2841344 3.35204064,17.3419733 C3.66805065,16.7667974 3.90505815,16.3201523 4.14522576,15.870294 C3.939076,15.9979921 3.75270646,16.1560938 3.59220824,16.339432 C3.47588033,16.4084015 3.34862857,16.4562442 3.21615634,16.480816 C3.18507416,16.3450355 3.17231661,16.2055841 3.17823513,16.0663037 C3.21035222,15.9600943 3.27585,15.8675317 3.36468104,15.8028153 C4.02514195,15.2661986 4.68560287,14.7327952 5.36186429,14.2218847 C5.45034709,14.1576192 5.62731269,14.2218847 5.77267729,14.2218847 C5.8485197,14.9384447 5.34922388,15.3658101 5.00477298,16.0116781 C5.53566979,15.7546162 5.9022414,15.5618198 6.26881301,15.3979428 C6.48053971,15.3079711 6.73650782,15.1505207 6.90083302,15.4204357 C7.06515822,15.6903507 6.85659162,15.8735073 6.71754722,16.0630904 C6.57850281,16.2526736 6.47421951,16.3651382 6.30989431,16.5675744 C6.58166291,16.6639726 6.79970982,16.8085699 6.66066541,17.0977645 C6.55154481,17.2931313 6.42682831,17.4790551 6.28777361,17.6536609 L6.67646592,18.1292254 C6.74162815,18.1355158 6.80722988,18.1355158 6.87239212,18.1292254 C7.17409281,18.0735784 7.48480152,18.1516536 7.72628216,18.3437917 C7.96776279,18.5359298 8.11700587,18.823823 8.13643215,19.13498 C8.17751345,19.5334259 8.19963415,19.9318718 8.23123515,20.3624505 C8.43170407,20.2097765 8.64294753,20.0723059 8.86325517,19.9511515 C8.98017887,19.8965258 9.17926517,19.8804595 9.26458787,19.9511515 C9.34078812,20.0765399 9.35594199,20.2306285 9.30566918,20.368877 C9.22387765,20.5584656 9.12552014,20.7402088 9.01177987,20.9119203 C9.22982677,20.9729725 9.50475548,20.9665459 9.57743778,21.0854371 C9.64248922,21.2835695 9.64248922,21.4978266 9.57743778,21.695959 C9.52388671,21.879183 9.4507688,22.0558947 9.35939088,22.2229359 C9.42717743,22.2249512 9.49498098,22.219565 9.56163728,22.2068695 C9.74808319,22.1104713 9.96613009,22.036566 10.0767336,22.2550686 C10.1079696,22.4184686 10.0787071,22.5878423 9.99457099,22.7306331 C9.86325071,22.9842403 9.71764396,23.2299288 9.55847718,23.4664728 C9.44155348,23.6528427 9.31198938,23.832786 9.18558537,24.0159426 C9.31173717,24.0538853 9.44695028,24.0459314 9.56795748,23.9934497 C9.86526305,23.8600794 10.1690219,23.7421082 10.4780663,23.6399896 C10.61757,23.619355 10.7588679,23.6629287 10.8635985,23.7588807 C10.9236404,23.8199329 10.9046798,24.0191558 10.8635985,24.1187673 C10.7682606,24.2659381 10.6569586,24.4017479 10.531788,24.5236398 L10.0988543,25.0281237 C10.9039015,24.9565183 11.6358514,24.5243258 12.0960375,23.8488523 C12.5880614,23.1224711 13.0243897,22.3586709 13.4011589,21.5642148 C13.8084479,20.721733 13.9295828,19.7657282 13.7456098,18.8457854 C13.3600776,16.8278496 12.3772864,15.18908 10.6107905,14.1029935 C10.4917423,14.0145067 10.3474106,13.9682208 10.1999775,13.9712493 C9.67540088,14.0901405 9.16346467,14.2475909 8.56936586,14.4114678 C8.98333897,14.707089 9.33411008,14.919165 9.64695998,15.1794402 C10.9868424,16.2976594 11.6599437,17.7982582 12.0075547,19.4884401 C12.1753535,20.4060693 12.0742556,21.3536081 11.7168255,22.2132961 C11.6206794,22.4039037 11.4725699,22.5623143 11.290212,22.6695809 C11.1598906,22.7307939 11.0097205,22.7307939 10.879399,22.6695809 C10.8098768,22.6374482 10.7909162,22.435012 10.8035566,22.3161208 C10.838201,22.0991889 10.8856888,21.8845805 10.9457611,21.6734661 C11.448217,19.5944781 11.0437242,17.7564856 9.61535898,16.1466356 C8.92364613,15.3064403 7.91445677,14.8032782 6.83763102,14.7617146 C6.61958411,14.7617146 6.36677611,14.7938474 6.32885491,14.4917997 C6.29093371,14.1897519 6.51530081,14.1126334 6.71438712,14.025875 C6.8392534,13.9912448 6.96583438,13.9633574 7.09359912,13.9423299 C7.67351578,13.8049103 8.23260519,13.5887518 8.75581176,13.2996752 C8.15855285,13.0104805 7.61185554,13.1325849 7.05567792,13.1968504 C6.12023195,13.2607147 5.22223997,13.5951844 4.46755596,14.1608325 C2.43561162,15.7674693 1.6234659,17.8721635 1.96159661,20.4588487 C2.09121864,21.5131735 2.49846226,22.512333 3.14031393,23.3507949 C4.20842776,24.7389291 5.50722889,25.7221908 7.33060663,25.8346554 C8.00778371,25.9084142 8.66376668,25.5679688 9.00229957,24.9670715 L8.49036336,25.1052423 C8.34484459,25.1502672 8.19718581,25.187803 8.04794935,25.2177069 C7.79830144,25.2594794 7.50441213,25.4008635 7.33376673,25.1084556 C7.16312133,24.8160477 7.43805003,24.6328911 7.60869544,24.443308 C7.73193934,24.3051372 7.86466354,24.1766062 8.02582865,24.0127293 C7.26108443,23.9291842 7.19788243,23.7845869 7.59605504,23.2190507 C7.74773984,23.0005481 7.89310444,22.7788322 8.03846905,22.5571164 C7.82838547,22.5711458 7.62466572,22.6361549 7.44437023,22.7466995 C7.21684303,22.8591641 6.97667542,22.9234295 6.81235022,22.6503013 C6.64802501,22.377173 6.81235022,22.2197226 6.96403502,22.0622722 C7.11571983,21.9048218 7.31796623,21.7698643 7.54549344,21.5867077 C7.40328893,21.5867077 7.34008693,21.5867077 7.27688493,21.5610015 C6.80286992,21.5031626 6.78706942,21.4710299 6.85659162,20.9922521 C6.870661,20.8555257 6.870661,20.7176796 6.85659162,20.5809531 L5.58623139,19.9125922 Z M18.5173609,17.5540494 L19.089339,17.7596989 C21.1276035,18.5437376 23.2669913,18.935757 25.3937386,19.3663357 C26.5629757,19.5976914 27.7480132,19.7583551 28.9267305,19.9511515 C30.8227906,20.2564125 32.7346511,20.5938062 34.6496718,20.8572946 C35.732272,20.9837886 36.8289534,20.8742469 37.8666536,20.5359673 C38.3248188,20.4520664 38.7353202,20.1963462 39.0169301,19.8194073 C37.9615203,19.0267489 36.8309176,18.3432161 35.6419432,17.7789785 C34.3526224,17.197376 33.0538212,16.6350531 31.8024216,15.9795453 C30.1255713,15.0939869 28.3492592,14.4185496 26.5124141,13.9680361 C26.3061363,13.9119543 26.0900231,13.9042631 25.8803941,13.9455431 C23.9558931,14.4211076 22.088274,15.0284163 20.3660194,16.0727303 C19.6835547,16.4758638 19.0601871,16.9745122 18.5142008,17.5540494 L18.5173609,17.5540494 Z M32.3807199,14.6813828 C31.9288256,14.5689182 31.499052,14.4436005 31.0629582,14.3600554 C30.6300581,14.2967979 30.2573136,14.0167602 30.0706868,13.614576 C29.8716004,13.2097035 29.8652802,13.0426133 30.2444923,12.7919779 C30.6587791,12.5088506 31.0881556,12.2492497 31.530653,12.0143657 C32.8357743,11.3524314 34.1819769,10.8286678 35.7272659,10.960412 C35.4277579,10.5912836 34.9900298,10.3664065 34.5201077,10.3402502 C33.5947048,10.2183591 32.6628519,10.1539741 31.7297393,10.1474538 C29.0787644,10.1857047 26.4358043,10.4533729 23.8294891,10.9475589 L23.1785085,11.0696633 C23.5514003,12.0336454 23.1532277,12.6763001 22.4769663,13.1936371 C21.9555879,13.5879955 21.3966105,13.9281642 20.8084334,14.2090316 C19.5472062,14.8041303 18.2243435,15.2535821 16.8646285,15.5489667 C15.6922314,15.799602 14.5387949,15.834948 13.4232796,15.2919048 C13.4074791,15.2919048 13.3695579,15.3304641 13.3537574,15.3433172 C14.0300188,16.6286266 14.6430782,17.949282 14.7252408,19.4466675 C14.8074034,20.944053 14.1564228,22.2518554 13.4264397,23.6624825 C16.7089193,22.6897602 19.9012461,21.4263948 22.9667818,19.886886 C22.6797787,19.7765922 22.3863917,19.684305 22.088274,19.6105445 C20.5777461,19.1317667 19.0703784,18.6465624 17.5661708,18.1581448 C17.1806386,18.0296139 17.1237568,17.7982582 17.3228431,17.4512246 C17.3896758,17.3328208 17.4726624,17.2246376 17.5693309,17.1298973 C18.4017275,16.3201184 19.325667,15.6136161 20.321778,15.0252031 C22.033776,14.1091094 23.8601273,13.4335119 25.75083,13.0169071 C26.0659104,12.9605964 26.3892094,12.973746 26.69886,13.0554664 C28.3763445,13.4253452 29.9972666,14.0230191 31.5180126,14.8324067 C31.815062,15.0155632 32.131072,15.118388 32.3775598,14.6813828 L32.3807199,14.6813828 Z M34.343142,9.29272299 C34.7381546,8.49261786 35.1710883,3.58916237 34.8993197,2.9529342 C34.8395158,2.93505369 34.7781234,2.92321438 34.7160339,2.91758819 C32.9558071,2.89431204 31.3312213,3.87603275 30.5099407,5.4592876 C29.8779206,6.60963954 29.3185829,7.80819059 28.7308043,8.99388854 C28.693772,9.09740449 28.6703945,9.20545422 28.6612821,9.3152159 L34.343142,9.29272299 Z M7.07779862,8.32874091 C7.17892183,9.02923455 7.62449594,9.35698846 8.02582865,9.64939636 C9.28986868,10.5555395 10.5539087,11.407057 11.8432295,12.2810674 C12.0815098,12.4353452 12.3763031,12.4697043 12.6427349,12.3742524 C14.0932208,12.0047259 15.5468668,11.6641189 17.003673,11.3138721 C17.319683,11.2367535 17.635693,11.1692748 17.9359025,11.0985827 C15.7933546,10.4816342 13.7582502,9.67188927 11.7168255,8.87499742 C10.4742456,8.39879221 9.15050042,8.1802826 7.82358224,8.2323427 C7.60237524,8.23876925 7.37168793,8.28696835 7.08095872,8.32552764 L7.07779862,8.32874091 Z M38.4702327,13.110092 C37.3483972,12.6666603 36.3466455,12.2617878 35.3354135,11.8794082 C35.1685227,11.8358805 34.9935281,11.8358805 34.8266374,11.8794082 C33.6465042,12.0467944 32.5133993,12.4614885 31.499052,13.0972389 C31.3816632,13.1844154 31.2688013,13.2777258 31.1609213,13.3767937 C33.426713,14.1351263 36.678456,14.1544059 38.4733928,13.1068787 L38.4702327,13.110092 Z M16.0335222,12.5252762 C15.2403371,12.6602337 14.5198343,12.7405655 13.8846542,13.145438 C13.2494741,13.5503105 13.2842352,14.1094201 13.9225754,14.4853731 C14.4390116,14.7594928 15.0270699,14.8617743 15.6037486,14.777781 C15.7364728,14.0290883 15.869197,13.3414477 16.0145616,12.5220629 L16.0335222,12.5252762 Z M19.2505041,13.897344 L19.2505041,13.7398936 C18.48892,13.4988981 17.7589369,13.1518646 16.9373109,13.0458265 C16.7198904,13.5707149 16.6195228,14.1380607 16.6434215,14.707089 L19.2505041,13.897344 Z M19.4021889,12.8112576 C19.4401101,12.3967453 19.4653909,12.1043374 19.500152,11.7283844 L17.7557768,12.1107639 L17.7557768,12.2553612 L19.4021889,12.8112576 Z M21.7122221,12.6891532 L21.6901014,12.5284895 C21.2932907,12.3110103 20.8483523,12.2003929 20.3976204,12.2071621 C20.3660194,12.5895417 20.1890538,12.9494283 20.5524653,13.3382344 L21.7122221,12.6891532 Z M6.39205691,19.5334259 L6.44893871,19.7005161 L7.35904753,19.7712082 C7.55497374,19.0932074 7.54865354,19.0771411 7.02407692,18.723681 L6.39205691,19.5334259 Z M11.5366998,13.6402822 L12.6364147,14.5464253 C12.5732127,14.096567 12.5258111,13.7591733 12.4720894,13.3703672 L11.5366998,13.6402822 Z M21.4783747,11.4391897 L22.4264047,11.8087162 C22.1704366,11.1885544 22.1704366,11.1885544 21.4688944,11.4359765 L21.4783747,11.4391897 Z M28.0924641,8.22591616 C27.5394466,8.24840907 27.5078456,8.32552764 27.7985748,8.83322486 L28.0924641,8.22591616 Z" id="Shape" fill="#21505B" fill-rule="nonzero"></path>
                    <path d="M18.5142008,17.5540494 C19.0570695,16.9740926 19.6772173,16.4743855 20.3565391,16.069517 C22.0661533,15.0252031 23.9464128,14.4178944 25.8709138,13.9423299 C26.0805428,13.9010498 26.296656,13.9087411 26.5029338,13.9648228 C28.3473728,14.413601 30.1312093,15.0890748 31.815062,15.9763321 C33.079102,16.6189868 34.3652628,17.1941627 35.6545836,17.7757653 C36.843558,18.3400028 37.9741607,19.0235356 39.0295705,19.816194 C38.7479606,20.1931329 38.3374592,20.4488531 37.879294,20.532754 C36.8415938,20.8710336 35.7449124,20.9805754 34.6623122,20.8540814 C32.7472915,20.5938062 30.8449113,20.2531992 28.9393709,19.9479382 C27.7606536,19.7551418 26.5756161,19.5944781 25.406379,19.3631224 C23.2796317,18.9389703 21.1402439,18.5469509 19.1019794,17.7564856 L18.5142008,17.5540494 Z" id="Path" fill="#FFF3D9" fill-rule="nonzero"></path>
                    <path d="M32.3775598,14.6813828 C32.1152715,15.118388 31.8277024,15.0027102 31.5148525,14.8452597 C29.9941065,14.0358722 28.3731844,13.4381983 26.6956999,13.0683195 C26.3860493,12.9865991 26.0627503,12.9734495 25.7476699,13.0297602 C23.8569672,13.4463649 22.0306159,14.1219625 20.3186179,15.0380562 C19.3225069,15.6264692 18.3985674,16.3329715 17.5661708,17.1427504 C17.4695023,17.2374907 17.3865157,17.3456739 17.319683,17.4640777 C17.1205967,17.8111113 17.1774785,18.042467 17.5630107,18.1709979 C19.0672183,18.6690553 20.574586,19.13498 22.0851139,19.6233976 C22.3832316,19.6971581 22.6766186,19.7894453 22.9636217,19.8997391 C19.902152,21.4385512 16.714083,22.7019053 13.43592,23.6753356 C14.1659031,22.2647085 14.8137236,20.9729725 14.7347211,19.4595206 C14.6557186,17.9460688 14.0394991,16.6543328 13.3632377,15.3561702 C13.3632377,15.3561702 13.4169594,15.2983313 13.4327599,15.3047579 C14.5482752,15.8478011 15.7017117,15.8124551 16.8741088,15.5618198 C18.2338238,15.2664352 19.5566865,14.8169834 20.8179137,14.2218847 C21.4060908,13.9410173 21.9650682,13.6008486 22.4864466,13.2064902 C23.162708,12.7020063 23.5608806,12.0432852 23.1879888,11.0825164 L23.8389694,10.960412 C26.4452846,10.466226 29.0882447,10.1985578 31.7392196,10.1603069 C32.6723322,10.1668272 33.6041851,10.2312122 34.529588,10.3531033 C34.9995101,10.3792596 35.4372382,10.6041367 35.7367462,10.9732651 C34.1914572,10.8415209 32.8452546,11.3652845 31.5401333,12.0272188 C31.0966317,12.2609551 30.6661992,12.5194838 30.2508125,12.8016177 C29.8716004,13.0522531 29.8779206,13.2193433 30.077007,13.6242158 C30.2636338,14.0264 30.6363783,14.3064377 31.0692784,14.3696953 C31.499052,14.4436005 31.9256655,14.5849846 32.3775598,14.6813828 Z" id="Path" fill="#F9C270"></path>
                    <path d="M5.58623139,19.9125922 L6.88187242,20.6227257 C6.8959418,20.7594521 6.8959418,20.8972982 6.88187242,21.0340247 C6.81235022,21.5128024 6.82815072,21.5449352 7.30216573,21.6027741 C7.36536773,21.6027741 7.42856973,21.6027741 7.57077424,21.6284803 C7.34324703,21.8116369 7.15364103,21.9498077 6.98931582,22.1040448 C6.82499062,22.2582819 6.69858662,22.4607182 6.83763102,22.6920738 C6.97667542,22.9234295 7.23896373,22.9009366 7.46965103,22.7884721 C7.64994652,22.6779275 7.85366628,22.6129184 8.06374985,22.5988889 C7.91838524,22.8206048 7.77302064,23.0423207 7.62133584,23.2608233 C7.22316323,23.8263594 7.28636523,23.9709567 8.05110945,24.0545019 C7.88994434,24.2183788 7.75722014,24.3469097 7.63397624,24.4850805 C7.46333083,24.6746637 7.18524203,24.8481804 7.35904753,25.1502281 C7.53285303,25.4522759 7.82358224,25.301252 8.07323015,25.2594794 C8.22246661,25.2295756 8.37012539,25.1920397 8.51564416,25.1470149 L9.02758037,25.0088441 C8.68904748,25.6097413 8.03306451,25.9501868 7.35588743,25.876428 C5.53250969,25.7639634 4.23370856,24.7807017 3.16559473,23.3925675 C2.52374306,22.5541056 2.11649944,21.554946 1.98687741,20.5006213 C1.6424265,17.913936 2.46089242,15.8188816 4.49283677,14.202605 C5.24752077,13.6369569 6.14551275,13.3024873 7.08095872,13.238623 C7.63713634,13.1743575 8.18383365,13.0522531 8.78109256,13.3414477 C8.25788599,13.6305244 7.69879658,13.8466829 7.11887993,13.9841024 C6.99111518,14.00513 6.8645342,14.0330174 6.73966792,14.0676475 C6.54058161,14.1544059 6.31621451,14.2636572 6.35413571,14.5335722 C6.39205691,14.8034872 6.64486491,14.7938474 6.86291182,14.8034872 C7.93973757,14.8450508 8.94892693,15.3482129 9.64063978,16.1884081 C11.069005,17.7950449 11.4734978,19.6362507 10.9710419,21.7152387 C10.9109696,21.9263531 10.8634818,22.1409614 10.8288374,22.3578934 C10.8288374,22.4767845 10.8288374,22.6792208 10.9046798,22.7113535 C11.0350013,22.7725665 11.1851714,22.7725665 11.3154928,22.7113535 C11.4978507,22.6040869 11.6459602,22.4456762 11.7421063,22.2550686 C12.0995364,21.3953807 12.2006343,20.4478418 12.0328355,19.5302126 C11.6852245,17.8400307 11.0121232,16.339432 9.67224078,15.2212128 C9.35623078,14.9609376 9.00861977,14.7488615 8.59464666,14.4532404 C9.18874547,14.2893634 9.70068168,14.131913 10.2252583,14.0130219 C10.3726914,14.0099933 10.5170231,14.0562793 10.6360713,14.1447661 C12.4025672,15.2308526 13.3853584,16.8696221 13.7708906,18.8875579 C13.9548636,19.8075007 13.8337287,20.7635055 13.4264397,21.6059874 C13.0496705,22.4004434 12.6133422,23.1642436 12.1213183,23.8906249 C11.6611322,24.5660984 10.9291823,24.9982909 10.1241351,25.0698963 L10.5570688,24.5654124 C10.6822394,24.4435205 10.7935414,24.3077107 10.8888793,24.1605399 C10.942601,24.0609284 10.9615616,23.8617054 10.8888793,23.8006532 C10.7841487,23.7047013 10.6428508,23.6611276 10.5033471,23.6817621 C10.1943027,23.7838808 9.89054385,23.9018519 9.59323828,24.0352222 C9.47223108,24.087704 9.33701797,24.0956578 9.21086617,24.0577151 C9.33727018,23.8745585 9.46683428,23.6946152 9.58375798,23.5082453 C9.74292476,23.2717014 9.88853151,23.0260129 10.0198518,22.7724057 C10.1039879,22.6296148 10.1332504,22.4602412 10.1020144,22.2968412 C9.99141089,22.0783386 9.78600439,22.1522439 9.58691808,22.2486421 C9.52026179,22.2613375 9.45245823,22.2667238 9.38467168,22.2647085 C9.4760496,22.0976673 9.54916751,21.9209555 9.60271858,21.7377316 C9.66777002,21.5395991 9.66777002,21.3253421 9.60271858,21.1272096 C9.53003628,21.0083185 9.25510757,21.014745 9.03706067,20.9536928 C9.15080094,20.7819814 9.24915845,20.6002382 9.33094998,20.4106496 C9.38122279,20.272401 9.36606892,20.1183125 9.28986868,19.992924 C9.22034647,19.922232 9.00545967,19.9382984 8.88853597,19.992924 C8.66822833,20.1140784 8.45698488,20.2515491 8.25651595,20.4042231 C8.22491495,19.9736444 8.20279425,19.5751985 8.16171295,19.1767525 C8.14228667,18.8655955 7.9930436,18.5777024 7.75156296,18.3855643 C7.51008232,18.1934262 7.19937361,18.115351 6.89767292,18.1709979 C6.83251068,18.1772883 6.76690895,18.1772883 6.70174672,18.1709979 L6.31305441,17.6954334 C6.45210911,17.5208276 6.57682561,17.3349039 6.68594622,17.1395371 C6.82499062,16.8503425 6.60694371,16.7057452 6.33517511,16.6093469 C6.49950031,16.4069107 6.62590431,16.2623134 6.74282802,16.104863 C6.85975172,15.9474126 7.09991932,15.7192702 6.92611382,15.4622083 C6.75230832,15.2051464 6.49002001,15.3497437 6.29409381,15.4397154 C5.9180419,15.6035923 5.55147029,15.7963887 5.03005378,16.0534506 C5.37450469,15.4107959 5.8738005,14.9802172 5.7979581,14.2636572 C5.65259349,14.2636572 5.48194809,14.2090316 5.38714509,14.2636572 C4.71088367,14.7745677 4.05042275,15.3079711 3.38996184,15.8445878 C3.3011308,15.9093043 3.23563302,16.0018668 3.20351594,16.1080763 C3.19759741,16.2473567 3.21035496,16.386808 3.24143714,16.5225886 C3.37390937,16.4980168 3.50116113,16.450174 3.61748905,16.3812045 C3.77798726,16.1978664 3.9643568,16.0397647 4.17050656,15.9120666 C3.93033895,16.3619249 3.69017135,16.8085699 3.37732144,17.3837459 C4.22422826,17.325907 4.72352407,16.7410912 5.48194809,16.5707877 C5.31130268,16.821423 5.19753908,16.9949398 5.07745528,17.1588167 C4.96268133,17.2870073 4.85707501,17.4233841 4.76144527,17.5669025 C4.67296247,17.7307794 4.54023827,17.9749882 4.60028017,18.0906661 C4.66032207,18.2063439 4.91629017,18.2802492 5.17225828,18.4119934 C5.17225828,18.4730456 5.21649968,18.6369226 5.24810068,18.8200792 L5.9022414,18.8200792 C5.8390394,19.006449 5.78215759,19.1414065 5.74107629,19.3020702 C5.68103439,19.5237861 5.63679299,19.7519285 5.58307129,19.9736444 C5.51986929,19.7679949 5.45982739,19.5623454 5.39662539,19.3599091 C4.89416947,19.4434543 4.76460537,19.5494923 4.83412757,19.9672178 C4.90425444,20.3807247 5.00999821,20.7871619 5.15013758,21.1818353 C5.25848307,21.4945563 5.4004968,21.7941393 5.57359099,22.0751253 C5.63679299,22.1811633 5.8105985,22.2197226 5.9338424,22.2872014 C6.02273499,22.151276 6.08298814,21.9981086 6.110808,21.8373431 C6.07590756,21.6668514 6.01961873,21.501623 5.9433227,21.3457122 C5.8137586,20.8412283 5.69999499,20.368877 5.58623139,19.9125922 Z M6.64170481,24.2730045 C5.70923934,23.6864546 4.94604502,22.8594217 4.42963476,21.8759024 C3.98310595,20.8745782 3.79182873,19.7750141 3.87345715,18.6786951 C3.71768312,18.6633992 3.56273139,18.7151613 3.44622785,18.8214124 C3.32972431,18.9276636 3.26232561,19.0786848 3.26039774,19.2378047 C3.21201341,19.5200877 3.20456071,19.8080556 3.23827704,20.0925355 C3.41299157,21.3216971 3.91576163,22.4786327 4.69192307,23.4375533 C5.0463106,23.8236171 5.43803261,24.1724104 5.8611601,24.478654 C6.110808,24.6939433 6.36677611,24.6843035 6.63854471,24.2730045 L6.64170481,24.2730045 Z M7.09043902,16.4165505 C7.90802484,16.3570883 8.68680107,16.7792579 9.09394247,17.502637 C9.4412483,18.0397682 9.66981875,18.6471207 9.76388369,19.2827906 C9.80180489,19.6041179 9.85552659,19.9254453 9.90924829,20.2756921 C10.1726021,20.2102562 10.3618662,19.9759139 10.373783,19.7005161 C10.4113365,19.3717963 10.3996161,19.0391851 10.3390219,18.7140411 C10.1544227,17.9148063 9.77517363,17.1755892 9.23614697,16.5643611 C8.97696378,16.2379674 8.63807908,15.9864522 8.25335585,15.834948 C7.56761414,15.5778861 7.48229143,15.6132321 7.08727892,16.4165505 L7.09043902,16.4165505 Z M13.0187868,19.404895 C12.9811296,18.090892 12.5166514,16.8265459 11.6978649,15.8092418 C11.5683008,15.6421516 11.4039756,15.3915163 11.1701282,15.565033 C10.9362808,15.7385498 11.1701282,15.9474126 11.2870519,16.1145028 C12.0139778,17.0288167 12.4376496,18.153623 12.4973702,19.3277764 C12.493244,19.4598271 12.5203364,19.5909571 12.5763728,19.710156 C12.647629,19.8069307 12.75088,19.8742602 12.867102,19.8997391 C12.898703,19.8997391 12.993506,19.7519285 13.025107,19.6587436 C13.0364122,19.5743309 13.0342782,19.4886179 13.0187868,19.404895 L13.0187868,19.404895 Z M2.90646653,20.4106496 C2.87170543,19.8708196 2.84326453,19.4466675 2.82114383,19.0417951 C2.82495389,18.8658348 2.81756489,18.6898083 2.79902313,18.5148182 C2.79902313,18.4280598 2.66313882,18.2802492 2.62205752,18.289889 C2.51777422,18.3155952 2.34396872,18.41842 2.34712882,18.4858987 C2.34712882,19.1285534 2.39769042,19.7487152 2.46405252,20.3785169 C2.46405252,20.4652753 2.66945902,20.5359673 2.78006253,20.6130858 C2.85906503,20.5006213 2.92226703,20.3977965 2.91910693,20.4010098 L2.90646653,20.4106496 Z M12.3709662,21.0886503 L12.6616955,21.3457122 C12.7375379,21.2557406 12.867102,21.1689822 12.8734222,21.0757972 C12.8797424,20.9826123 12.7438581,20.9022805 12.6711758,20.8123088 L12.3709662,21.0886503 Z" id="Shape" fill="#FFB842"></path>
                    <path d="M34.343142,9.29272299 L28.6549619,9.29272299 C28.6640743,9.1829613 28.6874518,9.07491158 28.7244841,8.97139563 C29.3122627,7.79212422 29.8652802,6.59357317 30.5036205,5.43679468 C31.3249011,3.85353983 32.9494869,2.87181912 34.7097137,2.89509527 C34.7718032,2.90072146 34.8331956,2.91256077 34.8929995,2.93044128 C35.1742484,3.58916237 34.7413147,8.47976477 34.343142,9.29272299 Z" id="Path" fill="#FFF3D9" fill-rule="nonzero"></path>
                    <path d="M7.08095872,8.32552764 C7.37168793,8.28696835 7.60237524,8.23876925 7.82990244,8.2323427 C9.15682062,8.1802826 10.4805658,8.39879221 11.7231457,8.87499742 C13.7645704,9.67188927 15.7996748,10.4816342 17.9422227,11.0985827 C17.6262127,11.1692748 17.3102027,11.2367535 17.0099932,11.3138721 C15.553187,11.6641189 14.099541,12.0047259 12.6490551,12.3742524 C12.3826233,12.4697043 12.08783,12.4353452 11.8495497,12.2810674 C10.5855097,11.407057 9.28354848,10.5555395 8.03214885,9.64939636 C7.62765604,9.35377519 7.18208193,9.02602128 7.08095872,8.32552764 Z" id="Path" fill="#FFF3D9" fill-rule="nonzero"></path>
                    <path d="M38.4733928,13.1068787 C36.678456,14.1544059 33.4172327,14.1351263 31.151441,13.3767937 C31.259321,13.2777258 31.3721829,13.1844154 31.4895717,13.0972389 C32.5069611,12.4564327 33.6445803,12.0383789 34.8297975,11.8697684 C34.9966882,11.8262407 35.1716828,11.8262407 35.3385736,11.8697684 C36.3498056,12.2585745 37.3515573,12.6570204 38.4733928,13.1068787 Z" id="Path" fill="#FFF3D9" fill-rule="nonzero"></path>
                    <path d="M16.0145616,12.5220629 C15.8597167,13.3414477 15.7269925,14.0290883 15.584788,14.7713545 C15.0081093,14.8553477 14.420051,14.7530662 13.9036148,14.4789466 C13.2715948,14.1094201 13.2526342,13.5149645 13.8656936,13.1390115 C14.478753,12.7630585 15.2308568,12.6570204 16.0145616,12.5220629 Z" id="Path" fill="#65A0A6"></path>
                    <path d="M19.2410238,13.8941308 L16.6244609,14.7038757 C16.6005622,14.1348474 16.7009298,13.5675017 16.9183503,13.0426133 C17.7399763,13.1486513 18.4699594,13.4956848 19.2315435,13.7366804 L19.2410238,13.8941308 Z" id="Path" fill="#65A0A6"></path>
                    <path d="M19.3927086,12.8080443 L17.7462965,12.252148 L17.7462965,12.1075507 L19.4906717,11.7251711 C19.4559106,12.1011241 19.4306298,12.393532 19.3927086,12.8080443 Z" id="Path" fill="#65A0A6"></path>
                    <path d="M21.7027418,12.6859399 L20.542985,13.3285946 C20.1795735,12.9397885 20.3565391,12.5799019 20.3881401,12.1975223 C20.838872,12.190753 21.2838104,12.3013705 21.6806211,12.5188497 L21.7027418,12.6859399 Z" id="Path" fill="#65A0A6"></path>
                    <path d="M6.38257661,19.5302126 L7.01459662,18.7204677 C7.53917324,19.0739278 7.54549344,19.0899942 7.34956723,19.7679949 L6.43945841,19.6973029 L6.38257661,19.5302126 Z" id="Path" fill="#65A0A6"></path>
                    <path d="M11.5272195,13.6370689 L12.4752495,13.3671539 C12.5289712,13.75596 12.5763728,14.0933537 12.6395748,14.543212 L11.5272195,13.6370689 Z" id="Path" fill="#65A0A6"></path>
                    <path d="M21.4688944,11.4359765 C22.1704366,11.1885544 22.1704366,11.1885544 22.4169244,11.8055029 L21.4688944,11.4359765 Z" id="Path" fill="#65A0A6"></path>
                    <path d="M28.0829838,8.20984979 L27.7890945,8.8171585 C27.4983653,8.30946127 27.5299663,8.2323427 28.0829838,8.20984979 Z" id="Path" fill="#FFD966" fill-rule="nonzero"></path>
                    <path d="M6.63854471,24.2730045 C6.36677611,24.6843035 6.110808,24.6939433 5.8548399,24.478654 C5.43171241,24.1724104 5.0399904,23.8236171 4.68560287,23.4375533 C3.90944143,22.4786327 3.40667137,21.3216971 3.23195684,20.0925355 C3.19824051,19.8080556 3.20569321,19.5200877 3.25407754,19.2378047 C3.25600541,19.0786848 3.32340411,18.9276636 3.43990765,18.8214124 C3.55641119,18.7151613 3.71136292,18.6633992 3.86713695,18.6786951 C3.78550853,19.7750141 3.97678575,20.8745782 4.42331456,21.8759024 C4.94059762,22.8598236 5.7049181,23.6868953 6.63854471,24.2730045 L6.63854471,24.2730045 Z" id="Path" fill="#21505B" fill-rule="nonzero"></path>
                    <path d="M7.08727892,16.4165505 C7.47597123,15.6132321 7.56761414,15.5778861 8.25019575,15.834948 C8.63491898,15.9864522 8.97380368,16.2379674 9.23298687,16.5643611 C9.77201353,17.1755892 10.1512626,17.9148063 10.3358618,18.7140411 C10.396456,19.0391851 10.4081764,19.3717963 10.3706229,19.7005161 C10.3587061,19.9759139 10.169442,20.2102562 9.90608819,20.2756921 C9.85236649,19.9158055 9.79864479,19.6009047 9.76072359,19.2827906 C9.66665865,18.6471207 9.4380882,18.0397682 9.09078237,17.502637 C8.68364097,16.7792579 7.90486474,16.3570883 7.08727892,16.4165505 Z" id="Path" fill="#21505B" fill-rule="nonzero"></path>
                    <path d="M13.0187868,19.404895 C13.0328722,19.4910622 13.0328722,19.5790028 13.0187868,19.6651701 C12.9871858,19.7583551 12.8923828,19.9158055 12.8607818,19.9061656 C12.7445598,19.8806868 12.6413088,19.8133573 12.5700526,19.7165825 C12.5140162,19.5973837 12.4869238,19.4662537 12.49105,19.3342029 C12.4313294,18.1600496 12.0076576,17.0352433 11.2807317,16.1209294 C11.1543277,15.9538391 10.9015197,15.7706825 11.163808,15.5714596 C11.4260963,15.3722366 11.5619806,15.6485781 11.6915447,15.8156684 C12.5113035,16.8304016 12.9779538,18.0923519 13.0187868,19.404895 L13.0187868,19.404895 Z" id="Path" fill="#21505B" fill-rule="nonzero"></path>
                    <path d="M5.58623139,19.9125922 C5.70315509,20.3753036 5.8169187,20.8412283 5.9401626,21.3039397 C6.01645863,21.4598504 6.07274746,21.6250788 6.1076479,21.7955705 C6.07982804,21.956336 6.01957489,22.1095035 5.9306823,22.2454288 C5.8074384,22.1779501 5.63363289,22.1393908 5.57043089,22.0333528 C5.3973367,21.7523667 5.25532297,21.4527837 5.14697748,21.1400627 C5.00683811,20.7453893 4.90109434,20.3389521 4.83096747,19.9254453 C4.76776547,19.5077197 4.89100937,19.4016817 5.39346529,19.3181366 C5.45666729,19.5205728 5.51670919,19.7262223 5.57991119,19.9318718 L5.58623139,19.9125922 Z" id="Path" fill="#21505B" fill-rule="nonzero"></path>
                    <path d="M2.91910693,20.4010098 C2.91910693,20.4010098 2.85906503,20.5006213 2.79270293,20.603446 C2.68209942,20.5263275 2.47669292,20.4556354 2.47669292,20.368877 C2.41033082,19.7262223 2.37556972,19.1060605 2.35976922,18.4762589 C2.35976922,18.4087802 2.53041462,18.3059554 2.63469792,18.2802492 C2.67577922,18.2802492 2.79586303,18.41842 2.81166353,18.5051784 C2.83020529,18.6801685 2.83759429,18.856195 2.83378423,19.0321552 C2.85590493,19.4466675 2.88434583,19.8611798 2.91910693,20.4010098 Z" id="Path" fill="#21505B" fill-rule="nonzero"></path>
                    <path d="M12.3836066,21.0790105 L12.6996167,20.802669 C12.772299,20.8926406 12.9081833,20.9826123 12.9018631,21.0661574 C12.8955429,21.1497025 12.7659788,21.2461007 12.6901364,21.3360724 L12.3836066,21.0790105 Z" id="Path" fill="#21505B" fill-rule="nonzero"></path>
                </g>
                <rect id="Rectangle" fill="#D8D8D8" opacity="0" x="0" y="0" width="40" height="40"></rect>
            </g>
        </g>
    </g>
</svg>