<?xml version="1.0" encoding="UTF-8"?>
<svg width="40px" height="40px" viewBox="0 0 40 40" version="1.1" xmlns="http://www.w3.org/2000/svg" xmlns:xlink="http://www.w3.org/1999/xlink">
    <title>Group 28</title>
    <g id="Web" stroke="none" stroke-width="1" fill="none" fill-rule="evenodd">
        <g id="赫綵官網/首頁02_Normal-" transform="translate(-1395.000000, -204.000000)">
            <g id="Mark/Normal" transform="translate(1390.000000, 162.000000)">
                <g id="Group-28" transform="translate(5.000000, 42.000000)">
                    <g id="線" transform="translate(20.500000, 20.000000) rotate(160.000000) translate(-20.500000, -20.000000) translate(5.000000, 12.000000)" fill-rule="nonzero">
                        <path d="M19.3408264,3.01260945 C20.8554872,2.91839395 22.3005487,6.5050519 21.7708914,6.71583478 C21.1770461,7.02497227 20.9791558,7.698456 21.3283023,8.22210699 C21.6908745,8.73071744 22.4399118,8.90432476 23.0402038,8.61888114 C24.0433159,8.22371052 24.9928858,7.73078426 25.8711043,7.14934727 C26.926408,6.54275034 27.8323227,5.75564687 28.5349901,4.83483144 C29.0176316,4.2221368 29.2176299,3.47096022 29.0944896,2.73339801 C28.8831863,2.18033531 28.4415746,1.71825629 27.8585802,1.44020821 C26.7228797,0.80096098 25.3032541,0.837699326 24.0088895,0.79361331 C22.4669935,0.729922844 20.9221549,0.747097818 19.3825801,0.845046996 C18.6981865,0.860495216 18.1475263,1.34501145 18.1299692,1.94719739 C18.1389643,2.5525896 18.6945425,3.04143316 19.3825801,3.04934779 L19.3408264,3.01260945 Z" id="Path-Copy" fill="#FFFFFF"></path>
                        <path d="M2.24844093,7.24924906 L3.15471752,14.4266624 L14.9326632,12.1491554 L23.6555669,9.10262272 C23.6555669,9.10262272 26.4164859,2.2857076 20.0223574,2.42888668 C13.9243276,3.86067749 2.24844093,7.24924906 2.24844093,7.24924906 Z" id="Path" fill="#348D6C"></path>
                        <path d="M0.739086478,7.22548357 C0.770165396,8.73137292 0.873764587,10.2343916 1.04944812,11.728215 C1.27319721,13.2450081 1.77121938,15.0079823 3.07762535,15.8021148 C3.41241049,16.0351354 3.83613533,16.04837 4.18239608,15.8366212 C4.52865684,15.6248725 4.7421576,15.2219554 4.73908648,14.7861023 C4.73594855,14.3502492 4.51673451,13.9510633 4.16749995,13.7453116 L4.00871027,13.6420743 C3.82826746,13.5467784 4.16028224,13.8167835 4.00871027,13.6420743 C3.85713831,13.4673652 3.91488001,13.5388371 3.87157373,13.4911892 C3.82826746,13.4435412 3.79217889,13.4911892 3.87157373,13.4911892 C3.78496118,13.4435412 3.69834863,13.2132428 3.64782464,13.1179469 C3.59730066,13.022651 3.43851098,12.5858781 3.54677667,12.9035311 C3.32882367,12.2421746 3.17165469,11.5584519 3.07762535,10.8626105 C3.07762535,10.6084881 3.07762535,11.092909 3.07762535,10.8149626 C3.07762535,10.7196667 3.07762535,10.6323121 3.07762535,10.5370162 C3.07762535,10.4417203 3.04153679,10.1717152 3.02710136,9.98906475 C3.02710136,9.63964644 2.98379509,9.2822868 2.96935966,8.92492717 C2.96935966,8.34521043 2.9332711,7.75755236 2.90440025,7.17783562 C2.89288055,6.52527679 2.41484111,5.99931145 1.82174336,5.98663684 C1.22544646,5.99096753 0.74302256,6.52175691 0.739086478,7.17783562 L0.739086478,7.22548357 Z" id="Path" fill="#783718"></path>
                        <path d="M2.10691536,7.05292386 C5.94313795,5.84855336 9.82072144,4.76758148 13.7396658,3.81000822 C15.6707024,3.35096536 17.6172493,2.90673034 19.556041,2.51432274 C20.1919647,2.38105223 21.0062573,2.12191514 21.4095259,2.75124808 C21.7595585,3.51132521 21.9870362,4.31761742 22.0842255,5.14271328 C22.1848424,5.51066202 22.2625302,5.88398028 22.3168805,6.26070474 C22.3556563,6.66792018 22.4099425,6.51243792 22.0454496,6.68272801 C21.6582095,6.83219581 21.2587692,6.95105775 20.8511539,7.03811603 L17.8111285,7.8969704 L10.1955545,10.0218946 C7.93104575,10.6512275 5.65878183,11.2657526 3.40978341,11.946913 C1.99058785,12.3763402 2.59549088,14.5234761 4.03019677,14.086645 C9.1408518,12.5392264 14.3290585,11.1991174 19.4707342,9.74794965 C20.5176817,9.45179297 21.5646293,9.16304021 22.572801,8.84467178 C23.2254647,8.7176284 23.8165645,8.38995438 24.2556722,7.91177823 C24.8760856,7.08994345 24.6279202,6.10522249 24.4340411,5.18713678 C24.1083241,3.63971812 23.8834242,1.42594694 22.3013702,0.537476902 C20.7193161,-0.350993138 18.2609282,0.4930534 16.5315259,0.878057084 C11.4441364,1.99604855 6.41103303,3.35096536 1.44772616,4.90578793 C0.0285306077,5.35002295 0.672209466,7.49715888 2.06813952,7.05292386 L2.10691536,7.05292386 Z" id="Path" fill="#783718"></path>
                        <path d="M20.4515291,2.6668613 C21.9661899,2.56086886 23.4857705,2.54154907 25.0026819,2.6089984 C25.5899255,2.6089984 26.148551,4.07762344 26.0434405,4.73246386 C26.0239931,4.85362185 25.9818246,4.9469223 25.9129124,4.99790939 L25.6623903,5.17976421 L25.2448533,5.46907869 C24.9692789,5.6509335 24.6937045,5.83278832 24.4097794,6.006377 C23.9220942,6.31953838 23.4112514,6.59585906 22.8815941,6.8329898 C22.2877488,7.18076947 22.0898585,7.93843867 22.439005,8.52754604 C22.8015772,9.09973279 23.5506145,9.29504103 24.1509065,8.97391695 C25.1540186,8.52935001 26.1035885,7.97480797 26.981807,7.32069135 C28.0371107,6.63826981 28.9430253,5.7527784 29.6456928,4.71686104 C30.1283343,4.02757957 30.3283326,3.18250592 30.2051923,2.35274844 C29.993889,1.7305529 29.5522772,1.21071399 28.9692829,0.89790991 C27.8335824,0.178756775 26.4139568,0.220087415 25.1195922,0.170490647 C23.5776962,0.0988388724 22.0328575,0.118160719 20.4932828,0.228353543 C19.8088892,0.245732792 19.258229,0.790813559 19.2406719,1.46827274 C19.249667,2.14933897 19.8052452,2.69928798 20.4932828,2.70819194 L20.4515291,2.6668613 Z" id="Path" fill="#348D6C"></path>
                        <path d="M20.4515291,2.6668613 C21.9661899,2.56086886 23.4857705,2.54154907 25.0026819,2.6089984 C25.6985768,2.6089984 26.3916881,2.65032904 27.0820159,2.73299032 C27.2545978,2.73299032 27.2545978,2.73299032 27.0820159,2.73299032 L27.2824336,2.78258709 C27.4160455,2.83218386 27.4160455,2.83218386 27.2824336,2.78258709 C27.3492395,2.78258709 27.4160455,2.84871611 27.4828514,2.88178063 C27.5496573,2.91484514 27.9003883,3.16282898 27.6832691,2.98924029 C27.7389528,3.02669106 27.7894808,3.07114975 27.8335824,3.12149834 C27.9337913,3.22620263 27.9337913,3.20967037 27.8335824,3.07190157 C27.942142,3.27028864 27.9170898,3.14629672 27.750075,2.69992581 C27.750075,2.85698224 27.750075,2.89004675 27.750075,2.79085322 C27.7325348,2.92419985 27.6900567,3.05314606 27.6248139,3.17109511 C27.4961881,3.43542694 27.3303017,3.68034381 27.1321203,3.89851437 C26.7626003,4.30315441 26.3542841,4.67134488 25.9129124,4.99790939 L25.6623903,5.17976421 L25.2448533,5.46907869 C24.9692789,5.6509335 24.6937045,5.83278832 24.4097794,6.006377 C23.9220942,6.31953838 23.4112514,6.59585906 22.8815941,6.8329898 C22.2877488,7.18076947 22.0898585,7.93843867 22.439005,8.52754604 C22.8015772,9.09973279 23.5506145,9.29504103 24.1509065,8.97391695 C25.1540186,8.52935001 26.1035885,7.97480797 26.981807,7.32069135 C28.0371107,6.63826981 28.9430253,5.7527784 29.6456928,4.71686104 C30.1283343,4.02757957 30.3283326,3.18250592 30.2051923,2.35274844 C29.993889,1.7305529 29.5522772,1.21071399 28.9692829,0.89790991 C27.8335824,0.178756775 26.4139568,0.220087415 25.1195922,0.170490647 C23.5776962,0.0988388724 22.0328575,0.118160719 20.4932828,0.228353543 C19.8088892,0.245732792 19.258229,0.790813559 19.2406719,1.46827274 C19.249667,2.14933897 19.8052452,2.69928798 20.4932828,2.70819194 L20.4515291,2.6668613 Z" id="Path" fill="#783718"></path>
                    </g>
                    <rect id="Rectangle" fill="#D8D8D8" opacity="0" x="0" y="0" width="40" height="40"></rect>
                </g>
            </g>
        </g>
    </g>
</svg>