<?xml version="1.0" encoding="UTF-8"?>
<svg width="26px" height="18px" viewBox="0 0 26 18" version="1.1" xmlns="http://www.w3.org/2000/svg" xmlns:xlink="http://www.w3.org/1999/xlink">
    <title>Icon/Dot</title>
    <g id="Web" stroke="none" stroke-width="1" fill="none" fill-rule="evenodd">
        <g id="赫綵官網/首頁02_Hover" transform="translate(-707.000000, -2607.000000)" fill="#21505B">
            <g id="Path" transform="translate(707.000000, 2607.000000)">
                <path d="M5.23392826,11.7037363 C4.89173406,13.6352525 4.2429768,15.5025187 3.31117006,17.2378577 C3.19572169,17.4394899 3.23265918,17.6918167 3.40131024,17.8536216 C3.56996129,18.0154266 3.82848808,18.0465702 4.03220438,17.9296229 C9.34806528,14.8858561 11.6949613,10.458559 11.9777199,6.86138005 C12.2462516,3.66356446 10.0608265,0.762804541 6.85978996,0.0682460156 C4.73566473,-0.2524906 2.59982688,0.57231748 1.27194795,2.22613325 C-0.055930978,3.87994902 -0.369575482,6.10586527 0.451381945,8.04964102 C1.27233937,9.99341677 3.10036948,11.3531018 5.23392826,11.6068892 L5.23392826,11.7037363 Z"></path>
                <path d="M19.2650475,11.7131135 C18.9243663,13.645147 18.2784773,15.5129133 17.3507904,17.2487169 C17.2440448,17.4473348 17.2814343,17.6911665 17.4429939,17.8500125 C17.6045534,18.0088586 17.8525506,18.04562 18.0545614,17.9406674 C23.3609948,14.8960855 25.6834391,10.4676028 25.9790229,6.86946057 C26.2388869,3.66829855 24.0586092,0.768750747 20.8696454,0.0745074049 C18.7459757,-0.262362365 16.6034111,0.558769404 15.2718357,2.21985201 C13.9402602,3.88093461 13.628825,6.12106116 14.4581589,8.0725587 C15.2874927,10.0240562 17.1273319,11.3804023 19.2650475,11.6162405 L19.2650475,11.7131135 Z"></path>
            </g>
        </g>
    </g>
</svg>