<?xml version="1.0" encoding="UTF-8"?>
<svg width="75px" height="83px" viewBox="0 0 75 83" version="1.1" xmlns="http://www.w3.org/2000/svg" xmlns:xlink="http://www.w3.org/1999/xlink">
    <title>Group 2</title>
    <defs>
        <path d="M20,31 L52,31 L52,77 L36,69 L20,77 L20,31 Z" id="path-1"></path>
        <filter x="-21.9%" y="-10.9%" width="143.8%" height="130.4%" filterUnits="objectBoundingBox" id="filter-2">
            <feOffset dx="0" dy="2" in="SourceAlpha" result="shadowOffsetOuter1"></feOffset>
            <feGaussianBlur stdDeviation="2" in="shadowOffsetOuter1" result="shadowBlurOuter1"></feGaussianBlur>
            <feColorMatrix values="0 0 0 0 0   0 0 0 0 0   0 0 0 0 0  0 0 0 0.1 0" type="matrix" in="shadowBlurOuter1"></feColorMatrix>
        </filter>
        <filter x="-7.0%" y="-5.7%" width="112.3%" height="110.0%" filterUnits="objectBoundingBox" id="filter-3">
            <feGaussianBlur stdDeviation="1" in="SourceGraphic"></feGaussianBlur>
        </filter>
        <circle id="path-4" cx="36" cy="37" r="19"></circle>
        <filter x="-21.1%" y="-21.1%" width="142.1%" height="142.1%" filterUnits="objectBoundingBox" id="filter-5">
            <feGaussianBlur stdDeviation="3.5" in="SourceAlpha" result="shadowBlurInner1"></feGaussianBlur>
            <feOffset dx="-9" dy="0" in="shadowBlurInner1" result="shadowOffsetInner1"></feOffset>
            <feComposite in="shadowOffsetInner1" in2="SourceAlpha" operator="arithmetic" k2="-1" k3="1" result="shadowInnerInner1"></feComposite>
            <feColorMatrix values="0 0 0 0 1   0 0 0 0 0.849201714   0 0 0 0 0.393379621  0 0 0 1 0" type="matrix" in="shadowInnerInner1"></feColorMatrix>
        </filter>
        <filter x="-6.9%" y="-11.9%" width="113.9%" height="123.8%" filterUnits="objectBoundingBox" id="filter-6">
            <feOffset dx="1" dy="1" in="SourceAlpha" result="shadowOffsetOuter1"></feOffset>
            <feColorMatrix values="0 0 0 0 0.964705882   0 0 0 0 0.6   0 0 0 0 0.062745098  0 0 0 1 0" type="matrix" in="shadowOffsetOuter1" result="shadowMatrixOuter1"></feColorMatrix>
            <feMerge>
                <feMergeNode in="shadowMatrixOuter1"></feMergeNode>
                <feMergeNode in="SourceGraphic"></feMergeNode>
            </feMerge>
        </filter>
    </defs>
    <g id="Symbols" stroke="none" stroke-width="1" fill="none" fill-rule="evenodd">
        <g id="Group-2" transform="translate(-0.000000, 0.000000)">
            <g id="Group">
                <g id="Combined-Shape">
                    <use fill="black" fill-opacity="1" filter="url(#filter-2)" xlink:href="#path-1"></use>
                    <use fill="#21505B" fill-rule="evenodd" xlink:href="#path-1"></use>
                </g>
                <path d="M45,36 L45,73.5 L36,69 L27,73.5 L27,36 L45,36 Z" id="Combined-Shape" fill="#65A0A6"></path>
                <path d="M35.7934663,63.949266 L31.1782526,65.9765868 C29.8916463,66.5417533 28.3851383,66.1380857 27.5534877,65.005334 L24.5702558,60.9420158 C24.0732462,60.2650626 23.3152416,59.8274285 22.4804781,59.7354821 L17.4699254,59.1835866 C16.0731085,59.0297319 14.9702681,57.9268915 14.8164134,56.5300746 L14.2645179,51.5195219 C14.1725715,50.6847584 13.7349374,49.9267538 13.0579842,49.4297442 L8.99466598,46.4465123 C7.86191434,45.6148617 7.45824674,44.1083537 8.02341316,42.8217474 L10.050734,38.2065337 C10.3884878,37.4376341 10.3884878,36.5623659 10.050734,35.7934663 L8.02341316,31.1782526 C7.45824674,29.8916463 7.86191434,28.3851383 8.99466598,27.5534877 L13.0579842,24.5702558 C13.7349374,24.0732462 14.1725715,23.3152416 14.2645179,22.4804781 L14.8164134,17.4699254 C14.9702681,16.0731085 16.0731085,14.9702681 17.4699254,14.8164134 L22.4804781,14.2645179 C23.3152416,14.1725715 24.0732462,13.7349374 24.5702558,13.0579842 L27.5534877,8.99466598 C28.3851383,7.86191434 29.8916463,7.45824674 31.1782526,8.02341316 L35.7934663,10.050734 C36.5623659,10.3884878 37.4376341,10.3884878 38.2065337,10.050734 L42.8217474,8.02341316 C44.1083537,7.45824674 45.6148617,7.86191434 46.4465123,8.99466598 L49.4297442,13.0579842 C49.9267538,13.7349374 50.6847584,14.1725715 51.5195219,14.2645179 L56.5300746,14.8164134 C57.9268915,14.9702681 59.0297319,16.0731085 59.1835866,17.4699254 L59.7354821,22.4804781 C59.8274285,23.3152416 60.2650626,24.0732462 60.9420158,24.5702558 L65.005334,27.5534877 C66.1380857,28.3851383 66.5417533,29.8916463 65.9765868,31.1782526 L63.949266,35.7934663 C63.6115122,36.5623659 63.6115122,37.4376341 63.949266,38.2065337 L65.9765868,42.8217474 C66.5417533,44.1083537 66.1380857,45.6148617 65.005334,46.4465123 L60.9420158,49.4297442 C60.2650626,49.9267538 59.8274285,50.6847584 59.7354821,51.5195219 L59.1835866,56.5300746 C59.0297319,57.9268915 57.9268915,59.0297319 56.5300746,59.1835866 L51.5195219,59.7354821 C50.6847584,59.8274285 49.9267538,60.2650626 49.4297442,60.9420158 L46.4465123,65.005334 C45.6148617,66.1380857 44.1083537,66.5417533 42.8217474,65.9765868 L38.2065337,63.949266 C37.4376341,63.6115122 36.5623659,63.6115122 35.7934663,63.949266 Z" id="Star" fill="#FFB016"></path>
                <path d="M35.7934663,63.949266 L31.1782526,65.9765868 C29.8916463,66.5417533 28.3851383,66.1380857 27.5534877,65.005334 L23.7903635,59.8797616 L23.7903635,59.8797616 L50.2096365,14.1202384 L56.5300746,14.8164134 C57.9268915,14.9702681 59.0297319,16.0731085 59.1835866,17.4699254 L59.7354821,22.4804781 C59.8274285,23.3152416 60.2650626,24.0732462 60.9420158,24.5702558 L65.005334,27.5534877 C66.1380857,28.3851383 66.5417533,29.8916463 65.9765868,31.1782526 L63.949266,35.7934663 C63.6115122,36.5623659 63.6115122,37.4376341 63.949266,38.2065337 L65.9765868,42.8217474 C66.5417533,44.1083537 66.1380857,45.6148617 65.005334,46.4465123 L60.9420158,49.4297442 C60.2650626,49.9267538 59.8274285,50.6847584 59.7354821,51.5195219 L59.1835866,56.5300746 C59.0297319,57.9268915 57.9268915,59.0297319 56.5300746,59.1835866 L51.5195219,59.7354821 C50.6847584,59.8274285 49.9267538,60.2650626 49.4297442,60.9420158 L46.4465123,65.005334 C45.6148617,66.1380857 44.1083537,66.5417533 42.8217474,65.9765868 L38.2065337,63.949266 C37.4376341,63.6115122 36.5623659,63.6115122 35.7934663,63.949266 Z" id="Star-Copy" fill="#F69910" filter="url(#filter-3)"></path>
                <g id="Oval">
                    <use fill="#FFD350" fill-rule="evenodd" xlink:href="#path-4"></use>
                    <use fill="black" fill-opacity="1" filter="url(#filter-5)" xlink:href="#path-4"></use>
                </g>
                <g id="卡樂猴-貼圖-拷貝-39-copy" filter="url(#filter-6)" transform="translate(18.000000, 26.000000)" fill-rule="nonzero">
                    <path d="M9.36532125,0.30121875 C9.58908375,-0.09122625 9.84555,0.14630625 10.2070125,0.4165425 C10.568475,0.68677875 10.8559237,1.025865 11.26386,1.19282625 C11.6184375,1.33741125 12.0177675,1.218645 12.386115,1.11364875 C16.431844,-0.020783296 20.7649342,0.538405279 24.3901125,2.66277375 C26.5881487,3.96576 28.5297187,5.9796225 29.0116687,8.48748375 C30.2354775,8.14323375 31.6537875,7.90398 32.8121887,8.42724 C34.425,9.150165 35.7641325,11.4067237 35.1995625,13.0815 C34.9898677,13.7027093 34.6691007,14.280673 34.252875,14.7872587 C33.5678674,15.5208342 32.6402134,15.9812979 31.6417388,16.08336 C30.6089888,16.20729 28.3834125,15.443055 28.249155,15.5153475 C28.07703,15.6065737 27.5313937,16.5480975 27.4350037,16.709895 C26.6191312,18.10755 25.7344088,18.6893325 24.2920013,19.4208637 C19.6652813,20.64123 11.7767925,19.5637275 9.2499975,18.5740087 C7.21031625,17.5412587 5.101785,16.8166125 4.61122875,14.5858725 C4.54237875,14.26572 4.53549375,13.9300762 4.49418375,13.6064812 C4.4442675,13.20543 4.01223375,12.4016062 4.01223375,12.4016062 C3.70926652,12.3685005 3.40862606,12.316765 3.11202,12.2466937 C2.81372931,12.1543057 2.53111981,12.0173533 2.27377125,11.8404787 C1.75650896,11.4860925 1.30018419,11.0501134 0.92259,10.5495412 C0.3201525,9.76809375 -0.061965,8.78698125 0.07745625,7.79554125 C0.200940326,6.66159358 1.01067653,5.72112229 2.113695,5.43054375 C3.2531625,5.1189975 4.619835,5.5045575 5.49939375,6.29116875 C6.24641625,4.78679625 7.32736125,3.17570625 8.74395,2.27205 C8.74395,2.2754925 9.14328,0.6885 9.36532125,0.30121875 Z" id="Path" fill="#844A36"></path>
                    <path d="M7.33080375,8.8919775 C7.60971984,8.93774127 7.87627555,9.0402627 8.1139725,9.19319625 C8.6785425,9.65793375 8.9539425,10.3739737 9.23794875,11.0469825 C9.54261,11.7716287 9.5185125,12.6511875 9.5322825,13.4377987 C9.5460525,14.22441 9.29475,15.0420037 8.73190125,15.5859187 C8.2241325,16.0730325 7.62858,16.95087 6.9572925,16.7357137 C4.75065,16.0248375 6.50804625,17.3897887 7.86267,18.1127137 C12.2931675,20.4501712 21.9459375,20.4295162 24.8238675,19.229805 C24.2334788,19.0456312 21.7583213,18.9354712 21.2385038,18.582615 C20.593035,18.141975 19.890765,17.549865 19.6893788,16.8028425 C19.4759437,15.98697 19.436355,14.5445625 19.7978175,13.7820487 C20.3830425,12.5461912 21.983805,11.780235 23.3418713,11.931705 C23.5226025,11.95236 23.49162,11.7440887 23.8737375,11.82843 C23.9907825,11.8542487 24.0458625,11.656305 24.0992213,11.5513087 C24.48698,10.7424605 24.5970919,9.82828924 24.4124888,8.9505 C24.2541338,8.07782625 24.08373,7.10359875 23.6654663,6.32215125 C23.1077813,5.27563125 22.3332188,4.68007875 21.3176813,4.06731375 C19.9923188,3.270375 18.24525,2.93473125 16.696125,3.008745 C14.4068625,3.118905 11.9489175,3.37192875 10.196685,4.84876125 C9.02107125,5.83848 8.31708,7.304985 7.66128375,8.6923125 C7.66128375,8.6923125 7.12081125,8.8506675 7.33080375,8.8919775 Z" id="Path" fill="#EFDEC5"></path>
                    <path d="M4.5888525,8.63379 C4.5851896,8.64388028 4.58231228,8.65423864 4.58024625,8.6647725 C4.523445,8.86271625 4.47008625,9.06066 4.42189125,9.260325 C4.37369625,9.45999 4.33927125,9.639 4.303125,9.8283375 C4.28763375,9.92644875 4.29107625,10.3843013 4.220505,10.4342175 C4.14993375,10.4841338 3.76093125,10.348155 3.66282,10.320615 C3.46849919,10.2690999 3.27947171,10.1993672 3.09825,10.1123437 C2.55949875,9.84382875 2.0655,9.3257325 1.95706125,8.71641 C1.89765968,8.42788044 1.96117376,8.12764783 2.13233357,7.88789344 C2.30349338,7.64813904 2.56681683,7.49054963 2.85899625,7.4530125 C3.2161725,7.39993453 3.58107855,7.45010165 3.91068,7.5975975 C4.08392409,7.66859534 4.25340398,7.74845197 4.41844875,7.83685125 C4.5613125,7.91258625 4.743765,7.9556175 4.74892875,8.1070875 C4.72129887,8.28946718 4.66737957,8.46687907 4.5888525,8.63379 L4.5888525,8.63379 Z" id="Path" fill="#EFDEC5"></path>
                    <path d="M29.8912275,10.6407675 C29.9276832,10.6134378 29.9734875,10.6016773 30.0186,10.6080637 C30.8120962,10.6769137 31.8121425,10.7027325 32.4662175,11.2070587 C32.9068575,11.5513087 33.1857,12.2398087 32.9154638,12.7561837 C32.6241652,13.2825639 32.0965372,13.6358117 31.498875,13.7045925 C31.1011192,13.7490849 30.6987099,13.6860784 30.3335888,13.52214 C30.0358125,13.391325 29.5486987,13.1555137 29.4987825,12.79233 C29.4878611,12.6676348 29.4977497,12.5419914 29.5280437,12.42054 L29.777625,11.133045 C29.805165,10.9901812 29.777625,10.7319937 29.8912275,10.6407675 Z" id="Path" fill="#EFDEC5"></path>
                    <path d="M19.67733,13.914585 C19.2057075,15.057495 19.2057075,16.4775263 19.7771625,17.54298 C20.5809862,19.0456313 22.451985,19.92519 24.0957787,19.48455 C25.59843,19.0817775 27.1096875,17.8201013 27.2525512,16.1849137 C27.2764546,15.813227 27.2404219,15.4401149 27.1458337,15.0798713 C26.9613495,14.2747438 26.5724607,13.530757 26.0166937,12.9197025 C25.2000452,12.032463 23.994735,11.6108949 22.80312,11.7957262 C21.7944675,11.9540812 20.6360662,12.3430837 20.04912,13.23297 C19.9028573,13.4472617 19.778312,13.6755947 19.67733,13.914585 Z" id="Path" fill="#EEB3AF"></path>
                    <path d="M4.10862375,11.656305 C4.044938,12.1873668 4.05246328,12.7245555 4.131,13.253625 C4.23995144,14.0401322 4.49568919,14.7991712 4.8849075,15.49125 C5.19989625,16.05582 5.65086375,16.7959575 6.32559375,16.9611975 C7.18621875,17.1729113 8.20519875,16.517115 8.7611625,15.9129563 C9.05536685,15.5723468 9.28831396,15.1833251 9.4496625,14.7631612 C10.0607062,13.2914925 10.1037375,11.8060537 9.2637675,10.27242 C9.05893875,9.89890875 8.35666875,9.33089625 8.0038125,9.0916425 C7.39276875,8.6751 6.5235375,8.8231275 5.85225,9.1329525 C5.18295003,9.46467834 4.65603401,10.0270481 4.3685325,10.7165025 C4.23716255,11.0156447 4.14962512,11.3321708 4.10862375,11.656305 L4.10862375,11.656305 Z" id="Path" fill="#EEB3AF"></path>
                    <path d="M14.1813788,14.5187438 C14.1813788,14.5187438 14.4946462,16.1917988 15.3311737,15.5635425 C16.1677013,14.9352862 15.9577088,14.5187438 15.9577088,14.5187438 C15.9577088,14.5187438 15.2261775,14.4137475 14.8079138,13.8922087 L14.1813788,14.5187438 Z" id="Path" fill="#EEB3AF"></path>
                    <path d="M12.03498,10.2569288 C12.0537358,10.2894147 12.0537358,10.329439 12.03498,10.361925 C11.9695725,10.4359388 11.8817888,10.348155 11.8370363,10.3102875 C11.8216634,10.2956858 11.8145653,10.2743913 11.8181025,10.2534863 C11.8181025,10.2913538 11.8181025,10.2947963 11.8181025,10.2534863 C11.8181025,10.2121763 11.9506388,10.1743088 11.8749038,10.1880788 C11.6236013,10.2345525 11.5564725,10.6545375 11.80089,10.7595338 C12.0271153,10.8751865 12.3042697,10.795354 12.43431,10.5770813 C12.5568404,10.3894285 12.5309763,10.1415641 12.372345,9.98325 C11.9833425,9.62006625 11.339595,10.182915 11.6408138,10.61667 C11.7060186,10.7235396 11.8283222,10.7816507 11.95236,10.7646975 C12.0792597,10.7549541 12.1865376,10.6669312 12.220875,10.5443775 C12.2329238,10.4600363 12.220875,10.53405 12.1830075,10.5443775 L11.7905625,10.155375 C11.7905625,10.1743088 11.8318725,10.155375 11.835315,10.155375 L11.9282625,10.1863575 L11.8852313,10.4324963 C11.8702094,10.4374883 11.8545708,10.4403844 11.8387575,10.4411025 C11.8093406,10.4187996 11.7949328,10.3818721 11.8014726,10.3455403 C11.8080123,10.3092084 11.8343925,10.2796228 11.86974,10.2689775 C11.9042027,10.2442705 11.9520125,10.2511005 11.9781788,10.2844688 C12.07629,10.3085663 12.069405,10.361925 11.9575238,10.4428238 C11.9437538,10.5512625 11.904165,10.58913 11.8387575,10.5581475 C11.77335,10.527165 11.725155,10.4910188 11.71827,10.3860225 L11.7613013,10.2276675 C11.7853988,10.1898 11.8422,10.2276675 11.8594125,10.2534863 C11.917935,10.3464338 11.75958,10.4083988 11.6872875,10.3515975 C11.614995,10.2947963 11.6872875,10.1674238 11.7578588,10.141605 C11.82843,10.1157863 11.8404788,10.141605 11.7991688,10.1261138 C11.9007225,10.1777513 11.8749038,10.2775838 11.8232663,10.3602038 C11.8232663,10.3722525 11.7888413,10.36881 11.780235,10.3722525 C11.7716288,10.375695 11.8181025,10.38258 11.7974475,10.3722525 C11.7767925,10.361925 11.7561375,10.35504 11.738925,10.3275 C11.7217125,10.29996 11.7062213,10.2138975 11.7647438,10.2225038 C11.78712,10.2225038 11.8043325,10.251765 11.8181025,10.265535 C11.8318725,10.279305 11.794005,10.2397163 11.8060538,10.2414375 C11.8181025,10.2431588 11.8060538,10.25865 11.8060538,10.2638138 C11.8060538,10.2689775 11.7922838,10.2121763 11.8060538,10.24488 C11.8060538,10.24488 11.8249875,10.2001275 11.8060538,10.2190612 L11.8060538,10.2362737 C11.8060538,10.2362737 11.7905625,10.2534862 11.7836775,10.2466012 C11.8181025,10.2879112 11.85597,10.2466012 11.85597,10.3051237 C11.85597,10.2947962 11.82843,10.35504 11.821545,10.3602037 C11.7785138,10.3860225 11.7509738,10.320615 11.780235,10.2810263 C11.8126505,10.2578226 11.8524912,10.2474028 11.8921163,10.251765 C11.9162015,10.2561506 11.9359894,10.2733001 11.9437538,10.2965175 C11.9437538,10.2827475 11.9437538,10.3275 11.9437538,10.3309425 C11.9450852,10.3578393 11.939139,10.3845974 11.9265413,10.4083988 C11.9265413,10.4083988 11.8852313,10.4342175 11.89728,10.4342175 C11.8232663,10.4342175 11.7027788,10.3877438 11.7716288,10.2896325 C11.8404787,10.1915213 11.9076075,10.2896325 11.8921163,10.348155 C11.7785138,10.733715 12.3826725,10.898955 12.4945538,10.52028 C12.5506072,10.3122026 12.5092484,10.0899308 12.3821026,9.91594186 C12.2549569,9.74195288 12.055751,9.63503091 11.8404788,9.62523 C11.6263268,9.63572047 11.4273088,9.73877445 11.2951491,9.90760848 C11.1629894,10.0764425 11.1107394,10.2943833 11.1519788,10.5047888 C11.2597051,10.9018833 11.6647613,11.1403314 12.0642413,11.0418188 C12.446672,10.9196954 12.6620216,10.5149604 12.5496338,10.1295563 C12.4923236,9.94579737 12.3627765,9.79322982 12.1907396,9.70688681 C12.0187028,9.6205438 11.8189579,9.60784406 11.6373713,9.67170375 C11.4333221,9.73486035 11.2701422,9.88914565 11.1956597,10.0893385 C11.1211772,10.2895313 11.1438287,10.5129559 11.256975,10.6941263 C11.3795852,10.8722108 11.5802885,10.9805447 11.7964472,10.9853179 C12.0126059,10.9900911 12.2178957,10.8907224 12.3482475,10.7182238 C12.4653059,10.555972 12.5059975,10.3508259 12.4597314,10.1561781 C12.4134654,9.96153034 12.2848182,9.79663446 12.1072725,9.7044075 C11.9165226,9.60348902 11.6872629,9.60783955 11.5004791,9.71592229 C11.3136954,9.82400502 11.1956812,10.0206051 11.188125,10.2362738 C11.1764829,10.4420731 11.2759119,10.6383551 11.4487227,10.7507177 C11.6215334,10.8630803 11.8412749,10.8743247 12.0246525,10.7801888 C12.399885,10.5788025 12.468735,10.017675 12.0573563,9.8145675 C11.7131063,9.6424425 11.2311563,9.8696475 11.256975,10.2879113 C11.2818615,10.4706979 11.3971462,10.6286532 11.5636419,10.7080856 C11.7301376,10.7875179 11.9254447,10.7777407 12.083175,10.6820775 C12.5152088,10.3997925 12.2088263,9.742275 11.738925,9.76293 C11.2690238,9.783585 11.0951775,10.3860225 11.408445,10.6941263 C11.7217125,11.00223 12.454965,10.78191 12.331035,10.2827475 C12.2577763,10.0401152 12.007492,9.89720366 11.7613013,9.95743125 C11.6443183,9.99009559 11.5455461,10.0687351 11.4874995,10.1754242 C11.4294528,10.2821132 11.4170786,10.4077596 11.4531975,10.5237225 C11.4919526,10.6482382 11.5788533,10.7521071 11.6945742,10.8122303 C11.8102952,10.8723535 11.9452421,10.8837462 12.069405,10.843875 C12.3126787,10.754105 12.4548694,10.5010785 12.4050488,10.2466013 C12.3412405,9.98742385 12.105584,9.80763725 11.8387575,9.8145675 C11.7095611,9.81226471 11.5847435,9.86138976 11.4917735,9.95113161 C11.3988035,10.0408735 11.3453,10.1638779 11.3430375,10.293075 C11.359482,10.5563804 11.5717606,10.7649477 11.835315,10.7767462 C12.0994925,10.7651788 12.3254504,10.5831573 12.393,10.3275 C12.4220698,10.2193346 12.3911798,10.1038785 12.3119813,10.02468 C12.2327828,9.94548145 12.1173267,9.91459147 12.0091613,9.94366125 C11.8038112,9.99958285 11.64862,10.1681526 11.6098313,10.3774162 L12.1812863,10.3034025 C12.2135989,10.3420202 12.2184894,10.3966591 12.1935486,10.4404014 C12.1686078,10.4841438 12.119096,10.5077637 12.069405,10.499625 L11.8869525,10.3275 L11.9058863,10.2569288 C11.9437538,10.2018488 12.1210425,10.2466013 12.110715,10.2414375 L12.0367013,10.8128925 C12.4859475,10.7302725 12.5737313,10.0624275 12.1916138,9.84038625 C11.738925,9.57875625 11.2328775,10.16226 11.5031138,10.5874087 C11.7148275,10.9316588 12.2553,10.6149487 12.0435863,10.27242 L12.03498,10.2569288 Z" id="Path" fill="#783718"></path>
                    <path d="M19.8735525,11.2173863 C19.9148625,11.2449263 19.8735525,11.19501 19.8821588,11.2173863 C19.890765,11.2397625 19.8666675,11.1846825 19.8821588,11.1829613 C19.89765,11.18124 19.8546188,11.22255 19.8546188,11.2191075 C19.8442913,11.2449263 19.890765,11.201895 19.8546188,11.2191075 C19.8666675,11.2191075 19.8993713,11.2535325 19.8718312,11.2191075 C19.8442912,11.1846825 19.8718312,11.2191075 19.863225,11.2345988 C19.8546188,11.25009 19.8374063,11.270745 19.863225,11.2466475 C19.863225,11.2621388 19.849455,11.2466475 19.84257,11.2173863 C19.8453409,11.2163268 19.8484053,11.2163268 19.8511763,11.2173863 C19.8576062,11.2384201 19.8500068,11.2612184 19.8322425,11.2741875 C19.8133088,11.2741875 19.821915,11.2741875 19.85634,11.256975 C19.8115875,11.256975 19.85634,11.2741875 19.7823263,11.2345988 C19.7479012,11.2173863 19.8115875,11.1657488 19.7823263,11.2345988 C19.7823263,11.2105013 19.7823263,11.2173863 19.77372,11.256975 C19.7721706,11.2501772 19.7721706,11.2431178 19.77372,11.23632 C19.7725226,11.232393 19.7725226,11.2281982 19.77372,11.2242713 C19.794375,11.2242713 19.7840475,11.2242713 19.7444587,11.2242713 C19.7719987,11.2397625 19.7169188,11.20878 19.725525,11.2105013 C19.7341313,11.2122225 19.7151975,11.2191075 19.7014275,11.1777975 C19.7444587,11.2793513 19.6687238,11.3309888 19.4742225,11.3344313 C19.8184725,11.53926 20.1369037,10.9987875 19.7892113,10.7939588 C19.6367982,10.7166594 19.4544936,10.7278572 19.3126866,10.8232286 C19.1708796,10.9186001 19.0917595,11.0832219 19.105875,11.2535325 C19.1506664,11.5843778 19.4263666,11.8354101 19.75995,11.849085 C20.0627832,11.8647515 20.3317683,11.6571652 20.39337,11.36025 C20.4691046,11.0480931 20.2783053,10.7334281 19.9665,10.6562588 C19.6489292,10.5941294 19.3370226,10.7868217 19.25046,11.09862 C19.1657229,11.4249309 19.3521629,11.7602779 19.6740484,11.8605222 C19.995934,11.9607666 20.3398128,11.7905761 20.455335,11.4738525 C20.5888158,11.1857728 20.478712,10.8434772 20.2023113,10.6872413 C19.9066567,10.5076495 19.5213985,10.6016525 19.3416863,10.8972338 C19.1791611,11.1976317 19.2751293,11.5725077 19.5620063,11.7578588 C19.9062563,11.9799 20.2126388,11.4394275 19.876995,11.2191075 L19.8735525,11.2173863 Z" id="Path" fill="#783718"></path>
                    <path d="M19.9905975,11.2191075 C19.9905975,11.1795187 19.9905975,11.1691912 19.9905975,11.188125 C19.9905975,11.1709125 20.0456775,11.188125 19.9905975,11.188125 L19.7203613,11.0332125 C19.642905,10.9092825 19.8924863,10.8283837 19.9131413,10.94715 C19.9215603,10.965658 19.9179118,10.9874229 19.9039174,11.0021737 C19.8899231,11.0169245 19.8683802,11.0217127 19.849455,11.0142787 C19.849455,11.0142787 19.849455,11.0538675 19.849455,11.0762437 C19.849455,11.09862 19.794375,11.1037837 19.766835,11.119275 C19.739295,11.1347662 19.6618388,11.105505 19.73241,11.146815 C19.8029813,11.188125 19.7151975,11.1175537 19.8167513,11.1106687 C19.8258464,11.108904 19.8351961,11.108904 19.8442913,11.1106687 C19.932075,11.146815 19.8752738,11.2655812 19.8133088,11.2827937 C19.6033162,11.3585287 19.5688913,11.0125575 19.74618,10.98846 C19.99404,10.9557562 19.973385,11.34648 19.74618,11.30517 C19.6637665,11.2825953 19.5757484,11.293903 19.5017172,11.336576 C19.427686,11.379249 19.3737857,11.4497458 19.3520138,11.532375 C19.3079286,11.6985362 19.4052118,11.8693562 19.5706125,11.9162138 C19.8039478,11.9635273 20.046331,11.9072243 20.2349191,11.7619025 C20.4235073,11.6165806 20.5397271,11.396552 20.5534463,11.1588637 C20.5471769,10.9434961 20.4550734,10.7395712 20.2976363,10.5924791 C20.1401992,10.4453869 19.9304941,10.3673346 19.7151975,10.375695 C19.4947287,10.3916996 19.2917295,10.5015487 19.1577345,10.6773553 C19.0237396,10.853162 18.9716351,11.078019 19.0146487,11.2948425 C19.0535967,11.5091153 19.1833016,11.6960771 19.3703691,11.8075918 C19.5574366,11.9191064 19.7835882,11.9442778 19.9905975,11.876625 C20.2037706,11.8098459 20.3739654,11.6480526 20.4514415,11.4385302 C20.5289177,11.2290078 20.5049285,10.9954101 20.386485,10.8060075 C20.2569906,10.6051501 20.0326018,10.48581 19.79367,10.490722 C19.5547383,10.4956339 19.3354437,10.6240952 19.2143138,10.830105 C19.0851852,11.0447247 19.0967023,11.3157153 19.243575,11.518605 C19.4217889,11.7259342 19.7103789,11.8001431 19.9665,11.7045 C20.4536138,11.532375 20.6739338,10.8765787 20.2332938,10.5288862 C19.7496225,10.1467687 19.0284188,10.7010112 19.3726688,11.2552537 C19.4439693,11.3729926 19.5593262,11.4573918 19.6931236,11.48971 C19.8269209,11.5220282 19.968084,11.4995903 20.0852663,11.4273788 C20.3263361,11.2733505 20.4023849,10.956227 20.2573913,10.7096175 C20.2017527,10.6139545 20.0995423,10.554987 19.9888763,10.554705 C19.6357448,10.5677899 19.3587817,10.8623989 19.367505,11.215665 C19.3864388,11.6167163 20.0112525,11.6184375 19.9923188,11.215665 L19.9905975,11.2191075 Z" id="Path" fill="#783718"></path>
                    <path d="M14.782095,11.7888413 C14.6388751,11.633239 14.4572227,11.5180738 14.2553925,11.4549188 C14.1644842,11.4305522 14.0684046,11.4691243 14.0195812,11.5495875 C13.8285225,11.835315 13.97655,12.1778438 14.231295,12.3637388 C14.48604,12.5496338 14.8716,12.7389713 15.09192,12.4308675 C15.2468325,12.21399 15.3432225,11.78712 15.0471675,11.6373713 C14.9317561,11.5771455 14.7922437,11.5871737 14.6866324,11.6632867 C14.581021,11.7393997 14.5273779,11.8685767 14.548005,11.9971125 C14.5753056,12.0849284 14.6565689,12.1447646 14.7485306,12.1447646 C14.8404923,12.1447646 14.9217556,12.0849284 14.9490562,11.9971125 C14.9660491,11.9382579 14.987335,11.8807287 15.0127425,11.8249875 C15.0523312,11.738925 15.0127425,11.8439213 14.9989725,11.8783463 C14.9576625,11.9919488 14.9387287,12.0848963 14.8061925,12.1055513 C14.54112,12.14514 14.6530012,12.5461913 14.9163525,12.5066025 C15.2847,12.4515225 15.5790337,11.876625 15.3759262,11.5478663 C15.2732095,11.3968206 15.0804841,11.3356605 14.9094675,11.3998388 C14.7161517,11.4910524 14.5807193,11.6722739 14.548005,11.88351 L14.9490562,11.88351 C14.9370075,12.0126038 14.8956975,12.0453075 14.8251262,11.9833425 C14.8183528,12.0361061 14.8026366,12.0873294 14.7786525,12.1348125 C14.7339,12.1984988 14.7218512,12.15891 14.6357887,12.1176 C14.5118587,12.0539137 14.2674412,11.92482 14.3810437,11.7578588 L14.1452325,11.8525275 C14.2784906,11.8964712 14.3974212,11.9755601 14.4894825,12.0814537 C14.6616075,12.2793975 14.9645475,11.9833425 14.7838162,11.7853987 L14.782095,11.7888413 Z" id="Path" fill="#B44623"></path>
                    <path d="M14.51358,13.584105 C14.685705,14.3638313 15.4344487,14.7149663 16.1694225,14.7734888 C16.4706412,14.7975863 16.4706412,14.327685 16.1694225,14.3035875 C15.635835,14.2605563 15.0953625,14.0264663 14.9645475,13.4584538 C14.8974187,13.16412 14.4481725,13.2863288 14.5101375,13.584105 L14.51358,13.584105 Z" id="Path" fill="#783718"></path>
                    <path d="M14.6048063,13.77 C14.4326813,14.16933 14.1727725,14.3104725 13.7441813,14.2674412 C13.4446838,14.2364587 13.446405,14.70636 13.7441813,14.7373425 C14.2850654,14.8219907 14.811798,14.518134 15.0093,14.0075325 C15.126345,13.7304112 14.7218512,13.4911575 14.603085,13.77 L14.6048063,13.77 Z" id="Path" fill="#783718"></path>
                    <path d="M15.7236187,14.4843188 C15.61518,14.8457813 15.470595,15.3569925 15.0351187,15.4396125 C14.5996425,15.5222325 14.492925,14.947335 14.44473,14.6185763 C14.3999775,14.3208 13.9455675,14.4464513 13.99032,14.7442275 C14.0763825,15.3087975 14.33457,15.9732 15.02307,15.9163988 C15.71157,15.8595975 16.007625,15.1848675 16.17975,14.60997 C16.2105983,14.4859068 16.136971,14.3598573 16.013754,14.325786 C15.8905369,14.2917146 15.7626113,14.3620316 15.72534,14.4843188 L15.7236187,14.4843188 Z" id="Path" fill="#783718"></path>
                </g>
                <path d="M32.872772,21.7813923 C43.9401678,22.7102267 24.4947555,21.9344946 18.3293561,31.567328 C18.3293561,31.567328 21.8053762,20.8525579 32.872772,21.7813923 Z" id="Path-2" fill="#FEE88C" transform="translate(27.272247, 26.645821) rotate(-13.000000) translate(-27.272247, -26.645821) "></path>
                <path d="M65.5113704,12.1402464 L63.8786797,13.0546176 C63.548274,13.2396578 63.1304226,13.1218158 62.9453824,12.7914102 C62.8288084,12.583257 62.8288084,12.3294735 62.9453824,12.1213203 L63.8597536,10.4886296 C64.0297651,10.1850589 64.0297651,9.81494109 63.8597536,9.51137044 L62.9453824,7.87867966 C62.7603422,7.54827399 62.8781842,7.13042256 63.2085898,6.94538236 C63.416743,6.82880836 63.6705265,6.82880836 63.8786797,6.94538236 L65.5113704,7.85975359 C65.8149411,8.02976513 66.1850589,8.02976513 66.4886296,7.85975359 L68.1213203,6.94538236 C68.451726,6.76034216 68.8695774,6.87818415 69.0546176,7.20858981 C69.1711916,7.41674301 69.1711916,7.67052646 69.0546176,7.87867966 L68.1402464,9.51137044 C67.9702349,9.81494109 67.9702349,10.1850589 68.1402464,10.4886296 L69.0546176,12.1213203 C69.2396578,12.451726 69.1218158,12.8695774 68.7914102,13.0546176 C68.583257,13.1711916 68.3294735,13.1711916 68.1213203,13.0546176 L66.4886296,12.1402464 C66.1850589,11.9702349 65.8149411,11.9702349 65.5113704,12.1402464 Z" id="Star" fill="#F9C270" transform="translate(66.000000, 10.000000) rotate(45.000000) translate(-66.000000, -10.000000) "></path>
                <path d="M11.5113704,67.2069491 L10.9393398,67.5273088 C10.774137,67.6198289 10.5652113,67.5609079 10.4726912,67.3957051 C10.4144042,67.2916285 10.4144042,67.1647368 10.4726912,67.0606602 L10.7930509,66.4886296 C10.9630624,66.1850589 10.9630624,65.8149411 10.7930509,65.5113704 L10.4726912,64.9393398 C10.3801711,64.774137 10.4390921,64.5652113 10.6042949,64.4726912 C10.7083715,64.4144042 10.8352632,64.4144042 10.9393398,64.4726912 L11.5113704,64.7930509 C11.8149411,64.9630624 12.1850589,64.9630624 12.4886296,64.7930509 L13.0606602,64.4726912 C13.225863,64.3801711 13.4347887,64.4390921 13.5273088,64.6042949 C13.5855958,64.7083715 13.5855958,64.8352632 13.5273088,64.9393398 L13.2069491,65.5113704 C13.0369376,65.8149411 13.0369376,66.1850589 13.2069491,66.4886296 L13.5273088,67.0606602 C13.6198289,67.225863 13.5609079,67.4347887 13.3957051,67.5273088 C13.2916285,67.5855958 13.1647368,67.5855958 13.0606602,67.5273088 L12.4886296,67.2069491 C12.1850589,67.0369376 11.8149411,67.0369376 11.5113704,67.2069491 Z" id="Star-Copy-4" fill="#F9C270" transform="translate(12.000000, 66.000000) rotate(45.000000) translate(-12.000000, -66.000000) "></path>
                <path d="M4.33481988,62.2725988 L2.5362784,62.9021093 C2.27564006,62.9933358 1.99039728,62.8560003 1.89917082,62.595362 C1.87933929,62.5387024 1.86987301,62.4789346 1.87122512,62.4189198 L1.91414533,60.5138758 C1.91669732,60.4006038 1.8807026,60.2898234 1.8120584,60.1996845 L0.65757843,58.6836994 C0.490275232,58.4640081 0.532744149,58.1502871 0.752435412,57.9829839 C0.800193617,57.9466142 0.85411092,57.919142 0.911606176,57.9018824 L2.7366738,57.3540109 C2.84519046,57.321435 2.93942586,57.252969 3.00394086,57.15983 L4.08897447,55.5933892 C4.24621375,55.366386 4.55770376,55.3098312 4.78470689,55.4670705 C4.83405461,55.5012524 4.87684362,55.5440414 4.91102553,55.5933892 L5.99605914,57.15983 C6.06057414,57.252969 6.15480954,57.321435 6.2633262,57.3540109 L8.08839382,57.9018824 C8.35287624,57.981278 8.50291874,58.2600462 8.42352313,58.5245286 C8.40626349,58.5820239 8.37879125,58.6359412 8.34242157,58.6836994 L7.1879416,60.1996845 C7.1192974,60.2898234 7.08330268,60.4006038 7.08585467,60.5138758 L7.12877488,62.4189198 C7.13499472,62.6949921 6.91623607,62.9238351 6.64016375,62.930055 C6.58014899,62.9314071 6.5203812,62.9219408 6.4637216,62.9021093 L4.66518012,62.2725988 C4.55824068,62.2351687 4.44175932,62.2351687 4.33481988,62.2725988 Z" id="Star-Copy-2" fill="#65A0A6"></path>
                <path d="M59.0871032,4.04355313 L58.7652684,4.18945539 C58.5346304,4.29401408 58.2628997,4.19180654 58.158341,3.96116846 C58.1242408,3.88594947 58.1110897,3.80291671 58.120277,3.72084167 L58.1595859,3.36967237 C58.1916368,3.08334282 58.0986316,2.79710234 57.9044016,2.58429593 L57.6661879,2.32329918 C57.4954756,2.13625975 57.5087114,1.84624466 57.6957508,1.67553236 C57.7567508,1.61985722 57.8316557,1.58169125 57.9125527,1.56506626 L58.2586817,1.49393396 C58.5409015,1.43593549 58.7843922,1.25902915 58.9267628,1.00854462 L59.1013734,0.701337501 C59.2265054,0.481182087 59.5064162,0.404150446 59.7265717,0.529282515 C59.7983719,0.570092375 59.8578168,0.62953727 59.8986266,0.701337501 L60.0732372,1.00854462 C60.2156078,1.25902915 60.4590985,1.43593549 60.7413183,1.49393396 L61.0874473,1.56506626 C61.3354955,1.61604216 61.4952541,1.85844908 61.4442782,2.10649725 C61.4276532,2.18739427 61.3894872,2.26229921 61.3338121,2.32329918 L61.0955984,2.58429593 C60.9013684,2.79710234 60.8083632,3.08334282 60.8404141,3.36967237 L60.879723,3.72084167 C60.9078932,3.97250193 60.7267186,4.19934928 60.4750584,4.22751941 C60.3929833,4.23670666 60.3099506,4.22355556 60.2347316,4.18945539 L59.9128968,4.04355313 C59.6504855,3.9245902 59.3495145,3.9245902 59.0871032,4.04355313 Z" id="Star-Copy-3" fill="#65A0A6"></path>
            </g>
            <rect id="Rectangle" fill="#D8D8D8" opacity="0" x="0" y="0" width="75" height="77"></rect>
        </g>
    </g>
</svg>