<?xml version="1.0" encoding="UTF-8"?>
<svg width="34px" height="34px" viewBox="0 0 34 34" version="1.1" xmlns="http://www.w3.org/2000/svg" xmlns:xlink="http://www.w3.org/1999/xlink">
    <title>Group 2</title>
    <defs>
        <path d="M14.1525,0 C6.3325,0 0,6.34666667 0,14.1666667 C0,21.9866667 6.3325,28.3333333 14.1525,28.3333333 C21.9866667,28.3333333 28.3333333,21.9866667 28.3333333,14.1666667 C28.3333333,6.34666667 21.9866667,0 14.1525,0 Z M14.1666667,25.5 C7.905,25.5 2.83333333,20.4283333 2.83333333,14.1666667 C2.83333333,7.905 7.905,2.83333333 14.1666667,2.83333333 C20.4283333,2.83333333 25.5,7.905 25.5,14.1666667 C25.5,20.4283333 20.4283333,25.5 14.1666667,25.5 Z" id="path-1"></path>
        <polygon id="path-3" points="14.875 7.08333333 12.75 7.08333333 12.75 15.5833333 20.1875 20.0458333 21.25 18.3033333 14.875 14.5208333"></polygon>
    </defs>
    <g id="Symbols" stroke="none" stroke-width="1" fill="none" fill-rule="evenodd">
        <g id="Card/03/Hover" transform="translate(-22.000000, -430.000000)">
            <g id="Group-2" transform="translate(22.000000, 430.000000)">
                <g id="ic/access_time" transform="translate(2.833333, 2.833333)">
                    <mask id="mask-2" fill="white">
                        <use xlink:href="#path-1"></use>
                    </mask>
                    <use id="Shape" fill="#E6E7E6" fill-rule="nonzero" xlink:href="#path-1"></use>
                    <mask id="mask-4" fill="white">
                        <use xlink:href="#path-3"></use>
                    </mask>
                    <use id="Path" fill="#E6E7E6" fill-rule="nonzero" xlink:href="#path-3"></use>
                </g>
                <rect id="Rectangle" fill="#D8D8D8" opacity="0" x="0" y="0" width="34" height="34"></rect>
            </g>
        </g>
    </g>
</svg>