<?xml version="1.0" encoding="UTF-8"?>
<svg width="40px" height="40px" viewBox="0 0 40 40" version="1.1" xmlns="http://www.w3.org/2000/svg" xmlns:xlink="http://www.w3.org/1999/xlink">
    <title>Group</title>
    <g id="Symbols" stroke="none" stroke-width="1" fill="none" fill-rule="evenodd">
        <g id="課程/Tab3/Normal" transform="translate(-8.000000, -9.000000)">
            <g id="Group-8" transform="translate(8.000000, 9.000000)">
                <g id="Group-3" transform="translate(6.000000, 7.000000)">
                    <path d="M2.80250761,6.40534669 C2.1295712,5.93406431 1.34509836,5.39436997 0.571779172,4.83947298 C-0.0379532683,4.40239658 -0.09743936,4.17435672 0.1033262,3.44462917 C0.411917376,2.27094196 1.14911395,1.26295292 2.16303213,0.628336902 C2.5630721,0.401245823 2.98243094,0.211703487 3.41595793,0.0620379161 C3.75278422,-0.0740625415 4.13688342,0.0184152692 4.37888904,0.29387844 C4.77670228,0.673944874 5.1968228,1.00460267 5.59463604,1.37326711 C5.77813114,1.54010485 6.01457379,1.63327696 6.26013669,1.63551295 C7.34947575,1.70392491 8.4388148,1.81034351 9.52815386,1.90155945 C9.95942802,1.93576543 10.3572413,2.01177872 10.4353168,2.56287505 C10.4353168,2.642689 10.5654426,2.71490162 10.647236,2.77571225 C13.855767,5.10551948 17.0531445,7.45813071 20.2802649,9.76133329 C22.0574119,11.0269545 23.8866092,12.2127618 25.6897814,13.4365757 C26.0073688,13.5883938 26.2542378,13.8612218 26.3775893,14.1967086 C26.4110503,14.3183298 26.5597655,14.4171471 26.6713019,14.508363 C26.8943748,14.6945956 27.1286012,14.8656255 27.3591099,15.0442567 C28.102686,15.5991537 28.1733257,15.9412135 27.7048728,16.7545557 C27.1918052,17.6401105 26.6452767,18.5142632 26.0838768,19.3694127 C24.9685125,21.0835123 23.4813602,22.4593528 21.994208,23.8351933 C21.3844755,24.4014923 20.7338464,24.925984 20.0943709,25.458077 C19.9078472,25.6242362 19.701772,25.7659554 19.4809206,25.8799507 C19.1684389,26.0776489 18.7635851,26.0271001 18.5068358,25.7583295 C17.9500473,25.2585003 17.4766329,24.6692812 17.1051948,24.0138245 C17.0280693,23.8660734 16.9289867,23.7314491 16.8114822,23.6147548 C13.6624372,20.3309808 10.5282638,17.0358048 7.34947575,13.7824362 C6.33077643,12.7410541 5.20054068,11.813692 4.11120163,10.8483233 C3.92050266,10.6956105 3.78880322,10.4788532 3.73941356,10.2364163 C3.64646654,9.80694126 3.49403343,9.38886819 3.39365065,8.95939312 C3.1705778,8.16125361 3.00327317,7.33650945 2.80250761,6.40534669 Z M17.8599246,23.4057182 C19.5998928,22.1248944 24.4628808,16.184456 25.2064569,14.4247484 C24.9594087,14.1423385 24.6895278,13.881705 24.3996768,13.6456122 C22.9125245,12.6346355 21.4253722,11.6844694 19.9642451,10.6506887 C17.3617286,8.81496787 14.8112624,6.93363903 12.2384889,5.07131351 C12.0600306,4.94209092 11.8667008,4.82046966 11.6473459,4.66464242 C10.1044254,7.19968553 8.67304129,9.73852931 6.47577378,11.5704495 L17.8599246,23.4057182 Z M19.031057,25.0742099 C21.6335735,23.6299574 26.6452767,17.8301437 26.9836039,15.9146088 L25.9463152,15.1240707 C24.7528755,16.773559 23.6672543,18.4458513 22.4106106,19.9699177 C21.1539669,21.4939841 19.7300186,22.8546219 18.3544027,24.3102764 L19.031057,25.0742099 Z M4.36029964,9.36986487 C5.84745193,8.49951273 8.94816446,4.2199647 9.17123731,2.75290826 L6.64307841,2.55907438 C6.34462452,3.03380392 6.01154793,3.48483008 5.64668637,3.90831022 C5.0651359,4.47862062 4.59347332,5.1554562 4.25619898,5.90365899 C4.21236486,6.02205114 4.14814754,6.13146315 4.06658706,6.22671546 C3.80624358,6.51240709 3.72054424,6.92124233 3.84351422,7.29090148 C4.00338309,7.96741973 4.18184136,8.64013731 4.36029964,9.36986487 Z M9.99660683,3.42562585 C8.55035122,5.94926697 7.23050356,8.49951273 4.7915738,10.2440177 L5.68758306,11.0041505 C8.04471944,9.14562567 9.40546379,6.58017725 10.9186413,4.10594477 L9.99660683,3.42562585 Z M4.15953408,4.21616403 L4.88080294,3.45603116 L2.37123345,1.63171229 C1.99944537,1.92056277 1.6276573,2.09159267 1.5495818,2.57427704 L4.15953408,4.21616403 Z M0.898952676,3.98052284 L3.37877912,5.68702113 C3.49775131,5.40957263 3.58698045,5.21193809 3.68736323,4.98389823 C2.77648245,4.46700788 1.99200961,3.84369893 1.04766791,3.38381854 C0.988181814,3.62706106 0.947285126,3.7828883 0.898952676,3.98052284 Z M3.29698575,1.15662924 L5.38271684,2.75290826 C5.59091816,2.56667571 5.4682281,2.44505445 5.31207711,2.3120312 C4.83990625,1.90916078 4.37145328,1.51009103 3.91415395,1.09201795 C3.69851687,0.894383405 3.52749435,0.913386727 3.29698575,1.16042991 L3.29698575,1.15662924 Z" id="Shape" stroke="#02515D" fill="#21505B"></path>
                    <path d="M17.8599246,23.4057182 L6.47577378,11.5818515 C8.67304129,9.7499313 10.1044254,7.21108753 11.6473459,4.67604442 C11.8741366,4.83187165 12.0600306,4.95349291 12.2384889,5.0827155 C14.8112624,6.94504102 17.3728822,8.82636987 19.9642451,10.6620907 C21.4179364,11.6958714 22.9385497,12.6460375 24.3996768,13.6570142 C24.6895278,13.8931069 24.9594087,14.1537405 25.2064569,14.4361504 C24.4628808,16.1996587 19.5998928,22.1248944 17.8599246,23.4057182 Z M14.32422,9.34326022 C13.5873963,9.03704045 12.7846283,8.93478784 11.9968267,9.0468084 C11.4270386,9.11359383 10.9153244,9.43459084 10.5990151,9.92365209 C10.2827058,10.4127133 10.1941967,11.0197509 10.3572413,11.5818515 C10.427081,11.844539 10.5230052,12.0992404 10.6435181,12.3419844 C11.2434664,13.6019206 12.1659132,14.672302 13.3129564,15.4395258 C13.8817922,15.8195922 14.543575,16.0286288 15.1272822,16.3782899 C15.7109895,16.727951 16.2091855,16.4771072 16.7445604,16.4086952 C16.8152001,16.4086952 16.8821219,16.3174793 16.9378902,16.2604693 C17.1981418,15.9982235 17.4360862,15.7131736 17.7074915,15.4661305 C18.2292126,15.0260249 18.4826818,14.3355395 18.3729921,13.6532136 C18.2725247,12.7875214 17.9098486,11.975589 17.3357034,11.3310077 C16.5008097,10.4312404 15.4685921,9.74731357 14.32422,9.33565889 L14.32422,9.34326022 Z" id="Shape" fill="#FFFFFF" fill-rule="nonzero"></path>
                    <path d="M19.031057,25.0742099 L18.3544027,24.314077 C19.7300186,22.8584226 21.1539669,21.4901834 22.4106106,19.9737184 C23.6672543,18.4572533 24.7528755,16.7773596 25.9463152,15.1278713 L26.9836039,15.9184095 C26.6452767,17.8301437 21.6335735,23.6299574 19.031057,25.0742099 Z" id="Path" fill="#65A0A6"></path>
                    <path d="M4.36029964,9.36986487 C4.18184136,8.64013731 3.98851157,7.96741973 3.85466786,7.29090148 C3.73169789,6.92124233 3.81739723,6.51240709 4.0777407,6.22671546 C4.15930118,6.13146315 4.2235185,6.02205114 4.26735262,5.90365899 C4.60129877,5.15637943 5.06913361,4.479608 5.64668637,3.90831022 C6.00770431,3.48443516 6.33704485,3.03341938 6.63192477,2.55907438 L9.16008366,2.75290826 C8.94816446,4.2199647 5.85488769,8.49951273 4.36029964,9.36986487 Z" id="Path" fill="#FFFFFF" fill-rule="nonzero"></path>
                    <path d="M9.99660683,3.42562585 L10.9297949,4.12114742 C9.40174591,6.5953799 8.05587309,9.16082833 5.6987367,11.0193532 L4.80272745,10.2592203 C7.23050356,8.49951273 8.55035122,5.94926697 9.99660683,3.42562585 Z" id="Path" fill="#65A0A6"></path>
                    <path d="M4.15953408,4.21616403 L1.55701757,2.56667571 C1.63509306,2.08399134 2.01803478,1.91296145 2.37866921,1.62411096 L4.8882387,3.44842984 L4.15953408,4.21616403 Z" id="Path" fill="#FFFFFF" fill-rule="nonzero"></path>
                    <path d="M0.898952676,3.98052284 C0.947285126,3.77908763 0.988181814,3.6232604 1.04766791,3.38381854 C1.99200961,3.83229693 2.77648245,4.46700788 3.68736323,4.98389823 C3.58698045,5.21193809 3.49775131,5.40957263 3.37877912,5.68702113 L0.898952676,3.98052284 Z" id="Path" fill="#FFFFFF" fill-rule="nonzero"></path>
                    <path d="M3.29698575,1.16042991 C3.52749435,0.913386727 3.69851687,0.894383405 3.91415395,1.09581861 C4.37145328,1.51389169 4.83990625,1.91296145 5.31207711,2.31583187 C5.4682281,2.44885512 5.59091816,2.57047638 5.38271684,2.75670893 L3.29698575,1.16042991 Z" id="Path" fill="#FFFFFF" fill-rule="nonzero"></path>
                    <path d="M14.2131768,9.60536028 C15.3271044,10.0119354 16.3200198,10.6775367 17.1179078,11.5478078 C17.6523944,12.1478651 17.9897489,12.9038032 18.08327,13.7096411 C18.1783689,14.3029724 17.9637226,14.8912047 17.5111599,15.2732417 C17.3518081,15.4182896 17.2033754,15.5757726 17.0555693,15.7346477 C16.1185161,16.2030314 15.7006061,16.4007215 15.2754985,16.149894 C15.0201116,15.9992073 14.736556,15.865359 14.4484237,15.729868 C14.1150732,15.5731135 13.7750317,15.4142368 13.4751138,15.2198954 C12.3714509,14.4816874 11.4840937,13.4516408 10.9047614,12.2350912 C10.79293,12.0098341 10.7039244,11.773478 10.6364172,11.5202146 C10.4902112,11.0368329 10.56233,10.5118875 10.8336452,10.0886203 C11.1029411,9.66850328 11.5411528,9.39216642 12.0387843,9.33544139 C12.7741942,9.22853736 13.5241639,9.32167535 14.2131768,9.60536028 Z M14.3361096,9.99525992 C13.6457889,9.68644295 12.8900487,9.56228648 12.1399249,9.63443501 C11.7231042,9.66049734 11.3329099,9.88929178 11.0965824,10.2535785 C10.8771001,10.5918993 10.7878539,11.0104946 11.0771176,11.8502195 C11.7705578,13.5082051 13.0697704,14.8240807 14.7593632,15.54177 C16.1208346,16.0972318 15.9751352,16.0546383 17.219635,15.1301656 C17.4656406,14.9541814 17.647622,14.7046179 17.7466041,14.4242828 C17.8438012,14.1490032 17.8608841,13.8441511 17.7842361,13.548133 C17.6507816,12.8285527 17.3117153,12.1654268 16.8100958,11.6422424 C16.1032524,10.9233562 15.26182,10.3636138 14.3361096,9.99525992 Z" id="Shape" stroke="#02515D" stroke-width="0.583333333" fill="#21505B"></path>
                    <path d="M14.2201193,10.263021 C15.1036025,10.6191836 15.9059502,11.1573676 16.5772557,11.8440973 C17.0420628,12.3288867 17.3552594,12.9440901 17.4769829,13.6114063 C17.6064048,14.0945695 17.4248548,14.6087519 17.0234014,14.8960308 C15.9266266,15.7245756 16.0716239,15.7663829 14.792673,15.2494926 C13.2327897,14.5859132 11.9881052,13.3257881 11.3238903,11.7376787 C11.2703802,11.6235176 11.2292392,11.5037185 11.2012002,11.3804163 C11.0894288,11.0548693 11.1343442,10.6945056 11.3223997,10.4080115 C11.5104552,10.1215173 11.819637,9.94242976 12.1566955,9.92476186 C12.8614801,9.85535789 13.5719023,9.97181811 14.2201193,10.263021 L14.2201193,10.263021 Z" id="Path" fill="#FFD966" fill-rule="nonzero"></path>
                </g>
            </g>
        </g>
    </g>
</svg>