<?xml version="1.0" encoding="UTF-8"?>
<svg width="40px" height="40px" viewBox="0 0 40 40" version="1.1" xmlns="http://www.w3.org/2000/svg" xmlns:xlink="http://www.w3.org/1999/xlink">
    <title>Group 3</title>
    <g id="Symbols" stroke="none" stroke-width="1" fill="none" fill-rule="evenodd">
        <g id="課程/Tab1/Normal" transform="translate(-16.000000, -6.000000)">
            <g id="Group-3" transform="translate(16.000000, 6.000000)">
                <g id="Group-2" transform="translate(0.000000, 6.000000)">
                    <rect id="Rectangle" x="0" y="0" width="40" height="28"></rect>
                    <g id="Group-7" transform="translate(3.000000, 0.000000)">
                        <path d="M17.3626862,2.10275276 C17.2179817,2.12241631 17.0750692,2.15374646 16.9353186,2.19644284 C16.8388395,2.23024256 16.735265,2.23789389 16.6349403,2.21863259 C16.2026885,2.02878691 15.7704368,1.83154464 15.3503955,1.61457814 C15.0646698,1.46664644 14.8815122,1.23981783 14.9718699,0.924230198 L14.9718699,0.80095378 C14.9914067,0.256072011 14.7911545,0.122933479 14.314945,0.357158674 L14.2416819,0.3941416 C12.6836219,1.18311068 11.1157935,1.95482106 9.56750191,2.76597989 C8.10224171,3.53275921 6.65407621,4.32912487 5.21079491,5.13535265 C4.78935092,5.3891738 4.38174459,5.66571299 3.98974475,5.96377018 C3.75783476,6.13114591 3.59797979,6.38160678 3.54284039,6.66398024 C3.16187273,8.2690392 2.75404198,9.86916711 2.36330592,11.4742261 C1.55497071,14.8002238 0.653835691,18.1040319 0.028658006,21.4768747 C-0.0308799806,21.6724937 0.00344173784,21.8849589 0.121457819,22.0513428 C0.583014782,22.6652593 1.13248736,23.1731582 1.88709636,23.3605383 C2.44822268,23.5004351 3.02009927,23.5919884 3.59656659,23.634212 C3.92319516,23.652181 4.24615842,23.5574058 4.51235422,23.3654694 C6.76474616,21.8004374 8.92327764,20.1019975 10.9765938,18.2790844 C11.613982,17.7095473 12.3026543,17.1991829 12.9742319,16.6690943 C13.0656936,16.5945023 13.1770413,16.549021 13.294147,16.5384213 C13.6506937,16.5384213 13.7361672,16.4891108 13.8436196,16.1464023 C14.0064263,15.6138482 14.169233,15.0788286 14.3320397,14.5413434 C14.9523331,12.3782531 15.5693705,10.2143411 16.1831517,8.04960718 C16.6601753,6.38619737 17.1380129,4.72114388 17.6166646,3.05444671 C17.666093,2.88470327 17.6988128,2.71045044 17.7143486,2.53422022 C17.7376348,2.42771833 17.7111432,2.31632054 17.6425015,2.23210155 C17.5738598,2.14788257 17.4706858,2.10018883 17.3626862,2.10275276 Z" id="Path" fill="#D8D8D8" fill-rule="nonzero"></path>
                        <path d="M14.9669857,0.677677362 C14.876628,0.993264993 15.0597856,1.2200936 15.3455113,1.3680253 C15.7655526,1.5849918 16.1978043,1.78223407 16.6300561,1.97207975 C16.7303808,1.99134105 16.8339553,1.98368972 16.9304344,1.94989 C17.070185,1.90719362 17.2130975,1.87586348 17.357802,1.85619992 C17.46914,1.84721148 17.5780867,1.892156 17.6513299,1.97729093 C17.724573,2.06242586 17.7534017,2.17762617 17.7290012,2.28766739 C17.7134654,2.4638976 17.6807456,2.63815043 17.6313172,2.80789387 C17.1542936,4.47459105 16.676456,6.13964454 16.1978043,7.80305434 C15.5791389,9.96778825 14.9621015,12.1317003 14.3466923,14.2947905 C14.193654,14.8322757 14.0308473,15.3672954 13.8582722,15.8998495 C13.7508198,16.2425579 13.6653463,16.2820064 13.3087996,16.2918685 C13.1916939,16.3024682 13.0803462,16.3479495 12.9888845,16.4225415 C12.3173069,16.9526301 11.6286346,17.4629945 10.9912464,18.0325315 C8.93793024,19.8554447 6.77939876,21.5538846 4.52700682,23.1189166 C4.26081102,23.310853 3.93784776,23.4056282 3.61121919,23.3876591 C3.03475188,23.3454355 2.46287528,23.2538823 1.90174896,23.1139855 C1.14713996,22.9266053 0.597667384,22.4187065 0.136110421,21.8047899 C0.0180943398,21.638406 -0.0162273786,21.4259408 0.043310608,21.2303218 C0.663604093,17.857479 1.56962332,14.553671 2.37795853,11.2276732 C2.76869458,9.62261428 3.17652534,8.02248637 3.55749299,6.4174274 C3.61263239,6.13505395 3.77248736,5.88459307 4.00439735,5.71721734 C4.3963972,5.41916015 4.80400352,5.14262096 5.22544752,4.88879981 C6.66872881,4.08257204 8.11689431,3.28620637 9.58215451,2.51942705 C11.1304461,1.70826822 12.6982745,0.93655784 14.2563345,0.147588763 L14.3295976,0.110605837 C14.8058071,-0.123619357 15.0060593,0.00951917438 14.9865225,0.554400943 L14.9669857,0.677677362 Z M16.9035713,2.96815321 L16.8034452,2.9237737 C16.6837823,3.00760167 16.5592352,3.0889641 16.4420143,3.17032654 C15.631237,3.76205335 14.8448807,4.40309072 13.999914,4.94057591 C12.3881278,5.99335652 10.7519206,7.00915421 9.11571335,8.01755531 C8.84464021,8.18521124 8.66636688,8.34300505 8.71520889,8.69311008 C8.98628203,8.83857626 9.01314513,9.07033592 8.91301902,9.34894063 C8.86173491,9.48947574 8.82998761,9.63740745 8.7860298,9.78040809 C7.56823577,13.6710119 6.3471856,17.5632593 5.1228793,21.4571504 C5.0838057,21.5779613 5.05205839,21.7037033 4.99833218,21.893549 C5.19370021,21.7653415 5.32313153,21.6913756 5.44035234,21.6001511 C6.51487649,20.7717336 7.60161114,19.9556437 8.65659848,19.1025708 C9.97777476,18.0349971 11.2696458,16.9329059 12.5810537,15.85547 C12.7994656,15.6995862 13.0269943,15.5571486 13.2623997,15.4289336 C14.4785657,11.3115012 15.6996158,7.14229274 16.920666,2.96815321 L16.9035713,2.96815321 Z M4.3707124,6.2177196 C4.29012309,6.43961715 4.23395478,6.56042804 4.20220748,6.68863552 C4.04591305,7.29762103 3.89694493,7.90660653 3.74797681,8.51559204 C3.31816715,10.2636517 2.9030101,12.0166423 2.45610574,13.7622364 C1.82848595,16.2080405 1.23505557,18.6612413 0.746635504,21.1415628 C0.695363428,21.3252081 0.746784023,21.5224809 0.880951022,21.6568582 C1.19815058,22.0546146 1.63414549,22.3382654 2.12398009,22.4655515 C2.66368427,22.5789658 3.21559894,22.6455351 3.76262942,22.7121044 C3.85204137,22.7053073 3.93366649,22.6582169 3.98486055,22.5838969 C4.03947743,22.4902648 4.07981734,22.3888631 4.10452346,22.2831024 C4.64666974,20.6238018 5.20346861,18.9694323 5.72852018,17.3027351 C6.50755019,14.8372068 7.26460129,12.3519542 8.0265366,9.8765637 C8.07846721,9.75115161 8.10901716,9.61777634 8.11689431,9.48207916 C8.11689431,9.21333657 8.0631681,8.94952503 8.0314208,8.6684548 C7.25893391,8.60164777 6.50953828,8.36878776 5.8335305,7.98550344 C5.39019254,7.76903471 5.03593762,7.40265804 4.83226936,6.94998153 C4.69722456,6.69539465 4.54462436,6.45070453 4.3755966,6.2177196 L4.3707124,6.2177196 Z M14.6275338,1.75757879 L5.57466786,6.95491258 C5.72119388,7.06832689 5.80178319,7.13982721 5.89214091,7.20146542 C6.43552311,7.56086459 7.04521722,7.80574006 7.68464255,7.9213997 C7.8039958,7.93435149 7.92437622,7.90935487 8.0289787,7.84989938 C8.42459895,7.642795 8.82021921,7.43075956 9.20118686,7.19899989 C11.2696458,5.93171831 13.3405469,4.66690226 15.2820167,3.19991288 C15.557974,2.99034297 15.8290472,2.775842 16.117215,2.55394445 L14.6275338,1.75757879 Z M5.26452112,6.30401309 C5.77980429,6.02540839 6.27066646,5.77145897 6.75176022,5.49778532 C7.83361067,4.87647217 8.90813482,4.24529691 9.98754317,3.6190527 L13.8949037,1.35816319 C13.9913532,1.30772081 14.082923,1.24828979 14.1684189,1.18064515 C14.210033,1.12613115 14.2429888,1.06540979 14.2661029,1.00066158 C14.1256623,1.00204314 13.9878636,1.03936817 13.8655985,1.10914483 C12.3539384,1.87345862 10.834952,2.62297924 9.33550238,3.41194832 C8.0289787,4.09736521 6.74199182,4.8271616 5.44767865,5.5396993 C5.28650002,5.62845832 5.139974,5.74187263 4.95925858,5.85775246 L5.26452112,6.30401309 Z" id="Shape" fill="#D8D8D8" fill-rule="nonzero"></path>
                        <path d="M16.920666,2.96815321 C15.6996158,7.14229274 14.4785657,11.3164323 13.2892628,15.4363302 C13.0538574,15.5645452 12.8263287,15.7069828 12.6079168,15.8628666 C11.2965089,16.9403025 10.0046379,18.0423936 8.68346159,19.1099674 C7.62847424,19.9630402 6.54173959,20.7791301 5.46721545,21.6075477 C5.34999463,21.6987722 5.22300541,21.7727381 5.02519529,21.9009455 C5.0789215,21.7086343 5.1106688,21.5853579 5.1497424,21.464547 C6.36590837,17.5722996 7.58695854,13.6800521 8.8128929,9.78780468 C8.85685071,9.64480403 8.88859802,9.49687233 8.93988212,9.35633721 C9.04000824,9.07773251 9.01314513,8.84597284 8.742072,8.70050667 C8.69322999,8.35040164 8.87150331,8.19260782 9.14257645,8.02495189 C10.7836679,7.01655079 12.4198751,6.00075311 14.0267771,4.94797249 C14.8668596,4.4006252 15.6532159,3.76944993 16.4688774,3.17772313 C16.5885404,3.0889641 16.7130875,3.00760167 16.8303083,2.93117029 L16.920666,2.96815321 Z" id="Path" fill="#FFFFFF"></path>
                        <path d="M4.3755966,6.2177196 C4.55582428,6.45208285 4.71905537,6.6992784 4.86401667,6.95737811 C5.06768493,7.41005462 5.42193984,7.7764313 5.8652778,7.99290003 C6.54128558,8.37618434 7.29068121,8.60904435 8.0631681,8.67585138 C8.09491541,8.95692162 8.13887321,9.22073315 8.14864161,9.48947574 C8.14076446,9.62517293 8.11021451,9.75854819 8.0582839,9.88396028 C7.2963486,12.3494886 6.53929749,14.8396723 5.76026749,17.3101317 C5.23521592,18.9768289 4.67841704,20.6311984 4.13627077,22.290499 C4.11156464,22.3962597 4.07122473,22.4976614 4.01660785,22.5912935 C3.96541379,22.6656135 3.88378868,22.7127039 3.79437672,22.719501 C3.24734625,22.6504662 2.69543157,22.5838969 2.1557274,22.4729481 C1.6658928,22.345662 1.22989788,22.0620112 0.912698327,21.6642548 C0.778531328,21.5298775 0.727110732,21.3326047 0.778382808,21.1489594 C1.25459237,18.6686379 1.85046485,16.2179027 2.48785304,13.769633 C2.9347574,12.0240389 3.34991446,10.2710482 3.77972412,8.52298862 C3.92869224,7.91400312 4.07766036,7.30501761 4.23395478,6.69603211 C4.23883898,6.56042804 4.29500729,6.43961715 4.3755966,6.2177196 Z M1.56718122,20.1405583 C1.62136512,20.3172884 1.70386095,20.4838629 1.81139125,20.633664 C2.05545555,20.869373 2.32214406,21.0799802 2.60751596,21.2623737 C2.70497805,21.3298179 2.82779782,21.3481259 2.94040709,21.3119957 C3.05301635,21.2758656 3.14283492,21.1893336 3.18385164,21.0774591 C3.2682166,20.9060776 3.33609264,20.7269161 3.38654596,20.5424394 C3.84810293,18.9151907 4.31698619,17.2904075 4.75412215,15.6557622 C5.15462661,14.1764452 5.51849956,12.6675418 5.89458301,11.1734316 C6.02157222,10.6803259 5.94586711,10.4978768 5.48186805,10.2488585 C5.31490817,10.1551569 5.14195003,10.0727902 4.96414278,10.0023056 C4.68085914,9.8938224 4.53433312,9.95792613 4.43176491,10.2488585 C4.3658282,10.4411697 4.31942829,10.6408775 4.26325998,10.8381198 C3.41340907,13.7145695 2.56518622,16.5910193 1.71859144,19.467469 C1.66730733,19.677039 1.63067582,19.8767468 1.56718122,20.1405583 Z" id="Shape" fill="#FFFFFF"></path>
                        <path d="M14.632418,1.75757879 L16.1220992,2.55394445 C15.8339314,2.775842 15.5628582,2.99034297 15.2869009,3.19991288 C13.3454311,4.6792299 11.27453,5.93171831 9.20607106,7.19899989 C8.82510341,7.43075956 8.42948315,7.642795 8.0338629,7.84989938 C7.92926042,7.90935487 7.80888,7.93435149 7.68952675,7.9213997 C7.05010143,7.80574006 6.44040731,7.56086459 5.89702511,7.20146542 C5.80666739,7.13982721 5.72607808,7.06832689 5.57955206,6.95491258 L14.632418,1.75757879 Z" id="Path" fill="#FFFFFF" fill-rule="nonzero"></path>
                        <path d="M5.26940532,6.30401309 L4.96902698,5.85775246 C5.1448582,5.74187263 5.29138422,5.62845832 5.45744705,5.5396993 C6.75176022,4.8271616 8.0387471,4.09736521 9.34527078,3.41194832 C10.8447204,2.62297924 12.3637068,1.87345862 13.8753669,1.10914483 C13.997632,1.03936817 14.1354307,1.00204314 14.2758714,1.00066158 C14.2527572,1.06540979 14.2198014,1.12613115 14.1781873,1.18064515 C14.0926914,1.24828979 14.0011216,1.30772081 13.9046721,1.35816319 L9.99731157,3.6190527 C8.91790322,4.24529691 7.84337907,4.87647217 6.76152862,5.49778532 C6.27555066,5.77145897 5.78468849,6.02540839 5.26940532,6.30401309 Z" id="Path" fill="#FFFFFF"></path>
                        <path d="M1.56718122,20.1405583 C1.63067582,19.8767468 1.66730733,19.677039 1.72591774,19.4797967 C2.57414059,16.6033469 3.42236344,13.7268972 4.27058628,10.8504474 C4.32675459,10.6532051 4.3731545,10.4534973 4.43909121,10.2611861 C4.54165942,9.97025378 4.68330124,9.90615004 4.97146908,10.0146333 C5.14927634,10.0851178 5.32223447,10.1674845 5.48919435,10.2611861 C5.95319341,10.507739 6.02889852,10.6827915 5.90190931,11.1857593 C5.52582586,12.6798695 5.16927921,14.1789107 4.76144845,15.6680898 C4.32431249,17.3027351 3.85542923,18.9275183 3.39387227,20.5547671 C3.34341894,20.7392438 3.2755429,20.9184052 3.19117794,21.0897867 C3.15016122,21.2016612 3.06034265,21.2881932 2.94773339,21.3243234 C2.83512412,21.3604535 2.71230435,21.3421455 2.61484226,21.2747013 C2.32947036,21.0923079 2.06278186,20.8817006 1.81871755,20.6459916 C1.70740389,20.4929389 1.62237306,20.3220793 1.56718122,20.1405583 L1.56718122,20.1405583 Z M5.00810059,10.8183955 C4.96170068,10.9539996 4.90553237,11.0920692 4.86645877,11.2326043 C4.3487335,13.0151813 3.83833453,14.7977583 3.31572505,16.5778698 C3.00557831,17.638047 2.67589477,18.6932931 2.36330592,19.7534703 C2.24120091,20.1676791 2.27050611,20.2071276 2.69787367,20.4093009 C2.74427358,20.2860245 2.80044188,20.162748 2.83463129,20.0394716 C3.45492477,17.7465302 4.07359019,15.4544107 4.69062754,13.163113 C4.87134297,12.4924893 5.02275319,11.8120035 5.19614231,11.1389142 C5.24010012,10.9712583 5.25963692,10.8430508 5.00810059,10.8183955 Z" id="Shape" fill="#D8D8D8" fill-rule="nonzero"></path>
                        <path d="M5.00810059,10.8183955 C5.25231062,10.8430508 5.24010012,10.9712583 5.19614231,11.1389142 C5.02275319,11.8120035 4.87134297,12.4924893 4.69062754,13.163113 C4.07847439,15.4642728 3.45980897,17.7563924 2.83463129,20.0394716 C2.80044188,20.1652136 2.74427358,20.2860245 2.69787367,20.4093009 C2.27050611,20.2071276 2.24120091,20.162748 2.36330592,19.7534703 C2.67589477,18.6932931 3.00557831,17.638047 3.31572505,16.5778698 C3.83833453,14.7977583 4.3487335,13.0151813 4.86645877,11.2326043 C4.90553237,11.0920692 4.95437438,10.9539996 5.00810059,10.8183955 Z" id="Path" fill="#FFFFFF"></path>
                        <path d="M33.7027795,12.6009725 C33.0995807,11.595037 32.449982,10.6285498 31.9053937,9.58316582 C30.7649328,7.40610427 29.6635456,5.20685297 28.579253,3.00020508 C28.310622,2.45039226 28.0053594,2.01399374 27.387508,1.86606203 C27.1508541,1.79547635 26.9211409,1.70303971 26.7012778,1.58992286 C26.5689514,1.53192958 26.4462303,1.45376548 26.3374049,1.35816319 C25.9808582,1.03517897 25.8343322,1.00805816 25.4289436,1.25707653 C24.4550047,1.84076613 23.5747248,2.57070104 22.8183383,3.42181043 C21.0746787,5.41888841 19.9244494,7.7389506 19.1234405,10.251324 C19.0697143,10.4214455 19.0184302,10.5915669 18.9524935,10.7937403 C18.2306055,10.4010933 17.4529981,10.1233259 16.6471508,9.97025378 C14.2465661,9.4598894 11.8435394,9.3464751 9.43807059,9.90861557 C8.7689351,10.0664094 8.08514701,10.1872203 7.48439032,10.554584 C7.14982258,10.7567573 6.82013903,10.9392064 6.67117091,11.3632773 C6.45138188,11.9993836 6.18275085,12.6133002 5.90679351,13.2321478 C5.74398251,13.6160246 5.73262547,14.0482042 5.8750462,14.4402567 C6.29264536,15.7124693 6.67605511,16.9945441 7.09609637,18.2618257 C7.95815779,20.8333718 8.83975601,23.3950557 9.71647003,25.9616708 C9.78954067,26.1985544 9.88438099,26.4280246 9.99975367,26.6470876 C10.2048901,27.0070548 10.5174789,27.0884172 10.8178573,26.9059681 C11.2818563,26.6273634 11.7385291,26.3339655 12.2147387,26.0824817 C13.2813145,25.4950886 14.421462,25.055553 15.6043739,24.7757516 C16.7228559,24.5291988 17.8486641,24.3073012 18.9744724,24.0928003 C20.0099229,23.895558 21.0502577,23.7944713 22.0930345,24.0558173 C22.7279806,24.2185422 22.8574119,24.1421108 23.0161484,23.4813492 C23.1187167,23.0498818 23.2066323,22.6134832 23.3140847,22.117912 C23.7097049,22.2658437 24.0613674,22.4039133 24.4154719,22.5296553 C24.928313,22.7121044 25.0943758,22.6677249 25.3312596,22.1869468 C25.9539951,20.9319929 26.8209408,19.854557 27.7171916,18.7993109 C28.0397486,18.4259902 28.3917497,18.0796821 28.7697368,17.7637889 C30.1153341,16.6099217 31.475584,15.4708476 32.8333918,14.3268424 C33.1590052,14.0539906 33.4846185,13.7836043 33.8102319,13.5156836 C33.9739031,13.4100841 34.0283773,13.1944104 33.934779,13.0225779 C33.8657169,12.8775633 33.7882495,12.7367842 33.7027795,12.6009725 Z" id="Path" fill="#D8D8D8"></path>
                        <path d="M23.321411,21.8664281 C23.2139586,22.3595338 23.126043,22.7983979 23.0234747,23.2298653 C22.8647382,23.8906269 22.7353069,23.9695238 22.1003608,23.8043334 C21.057584,23.5429874 20.0172492,23.6440741 18.9817987,23.8413164 C17.8559904,24.0558173 16.7301822,24.2801804 15.6117002,24.5242677 C14.4287883,24.8040692 13.2886408,25.2436047 12.222065,25.8309978 C11.7458554,26.0775506 11.2891826,26.3758795 10.8251836,26.6544842 C10.5248052,26.8369333 10.2122164,26.7555709 10.00708,26.3956038 C9.89127756,26.1758892 9.7964231,25.9455593 9.72379633,25.7077213 C8.84708231,23.1435718 7.96548409,20.5818879 7.10342267,18.0103418 C6.67605511,16.7430602 6.29264536,15.4609854 5.8823725,14.1887728 C5.73995178,13.7967203 5.75130881,13.3645407 5.91411981,12.9806639 C6.17786665,12.3618163 6.45870818,11.7478997 6.67849721,11.1117934 C6.82746533,10.6877225 7.16691728,10.5052734 7.49171662,10.3031001 C8.09247331,9.93573638 8.7762614,9.80999443 9.44539689,9.65713167 C11.8508657,9.09499121 14.2538924,9.20840551 16.6544771,9.71876988 C17.4603244,9.87184197 18.2379318,10.1496094 18.9598198,10.5422564 C19.0257565,10.340083 19.0770406,10.1699616 19.1307668,9.99984012 C19.9317757,7.48746671 21.0844471,5.16740452 22.8256646,3.17032654 C23.5824089,2.32096762 24.4626702,1.59271089 25.4362699,1.01052369 C25.8416585,0.763970855 25.9881845,0.788626138 26.3447312,1.11161035 C26.4535566,1.20721264 26.5762777,1.28537674 26.7086041,1.34337002 C26.9284672,1.45648687 27.1581804,1.54892351 27.3948343,1.6195092 C28.0126857,1.76990643 28.3179483,2.20383942 28.5865793,2.75365225 C29.6708719,4.97262778 30.7722591,7.15955144 31.91272,9.33661299 C32.4573083,10.3721349 33.106907,11.3484841 33.7101058,12.3544197 C33.799914,12.4915217 33.8814649,12.6339582 33.9543158,12.7809561 C34.0479141,12.9527886 33.9934399,13.1684624 33.8297687,13.2740618 C33.4976431,13.5378733 33.1704016,13.811547 32.8529286,14.0852206 C31.4951208,15.2292258 30.1348709,16.3682999 28.7892736,17.5221672 C28.4112865,17.8380603 28.0592854,18.1843684 27.7367284,18.5576891 C26.8404776,19.6129352 25.9735319,20.6903711 25.3507964,21.9453251 C25.1065863,22.4384307 24.9478498,22.4704826 24.4350087,22.2880335 C24.0686937,22.159826 23.7170312,22.0143598 23.321411,21.8664281 Z M22.2932867,21.0602004 C22.154087,20.5670947 22.0490767,20.1430238 21.9172033,19.7411427 C20.9680403,17.0487857 20.0099229,14.3580724 19.0428512,11.6690028 C18.9663834,11.4914317 18.8398325,11.3405148 18.6789783,11.2350698 C18.1262923,10.8747119 17.5076412,10.6299077 16.8596135,10.5151355 C15.9267312,10.3450141 14.9914067,10.1699616 14.048756,10.0688749 C12.0670398,9.87687369 10.0676361,10.1199449 8.18771522,10.7814126 C7.82019378,10.8972398 7.49091094,11.1120483 7.23529609,11.4027258 L11.4576876,23.5627117 C11.5509473,23.5520138 11.6432216,23.5338766 11.7336449,23.50847 C12.6176852,23.1608305 13.5188202,22.8477084 14.3784396,22.4482928 C16.5396984,21.4398917 18.7742202,20.8728202 21.1772469,21.0207519 C21.5289093,21.0429417 21.8683613,21.0454072 22.2932867,21.0602004 Z M19.5703449,11.0920692 C20.1247016,12.5837138 20.7303425,14.1715141 21.301794,15.7765731 C21.8732455,17.381632 22.4153918,19.0039497 23.0112642,20.7076298 C23.9343782,18.8116385 25.2433439,17.3125973 26.535215,15.8110905 C27.8270861,14.3095837 29.4657354,13.0990093 31.0970584,11.9771939 C30.5842174,10.5595151 26.2275104,2.13480463 25.7732797,1.68607846 C25.0483735,2.09489689 24.3827423,2.60264296 23.7951784,3.19498182 C22.4949792,4.55436128 21.4513907,6.14186336 20.7156899,7.87948572 C20.3835643,8.61914423 20.1247016,9.38345802 19.8487443,10.1428408 C19.7364077,10.4165144 19.6753552,10.7049812 19.5679028,11.0920692 L19.5703449,11.0920692 Z M31.7808465,12.3593508 C31.3705737,12.6626108 30.9993744,12.9584742 30.6086384,13.2222857 C29.5079345,13.971156 28.481545,14.8257411 27.5438025,15.7741076 C26.4228784,16.8934574 25.511975,18.1903254 24.5497875,19.4403482 C24.2171574,19.9360377 23.9200905,20.4551245 23.6608629,20.9936311 C23.9368203,21.4250986 24.3299984,21.4694781 24.7060819,21.5779613 C24.7891133,21.4275641 24.85505,21.2968911 24.9307551,21.1686836 C25.748697,19.7160638 26.7767431,18.3947871 27.9809384,17.2484935 C29.016389,16.2918685 30.1397551,15.4313991 31.2191635,14.5216191 C31.7539834,14.0704274 32.2765929,13.6069081 32.8431602,13.1138024 L31.7808465,12.3593508 Z M22.5838967,21.814652 L21.033163,21.7431517 C19.0178061,21.6671965 17.0122228,22.0611935 15.1721222,22.8945535 C14.1488821,23.3334175 13.1134316,23.7426952 12.0828653,24.1667661 C11.980297,24.2086801 11.8386552,24.2284043 11.7800448,24.3073012 C11.5355047,24.6739593 11.3546425,25.080009 11.2452248,25.5080135 C11.4528034,25.4019958 11.5920031,25.3206334 11.7336449,25.2614607 C12.7422323,24.8275277 13.7190725,24.2900425 14.7667335,23.9991102 C16.2612989,23.5824359 17.7998221,23.3284865 19.3285769,23.0474162 C20.3204695,22.8573457 21.340528,22.8758107 22.325034,23.1016579 L22.5838967,21.814652 Z M10.9619412,24.2308698 C10.8666993,24.0139034 10.7690153,23.8215921 10.7006365,23.6218843 C9.99242737,21.5771395 9.2874744,19.5332165 8.58577757,17.4901153 C8.08270491,16.0403846 7.5763761,14.5914758 7.06679117,13.1433888 C7.01550706,12.9979226 6.94468615,12.8573875 6.85432844,12.6502831 C6.5637185,13.1606475 6.40253988,13.5921149 6.62477101,14.1098759 C6.77862333,14.4723086 6.86898104,14.8643276 6.98864396,15.2415534 C8.05177163,18.4352345 9.11734141,21.6280937 10.1853533,24.8201311 C10.2415216,24.9877871 10.3123425,25.1480464 10.4027002,25.374875 L10.9619412,24.2308698 Z M32.6233712,12.0117113 C32.5208029,11.8218656 32.4792872,11.7355721 32.4280031,11.6517441 C31.961562,10.8553785 31.451163,10.0812026 31.0360059,9.26264713 C29.9248503,7.10777534 28.8381156,4.93564485 27.7684757,2.76351436 C27.6440635,2.49916918 27.371298,2.33942787 27.0822455,2.36163324 L27.9198859,3.99134749 C28.8063683,5.7048897 29.7026192,7.41350086 30.5793332,9.13197413 C30.9627429,9.87163264 31.3119633,10.6482741 31.6611836,11.4125879 C31.7142398,11.5877081 31.8590524,11.7187201 32.0372671,11.7528308 C32.2407706,11.8189803 32.4371354,11.905714 32.6233712,12.0117113 L32.6233712,12.0117113 Z" id="Shape" fill="#D8D8D8" fill-rule="nonzero"></path>
                        <path d="M22.2932867,21.0602004 C21.8708034,21.0454072 21.5313514,21.0429417 21.1894574,21.0207519 C18.7961991,20.8728202 16.5494668,21.4398917 14.3906501,22.4482928 C13.5310307,22.8477084 12.6298957,23.1608305 11.7458554,23.50847 C11.6554321,23.5338766 11.5631578,23.5520138 11.4698981,23.5627117 L7.24750659,11.4027258 C7.50312144,11.1120483 7.83240429,10.8972398 8.19992572,10.7814126 C10.0798466,10.1199449 12.0792503,9.87687369 14.0609665,10.0688749 C15.0036172,10.1699616 15.9389417,10.3450141 16.871824,10.5151355 C17.5198517,10.6299077 18.1385028,10.8747119 18.6911888,11.2350698 C18.8520431,11.3405148 18.9785939,11.4914317 19.0550617,11.6690028 C20.0319018,14.3564287 20.9900192,17.047142 21.9294138,19.7411427 C22.0490767,20.1430238 22.1516449,20.5621636 22.2932867,21.0602004 Z M19.6289553,15.8308147 C19.6973341,15.7445212 19.8463022,15.6385035 19.8487443,15.5300202 C19.8254189,15.3913688 19.744563,15.26937 19.6265132,15.1947084 C19.5102261,15.1347732 19.3809527,15.105111 19.2504297,15.1084149 C16.5201137,14.8339627 13.7663983,15.2915067 11.2672037,16.4348692 C11.1912883,16.4652349 11.1198132,16.5058772 11.054741,16.55568 C10.9105722,16.6500971 10.857424,16.8373742 10.9301939,16.9945441 C10.9967913,17.1561728 11.1773953,17.2364877 11.3404667,17.1769932 C11.4503613,17.1449413 11.5529295,17.0956308 11.6603819,17.0537168 C12.2586965,16.8293537 12.8448006,16.5606111 13.4553256,16.3880241 C15.2469547,15.8557076 17.1201906,15.6601519 18.9817987,15.8110905 C19.1747246,15.8283492 19.3627663,15.8234181 19.6265132,15.8308147 L19.6289553,15.8308147 Z M10.1267429,12.6749384 C10.053884,12.7051715 9.98363602,12.7414571 9.91672226,12.7834216 C9.84173632,12.8208027 9.78505088,12.8873876 9.75971328,12.9678504 C9.73437569,13.0483132 9.74256878,13.1357221 9.78240674,13.209958 C9.87272515,13.3168102 9.99131399,13.3954876 10.1243008,13.4367867 C10.1853533,13.4614419 10.2805952,13.4121314 10.3685108,13.3924071 C12.0779811,12.9609397 13.8069881,12.7316455 15.5653003,13.0225779 C16.4517827,13.1680441 17.3284968,13.3702174 18.2125371,13.5428044 C18.6032731,13.6192358 18.8279464,13.5428044 18.86702,13.2962515 C18.9060936,13.0496987 18.7424729,12.9313533 18.3785999,12.8327322 C16.9767298,12.4321431 15.5317803,12.2052904 14.0756191,12.1571774 C12.7300218,12.1325222 11.4308245,12.3963337 10.1243008,12.6749384 L10.1267429,12.6749384 Z M14.2978503,19.0384671 C13.877809,19.243106 13.2404208,19.5439004 12.612801,19.8644191 C12.5023032,19.9031275 12.4146112,19.9894929 12.3735436,20.1000571 C12.332476,20.2106212 12.3422967,20.3339047 12.4003383,20.4364217 C12.5126749,20.6164053 12.6982745,20.6410605 12.9620214,20.5103875 C13.0352844,20.4734046 13.1036632,20.4265596 13.1793683,20.3920422 C13.7482291,20.1014907 14.3337441,19.8454432 14.9327963,19.6252629 C16.6422666,19.112433 18.3517368,18.7524658 20.1540069,18.8856044 C20.250694,18.9055299 20.3503718,18.9055299 20.4470589,18.8856044 C20.5740481,18.8387593 20.7449951,18.7746556 20.7889529,18.6735689 C20.8671001,18.4935853 20.7132478,18.3456536 20.5569534,18.2988086 C20.2937917,18.2116804 20.020321,18.1602755 19.743734,18.1459458 C17.9536745,18.0917042 16.2295516,18.4615335 14.2954082,19.0384671 L14.2978503,19.0384671 Z" id="Shape" fill="#FFFFFF"></path>
                        <path d="M19.5679028,11.0920692 C19.6753552,10.7049812 19.7364077,10.4165144 19.8365338,10.1428408 C20.1124911,9.38345802 20.3713538,8.61421317 20.7034794,7.87948572 C21.4391802,6.14186336 22.4827687,4.55436128 23.7829679,3.19498182 C24.3705318,2.60264296 25.036163,2.09489689 25.7610692,1.68607846 C26.2152999,2.13480463 30.5720069,10.5619806 31.0848479,11.9771939 C29.4510828,13.0965437 27.8392966,14.2824629 26.5230045,15.8110905 C25.2067124,17.3397181 23.9221677,18.8116385 22.9990537,20.7076298 C22.4129497,18.9965531 21.8732455,17.376701 21.2895835,15.7765731 C20.7059215,14.1764452 20.1222595,12.5837138 19.5679028,11.0920692 Z M29.8833346,10.1600995 C29.8051874,9.91354662 29.6073772,9.82725313 29.4217776,9.92833979 C29.2959117,10.0055982 29.1788066,10.0965432 29.0725573,10.1995479 C28.5426215,10.6655328 28.0297804,11.1512419 27.48275,11.5975025 C26.2591635,12.6186499 25.1466336,13.7683005 24.1639356,15.0270525 C23.898384,15.3820552 23.6537513,15.7525246 23.4313055,16.1365402 C23.3379627,16.2891486 23.268753,16.4555143 23.2261691,16.6296459 C23.1872699,16.7301798 23.1941294,16.8428975 23.244926,16.9378676 C23.2957226,17.0328378 23.3853162,17.1004505 23.4899159,17.1227516 C23.7341259,17.1745277 23.8342521,17.0241304 23.9319361,16.8293537 C24.1248627,16.4131547 24.3519568,16.0139894 24.61084,15.636038 C25.5638793,14.3744215 26.6550969,13.2255911 27.8637176,12.2114191 C28.4180744,11.7478997 28.9528944,11.2621906 29.4925985,10.7814126 C29.6065999,10.6874441 29.7061795,10.5769388 29.7880927,10.4534973 C29.8317273,10.3600474 29.8637186,10.2614966 29.8833346,10.1600995 Z M27.8441808,7.23844835 C27.7416126,7.02641291 27.5999708,6.9302573 27.4290237,7.01161974 C27.251886,7.09844614 27.0875168,7.20962997 26.9406037,7.34200054 C25.8874597,8.30366711 24.9055471,9.34197048 24.002757,10.4485663 C23.2020306,11.4317242 22.5441888,12.5250856 22.0490767,13.6956671 C21.9798159,13.8445431 21.9305392,14.0020831 21.9025507,14.1641175 C21.8620422,14.3689252 21.9929759,14.5683116 22.1956027,14.6103782 C22.3982462,14.6390134 22.589385,14.5078774 22.6376229,14.3071182 C22.6871819,14.1172158 22.7475201,13.9303488 22.8183383,13.7474432 C23.3275002,12.5801393 24.0202238,11.5036104 24.8697026,10.5595151 C25.6853641,9.68178696 26.5278887,8.8336452 27.3582028,7.96331369 C27.4898023,7.84037468 27.6130033,7.70857824 27.72696,7.56882915 C27.7799673,7.46426008 27.8193672,7.35321352 27.8441808,7.23844835 L27.8441808,7.23844835 Z M25.829448,4.79757526 C25.707343,4.74579917 25.6047748,4.6619712 25.511975,4.67429884 C25.3664202,4.6912392 25.2280725,4.74744985 25.1114705,4.83702372 C24.7043108,5.14079366 24.3213567,5.47631082 23.9661255,5.84049376 C22.6552691,7.30354662 21.5947464,8.97666642 20.8280265,10.7912747 C20.7627563,10.9051831 20.72354,11.0323846 20.7132478,11.1635695 C20.7224385,11.3031345 20.7899051,11.4321924 20.8988475,11.5186056 C21.0330248,11.5520181 21.1748043,11.5316958 21.2944677,11.4618984 C21.3652886,11.427381 21.4092464,11.3065702 21.4409937,11.2153456 C21.7989548,10.2901663 22.2558925,9.40720721 22.8036857,8.58216131 C23.5363158,7.4085698 24.3348826,6.27442675 25.4753435,5.44354369 C25.5806018,5.36565082 25.6687404,5.26659302 25.7342061,5.15261135 C25.7809339,5.03888994 25.812945,4.91956107 25.829448,4.79757526 L25.829448,4.79757526 Z" id="Shape" fill="#FFFFFF"></path>
                        <path d="M31.7710781,12.3593508 L32.8431602,13.1138024 C32.2765929,13.6069081 31.7539834,14.0704274 31.2191635,14.5216191 C30.1397551,15.4313991 29.0212732,16.2918685 27.9809384,17.2484935 C26.7763569,18.3962897 25.748293,19.7192512 24.9307551,21.1736147 C24.85505,21.3018221 24.7891133,21.4201675 24.7060819,21.5828924 C24.3299984,21.4744091 23.9368203,21.4300296 23.6608629,20.9985622 C23.9200905,20.4600555 24.2171574,19.9409687 24.5497875,19.4452793 C25.511975,18.1952564 26.4228784,16.8983885 27.5438025,15.7790386 C28.4774644,14.8295815 29.4997496,13.9733578 30.5964279,13.2222857 C30.989606,12.9584742 31.3608053,12.6626108 31.7710781,12.3593508 Z" id="Path" fill="#FFFFFF"></path>
                        <path d="M22.5838967,21.814652 L22.3225919,23.0967268 C21.3380859,22.8708796 20.3180274,22.8524146 19.3261348,23.0424852 C17.79738,23.3235554 16.2588568,23.5775048 14.7642914,23.9941791 C13.7166304,24.2851115 12.7397902,24.8225967 11.7312028,25.2565296 C11.5822347,25.3206334 11.443035,25.4019958 11.2427827,25.5030825 C11.3522004,25.0750779 11.5330626,24.6690283 11.7776027,24.3023702 C11.8240026,24.2234733 11.9778549,24.203749 12.0804232,24.1618351 C13.1109895,23.7377642 14.14644,23.3284865 15.1696801,22.8896224 C17.0097807,22.0562624 19.015364,21.6622655 21.0307209,21.7382207 L22.5838967,21.814652 Z" id="Path" fill="#FFFFFF"></path>
                        <path d="M10.9619412,24.2308698 L10.4027002,25.3773405 C10.3123425,25.1505119 10.2415216,24.9902526 10.1853533,24.8225967 C9.11734141,21.6289156 8.05177163,18.4360563 6.98864396,15.244019 C6.86165474,14.8667931 6.77862333,14.4747741 6.62477101,14.1123414 C6.40253988,13.5945805 6.5637185,13.163113 6.85432844,12.6527486 C6.94468615,12.8573875 7.01550706,12.9979226 7.06679117,13.1458543 C7.57474804,14.595585 8.08107684,16.0444938 8.58577757,17.4925808 C9.29073054,19.5373257 9.9956835,21.5812487 10.7006365,23.6243499 C10.7690153,23.8215921 10.8666993,24.0139034 10.9619412,24.2308698 Z" id="Path" fill="#FFFFFF"></path>
                        <path d="M32.6233712,12.0117113 C32.4366548,11.9099597 32.240305,11.8273624 32.0372671,11.7651584 C31.8590524,11.7310477 31.7142398,11.6000357 31.6611836,11.4249155 C31.3095212,10.6606017 30.9627429,9.8938224 30.5793332,9.14430177 C29.7026192,7.41843192 28.8063683,5.71721734 27.9198859,4.00367513 L27.0822455,2.37396088 C27.371298,2.35175551 27.6440635,2.51149683 27.7684757,2.775842 C28.847884,4.94797249 29.9248503,7.12010298 31.0360059,9.27497478 C31.4560472,10.0935302 31.961562,10.8677061 32.4280031,11.6640718 C32.4792872,11.7355721 32.5208029,11.8218656 32.6233712,12.0117113 Z" id="Path" fill="#FFFFFF"></path>
                        <path d="M19.6265132,15.8308147 C19.3700926,15.8308147 19.1747246,15.8308147 18.9793566,15.8110905 C17.1177485,15.6601519 15.2445126,15.8557076 13.4528835,16.3880241 C12.8423585,16.5680077 12.2562544,16.8293537 11.6579398,17.0537168 C11.5504874,17.0956308 11.4479192,17.1449413 11.3380246,17.1769932 C11.1749532,17.2364877 10.9943492,17.1561728 10.9277518,16.9945441 C10.8549819,16.8373742 10.9081301,16.6500971 11.0522989,16.55568 C11.1173711,16.5058772 11.1888462,16.4652349 11.2647616,16.4348692 C13.7639562,15.2915067 16.5176716,14.8339627 19.2479876,15.1084149 C19.3785106,15.105111 19.507784,15.1347732 19.6240711,15.1947084 C19.7421209,15.26937 19.8229768,15.3913688 19.8463022,15.5300202 C19.8511864,15.6385035 19.694892,15.7494523 19.6265132,15.8308147 Z" id="Path" fill="#D8D8D8" fill-rule="nonzero"></path>
                        <path d="M10.1243008,12.6749384 C11.4308245,12.3963337 12.7300218,12.1325222 14.0658507,12.1670396 C15.5220119,12.2151525 16.9669614,12.4420052 18.3688315,12.8425943 C18.7302624,12.9412155 18.8889989,13.1014748 18.8572516,13.3061137 C18.8255043,13.5107525 18.5935047,13.6192358 18.2027687,13.5526665 C17.3187284,13.3800795 16.4420143,13.1779062 15.5555319,13.03244 C13.7972197,12.7415077 12.0706547,12.9708018 10.3587424,13.4022693 C10.2805952,13.4219935 10.1853533,13.4713041 10.1145324,13.4466488 C9.98154558,13.4053497 9.86295674,13.3266723 9.77263834,13.2198202 C9.73280038,13.1455842 9.72460729,13.0581753 9.74994488,12.9777125 C9.77528248,12.8972497 9.83196792,12.8306648 9.90695385,12.7932838 C9.97587113,12.7475545 10.0485936,12.7079572 10.1243008,12.6749384 L10.1243008,12.6749384 Z" id="Path" fill="#D8D8D8" fill-rule="nonzero"></path>
                        <path d="M14.2954082,19.0384671 C16.2295516,18.4590679 17.9585587,18.0917042 19.7412919,18.1336182 C20.0178789,18.1479478 20.2913496,18.1993527 20.5545113,18.286481 C20.7108057,18.333326 20.864658,18.4812577 20.7865108,18.6612413 C20.742553,18.7623279 20.571606,18.8264317 20.4446168,18.8732767 C20.3479297,18.8932022 20.2482519,18.8932022 20.1515648,18.8732767 C18.3590631,18.7426037 16.6300561,19.1025708 14.9303542,19.6129352 C14.331302,19.8331156 13.745787,20.089163 13.1769262,20.3797145 C13.1012211,20.4142319 13.0328423,20.461077 12.9595793,20.4980599 C12.6958324,20.6287329 12.5102328,20.6040776 12.3978962,20.4240941 C12.3398546,20.3215771 12.3300339,20.1982936 12.3711015,20.0877294 C12.4121691,19.9771653 12.4998611,19.8907998 12.6103589,19.8520915 C13.2379787,19.5439004 13.8753669,19.243106 14.2954082,19.0384671 Z" id="Path" fill="#D8D8D8" fill-rule="nonzero"></path>
                        <path d="M29.8833346,10.1600995 C29.8625802,10.2668998 29.8280992,10.3705062 29.7807664,10.4682905 C29.6988532,10.591732 29.5992736,10.7022373 29.4852722,10.7962058 C28.9455681,11.2893115 28.4107481,11.7626929 27.8563913,12.2262122 C26.6477706,13.2403843 25.556553,14.3892146 24.6035137,15.6508311 C24.3446305,16.0287825 24.1175364,16.4279479 23.9246098,16.8441469 C23.8269258,17.0389236 23.7267996,17.1893208 23.4825896,17.1375447 C23.3779899,17.1152437 23.2883963,17.047631 23.2375997,16.9526608 C23.1868031,16.8576906 23.1799436,16.7449729 23.2188428,16.6444391 C23.2614267,16.4703075 23.3306364,16.3039418 23.4239792,16.1513334 C23.646425,15.7673178 23.8910577,15.3968484 24.1566093,15.0418456 C25.1393073,13.7830936 26.2518372,12.6334431 27.4754237,11.6122957 C28.0224541,11.166035 28.5352952,10.6803259 29.065231,10.2143411 C29.1714803,10.1113364 29.2885854,10.0203914 29.4144513,9.94313296 C29.6195877,9.83218419 29.8051874,9.91354662 29.8833346,10.1600995 Z" id="Path" fill="#D8D8D8" fill-rule="nonzero"></path>
                        <path d="M27.8441808,7.23844835 C27.8147221,7.35392348 27.770386,7.46499806 27.7123074,7.56882915 C27.5983507,7.70857824 27.4751497,7.84037468 27.3435502,7.96331369 C26.5132361,8.82871414 25.6707115,9.68918354 24.85505,10.5595151 C24.0055712,11.5036104 23.3128476,12.5801393 22.8036857,13.7474432 C22.7328675,13.9303488 22.6725293,14.1172158 22.6229703,14.3071182 C22.5747324,14.5078774 22.3835936,14.6390134 22.1809501,14.6103782 C21.9783233,14.5683116 21.8473896,14.3689252 21.8878981,14.1641175 C21.9158866,14.0020831 21.9651633,13.8445431 22.0344241,13.6956671 C22.5295362,12.5250856 23.187378,11.4317242 23.9881044,10.4485663 C24.8955863,9.34144181 25.8824089,8.30312514 26.9406037,7.34200054 C27.0875168,7.20962997 27.251886,7.09844614 27.4290237,7.01161974 C27.604855,6.9302573 27.7416126,7.02641291 27.8441808,7.23844835 Z" id="Path" fill="#D8D8D8" fill-rule="nonzero"></path>
                        <path d="M25.829448,4.79757526 C25.8162901,4.91995525 25.7875622,5.04011248 25.7439745,5.15507688 C25.6785088,5.26905855 25.5903702,5.36811635 25.4851119,5.44600922 C24.344651,6.27689228 23.5509684,7.41843192 22.8134541,8.58462683 C22.2656609,9.40967274 21.8087232,10.2926318 21.4507621,11.2178111 C21.4190148,11.3065702 21.375057,11.427381 21.3042361,11.464364 C21.1845727,11.5341613 21.0427932,11.5544836 20.9086159,11.5210711 C20.7996735,11.4346579 20.7322069,11.3056 20.7230162,11.166035 C20.7333084,11.0348501 20.7725247,10.9076486 20.8377949,10.7937403 C21.6015437,8.9798187 22.6587386,7.30674076 23.9661255,5.84295929 C24.3213567,5.47877635 24.7043108,5.14325919 25.1114705,4.83948924 C25.2280725,4.74991538 25.3664202,4.69370473 25.511975,4.67676437 C25.6047748,4.65457462 25.7122272,4.74579917 25.829448,4.79757526 Z" id="Path" fill="#D8D8D8" fill-rule="nonzero"></path>
                    </g>
                </g>
                <rect id="Rectangle" fill="#D8D8D8" opacity="0" x="0" y="0" width="40" height="40"></rect>
            </g>
        </g>
    </g>
</svg>