<?xml version="1.0" encoding="UTF-8"?>
<svg width="40px" height="40px" viewBox="0 0 40 40" version="1.1" xmlns="http://www.w3.org/2000/svg" xmlns:xlink="http://www.w3.org/1999/xlink">
    <title>Group 33</title>
    <g id="Web" stroke="none" stroke-width="1" fill="none" fill-rule="evenodd">
        <g id="赫綵官網/首頁02_Hover" transform="translate(-52.000000, -997.000000)">
            <g id="Group-34" transform="translate(32.000000, 886.000000)">
                <g id="Group-33" transform="translate(20.000000, 111.000000)">
                    <rect id="Rectangle" x="0" y="0" width="40" height="40"></rect>
                    <g id="file" transform="translate(4.000000, 0.000000)" fill="#F9C270" fill-rule="nonzero">
                        <path d="M30.7770232,4.52799136 L29.5981495,4.52799136 L29.5981495,33.262399 C29.5981495,35.1712982 28.0319317,36.7251428 26.1078835,36.7251428 L14.163325,36.7251428 L4.6649715,36.7251428 L4.6649715,37.7903068 C4.6649715,39.0100658 5.66280386,40 6.89220068,40 L18.8325068,40 L30.7728129,40 C32.0022098,40 33,39.0100658 33,37.7903068 L33,6.73768456 C33,5.51796733 32.00642,4.52799136 30.7770232,4.52799136 Z" id="Path"></path>
                        <path d="M14.163325,35.4720086 L26.1036312,35.4720086 C27.333028,35.4720086 28.3308603,34.4820744 28.3308603,33.262399 L28.3308603,4.52799136 L28.3308603,2.2096932 C28.3308603,0.989975971 27.333028,0 26.1036312,0 L14.163325,0 L10.1930469,0 L10.1930469,0.730994915 C10.2014254,0.806182964 10.2056777,0.885548126 10.2056777,0.964913288 L10.2056777,5.7811255 L10.2056777,7.01755119 C10.2056777,8.73434496 8.79944986,10.129501 7.06903173,10.129501 L5.82279385,10.129501 L0.968360511,10.129501 C0.905206564,10.129501 0.837842355,10.1253239 0.774688409,10.1211467 L0,10.1211467 L0,33.262399 C0,34.4820744 0.997832352,35.4720086 2.22722917,35.4720086 L4.66918177,35.4720086 L14.163325,35.4720086 L14.163325,35.4720086 Z M14.6138232,27.9615998 L6.82904673,27.9615998 C6.24803043,27.9615998 5.77648096,27.4937213 5.77648096,26.9173213 C5.77648096,26.3408379 6.24803043,25.8730429 6.82904673,25.8730429 L14.6180334,25.8730429 C15.1990498,25.8730429 15.6705992,26.3408379 15.6705992,26.9173213 C15.6705992,27.4937213 15.1948395,27.9615998 14.6138232,27.9615998 Z M22.4028099,22.6316444 L6.82904673,22.6316444 C6.24803043,22.6316444 5.77648096,22.1637658 5.77648096,21.5873659 C5.77648096,21.0108824 6.24803043,20.5430875 6.82904673,20.5430875 L22.4028099,20.5430875 C22.9838262,20.5430875 23.4553757,21.0108824 23.4553757,21.5873659 C23.4553757,22.1637658 22.9838262,22.6316444 22.4028099,22.6316444 Z M6.82904673,14.8830565 L22.4028099,14.8830565 C22.9838262,14.8830565 23.4553757,15.3508932 23.4553757,15.9273349 C23.4553757,16.5037766 22.9838262,16.9716134 22.4028099,16.9716134 L6.82904673,16.9716134 C6.24803043,16.9716134 5.77648096,16.5037766 5.77648096,15.9273349 C5.77648096,15.3508932 6.24803043,14.8830565 6.82904673,14.8830565 Z" id="Shape"></path>
                        <path d="M0.968360511,8.87636683 L7.06903173,8.87636683 C7.07324199,8.87636683 7.08166252,8.87636683 7.08587278,8.87636683 C8.10475645,8.8680126 8.92996801,8.0492983 8.93838854,7.03843676 C8.93838854,7.03425964 8.93838854,7.02590542 8.93838854,7.0217283 L8.93838854,0.964913288 C8.93838854,0.405180039 8.4752596,0.0334169104 7.99533171,0.0334169104 C7.76376724,0.0334169104 7.53220277,0.116959186 7.33853067,0.309106421 L0.303138943,7.28906359 C-0.28629789,7.87385952 0.130518156,8.87636683 0.968360511,8.87636683 Z" id="Path"></path>
                    </g>
                </g>
            </g>
        </g>
    </g>
</svg>