<?xml version="1.0" encoding="UTF-8"?>
<svg width="40px" height="40px" viewBox="0 0 40 40" version="1.1" xmlns="http://www.w3.org/2000/svg" xmlns:xlink="http://www.w3.org/1999/xlink">
    <title>Group 2</title>
    <g id="Web" stroke="none" stroke-width="1" fill="none" fill-rule="evenodd">
        <g id="赫綵官網/首頁02_Normal-" transform="translate(-52.000000, -902.000000)">
            <g id="Group-34" transform="translate(32.000000, 886.000000)">
                <g id="Group-2" transform="translate(20.000000, 16.000000)">
                    <rect id="Rectangle" x="0" y="0" width="40" height="40"></rect>
                    <g id="edit-tools" fill="#DCD9DB" fill-rule="nonzero">
                        <path d="M30.7436191,38.409136 L21.4174088,13.7963671 C21.0735739,12.8875498 19.5822756,12.8875498 19.2384407,13.7963671 L9.91215268,38.409136 C9.73456165,38.8806959 9.87461374,39.4129686 10.2616611,39.7323166 C10.6498744,40.0516646 11.1952381,40.0905771 11.6199022,39.8204557 L20.3279247,34.3494235 L29.0359473,39.8204557 C29.2260513,39.9406312 29.4400932,39.9989999 29.6541351,39.9989999 C29.9182288,39.9989999 30.1801465,39.9085948 30.3941106,39.7323166 C30.781158,39.4128905 30.9211324,38.8806959 30.7436191,38.409136 Z" id="Path"></path>
                        <path d="M38.8280975,16.5245823 L37.2484511,16.5245823 C36.2212396,11.4769891 33.0592905,7.21149942 28.7391111,4.72126426 L33.1846059,4.72126426 C33.6700079,6.09220773 34.9585537,7.08189639 36.4843707,7.08189639 C38.4229318,7.08189639 40,5.49345277 40,3.54090885 C40,1.58836493 38.4229318,0 36.4843707,0 C34.9585537,0 33.6700079,0.989767357 33.1846059,2.36063213 L23.5156293,2.36063213 L23.5156293,1.18035541 C23.5156293,0.52793363 22.9914764,0 22.3437268,0 L17.6561951,0 C17.0084455,0 16.4842926,0.52793363 16.4842926,1.18035541 L16.4842926,2.36071082 L6.81539411,2.36071082 C6.32999211,0.989767357 5.04144628,0 3.51562927,0 C1.57706821,0 0,1.58836493 0,3.54098754 C0,5.49361015 1.57699009,7.08197508 3.51562927,7.08197508 C5.04136816,7.08197508 6.32999211,6.09220773 6.81539411,4.72134295 L11.3390158,4.72134295 C7.01883638,7.21149942 3.77876044,11.4769891 2.75154886,16.5245823 L1.17190247,16.5245823 C0.52415291,16.5245823 0,17.0525159 0,17.7049377 L0,22.426202 C0,23.0786237 0.52415291,23.6065574 1.17190247,23.6065574 L5.85935608,23.6065574 C6.50710564,23.6065574 7.03125855,23.0786237 7.03125855,22.426202 L7.03125855,17.7049377 C7.03125855,17.0525159 6.50710564,16.5245823 5.85935608,16.5245823 L5.14793315,16.5245823 C6.4726517,10.9269435 10.9268967,6.519339 16.4843707,5.18506525 L16.4843707,5.90161967 C16.4843707,6.55404145 17.0085236,7.08197508 17.6562732,7.08197508 L22.3437268,7.08197508 C22.9914764,7.08197508 23.5156293,6.55404145 23.5156293,5.90161967 L23.5156293,5.18506525 C29.0731814,6.519339 33.5274264,10.9269435 34.8519887,16.5245036 L34.1405658,16.5245036 C33.4928162,16.5245036 32.9686633,17.0524372 32.9686633,17.704859 L32.9686633,22.4261233 C32.9686633,23.0785451 33.4928162,23.6065574 34.1405658,23.6065574 L38.8280194,23.6065574 C39.475769,23.6065574 40,23.0785451 40,22.4261233 L40,17.704859 C40,17.0524372 39.4758471,16.5245823 38.8280975,16.5245823 Z" id="Path"></path>
                    </g>
                    <rect id="Rectangle" fill="#FFFFFF" x="19.6721311" y="11.8032787" width="1.31147541" height="23.6065574" rx="0.65"></rect>
                </g>
            </g>
        </g>
    </g>
</svg>