<?xml version="1.0" encoding="UTF-8"?>
<svg width="40px" height="40px" viewBox="0 0 40 40" version="1.1" xmlns="http://www.w3.org/2000/svg" xmlns:xlink="http://www.w3.org/1999/xlink">
    <title>Group 22</title>
    <g id="Web" stroke="none" stroke-width="1" fill="none" fill-rule="evenodd">
        <g id="赫綵官網/首頁02_Hover" transform="translate(-52.000000, -1187.000000)">
            <g id="Group-34" transform="translate(32.000000, 886.000000)">
                <g id="Group-22" transform="translate(20.000000, 301.000000)">
                    <rect id="Rectangle-Copy-41" x="0" y="0" width="40" height="40"></rect>
                    <path d="M20.0001133,1 C9.5067489,1 1,9.54231278 1,20.0795465 C1,29.530214 7.84991381,37.3569499 16.8312746,38.8725436 L16.8312746,24.0600567 L12.247893,24.0600567 L12.247893,18.7296462 L16.8312746,18.7296462 L16.8312746,14.7992082 C16.8312746,10.2387712 19.6050568,7.75359819 23.6569365,7.75359819 C25.5975414,7.75359819 27.2652558,7.89880749 27.7493871,7.96276331 L27.7493871,12.7296342 L24.9391138,12.7309998 C22.7360444,12.7309998 22.3112963,13.7820603 22.3112963,15.324966 L22.3112963,18.726915 L27.5680646,18.726915 L26.8824386,24.0573255 L22.3112963,24.0573255 L22.3112963,39 C31.7119655,37.8510712 39,29.824957 39,20.0740841 C39,9.54231278 30.4932511,1 20.0001133,1 Z" id="Path" fill="#F9C270"></path>
                </g>
            </g>
        </g>
    </g>
</svg>