<?xml version="1.0" encoding="UTF-8"?>
<svg width="40px" height="40px" viewBox="0 0 40 40" version="1.1" xmlns="http://www.w3.org/2000/svg" xmlns:xlink="http://www.w3.org/1999/xlink">
    <title>Group 23</title>
    <g id="Web" stroke="none" stroke-width="1" fill="none" fill-rule="evenodd">
        <g id="赫綵官網/首頁02_Normal-" transform="translate(-52.000000, -1092.000000)">
            <g id="Group-34" transform="translate(32.000000, 886.000000)">
                <g id="Group-23" transform="translate(20.000000, 206.000000)">
                    <rect id="Rectangle-Copy-40" x="0" y="0" width="40" height="40"></rect>
                    <g id="167649">
                        <path d="M34.0828333,4.77962887 C30.3130833,1.69740206 25.3116667,0 20,0 C14.6883333,0 9.68691667,1.69740206 5.91716667,4.77962887 C2.10141667,7.89938144 0,12.0599588 0,16.4948454 C0,20.667299 1.83016667,24.5876289 5.15333333,27.5339381 C8.24116667,30.2714227 12.45325,32.022433 17.0833333,32.5064742 L17.0833333,39.1752577 C17.0833333,39.4890722 17.26325,39.7755876 17.5474167,39.9146392 C17.6645,39.9718763 17.7908333,40 17.9165833,40 C18.09625,40 18.2746667,39.9425155 18.4228333,39.830433 L30.91875,30.3736907 C33.87825,28.1623093 35.9194167,26.2232577 37.3424167,24.2712577 C39.1306667,21.8182268 40,19.2745567 40,16.4948454 C40,12.0599588 37.8985833,7.89938144 34.0828333,4.77962887 Z" id="Shape" fill="#DCD9DB" fill-rule="nonzero"></path>
                        <g id="Group" transform="translate(6.956522, 11.304348)" fill="#FFFFFF">
                            <path d="M17.8319939,1.08381892 C17.8284674,0.388295113 17.4743743,0.000921827367 16.9074274,0.00761670893 C16.3458154,0.0154274041 16.0076366,0.412285106 16.0041101,1.10604221 C15.9943445,2.38969276 16.0013974,3.6722275 15.9987752,4.95476225 C15.9987752,5.1399873 15.9819567,5.32307372 15.9669466,5.67269531 C15.7532791,5.41605818 15.6322942,5.28402024 15.524511,5.14101013 C14.3677405,3.59672412 13.2144964,2.0494626 12.05863,0.503037945 C11.7760608,0.124870121 11.4184412,-0.103220775 10.949512,0.0480649517 C10.4823911,0.198234865 10.277585,0.590536327 10.2766807,1.0641992 C10.2678194,3.54279313 10.2678194,6.01989931 10.2766807,8.49747041 C10.277585,8.90390551 10.4373609,9.25259726 10.8223784,9.439682 C11.502353,9.76875403 12.1460683,9.27258892 12.1540254,8.38486622 C12.1699397,7.17355758 12.1593603,5.96038925 12.1593603,4.74722092 C12.1593603,4.513272 12.1593603,4.27895115 12.1593603,4.04435134 C12.3863199,4.1505396 12.4967254,4.27458088 12.5973652,4.40717672 C13.7506093,5.93342375 14.9011407,7.46078659 16.0517626,8.99103195 C16.3370445,9.37496481 16.6637397,9.6557779 17.1758907,9.47668982 C17.6774624,9.30169305 17.8364246,8.91478469 17.8364246,8.41304051 C17.8338023,5.96912979 17.8408552,3.5267998 17.8319939,1.08381892 L17.8319939,1.08381892 Z" id="Path"></path>
                            <path d="M21.3693988,1.94857446 C21.543371,1.93481275 21.7420285,1.90682443 21.9442124,1.90626652 C22.6259954,1.90022253 23.3112144,1.91407722 23.9920028,1.89715405 C24.2410254,1.88990126 24.513829,1.87176929 24.7337357,1.76548804 C25.1645972,1.55878357 25.292635,1.14528165 25.1769851,0.698491292 C25.0639574,0.242588455 24.7337357,0.00566403514 24.2666149,0.00417628368 C23.0541443,0.0011077963 21.8417641,-0.00158875322 20.6293839,0.0011077963 C19.760427,0.00343240795 19.412573,0.349241638 19.4107646,1.23910298 C19.4019032,3.5938416 19.4019032,5.94876619 19.4107646,8.30248198 C19.412573,9.17839565 19.7842985,9.55070545 20.6329104,9.55433185 C21.7631872,9.55972495 22.8890334,9.55795824 24.0157838,9.55321603 C24.2011492,9.55135635 24.3901315,9.52522771 24.5685344,9.47148269 C24.9720885,9.34985901 25.1910909,9.06653534 25.2042926,8.62485912 C25.2193026,8.1617035 25.0144965,7.84248783 24.5915017,7.70952004 C24.3645421,7.63829394 24.1199501,7.62053391 23.8859376,7.61867422 C23.039948,7.6074231 22.1913361,7.61356007 21.3304268,7.61356007 C21.3304268,6.95606691 21.3304268,6.38579318 21.3304268,5.7870662 C21.4920112,5.77163078 21.6227616,5.74950048 21.7544163,5.7481987 C22.5570937,5.74364246 23.3623934,5.7667026 24.1641666,5.73731951 C24.8625873,5.710447 25.2290682,5.31693674 25.2025745,4.70798147 C25.1796073,4.1606749 24.7892549,3.82286234 24.1499703,3.81049541 C23.7050029,3.80231277 23.2616631,3.80900765 22.813983,3.80863572 C21.1556408,3.80863572 21.1556408,3.80863572 21.3110765,2.09874437 C21.3137892,2.06480504 21.3358522,2.03337629 21.3693988,1.94857446 L21.3693988,1.94857446 Z" id="Path"></path>
                            <path d="M4.86726607,7.62369538 C4.68090602,7.60137911 4.49282795,7.61356007 4.3056541,7.61356007 C3.52241744,7.61225829 2.74270724,7.61356007 1.88613822,7.61356007 C1.88613822,7.31628873 1.88613822,7.10651578 1.88613822,6.89860251 C1.88613822,5.01985137 1.88966469,3.13979845 1.88351598,1.26086134 C1.88089374,0.459149277 1.53557155,0.0124519012 0.944843646,0.00765024316 C0.332866538,0.00185167203 0.00174062638,0.42902231 0.00174062638,1.24189251 C0,3.63047748 -0.00178583745,6.01776066 0.00354906937,8.40718249 C0.00716595535,9.16630767 0.365599356,9.5378736 1.10561423,9.55312305 C1.76967449,9.56511805 4.26333653,9.57599723 4.84348504,9.54512639 C5.40943728,9.51239585 5.80331616,9.08197076 5.79535901,8.57204395 C5.78649764,8.0826667 5.40943728,7.68980733 4.86726607,7.62369538 L4.86726607,7.62369538 Z" id="Path"></path>
                            <path d="M8.68895822,0.95494245 C8.68362331,0.231058381 8.45937638,0.00185167203 7.78030604,0.00091009782 C7.08884786,-0.000937861957 6.85492576,0.217947571 6.85311732,0.937089433 C6.84516017,3.48504977 6.84516017,6.03217326 6.85311732,8.58106344 C6.85492576,9.29629995 7.10747482,9.55303007 7.7617695,9.55418413 C8.43460071,9.55786526 8.68543175,9.29081387 8.68895822,8.5447995 C8.6925751,7.29750587 8.69076666,6.05095612 8.69076666,4.80273264 C8.69076666,3.52001193 8.6925751,2.23840704 8.68895822,0.95494245 L8.68895822,0.95494245 Z" id="Path"></path>
                        </g>
                    </g>
                </g>
            </g>
        </g>
    </g>
</svg>