<?xml version="1.0" encoding="UTF-8"?>
<svg width="40px" height="40px" viewBox="0 0 40 40" version="1.1" xmlns="http://www.w3.org/2000/svg" xmlns:xlink="http://www.w3.org/1999/xlink">
    <title>Group 3</title>
    <g id="Web" stroke="none" stroke-width="1" fill="none" fill-rule="evenodd">
        <g id="赫綵官網/首頁02_Normal-" transform="translate(-52.000000, -1281.000000)">
            <g id="Group-34" transform="translate(32.000000, 886.000000)">
                <g id="Group-3" transform="translate(20.000000, 395.000000)">
                    <rect id="Rectangle-Copy-41" x="0" y="0" width="40" height="40"></rect>
                    <g id="maps-and-flags" transform="translate(7.000000, 1.000000)" fill="#DCD9DB" fill-rule="nonzero">
                        <path d="M14,0 C6.28035831,0 0,6.17367159 0,13.7621027 C0,23.1795829 12.5286285,37.0049943 13.062046,37.5889481 C13.5630733,38.1374996 14.4378327,38.1365348 14.937954,37.5889481 C15.4713715,37.0049943 28,23.1795829 28,13.7621027 C28,6.17367159 21.7195662,0 14,0 Z M14,20.686201 C10.1160565,20.686201 6.95632243,17.5800683 6.95632243,13.7621027 C6.95632243,9.94413712 10.116132,6.83807865 14,6.83807865 C17.883868,6.83807865 21.0436021,9.94421134 21.0436021,13.7621769 C21.0436021,17.5801425 17.883868,20.686201 14,20.686201 Z" id="Shape"></path>
                    </g>
                </g>
            </g>
        </g>
    </g>
</svg>