<?xml version="1.0" encoding="UTF-8"?>
<svg width="38px" height="38px" viewBox="0 0 38 38" version="1.1" xmlns="http://www.w3.org/2000/svg" xmlns:xlink="http://www.w3.org/1999/xlink">
    <!-- Generator: Sketch 52.5 (67469) - http://www.bohemiancoding.com/sketch -->
    <title>群組 14 copy</title>
    <desc>Created with Sketch.</desc>
    <g id="頁面-1" stroke="none" stroke-width="1" fill="none" fill-rule="evenodd">
        <g id="群組-14-copy" transform="translate(1.000000, 1.000000)">
            <circle id="Oval" stroke="#FFFFFF" fill-rule="nonzero" cx="18" cy="18" r="18"></circle>
            <path d="M19.2304688,10.53125 C18.9960926,10.53125 18.5419956,10.651366 17.8681641,10.8916016 C17.1943326,11.1318371 16.8574219,11.8261661 16.8574219,12.9746094 L16.8574219,15.59375 L14.6074219,15.59375 L14.6074219,17.28125 L16.8574219,17.28125 L16.8574219,25.71875 L18.5449219,25.71875 L18.5449219,17.28125 L20.9882812,17.28125 L21.3925781,15.59375 L18.5449219,15.59375 L18.5449219,12.921875 L18.6416016,12.5791016 C18.706055,12.3505848 18.937498,12.2363281 19.3359375,12.2363281 L20.7949219,12.2363281 L20.7949219,10.5488281 L19.3359375,10.5488281 L19.3095703,10.5400391 C19.2919921,10.5341797 19.2656252,10.53125 19.2304688,10.53125 Z M19.2304688,9.40625 C19.2539064,9.40625 19.2773436,9.40917966 19.3007812,9.41503906 C19.3242189,9.42089847 19.3476561,9.42382812 19.3710938,9.42382812 L20.8125,9.42382812 C21.117189,9.42382812 21.3779286,9.53222548 21.5947266,9.74902344 C21.8115245,9.9658214 21.9199219,10.2324203 21.9199219,10.5488281 C21.9199219,10.5605469 21.9199219,10.5693359 21.9199219,10.5751953 C21.9199219,10.5810547 21.9199219,10.5898437 21.9199219,10.6015625 L21.9199219,12.2363281 C21.9199219,12.5410171 21.8085949,12.8046864 21.5859375,13.0273438 C21.3632801,13.2500011 21.0996109,13.3613281 20.7949219,13.3613281 L19.6699219,13.3613281 L19.6699219,14.46875 L21.3925781,14.46875 C21.5683603,14.46875 21.7353508,14.5068356 21.8935547,14.5830078 C22.0517586,14.6591801 22.1835932,14.7734367 22.2890625,14.9257812 C22.3945318,15.066407 22.4648436,15.2216788 22.5,15.3916016 C22.5351564,15.5615243 22.5234378,15.7343741 22.4648438,15.9101562 L22.078125,17.5976562 C22.0078121,17.8320324 21.8730479,18.0253899 21.6738281,18.1777344 C21.4746084,18.3300789 21.246095,18.40625 20.9882812,18.40625 L19.6699219,18.40625 L19.6699219,25.7011719 C19.6699219,26.0175797 19.5585949,26.2841786 19.3359375,26.5009766 C19.1132801,26.7177745 18.8496109,26.8261719 18.5449219,26.8261719 L16.8574219,26.8261719 C16.541014,26.8261719 16.2744151,26.7177745 16.0576172,26.5009766 C15.8408192,26.2841786 15.7324219,26.0175797 15.7324219,25.7011719 L15.7324219,18.40625 L14.6074219,18.40625 C14.3027329,18.40625 14.0390636,18.294923 13.8164062,18.0722656 C13.5937489,17.8496083 13.4824219,17.585939 13.4824219,17.28125 L13.4824219,15.59375 C13.4824219,15.4414055 13.5117185,15.2978522 13.5703125,15.1630859 C13.6289065,15.0283196 13.710937,14.9082037 13.8164062,14.8027344 C13.9218755,14.6972651 14.0419915,14.6152347 14.1767578,14.5566406 C14.3115241,14.4980466 14.4550774,14.46875 14.6074219,14.46875 L15.7324219,14.46875 L15.7324219,12.9746094 C15.7324219,12.1074175 15.9023421,11.4365258 16.2421875,10.9619141 C16.5820329,10.4873023 16.9277326,10.1445323 17.2792969,9.93359375 C17.6542987,9.71093639 18.0234357,9.56738313 18.3867188,9.50292969 C18.7500018,9.43847624 19.031249,9.40625 19.2304688,9.40625 Z" id="" fill="#FFFFFF"></path>
        </g>
    </g>
</svg>