<?xml version="1.0" encoding="UTF-8"?>
<svg width="38px" height="38px" viewBox="0 0 38 38" version="1.1" xmlns="http://www.w3.org/2000/svg" xmlns:xlink="http://www.w3.org/1999/xlink">
    <!-- Generator: Sketch 52.5 (67469) - http://www.bohemiancoding.com/sketch -->
    <title>群組 13 copy</title>
    <desc>Created with Sketch.</desc>
    <g id="頁面-1" stroke="none" stroke-width="1" fill="none" fill-rule="evenodd">
        <g id="群組-13-copy" transform="translate(1.000000, 1.000000)" fill-rule="nonzero">
            <circle id="Oval" stroke="#FFFFFF" cx="18" cy="18" r="18"></circle>
            <path d="M27.1877709,17.1870088 C27.2296556,16.9661173 27.2504109,16.7803166 27.2599471,16.6345307 C27.2757162,16.3939435 27.257828,16.0368024 27.2513458,15.9249231 C27.0297687,12.0706659 23.0309722,9 18.1305345,9 C13.0878637,9 9,12.2514803 9,16.2624308 C9,19.9490872 12.4534863,22.9939492 16.927723,23.462284 C17.2012819,23.4908927 17.3984263,23.7378997 17.3681348,24.011147 L17.1776595,25.7257984 C17.134466,26.1149763 17.5368575,26.3981961 17.8896356,26.2279152 C21.6697845,24.4035659 23.9301825,22.5267363 25.2799018,20.9008403 C25.5255376,20.6049056 26.3264562,19.4828716 26.4897564,19.1881211 C26.8364263,18.562345 27.075393,17.8903213 27.1877709,17.1870088 Z" id="Shape" stroke="#FFFFFF"></path>
            <path d="M12.5220886,17.7390731 L12.5220886,14.6800003 C12.5220886,14.4220235 12.3129772,14.2129121 12.0550003,14.2129121 C11.7970235,14.2129121 11.5879121,14.4220235 11.5879121,14.6800003 L11.5879121,18.2060991 C11.5879121,18.4640759 11.7970235,18.6731873 12.0550003,18.6731873 L13.9232287,18.6731873 C14.1812055,18.6731873 14.390317,18.4640759 14.390317,18.2060991 C14.390317,17.9481223 14.1812055,17.7390108 13.9232287,17.7390108 L12.5220886,17.7390108 L12.5220886,17.7390731 Z" id="Shape" fill="#FFFFFF"></path>
            <path d="M15.5856032,18.6731873 L15.381478,18.6731873 C15.1799083,18.6731873 15.0164835,18.5097625 15.0164835,18.3081928 L15.0164835,14.5779066 C15.0164835,14.3763369 15.1799083,14.2129121 15.381478,14.2129121 L15.5856032,14.2129121 C15.7871729,14.2129121 15.9505977,14.3763369 15.9505977,14.5779066 L15.9505977,18.3081928 C15.9505977,18.5098872 15.7871729,18.6731873 15.5856032,18.6731873 Z" id="Shape" fill="#FFFFFF"></path>
            <path d="M19.4394947,14.6799654 L19.4394947,16.8340937 C19.4394947,16.8340937 17.5743204,14.4012333 17.5458364,14.3692589 C17.4567692,14.2692219 17.3253812,14.2077662 17.1796576,14.2132511 C16.9256698,14.222912 16.7307692,14.4449254 16.7307692,14.6991625 L16.7307692,18.2060641 C16.7307692,18.464041 16.9398807,18.6731524 17.1978575,18.6731524 C17.4558343,18.6731524 17.6649457,18.464041 17.6649457,18.2060641 L17.6649457,16.0650248 C17.6649457,16.0650248 19.5584794,18.5190145 19.5863401,18.5454417 C19.6689875,18.6236637 19.7798695,18.6720305 19.9023446,18.6730901 C20.161755,18.6754585 20.3737335,18.4460281 20.3737335,18.18668 L20.3737335,14.6800277 C20.3737335,14.4220509 20.1646221,14.2129395 19.9066453,14.2129395 C19.6486684,14.2128772 19.4394947,14.4219886 19.4394947,14.6799654 Z" id="Shape" fill="#FFFFFF"></path>
            <path d="M23.8188884,14.6800003 C23.8188884,14.4220235 23.609777,14.2129121 23.3518001,14.2129121 L21.4835718,14.2129121 C21.225595,14.2129121 21.0164835,14.4220235 21.0164835,14.6800003 L21.0164835,18.2060991 C21.0164835,18.4640759 21.225595,18.6731873 21.4835718,18.6731873 L23.3518001,18.6731873 C23.609777,18.6731873 23.8188884,18.4640759 23.8188884,18.2060991 C23.8188884,17.9481223 23.609777,17.7390108 23.3518001,17.7390108 L21.95066,17.7390108 L21.95066,16.9100445 L23.3518001,16.9100445 C23.609777,16.9100445 23.8188884,16.700933 23.8188884,16.4429562 C23.8188884,16.1849794 23.609777,15.975868 23.3518001,15.975868 L21.95066,15.975868 L21.95066,15.1469016 L23.3518001,15.1469016 C23.609777,15.1469639 23.8188884,14.9378525 23.8188884,14.6800003 Z" id="Shape" fill="#FFFFFF"></path>
        </g>
    </g>
</svg>