<?xml version="1.0" encoding="UTF-8"?>
<svg width="220px" height="42px" viewBox="0 0 220 42" version="1.1" xmlns="http://www.w3.org/2000/svg" xmlns:xlink="http://www.w3.org/1999/xlink">
    <!-- Generator: Sketch 52.5 (67469) - http://www.bohemiancoding.com/sketch -->
    <title>群組 copy</title>
    <desc>Created with Sketch.</desc>
    <defs>
        <path d="M0.483538462,5.38202941 L0.283769231,6.01629412 L0.273,6.0515 L0,6.91320588 C0,6.91544118 0.00215384615,6.92661765 0.00215384615,6.93108824 C-0.00161538462,6.99647059 0.00861538462,7.12276471 0.0516923077,7.27029412 C0.380153846,8.38347059 2.28469231,10.1420882 6.42115385,13.1502353 C6.50138462,13.2072353 6.56923077,13.2603235 6.64730769,13.3167647 C6.79592308,13.4235 6.937,13.5274412 7.07807692,13.6330588 C7.22076923,13.7392353 7.36884615,13.8487647 7.50830769,13.9499118 C10.2259231,15.9750882 12.0900769,17.5409118 12.9747692,18.8452059 C12.9914615,18.8714706 13.0081538,18.8966176 13.0296923,18.9223235 C13.8772308,16.8451765 14.0570769,14.4629118 13.3689231,12.1370882 C12.8202308,10.2829118 11.7890769,8.72155882 10.4671538,7.54244118 C10.0616923,7.23005882 9.62392308,6.90258824 9.15815385,6.55835294 C8.95946154,6.41305882 8.77638462,6.27614706 8.56853846,6.12414706 C8.55723077,6.11744118 8.55238462,6.11017647 8.54269231,6.10626471 C8.37738462,5.985 8.22338462,5.87044118 8.06184615,5.75252941 C8.05915385,5.74917647 8.05646154,5.74805882 8.05323077,5.74526471 C8.00315385,5.70894118 7.95469231,5.67429412 7.90676923,5.63685294 C7.71723077,5.49994118 7.52661538,5.35855882 7.34461538,5.22388235 C7.24284615,5.14844118 7.15238462,5.07579412 7.05169231,5.00147059 C6.91815385,4.90144118 6.78676923,4.80252941 6.657,4.70361765 C4.46115385,3.03664706 2.82584615,1.61164706 2.04184615,0.437 L0.483538462,5.38202941 Z" id="path-1"></path>
        <linearGradient x1="17.7479907%" y1="31.2549324%" x2="91.0133942%" y2="68.4832682%" id="linearGradient-3">
            <stop stop-color="#91C667" offset="0%"></stop>
            <stop stop-color="#4DB133" offset="100%"></stop>
        </linearGradient>
        <path d="M4.13325,0.0950526316 C2.687625,1.29757895 1.562625,2.85268421 0.8825625,4.62276316 C0.4663125,5.61473684 0.142875,6.86921053 0.15075,8.37292105 C0.1490625,8.42707895 0.142875,8.48068421 0.142875,8.53428947 C0.142875,8.59618421 0.15075,8.65421053 0.15075,8.71555263 C0.15075,8.73931579 0.1546875,8.76142105 0.1546875,8.78297368 C0.1935,10.3817368 0.5720625,11.8909737 1.227375,13.2515526 C1.28925,13.4184474 1.353375,13.5886579 1.409625,13.7489211 C1.5103125,14.0385 1.603125,14.3092895 1.699875,14.5845 C2.6431875,17.3167105 3.2090625,19.4145 3.191625,20.8264737 L6.422625,18.4479474 L7.3738125,17.7483158 L7.93125,17.3360526 L8.6855625,16.7828684 C8.6889375,16.779 8.6911875,16.7712632 8.6968125,16.7662895 C9.554625,15.8804211 8.2299375,11.8174737 6.809625,7.95568421 C5.365125,4.04802632 5.0180625,2.89634211 4.440375,0.991973684 C4.3385625,0.652105263 4.284,0.473605263 4.16025,0.0696315789 C4.152375,0.0790263158 4.1428125,0.0867631579 4.13325,0.0950526316" id="path-4"></path>
        <linearGradient x1="15.6542049%" y1="13.9026912%" x2="67.9797079%" y2="85.7202527%" id="linearGradient-6">
            <stop stop-color="#E96042" offset="0%"></stop>
            <stop stop-color="#BC003B" offset="100%"></stop>
        </linearGradient>
        <path d="M9.45376923,2.06473913 C9.04776923,2.37843478 8.617,2.71869565 8.16307692,3.08552174 C7.97407692,3.23982609 7.79261538,3.38395652 7.59230769,3.55013043 C7.581,3.55634783 7.57507692,3.56143478 7.56807692,3.56934783 C7.40869231,3.69878261 7.25630769,3.81973913 7.10069231,3.94578261 C7.09638462,3.9486087 7.09530769,3.95256522 7.09153846,3.95313043 C7.04307692,3.99326087 6.99676923,4.03056522 6.94830769,4.069 C6.76630769,4.21652174 6.57946154,4.36743478 6.40284615,4.51043478 C6.30484615,4.589 6.21061538,4.66191304 6.11207692,4.73878261 C5.98230769,4.84334783 5.85253846,4.94395652 5.72438462,5.04626087 C3.54038462,6.75491304 1.75107692,7.97182609 0.437769231,8.40986957 L4.536,11.4411304 L5.06261538,11.8322609 L5.09223077,11.8526087 L5.80623077,12.3816522 C5.80784615,12.3816522 5.817,12.3844783 5.82292308,12.3856087 C5.88053846,12.409913 5.999,12.4347826 6.14923077,12.4347826 C7.273,12.4347826 9.45,11.0477391 13.4335385,7.787 C13.5089231,7.72595652 13.5794615,7.67113043 13.6532308,7.61008696 C13.7964615,7.49478261 13.9332308,7.38569565 14.0726923,7.27208696 C14.2121538,7.15904348 14.3559231,7.04373913 14.4878462,6.93465217 C17.1521538,4.80604348 19.1423077,3.4026087 20.6015385,2.90182609 C20.6295385,2.89221739 20.6596923,2.87978261 20.6887692,2.86791304 C19.0249231,1.4006087 16.884,0.514913043 14.5400769,0.514913043 C12.6689231,0.514913043 10.9275385,1.08804348 9.45376923,2.06473913" id="path-7"></path>
        <linearGradient x1="87.6536159%" y1="-3.8155868%" x2="10.4774743%" y2="92.1095244%" id="linearGradient-9">
            <stop stop-color="#48BDE4" offset="0%"></stop>
            <stop stop-color="#2D64AE" offset="100%"></stop>
        </linearGradient>
        <path d="M8.59936,0.239645161 L7.90608,0.249516129 L6.96472,0.261032258 C6.96192,0.261580645 6.95576,0.264870968 6.95352,0.264870968 C6.00152,0.422258065 4.8244,2.93990323 3.2144,8.41993548 C3.18192,8.52303226 3.15336,8.61790323 3.12592,8.72045161 C3.07384,8.89374194 3.02344,9.06209677 2.97136,9.23319355 C2.91984,9.40209677 2.86944,9.57922581 2.81736,9.74483871 C1.8172,13.0422903 0.95088,15.3575806 0.01288,16.609 C0.17752,16.6183226 0.33712,16.6309355 0.50344,16.6325806 L0.92736,16.6270968 C5.15816,16.5124839 8.72424,13.8177097 10.04528,10.088129 C10.12648,9.83258065 10.20376,9.571 10.28216,9.3116129 C10.3768,9.00067742 10.47312,8.69303226 10.56384,8.38154839 C10.56776,8.37167742 10.57168,8.36125806 10.57392,8.34974194 C10.6372,8.13587097 10.6988,7.93954839 10.76096,7.73170968 L10.76096,7.73335484 L10.76096,7.73170968 C10.7856,7.65164516 10.80856,7.57048387 10.83208,7.49151613 C10.89424,7.28751613 10.95808,7.07474194 11.01912,6.87512903 C11.08464,6.66125806 11.15016,6.4643871 11.214,6.25819355 C11.23696,6.18745161 11.25768,6.11341935 11.28176,6.04541935 C12.16656,3.26674194 12.95728,1.27829032 13.80344,0.167258065 L8.59936,0.239645161 Z" id="path-10"></path>
        <linearGradient x1="50.0035105%" y1="13.0104756%" x2="50.0035105%" y2="94.345221%" id="linearGradient-12">
            <stop stop-color="#AA1C87" offset="0%"></stop>
            <stop stop-color="#90529C" offset="100%"></stop>
        </linearGradient>
        <path d="M9.50885714,1.36114286 C9.292,1.42914286 9.062,1.49542857 8.86157143,1.56171429 C8.70385714,1.61657143 8.54669048,1.67028571 8.39609524,1.72228571 C8.38842857,1.72514286 8.38130952,1.72742857 8.37309524,1.72971429 C8.33530952,1.74342857 8.29971429,1.75257143 8.26247619,1.76514286 C8.13378571,1.808 8.00728571,1.84514286 7.88078571,1.88342857 C6.97995238,2.15257143 6.08240476,2.29771429 5.21333333,2.29828571 C3.98283333,2.29828571 2.9067619,2.02514286 1.99004762,1.61657143 C1.45064286,1.37485714 0.966,1.08514286 0.542142857,0.778285714 C0.426595238,0.694857143 0.313238095,0.610857143 0.206452381,0.524571429 C0.211928571,0.545714286 0.213571429,0.568 0.215761905,0.587428571 C0.872357143,4.40171429 3.88371429,7.364 7.62888095,7.75942857 C7.90980952,7.78742857 8.19457143,7.80628571 8.48480952,7.80628571 C9.0072381,7.80628571 9.51652381,7.74914286 10.0143095,7.65257143 C10.3593095,7.56114286 10.6856905,7.47485714 10.9907143,7.40571429 C10.9929048,7.40571429 10.9945476,7.40457143 11.0005714,7.40457143 C11.0005714,7.40457143 11.0044048,7.40457143 11.0044048,7.40285714 C11.9813571,7.18057143 12.8142857,7.07942857 13.8257381,7.14228571 C14.8925,7.20685714 16.1673571,7.45485714 18.0473333,7.936 L22.590381,1.82971429 C20.523119,1.11371429 18.6004286,0.688571429 16.7620714,0.527428571 C16.2182857,0.481714286 15.6810714,0.448571429 15.1509762,0.448571429 C12.9090238,0.448571429 11.0323333,0.886285714 9.50885714,1.36114286" id="path-13"></path>
        <linearGradient x1="93.2057018%" y1="50.00185%" x2="9.16388477%" y2="50.00185%" id="linearGradient-15">
            <stop stop-color="#EDA800" offset="0%"></stop>
            <stop stop-color="#F4D44F" offset="100%"></stop>
        </linearGradient>
    </defs>
    <g id="頁面-1" stroke="none" stroke-width="1" fill="none" fill-rule="evenodd">
        <g id="群組-copy" transform="translate(0.000000, -1.000000)">
            <g id="群組" transform="translate(0.000000, 12.890208)">
                <mask id="mask-2" fill="white">
                    <use xlink:href="#path-1"></use>
                </mask>
                <g id="Clip-2"></g>
                <path d="M0.483538462,5.38202941 L0.283769231,6.01629412 L0.273,6.0515 L0,6.91320588 C0,6.91544118 0.00215384615,6.92661765 0.00215384615,6.93108824 C-0.00161538462,6.99647059 0.00861538462,7.12276471 0.0516923077,7.27029412 C0.380153846,8.38347059 2.28469231,10.1420882 6.42115385,13.1502353 C6.50138462,13.2072353 6.56923077,13.2603235 6.64730769,13.3167647 C6.79592308,13.4235 6.937,13.5274412 7.07807692,13.6330588 C7.22076923,13.7392353 7.36884615,13.8487647 7.50830769,13.9499118 C10.2259231,15.9750882 12.0900769,17.5409118 12.9747692,18.8452059 C12.9914615,18.8714706 13.0081538,18.8966176 13.0296923,18.9223235 C13.8772308,16.8451765 14.0570769,14.4629118 13.3689231,12.1370882 C12.8202308,10.2829118 11.7890769,8.72155882 10.4671538,7.54244118 C10.0616923,7.23005882 9.62392308,6.90258824 9.15815385,6.55835294 C8.95946154,6.41305882 8.77638462,6.27614706 8.56853846,6.12414706 C8.55723077,6.11744118 8.55238462,6.11017647 8.54269231,6.10626471 C8.37738462,5.985 8.22338462,5.87044118 8.06184615,5.75252941 C8.05915385,5.74917647 8.05646154,5.74805882 8.05323077,5.74526471 C8.00315385,5.70894118 7.95469231,5.67429412 7.90676923,5.63685294 C7.71723077,5.49994118 7.52661538,5.35855882 7.34461538,5.22388235 C7.24284615,5.14844118 7.15238462,5.07579412 7.05169231,5.00147059 C6.91815385,4.90144118 6.78676923,4.80252941 6.657,4.70361765 C4.46115385,3.03664706 2.82584615,1.61164706 2.04184615,0.437 L0.483538462,5.38202941 Z" id="Fill-1" fill="url(#linearGradient-3)" mask="url(#mask-2)"></path>
            </g>
            <g id="群組" transform="translate(2.000000, 0.890208)" fill="#B7BABB">
                <path d="M10.7497423,32.1846676 C10.4792615,31.1380595 8.66285769,29.4221541 5.29383846,27.0502486 C5.26706923,27.1294784 5.24364615,27.2020595 5.21687692,27.2812892 C3.46739615,32.5614243 2.96435769,35.3039919 3.59622308,36.1178973 C3.68043462,36.1633297 3.78639615,36.1932486 3.92247308,36.1932486 C5.2403,36.1932486 8.01928077,34.2651405 10.7497423,32.1846676" id="Fill-3"></path>
                <path d="M6.32144231,16.7806905 C7.43515385,16.3291365 8.70836538,12.5576905 9.52426923,9.85002838 L8.73513462,9.84836622 C3.28313462,9.84836622 0.625173077,10.2378662 0.147230769,11.1088392 C-0.0830961538,12.3078122 4.02430769,15.2199203 6.32144231,16.7806905" id="Fill-5"></path>
                <path d="M19.6341712,7.73431757 C20.1834981,8.66125 22.1822673,10.6093041 25.3856519,10.6093041 C26.1614019,10.6076419 26.9661519,10.4874122 27.7803827,10.2574797 C27.6443058,9.8430473 27.5020942,9.4064527 27.3543058,8.94547973 L27.1395942,8.28283108 C25.8870173,4.39614189 24.4370173,0.415263514 23.1599019,0.160952703 C21.9352096,0.370385135 20.4673635,4.92969595 19.6341712,7.73431757" id="Fill-7"></path>
                <path d="M27.0165115,32.5014203 C26.9780308,32.4964338 26.9473577,32.4853527 26.9049731,32.4853527 C25.6261846,32.4853527 23.0892423,34.1890689 20.3526462,36.2457176 C20.4446654,36.3105419 20.5227423,36.3648392 20.6147615,36.4318797 C24.6675115,39.3805554 27.0918,40.7546095 28.2395308,40.7546095 C28.4029346,40.7546095 28.5317615,40.7169338 28.6511077,40.65765 C29.5283577,39.8010824 27.9500885,35.1027041 27.0165115,32.5014203" id="Fill-9"></path>
            </g>
            <g id="群組" transform="translate(28.000000, 19.890208)">
                <mask id="mask-5" fill="white">
                    <use xlink:href="#path-4"></use>
                </mask>
                <g id="Clip-12"></g>
                <path d="M4.13325,0.0950526316 C2.687625,1.29757895 1.562625,2.85268421 0.8825625,4.62276316 C0.4663125,5.61473684 0.142875,6.86921053 0.15075,8.37292105 C0.1490625,8.42707895 0.142875,8.48068421 0.142875,8.53428947 C0.142875,8.59618421 0.15075,8.65421053 0.15075,8.71555263 C0.15075,8.73931579 0.1546875,8.76142105 0.1546875,8.78297368 C0.1935,10.3817368 0.5720625,11.8909737 1.227375,13.2515526 C1.28925,13.4184474 1.353375,13.5886579 1.409625,13.7489211 C1.5103125,14.0385 1.603125,14.3092895 1.699875,14.5845 C2.6431875,17.3167105 3.2090625,19.4145 3.191625,20.8264737 L6.422625,18.4479474 L7.3738125,17.7483158 L7.93125,17.3360526 L8.6855625,16.7828684 C8.6889375,16.779 8.6911875,16.7712632 8.6968125,16.7662895 C9.554625,15.8804211 8.2299375,11.8174737 6.809625,7.95568421 C5.365125,4.04802632 5.0180625,2.89634211 4.440375,0.991973684 C4.3385625,0.652105263 4.284,0.473605263 4.16025,0.0696315789 C4.152375,0.0790263158 4.1428125,0.0867631579 4.13325,0.0950526316" id="Fill-11" fill="url(#linearGradient-6)" mask="url(#mask-5)"></path>
            </g>
            <g id="群組" transform="translate(7.000000, 29.890208)">
                <mask id="mask-8" fill="white">
                    <use xlink:href="#path-7"></use>
                </mask>
                <g id="Clip-14"></g>
                <path d="M9.45376923,2.06473913 C9.04776923,2.37843478 8.617,2.71869565 8.16307692,3.08552174 C7.97407692,3.23982609 7.79261538,3.38395652 7.59230769,3.55013043 C7.581,3.55634783 7.57507692,3.56143478 7.56807692,3.56934783 C7.40869231,3.69878261 7.25630769,3.81973913 7.10069231,3.94578261 C7.09638462,3.9486087 7.09530769,3.95256522 7.09153846,3.95313043 C7.04307692,3.99326087 6.99676923,4.03056522 6.94830769,4.069 C6.76630769,4.21652174 6.57946154,4.36743478 6.40284615,4.51043478 C6.30484615,4.589 6.21061538,4.66191304 6.11207692,4.73878261 C5.98230769,4.84334783 5.85253846,4.94395652 5.72438462,5.04626087 C3.54038462,6.75491304 1.75107692,7.97182609 0.437769231,8.40986957 L4.536,11.4411304 L5.06261538,11.8322609 L5.09223077,11.8526087 L5.80623077,12.3816522 C5.80784615,12.3816522 5.817,12.3844783 5.82292308,12.3856087 C5.88053846,12.409913 5.999,12.4347826 6.14923077,12.4347826 C7.273,12.4347826 9.45,11.0477391 13.4335385,7.787 C13.5089231,7.72595652 13.5794615,7.67113043 13.6532308,7.61008696 C13.7964615,7.49478261 13.9332308,7.38569565 14.0726923,7.27208696 C14.2121538,7.15904348 14.3559231,7.04373913 14.4878462,6.93465217 C17.1521538,4.80604348 19.1423077,3.4026087 20.6015385,2.90182609 C20.6295385,2.89221739 20.6596923,2.87978261 20.6887692,2.86791304 C19.0249231,1.4006087 16.884,0.514913043 14.5400769,0.514913043 C12.6689231,0.514913043 10.9275385,1.08804348 9.45376923,2.06473913" id="Fill-13" fill="url(#linearGradient-9)" mask="url(#mask-8)"></path>
            </g>
            <g id="群組" transform="translate(10.000000, 1.890208)">
                <mask id="mask-11" fill="white">
                    <use xlink:href="#path-10"></use>
                </mask>
                <g id="Clip-16"></g>
                <path d="M8.59936,0.239645161 L7.90608,0.249516129 L6.96472,0.261032258 C6.96192,0.261580645 6.95576,0.264870968 6.95352,0.264870968 C6.00152,0.422258065 4.8244,2.93990323 3.2144,8.41993548 C3.18192,8.52303226 3.15336,8.61790323 3.12592,8.72045161 C3.07384,8.89374194 3.02344,9.06209677 2.97136,9.23319355 C2.91984,9.40209677 2.86944,9.57922581 2.81736,9.74483871 C1.8172,13.0422903 0.95088,15.3575806 0.01288,16.609 C0.17752,16.6183226 0.33712,16.6309355 0.50344,16.6325806 L0.92736,16.6270968 C5.15816,16.5124839 8.72424,13.8177097 10.04528,10.088129 C10.12648,9.83258065 10.20376,9.571 10.28216,9.3116129 C10.3768,9.00067742 10.47312,8.69303226 10.56384,8.38154839 C10.56776,8.37167742 10.57168,8.36125806 10.57392,8.34974194 C10.6372,8.13587097 10.6988,7.93954839 10.76096,7.73170968 L10.76096,7.73335484 L10.76096,7.73170968 C10.7856,7.65164516 10.80856,7.57048387 10.83208,7.49151613 C10.89424,7.28751613 10.95808,7.07474194 11.01912,6.87512903 C11.08464,6.66125806 11.15016,6.4643871 11.214,6.25819355 C11.23696,6.18745161 11.25768,6.11341935 11.28176,6.04541935 C12.16656,3.26674194 12.95728,1.27829032 13.80344,0.167258065 L8.59936,0.239645161 Z" id="Fill-15" fill="url(#linearGradient-12)" mask="url(#mask-11)"></path>
            </g>
            <g id="群組" transform="translate(22.000000, 10.890208)">
                <mask id="mask-14" fill="white">
                    <use xlink:href="#path-13"></use>
                </mask>
                <g id="Clip-18"></g>
                <path d="M9.50885714,1.36114286 C9.292,1.42914286 9.062,1.49542857 8.86157143,1.56171429 C8.70385714,1.61657143 8.54669048,1.67028571 8.39609524,1.72228571 C8.38842857,1.72514286 8.38130952,1.72742857 8.37309524,1.72971429 C8.33530952,1.74342857 8.29971429,1.75257143 8.26247619,1.76514286 C8.13378571,1.808 8.00728571,1.84514286 7.88078571,1.88342857 C6.97995238,2.15257143 6.08240476,2.29771429 5.21333333,2.29828571 C3.98283333,2.29828571 2.9067619,2.02514286 1.99004762,1.61657143 C1.45064286,1.37485714 0.966,1.08514286 0.542142857,0.778285714 C0.426595238,0.694857143 0.313238095,0.610857143 0.206452381,0.524571429 C0.211928571,0.545714286 0.213571429,0.568 0.215761905,0.587428571 C0.872357143,4.40171429 3.88371429,7.364 7.62888095,7.75942857 C7.90980952,7.78742857 8.19457143,7.80628571 8.48480952,7.80628571 C9.0072381,7.80628571 9.51652381,7.74914286 10.0143095,7.65257143 C10.3593095,7.56114286 10.6856905,7.47485714 10.9907143,7.40571429 C10.9929048,7.40571429 10.9945476,7.40457143 11.0005714,7.40457143 C11.0005714,7.40457143 11.0044048,7.40457143 11.0044048,7.40285714 C11.9813571,7.18057143 12.8142857,7.07942857 13.8257381,7.14228571 C14.8925,7.20685714 16.1673571,7.45485714 18.0473333,7.936 L22.590381,1.82971429 C20.523119,1.11371429 18.6004286,0.688571429 16.7620714,0.527428571 C16.2182857,0.481714286 15.6810714,0.448571429 15.1509762,0.448571429 C12.9090238,0.448571429 11.0323333,0.886285714 9.50885714,1.36114286" id="Fill-17" fill="url(#linearGradient-15)" mask="url(#mask-14)"></path>
            </g>
            <g id="群組" transform="translate(52.000000, 1.890208)" fill="#FFFFFF">
                <path d="M23.504559,35.3359517 L22.7272795,25.7768145 L24.8047957,25.441629 L25.7741932,34.7566937 L23.504559,35.3359517 Z M22.6689284,23.0263054 C22.0033966,23.0263054 22.0766106,23.670723 22.0766106,23.670723 L22.0633991,35.6976428 L22.0633991,36.3641484 C22.0633991,37.1985229 21.8773364,37.8241657 21.506312,38.2576428 C21.1369391,38.6844935 20.4537918,38.895434 19.4557693,38.895434 L17.9892872,38.895434 L17.4888998,36.448635 L19.0115309,36.5563141 C19.6055002,36.5563141 19.8994572,36.2708266 19.8994572,35.6976428 L19.8994572,23.4934668 C19.8994572,23.4934668 19.9132193,23.0263054 19.2988822,23.0263054 C18.6834441,23.0263054 18.7395932,23.4934668 18.7395932,23.4934668 L18.7395932,24.4128801 L18.7395932,24.9650802 C18.7395932,28.522906 18.4538934,31.2695496 17.8896501,33.1917584 C17.3303612,35.1255634 16.203526,37.1510336 14.5256591,39.2808697 L12.5835613,37.783855 C14.1155506,36.0957791 15.1730251,34.3569008 15.7620401,32.556176 C16.3433483,30.7565557 16.63125,24.8855634 16.63125,23.7684625 C16.63125,22.9053736 15.9062661,23.0263054 15.9062661,23.0263054 L13.5276366,23.0263054 L13.5276366,20.7186609 L17.0606254,20.7186609 C17.0606254,20.7186609 17.7718471,20.7755375 17.7718471,20.0808697 L17.7718471,19.2972977 C17.7718471,18.4629232 16.9758512,18.5159344 16.9758512,18.5159344 L13.94325,18.5159344 L13.94325,16.2646143 L17.2857722,16.2646143 C17.9953425,16.2646143 17.9298353,15.6328973 17.9298353,15.6328973 L17.9298353,13.7968318 L20.3139696,13.7968318 L20.3139696,15.6803865 C20.3139696,15.6803865 20.332686,16.2646143 20.8275686,16.2646143 L24.0462326,16.2646143 C24.0462326,16.2646143 25.075082,16.2193339 25.075082,17.3579707 C25.075082,18.5656324 24.0462326,18.5159344 24.0462326,18.5159344 L21.0334486,18.5159344 C21.0334486,18.5159344 20.4719577,18.4391786 20.4719577,19.0598516 L20.4719577,20.1184193 C20.4719577,20.7827161 21.2074007,20.7186609 21.2074007,20.7186609 L24.709012,20.7186609 C24.709012,20.7186609 25.8149289,20.6109819 25.8419024,21.8451493 C25.8606188,23.0014564 24.709012,23.0263054 24.709012,23.0263054 L22.6689284,23.0263054 Z M15.6618525,25.6117066 L14.5174019,34.3303952 L12.5334675,32.7455807 L13.6415862,25.2709991 L15.6618525,25.6117066 Z M12.8901793,29.6168145 L10.9244107,30.2203693 L10.006208,25.4962968 L11.8371087,25.0534323 L12.8901793,29.6168145 Z M10.6420138,23.0263054 C10.6420138,23.0263054 9.94950842,22.9583848 9.94950842,23.6972286 L9.94950842,35.3359517 L9.94950842,36.0030095 C9.94950842,36.8550544 9.76840008,37.4917412 9.39737571,37.9075479 C9.03240664,38.32722 8.3547642,38.5326385 7.37325611,38.5326385 L5.88035093,38.5326385 L5.41079042,36.0819741 L6.9036956,36.194623 C7.49601343,36.194623 7.79162187,35.9091355 7.79162187,35.3359517 L7.8053839,23.5221812 C7.8053839,23.5221812 7.86538636,23.0263054 7.30334499,23.0263054 C6.80681089,23.0185746 6.833234,23.5221812 6.833234,23.5221812 C6.833234,24.1185574 6.82002245,24.0776946 6.82002245,24.4128801 L6.82002245,24.9650802 C6.82002245,28.5041311 6.5365246,31.2474616 5.97338227,33.1917584 C5.41079042,35.1415772 4.32579185,37.1145884 2.72058849,39.1185229 L0.837942576,37.6435962 C2.31543428,36.0129491 3.33162269,34.2845626 3.8837554,32.4600932 C4.43753955,30.6350716 4.71443162,27.5753305 4.71443162,23.9418533 C4.71443162,22.9583848 3.9569694,23.0263054 3.9569694,23.0263054 L0.919964284,23.0263054 L0.919964284,20.7186609 L5.33702593,20.7186609 C5.33702593,20.7186609 6.00696162,20.7871337 6.00696162,19.9991441 L6.00696162,19.2680311 C6.00696162,18.5418878 5.29629031,18.5159344 5.29629031,18.5159344 L1.72201548,18.5159344 L1.72201548,16.2646143 L5.48125202,16.2646143 C5.48125202,16.2646143 6.13081991,16.2513615 6.13081991,15.5820949 L6.13081991,13.7968318 L8.51385329,13.7968318 L8.51385329,15.7096531 C8.51385329,15.7096531 8.43073062,16.2646143 9.07314225,16.2646143 L11.2084591,16.2646143 C11.2084591,16.2646143 12.5147511,16.1712925 12.5147511,17.4303089 C12.5147511,18.6114651 11.2084591,18.5159344 11.2084591,18.5159344 L9.36930117,18.5159344 C9.36930117,18.5159344 8.68340152,18.4629232 8.64156494,19.2680311 L8.64156494,20.1427161 C8.64156494,20.1427161 8.60908655,20.7186609 9.32195978,20.7186609 L11.532142,20.7186609 C11.532142,20.7186609 12.7443018,20.6336221 12.7646696,21.8451493 C12.7696239,23.0014564 11.532142,23.0263054 11.532142,23.0263054 L10.6420138,23.0263054 Z M3.82980823,25.0799379 L2.37598722,33.5567627 L0.496644194,32.3297739 C0.496644194,32.3297739 1.83266222,25.367082 1.8860589,24.8800414 L3.82980823,25.0799379 Z" id="Fill-19"></path>
                <polygon id="Fill-21" points="32.2859462 32.3600897 31.1057144 39.105767 28.8052532 39.105767 30.0086052 32.085094"></polygon>
                <path d="M37.188147,17.7707403 L39.2524517,18.6735876 L33.6788289,27.6937774 C33.6788289,27.6937774 33.103576,28.4254426 33.720115,28.3912062 C34.7363034,28.3221812 37.069243,28.0250975 37.0560315,27.9748473 C36.980065,27.7661156 36.2793024,25.9565557 36.2793024,25.9565557 L38.1030468,25.4109819 L40.123313,30.3874098 L38.0661646,31.0953305 L37.6318349,30.0527765 L30.7866004,30.7789198 C30.7866004,30.7789198 29.0553368,30.9550716 29.8535346,29.5828542 L33.9403075,23.3236652 L30.7144873,23.6654771 C30.7144873,23.6654771 28.9942334,23.847151 29.4142506,22.5489284 C29.4423251,22.4683072 33.3892758,13.8766247 33.3892758,13.8766247 L35.7051504,14.4939845 L32.648328,20.7680828 C32.648328,20.7680828 32.3284984,21.3821294 33.0430231,21.3307748 C33.6997472,21.281629 35.2355899,21.0375565 35.2355899,21.0375565" id="Fill-23"></path>
                <polygon id="Fill-25" points="33.5008583 38.5232511 33.1958917 32.1707403 35.272307 31.8902226 35.8035214 38.252673"></polygon>
                <polygon id="Fill-27" points="37.1037031 36.6167248 36.4959718 31.6099258 38.3791682 31.1930147 39.1569982 36.0341536"></polygon>
                <path d="M39.2868568,16.5555134 L39.2868568,14.3240725 L52.9046622,14.3240725 C52.9046622,14.3240725 54.2803149,14.3240725 54.2803149,15.3555824 C54.2803149,16.6604314 52.9046622,16.5555134 52.9046622,16.5555134 L39.2868568,16.5555134 Z" id="Fill-29"></path>
                <path d="M44.5954228,29.1385539 L39.8783489,29.1385539 L39.8783489,26.771824 L44.8299278,26.771824 C44.8299278,26.771824 45.3627937,26.7574668 45.3627937,26.2179672 L45.3627937,24.3874236 L47.7997742,24.3874236 L47.7997742,26.3179154 C47.7997742,26.3179154 47.8058295,26.771824 48.2038275,26.771824 L52.9858582,26.771824 C52.9858582,26.771824 54.2024218,26.7182606 54.2024218,27.9342053 C54.2024218,29.1567765 52.9858582,29.1385539 52.9858582,29.1385539 C52.9858582,29.1385539 49.2959823,29.1241967 48.6007245,29.1462847 C47.8867503,29.1634029 48.2841977,29.6841277 48.2841977,29.6841277 L54.1270059,39.1891493 L50.8450366,39.1891493 L47.7997742,33.3927041 L47.7997742,39.3664055 L45.3627937,39.3664055 L45.3627937,33.3927041 L41.0013307,39.2957239 L38.1201117,39.2957239 L44.7121248,29.8823676 C44.9697501,29.525094 45.2504955,29.1385539 44.5954228,29.1385539" id="Fill-31"></path>
                <polygon id="Fill-33" points="41.3199492 24.7487282 39.7362146 19.7982537 42.0653008 19.1582537 43.865925 24.1043106"></polygon>
                <polygon id="Fill-35" points="45.6098497 23.4407317 45.0296424 18.7669094 47.4132263 18.4626471 48.1299529 23.1883762"></polygon>
                <polygon id="Fill-37" points="53.869766 18.9902744 51.4575571 24.9098602 49.0227785 23.7977291 51.5742591 18.1614219"></polygon>
                <path d="M80.9788212,27.7874305 C80.9788212,29.6947299 80.9171673,31.8400276 79.971991,33.4888973 C78.8049707,35.4922796 77.5592316,36.321132 77.5592316,36.321132 C78.8027688,36.8274996 81.0531362,36.8551096 81.0531362,36.8551096 C81.0531362,36.8551096 82.3208945,36.8026506 82.3208945,38.0208041 C82.3208945,39.2428231 80.9727659,39.1997515 80.9727659,39.1997515 C80.9727659,39.1997515 77.5878566,39.3245487 75.0182101,37.9412873 C73.0821675,39.1627541 67.8845234,39.1185781 67.8845234,39.1185781 L67.8845234,36.6204245 C67.8845234,36.6204245 70.1514053,36.9092252 72.4287463,36.1129525 C72.4287463,36.1129525 71.2375048,34.7804935 70.5246316,33.3519517 C69.6598255,31.6147299 69.4275224,29.1828404 69.4275224,29.1828404 L71.8711087,29.1828404 C71.8711087,29.1828404 71.9250559,30.8261881 72.2669048,31.7892252 C72.597744,32.6981467 73.4851198,34.387327 75.0985804,35.1786299 C75.0985804,35.1786299 76.8469089,34.1741777 77.5878566,32.6114513 C78.3684391,30.9625815 78.1526504,28.1110198 78.1526504,28.1110198 L68.3992234,28.1110198 L68.3992234,25.7956445 L78.5671628,25.7956445 C78.5671628,25.7956445 80.9788212,25.496352 80.9788212,27.7874305 Z M79.516743,16.2077929 L79.516743,20.5215807 C79.516743,21.1544021 79.6004161,21.5492252 79.7760197,21.7292425 C79.9472193,21.9053943 80.2896187,21.9931941 80.7845013,21.9931941 L81.2766316,21.9931941 C81.2766316,21.9931941 82.5278755,21.9898809 82.5278755,23.1196825 C82.5278755,24.2527972 81.2766316,24.3317619 81.2766316,24.3317619 L79.8718034,24.3317619 C78.8715789,24.3317619 78.1322826,24.1042554 77.6418038,23.6613909 C77.150224,23.2157653 76.9080123,22.3477066 76.9080123,21.0516928 L76.9080123,16.8792683 L73.0821675,16.8792683 L73.0821675,17.7705194 C73.0821675,19.2680863 72.847112,20.5293115 72.3786525,21.5332114 C71.9074405,22.5464987 70.8571223,23.7712787 69.233753,25.2130733 L67.2096334,23.4117964 C68.6326275,22.321201 69.542573,21.3311061 69.9537825,20.4475858 C70.3572853,19.567931 70.5598624,18.0907955 70.5598624,16.0189405 L70.5598624,14.544566 L77.9572296,14.544566 C77.9572296,14.544566 79.516743,14.3744884 79.516743,16.2077929 Z M60.6688151,35.5883624 L64.4649339,35.5883624 L64.4649339,31.6942468 L60.6688151,31.6942468 L60.6688151,35.5883624 Z M58.1800893,29.4462399 L65.4943338,29.4462399 C65.4943338,29.4462399 66.9597149,29.2927282 66.9597149,31.0155928 L66.9597149,39.0848939 L64.4649339,39.0848939 L64.4649339,37.8380259 L60.6682646,37.8380259 L60.6682646,39.366516 L58.1800893,39.366516 L58.1800893,29.4462399 Z M58.0903608,25.1064987 L65.5730526,25.1064987 C65.5730526,25.1064987 66.9597149,25.0435479 66.9597149,26.2683279 C66.9597149,27.4859292 65.5730526,27.3854288 65.5730526,27.3854288 L58.0903608,27.3854288 L58.0903608,25.1064987 Z M58.0903608,21.0516928 L65.5521343,21.0516928 C65.5521343,21.0516928 66.9068687,21.0152476 66.9068687,22.2041346 C66.9068687,23.4002002 65.5521343,23.3251009 65.5521343,23.3251009 L58.0903608,23.3251009 L58.0903608,21.0516928 Z M60.7067983,16.9648594 C60.7067983,16.9648594 61.9503354,17.0305712 61.2803998,15.8488628 L60.449173,14.1254461 L62.9406512,13.796887 L63.6920582,15.4860673 C63.6920582,15.4860673 64.3063952,16.97756 65.3638698,16.97756 C66.4196928,16.97756 66.5270367,16.9648594 66.5270367,16.9648594 C66.5270367,16.9648594 67.8784682,16.9013563 67.8784682,18.1206143 C67.8784682,19.4442381 66.5270367,19.3520207 66.5270367,19.3520207 L57.3169347,19.3520207 L57.3169347,16.9648594 L60.7067983,16.9648594 Z" id="Fill-39"></path>
                <path d="M105.942376,13.7969422 L105.942376,20.775648 C105.942376,20.775648 105.90109,21.7193581 106.877093,21.7193581 L109.838682,21.7193581 C109.838682,21.7193581 111.114147,21.595113 111.091577,22.9463469 C111.064604,24.3008939 109.838682,24.2423607 109.838682,24.2423607 L106.776355,24.2423607 C105.797049,24.2423607 105.942376,25.2838102 105.942376,25.2838102 L105.942376,39.3665712 L103.20153,39.3665712 L103.20153,25.0728697 C103.20153,24.0954754 102.253601,24.2423607 102.253601,24.2423607 L98.090311,24.2423607 L98.090311,21.7193581 L102.379661,21.7193581 C103.310525,21.7193581 103.20153,20.8021536 103.20153,20.8021536 L103.20153,13.7969422 L105.942376,13.7969422 Z M89.1125121,35.7237066 L94.1015238,35.7237066 L94.1015238,31.7484176 L89.1125121,31.7484176 L89.1125121,35.7237066 Z M86.4795603,29.5826885 L95.1364286,29.5826885 C95.1364286,29.5826885 96.7741103,29.4242071 96.7603483,31.2287972 C96.7449348,32.7666747 96.7603483,39.0849491 96.7603483,39.0849491 L94.1015238,39.0849491 L94.1015238,37.8916445 L89.1125121,37.8916445 L89.1125121,39.3665712 L86.4795603,39.3665712 L86.4795603,29.5826885 Z M86.3953366,25.2473548 L95.6874603,25.247365 C95.6874603,25.247365 96.9337499,25.2324556 96.9337499,26.3429301 C96.9337499,27.4561657 95.6874603,27.4440173 95.6874603,27.4440173 L86.3953366,27.4440201 L86.3953366,25.2473548 Z M86.3953366,21.1610837 L95.7430589,21.1610837 C95.7430589,21.1610837 96.8753989,21.0892977 96.8753989,22.3118689 C96.8753989,23.5355444 95.7711335,23.385346 95.7711335,23.385346 L86.3953366,23.385346 L86.3953366,21.1610837 Z M97.7831425,18.1974254 C97.7831425,19.3139741 96.5638265,19.3835513 96.5638265,19.3835513 L85.5129152,19.3835513 L85.5129152,17.015717 L89.3938081,17.015717 C89.3938081,17.015717 90.5822971,17.1084866 90.1903545,16.3414806 C89.8435513,15.6755272 89.0844376,14.1255013 89.0844376,14.1255013 L91.7702357,13.7969422 L92.9394579,16.2868128 C93.2807563,17.1383054 94.1015238,17.015717 94.1015238,17.015717 L96.5638265,17.015717 C96.5638265,17.015717 97.7831425,17.0041208 97.7831425,18.1974254 Z" id="Fill-41"></path>
                <path d="M127.138602,23.2123417 L124.326193,24.8855082 L123.173485,23.1747921 L125.634687,21.7810388 L124.206188,20.3872856 L125.877449,19.2757066 L127.34228,20.8262847 L129.484753,19.3927731 L130.672141,20.9080104 L128.890233,22.0571389 L130.279648,23.5353788 L128.676646,24.8037826 L127.138602,23.2123417 Z M127.098417,17.6290457 L124.124717,19.4700811 L122.768331,17.6643865 L125.476148,16.2513063 L124.008015,14.8514789 L125.447523,13.5736877 L127.266864,15.2971044 L129.090058,14.0154478 L130.359468,15.3688904 L128.69261,16.4865436 L130.279648,17.9603658 L128.61169,19.100107 L127.098417,17.6290457 Z M136.465956,27.3858706 L116.928275,27.3858706 L116.928275,31.3893218 L114.51992,31.3893218 L114.51992,26.3571217 C114.51992,25.0434374 115.731529,25.2471993 115.731529,25.2471993 L115.731529,14.8222123 L121.5314,14.0391924 L122.718788,16.0453356 L118.069423,16.7687179 L118.069423,18.1613667 L122.222254,18.1613667 L122.222254,20.0178637 L118.069423,20.0178637 L118.069423,21.5474582 L122.222254,21.5474582 L122.222254,23.4409525 L118.069423,23.4409525 L118.069423,25.2471993 L135.279669,25.2471993 L135.279669,23.4409525 L131.391069,23.4409525 L131.391069,21.5474582 L135.279669,21.5474582 L135.279669,20.0178637 L131.391069,20.0178637 L131.391069,18.1613667 L135.279669,18.1613667 L135.279669,16.6825746 L131.084451,16.6825746 L131.084451,14.5185022 L136.069059,14.5185022 C136.069059,14.5185022 137.608205,14.4516859 137.608205,16.2866471 L137.608205,25.2471993 C137.608205,25.2471993 138.900735,25.0892701 138.900735,26.5956721 L138.900735,31.3893218 L136.465956,31.3893218 L136.465956,27.3858706 Z M132.696811,28.5543261 C132.696811,28.5543261 134.259077,28.4709439 134.329538,29.6609353 C134.40055,31.0513753 132.696811,31.4141708 132.696811,31.4141708 L128.203783,32.9189163 L137.858123,32.9189163 C137.858123,32.9189163 139.406077,32.7665091 139.446812,33.963679 C139.48975,35.1972942 137.858123,35.1133598 137.858123,35.1133598 L128.203783,35.1133598 L128.203783,36.2249387 L128.203783,36.8097187 C128.203783,38.3481484 127.383015,39.1184676 125.737627,39.1184676 L121.44002,39.1184676 L121.44002,36.920711 L124.855205,37.0377774 C125.389723,37.0377774 125.656706,36.7616773 125.656706,36.2249387 L125.656706,35.1133598 L113.908886,35.1133598 L113.908886,32.9189163 L125.656706,32.9189163 C125.656706,32.9189163 125.794326,32.2855427 126.111404,31.9669232 C126.430683,31.6505125 126.666289,31.5571907 127.734222,31.279434 L130.394698,30.584214 L119.006342,30.584214 L119.006342,28.5543261 L132.696811,28.5543261 Z" id="Fill-43"></path>
                <path d="M153.509407,21.4366868 L163.849647,21.4366868 L163.849647,18.766799 L153.509407,18.766799 L153.509407,21.4366868 Z M164.291683,23.7708369 L153.096546,23.7708369 L153.096546,22.4361691 L150.992606,22.4361691 L150.992606,16.3487144 L156.657609,16.3487144 C157.342408,16.3487144 157.02533,15.7838136 157.02533,15.7838136 L156.171534,14.1255565 L158.806137,13.7969974 L159.762874,15.7197584 C159.762874,15.7197584 160.05628,16.3487144 160.755391,16.3487144 L165.176857,16.3487144 C166.473791,16.3487144 166.371952,17.680069 166.371952,17.680069 L166.371952,22.4648835 L164.291683,22.4648835 L164.291683,23.7708369 Z M153.706479,28.7174461 L151.017378,28.7174461 L151.017378,26.3087489 L165.531367,26.3087489 C165.531367,26.3087489 166.920231,26.2402761 166.87289,27.5506471 C166.821695,28.7859189 165.531367,28.7174461 165.531367,28.7174461 L162.632532,28.7174461 C162.632532,28.7174461 161.604784,28.6671959 161.604784,29.8963934 L161.604784,35.7237619 C161.604784,36.3576877 161.927366,36.6713374 162.57308,36.6713374 L166.813438,36.6713374 C166.813438,36.6713374 167.86816,36.6713374 167.896234,37.8099741 C167.92596,39.0032787 166.813438,38.9508197 166.813438,38.9508197 L161.853601,38.9508197 C160.929343,38.9508197 160.235737,38.7321484 159.773883,38.2959103 C159.31258,37.8668507 159.083029,37.0170147 159.083029,35.7552373 L159.083029,29.8240552 C159.083029,29.8240552 159.181565,28.7456083 158.033262,28.7456083 C157.11671,28.7456083 157.123316,29.7881622 157.11671,29.864918 C156.936152,32.223365 156.609166,33.8749957 155.551692,35.4531838 C154.487061,37.0236411 152.739283,38.3340121 150.301202,39.393132 L148.661318,37.1142019 C150.915539,36.3383607 152.479456,35.3432959 153.348666,34.1372908 C154.112734,33.0693356 154.544311,31.6601208 154.632388,29.9052286 C154.632388,29.9052286 154.856985,28.7174461 153.706479,28.7174461 Z M150.242851,16.6010699 C150.242851,16.6010699 148.967386,21.7989301 148.774717,22.4935979 C148.545166,23.3329422 148.974542,24.3876445 148.974542,24.3876445 L150.63039,29.5827437 C150.63039,29.5827437 151.605842,32.3293874 148.82316,33.1267645 L145.520822,33.3349439 L145.520822,30.7567213 L147.435947,30.7567213 C148.538561,30.6987403 148.192858,29.5253149 148.192858,29.5253149 L146.447282,24.7272476 C146.447282,24.7272476 145.88414,23.6896635 146.257917,22.5013287 C146.485816,21.7558585 147.663846,17.1830889 147.663846,17.1830889 L144.780976,17.1830889 L144.780976,39.3666264 L142.203622,39.3666264 L142.203622,14.7942709 L148.630491,14.7942709 C150.68764,14.7942709 150.242851,16.6010699 150.242851,16.6010699 Z" id="Fill-45"></path>
                <path d="M8.72171501,8.12258844 L8.05893557,8.29432269 C7.89874553,7.79071613 7.70827901,7.31748059 7.46716822,6.85418464 L8.04902691,6.66312338 C8.29068818,7.08555651 8.52078935,7.56928387 8.72171501,8.12258844 Z M7.19633144,8.50526316 L6.54346066,8.74712683 C6.38272013,8.18333046 6.18234495,7.63002588 5.94123416,7.08555651 L6.52309285,6.92486626 C6.81429744,7.49860224 7.03559091,8.02264021 7.19633144,8.50526316 Z M5.46947172,2.60445211 C5.31919033,3.00700604 5.15789932,3.38029336 4.99770928,3.74253667 L7.6675434,3.74253667 L7.96920713,2.60445211 L5.46947172,2.60445211 Z M5.52892369,8.9481277 L4.83696875,9.02985332 C4.78742544,8.23358067 4.66631956,7.61898188 4.4857617,7.18605695 L5.10835601,7.11592752 C5.31919033,7.55934426 5.45956306,8.17339085 5.52892369,8.9481277 Z M3.83289093,5.62609146 L8.54115716,5.62609146 L8.83236174,4.38695427 L4.66631956,4.38695427 C4.40539144,4.82981881 4.13400418,5.24286454 3.83289093,5.62609146 Z M3.90335253,7.13635893 C3.64242441,7.96189819 3.2609409,8.68638481 2.77871931,9.291044 L2.1473173,8.88849008 C2.64880573,8.3147541 3.00992144,7.6797239 3.25103223,6.99499569 L3.90335253,7.13635893 Z M10.2080144,5.62609146 C10.1876466,7.51848145 10.0670912,8.6466264 9.83588908,9.00886972 C9.59477829,9.38105263 9.18411927,9.57321829 8.6017101,9.57321829 C8.32041417,9.57321829 7.98902445,9.56327869 7.60809142,9.54284728 L7.42698308,8.85811907 C7.82883441,8.87799827 8.16958231,8.89842968 8.43106091,8.90781708 C8.8719964,8.88849008 9.15329232,8.74712683 9.27384772,8.46550475 C9.38394397,8.18333046 9.45440557,7.45829163 9.48468204,6.28044866 L3.2609409,6.28044866 C2.77871931,6.77411562 2.25741356,7.20648835 1.68546353,7.57922347 L1.333706,6.94419327 C2.89982519,5.89722174 4.02390793,4.45763589 4.71696383,2.60445211 L2.0063941,2.60445211 L2.0063941,1.96003451 L3.69251821,1.96003451 C3.48168388,1.6077308 3.20093844,1.22560828 2.85964006,0.802070751 L3.43214057,0.439827437 C3.79325628,0.872752373 4.08391038,1.25542709 4.28483604,1.5878516 L3.75307114,1.96003451 L4.93770682,1.96003451 C5.09789687,1.43710095 5.23826959,0.882691976 5.33845718,0.318343399 L6.05133041,0.409456428 C5.95114282,0.953373598 5.82067876,1.46636756 5.68085652,1.96003451 L8.78226795,1.96003451 L8.38041663,3.74253667 L9.62560524,3.74253667 L9.25403039,5.62609146 L10.2080144,5.62609146 Z" id="Fill-47"></path>
                <path d="M18.0546294,2.96702675 C18.285281,2.76602588 18.4961153,2.55453322 18.6865819,2.31266954 L19.1192601,2.58490423 C18.9084258,2.84664711 18.697041,3.06807938 18.4862067,3.24920104 C18.7471348,3.43032269 18.9882456,3.62193615 19.2089886,3.80305781 L18.8577815,4.16530112 C18.6370385,3.96374806 18.3761104,3.7627472 18.0854563,3.56119413 C17.7931508,3.7627472 17.4430447,3.96374806 17.0208256,4.16530112 L16.7494383,3.72188438 C17.0709194,3.60150475 17.3725831,3.4507541 17.652778,3.26963244 C17.4017586,3.10783779 17.1408305,2.95708714 16.8799024,2.8063365 L17.2316599,2.47391199 C17.5228645,2.63460224 17.7931508,2.8063365 18.0546294,2.96702675 Z M17.9946269,1.15470578 C18.2148194,0.963092321 18.4262042,0.751599655 18.6067621,0.520227783 L19.0185221,0.781418464 C18.8175964,1.03377394 18.6067621,1.25575841 18.4063869,1.43688007 C18.6574063,1.60750992 18.888058,1.77869198 19.0889837,1.95981363 L18.7372261,2.31266954 C18.5263918,2.12160828 18.285281,1.92999482 18.0149947,1.73838136 C17.713331,1.95042623 17.3522153,2.1619189 16.9299961,2.36236756 L16.6597099,1.92005522 C17.0004578,1.79912338 17.3114797,1.63788093 17.5927756,1.44681967 C17.3423066,1.28557722 17.0709194,1.11494737 16.7896234,0.953152718 L17.1309218,0.620728214 C17.4430447,0.802402071 17.7336988,0.973584124 17.9946269,1.15470578 Z M14.9928526,3.18901122 L16.4885102,3.18901122 L16.4885102,3.70255738 L15.0330377,3.70255738 L15.0935907,4.38728559 L20.8053842,4.38728559 L20.855478,3.70255738 L19.4099142,3.70255738 L19.4099142,3.18901122 L20.8951127,3.18901122 L20.9352978,2.55453322 L19.4407412,2.55453322 L19.4407412,2.04043486 L20.9655743,2.04043486 L21.0162186,1.31539603 L19.3702796,1.31539603 L19.3702796,0.731720449 L21.6889067,0.731720449 L21.4670627,4.38728559 L22.1799359,4.38728559 L22.1799359,5.98866609 L21.4874305,5.98866609 L21.4874305,4.93065056 L14.3999843,4.93065056 L14.3999843,5.97762209 L13.7080293,5.97762209 L13.7080293,4.38728559 L14.4308112,4.38728559 L14.1698831,0.892410699 C14.9433093,0.792462468 15.6451729,0.631220017 16.2683177,0.419175151 L16.5083275,0.983523727 C16.1675796,1.10390336 15.6148964,1.24471441 14.8524799,1.38607765 L14.9020232,2.04043486 L16.4587842,2.04043486 L16.4587842,2.55453322 L14.9433093,2.55453322 L14.9928526,3.18901122 Z M20.634735,5.56512856 L20.634735,6.10904573 C19.9620469,6.41165142 19.2089886,6.69272131 18.3860191,6.964956 L18.3860191,7.2868887 L22.341227,7.2868887 L22.341227,7.88160828 L18.3860191,7.88160828 L18.3860191,8.77782916 C18.3860191,9.28143572 18.1140813,9.533239 17.5828669,9.533239 L16.4488755,9.533239 L16.2875845,8.93851941 C16.6090656,8.94845902 16.9701813,8.95895082 17.3615735,8.95895082 C17.6032347,8.95895082 17.7226892,8.82752718 17.7226892,8.5663365 L17.7226892,7.88160828 L13.5577479,7.88160828 L13.5577479,7.2868887 L17.7226892,7.2868887 L17.7226892,6.69272131 C18.4862067,6.45196204 19.077974,6.25979638 19.5101018,6.10904573 L15.1034993,6.10904573 L15.1034993,5.56512856 L20.634735,5.56512856 Z" id="Fill-48"></path>
                <path d="M32.225173,2.15192407 L32.0137882,2.66491803 C31.43248,2.43299396 30.8197944,2.2518723 30.1966496,2.13149267 L30.4685873,1.61794651 C31.0807225,1.73832614 31.6625812,1.92 32.225173,2.15192407 Z M33.0685103,1.22533218 L30.126188,1.22533218 L30.126188,0.631164797 L33.7505566,0.631164797 L33.7505566,3.97363244 C33.7505566,4.41760138 33.4698112,4.64842105 32.917128,4.64842105 L32.1145263,4.64842105 L31.9642449,4.06474547 L32.7872144,4.08517688 C32.9683228,4.08517688 33.0685103,3.97363244 33.0685103,3.76269198 L33.0685103,3.10778257 C32.2455409,3.5114409 31.300915,3.89356342 30.257753,4.23592752 L30.0865533,3.60144953 C31.1715519,3.29994823 32.1646201,2.94709232 33.0685103,2.5445384 L33.0685103,1.22533218 Z M27.687556,8.46578085 L32.7365701,8.46578085 L32.7365701,7.47844694 L27.687556,7.47844694 L27.687556,8.46578085 Z M27.687556,6.83402934 L32.7365701,6.83402934 L32.7365701,5.80748921 L27.687556,5.80748921 L27.687556,6.83402934 Z M33.429626,9.5928214 L32.7365701,9.5928214 L32.7365701,9.14001726 L27.687556,9.14001726 L27.687556,9.5928214 L26.9956011,9.5928214 L26.9956011,5.14208801 L29.5349711,5.14208801 C29.6753438,4.88034513 29.7755314,4.60866264 29.8559017,4.32648835 L30.5291403,4.41760138 C30.4586787,4.67879206 30.3579406,4.92065574 30.2373852,5.14208801 L33.429626,5.14208801 L33.429626,9.5928214 Z M28.1092247,2.12155306 L27.908299,2.63509922 C27.3165316,2.42305436 26.703846,2.26236411 26.0818022,2.14088007 L26.352639,1.62788611 C26.954315,1.74881795 27.5471833,1.9100604 28.1092247,2.12155306 Z M28.922836,1.22533218 L26.0818022,1.22533218 L26.0818022,0.631164797 L29.6048822,0.631164797 L29.6048822,3.94436583 C29.6048822,4.42754098 29.3340455,4.66940466 28.8017301,4.66940466 L27.9479336,4.66940466 L27.7982027,4.08517688 L28.671266,4.10505608 C28.8320066,4.10505608 28.922836,3.97363244 28.922836,3.73287317 L28.922836,3.11827437 C28.0591309,3.54070751 27.0853295,3.92338223 25.9810641,4.28617774 L25.8104149,3.65169974 C26.9444063,3.32921484 27.9787606,2.95703192 28.922836,2.53404659 L28.922836,1.22533218 Z" id="Fill-49"></path>
                <path d="M45.7340383,1.42633305 L45.2721845,1.88962899 L46.4964548,1.88962899 L46.4964548,2.58484901 L43.4055025,2.58484901 C43.4754136,3.8333736 43.6053272,4.82015531 43.7858851,5.54464193 C43.846438,5.79644521 43.9168996,6.02836928 43.9868107,6.24980155 C44.4888496,5.4446937 44.890701,4.49767041 45.2017229,3.42032787 L45.8540432,3.70250216 C45.4527423,5.03164797 44.9303356,6.15868852 44.287924,7.06540121 C44.4288472,7.38788611 44.5785781,7.6700604 44.7398691,7.90143227 C45.0712588,8.38515962 45.3420956,8.6259189 45.5430213,8.6259189 C45.7235791,8.61653149 45.8942283,8.09249353 46.0450602,7.05601381 L46.6973805,7.41825712 C46.4562697,8.75734254 46.1155218,9.43213115 45.6635767,9.43213115 C45.2413575,9.43213115 44.7899629,9.12952545 44.3082918,8.52597066 C44.1277339,8.28410699 43.9565343,8.0019327 43.8062529,7.6899396 C43.1038388,8.51547886 42.2808693,9.12952545 41.3373444,9.55251079 L40.9349426,8.9484038 C41.9395709,8.49559965 42.7917159,7.83075065 43.4853223,6.95496117 C43.3443991,6.58167386 43.213935,6.17911993 43.1038388,5.746195 C42.8825453,4.90022433 42.7421726,3.8433132 42.6623528,2.58484901 L39.218542,2.58484901 L39.218542,4.25580673 L41.6780923,4.25580673 C41.6588255,5.95823986 41.5773542,7.05601381 41.4474407,7.54857636 C41.3169766,7.98150129 41.0054042,8.20348576 40.5033653,8.22336497 C40.2633555,8.22336497 39.9710499,8.20348576 39.6501194,8.18305436 L39.4293764,7.52924935 C39.821319,7.54857636 40.1516078,7.55906816 40.4235455,7.55906816 C40.6442885,7.54857636 40.7846612,7.39782571 40.8452142,7.11565142 C40.9057671,6.77383952 40.9349426,6.04824849 40.9553104,4.94053494 L39.218542,4.94053494 L39.218542,5.24314064 C39.1783569,7.0449698 38.7770561,8.49559965 38.0344569,9.58288179 L37.4823241,9.08921484 C38.1247358,8.16262295 38.455575,6.88427955 38.486402,5.24314064 L38.486402,1.88962899 L42.6315259,1.88962899 C42.6111581,1.38602243 42.6017999,0.873028473 42.6017999,0.329111303 L43.3443991,0.329111303 C43.3443991,0.892355479 43.3548582,1.40645384 43.375226,1.88962899 L45.2518167,1.88962899 C44.9507034,1.52738568 44.5499531,1.15465056 44.0369045,0.762036238 L44.4987583,0.3186195 C44.9809799,0.681415013 45.3921894,1.05415013 45.7340383,1.42633305" id="Fill-50"></path>
                <path d="M58.1268578,1.94026575 L57.5956433,2.31244866 C57.3347152,1.87013632 56.9724985,1.38640897 56.5117457,0.852431406 L57.0528688,0.520006903 C57.5158236,1.06392407 57.8769393,1.53715962 58.1268578,1.94026575 Z M56.9829577,9.42202588 C56.5117457,9.42202588 56.2810941,9.1597308 56.2810941,8.64673684 L56.2810941,4.0242692 L56.9532317,4.0242692 L56.9532317,8.5053736 C56.9532317,8.67710785 57.0236933,8.76711648 57.1838834,8.76711648 L57.6363789,8.76711648 C57.7773022,8.76711648 57.8769393,8.69643486 57.9374922,8.55562381 C58.0178625,8.39493356 58.0685067,7.89132701 58.0976822,7.05584814 L58.7307357,7.25684901 C58.6696323,8.28394133 58.5699952,8.90792752 58.4081537,9.12991199 C58.267781,9.32152545 58.0569466,9.42202588 57.7558334,9.42202588 L56.9829577,9.42202588 Z M55.8792428,0.358764452 L55.8792428,2.71500259 L58.4081537,2.71500259 L58.4081537,3.3897912 L55.8693341,3.3897912 C55.8087812,6.14913546 55.1861869,8.17350129 54.0213685,9.4722761 L53.5094209,9.01891976 C54.5740517,7.83058499 55.1360931,5.9481346 55.1960955,3.3897912 L54.1617412,3.3897912 L54.1617412,2.71500259 L55.2065547,2.71500259 L55.2065547,0.358764452 L55.8792428,0.358764452 Z M54.0213685,7.76045557 L53.4389593,7.98133563 C53.2584015,7.33691803 53.038209,6.70299223 52.7668217,6.07845384 L53.3591395,5.91776359 C53.6404355,6.5820604 53.8611785,7.19610699 54.0213685,7.76045557 Z M50.7592165,4.75924763 L53.0574758,4.75924763 L53.0574758,3.48090423 L50.7592165,3.48090423 L50.7592165,4.75924763 Z M53.7202553,2.86685764 L53.7202553,5.38378602 L52.2746915,5.38378602 L52.2746915,8.70692666 C52.2746915,9.23041242 52.0143138,9.49270751 51.5117244,9.49270751 L50.7388487,9.49270751 L50.5979255,8.8377981 C50.8395868,8.86761691 51.0597793,8.88860052 51.2810728,8.88860052 C51.4819984,8.88860052 51.5920947,8.76711648 51.5920947,8.53574461 L51.5920947,5.38378602 L50.0964371,5.38378602 L50.0964371,2.86685764 L53.7202553,2.86685764 Z M51.6625563,1.37646937 C51.5216331,1.03355306 51.361443,0.732051769 51.1808852,0.459264884 L51.9438522,0.338885246 C52.0941336,0.64038654 52.2449655,0.99324245 52.3853382,1.37646937 L54.2322028,1.37646937 L54.2322028,2.04021398 L49.6648598,2.04021398 L49.6648598,1.37646937 L51.6625563,1.37646937 Z M50.9194066,6.09888525 C50.6986636,7.00504573 50.4283773,7.80021398 50.0865284,8.48494219 L49.4942106,8.26350992 C49.8052325,7.64946333 50.0766198,6.87417429 50.3177306,5.9376428 L50.9194066,6.09888525 Z" id="Fill-51"></path>
                <path d="M66.7877996,7.51831579 L66.4266839,7.06551165 C67.03992,6.66295772 67.4500286,6.11848835 67.672423,5.43431234 L68.244373,5.52487317 C68.1744619,5.74630544 68.0924402,5.9484107 68.0027118,6.12953236 C68.4849334,6.37029163 68.9165107,6.66295772 69.3073524,6.99538223 L68.9770636,7.51831579 C68.5653036,7.13619327 68.1430845,6.83358758 67.7214159,6.6022157 C67.4714974,6.96501122 67.1593745,7.26651251 66.7877996,7.51831579 Z M66.1558471,3.31938568 L69.2275326,3.31938568 L69.2275326,2.58440725 L66.1558471,2.58440725 L66.1558471,3.31938568 Z M66.1558471,2.05098188 L69.2275326,2.05098188 L69.2275326,1.25581363 L66.1558471,1.25581363 L66.1558471,2.05098188 Z M66.1354793,5.9677377 L66.1354793,7.49843658 C66.1354793,7.74030026 66.2764025,7.8711717 66.5676071,7.8711717 L68.6649407,7.8711717 L68.6649407,8.46533909 L66.2664939,8.46533909 C65.733628,8.46533909 65.4738009,8.23341501 65.4738009,7.79055047 L65.4738009,5.9677377 L66.1354793,5.9677377 Z M69.8793024,0.681525453 L69.8793024,3.90416566 L66.8989968,3.90416566 C66.7877996,4.13553753 66.6666938,4.3564176 66.5378811,4.55852286 L70.4512524,4.55852286 C70.4121683,6.84407938 70.361524,8.1831648 70.2817042,8.57633132 C70.2013339,8.95900604 70.0609612,9.22074892 69.8495764,9.36155997 C69.6392926,9.50237101 69.1878979,9.57305263 68.4849334,9.57305263 L68.1430845,9.57305263 L67.9636276,8.96894564 C68.2036374,8.97888525 68.4342891,8.98937705 68.6649407,8.98937705 C69.0673425,8.98937705 69.3282707,8.91869543 69.4477251,8.78727179 C69.5589223,8.66689215 69.6293839,8.44490768 69.6585594,8.14285418 C69.6893864,7.82092148 69.7191123,6.82364797 69.759848,5.17256946 L66.0655682,5.17256946 C65.7237194,5.53481277 65.3427863,5.85729767 64.9211177,6.13891976 L64.5699106,5.56518378 C65.3328777,5.12231924 65.8954695,4.56846247 66.2664939,3.90416566 L65.4930677,3.90416566 L65.4930677,0.681525453 L69.8793024,0.681525453 Z M62.6322166,7.2162623 L63.8878643,7.2162623 L63.8878643,1.85881622 L62.6322166,1.85881622 L62.6322166,7.2162623 Z M64.5500933,8.40459707 L63.8878643,8.40459707 L63.8878643,7.8711717 L62.6322166,7.8711717 L62.6322166,8.61608973 L61.9490693,8.61608973 L61.9490693,1.19507161 L64.5500933,1.19507161 L64.5500933,8.40459707 Z" id="Fill-52"></path>
                <path d="M81.9733207,2.03060569 C81.5318347,2.89645557 81.0204376,3.6413736 80.4385789,4.26646419 L79.8660784,3.85341846 C80.4264683,3.24931148 80.9086899,2.53421225 81.3116422,1.70867299 L81.9733207,2.03060569 Z M78.9720968,3.67229681 L78.2691323,3.84347886 C78.0676561,3.23881967 77.7979203,2.66508369 77.4758888,2.11122692 L78.1480264,1.88979465 C78.4507911,2.41328041 78.7315365,3.0074478 78.9720968,3.67229681 Z M76.3727243,3.91416048 L75.7088439,4.20572217 C75.4082811,3.50056255 75.0763409,2.88651596 74.7146747,2.34259879 L75.4082811,2.12171872 C75.7693968,2.6750233 76.0914284,3.26974288 76.3727243,3.91416048 Z M82.0944265,1.01400518 C80.1671916,1.4165591 77.616812,1.62805177 74.4240206,1.62805177 L74.2032777,0.943323555 C77.2358789,0.943323555 79.7449725,0.762201898 81.742669,0.399406385 L82.0944265,1.01400518 Z M77.8474636,5.04120104 L77.8474636,4.07485073 L78.569695,4.07485073 L78.569695,5.04120104 L82.2353497,5.04120104 L82.2353497,5.74636066 L79.2924769,5.74636066 C79.9756242,6.77400518 81.1299834,7.69010526 82.7566555,8.49576531 L82.2447079,9.14018292 C80.5580333,8.133522 79.3838568,6.99543745 78.7007096,5.74636066 L78.569695,5.74636066 L78.569695,9.53279724 L77.8474636,9.53279724 L77.8474636,5.74636066 L77.747276,5.74636066 C77.0151359,7.14618809 75.8002238,8.30359965 74.0942824,9.21086454 L73.6918806,8.53607593 C75.2772666,7.8110371 76.4217171,6.87395341 77.1345904,5.74636066 L74.193369,5.74636066 L74.193369,5.04120104 L77.8474636,5.04120104 Z" id="Fill-53"></path>
            </g>
        </g>
    </g>
</svg>