<?xml version="1.0" encoding="UTF-8"?>
<svg width="38px" height="38px" viewBox="0 0 38 38" version="1.1" xmlns="http://www.w3.org/2000/svg" xmlns:xlink="http://www.w3.org/1999/xlink">
    <!-- Generator: Sketch 52.5 (67469) - http://www.bohemiancoding.com/sketch -->
    <title>群組 12 copy</title>
    <desc>Created with Sketch.</desc>
    <g id="頁面-1" stroke="none" stroke-width="1" fill="none" fill-rule="evenodd">
        <g id="群組-12-copy" transform="translate(1.000000, 1.000000)">
            <circle id="Oval" stroke="#FFFFFF" fill-rule="nonzero" cx="18" cy="18" r="18"></circle>
            <path d="M25.5410156,12.4648438 C25.8808611,12.7109387 26.14746,13.094724 26.3408203,13.6162109 C26.5341807,14.1376979 26.6806636,14.694333 26.7802734,15.2861328 C26.8798833,15.8779326 26.9414061,16.4462863 26.9648438,16.9912109 C26.9882814,17.5361355 27.0058593,17.943358 27.0175781,18.2128906 C27.0058593,18.5527361 26.9853517,18.9921848 26.9560547,19.53125 C26.9267577,20.0703152 26.8623052,20.6152316 26.7626953,21.1660156 C26.6630854,21.7167996 26.5166025,22.2324195 26.3232422,22.7128906 C26.1298818,23.1933618 25.8691423,23.5566394 25.5410156,23.8027344 C25.4121087,23.884766 25.2158216,23.9726558 24.9521484,24.0664062 C24.6884752,24.1601567 24.2783231,24.2480465 23.7216797,24.3300781 C23.1650363,24.4121098 22.4267624,24.4794919 21.5068359,24.5322266 C20.5869095,24.5849612 19.4179758,24.6113281 18,24.6113281 C14.941391,24.6113281 12.9960979,24.5146494 12.1640625,24.3212891 C11.3320271,24.1279287 10.8398445,23.9902348 10.6875,23.9082031 C10.3124981,23.673827 10.013673,23.2988307 9.79101562,22.7832031 C9.56835826,22.2675755 9.39843809,21.7197295 9.28125,21.1396484 C9.16406191,20.5595674 9.0878908,19.997073 9.05273438,19.4521484 C9.01757795,18.9072238 8.99414068,18.5000013 8.98242188,18.2304688 C8.99414068,18.0195302 9.01464829,17.6386746 9.04394531,17.0878906 C9.07324233,16.5371066 9.14648379,15.951175 9.26367188,15.3300781 C9.38085996,14.7089813 9.55370979,14.1142607 9.78222656,13.5458984 C10.0107433,12.9775362 10.3183574,12.5820324 10.7050781,12.359375 C10.8457038,12.2656245 11.3320271,12.1220713 12.1640625,11.9287109 C12.9960979,11.7353506 14.941391,11.6386719 18,11.6386719 C19.4179758,11.6386719 20.5869095,11.6650388 21.5068359,11.7177734 C22.4267624,11.7705081 23.1650363,11.8378902 23.7216797,11.9199219 C24.2783231,12.0019535 24.6884752,12.0898433 24.9521484,12.1835938 C25.2158216,12.2773442 25.4121087,12.3710933 25.5410156,12.4648438 Z M24.8730469,22.8886719 C25.1191419,22.7128897 25.3476552,22.2294961 25.5585938,21.4384766 C25.7695323,20.647457 25.8808593,19.5722724 25.8925781,18.2128906 C25.8808593,16.8769464 25.7695323,15.7783246 25.5585938,14.9169922 C25.3476552,14.0556598 25.1191419,13.5429696 24.8730469,13.3789062 C24.7792964,13.3085934 24.3046918,13.1884774 23.4492188,13.0185547 C22.5937457,12.848632 20.7773576,12.7636719 18,12.7636719 C15.3163928,12.7636719 13.5527386,12.839843 12.7089844,12.9921875 C11.8652302,13.144532 11.3906255,13.2499997 11.2851562,13.3085938 C11.0156237,13.4726571 10.7578137,14.0029252 10.5117188,14.8994141 C10.2656238,15.7959029 10.1308595,16.9062434 10.1074219,18.2304688 C10.1308595,19.5546941 10.2626941,20.6298787 10.5029297,21.4560547 C10.7431653,22.2822307 10.9980455,22.7773429 11.2675781,22.9414062 C11.3847662,23.0000003 11.8623005,23.105468 12.7001953,23.2578125 C13.5380901,23.410157 15.304674,23.4863281 18,23.4863281 C20.7773576,23.4863281 22.5937457,23.4042977 23.4492188,23.2402344 C24.3046918,23.0761711 24.7792964,22.9589847 24.8730469,22.8886719 Z M21.65625,17.6855469 C21.7500005,17.7324221 21.8203123,17.7998042 21.8671875,17.8876953 C21.9140627,17.9755864 21.9375,18.0664058 21.9375,18.1601562 C21.9375,18.2656255 21.9140627,18.3593746 21.8671875,18.4414062 C21.8203123,18.5234379 21.7500005,18.5937497 21.65625,18.6523438 L16.59375,21.7460938 C16.5585936,21.7812502 16.5146487,21.8046874 16.4619141,21.8164062 C16.4091794,21.8281251 16.3593752,21.8339844 16.3125,21.8339844 C16.2656248,21.8339844 16.2187502,21.8281251 16.171875,21.8164062 C16.1249998,21.8046874 16.0781252,21.7871095 16.03125,21.7636719 C15.9492183,21.7167966 15.8818362,21.6494145 15.8291016,21.5615234 C15.7763669,21.4736324 15.75,21.3769537 15.75,21.2714844 L15.75,15.0664062 C15.75,14.960937 15.7763669,14.8642583 15.8291016,14.7763672 C15.8818362,14.6884761 15.9492183,14.621094 16.03125,14.5742188 C16.1250005,14.5156247 16.2216792,14.4892578 16.3212891,14.4951172 C16.4208989,14.5009766 16.5117183,14.5273435 16.59375,14.5742188 L21.65625,17.6855469 Z M16.875,20.2695312 L20.2851562,18.1601562 L16.875,16.0507812 L16.875,20.2695312 Z" id="" fill="#FFFFFF"></path>
        </g>
    </g>
</svg>