<?xml version="1.0" encoding="UTF-8"?>
<svg width="3441px" height="358px" viewBox="0 0 3441 358" version="1.1" xmlns="http://www.w3.org/2000/svg" xmlns:xlink="http://www.w3.org/1999/xlink">
    <title>Footer</title>
    <g id="Footer" stroke="none" stroke-width="1" fill="none" fill-rule="evenodd">
        <g id="Combined--1-01-Copy-3" transform="translate(-0.000000, 0.833824)" fill="#FFF3D9">
            <path d="M0,131.166176 C172.243403,115.610932 275.986855,95.3406356 406.404651,54.2414594 C490.673518,27.6854135 641.853718,6.19670003 770.710205,4.15856165 C901.215678,2.11018138 1023.00508,29.875976 1140.45181,59.9052308 C1222.31732,80.8396772 1304.32621,102.665169 1391.32303,115.610932 C1481.09548,128.925404 1574.71897,130.154432 1666.49887,124.132194 C1799.2781,115.426578 1922.46044,84.4243427 2044.08597,54.2414594 C2173.13706,22.2150338 2296.71884,-0.56295488 2439.01302,0.0105915969 L2441,0.0105915969 L2441,357.166176 L1.22070213,357.13693 C0.40690071,206.489761 0,131.166176 0,131.166176 Z" id="Path"></path>
        </g>
        <g id="Combined--1-01-Copy-4" transform="translate(2441.000000, 0.000000)" fill="#FFF3D9">
            <path d="M0.430170293,357.959032 C0.286780195,274.620681 0.194600847,84.1213154 0,0.772722053 L0,0.404013604 C79.4483563,-2.27936456 176.328852,8.79213083 252.673836,22.1066026 C361.240625,41.0438782 458.059667,78.2219802 565.376913,100.016746 C638.280535,114.81288 783.154898,125.473964 1000,132 L1000,357.969762 L0.430170293,357.959032 Z" id="Path"></path>
        </g>
    </g>
</svg>