<?xml version="1.0" encoding="UTF-8"?>
<svg width="175px" height="139px" viewBox="0 0 175 139" version="1.1" xmlns="http://www.w3.org/2000/svg" xmlns:xlink="http://www.w3.org/1999/xlink">
    <title>卡樂猴 貼圖 拷貝_01</title>
    <g id="Web" stroke="none" stroke-width="1" fill="none" fill-rule="evenodd">
        <g id="赫綵官網/首頁02_Normal-" transform="translate(-250.000000, -10466.000000)" fill-rule="nonzero">
            <g id="卡樂猴-貼圖-拷貝_01" transform="translate(337.500000, 10535.500000) scale(-1, 1) translate(-337.500000, -10535.500000) translate(250.000000, 10466.500000)">
                <g id="色" transform="translate(8.047610, 1.091493)">
                    <path d="M26.1368558,76.7498333 C26.1368558,76.7498333 13.382951,71.8294985 10.449396,62.4819115 C7.99692309,57.0684941 6.03599061,63.9559137 6.03599061,67.8953289 C6.03599061,71.8347441 6.52753102,87.0835855 34.9793541,100.370588 C32.0353408,115.624675 29.0233485,127.568814 30.5607195,133.338929 C32.0980906,139.109044 125.428018,136.968856 128.664864,133.338929 C131.90171,129.709002 136.508594,125.958427 140.932458,113.65759 C143.871242,101.356753 134.061351,108.737255 132.100418,116.61084 C130.139486,124.484425 118.368662,132.845846 115.890043,132.845846 C114.705821,130.179991 113.879378,127.368325 113.432341,124.484425 C113.432341,124.484425 124.716854,126.944592 117.850975,120.051927 C118.342516,116.117757 119.811908,119.071007 121.77284,116.61084 C123.733773,114.150672 132.074272,105.784005 112.94603,90.5299181 C101.677204,92.4970029 57.0411518,99.8775051 26.1368558,76.7498333 Z" id="Path" fill="#844A36"></path>
                    <path d="M43.7643316,0.972481011 C44.8101622,-0.868710367 46.0180966,0.248593803 47.7123423,1.49703696 C49.511171,2.83990019 50.7609387,4.366358 52.6748088,5.1689286 C54.3324504,5.85085133 56.2097164,5.29482203 57.935337,4.79649388 C76.9174768,-0.550280424 97.250991,2.076072 114.263776,12.0720849 C124.570437,18.2041439 133.684851,27.6723788 135.943846,39.4801332 C141.695914,37.874992 148.347397,36.7367056 153.775258,39.2021185 C161.331385,42.6274689 167.627285,53.2444813 164.981334,61.1233116 C163.982512,64.052656 162.464336,66.7768871 160.49995,69.1647543 C157.419978,72.6530514 152.860157,74.7093107 148.248043,75.2600944 C143.426764,75.8423515 132.957999,72.2438977 132.330501,72.5848591 C131.535669,73.014995 128.962926,77.431756 128.50799,78.2133444 C124.68025,84.7860304 120.528302,87.5242125 113.761777,90.9705451 C92.0555622,96.7144327 55.0383861,91.6367311 43.1682081,86.9786743 C33.6093159,82.1527596 23.7157579,78.7274092 21.4201596,68.2362903 C20.9965982,66.3059244 20.8972443,59.2506469 19.1768528,58.2697273 C17.2943576,57.1524231 15.6994659,58.023186 13.3934093,56.8744084 C5.68563734,52.9874489 -1.05474125,44.7886394 0.137505703,36.2383774 C0.906191237,30.73054 4.38880733,26.586548 9.73823114,25.1230369 C15.0876549,23.6595258 21.4985969,25.4744894 25.6191697,29.1883455 C29.1279315,22.1120857 34.2054394,14.5270067 40.846464,10.272858 C40.846464,10.2676124 42.7185009,2.81891795 43.7643316,0.972481011 Z" id="Path" fill="#844A36"></path>
                    <path d="M34.2158977,41.4104991 C35.523186,41.6780226 37.1180777,42.1868419 37.876305,42.8268001 C40.5274857,45.0141984 41.8190866,48.3870932 43.1472915,51.5554111 C44.5748503,54.9650248 44.4650381,59.1090168 44.527788,62.8071362 C44.5905378,66.5052556 43.4348949,70.3554963 40.7732559,72.9205749 C38.388762,75.2128844 35.5754775,77.253407 32.453673,78.3235012 C31.9882784,78.4861135 30.2051371,78.7169181 29.9436794,79.1313173 C29.4678265,79.8919234 30.1580747,80.516145 30.7855731,81.1561033 C33.7400447,84.1827911 39.0476353,85.8141601 43.1159166,86.9262187 C50.7438317,89.0224939 58.4761875,90.7156422 66.2810656,91.9986747 C69.3871827,92.5232307 73.3456517,93.1684345 76.4517688,93.698236 C79.7722811,94.2595109 82.7267527,93.698236 86.0890983,93.8346206 C93.890995,94.1703364 101.598767,92.2609527 109.17581,90.3673057 C105.687965,89.2552471 101.002643,88.0172951 99.4600432,86.9629376 C96.4323635,84.8961872 93.1379969,82.1422685 92.2072076,78.5700425 C91.2032102,74.7250474 91.0201898,67.9372934 92.7301229,64.3493307 C95.4701993,58.5372508 102.733493,54.1204897 109.102602,54.8286402 C110.02845,54.8373127 110.950652,54.9463543 111.853137,55.1538649 C112.407427,55.2745128 112.653197,54.3512943 112.898967,53.8477206 C114.812837,50.1391101 115.10567,45.7433312 114.357901,41.6308126 C113.610132,37.5182939 112.789155,32.9389205 110.854368,29.2565377 C108.239792,24.3309574 104.60553,21.5350742 99.8365423,18.6500165 C93.6138499,14.8837048 85.39885,13.3310192 78.1407853,13.6824716 C67.4001044,14.2070276 55.8645923,15.392524 47.6443633,22.3428903 C42.1380649,27.0009472 38.8280109,33.8831212 35.7532687,40.434825 C35.763727,40.4715439 33.2328169,41.2111678 34.2158977,41.4104991 Z" id="Path" fill="#EFDEC5"></path>
                    <path d="M21.467222,40.2302482 C20.6933073,41.6832682 20.4213913,43.3775839 20.2017669,44.9512517 L19.6213308,48.8591935 C17.7545231,48.0618685 15.7308408,48.2139897 14.0784284,47.0232477 C12.4260159,45.8325057 10.0781261,44.2326101 9.51337755,42.2760164 C9.08981613,40.8125053 8.83881677,38.2789001 9.40356533,36.862599 C9.70162706,36.1072384 11.5579765,35.3308956 12.2429956,34.8955142 C13.1755019,34.4035501 14.2493219,34.25152 15.2811336,34.4653783 C16.2836359,34.5711 17.2574394,34.8646914 18.1519388,35.3308956 C19.6108725,36.1387118 20.6619324,36.4481998 22.1104078,37.2665071 L21.467222,40.2302482 Z" id="Path" fill="#EFDEC5"></path>
                    <path d="M139.912773,49.4781696 C142.21883,49.6355363 144.524886,49.8978143 146.804797,50.2650035 C147.968197,50.4110237 149.110645,50.6926905 150.208976,51.104293 C152.018297,51.8192693 153.47671,53.2163572 154.272028,54.9964981 C155.041897,56.8019905 154.869536,58.8728884 153.811862,60.5253178 C152.98317,61.6121318 151.907429,62.4844172 150.674371,63.0694142 C149.966032,63.4697251 149.210692,63.7798579 148.425835,63.9926326 C147.555021,64.191034 146.657825,64.2459559 145.769425,64.155245 C143.322838,63.9502826 141.011341,62.9438938 139.19115,61.2911695 C138.819887,60.9881772 138.527411,60.5993862 138.338798,60.1581287 C138.16882,59.5419893 138.16882,58.8911122 138.338798,58.2749728 C138.837311,55.5752582 139.349768,52.8807891 139.876169,50.1915656 L139.912773,49.4781696 Z" id="Path" fill="#EFDEC5"></path>
                    <path d="M91.6320008,64.2391739 C90.5861701,67.4599475 90.3560874,71.3626437 90.4188372,74.7565207 C90.4711287,77.7727174 91.5849384,81.0039821 93.6713705,83.1494159 C94.9446806,84.4626414 96.3037832,85.689321 97.7396518,86.8213075 C99.303983,87.9694981 101.015357,88.9010916 102.827618,89.5909629 C104.047706,90.0257726 105.325298,90.2767894 106.618754,90.3358324 C108.1875,90.5036903 109.201956,90.042081 110.749785,89.732593 C114.284693,89.0191969 117.793455,87.660597 120.434177,85.1951841 C121.322162,84.3289148 122.147002,83.3998109 122.902337,82.4150376 C123.866068,81.3132732 124.636928,80.0558095 125.182248,78.6959359 C125.862038,76.6921322 126.71439,74.8089763 126.332662,72.7264892 C125.808076,69.5382577 124.845467,66.438358 123.472315,63.5152867 C122.060444,60.6669479 118.922952,57.9287659 116.182875,56.3236247 C113.088223,54.6011601 109.499396,53.9921994 106.012172,54.5978356 C102.550473,55.1223916 99.4077517,56.0928201 96.8820707,57.8395914 C96.8820707,57.8605736 92.8608518,60.4676167 91.6320008,64.2391739 Z" id="Path" fill="#EEB3AF"></path>
                    <path d="M19.2814359,54.3145754 C19.0879572,58.3379195 19.0879572,59.1981913 19.7572888,63.667408 C19.9559967,65.036499 21.0332022,69.0178786 21.7495962,70.1981295 C23.2503632,72.7002614 24.0504237,73.9854235 25.7237527,76.3773986 C26.5545343,77.275133 27.4944212,78.0646478 28.5213497,78.7274092 C29.198528,79.0425973 29.9401314,79.1935397 30.6862192,79.1680362 C32.3097984,79.1433225 33.9112512,78.7863275 35.3924572,78.1189243 C37.5371962,77.268901 39.4445333,75.9099569 40.9510471,74.1585269 C42.320352,72.5726969 43.4017425,70.7582147 44.1460598,68.7975651 C46.9907192,61.9258822 47.189427,54.986007 43.2780203,47.8153272 C42.3263144,46.0685559 39.0580936,43.4195484 37.4213686,42.3022442 C34.5714801,40.3613872 30.5345738,41.053801 27.4075401,42.4963299 C24.2805064,43.9388587 21.8960125,46.7294964 20.5207452,49.8768321 C19.8636339,51.2763273 19.4447403,52.7763101 19.2814359,54.3145754 L19.2814359,54.3145754 Z" id="Path" fill="#EEB3AF"></path>
                    <path d="M66.3438155,67.8953289 C66.3438155,67.8953289 67.8184367,75.7636681 71.7403017,72.8156637 C75.6621666,69.8676593 74.684315,67.8953289 74.684315,67.8953289 C74.684315,67.8953289 71.2487612,67.4022463 69.2878288,64.9420789 L66.3438155,67.8953289 Z" id="Path" fill="#EEB3AF"></path>
                </g>
                <g id="線" transform="translate(0.000000, -0.000000)">
                    <path d="M45.4887117,16.257556 C47.1475686,15.2542764 48.539007,13.8624214 49.5436811,12.2013725 C50.7680202,10.1024418 50.809878,7.93004859 51.4011187,5.6474615 C51.9243405,3.60625143 53.1172864,2.4990655 55.1159939,3.88435974 C55.93222,4.45631835 56.5496218,5.29064329 57.4129378,5.83111793 C59.1900752,6.91916216 61.2440994,7.4660529 63.3253448,7.40531593 C65.2194079,7.40531593 65.2246402,4.43008171 63.3253448,4.45107102 C61.7659201,4.51795931 60.2228122,4.11003179 58.8988879,3.28091718 C57.8524442,2.59876471 57.1251658,1.54405205 56.1048832,0.835662954 C54.6282578,-0.262876569 52.6133853,-0.279839343 51.1185789,0.793684341 C49.302999,2.02155878 48.6908295,4.03128489 48.3245742,6.08823694 C47.7542623,9.31534283 46.9223396,11.8602963 44.0079938,13.7230972 C42.4383282,14.7358313 43.8876528,17.2965267 45.4939439,16.273298 L45.4887117,16.257556 Z" id="Path" fill="#783718"></path>
                    <path d="M28.6828256,57.4228336 C28.6483683,53.3333037 30.4249755,49.4392373 33.5330922,46.7917498 C34.9460623,45.5639197 36.5605544,44.591007 38.3048756,43.9162148 C40.1884743,43.1920837 42.4278638,43.2707936 44.2068181,42.3420168 C45.567195,41.6441224 46.0904168,40.4582265 46.5874776,39.0729323 C47.373485,36.7329271 48.4084537,34.4846062 49.6744865,32.3668488 C52.3743113,28.0273097 56.4135841,25.0205915 60.8923632,22.7012731 C77.405245,14.1586253 100.573509,11.6766398 114.407495,26.6420155 C121.298327,34.0984666 123.741773,45.5638754 119.153117,54.8359016 C118.934807,55.2336648 118.907089,55.7089759 119.077677,56.1295492 C119.248265,56.5501225 119.598949,56.8710626 120.03213,57.0030475 C125.860821,59.4587964 130.496567,64.3493048 132.066233,70.5831289 C133.635898,76.8169529 131.590101,83.6174883 126.268934,87.2696276 C124.699269,88.319093 126.190451,90.8955304 127.760117,89.8198284 C134.007386,85.5275152 136.654888,77.7509771 135.048597,70.4047198 C133.389984,62.8538167 127.786278,57.092252 120.832659,54.1799857 L121.716904,56.352379 C125.902679,47.9041831 125.123078,37.7768426 120.36176,29.7169489 C115.427777,21.3579575 106.506845,15.9269744 97.1934957,13.864775 C86.2947844,11.4562521 74.8833157,13.5341935 64.6909539,17.7530441 C59.9505638,19.7155443 55.2729604,22.0663466 51.4743697,25.5873028 C47.5449736,29.2604315 45.9177536,33.6052179 43.7673118,38.3330592 C42.9877112,40.0436877 42.0354474,39.9439885 40.3035831,40.3008067 C36.797584,41.0388967 33.5634463,42.7350932 30.9588407,45.2018098 C27.6047131,48.3828621 25.7206856,52.8194993 25.757471,57.4490703 C25.757471,59.3486025 28.7142189,59.3486025 28.7037545,57.4490703 L28.6828256,57.4228336 Z" id="Path" fill="#783718"></path>
                    <path d="M63.3828992,7.51026246 C80.3457519,2.3993663 98.8835023,2.78766847 115.05629,10.4277761 C127.833368,16.4779437 139.244836,26.4268751 142.923086,40.5631731 C143.101131,41.2012113 143.680374,41.6427926 144.341017,41.6441224 C147.239666,41.2663148 149.751131,39.9964618 152.785818,40.0174511 C156.568712,40.0174511 160.079531,41.3555194 163.250255,43.3337615 C169.288235,47.0856001 173.385063,53.4978333 171.784004,60.7916173 C170.460252,66.841785 165.751256,71.8110033 159.95919,73.8102348 C153.099751,76.1977684 147.093164,74.0358698 140.725554,71.4856691 C139.940721,71.1708295 139.155889,71.8424873 138.915207,72.5351344 C134.661413,83.6332303 125.337599,89.3265797 114.072633,91.6458981 C100.950229,94.343024 86.8389351,93.6556242 73.6694409,91.6458981 C62.3626166,89.9352696 49.8680786,87.7156504 40.2146354,81.1932234 C35.20217,77.8034504 31.3931148,73.122835 29.7501982,67.2300871 C28.2119259,61.6521789 28.4892335,55.6859685 29.3996395,50.0293504 C31.3774182,37.70338 35.3172788,24.3174497 45.4625506,16.2628033 C46.9485007,15.0821548 44.850381,13.0042135 43.3696632,14.1638727 C33.4284479,22.0348626 29.2792985,34.8225977 26.9614257,46.8862017 C24.7325006,58.5142776 24.9836471,71.3544859 34.1034041,80.0598008 C43.0923556,88.6444272 56.1415087,91.4884783 67.9610905,93.6608715 C82.5537481,96.3422554 97.9469352,97.3340002 112.649469,94.8625093 C118.718843,93.813044 124.824842,91.965985 130.004738,88.5657173 C135.64507,84.8296208 139.32332,79.5875414 141.73014,73.3064914 L139.919793,74.3559567 C143.268412,75.6992724 146.407744,77.1685238 150.038903,77.6512779 C154.112441,78.2305366 158.266315,77.7107086 162.073006,76.1452951 C168.383062,73.5216318 173.500171,67.7495725 174.714046,60.9280478 C176.037797,53.44536 172.663016,46.650072 166.713984,42.2055863 C163.490937,39.8023107 159.728972,37.9500044 155.726325,37.3465618 C153.731116,37.0422792 151.702305,37.0316728 149.704041,37.3150779 C147.836139,37.5721969 146.083346,38.490479 144.272998,38.7318561 L145.696162,39.8128054 C141.902803,24.9366343 129.989042,14.2478299 116.54224,7.87757533 C99.642174,-0.129845151 80.3614485,-0.686061777 62.5980664,4.66621141 C60.7877188,5.19094408 61.5516227,8.06123176 63.3828992,7.51026246 Z" id="Path" fill="#783718"></path>
                    <path d="M33.7266843,29.6592283 C30.3152778,25.3616677 24.7011073,23.4201569 19.3276188,24.2702238 C13.6088039,25.157022 9.20327583,29.3548833 7.38769599,34.7648771 C5.49886508,40.4057533 6.81738416,46.3089958 10.4537761,50.9266432 C14.3517789,55.8696249 20.8083366,60.6184556 27.1968755,61.1851668 C29.0857064,61.3530813 29.0700098,58.3988364 27.1968755,58.2309219 C22.1006946,57.7796518 16.8998694,53.7549523 13.5617139,50.055587 C10.1136819,46.2302859 8.5754096,41.2715622 10.0090375,36.2393759 C12.7873456,26.5738002 25.3132768,23.7454911 31.6442613,31.7476643 C32.8162783,33.2379051 34.8882368,31.1337271 33.7371488,29.6487336 L33.7266843,29.6592283 Z" id="Path" fill="#783718"></path>
                    <path d="M64.2043575,48.9851324 C64.2994746,49.1505992 64.2871268,49.3569913 64.1729642,49.509865 C63.8642633,49.8561886 63.4561503,49.4416498 63.2416293,49.268488 C63.171959,49.1982635 63.1407277,49.0984266 63.1579138,49.0008743 C63.1579138,49.1792834 63.1579138,49.1897781 63.1579138,49.0323583 C63.2677904,48.9011751 63.7753156,48.6597981 63.424757,48.722766 C62.2475078,48.9379064 61.9335747,50.9161486 63.0741983,51.4146446 C64.1378959,51.9567538 65.4385069,51.5808029 66.0513307,50.554083 C66.6392998,49.6718775 66.5278031,48.496685 65.7844875,47.7415159 C63.9584433,46.0361348 60.9028276,48.6860347 62.3521522,50.7219975 C62.6618511,51.2122875 63.2279802,51.4766974 63.8014767,51.3989026 C64.3828841,51.3303702 64.8649286,50.9154034 65.0205836,50.3494373 C65.078138,49.9506405 65.0205836,50.3022113 64.8479204,50.3494373 L63.042805,48.5391096 C63.0114117,48.6283141 63.2363971,48.5391096 63.257326,48.5391096 L63.6863679,48.6860347 L63.4875436,49.8456939 C63.4154123,49.8639196 63.3419167,49.8762042 63.2677904,49.8824252 C63.1171781,49.7817379 63.0403607,49.6011251 63.0721408,49.4224148 C63.1039209,49.2437045 63.2382592,49.1008587 63.4142925,49.0585949 C63.491471,48.9937114 63.5924522,48.9646694 63.6921879,48.9786728 C63.7919236,48.9926761 63.88107,49.0484128 63.9375144,49.1320575 C64.4031818,49.2422514 64.3665563,49.494123 63.8381022,49.8719306 C63.7753156,50.3966632 63.592188,50.5645777 63.2834871,50.3966632 C62.9381606,50.3389426 62.7602652,50.0818236 62.7236397,49.6253062 L62.922464,48.8854332 C63.0375728,48.7017767 63.2991837,48.8854332 63.377667,49.0008743 C63.6602068,49.4364025 62.9119995,49.7355001 62.5980664,49.4678864 C62.2841333,49.2002728 62.6399242,48.5968302 62.9329284,48.481389 C63.1055916,48.4079264 63.3201126,48.481389 63.1265205,48.4026791 C63.5974202,48.6440561 63.4770792,49.1163155 63.2363971,49.5046177 C63.1997716,49.5623383 63.0689661,49.5465963 63.0323406,49.557091 C63.1055916,49.557091 63.210236,49.6095642 63.1160561,49.557091 C63.0218761,49.5046177 62.9172318,49.4836284 62.8387485,49.3471979 C62.6922464,49.1058209 62.6870141,48.8224652 62.9643217,48.8539492 C63.0689661,48.8539492 63.1474494,48.995627 63.210236,49.0533476 C63.1736105,49.0166163 63.1003594,48.9326591 63.1526816,48.9431537 C63.2050038,48.9536484 63.1526816,49.027111 63.1788427,49.0481003 C63.2050038,49.0690896 63.1160561,48.8067233 63.1788427,48.9536484 C63.1788427,48.9536484 63.2730226,48.7490027 63.2207004,48.8329599 C63.2207004,48.8329599 63.1945394,48.9274118 63.1893071,48.9169171 C63.1840749,48.9064225 63.1160561,49.0008743 63.0846628,48.9641431 C63.2468615,49.1635415 63.4195248,48.9274118 63.424757,49.2422514 C63.424757,49.1897781 63.2939515,49.4836284 63.2625582,49.4993704 C63.0637339,49.6253062 62.9329284,49.3104666 63.0689661,49.1268102 C63.2199315,49.0169479 63.4074322,48.9699374 63.592188,48.995627 C63.7081041,49.0111845 63.804256,49.0932521 63.8381022,49.2055201 C63.8119411,49.1425522 63.8381022,49.3471979 63.8381022,49.3681872 C63.8425124,49.4958417 63.8136582,49.6224434 63.7543867,49.7355001 C63.7543867,49.7355001 63.5607947,49.8561886 63.6235813,49.8509413 C63.2730226,49.8771779 62.7027108,49.6305535 63.0271084,49.1687888 C63.3515059,48.707024 63.6706712,49.1687888 63.592188,49.4416498 C63.0689661,51.2624721 65.8943641,52.0653131 66.4228182,50.2235014 C66.681955,49.2458215 66.4856438,48.203043 65.8889038,47.3874204 C65.2921637,46.5717978 64.359206,46.0710945 63.3515059,46.0256401 C62.3389985,46.0601134 61.3926581,46.5387433 60.7631076,47.3347725 C60.1335571,48.1308017 59.8843078,49.1639239 60.0813693,50.1605335 C60.5855949,52.0303623 62.4852193,53.155262 64.3613241,52.6949923 C66.1821362,52.2017436 67.1239355,50.1605335 66.6425714,48.3974318 C66.3714669,47.5329044 65.7629599,46.8152526 64.9556869,46.4079792 C64.1484139,46.0007059 63.2111326,45.9384997 62.3573844,46.2355332 C60.4005346,46.875707 59.3593231,49.28423 60.5731978,51.0578264 C61.3440672,52.0930856 62.6673767,52.5509095 63.9107542,52.2125171 C65.1541316,51.8741246 66.0651339,50.8082197 66.2084188,49.524168 C66.3517037,48.2401164 65.6981801,46.9986193 64.5601484,46.392953 C63.6655717,45.9216263 62.5923425,45.9439903 61.7180595,46.4521764 C60.8437765,46.9603625 60.2909308,47.8831716 60.2540325,48.8959278 C60.196181,49.8664904 60.6626775,50.7934023 61.4756192,51.3231774 C62.2885609,51.8529525 63.3226123,51.9039124 64.1834287,51.4566232 C65.9466863,50.5121044 66.2763161,47.8726991 64.3403952,46.9124383 C62.707943,46.10435 60.4528568,47.1695573 60.5784301,49.1425522 C60.6883067,50.9581272 62.9852506,51.9656139 64.4607362,51.0001058 C66.4856048,49.6725322 65.0519769,46.5661148 62.8282841,46.665814 C60.6830744,46.7602659 59.8092939,49.6043169 61.2586185,51.0473317 C62.707943,52.4903466 66.1716717,51.4671179 65.5908955,49.1110682 C65.2468071,47.9696657 64.0716178,47.2984963 62.9172318,47.5840961 C62.3650486,47.7332331 61.8977639,48.1024759 61.6239983,48.6059939 C61.3502328,49.109512 61.2938323,49.7034469 61.4679072,50.2497381 C61.6426715,50.8433872 62.0488106,51.341245 62.5944039,51.630632 C63.1399972,51.9200191 63.7789165,51.9764687 64.3665563,51.7872048 C65.5096847,51.366057 66.1760428,50.1720594 65.9362219,48.9746377 C65.6385974,47.7530965 64.53167,46.9052068 63.2782548,46.938675 C62.015663,46.9211034 60.9756831,47.9289296 60.9499176,49.1950254 C61.012144,50.4441843 62.0212134,51.4356079 63.2677904,51.4723652 C64.5601484,51.4723652 65.5019477,50.4858678 65.8838997,49.3262086 C66.0182478,48.817401 65.8729864,48.2753198 65.5024149,47.902598 C65.1318435,47.5298761 64.591747,47.3826224 64.0840165,47.5158809 C63.1191938,47.7816675 62.3900364,48.5760756 62.20565,49.5623383 L64.8897782,49.2107674 C65.0067312,49.3942622 65.0107479,49.6281516 64.9001649,49.8155766 C64.7895818,50.0030016 64.5832269,50.1120512 64.3665563,50.0975656 L63.5137047,49.2474987 L63.6078846,48.9169171 C63.7857801,48.6545508 64.6177028,48.8696912 64.5653806,48.8487019 L64.214822,51.5353331 C66.3077094,51.1470309 66.7419835,48.0038823 64.9421004,46.9596643 C62.8492129,45.7265425 60.4423924,48.4708943 61.677196,50.4701258 C62.6660853,52.0810551 65.2037113,50.601309 64.2095898,48.9851324 L64.2043575,48.9851324 Z" id="Path" fill="#783718"></path>
                    <path d="M101.007783,53.5135753 C101.206607,53.6395111 101.007783,53.4086287 101.049641,53.5135753 C101.091499,53.6185218 100.97639,53.3614028 101.081034,53.3509081 C101.185678,53.3404135 100.944996,53.5398119 100.955461,53.5240699 C100.903139,53.6447584 101.122892,53.44536 100.955461,53.5240699 C101.013015,53.4978333 101.16475,53.6919844 101.039176,53.5240699 C100.971157,53.429618 101.039176,53.5240699 100.997319,53.5922852 C100.955461,53.6605004 100.876978,53.7654469 100.997319,53.6552531 C100.965925,53.7234683 100.9293,53.6552531 100.897906,53.5083279 C100.918515,53.513501 100.934606,53.5296386 100.939764,53.5503065 C100.969782,53.6478501 100.933898,53.7536941 100.850816,53.8126729 C100.761869,53.8389095 100.803726,53.8126729 100.965925,53.733963 C100.751404,53.733963 100.965925,53.8126729 100.615367,53.6290164 C100.453168,53.5450592 100.751404,53.3036822 100.615367,53.6290164 C100.615367,53.5135753 100.615367,53.5503065 100.573509,53.7287157 C100.561291,53.698424 100.561291,53.6645555 100.573509,53.6342638 C100.577071,53.6120749 100.590565,53.5927421 100.610134,53.5817905 C100.709547,53.5817905 100.667689,53.5817905 100.474097,53.5817905 C100.610134,53.6605004 100.348523,53.5135753 100.385149,53.5188226 C100.385149,53.6132745 100.338059,53.5608012 100.275272,53.3666501 C100.479329,53.8441568 100.123538,54.0907812 99.2288287,54.1012758 C100.861281,55.066784 102.336767,52.5270779 100.709547,51.5615697 C99.9891713,51.158343 99.1049626,51.1904053 98.4155051,51.6447542 C97.7260476,52.099103 97.345791,52.9003165 97.4289455,53.7234683 C97.5335899,55.2976663 98.9986111,56.4468309 100.495026,56.5255408 C101.928552,56.6030272 103.201223,55.6127975 103.482622,54.2009751 C103.817893,52.7369083 102.921816,51.2733686 101.468218,50.9109012 C99.9728748,50.6185173 98.5064602,51.5348095 98.1091339,53.0098319 C97.9055914,54.4579893 98.785423,55.8386647 100.181356,56.2616659 C101.577289,56.6846672 103.072256,56.0236128 103.702376,54.7047184 C104.310473,53.3576571 103.798627,51.7677156 102.519894,51.0315898 C101.135246,50.1944177 99.3362655,50.6378365 98.4963181,52.0233345 C97.7344792,53.4385901 98.1910162,55.2036218 99.5427618,56.0690233 C101.112427,57.1184887 102.598377,54.5630406 101.02348,53.5293172 L101.007783,53.5135753 Z" id="Path" fill="#783718"></path>
                    <path d="M101.557166,53.5188226 C101.557166,53.3351662 101.557166,53.2826929 101.557166,53.3771448 C101.557166,53.2931875 101.818777,53.3299188 101.557166,53.3771448 L100.27004,52.6057878 C99.9090171,52.0233345 101.044409,51.6402796 101.175214,52.2017436 C101.264162,52.5847984 100.856049,52.5480672 100.88221,52.5165832 C100.908371,52.4850992 100.913603,52.705487 100.850816,52.8104335 C100.78803,52.91538 100.594438,52.9416167 100.463632,53.0150792 C100.332827,53.0885418 99.977036,52.9521113 100.301434,53.1462624 C100.625831,53.3404135 100.22295,53.0045846 100.699082,52.9678533 C100.744256,52.9622548 100.789946,52.9622548 100.83512,52.9678533 C101.243233,53.1410151 100.971157,53.6972317 100.683385,53.7969309 C99.6944962,54.1589964 99.5375296,52.5270779 100.369452,52.416884 C101.531005,52.2647115 101.415896,54.1012758 100.369452,53.9071248 C99.5922069,53.7128178 98.7992185,54.1623228 98.5643369,54.9303535 C98.3579781,55.71964 98.8252724,56.5280503 99.6107807,56.7406812 C101.839706,57.15522 104.173275,55.5705273 104.225597,53.1829937 C104.272687,51.084063 102.32107,49.4154131 100.290969,49.509865 C98.0568117,49.5938223 96.675506,51.7399789 97.0051358,53.8389095 C97.1753744,54.8571961 97.779564,55.750558 98.659973,56.2857716 C99.540382,56.8209852 100.609624,56.9449268 101.588559,56.62524 C102.587619,56.3079499 103.38423,55.5451656 103.746467,54.5589653 C104.108704,53.572765 103.995851,52.4739973 103.440765,51.5825591 C102.837756,50.6291171 101.781741,50.0610637 100.65618,50.08467 C99.5306178,50.1082764 98.4992063,50.7201092 97.9364707,51.6980002 C97.3243992,52.7134784 97.3800967,53.9982205 98.0777406,54.9565901 C98.9197003,55.9263829 100.275818,56.2658673 101.47345,55.806657 C103.765162,55.0353 104.795909,51.9078933 102.723951,50.2654801 C100.4584,48.4708943 97.0679224,51.099805 98.6637491,53.6919844 C98.9949609,54.2494694 99.5352124,54.6505062 100.163597,54.8053438 C100.791981,54.9601814 101.456032,54.8558918 102.007137,54.5158147 C103.139699,53.7939268 103.498325,52.3019119 102.818131,51.1417836 C102.55794,50.6876108 102.074212,50.4089645 101.551934,50.4124052 C99.895463,50.4694527 98.5958036,51.8572585 98.6428202,53.5188226 C98.7265357,55.4078602 101.656578,55.4183548 101.572863,53.5188226 L101.557166,53.5188226 Z" id="Path" fill="#783718"></path>
                    <path d="M77.1070086,56.2054538 C76.4320473,55.4719562 75.5768257,54.9291137 74.6269369,54.6312558 C74.1998476,54.5191493 73.7502023,54.7029462 73.5229388,55.0825259 C72.6229972,56.4258416 73.3188823,58.0367708 74.5170604,58.9130744 C75.6315229,59.72641 77.5203538,60.6814235 78.5458687,59.2331613 C79.273147,58.183696 79.7283501,56.1949592 78.3365799,55.4970647 C77.1540985,54.9041168 75.6629162,55.8433883 75.992546,57.1919512 C76.1209976,57.6068598 76.5037651,57.8896232 76.9369614,57.8896232 C77.3701578,57.8896232 77.7529253,57.6068598 77.8813769,57.1919512 C77.9597109,56.9186318 78.0594326,56.6519392 78.1796134,56.3943576 C78.362741,55.9903134 78.1796134,56.4835622 78.1115945,56.640982 C77.9232347,57.1657146 77.8342869,57.622232 77.2064207,57.6904473 C75.9611527,57.8741037 76.4896068,59.7893779 77.7296426,59.5794849 C79.4615069,59.3223659 80.8689737,56.6147453 79.8905488,55.0615366 C79.4058774,54.3520908 78.5008743,54.0661591 77.6982493,54.3688895 C76.6936633,54.7047184 76.2750858,55.7017105 75.9977782,56.640982 L77.8866091,56.640982 C77.8290547,57.2496718 77.6354626,57.4070916 77.3006006,57.107994 C77.2741238,57.3588819 77.2013815,57.6026493 77.0860797,57.8268778 C76.8767909,58.1259754 76.8192365,57.942319 76.4163557,57.7429205 C75.8303472,57.4490703 74.6844914,56.8403804 75.2181776,56.048034 L74.1141795,56.4993041 C74.7349104,56.6990588 75.2912304,57.0613486 75.7257028,57.5487695 C76.5785545,58.4827936 77.9598602,57.092252 77.1122408,56.1634752 L77.1070086,56.2054538 Z" id="Path" fill="#B44623"></path>
                    <path d="M30.0170413,37.5564549 C27.5369697,35.8143424 24.5859985,33.8098637 21.4205062,34.0984666 C18.830558,34.3398437 16.4655952,35.9402783 15.8272646,38.553447 C14.1738835,45.2595304 21.8181548,49.3419506 26.9718901,50.9948585 C28.1805326,51.3831606 28.6985223,49.4836284 27.495112,49.1005735 C23.4349104,47.7939892 17.8939909,45.3120037 17.6219155,40.337538 C17.4387879,36.9267757 20.8868199,35.4417823 23.7488435,36.3075912 C25.653371,36.8795498 27.4113965,38.1284135 29.028152,39.2565887 C30.0745957,39.9859671 31.0477884,38.280586 30.0170413,37.5564549 L30.0170413,37.5564549 Z" id="Path" fill="#783718"></path>
                    <path d="M148.730849,53.188241 C150.43132,51.3621713 154.167124,52.1020444 156.223386,52.9048854 C159.127267,54.0330606 162.13056,56.3313897 161.026562,59.8051199 C159.210982,65.5037167 149.881937,65.2570923 147.103629,60.6446922 C146.125204,59.0180209 143.577113,60.497767 144.56077,62.134933 C148.819796,69.2083293 162.104399,68.6521127 164.050785,59.8838298 C165.023977,55.4918174 161.895111,52.2594642 158.185468,50.554083 C154.784526,48.979885 149.494753,48.0406136 146.648426,51.0788157 C145.356068,52.4641099 147.433258,54.5577933 148.741313,53.1777464 L148.730849,53.188241 Z" id="Path" fill="#783718"></path>
                    <path d="M145.387461,48.707024 C146.652779,53.5127853 145.857976,58.6301924 143.195161,62.8223328 C142.190575,64.4437567 144.738666,65.9287501 145.73802,64.3125735 C148.796746,59.4302226 149.696835,53.4933865 148.223323,47.919925 C147.752424,46.0833607 144.911329,46.8704597 145.387461,48.707024 L145.387461,48.707024 Z" id="Path" fill="#783718"></path>
                    <path d="M75.8355794,64.6746391 C76.66227,68.3477677 80.157392,70.0006756 83.6106562,70.2787839 C85.0285875,70.3889778 85.0233553,68.1798533 83.6106562,68.0591648 C81.1096558,67.8597663 78.5667975,66.7578277 77.9650924,64.0869385 C77.6563915,62.6963969 75.5216463,63.2840975 75.8355794,64.6746391 L75.8355794,64.6746391 Z" id="Path" fill="#783718"></path>
                    <path d="M76.2750858,65.5456953 C75.4797886,67.4242382 74.244985,68.0854014 72.2410453,67.886003 C70.8283463,67.7443252 70.8388107,69.958697 72.2410453,70.1003748 C74.9304056,70.3732358 77.117473,69.18734 78.1796134,66.6633759 C78.7289963,65.3620389 76.8244688,64.2338636 76.2750858,65.5456953 Z" id="Path" fill="#783718"></path>
                    <path d="M81.523001,68.898737 C80.9997792,70.5988709 80.3352874,73.0073938 78.2999544,73.3904486 C76.159977,73.7944928 75.7570962,71.0711303 75.5268785,69.5231689 C75.3175898,68.1221327 73.1880768,68.7150806 73.3973656,70.1161168 C73.7950142,72.7765114 75.0036567,75.8881761 78.2371678,75.6363044 C81.4706788,75.3844328 82.8415201,72.1940582 83.652514,69.4864376 C84.0658593,68.1168853 81.9311141,67.5344321 81.523001,68.898737 Z" id="Path" fill="#783718"></path>
                    <path d="M35.4114587,77.4781161 C31.8936851,76.1236374 28.6351151,74.1710154 25.7789443,71.7060568 C23.162835,69.3290178 21.7292071,66.6056553 20.0235039,63.5727005 C18.8514869,61.4737698 16.5911685,60.4610358 14.5558354,62.1506749 C12.1123894,64.1813904 12.0496027,68.353015 12.3740003,71.2075608 C14.1006324,86.5454966 28.5206268,95.8227701 40.6279806,102.79122 C42.2761295,103.740986 43.7673118,101.185538 42.1139307,100.241019 C31.3931148,94.085905 19.4008698,86.713411 15.8900512,73.909934 C15.4275574,72.3214554 15.1966918,70.6742181 15.2046305,69.0194255 C15.2307916,67.8807557 15.5813503,63.0951937 17.6533088,65.4250068 C18.4747672,66.3537836 18.9142735,68.0171861 19.620623,69.0981354 C20.2331631,70.0180187 20.9079623,70.8946349 21.6402594,71.7217988 C25.124917,75.7307563 29.7920559,78.3176884 34.6266259,80.3221672 C36.3794191,81.0410509 37.143323,78.1865052 35.4114587,77.4781161 Z" id="Path" fill="#783718"></path>
                    <path d="M41.56978,99.0078974 C38.6397376,110.725178 36.949731,122.426716 36.9811243,134.521804 C36.9811243,136.421336 39.9320955,136.426584 39.9268633,134.521804 C39.89547,122.689083 41.5383867,111.260405 44.4108747,99.7949964 C44.8713099,97.9479374 42.0302152,97.171333 41.56978,99.0078974 L41.56978,99.0078974 Z" id="Path" fill="#783718"></path>
                    <path d="M116.270165,99.8317277 C116.74041,111.583125 118.814221,123.214462 122.433718,134.401116 C123.009262,136.206196 125.850357,135.450581 125.274813,133.614017 C121.72423,122.684121 119.685586,111.317383 119.215904,99.8317277 C119.142653,97.9374427 116.196914,97.9269481 116.270165,99.8317277 L116.270165,99.8317277 Z" id="Path" fill="#783718"></path>
                    <path d="M121.716904,93.3040533 C126.975284,98.3677235 135.001507,106.537811 130.344833,114.487511 C129.413498,116.061709 128.152533,116.948507 126.603796,117.877284 C125.630604,118.464985 124.573696,119.157632 124.270227,120.343528 C124.076035,121.228801 124.308634,122.154111 124.898093,122.841255 C125.175401,123.182331 125.944537,123.470934 126.138129,123.822505 C127.817671,126.703287 123.773166,125.449176 122.716258,124.924444 C121.021019,124.084871 119.529837,126.629825 121.230308,127.474644 C124.176047,128.938649 129.282692,129.400413 129.727431,124.850981 C129.810115,124.133858 129.655703,123.409345 129.287924,122.788782 C128.968759,122.237812 127.65024,121.492692 127.582221,120.994196 C127.503738,120.406495 129.387337,119.703354 129.910558,119.320299 C130.719731,118.729814 131.437338,118.022512 132.040071,117.221368 C139.077405,107.938847 130.402387,97.5648825 123.799327,91.2051226 C122.433718,89.8880436 120.351295,91.9712323 121.70644,93.3040533 L121.716904,93.3040533 Z" id="Path" fill="#783718"></path>
                    <path d="M116.845709,105.079054 C118.096209,107.08878 119.174046,109.276916 118.164228,111.632965 C117.426485,113.359336 119.964111,114.865319 120.707086,113.123206 C122.172107,109.691454 121.293094,106.648005 119.388567,103.583566 C118.389213,101.977884 115.83589,103.45763 116.845709,105.079054 L116.845709,105.079054 Z" id="Path" fill="#783718"></path>
                    <path d="M124.327781,135.434839 C128.863394,133.803597 132.860171,130.944924 135.875288,127.175547 C139.537841,122.741556 141.552245,117.614918 144.330553,112.671936 C144.743898,111.93731 145.07876,111.302384 145.900218,110.987544 C147.281524,110.462811 147.354775,111.554255 147.380936,112.713915 C147.417562,114.251381 146.784463,116.072204 146.308331,117.53096 C145.352234,120.379452 143.997509,123.077291 142.284755,125.543628 C140.223261,128.545099 138.376288,131.158268 135.59798,133.482834 C134.143423,134.700213 136.236311,136.783402 137.690867,135.581764 C141.128435,132.706229 143.739312,129.001617 146.062417,125.160573 C147.845968,122.256917 149.144942,119.08075 149.908098,115.757364 C150.43132,113.422304 151.153366,110.116488 148.924441,108.411107 C143.540488,104.349676 140.123849,114.870566 138.460004,117.919263 C135.07999,124.184571 130.522728,130.17177 123.56911,132.585541 C121.790155,133.199478 122.554059,136.054024 124.353942,135.429592 L124.327781,135.434839 Z" id="Path" fill="#783718"></path>
                    <path d="M6.24707234,62.7856015 C4.78233952,65.4248605 4.42647049,68.5406245 5.25818303,71.4436905 C5.6453672,72.8132427 7.77488016,72.2307894 7.38769599,70.8559899 C6.70068785,68.5296062 6.97600052,66.0238348 8.1515999,63.903282 C8.83178832,62.649171 6.92726075,61.5314904 6.24707234,62.7856015 Z" id="Path" fill="#783718"></path>
                    <path d="M1.07240816,62.4655145 C0.0524729973,65.2010905 -0.246678364,68.1542518 0.203859878,71.0396463 C0.407916403,72.4459298 2.53219715,71.8477346 2.33337284,70.4519457 C1.99039043,67.9517612 2.28934045,65.4051548 3.20192112,63.0532151 C3.72514298,61.7203942 1.56946893,61.1431882 1.07240816,62.4655145 L1.07240816,62.4655145 Z" id="Path" fill="#783718"></path>
                </g>
            </g>
        </g>
    </g>
</svg>