<?xml version="1.0" encoding="UTF-8"?>
<svg width="28px" height="28px" viewBox="0 0 28 28" version="1.1" xmlns="http://www.w3.org/2000/svg" xmlns:xlink="http://www.w3.org/1999/xlink">
    <title>Media/Instagram/Hover</title>
    <g id="Media/Instagram/Hover" stroke="none" stroke-width="1" fill="none" fill-rule="evenodd">
        <rect id="Rectangle" x="0" y="0" width="28" height="28"></rect>
        <rect id="Rectangle" x="0" y="0" width="28" height="28"></rect>
        <circle id="Oval" fill="#21505B" opacity="0" cx="14" cy="14" r="13"></circle>
        <g id="instagram" transform="translate(7.000000, 7.000000)" fill="#FFFFFF" fill-rule="nonzero">
            <path d="M9.46,0 C11.669139,-4.05812251e-16 13.46,1.790861 13.46,4 L13.46,9.46 C13.46,11.669139 11.669139,13.46 9.46,13.46 L4,13.46 C1.790861,13.46 2.705415e-16,11.669139 0,9.46 L0,4 C-2.705415e-16,1.790861 1.790861,4.05812251e-16 4,0 L9.46,0 Z M7.25816396,3.34760808 C5.81078293,3.13330015 4.38916492,3.87152316 3.73188938,5.17874486 C3.07461383,6.48596656 3.32992349,8.06735454 4.36517621,9.10132336 C5.40042894,10.1352922 6.98213253,10.3886392 8.28853758,9.72974198 C9.59494262,9.07084474 10.3314009,7.64831173 10.115297,6.20119777 C9.8948224,4.72481576 8.73481843,3.56625041 7.25816396,3.34760808 Z M4.66104939,5.64592969 C5.11674234,4.73962529 6.10235837,4.22781099 7.10583604,4.37639192 C8.12960917,4.52797792 8.93384666,5.33121801 9.08670299,6.35480223 C9.23652907,7.35809475 8.72593827,8.34434516 7.82020006,8.80116244 C6.91446185,9.25797972 5.81785756,9.08233275 5.10011083,8.36547616 C4.38236411,7.64861957 4.20535644,6.55223409 4.66104939,5.64592969 Z M10.685,1.982 L10.5776497,1.98823314 C10.1831881,2.03759842 9.878,2.37415895 9.878,2.782 C9.878,3.2238278 10.2361722,3.582 10.685,3.582 L10.685,3.582 L10.7853503,3.57576686 C11.1798119,3.52640158 11.485,3.18984105 11.485,2.782 C11.485,2.3401722 11.1268278,1.982 10.685,1.982 L10.685,1.982 Z" id="Rectangle-2"></path>
        </g>
    </g>
</svg>