<?xml version="1.0" encoding="UTF-8"?>
<svg width="28px" height="28px" viewBox="0 0 28 28" version="1.1" xmlns="http://www.w3.org/2000/svg" xmlns:xlink="http://www.w3.org/1999/xlink">
    <title>Media/Line/Normal</title>
    <g id="Media/Line/Normal" stroke="none" stroke-width="1" fill="none" fill-rule="evenodd">
        <rect id="Rectangle" x="0" y="0" width="28" height="28"></rect>
        <g id="Ellipse-82">
            <circle id="Oval" cx="14" cy="14" r="14"></circle>
            <circle id="Oval" fill="#21505B" opacity="0" cx="14" cy="14" r="13"></circle>
        </g>
        <g id="167649" transform="translate(6.000000, 6.000000)" fill="#FFFFFF">
            <path d="M8.162,0.000827157895 C10.2480991,-0.0274327133 12.2793421,0.669205519 13.909,1.97182716 C15.4039599,3.13254433 16.2920887,4.90843418 16.324,6.80082716 C16.3200384,7.95801775 15.9399308,9.08254655 15.241,10.0048272 C14.4969449,10.9691841 13.613224,11.8171788 12.619,12.5208272 L12.619,12.5208272 L7.519,16.4208272 C7.41625835,16.4996764 7.27764363,16.5133086 7.1615099,16.4559849 C7.04537618,16.3986611 6.97189481,16.280338 6.972,16.1508272 L6.972,16.1508272 L6.972,13.4008272 C5.17413031,13.2430731 3.47061454,12.5269811 2.1,11.3528272 C0.777613652,10.2083537 0.0123931495,8.54964719 0,6.80082716 C0.0319112759,4.90843418 0.920040079,3.13254433 2.415,1.97182716 C4.04465792,0.669205519 6.0759009,-0.0274327133 8.162,0.000827157895 Z M2.981,4.35181094 C2.72,4.34982716 2.564,4.53282716 2.564,4.88282716 L2.564,4.88282716 L2.564,7.96482716 L2.56043849,8.04542689 C2.56560241,8.15219161 2.60984834,8.25444567 2.68635611,8.33173733 C2.78199082,8.42835191 2.9171411,8.47495757 3.052,8.45782716 C3.18563636,8.46009989 3.48704132,8.46237261 3.7999414,8.46323662 L4.17093764,8.4635071 C4.40861157,8.46311641 4.61363636,8.46146352 4.706,8.45782716 C4.93750755,8.45728441 5.12535484,8.2703295 5.127,8.03882716 C5.11448299,7.81774004 4.93717288,7.64172416 4.715,7.62782716 L4.715,7.62782716 L4.591,7.62423833 L4.591,7.62423833 L4.467,7.62782716 L3.396,7.62782716 L3.396,4.89082716 L3.39036077,4.78154456 C3.36045679,4.50550597 3.213,4.35360313 2.981,4.35181094 Z M13.303,4.35182716 L11.694,4.35182716 L11.585623,4.35641016 C11.28073,4.38415716 11.1559,4.54012716 11.155,4.88482716 C11.151,5.89749382 11.151,6.91049382 11.155,7.92382716 C11.155,8.30082716 11.32,8.46082716 11.696,8.46282716 L11.696,8.46282716 L13.196,8.46282716 L13.2786475,8.45863552 C13.3335326,8.45333318 13.3878774,8.44303125 13.441,8.42782716 C13.6043737,8.37512962 13.7159073,8.2240653 13.7181718,8.05241781 C13.7204363,7.88077033 13.6129266,7.72681626 13.451,7.66982716 C13.3493907,7.64202136 13.2443273,7.62888844 13.139,7.63082716 L13.139,7.63082716 L12.009,7.63082716 L12.009,6.83682716 L12.1075,6.82607716 L12.1075,6.82607716 L12.197,6.81982716 C12.552,6.81982716 12.908,6.82782716 13.263,6.81982716 C13.572,6.80782716 13.734,6.63882716 13.722,6.37682716 C13.712,6.14182716 13.539,5.99582716 13.256,5.99082716 L13.256,5.99082716 L12.5493489,5.99070096 C11.931213,5.98855555 11.9348333,5.94993827 12,5.25482716 C12.0063302,5.23229745 12.0150462,5.21050746 12.026,5.18982716 L12.026,5.18982716 L12.015,5.18582716 L12.1375,5.17457716 L12.1375,5.17457716 L12.269,5.16782716 L13.175,5.16782716 L13.2866129,5.16336951 C13.3605821,5.15549459 13.4333522,5.13786907 13.503,5.11082716 C13.6806348,5.03486802 13.7683132,4.83364601 13.703,4.65182716 C13.6627188,4.4663365 13.4923498,4.33855969 13.303,4.35182716 L13.303,4.35182716 Z M6.006,4.34882716 C5.706,4.34882716 5.597,4.44182716 5.596,4.74882716 C5.59266667,5.84482716 5.59266667,6.94082716 5.596,8.03682716 C5.596,8.34482716 5.709,8.45482716 5.996,8.45583367 C6.283,8.45682716 6.405,8.34282716 6.406,8.02182716 L6.406,8.02182716 L6.406,4.75882716 L6.40215912,4.66285734 C6.38130864,4.42704938 6.27266667,4.34882716 6.006,4.34882716 Z M7.48492754,4.34484431 L7.403,4.35982716 C7.21233983,4.41635728 7.08723823,4.59858861 7.103,4.79682716 C7.099,5.86349382 7.099,6.93016049 7.103,7.99682716 C7.09231829,8.16856261 7.18796576,8.32929799 7.344,8.40182716 C7.644,8.54382716 7.93,8.32982716 7.933,7.94782716 C7.94,7.42682716 7.933,6.90482716 7.933,6.38282716 L7.933,6.38282716 L7.933,6.08282716 L8.00669513,6.12307158 C8.05315945,6.15409611 8.09394851,6.19323409 8.127,6.23882716 L8.127,6.23882716 L9.655,8.21082716 C9.781,8.37582716 9.926,8.49682716 10.155,8.41982716 C10.3504417,8.35806866 10.473485,8.16507602 10.447,7.96182716 L10.447,7.96182716 L10.447,4.80882716 L10.45,4.81382716 L10.4442373,4.71883813 C10.4137407,4.47902469 10.2641111,4.34816049 10.041,4.35082716 C9.79,4.35382716 9.641,4.52482716 9.641,4.82382716 L9.641,4.82382716 L9.641,6.47982716 L9.63979688,6.54062403 C9.6375,6.60338966 9.63225,6.67557716 9.627,6.78882716 C9.532,6.67882716 9.479,6.62182716 9.427,6.55982716 C8.915,5.89316049 8.404,5.22649382 7.894,4.55982716 C7.7957909,4.38819161 7.59318435,4.30566348 7.403,4.35982716 Z" id="Shape-2"></path>
        </g>
    </g>
</svg>