<?xml version="1.0" encoding="UTF-8"?>
<svg width="203px" height="33px" viewBox="0 0 203 33" version="1.1" xmlns="http://www.w3.org/2000/svg" xmlns:xlink="http://www.w3.org/1999/xlink">
    <title>關於赫綵</title>
    <g id="Web" stroke="none" stroke-width="1" fill="none" fill-rule="evenodd">
        <g id="赫綵官網/首頁02_Hover" transform="translate(-987.000000, -10435.000000)" fill="#65A0A6">
            <g id="Group-39" transform="translate(987.349000, 10435.000000)">
                <g id="Group_841" transform="translate(0.000000, 24.230865)" fill-rule="nonzero">
                    <polygon id="Path_6478" points="2.1 0.301615447 3.9 5.50161545 5.7 0.301615447 7.6 0.301615447 7.6 7.40161545 6.1 7.40161545 6.1 5.50161545 6.2 2.10161545 4.3 7.40161545 3.3 7.40161545 1.4 2.10161545 1.5 5.40161545 1.5 7.30161545 0 7.30161545 0 0.201615447 2.1 0.201615447"></polygon>
                    <path d="M9.2,4.70161545 C9.19276687,4.21825936 9.29534387,3.73956669 9.5,3.30161545 C9.71544836,2.9009191 10.0241336,2.55793553 10.4,2.30161545 C10.7843419,2.05131185 11.2448405,1.94504294 11.7,2.00161545 C12.345137,1.95512153 12.9746529,2.21433393 13.4,2.70161545 C13.8420824,3.20721255 14.1209522,3.83466965 14.2,4.50161545 L14.2,4.90161545 C14.2461513,5.6354331 13.9936927,6.35674318 13.5,6.90161545 C13.0238169,7.37567173 12.3713473,7.62940992 11.7,7.60161545 C11.0256665,7.64816983 10.3657105,7.3915203 9.9,6.90161545 C9.43187633,6.26481033 9.18593279,5.49184494 9.2,4.70161545 L9.2,4.70161545 Z M10.6,4.80161545 C10.5792786,5.22246672 10.6836687,5.64002734 10.9,6.00161545 C11.0888544,6.25342129 11.3852427,6.40161545 11.7,6.40161545 C12.0147573,6.40161545 12.3111456,6.25342129 12.5,6.00161545 C12.7280186,5.6081381 12.8325379,5.15522121 12.8,4.70161545 C12.8377157,4.31061385 12.731002,3.91933041 12.5,3.60161545 C12.2926782,3.3730093 12.007278,3.23030918 11.7,3.20161545 C11.381644,3.18545466 11.0780849,3.3372342 10.9,3.60161545 C10.6561413,3.95125287 10.5493658,4.37835478 10.6,4.80161545 Z" id="Path_6479"></path>
                    <path d="M16.9,2.10161545 L16.9,2.70161545 C17.2566938,2.23858361 17.8160044,1.977572 18.4,2.00161545 C18.8588072,1.9546897 19.3102546,2.14279279 19.6,2.50161545 C19.8773001,2.95167637 20.0163835,3.47323889 20,4.00161545 L20,7.40161545 L18.6,7.40161545 L18.6,4.00161545 C18.5941675,3.75503708 18.5253157,3.51405577 18.4,3.30161545 C18.2334301,3.15979356 18.018349,3.08809986 17.8,3.10161545 C17.4332677,3.09967218 17.0920954,3.28921237 16.9,3.60161545 L16.9,7.30161545 L15.5,7.30161545 L15.5,2.00161545 L16.9,2.00161545 L16.9,2.10161545 Z" id="Path_6480"></path>
                    <polygon id="Path_6481" points="24.4 4.90161545 21.7 4.90161545 21.7 3.80161545 24.4 3.80161545"></polygon>
                    <polygon id="Path_6482" points="30.4 4.50161545 27.6 4.50161545 27.6 7.40161545 26.1 7.40161545 26.1 0.301615447 30.7 0.301615447 30.7 1.50161545 27.6 1.50161545 27.6 3.30161545 30.4 3.30161545"></polygon>
                    <path d="M34.9,3.40161545 L34.4,3.40161545 C33.9959286,3.34897227 33.6003283,3.54677238 33.4,3.90161545 L33.4,7.40161545 L32,7.40161545 L32,2.10161545 L33.3,2.10161545 L33.3,2.70161545 C33.5324284,2.25724145 33.9987796,1.98520323 34.5,2.00161545 C34.7,2.00161545 34.8,2.00161545 34.9,2.10161545 L34.9,3.40161545 Z" id="Path_6483"></path>
                    <path d="M36,0.701615447 C36.0037714,0.516198657 36.0748574,0.338483771 36.2,0.201615447 C36.3665699,0.0597935586 36.581651,-0.0119001351 36.8,0.00161544727 C37.0124848,0.0223627209 37.2175638,0.09072236 37.4,0.201615447 C37.6,0.301615447 37.6,0.501615447 37.6,0.701615447 C37.5962286,0.887032237 37.5251426,1.06474712 37.4,1.20161545 C37.2334301,1.34343734 37.018349,1.41513103 36.8,1.40161545 C36.5844378,1.39680611 36.3753354,1.32710532 36.2,1.20161545 C36,1.10161545 36,1.00161545 36,0.701615447 Z M37.5,7.40161545 L36.1,7.40161545 L36.1,2.10161545 L37.5,2.10161545 L37.5,7.40161545 Z" id="Path_6484"></path>
                    <path d="M46.9,4.50161545 C46.9427982,5.31189615 46.7331628,6.11549851 46.3,6.80161545 C45.8886787,7.37399717 45.2004883,7.67985958 44.5,7.60161545 C43.8074658,7.6334526 43.1404376,7.33699561 42.7,6.80161545 C42.2527107,6.15921579 42.0407844,5.38215281 42.1,4.60161545 L42.1,3.20161545 C42.0572018,2.39133475 42.2668372,1.58773238 42.7,0.901615447 C43.1113213,0.329233722 43.7995117,0.0233713136 44.5,0.101615447 C45.1925342,0.0697782982 45.8595624,0.366235287 46.3,0.901615447 C46.7472893,1.54401511 46.9592156,2.32107808 46.9,3.10161545 L46.9,4.50161545 Z M45.5,3.00161545 C45.5070655,2.56010799 45.4394463,2.12058263 45.3,1.70161545 C45.2,1.40161545 44.9,1.30161545 44.5,1.30161545 C44.2035757,1.26393668 43.9180306,1.4271053 43.8,1.70161545 C43.6762233,2.09529304 43.5760453,2.49600501 43.5,2.90161545 L43.5,4.60161545 C43.4929345,5.0431229 43.5605537,5.48264827 43.7,5.90161545 C43.8625839,6.18303667 44.1773127,6.34040103 44.5,6.30161545 C44.7964243,6.33929421 45.0819694,6.1761256 45.2,5.90161545 C45.3318877,5.51525585 45.3994528,5.10986513 45.4,4.70161545 L45.4,3.00161545 L45.5,3.00161545 Z" id="Path_6485"></path>
                    <path d="M51.7,4.50161545 C51.3612326,4.85127438 50.8857638,5.03414699 50.4,5.00161545 C49.8386298,5.01715541 49.2957922,4.80002037 48.9,4.40161545 C48.4821474,3.93713157 48.2662707,3.32548118 48.3,2.70161545 C48.2925096,2.25030346 48.3955011,1.80400682 48.6,1.40161545 C48.7916528,1.00993884 49.1083234,0.693268201 49.5,0.501615447 C49.870896,0.308780975 50.2819932,0.20600669 50.7,0.201615447 C51.1380479,0.163740901 51.5722864,0.308487042 51.9,0.601615447 C52.2197465,0.888779375 52.4900283,1.22663165 52.7,1.60161545 C52.9146942,2.07167458 53.0173873,2.58514003 53,3.10161545 L53,3.60161545 C53.0566016,4.61413407 52.7359541,5.61170402 52.1,6.40161545 C51.4539635,7.09727476 50.5493499,7.49530473 49.6,7.50161545 L49.3,7.50161545 L49.3,6.30161545 L49.6,6.30161545 C50.9,6.20161545 51.6,5.60161545 51.7,4.50161545 Z M50.7,4.00161545 C50.9124848,3.98086817 51.1175638,3.91250853 51.3,3.80161545 C51.5,3.70161545 51.6,3.50161545 51.7,3.40161545 L51.7,2.80161545 C51.721839,2.41212772 51.6165551,2.02608659 51.4,1.70161545 C51.254135,1.45349404 50.9878208,1.30112972 50.7,1.30112972 C50.4121792,1.30112972 50.145865,1.45349404 50,1.70161545 C49.6000879,2.30830848 49.6000879,3.09492242 50,3.70161545 C50.165217,3.9166309 50.4303564,4.03026204 50.7,4.00161545 L50.7,4.00161545 Z" id="Path_6486"></path>
                    <path d="M54.7,2.70161545 C54.7037714,2.51619866 54.7748574,2.33848377 54.9,2.20161545 C55.0665699,2.05979356 55.281651,1.98809986 55.5,2.00161545 C55.7124848,2.02236272 55.9175638,2.09072236 56.1,2.20161545 C56.3,2.30161545 56.3,2.50161545 56.3,2.70161545 C56.2962286,2.88703224 56.2251426,3.06474712 56.1,3.20161545 C55.9334301,3.34343734 55.718349,3.41513103 55.5,3.40161545 C55.2875152,3.38086817 55.0824362,3.31250853 54.9,3.20161545 C54.7748574,3.06474712 54.7037714,2.88703224 54.7,2.70161545 Z M54.7,6.70161545 C54.7037714,6.51619866 54.7748574,6.33848377 54.9,6.20161545 C55.0665699,6.05979356 55.281651,5.98809986 55.5,6.00161545 C55.7124848,6.02236272 55.9175638,6.09072236 56.1,6.20161545 C56.3,6.30161545 56.3,6.50161545 56.3,6.70161545 C56.2962286,6.88703224 56.2251426,7.06474712 56.1,7.20161545 C55.9334301,7.34343734 55.718349,7.41513103 55.5,7.40161545 C55.2875152,7.38086817 55.0824362,7.31250853 54.9,7.20161545 C54.7748574,7.06474712 54.7037714,6.88703224 54.7,6.70161545 Z" id="Path_6487"></path>
                    <path d="M62.7,4.50161545 C62.7427982,5.31189615 62.5331628,6.11549851 62.1,6.80161545 C61.6886787,7.37399717 61.0004883,7.67985958 60.3,7.60161545 C59.6074658,7.6334526 58.9404376,7.33699561 58.5,6.80161545 C58.0527107,6.15921579 57.8407844,5.38215281 57.9,4.60161545 L57.9,3.20161545 C57.8572018,2.39133475 58.0668372,1.58773238 58.5,0.901615447 C58.9113213,0.329233722 59.5995117,0.0233713136 60.3,0.101615447 C60.9925342,0.0697782982 61.6595624,0.366235287 62.1,0.901615447 C62.5472893,1.54401511 62.7592156,2.32107808 62.7,3.10161545 L62.7,4.50161545 Z M61.3,3.00161545 C61.3070655,2.56010799 61.2394463,2.12058263 61.1,1.70161545 C61,1.40161545 60.7,1.30161545 60.3,1.30161545 C60.0035757,1.26393668 59.7180306,1.4271053 59.6,1.70161545 C59.4762233,2.09529304 59.3760453,2.49600501 59.3,2.90161545 L59.3,4.60161545 C59.2929345,5.0431229 59.3605537,5.48264827 59.5,5.90161545 C59.6625839,6.18303667 59.9773127,6.34040103 60.3,6.30161545 C60.5964243,6.33929421 60.8819694,6.1761256 61,5.90161545 C61.1318877,5.51525585 61.1994528,5.10986513 61.2,4.70161545 L61.2,3.00161545 L61.3,3.00161545 Z" id="Path_6488"></path>
                    <path d="M68.9,4.50161545 C68.9427982,5.31189615 68.7331628,6.11549851 68.3,6.80161545 C67.8886787,7.37399717 67.2004883,7.67985958 66.5,7.60161545 C65.8074658,7.6334526 65.1404376,7.33699561 64.7,6.80161545 C64.2527107,6.15921579 64.0407844,5.38215281 64.1,4.60161545 L64.1,3.20161545 C64.0572018,2.39133475 64.2668372,1.58773238 64.7,0.901615447 C65.1113213,0.329233722 65.7995117,0.0233713136 66.5,0.101615447 C67.1925342,0.0697782982 67.8595624,0.366235287 68.3,0.901615447 C68.7472893,1.54401511 68.9592156,2.32107808 68.9,3.10161545 L68.9,4.50161545 Z M67.5,3.00161545 C67.5070655,2.56010799 67.4394463,2.12058263 67.3,1.70161545 C67.2,1.40161545 66.9,1.30161545 66.5,1.30161545 C66.2035757,1.26393668 65.9180306,1.4271053 65.8,1.70161545 C65.6762233,2.09529304 65.5760453,2.49600501 65.5,2.90161545 L65.5,4.60161545 C65.4929345,5.0431229 65.5605537,5.48264827 65.7,5.90161545 C65.8625839,6.18303667 66.1773127,6.34040103 66.5,6.30161545 C66.7964243,6.33929421 67.0819694,6.1761256 67.2,5.90161545 C67.3318877,5.51525585 67.3994528,5.10986513 67.4,4.70161545 L67.4,3.00161545 L67.5,3.00161545 Z" id="Path_6489"></path>
                    <polygon id="Path_6490" points="73.2 4.90161545 70.5 4.90161545 70.5 3.80161545 73.2 3.80161545"></polygon>
                    <polygon id="Path_6491" points="78.2 7.40161545 76.8 7.40161545 76.8 2.00161545 75.1 2.50161545 75.1 1.40161545 78 0.301615447 78.2 0.301615447"></polygon>
                    <path d="M85.6,2.20161545 C85.6077897,2.52738708 85.5016948,2.84567198 85.3,3.10161545 C85.1,3.30161545 84.9,3.60161545 84.6,3.70161545 C84.9104185,3.87963016 85.1823546,4.11757431 85.4,4.40161545 C85.6030984,4.69490167 85.7081173,5.04496452 85.7,5.40161545 C85.71554,5.96298563 85.4984049,6.50582322 85.1,6.90161545 C84.5907486,7.30177738 83.94268,7.48179644 83.3,7.40161545 C82.6459758,7.43450807 82.0034838,7.22034406 81.5,6.80161545 C81.0625711,6.43281411 80.8375869,5.8703536 80.9,5.30161545 C80.8918827,4.94496452 80.9969016,4.59490167 81.2,4.30161545 C81.4176454,4.01757431 81.6895815,3.77963016 82,3.60161545 C81.7460897,3.42695273 81.5114412,3.22582547 81.3,3.00161545 C81.0983052,2.74567198 80.9922103,2.42738708 81,2.10161545 C80.9644786,1.56582854 81.1875188,1.04540125 81.6,0.701615447 C82.0464497,0.330329106 82.6215811,0.150600549 83.2,0.201615447 C83.774494,0.182815714 84.3384336,0.359046863 84.8,0.701615447 C85.3220482,1.01661668 85.6292369,1.59259549 85.6,2.20161545 L85.6,2.20161545 Z M84.4,5.30161545 C84.4286466,5.03197182 84.3150155,4.76683249 84.1,4.60161545 C83.8965237,4.44278471 83.6553438,4.33942191 83.4,4.30161545 C82.9444746,4.29521645 82.5422009,4.5975102 82.4216187,5.03683274 C82.3010365,5.47615528 82.492628,5.94144906 82.887594,6.16848705 C83.2825599,6.39552505 83.7810558,6.32691371 84.1,6.00161545 C84.3150155,5.83639841 84.4286466,5.57125908 84.4,5.30161545 Z M84.2,2.20161545 C84.1941675,1.95503708 84.1253157,1.71405577 84,1.50161545 C83.8624698,1.30790068 83.6374899,1.19541074 83.4,1.20161545 C83.181651,1.18809986 82.9665699,1.25979356 82.8,1.40161545 C82.6603323,1.60762296 82.5902484,1.85291671 82.6,2.10161545 C82.6058325,2.34819381 82.6746843,2.58917512 82.8,2.80161545 C82.9416408,2.99046983 83.163932,3.10161545 83.4,3.10161545 C83.636068,3.10161545 83.8583592,2.99046983 84,2.80161545 C84.1254899,2.62628005 84.1951907,2.41717768 84.2,2.20161545 Z" id="Path_6492"></path>
                    <path d="M87.4,2.70161545 C87.4037714,2.51619866 87.4748574,2.33848377 87.6,2.20161545 C87.7665699,2.05979356 87.981651,1.98809986 88.2,2.00161545 C88.4124848,2.02236272 88.6175638,2.09072236 88.8,2.20161545 C89,2.30161545 89,2.50161545 89,2.70161545 C88.9962286,2.88703224 88.9251426,3.06474712 88.8,3.20161545 C88.6334301,3.34343734 88.418349,3.41513103 88.2,3.40161545 C87.9875152,3.38086817 87.7824362,3.31250853 87.6,3.20161545 C87.4,3.10161545 87.4,2.90161545 87.4,2.70161545 Z M87.4,6.70161545 C87.4037714,6.51619866 87.4748574,6.33848377 87.6,6.20161545 C87.7665699,6.05979356 87.981651,5.98809986 88.2,6.00161545 C88.4124848,6.02236272 88.6175638,6.09072236 88.8,6.20161545 C89,6.30161545 89,6.50161545 89,6.70161545 C88.9962286,6.88703224 88.9251426,7.06474712 88.8,7.20161545 C88.6334301,7.34343734 88.418349,7.41513103 88.2,7.40161545 C87.9875152,7.38086817 87.7824362,7.31250853 87.6,7.20161545 C87.4,7.10161545 87.4,6.90161545 87.4,6.70161545 Z" id="Path_6493"></path>
                    <path d="M95.3,4.50161545 C95.3427982,5.31189615 95.1331628,6.11549851 94.7,6.80161545 C94.2886787,7.37399717 93.6004883,7.67985958 92.9,7.60161545 C92.2074658,7.6334526 91.5404376,7.33699561 91.1,6.80161545 C90.6527107,6.15921579 90.4407844,5.38215281 90.5,4.60161545 L90.5,3.20161545 C90.4572018,2.39133475 90.6668372,1.58773238 91.1,0.901615447 C91.5113213,0.329233722 92.1995117,0.0233713136 92.9,0.101615447 C93.5925342,0.0697782982 94.2595624,0.366235287 94.7,0.901615447 C95.1472893,1.54401511 95.3592156,2.32107808 95.3,3.10161545 L95.3,4.50161545 Z M93.9,3.00161545 C93.9070655,2.56010799 93.8394463,2.12058263 93.7,1.70161545 C93.6,1.40161545 93.3,1.30161545 92.9,1.30161545 C92.6035757,1.26393668 92.3180306,1.4271053 92.2,1.70161545 C92.0762233,2.09529304 91.9760453,2.49600501 91.9,2.90161545 L91.9,4.60161545 C91.8929345,5.0431229 91.9605537,5.48264827 92.1,5.90161545 C92.2625839,6.18303667 92.5773127,6.34040103 92.9,6.30161545 C93.1964243,6.33929421 93.4819694,6.1761256 93.6,5.90161545 C93.7318877,5.51525585 93.7994528,5.10986513 93.8,4.70161545 L93.8,3.00161545 L93.9,3.00161545 Z" id="Path_6494"></path>
                    <path d="M101.6,4.50161545 C101.642798,5.31189615 101.433163,6.11549851 101,6.80161545 C100.588679,7.37399717 99.9004883,7.67985958 99.2,7.60161545 C98.5074658,7.6334526 97.8404376,7.33699561 97.4,6.80161545 C96.9527107,6.15921579 96.7407844,5.38215281 96.8,4.60161545 L96.8,3.20161545 C96.7572018,2.39133475 96.9668372,1.58773238 97.4,0.901615447 C97.8113213,0.329233722 98.4995117,0.0233713136 99.2,0.101615447 C99.8925342,0.0697782982 100.559562,0.366235287 101,0.901615447 C101.447289,1.54401511 101.659216,2.32107808 101.6,3.10161545 L101.6,4.50161545 Z M100.2,3.00161545 C100.207066,2.56010799 100.139446,2.12058263 100,1.70161545 C99.9,1.40161545 99.6,1.30161545 99.2,1.30161545 C98.9035757,1.26393668 98.6180306,1.4271053 98.5,1.70161545 C98.3762233,2.09529304 98.2760453,2.49600501 98.2,2.90161545 L98.2,4.60161545 C98.1929345,5.0431229 98.2605537,5.48264827 98.4,5.90161545 C98.5625839,6.18303667 98.8773127,6.34040103 99.2,6.30161545 C99.4964243,6.33929421 99.7819694,6.1761256 99.9,5.90161545 C100.031888,5.51525585 100.099453,5.10986513 100.1,4.70161545 L100.1,3.00161545 L100.2,3.00161545 Z" id="Path_6495"></path>
                </g>
                <g id="Group_842" transform="translate(106.500000, 24.932480)" fill-rule="nonzero">
                    <polygon id="Path_6496" points="0.9 6.9 0 6.9 2.4 0 3.3 0"></polygon>
                </g>
                <g id="Group_843" transform="translate(115.700000, 24.132480)" fill-rule="nonzero">
                    <path d="M2.3,2.2 L2.3,2.9 C2.00021789,3.38974377 1.6660445,3.85758652 1.3,4.3 L2.4,4.3 L2.4,4.9 C2.3,5.6 2.1,6.1 2,6.6 L2.2,6.8 C2.4344009,7.03974946 2.70420826,7.24210498 3,7.4 C3.35143722,7.53306317 3.72421652,7.60084122 4.1,7.6 L5.8,7.6 C6.63449212,7.60923413 7.46891154,7.57585735 8.3,7.5 L8.1,8.3 L4.1,8.3 C3.62584925,8.30535453 3.15368546,8.23790256 2.7,8.1 C2.30938032,7.96161997 1.96372354,7.71966023 1.7,7.4 C1.6,7.3 1.6,7.3 1.5,7.3 C1.3,7.3 1,7.7 0.6,8.5 L5.68434189e-14,7.9 C0.4,7.1 0.8,6.6 1.2,6.5 C1.39229244,6.05223024 1.52670956,5.58177033 1.6,5.1 L0.3,5.1 L0.3,4.3 C0.697192444,3.85814668 1.06466438,3.39045512 1.4,2.9 L0.2,2.9 L0.2,2.1 L2.3,2.1 L2.3,2.2 Z M2.3,1.3 L1.8,1.9 C1.37971346,1.41925499 0.910517585,0.98357311 0.4,0.6 L1,0.1 C1.45600113,0.474722896 1.89005249,0.875385688 2.3,1.3 L2.3,1.3 Z M8,6.3 C8,6.8 7.7,7 7.1,7 L6.1,7 L5.9,6.2 L6.9,6.2 C6.98263924,6.21187568 7.06604286,6.18411296 7.12507791,6.12507791 C7.18411296,6.06604286 7.21187568,5.98263924 7.2,5.9 L7.2,1 L3.8,1 L3.8,3.4 C3.83991562,4.59531739 3.6357597,5.78622695 3.2,6.9 L2.6,6.3 C2.90794634,5.36555486 3.04348244,4.38291808 3,3.4 L3,0.3 L8.1,0.3 L8.1,6.3 L8,6.3 Z M5.8,1.3 L5.8,1.7 L6.9,1.7 L6.9,2.4 L5.8,2.4 L5.8,2.9 L6.9,2.9 L6.9,3.6 L5.8,3.6 L5.8,4.1 L6.7,4.1 L6.7,6 L4.1,6 L4.1,4.1 L5,4.1 L5,3.6 L3.9,3.6 L3.9,2.9 L5,2.9 L5,2.4 L3.9,2.4 L3.9,1.7 L5,1.7 L5,1.3 L5.8,1.3 Z M6,4.6 L4.9,4.6 L4.9,5.3 L6.1,5.3 L6.1,4.6 L6,4.6 Z" id="Path_6497"></path>
                    <path d="M14.1,8.4 L13.2,8.4 L13.2,4.3 C12.4547239,5.73062288 11.3077435,6.91236024 9.9,7.7 L9.4,6.9 C10.6639072,6.3051748 11.7372995,5.37028478 12.5,4.2 L10,4.2 L10,3.3 L13.2,3.3 L13.2,2 L9.6,2 L9.6,1.2 L13.2,1.2 L13.2,2.27373675e-13 L14.1,2.27373675e-13 L14.1,1.2 L17.6,1.2 L17.6,2 L14.1,2 L14.1,3.3 L17.3,3.3 L17.3,4.1 L14.8,4.1 C15.5324347,5.23429292 16.5731204,6.13622052 17.8,6.7 L17.2,7.5 C15.8940119,6.69228392 14.8245954,5.55387284 14.1,4.2 L14.1,8.4 L14.1,8.4 Z" id="Path_6498"></path>
                    <path d="M20.3,6.3 C20.4251426,6.43686832 20.4962286,6.61458321 20.5,6.8 C20.5,7 20.4,7.1 20.3,7.3 C20.0754324,7.53080375 19.7232693,7.5806921 19.4434317,7.42134372 C19.1635942,7.26199534 19.0267945,6.93367607 19.1106931,6.62277094 C19.1945917,6.31186582 19.4779882,6.09693766 19.8,6.1 C20,6.1 20.1,6.2 20.3,6.3 Z" id="Path_6499"></path>
                    <path d="M22,4.5 L21.7,3.6 C22.4629676,2.50291435 23.037524,1.28620669 23.4,2.27373675e-13 L24.2,0.4 C23.9942452,1.08944629 23.7264853,1.75884593 23.4,2.4 L23.4,8.5 L22.6,8.5 L22.6,3.9 C22.3524993,4.04606908 22.1460691,4.25249931 22,4.5 Z M27.3,0.5 L27.3,1.3 L25.7,1.3 C25.6820403,1.67387136 25.6147924,2.04373459 25.5,2.4 L27.1,2.4 L27.1,3.1 C26.8,5.6 25.9,7.3 24.4,8.3 L24,7.5 C24.6863339,7.01314761 25.2370483,6.35917426 25.6,5.6 C25.3128235,5.28026676 24.9749736,5.00998681 24.6,4.8 C24.4197879,5.05795769 24.2529027,5.32497395 24.1,5.6 L23.7,4.8 C24.4527115,3.78570695 24.8720051,2.56276733 24.9,1.3 L24.3,1.3 L24.3,0.5 L27.3,0.5 Z M26,4.9 C26.1915673,4.34863377 26.3256133,3.77893814 26.4,3.2 L25.4,3.2 C25.3280835,3.55473403 25.1925667,3.89352604 25,4.2 C25.3708288,4.37457197 25.7090447,4.61132304 26,4.9 Z M28.4,0.8 L28.4,6.4 L27.6,6.4 L27.6,0.8 L28.4,0.8 Z M27.9,8.3 L27.7,7.5 C28,7.5 28.3,7.6 28.6,7.6 C28.6826392,7.61187568 28.7660429,7.58411296 28.8250779,7.52507791 C28.884113,7.46604286 28.9118757,7.38263924 28.9,7.3 L28.9,0.2 L29.8,0.2 L29.8,7.5 C29.8334657,7.74745076 29.7494697,7.99633567 29.5729027,8.17290269 C29.3963357,8.34946972 29.1474508,8.43346566 28.9,8.4 L27.9,8.4 L27.9,8.3 Z" id="Path_6500"></path>
                    <path d="M31.5,4.5 L31.2,3.6 C31.9194456,2.50368118 32.4281407,1.28281311 32.7,2.27373675e-13 L33.5,0.4 C33.3,1 33.1,1.6 32.9,2.1 L32.9,8.4 L32.1,8.4 L32.1,3.7 C31.8763008,3.94804091 31.6754835,4.2157973 31.5,4.5 L31.5,4.5 Z M34.5,5.8 L36.1,5.8 L36.1,6.6 L34.5,6.6 L34.5,8.3 L33.7,8.3 L33.7,0.3 L36.3,0.3 L36.3,3.1 L34.5,3.1 L34.5,4 L36.1,4 L36.1,4.8 L34.5,4.8 L34.5,5.8 L34.5,5.8 Z M35.5,2.3 L35.5,1.1 L34.5,1.1 L34.5,2.3 L35.5,2.3 Z M39.3,3.8 L39.3,4.5 C39.1230709,5.24657208 38.8186011,5.9570016 38.4,6.6 C38.788783,6.98755867 39.225683,7.32363552 39.7,7.6 L39.3,8.3 C38.7945228,8.02464917 38.3244055,7.68885111 37.9,7.3 C37.4252755,7.74536093 36.8858219,8.11623531 36.3,8.4 L35.8,7.7 C36.3507249,7.44986338 36.8572874,7.11215505 37.3,6.7 C36.9203782,6.09390595 36.6812007,5.41054144 36.6,4.7 L36.3,4.7 L36.3,3.9 L39.3,3.9 L39.3,3.8 Z M36.7,3.1 L36.7,2.3 L38.4,2.3 L38.4,1.1 L36.7,1.1 L36.7,0.3 L39.2,0.3 L39.2,3.1 L36.7,3.1 Z M37.9,6 C38.2001496,5.58292512 38.4049799,5.10498753 38.5,4.6 L37.4,4.6 C37.4136027,5.10795323 37.5887448,5.59835124 37.9,6 L37.9,6 Z" id="Path_6501"></path>
                    <path d="M47.8,8.3 L46.9,8.3 L46.9,7.7 L42.9,7.7 L42.9,8.3 L42,8.3 L42,0.3 L47.8,0.3 L47.8,8.3 Z M47,3.5 L47,1.2 L42.9,1.2 L42.9,3.5 L47,3.5 Z M47,6.8 L47,4.3 L42.9,4.3 L42.9,6.8 L47,6.8 Z" id="Path_6502"></path>
                    <path d="M52,1.4 L52,1.1 L50.4,1.1 L50.4,0.5 L52,0.5 L52,2.27373675e-13 L52.8,2.27373675e-13 L52.8,0.5 L54.4,0.5 L54.4,1.1 L52.8,1.1 L52.8,1.4 L54.2,1.4 L54.2,3.4 L52.8,3.4 L52.8,3.7 L54.5,3.7 L54.5,4.3 C54.7954245,3.78413529 54.9344043,3.19347148 54.9,2.6 L54.9,0.7 C55.8569147,0.716339912 56.8078825,0.54652424 57.7,0.2 L58.1,0.9 C57.3210513,1.13820993 56.5141007,1.27270169 55.7,1.3 L55.7,2 L58.3,2 L58.3,2.8 L57.4,2.8 L57.4,4.9 L56.6,4.9 L56.6,2.8 L55.6,2.8 C55.6592156,3.58053737 55.4472893,4.35760034 55,5 L54.3,4.7 C54.3,4.6 54.4,4.6 54.4,4.5 L52.7,4.5 L52.7,5 L51.9,5 L51.9,4.5 L50.2,4.5 L50.2,3.9 L51.9,3.9 L51.9,3.3 L50.5,3.3 L50.5,1.3 L52,1.3 L52,1.4 Z M52.1,2.1 L52.1,1.8 L51.3,1.8 L51.3,2.1 L52.1,2.1 Z M52.1,2.5 L51.3,2.5 L51.3,2.8 L52.1,2.8 L52.1,2.5 Z M57.4,8.3 L56.6,8.3 L56.6,8 L52.2,8 L52.2,8.3 L51.4,8.3 L51.4,4.9 L57.4,4.9 L57.4,8.3 Z M56.5,6.1 L56.5,5.6 L52.1,5.6 L52.1,6.1 L56.5,6.1 Z M56.5,7.3 L56.5,6.8 L52.1,6.8 L52.1,7.3 L56.5,7.3 Z M52.7,2.1 L53.5,2.1 L53.5,1.8 L52.7,1.8 L52.7,2.1 Z M53.5,2.5 L52.7,2.5 L52.7,2.8 L53.5,2.8 L53.5,2.5 Z" id="Path_6503"></path>
                    <path d="M62.1,0.3 C61.9274643,0.954104012 61.6930745,1.59030503 61.4,2.2 L61.4,8.3 L60.5,8.3 L60.5,3.6 C60.3,3.9 60,4.2 59.8,4.5 L59.5,3.6 C60.3342504,2.53215817 60.9462768,1.30810542 61.3,1.13686838e-13 L62.1,0.3 Z M67.7,5.7 L67.2,5.7 L67.2,6.2 L65.3,6.2 L65.3,7.5 C65.3,8.1 65,8.3 64.4,8.3 L63.4,8.3 L63.2,7.5 L64.1,7.5 C64.1826392,7.51187568 64.2660429,7.48411296 64.3250779,7.42507791 C64.384113,7.36604286 64.4118757,7.28263924 64.4,7.2 L64.4,6.1 L62.5,6.1 L62.5,5.6 L61.9,5.6 L61.9,4 L67.7,4 L67.7,5.7 Z M65.1,0.7 L67.6,0.7 L67.6,1.5 L62,1.5 L62,0.7 L64.2,0.7 C64.0891069,0.517563761 64.0207473,0.312484844 64,0.1 L64.9,1.13686838e-13 C64.979967,0.229326543 65.0467429,0.463042064 65.1,0.7 L65.1,0.7 Z M67,1.8 L67,3.6 L62.6,3.6 L62.6,1.8 L67,1.8 Z M66.9,5.4 L66.9,4.7 L62.8,4.7 L62.8,5.4 L66.9,5.4 Z M66.1,2.5 L63.4,2.5 L63.4,3 L66.1,3 L66.1,2.5 Z" id="Path_6504"></path>
                    <path d="M69.8,8.3 L69.2,7.7 C69.5929902,6.75113611 69.7640078,5.72503022 69.7,4.7 L69.7,0.3 L72.5,0.3 L72.5,7.3 C72.5,7.9 72.2,8.2 71.7,8.2 L70.9,8.2 L70.7,7.4 L71.4,7.4 C71.6,7.4 71.7,7.2 71.7,6.9 L71.7,5.3 L70.4,5.3 C70.3856243,6.32832873 70.1822412,7.34524436 69.8,8.3 Z M71.7,1.1 L70.4,1.1 L70.4,2.4 L71.7,2.4 L71.7,1.1 Z M70.4,4.5 L71.7,4.5 L71.7,3.2 L70.4,3.2 L70.4,4.5 Z M73.9,8.3 L73.1,8.3 L73.1,0.3 L76.9,0.3 C76.9236013,1.07185252 76.8564748,1.84380627 76.7,2.6 C76.5509147,3.01165915 76.1333864,3.26217613 75.7,3.2 L74.9,3.2 L74.7,2.5 L75.7,2.5 C75.8073068,2.49274158 75.8927416,2.40730678 75.9,2.3 C76.0056736,1.94353988 76.0396616,1.56967242 76,1.2 L73.9,1.2 L73.9,3.7 L76.9,3.7 L76.9,4.4 C76.7553926,5.20382187 76.4854368,5.97994487 76.1,6.7 C76.488783,7.08755867 76.925683,7.42363552 77.4,7.7 L77,8.4 C76.5088838,8.14940676 76.0681831,7.81040622 75.7,7.4 C75.3379893,7.81700918 74.895915,8.1570664 74.4,8.4 L74,7.7 L74,8.3 L73.9,8.3 Z M73.9,7.6 C74.3618309,7.34876724 74.7696048,7.00895565 75.1,6.6 C74.5763456,5.91880439 74.2015908,5.13522604 74,4.3 L73.9,4.3 L73.9,7.6 Z M75.6,6 C75.9021956,5.51078419 76.1060055,4.96729124 76.2,4.4 L74.8,4.4 C74.921982,4.99417728 75.1978474,5.545908 75.6,6 L75.6,6 Z" id="Path_6505"></path>
                    <path d="M80.4,2 C80.7,1.7 80.9,1.4 81.2,1.1 L78.8,1.1 L78.8,0.3 L82.1,0.3 L82.1,1 C81.74992,1.53797028 81.3480022,2.04036747 80.9,2.5 C81,2.6 81.2,2.7 81.3,2.9 L81.1,3.1 L82.4,3.1 L82.4,3.8 C82.2150916,4.37043908 81.9454062,4.9098098 81.6,5.4 L81.1,4.9 C81.2854489,4.54216435 81.4523368,4.17501095 81.6,3.8 L80.9,3.8 L80.9,7.4 C80.9199162,7.61767083 80.8420516,7.83293271 80.6874922,7.98749216 C80.5329327,8.1420516 80.3176708,8.2199162 80.1,8.2 L79.3,8.2 L79.1,7.5 C79.4,7.5 79.6,7.6 79.8,7.6 C79.8826392,7.61187568 79.9660429,7.58411296 80.0250779,7.52507791 C80.084113,7.46604286 80.1118757,7.38263924 80.1,7.3 L80.1,4.2 C79.789015,5.21699059 79.3523059,6.19118774 78.8,7.1 L78.5,6.3 C79.0178096,5.56453558 79.4223142,4.75552629 79.7,3.9 L78.6,3.9 L78.6,3.1 L80.4,3.1 C79.9771593,2.65153623 79.5078575,2.24927753 79,1.9 L79.5,1.4 C79.8149993,1.57653167 80.1158941,1.77712817 80.4,2 L80.4,2 Z M86.3,7.3 C86.2,7.9 85.8,8.2 85,8.2 L84.2,8.2 L84,7.5 L84.9,7.5 C85.2241122,7.52658721 85.5200326,7.31521552 85.6,7 C85.6,6.8 85.7,6.3 85.7,5.4 L84.5,5.4 C84.3952371,5.8416139 84.2616169,6.27587965 84.1,6.7 C83.6337338,7.40497195 82.9740371,7.96050596 82.2,8.3 L81.7,7.6 C82.3580149,7.30135227 82.9393797,6.85677914 83.4,6.3 C83.5706494,6.01801433 83.7050437,5.71562706 83.8,5.4 L82.5,5.4 L82.5,4.6 L84,4.6 C83.9839016,4.36223677 84.0179718,4.12374513 84.1,3.9 L84.9,3.9 L84.8,4.6 L86.6,4.6 C86.4,6.1 86.3,7 86.3,7.3 Z M84.1,0.1 C84,0.3 84,0.5 83.9,0.7 L86.5,0.7 L86.5,1.5 L85.9,1.5 C85.7398636,2.01996296 85.4666681,2.49805516 85.1,2.9 C85.6,3.1 86.1,3.3 86.7,3.5 L86.2,4.2 C85.5986334,4.01434302 85.0263632,3.74503939 84.5,3.4 C83.9875392,3.70651528 83.4526887,3.97394052 82.9,4.2 L82.4,3.6 C82.8815884,3.43678662 83.349681,3.23617551 83.8,3 C83.5159589,2.78235464 83.2780147,2.51041847 83.1,2.2 L83.7,1.9 C83.9,2.1 84.1,2.4 84.4,2.5 C84.688677,2.20904465 84.925428,1.87082884 85.1,1.5 L83.5,1.5 C83.2206372,1.91232758 82.8839161,2.28272086 82.5,2.6 L82,2 C82.6315798,1.48546826 83.0861835,0.786077926 83.3,3.41060513e-13 L84.1,0.1 Z" id="Path_6506"></path>
                </g>
                <path d="M19.4,0.932480142 L15.5,0.0324801419 C15.0873339,-0.0865599571 14.6523676,0.130923199 14.5,0.532480142 L12.7,4.83248014 C12.49195,5.22062652 12.623698,5.7037025 13,5.93248014 L15.3,7.83248014 C13.8796531,10.7528613 11.5203812,13.1121333 8.6,14.5324801 L6.7,12.2324801 C6.41458042,11.9408888 5.99393864,11.8261683 5.6,11.9324801 L1.3,13.7324801 C0.914631284,13.9022965 0.704631887,14.3222953 0.8,14.7324801 L1.7,18.6324801 C1.81394511,19.0379904 2.178919,19.3218589 2.6,19.3324801 C12.3142743,19.3181612 20.1856811,11.4467545 20.2,1.73248014 C20.141311,1.31738047 19.8150997,0.991169164 19.4,0.932480142 L19.4,0.932480142 Z" id="Shape备份" transform="translate(10.488570, 9.666240) scale(-1, 1) translate(-10.488570, -9.666240) "></path>
                <g id="Group_844" transform="translate(25.089760, 0.912661)" fill-rule="nonzero">
                    <path d="M12.1102404,10.9198196 C12.2470752,12.932735 11.7201637,14.9349985 10.6102404,16.6198196 C9.52402052,17.9776851 7.84601981,18.7234632 6.11024038,18.6198196 C4.39017951,18.7580411 2.71075277,18.0489498 1.61024038,16.7198196 C0.47783633,15.0788343 -0.0842991169,13.1113602 0.0102403838,11.1198196 L0.0102403838,7.81981961 C0.0102403838,5.31981961 0.510240384,3.41981961 1.61024038,2.11981961 C2.70985662,0.779427938 4.37845424,0.0378289986 6.11024038,0.119819611 C7.82683874,0.00269456195 9.49702336,0.707883624 10.6102404,2.01981961 C11.7426444,3.66080493 12.3047799,5.62827899 12.2102404,7.61981961 L12.2102404,10.9198196 L12.1102404,10.9198196 Z M8.61024038,7.31981961 C8.68408966,6.18724866 8.47802828,5.05391107 8.01024038,4.01981961 C7.6320457,3.3383863 6.88606136,2.94576297 6.11024038,3.01981961 C5.33943053,2.97018806 4.60573145,3.35634547 4.21024038,4.01981961 C3.74834988,4.9491261 3.54130549,5.98434805 3.61024038,7.01981961 L3.61024038,11.4198196 C3.53639111,12.5523906 3.74245249,13.6857281 4.21024038,14.7198196 C4.57470071,15.4257942 5.31653111,15.855275 6.11024038,15.8198196 C6.88606136,15.8938763 7.6320457,15.5012529 8.01024038,14.8198196 C8.47986412,13.8217755 8.68640956,12.7201999 8.61024038,11.6198196 L8.61024038,7.31981961 Z" id="Path_6507"></path>
                    <path d="M27.3102404,5.11981961 C27.355278,5.94502636 27.1073591,6.75961697 26.6102404,7.41981961 C26.1333802,8.07738514 25.5191787,8.62334197 24.8102404,9.01981961 C25.6503433,9.38738831 26.3758024,9.97466477 26.9102404,10.7198196 C27.4413352,11.4819428 27.7210333,12.3909617 27.7102404,13.3198196 C27.7994157,14.7668147 27.2075853,16.172412 26.1102404,17.1198196 C23.4006235,18.9865271 19.8198573,18.9865271 17.1102404,17.1198196 C16.0128955,16.172412 15.4210651,14.7668147 15.5102404,13.3198196 C15.4994475,12.3909617 15.7791456,11.4819428 16.3102404,10.7198196 C16.8446783,9.97466477 17.5701375,9.38738831 18.4102404,9.01981961 C17.6613217,8.68220705 17.0333288,8.12399121 16.6102404,7.41981961 C16.1837844,6.72575294 15.9427501,5.93378296 15.9102404,5.11981961 C15.852326,3.72771816 16.3992701,2.37858944 17.4102404,1.41981961 C18.584307,0.441477038 20.0839815,-0.058414456 21.6102404,0.0198196107 C23.134098,-0.0411345106 24.6277267,0.456741726 25.8102404,1.41981961 C26.8048978,2.38963193 27.3487576,3.73115273 27.3102404,5.11981961 L27.3102404,5.11981961 Z M24.1102404,13.2198196 C24.1565772,12.5159233 23.9021757,11.8254051 23.4102404,11.3198196 C22.9340573,10.8457633 22.2815877,10.5920251 21.6102404,10.6198196 C20.9330562,10.5535821 20.2647546,10.8134771 19.8102404,11.3198196 C19.3589106,11.8500649 19.1108022,12.5235019 19.1102404,13.2198196 C19.0639036,13.9237159 19.3183051,14.6142341 19.8102404,15.1198196 C20.3055764,15.6277834 21.0037448,15.8850033 21.7102404,15.8198196 C22.3874246,15.8860572 23.0557262,15.6261621 23.5102404,15.1198196 C23.9296928,14.5779216 24.1424048,13.9043335 24.1102404,13.2198196 Z M23.8102404,5.31981961 C23.8439696,4.69595388 23.628093,4.08430349 23.2102404,3.61981961 C22.2936283,2.81967413 20.9268525,2.81967413 20.0102404,3.61981961 C19.2101139,4.61193182 19.2101139,6.0277074 20.0102404,7.01981961 C20.422362,7.46643035 21.0025355,7.72025625 21.6102404,7.71981961 C22.2266199,7.76604444 22.8258594,7.50387718 23.2102404,7.01981961 C23.628093,6.55533573 23.8439696,5.94368534 23.8102404,5.31981961 L23.8102404,5.31981961 Z" id="Path_6508"></path>
                    <path d="M43.3102404,10.9198196 C43.4470752,12.932735 42.9201637,14.9349985 41.8102404,16.6198196 C40.7240205,17.9776851 39.0460198,18.7234632 37.3102404,18.6198196 C35.5901795,18.7580411 33.9107528,18.0489498 32.8102404,16.7198196 C31.6778363,15.0788343 31.1157009,13.1113602 31.2102404,11.1198196 L31.2102404,7.81981961 C31.2102404,5.31981961 31.7102404,3.41981961 32.8102404,2.11981961 C33.9098566,0.779427938 35.5784542,0.0378289986 37.3102404,0.119819611 C39.0268387,0.00269456195 40.6970234,0.707883624 41.8102404,2.01981961 C42.9426444,3.66080493 43.5047799,5.62827899 43.4102404,7.61981961 L43.4102404,10.9198196 L43.3102404,10.9198196 Z M39.7102404,7.31981961 C39.7840897,6.18724866 39.5780283,5.05391107 39.1102404,4.01981961 C38.7320457,3.3383863 37.9860614,2.94576297 37.2102404,3.01981961 C36.4394305,2.97018806 35.7057315,3.35634547 35.3102404,4.01981961 C34.8483499,4.9491261 34.6413055,5.98434805 34.7102404,7.01981961 L34.7102404,11.4198196 C34.6363911,12.5523906 34.8424525,13.6857281 35.3102404,14.7198196 C35.6747007,15.4257942 36.4165311,15.855275 37.2102404,15.8198196 C37.9860614,15.8938763 38.7320457,15.5012529 39.1102404,14.8198196 C39.5798641,13.8217755 39.7864096,12.7201999 39.7102404,11.6198196 L39.7102404,7.31981961 Z" id="Path_6509"></path>
                    <path d="M58.9102404,10.9198196 C59.0470752,12.932735 58.5201637,14.9349985 57.4102404,16.6198196 C56.3240205,17.9776851 54.6460198,18.7234632 52.9102404,18.6198196 C51.1901795,18.7580411 49.5107528,18.0489498 48.4102404,16.7198196 C47.2778363,15.0788343 46.7157009,13.1113602 46.8102404,11.1198196 L46.8102404,7.81981961 C46.8102404,5.31981961 47.3102404,3.41981961 48.4102404,2.11981961 C49.5098566,0.779427938 51.1784542,0.0378289986 52.9102404,0.119819611 C54.6268387,0.00269456195 56.2970234,0.707883624 57.4102404,2.01981961 C58.5426444,3.66080493 59.1047799,5.62827899 59.0102404,7.61981961 L59.0102404,10.9198196 L58.9102404,10.9198196 Z M55.3102404,7.31981961 C55.3840897,6.18724866 55.1780283,5.05391107 54.7102404,4.01981961 C54.3320457,3.3383863 53.5860614,2.94576297 52.8102404,3.01981961 C52.0394305,2.97018806 51.3057315,3.35634547 50.9102404,4.01981961 C50.4483499,4.9491261 50.2413055,5.98434805 50.3102404,7.01981961 L50.3102404,11.4198196 C50.2363911,12.5523906 50.4424525,13.6857281 50.9102404,14.7198196 C51.2747007,15.4257942 52.0165311,15.855275 52.8102404,15.8198196 C53.5860614,15.8938763 54.3320457,15.5012529 54.7102404,14.8198196 C55.1798641,13.8217755 55.3864096,12.7201999 55.3102404,11.6198196 L55.3102404,7.31981961 Z" id="Path_6510"></path>
                    <polygon id="Path_6511" points="69.5102404 12.1198196 62.5102404 12.1198196 62.5102404 9.21981961 69.5102404 9.21981961"></polygon>
                    <path d="M85.0102404,5.11981961 C85.055278,5.94502636 84.8073591,6.75961697 84.3102404,7.41981961 C83.8871519,8.12399121 83.2591591,8.68220705 82.5102404,9.01981961 C83.3503433,9.38738831 84.0758024,9.97466477 84.6102404,10.7198196 C85.1413352,11.4819428 85.4210333,12.3909617 85.4102404,13.3198196 C85.4994157,14.7668147 84.9075853,16.172412 83.8102404,17.1198196 C81.1006235,18.9865271 77.5198573,18.9865271 74.8102404,17.1198196 C73.7128955,16.172412 73.1210651,14.7668147 73.2102404,13.3198196 C73.1994475,12.3909617 73.4791456,11.4819428 74.0102404,10.7198196 C74.5446783,9.97466477 75.2701375,9.38738831 76.1102404,9.01981961 C75.3613217,8.68220705 74.7333288,8.12399121 74.3102404,7.41981961 C73.8837844,6.72575294 73.6427501,5.93378296 73.6102404,5.11981961 C73.552326,3.72771816 74.0992701,2.37858944 75.1102404,1.41981961 C76.284307,0.441477038 77.7839815,-0.058414456 79.3102404,0.0198196107 C80.834098,-0.0411345106 82.3277267,0.456741726 83.5102404,1.41981961 C84.5048978,2.38963193 85.0487576,3.73115273 85.0102404,5.11981961 L85.0102404,5.11981961 Z M81.8102404,13.2198196 C81.8565772,12.5159233 81.6021757,11.8254051 81.1102404,11.3198196 C80.6340573,10.8457633 79.9815877,10.5920251 79.3102404,10.6198196 C78.6330562,10.5535821 77.9647546,10.8134771 77.5102404,11.3198196 C77.0589106,11.8500649 76.8108022,12.5235019 76.8102404,13.2198196 C76.7639036,13.9237159 77.0183051,14.6142341 77.5102404,15.1198196 C78.0055764,15.6277834 78.7037448,15.8850033 79.4102404,15.8198196 C80.0874246,15.8860572 80.7557262,15.6261621 81.2102404,15.1198196 C81.5866073,14.5563124 81.794723,13.8972793 81.8102404,13.2198196 L81.8102404,13.2198196 Z M81.4102404,5.31981961 C81.4439696,4.69595388 81.228093,4.08430349 80.8102404,3.61981961 C79.8936283,2.81967413 78.5268525,2.81967413 77.6102404,3.61981961 C76.8101139,4.61193182 76.8101139,6.0277074 77.6102404,7.01981961 C78.022362,7.46643035 78.6025355,7.72025625 79.2102404,7.71981961 C79.8266199,7.76604444 80.4258594,7.50387718 80.8102404,7.01981961 C81.228093,6.55533573 81.4439696,5.94368534 81.4102404,5.31981961 L81.4102404,5.31981961 Z" id="Path_6512"></path>
                    <path d="M100.51024,5.11981961 C100.555278,5.94502636 100.307359,6.75961697 99.8102404,7.41981961 C99.3871519,8.12399121 98.7591591,8.68220705 98.0102404,9.01981961 C98.8503433,9.38738831 99.5758024,9.97466477 100.11024,10.7198196 C100.641335,11.4819428 100.921033,12.3909617 100.91024,13.3198196 C100.999416,14.7668147 100.407585,16.172412 99.3102404,17.1198196 C96.6006235,18.9865271 93.0198573,18.9865271 90.3102404,17.1198196 C89.2128955,16.172412 88.6210651,14.7668147 88.7102404,13.3198196 C88.6994475,12.3909617 88.9791456,11.4819428 89.5102404,10.7198196 C90.0446783,9.97466477 90.7701375,9.38738831 91.6102404,9.01981961 C90.8613217,8.68220705 90.2333288,8.12399121 89.8102404,7.41981961 C89.3837844,6.72575294 89.1427501,5.93378296 89.1102404,5.11981961 C89.052326,3.72771816 89.5992701,2.37858944 90.6102404,1.41981961 C91.784307,0.441477038 93.2839815,-0.058414456 94.8102404,0.0198196107 C96.334098,-0.0411345106 97.8277267,0.456741726 99.0102404,1.41981961 C100.004898,2.38963193 100.548758,3.73115273 100.51024,5.11981961 L100.51024,5.11981961 Z M97.3102404,13.2198196 C97.3565772,12.5159233 97.1021757,11.8254051 96.6102404,11.3198196 C96.1340573,10.8457633 95.4815877,10.5920251 94.8102404,10.6198196 C94.1330562,10.5535821 93.4647546,10.8134771 93.0102404,11.3198196 C92.0770865,12.4146226 92.0770865,14.0250167 93.0102404,15.1198196 C93.5055764,15.6277834 94.2037448,15.8850033 94.9102404,15.8198196 C95.5874246,15.8860572 96.2557262,15.6261621 96.7102404,15.1198196 C97.1296928,14.5779216 97.3424048,13.9043335 97.3102404,13.2198196 Z M97.0102404,5.31981961 C97.0439696,4.69595388 96.828093,4.08430349 96.4102404,3.61981961 C95.4936283,2.81967413 94.1268525,2.81967413 93.2102404,3.61981961 C92.4101139,4.61193182 92.4101139,6.0277074 93.2102404,7.01981961 C93.622362,7.46643035 94.2025355,7.72025625 94.8102404,7.71981961 C95.4266199,7.76604444 96.0258594,7.50387718 96.4102404,7.01981961 C96.828093,6.55533573 97.0439696,5.94368534 97.0102404,5.31981961 L97.0102404,5.31981961 Z" id="Path_6513"></path>
                    <path d="M104.91024,9.51981961 L105.91024,0.319819611 L116.01024,0.319819611 L116.01024,3.31981961 L108.81024,3.31981961 L108.41024,7.21981961 C109.234162,6.75593015 110.164717,6.51467527 111.11024,6.51981961 C112.618502,6.41077916 114.093251,7.00067861 115.11024,8.11981961 C116.164745,9.37424074 116.701192,10.9835798 116.61024,12.6198196 C116.651507,13.6965406 116.410173,14.7653051 115.91024,15.7198196 C115.424674,16.6056451 114.696066,17.3342536 113.81024,17.8198196 C112.828476,18.3530285 111.727425,18.6282914 110.61024,18.6198196 C109.566546,18.6497104 108.532927,18.4085327 107.61024,17.9198196 C106.70812,17.5133133 105.943732,16.8531601 105.41024,16.0198196 C104.904267,15.2020961 104.596096,14.2775824 104.51024,13.3198196 L108.01024,13.3198196 C108.044657,13.99822 108.329748,14.6396747 108.81024,15.1198196 C109.313676,15.5386353 109.956203,15.752811 110.61024,15.7198196 C111.350892,15.7401383 112.056771,15.4057743 112.51024,14.8198196 C112.991437,14.0766372 113.235545,13.2048224 113.21024,12.3198196 C113.238295,11.4500183 112.954565,10.5988281 112.41024,9.91981961 C111.848397,9.37829528 111.089977,9.0893735 110.31024,9.11981961 C109.546205,9.07393231 108.793937,9.32468833 108.21024,9.81981961 L107.91024,10.1198196 L104.91024,9.51981961 Z" id="Path_6514"></path>
                    <polygon id="Path_6515" points="127.11024 12.1198196 120.11024 12.1198196 120.11024 9.21981961 127.11024 9.21981961"></polygon>
                    <path d="M143.21024,18.4198196 L130.81024,18.4198196 L130.81024,15.9198196 L136.61024,9.71981961 C137.285068,9.01477561 137.88804,8.24431085 138.41024,7.41981961 C138.77528,6.85094123 138.982365,6.19517105 139.01024,5.51981961 C139.042405,4.83530577 138.829693,4.16171761 138.41024,3.61981961 C137.984893,3.1325381 137.355377,2.8733257 136.71024,2.91981961 C135.992778,2.90842221 135.303467,3.1986583 134.81024,3.71981961 C134.299459,4.33409277 134.048339,5.12332928 134.11024,5.91981961 L130.51024,5.91981961 C130.514097,4.86761103 130.789663,3.83423599 131.31024,2.91981961 C131.834063,2.02888915 132.595922,1.30165936 133.51024,0.819819611 C134.523458,0.274633428 135.659844,-0.000854104128 136.81024,0.0198196107 C138.35622,-0.104560452 139.892109,0.359778046 141.11024,1.31981961 C142.139615,2.30770607 142.687302,3.69518204 142.61024,5.11981961 C142.615385,6.06534302 142.37413,6.99589756 141.91024,7.81981961 C141.234373,8.97417665 140.42918,10.0477673 139.51024,11.0198196 L135.41024,15.3198196 L143.21024,15.3198196 L143.21024,18.4198196 L143.21024,18.4198196 Z" id="Path_6516"></path>
                    <path d="M158.81024,18.4198196 L146.41024,18.4198196 L146.41024,15.9198196 L152.21024,9.71981961 C152.885068,9.01477561 153.48804,8.24431085 154.01024,7.41981961 C154.37528,6.85094123 154.582365,6.19517105 154.61024,5.51981961 C154.642405,4.83530577 154.429693,4.16171761 154.01024,3.61981961 C153.584893,3.1325381 152.955377,2.8733257 152.31024,2.91981961 C151.592778,2.90842221 150.903467,3.1986583 150.41024,3.71981961 C149.899459,4.33409277 149.648339,5.12332928 149.71024,5.91981961 L146.11024,5.91981961 C146.114097,4.86761103 146.389663,3.83423599 146.91024,2.91981961 C147.434063,2.02888915 148.195922,1.30165936 149.11024,0.819819611 C150.123458,0.274633428 151.259844,-0.000854104128 152.41024,0.0198196107 C153.95622,-0.104560452 155.492109,0.359778046 156.71024,1.31981961 C157.739615,2.30770607 158.287302,3.69518204 158.21024,5.11981961 C158.215385,6.06534302 157.97413,6.99589756 157.51024,7.81981961 C156.834373,8.97417665 156.02918,10.0477673 155.11024,11.0198196 L151.01024,15.3198196 L158.81024,15.3198196 L158.81024,18.4198196 L158.81024,18.4198196 Z" id="Path_6517"></path>
                </g>
                <g id="Group_845" transform="translate(187.500000, 0.912661)" fill-rule="nonzero">
                    <path d="M12.7,18.4198196 L0.3,18.4198196 L0.3,15.9198196 L6.1,9.71981961 C6.7748273,9.01477561 7.37779972,8.24431085 7.9,7.41981961 C8.26503968,6.85094123 8.472125,6.19517105 8.5,5.51981961 C8.53216444,4.83530577 8.31945239,4.16171761 7.9,3.61981961 C7.47465286,3.1325381 6.84513703,2.8733257 6.2,2.91981961 C5.48253774,2.90842221 4.79322702,3.1986583 4.3,3.71981961 C3.78921908,4.33409277 3.53809838,5.12332928 3.6,5.91981961 L0,5.91981961 C0.00385629703,4.86761103 0.279422974,3.83423599 0.8,2.91981961 C1.32382227,2.02888915 2.08568206,1.30165936 3,0.819819611 C4.01321789,0.274633428 5.14960396,-0.000854104128 6.3,0.0198196107 C7.84597976,-0.104560452 9.38186864,0.359778046 10.6,1.31981961 C11.6293741,2.30770607 12.177062,3.69518204 12.1,5.11981961 C12.1051443,6.06534302 11.8638895,6.99589756 11.4,7.81981961 C10.724133,8.97417665 9.91893999,10.0477673 9,11.0198196 L4.9,15.3198196 L12.7,15.3198196 L12.7,18.4198196 L12.7,18.4198196 Z" id="Path_6518"></path>
                </g>
            </g>
        </g>
    </g>
</svg>