<?xml version="1.0" encoding="UTF-8"?>
<svg width="28px" height="28px" viewBox="0 0 28 28" version="1.1" xmlns="http://www.w3.org/2000/svg" xmlns:xlink="http://www.w3.org/1999/xlink">
    <title>Media/Youtube/Hover</title>
    <g id="Media/Youtube/Hover" stroke="none" stroke-width="1" fill="none" fill-rule="evenodd">
        <rect id="Rectangle" x="0" y="0" width="28" height="28"></rect>
        <rect id="Rectangle" x="0" y="0" width="28" height="28"></rect>
        <circle id="Oval" fill="#21505B" opacity="0" cx="14" cy="14" r="13"></circle>
        <g id="youtube" transform="translate(6.000000, 8.001509)" fill="#FFFFFF">
            <path d="M8.6841306,-0.00106207976 C8.71375557,-0.00095028189 8.74668487,-0.000810534554 8.78271909,-0.000635850383 L9.03458833,0.000887395589 C10.4166218,0.0108164439 14.0745083,0.0618801207 15.1451092,0.324493316 C15.8854967,0.534913905 16.4572948,1.12707395 16.6441222,1.87688659 C16.8892435,3.24198221 17.0082284,4.62691636 16.9995583,6.01401466 C17.0044464,7.38038019 16.8854766,8.744355 16.6441222,10.089047 C16.4572948,10.8388596 15.8854967,11.4310197 15.1451092,11.6414403 C13.9637565,11.9588185 9.63212972,11.9940827 8.6841306,11.9980009 L8.3158694,11.9980009 C7.36787028,11.9940827 3.03624353,11.9588185 1.85489079,11.6414403 C1.13013643,11.4422337 0.561683226,10.8770855 0.355877777,10.1511427 C0.110756456,8.78604711 -0.00822839238,7.40111297 0.000441702457,6.01401466 C-0.00633018368,4.63728226 0.11264712,3.26282877 0.355877777,1.90793445 C0.542705189,1.15812181 1.11450334,0.56596177 1.85489079,0.355541182 C3.03624353,0.0381630013 7.36787028,0.00289875904 8.3158694,-0.0010194901 Z M6.61111111,3.69079842 L6.61111111,8.30618304 L10.3888889,5.99849073 L6.61111111,3.69079842 Z" id="Combined-Shape"></path>
        </g>
    </g>
</svg>