<?xml version="1.0" encoding="utf-8"?>
<!-- Generator: Adobe Illustrator 25.0.1, SVG Export Plug-In . SVG Version: 6.00 Build 0)  -->
<svg version="1.1" id="圖層_1" xmlns="http://www.w3.org/2000/svg" xmlns:xlink="http://www.w3.org/1999/xlink" x="0px" y="0px"
	 viewBox="0 0 38 38" style="enable-background:new 0 0 38 38;" xml:space="preserve">
<style type="text/css">
	.st0{fill:#FFFFFF;}
</style>
<desc>Created with Sketch.</desc>
<path class="st0" d="M19,38C8.52,38,0,29.48,0,19S8.52,0,19,0s19,8.52,19,19S29.48,38,19,38z M19,2C9.63,2,2,9.63,2,19
	s7.63,17,17,17s17-7.63,17-17S28.37,2,19,2z"/>
<path class="st0" d="M19.48,15.78c-0.16-0.02-0.32-0.03-0.48-0.03c-0.16,0-0.32,0.01-0.48,0.04c-1.78,0.27-3,1.93-2.74,3.7
	c0.26,1.77,1.92,3,3.7,2.74c1.78-0.27,3-1.93,2.74-3.7C22.01,17.09,20.9,15.99,19.48,15.78z"/>
<path class="st0" d="M22.59,10.15h-7.18c-2.91,0-5.26,2.36-5.26,5.26v7.18c0,2.91,2.36,5.26,5.26,5.26h7.18
	c2.91,0,5.26-2.36,5.26-5.26v-7.18C27.85,12.5,25.5,10.15,22.59,10.15z M19.68,23.21c-0.21,0.03-0.43,0.05-0.64,0.05
	c-2.09,0-3.93-1.53-4.25-3.66c-0.35-2.34,1.27-4.53,3.61-4.88c0.42-0.06,0.85-0.06,1.26,0c1.88,0.28,3.34,1.73,3.62,3.62
	C23.64,20.67,22.02,22.86,19.68,23.21z M24.2,14.61c-0.44,0-0.8-0.36-0.8-0.8s0.35-0.8,0.8-0.8h0.01c0.44,0,0.8,0.36,0.8,0.8
	S24.64,14.61,24.2,14.61z"/>
</svg>
