<?xml version="1.0" encoding="utf-8"?>
<!-- Generator: Adobe Illustrator 25.0.1, SVG Export Plug-In . SVG Version: 6.00 Build 0)  -->
<svg version="1.1" id="圖層_1" xmlns="http://www.w3.org/2000/svg" xmlns:xlink="http://www.w3.org/1999/xlink" x="0px" y="0px"
	 viewBox="0 0 44 44" style="enable-background:new 0 0 44 44;" xml:space="preserve">
<style type="text/css">
	.st0{fill:#FFFFFF;}
</style>
<path id="medium" class="st0" d="M30.97,15.54l1.7-1.63v-0.36h-5.9l-4.2,10.47l-4.78-10.47H11.6v0.36l1.99,2.4
	c0.2,0.18,0.3,0.44,0.27,0.7v9.42c0.06,0.34-0.05,0.69-0.29,0.93l-2.24,2.71v0.35h6.36v-0.36l-2.24-2.71
	c-0.24-0.25-0.36-0.59-0.31-0.93v-8.15l5.58,12.15h0.65l4.8-12.15v9.68c0,0.25,0,0.31-0.17,0.47l-1.73,1.67v0.35h8.37v-0.36
	l-1.66-1.63c-0.15-0.11-0.22-0.29-0.19-0.48V16.01C30.76,15.83,30.83,15.65,30.97,15.54L30.97,15.54z"/>
</svg>
