<?xml version="1.0" encoding="utf-8"?>
<!-- Generator: Adobe Illustrator 25.0.1, SVG Export Plug-In . SVG Version: 6.00 Build 0)  -->
<svg version="1.1" id="圖層_1" xmlns="http://www.w3.org/2000/svg" xmlns:xlink="http://www.w3.org/1999/xlink" x="0px" y="0px"
	 viewBox="0 0 44 44" style="enable-background:new 0 0 44 44;" xml:space="preserve">
<style type="text/css">
	.st0{fill:#495867;}
</style>
<path class="st0" d="M33.76,15.92c-0.27-1.08-1.1-1.93-2.17-2.23c-1.92-0.47-9.6-0.47-9.6-0.47s-7.68,0-9.6,0.51
	c-1.07,0.3-1.89,1.15-2.16,2.23c-0.35,1.95-0.52,3.92-0.51,5.9c-0.01,2,0.16,3.99,0.51,5.95c0.3,1.04,1.12,1.85,2.16,2.14
	c1.92,0.51,9.6,0.51,9.6,0.51s7.68,0,9.6-0.51c1.07-0.3,1.9-1.15,2.17-2.23c0.35-1.93,0.52-3.89,0.51-5.86
	C34.29,19.87,34.12,17.88,33.76,15.92z M19.49,25.51v-7.3l6.42,3.65L19.49,25.51z"/>
</svg>
