<?xml version="1.0" encoding="utf-8"?>
<!-- Generator: Adobe Illustrator 25.0.1, SVG Export Plug-In . SVG Version: 6.00 Build 0)  -->
<svg version="1.1" id="圖層_1" xmlns="http://www.w3.org/2000/svg" xmlns:xlink="http://www.w3.org/1999/xlink" x="0px" y="0px"
	 viewBox="0 0 44 44" style="enable-background:new 0 0 44 44;" xml:space="preserve">
<style type="text/css">
	.st0{fill:#495867;}
</style>
<g id="dribbble-logo" transform="translate(1154.889 1979.841)">
	<path id="Path_329" class="st0" d="M-1132.91-1970.36c-6.96,0.01-12.59,5.66-12.58,12.61s5.66,12.59,12.61,12.58
		c6.95-0.01,12.58-5.65,12.58-12.59C-1120.31-1964.73-1125.95-1970.36-1132.91-1970.36z M-1124.61-1964.42
		c1.49,1.84,2.32,4.12,2.35,6.49c-1.62-0.31-3.27-0.47-4.93-0.48c-0.81,0-1.62,0.04-2.43,0.14c-0.07-0.17-0.14-0.34-0.21-0.51
		c-0.21-0.5-0.44-1-0.68-1.49C-1128.22-1961.13-1126.19-1962.56-1124.61-1964.42L-1124.61-1964.42z M-1132.91-1968.39
		c2.58,0,5.08,0.94,7.02,2.64c-1.45,1.75-3.35,3.05-5.5,3.78c-1.17-2.13-2.48-4.18-3.92-6.15
		C-1134.52-1968.3-1133.71-1968.39-1132.91-1968.39z M-1137.48-1967.36c1.41,1.95,2.71,3.98,3.9,6.07
		c-3.15,0.81-6.38,1.24-9.64,1.28h-0.1C-1142.61-1963.23-1140.46-1965.94-1137.48-1967.36z M-1143.56-1957.75c0-0.09,0-0.17,0-0.26
		h0.28c3.6-0.02,7.18-0.53,10.65-1.51c0.29,0.56,0.56,1.13,0.81,1.7c-0.12,0.03-0.24,0.07-0.35,0.11c-3.61,1.29-6.67,3.77-8.7,7.02
		C-1142.61-1952.64-1143.56-1955.15-1143.56-1957.75z M-1132.91-1947.11c-2.35,0-4.64-0.78-6.5-2.21c1.86-3.17,4.84-5.52,8.35-6.61
		h0.01c1,2.59,1.75,5.27,2.25,8C-1130.09-1947.39-1131.49-1947.11-1132.91-1947.11z M-1126.87-1948.99
		c-0.47-2.54-1.16-5.04-2.04-7.47c0.71-0.11,1.43-0.16,2.14-0.16c1.48,0,2.95,0.2,4.37,0.61
		C-1122.88-1953.16-1124.49-1950.62-1126.87-1948.99z"/>
</g>
</svg>
