<?xml version="1.0" encoding="utf-8"?>
<!-- Generator: Adobe Illustrator 25.0.1, SVG Export Plug-In . SVG Version: 6.00 Build 0)  -->
<svg version="1.1" id="圖層_1" xmlns="http://www.w3.org/2000/svg" xmlns:xlink="http://www.w3.org/1999/xlink" x="0px" y="0px"
	 viewBox="0 0 248 56.3" style="enable-background:new 0 0 248 56.3;" xml:space="preserve">
<style type="text/css">
	.st0{fill:#FFFFFF;}
	.st1{opacity:0.3;fill:#FFFFFF;enable-background:new    ;}
	.st2{opacity:0.5;fill:#FFFFFF;enable-background:new    ;}
</style>
<g>
	<g>
		<path class="st0" d="M19,33.2c-0.8-2.5-2.2-4.7-4.1-6.3c-0.6-0.4-1.2-0.9-1.9-1.4c-0.3-0.2-0.5-0.4-0.8-0.6c0,0,0,0,0,0
			c-0.2-0.2-0.4-0.3-0.7-0.5c0,0,0,0,0,0c-0.1,0-0.1-0.1-0.2-0.1c-0.3-0.2-0.5-0.4-0.8-0.6c-0.1-0.1-0.3-0.2-0.4-0.3
			c-0.2-0.1-0.4-0.3-0.6-0.4c-3.1-2.3-5.4-4.2-6.5-5.8L0.7,24l-0.3,0.8l0,0L0,26v0c0,0.1,0,0.3,0.1,0.5c0.5,1.5,3.2,3.9,9,8
			c0.1,0.1,0.2,0.2,0.3,0.2c0.2,0.2,0.4,0.3,0.6,0.4c0.2,0.2,0.4,0.3,0.6,0.4c3.9,2.8,6.5,4.9,7.8,6.7c0,0,0,0.1,0.1,0.1
			C19.7,39.6,20,36.4,19,33.2z"/>
		<path class="st0" d="M17.8,44.2c-0.4-1.4-2.9-3.8-7.5-7.1c0,0.1-0.1,0.2-0.1,0.3C7.8,44.7,7.1,48.5,8,49.6
			c0.1,0.1,0.3,0.1,0.4,0.1C10.2,49.7,14.1,47,17.8,44.2z"/>
		<path class="st0" d="M11.7,22.9c1.5-0.6,3.3-5.8,4.4-9.6H15c-7.5,0-11.1,0.5-11.8,1.7C2.9,16.7,8.6,20.8,11.7,22.9z"/>
		<path class="st0" d="M30,10.4c0.8,1.3,3.5,4,7.9,4c1.1,0,2.2-0.2,3.3-0.5c-0.2-0.6-0.4-1.2-0.6-1.8l-0.3-0.9
			C38.5,5.8,36.5,0.3,34.8,0C33.1,0.3,31.1,6.6,30,10.4z"/>
		<path class="st0" d="M40.1,44.6c0,0-0.1,0-0.2,0c-1.8,0-5.2,2.3-9,5.2c0.1,0.1,0.2,0.2,0.4,0.3c5.5,4.1,8.9,6,10.5,6
			c0.2,0,0.4,0,0.6-0.1C43.5,54.7,41.4,48.2,40.1,44.6z"/>
		<path class="st0" d="M18.6,44.4L18.6,44.4L18.6,44.4z"/>
		<path class="st0" d="M45.4,25.8C45.4,25.9,45.4,25.9,45.4,25.8C45.4,25.9,45.4,25.9,45.4,25.8C45.4,25.9,45.4,25.8,45.4,25.8z"/>
		<path class="st0" d="M49,36.8c-2-5.4-2.4-7-3.2-9.6c-0.1-0.5-0.2-0.7-0.4-1.3c0,0,0,0,0,0c-2,1.7-3.5,3.8-4.4,6.3
			c-0.6,1.4-1,3.1-1,5.2c0,0.1,0,0.2,0,0.2c0,0.1,0,0.2,0,0.2c0,0,0,0.1,0,0.1c0,2.2,0.6,4.3,1.5,6.2c0.1,0.2,0.2,0.5,0.2,0.7
			c0.1,0.4,0.3,0.8,0.4,1.2c1.3,3.8,2,6.7,2,8.6l4.4-3.3l1.3-1l0.8-0.6l1-0.8c0,0,0,0,0,0C52.7,47.7,50.9,42.1,49,36.8z"/>
		<path class="st1" d="M20.8,43.7c0.6-0.5,1.3-1,1.8-1.4C21.9,42.7,21.3,43.2,20.8,43.7z"/>
		<path class="st0" d="M29.8,40.2c-2.7,0-5.1,0.8-7.2,2.1c-0.6,0.4-1.2,0.9-1.8,1.4c-0.3,0.2-0.5,0.4-0.8,0.6c0,0,0,0,0,0
			c-0.2,0.2-0.4,0.3-0.7,0.5l0,0c-0.1,0-0.1,0.1-0.2,0.2c-0.3,0.2-0.5,0.4-0.8,0.6c-0.1,0.1-0.3,0.2-0.4,0.3
			c-0.2,0.1-0.4,0.3-0.5,0.4c-3.1,2.3-5.6,4-7.5,4.5l5.8,4.1l0.8,0.5l0,0l1,0.7h0c0.1,0,0.2,0.1,0.5,0.1c1.6,0,4.7-1.9,10.3-6.3
			c0.1-0.1,0.2-0.2,0.3-0.2c0.2-0.2,0.4-0.3,0.6-0.5c0.2-0.2,0.4-0.3,0.6-0.5c3.8-2.9,6.6-4.8,8.7-5.5c0,0,0.1,0,0.1,0
			C36.2,41.4,33.1,40.2,29.8,40.2z"/>
		<path class="st1" d="M19.2,40.2c0.1-0.3,0.2-0.7,0.3-1L19.2,40.2z"/>
		<path class="st1" d="M27.8,12.7c-0.1,0.4-0.2,0.7-0.3,1.1C27.6,13.5,27.7,13.1,27.8,12.7z"/>
		<path class="st0" d="M25.5,0.1l-1,0l0,0l-1.3,0c0,0,0,0,0,0c-1.3,0.2-2.9,3.7-5.1,11.4c0,0.1-0.1,0.3-0.1,0.4
			c-0.1,0.2-0.1,0.5-0.2,0.7c-0.1,0.2-0.1,0.5-0.2,0.7c-1.4,4.6-2.6,7.8-3.8,9.6c0.2,0,0.4,0,0.7,0l0.6,0c5.8-0.2,10.6-3.9,12.4-9.1
			c0.1-0.4,0.2-0.7,0.3-1.1c0.1-0.4,0.3-0.9,0.4-1.3c0,0,0,0,0,0c0.1-0.3,0.2-0.6,0.3-0.9l0,0l0,0c0-0.1,0.1-0.2,0.1-0.3
			c0.1-0.3,0.2-0.6,0.2-0.9C28.9,9,29,8.8,29,8.5c0-0.1,0.1-0.2,0.1-0.3c1.2-3.9,2.3-6.6,3.5-8.2L25.5,0.1z"/>
		<path class="st0" d="M30.8,13.4l0,0.1C30.9,13.5,30.9,13.5,30.8,13.4C30.9,13.5,30.9,13.4,30.8,13.4z"/>
		<path class="st2" d="M45.9,22.7c-0.4,0.1-0.9,0.2-1.4,0.3C45,22.9,45.5,22.8,45.9,22.7L45.9,22.7C45.9,22.7,45.9,22.7,45.9,22.7z"
			/>
		<path class="st0" d="M54,13.5c-0.8-0.1-1.5-0.1-2.2-0.1c-3.1,0-5.8,0.6-7.9,1.2c-0.3,0.1-0.6,0.2-0.9,0.3
			c-0.2,0.1-0.4,0.1-0.7,0.2c0,0,0,0,0,0c0,0-0.1,0-0.2,0.1c-0.2,0.1-0.4,0.1-0.5,0.2c-1.3,0.4-2.5,0.6-3.7,0.6
			c-1.7,0-3.2-0.4-4.5-0.9c-0.8-0.3-1.4-0.7-2-1.1c-0.2-0.1-0.3-0.2-0.5-0.3c0,0,0,0.1,0,0.1c0.9,5.1,5.1,9.1,10.3,9.6
			c0.4,0,0.8,0.1,1.2,0.1c0.7,0,1.4-0.1,2.1-0.2c0.5-0.1,0.9-0.2,1.4-0.3c0,0,0,0,0,0l0,0c1.4-0.3,2.5-0.4,3.9-0.4
			c1.5,0.1,3.3,0.4,5.9,1.1l6.3-8.2C59.2,14.2,56.5,13.7,54,13.5z"/>
	</g>
	<g>
		<g>
			<path class="st0" d="M69.4,25.6l-1.6,9.2l-2-1.3c0,0,1.4-7.5,1.5-8.1L69.4,25.6z M76.8,23.4c0,0-0.8-0.1-0.8,0.7
				c0,0.5,0,12.6,0,12.6v0.7c0,0.9-0.2,1.6-0.6,2.1c-0.4,0.5-1.1,0.7-2.2,0.7h-1.6l-0.5-2.7l1.6,0.1c0.7,0,1-0.3,1-0.9l0-12.8
				c0,0,0.1-0.5-0.5-0.5c-0.5,0-0.5,0.5-0.5,0.5c0,0.6,0,0.6,0,1c0,0.2,0,0.4,0,0.6c0,3.9-0.3,6.8-0.9,8.9c-0.6,2.1-1.8,4.3-3.5,6.4
				l-2.1-1.6c1.6-1.8,2.7-3.7,3.3-5.6s0.9-5.3,0.9-9.2c0-1.1-0.8-1-0.8-1h-3.3v-2.5H71c0,0,0.7,0.1,0.7-0.8c0-0.2,0-0.5,0-0.8
				c0-0.8-0.8-0.8-0.8-0.8h-3.9v-2.4h4.1c0,0,0.7,0,0.7-0.7c0-0.7,0-1.9,0-1.9h2.6v2.1c0,0-0.1,0.6,0.6,0.6s2.3,0,2.3,0
				s1.4-0.1,1.4,1.3c0,1.3-1.4,1.2-1.4,1.2h-2c0,0-0.7-0.1-0.8,0.8v1c0,0,0,0.6,0.7,0.6s2.4,0,2.4,0s1.3-0.1,1.3,1.2
				c0,1.2-1.3,1.3-1.3,1.3L76.8,23.4L76.8,23.4z M79.2,30.5l-2.1,0.6l-1-5.1l2-0.5L79.2,30.5z M82.3,26.2L81,35.7l-2.2-1.7l1.2-8.1
				L82.3,26.2z M89.9,23.4c-0.7,0-0.6,0.7-0.6,0.7l0,13v0.7c0,0.9-0.2,1.6-0.6,2.1c-0.4,0.5-1.2,0.7-2.2,0.7h-1.6L84.2,38l1.7,0.1
				c0.7,0,1-0.3,1-0.9V23.9c0,0,0-0.5-0.7-0.5c-0.7,0-0.6,0.5-0.6,0.5c0,0.6,0,0.6,0,1c0,0.2,0,0.4,0,0.6c0,3.9-0.3,6.8-0.9,8.9
				c-0.6,2.1-1.8,4.3-3.7,6.6l-2.1-1.6c1.7-1.8,2.8-3.7,3.4-5.7c0.6-2,0.9-8.3,0.9-9.5c0-0.9-0.8-0.8-0.8-0.8h-2.6v-2.5h3.8
				c0,0,0.8,0.1,0.8-0.7c0-0.2,0-0.5,0-0.9c0-0.9-0.9-0.9-0.9-0.9h-3.3v-2.4c0,0,2.9,0,3.6,0s0.7-0.7,0.7-0.7v-2h2.6v2
				c0,0,0,0.6,0.6,0.6c0.7,0,3.5,0,3.5,0s1.1,0,1.1,1.2c0,1.3-1.1,1.3-1.1,1.3h-3.3c0,0-0.6-0.1-0.6,0.6c0,0.3,0,0.8,0,1.1
				c0,0.7,0.8,0.6,0.8,0.6h3.8c0,0,1.2-0.1,1.2,1.2c0,1.2-1.2,1.3-1.2,1.3S90.3,23.4,89.9,23.4z M90.8,36.8L90,26.4l2.3-0.4
				l1.1,10.1L90.8,36.8z"/>
		</g>
		<g>
			<polygon class="st0" points="100.3,33.5 99.1,40.8 96.6,40.8 97.9,33.2 			"/>
			<path class="st0" d="M105.7,17.7l2.2,1l-6.1,9.8c0,0-0.6,0.8,0.1,0.8c1.1-0.1,3.7-0.4,3.6-0.5c-0.1-0.2-0.8-2.2-0.8-2.2l2-0.6
				l2.2,5.4l-2.2,0.8l-0.5-1.1l-7.4,0.8c0,0-1.9,0.2-1-1.3l4.4-6.8l-3.5,0.4c0,0-1.9,0.2-1.4-1.2c0-0.1,4.3-9.4,4.3-9.4l2.5,0.7
				l-3.3,6.8c0,0-0.3,0.7,0.4,0.6c0.7-0.1,2.4-0.3,2.4-0.3"/>
			<polygon class="st0" points="101.7,40.2 101.3,33.3 103.6,33 104.2,39.9 			"/>
			<polygon class="st0" points="105.6,38.1 104.9,32.7 107,32.3 107.8,37.5 			"/>
			<path class="st0" d="M108,16.4V14h14.8c0,0,1.5,0,1.5,1.1c0,1.4-1.5,1.3-1.5,1.3H108z"/>
			<path class="st0" d="M113.8,30c-0.7,0-5.1,0-5.1,0v-2.6h5.4c0,0,0.6,0,0.6-0.6c0-0.6,0-2,0-2h2.7V27c0,0,0,0.5,0.4,0.5
				s5.2,0,5.2,0s1.3-0.1,1.3,1.3c0,1.3-1.3,1.3-1.3,1.3s-4,0-4.8,0c-0.8,0-0.3,0.6-0.3,0.6l6.3,10.3h-3.6l-3.3-6.3v6.5h-2.7v-6.5
				l-4.8,6.4h-3.1l7.2-10.2C114.2,30.5,114.5,30,113.8,30z"/>
			<polygon class="st0" points="110.2,25.3 108.5,19.9 111,19.2 112.9,24.6 			"/>
			<polygon class="st0" points="114.8,23.9 114.2,18.8 116.8,18.5 117.6,23.6 			"/>
			<polygon class="st0" points="123.8,19 121.2,25.5 118.6,24.2 121.3,18.1 			"/>
		</g>
		<g>
			<path class="st0" d="M131.3,16.8c0,0,1.4,0.1,0.6-1.2l-0.9-1.9l2.7-0.4l0.8,1.8c0,0,0.7,1.6,1.8,1.6c1.1,0,1.3,0,1.3,0
				s1.5-0.1,1.5,1.2c0,1.4-1.5,1.3-1.5,1.3h-10v-2.6H131.3z M128.4,21.3h8.1c0,0,1.5,0,1.5,1.2c0,1.3-1.5,1.2-1.5,1.2h-8.1V21.3z
				 M128.4,25.7h8.1c0,0,1.5-0.1,1.5,1.3c0,1.3-1.5,1.2-1.5,1.2h-8.1V25.7z M128.5,30.4h8c0,0,1.6-0.2,1.6,1.7c0,2.5,0,8.8,0,8.8
				h-2.7v-1.4h-4.1v1.7h-2.7L128.5,30.4L128.5,30.4z M135.4,32.8h-4.1V37h4.1V32.8z M151.7,16c0,2.1,0,4.7,0,4.7
				c0,0.7,0.1,1.1,0.3,1.3c0.2,0.2,0.6,0.3,1.1,0.3h0.5c0,0,1.4,0,1.4,1.2s-1.4,1.3-1.4,1.3h-1.5c-1.1,0-1.9-0.2-2.4-0.7
				c-0.5-0.5-0.8-1.4-0.8-2.8v-4.5h-4.2v1c0,1.6-0.3,3-0.8,4.1c-0.5,1.1-1.7,2.4-3.4,4l-2.2-2c1.6-1.2,2.5-2.3,3-3.2
				c0.4-1,0.7-2.5,0.7-4.8v-1.6h8.1C150,14.2,151.7,14,151.7,16z M153.3,28.6c0,2.1-0.1,4.4-1.1,6.2c-1.3,2.2-2.6,3.1-2.6,3.1
				c1.4,0.5,3.8,0.6,3.8,0.6s1.4-0.1,1.4,1.3c0,1.3-1.5,1.3-1.5,1.3s-3.7,0.1-6.5-1.4c-2.1,1.3-7.8,1.3-7.8,1.3v-2.7
				c0,0,2.5,0.3,4.9-0.5c0,0-1.3-1.4-2.1-3c-0.9-1.9-1.2-4.5-1.2-4.5h2.7c0,0,0.1,1.8,0.4,2.8c0.4,1,1.3,2.8,3.1,3.7
				c0,0,1.9-1.1,2.7-2.8c0.9-1.8,0.6-4.9,0.6-4.9h-10.6v-2.5h11.1C150.7,26.4,153.3,26.1,153.3,28.6z"/>
		</g>
		<g>
			<path class="st0" d="M171.6,18.2c0,1.2-1.3,1.3-1.3,1.3h-12v-2.6h4.2c0,0,1.3,0.1,0.9-0.7c-0.4-0.7-1.2-2.4-1.2-2.4l2.9-0.4
				l1.3,2.7c0.4,0.9,1.3,0.8,1.3,0.8h2.7C170.3,16.9,171.6,16.9,171.6,18.2z M159.2,21.4h10.2c0,0,1.2-0.1,1.2,1.2s-1.2,1.2-1.2,1.2
				h-10.2V21.4z M159.2,25.8h10.1c0,0,1.4,0,1.4,1.2c0,1.2-1.4,1.2-1.4,1.2h-10.1V25.8z M159.3,30.5h9.4c0,0,1.8-0.2,1.8,1.8
				c0,1.7,0,8.5,0,8.5h-2.9v-1.3h-5.4v1.6h-2.9L159.3,30.5L159.3,30.5z M167.6,32.9h-5.4v4.3h5.4V32.9z M180.5,13.4V21c0,0,0,1,1,1
				c0.8,0,3.2,0,3.2,0s1.4-0.1,1.4,1.3c0,1.5-1.4,1.4-1.4,1.4s-2.2,0-3.3,0c-1.1,0-0.9,1.1-0.9,1.1v15.3h-3c0,0,0-14.4,0-15.5
				c0-1.1-1-0.9-1-0.9H172V22c0,0,3.5,0,4.7,0c1,0,0.9-1,0.9-1v-7.6L180.5,13.4L180.5,13.4z"/>
		</g>
		<g>
			<path class="st0" d="M209.6,29.4c0,0,1.7-0.1,1.8,1.2c0.1,1.5-1.8,1.9-1.8,1.9l-4.9,1.6h10.5c0,0,1.7-0.2,1.7,1.1
				c0,1.3-1.7,1.2-1.7,1.2h-10.5v1.2v0.6c0,1.7-0.9,2.5-2.7,2.5h-4.7v-2.4l3.7,0.1c0.6,0,0.9-0.3,0.9-0.9v-1.2h-12.8v-2.4H202
				c0,0,0.1-0.7,0.5-1c0.4-0.3,0.6-0.5,1.8-0.8l2.9-0.8h-12.4v-2.2C194.7,29.4,209.6,29.4,209.6,29.4z M213.7,28.1h-21.3v4.3h-2.6
				c0,0,0-3.9,0-5.5c0-1.4,1.3-1.2,1.3-1.2V14.5l6.3-0.9l1.3,2.2l-5.1,0.8v1.5h4.5v2h-4.5v1.7h4.5v2h-4.5v2h18.7v-2h-4.2v-2.1h4.2
				v-1.7h-4.2v-2h4.2v-1.6h-4.6v-2.4h5.4c0,0,1.7-0.1,1.7,1.9c0,2,0,9.7,0,9.7s1.4-0.2,1.4,1.5c0,1.6,0,5.2,0,5.2h-2.6L213.7,28.1
				L213.7,28.1z M203.5,17.5l-3.2,2l-1.5-2l2.9-1.5l-1.6-1.5l1.6-1.4l2,1.9l2-1.4l1.4,1.5l-1.8,1.2l1.7,1.6l-1.8,1.2L203.5,17.5z
				 M203.6,23.6l-3.1,1.8l-1.2-1.9l2.7-1.5l-1.6-1.5l1.8-1.2l1.6,1.7l2.3-1.6l1.3,1.6l-1.9,1.2L207,24l-1.7,1.4L203.6,23.6z"/>
		</g>
		<g>
			<path class="st0" d="M228.7,16.4c0,0-1.4,5.6-1.6,6.4c-0.2,0.9,0.2,2,0.2,2l1.8,5.6c0,0,1.1,3-2,3.8l-3.6,0.2v-2.8c0,0,2,0,2.1,0
				c1.2-0.1,0.8-1.3,0.8-1.3l-1.9-5.2c0,0-0.6-1.1-0.2-2.4c0.2-0.8,1.5-5.8,1.5-5.8h-3.1v24.1h-2.8V14.5c0,0,5.1,0,7,0
				C229.2,14.5,228.7,16.4,228.7,16.4z M232.5,29.6c-1.4,0-2.9,0-2.9,0V27h15.8c0,0,1.5-0.1,1.5,1.4c-0.1,1.3-1.5,1.3-1.5,1.3h-3.2
				c0,0-1.1,0-1.1,1.3c0,1.5,0,6.3,0,6.3c0,0.7,0.4,1,1.1,1h4.6c0,0,1.1,0,1.2,1.2c0,1.3-1.2,1.2-1.2,1.2h-5.4c-1,0-1.8-0.2-2.3-0.7
				c-0.5-0.5-0.8-1.4-0.8-2.8v-6.4c0,0,0.1-1.2-1.1-1.2c-1,0-1,1.1-1,1.2c-0.2,2.6-0.6,4.3-1.7,6.1c-1.2,1.7-3.1,3.1-5.7,4.3
				l-1.8-2.5c2.4-0.8,4.1-1.9,5.1-3.2c0.8-1.2,1.3-2.7,1.4-4.6C233.5,30.9,233.7,29.6,232.5,29.6z M244,24.2h-12.2v-1.5h-2.3v-6.6
				c0,0,5.4,0,6.2,0c0.7,0,0.4-0.6,0.4-0.6l-0.9-1.8l2.9-0.4l1,2.1c0,0,0.3,0.7,1.1,0.7c1.3,0,3.7,0,4.8,0c1.4,0,1.3,1.4,1.3,1.4
				v5.2H244L244,24.2L244,24.2z M243.5,18.8h-11.2v2.9h11.2V18.8z"/>
		</g>
	</g>
	<g>
		<path class="st0" d="M71.7,50.2h-3.5l-0.9,2.1h-1.1l3.2-7.2h1.2l3.2,7.2h-1.2L71.7,50.2z M70,46.1l-1.3,3.2h2.7L70,46.1z"/>
		<path class="st0" d="M74.4,47h1v0.7h0c0.4-0.5,1.2-0.8,2-0.8c1.6,0,2.9,1,2.9,2.8c0,1.8-1.3,2.8-2.9,2.8c-0.8,0-1.6-0.3-2-0.8h0
			v2.7h-1V47z M77.3,47.7c-1.4,0-1.9,0.9-1.9,1.9c0,1.2,0.8,1.9,1.9,1.9c1.2,0,1.9-0.7,1.9-1.9C79.2,48.7,78.7,47.7,77.3,47.7z"/>
		<path class="st0" d="M81.3,47h1v0.7h0c0.4-0.5,1.2-0.8,2-0.8c1.6,0,2.9,1,2.9,2.8c0,1.8-1.3,2.8-2.9,2.8c-0.8,0-1.6-0.3-2-0.8h0
			v2.7h-1V47z M84.2,47.7c-1.4,0-1.9,0.9-1.9,1.9c0,1.2,0.8,1.9,1.9,1.9c1.2,0,1.9-0.7,1.9-1.9C86.1,48.7,85.5,47.7,84.2,47.7z"/>
		<path class="st0" d="M88.9,49.9c0.1,1.1,1,1.7,1.9,1.7c0.6,0,1.3-0.2,1.7-0.9h1.1c-0.5,1.2-1.7,1.8-2.7,1.8
			c-2.1,0-3.1-1.3-3.1-2.8c0-1.5,1-2.8,3.1-2.8c1.4,0,2.8,0.8,2.8,3v0.1L88.9,49.9L88.9,49.9z M92.7,49.2c-0.2-1-0.9-1.5-1.8-1.5
			c-0.9,0-1.7,0.5-1.9,1.5H92.7z"/>
		<path class="st0" d="M99.4,51.6L99.4,51.6c-0.4,0.5-1.2,0.8-2,0.8c-1.6,0-2.9-1-2.9-2.8c0-1.8,1.3-2.8,2.9-2.8
			c0.8,0,1.6,0.3,2,0.8h0V45h1v7.2h-1V51.6z M97.6,51.6c1.4,0,1.9-0.9,1.9-1.9c0-1.2-0.8-1.9-1.9-1.9c-1.2,0-1.9,0.7-1.9,1.9
			C95.6,50.7,96.2,51.6,97.6,51.6z"/>
		<path class="st0" d="M106.9,52.3h-1v-0.8h0c-0.5,0.7-1.3,1-2.1,1c-1.3,0-2.2-0.5-2.2-1.8V47h1v3.4c0,0.8,0.5,1.2,1.6,1.2
			c0.9,0,1.7-0.5,1.7-1.6v-3h1L106.9,52.3C106.9,52.3,106.9,52.3,106.9,52.3z"/>
		<path class="st0" d="M117.5,47.7c-0.2-1-0.9-1.8-2.4-1.8c-1.7,0-2.8,1-2.8,2.9c0,1.3,0.7,2.8,2.7,2.8c1.2,0,2.2-0.6,2.5-2h1.1
			c-0.2,1.6-1.5,2.9-3.6,2.9c-1.8,0-3.8-1-3.8-3.8c0-2.1,1.3-3.7,3.8-3.7c1.4,0,3.4,0.6,3.6,2.8C118.6,47.7,117.5,47.7,117.5,47.7z"
			/>
		<path class="st0" d="M122.5,46.8c2,0,3.1,1.3,3.1,2.8c0,1.5-1,2.8-3.1,2.8s-3.1-1.3-3.1-2.8C119.4,48.1,120.4,46.8,122.5,46.8z
			 M122.5,47.7c-1.4,0-2,1-2,2c0,1,0.5,2,2,2c1.4,0,2-1,2-2C124.4,48.7,123.9,47.7,122.5,47.7z"/>
		<path class="st0" d="M134.5,48.9c0-1-0.6-1.2-1.3-1.2c-0.9,0-1.7,0.4-1.7,1.4v3.2h-1v-3.3c0-1-0.6-1.2-1.3-1.2
			c-0.9,0-1.7,0.5-1.7,1.6v3h-1V47h1v0.8h0c0.5-0.7,1.3-1,2-1c0.7,0,1.4,0.3,1.8,1c0.5-0.6,1.1-1,2.1-1c0.5,0,2,0.2,2,1.8v3.6h-1
			L134.5,48.9C134.5,48.9,134.5,48.9,134.5,48.9z"/>
		<path class="st0" d="M136.7,47h1v0.7h0c0.4-0.5,1.2-0.8,2-0.8c1.6,0,2.9,1,2.9,2.8c0,1.8-1.3,2.8-2.9,2.8c-0.8,0-1.6-0.3-2-0.8h0
			v2.7h-1V47z M139.6,47.7c-1.4,0-1.9,0.9-1.9,1.9c0,1.2,0.8,1.9,1.9,1.9c1.2,0,1.9-0.7,1.9-1.9C141.5,48.7,140.9,47.7,139.6,47.7z"
			/>
		<path class="st0" d="M148.8,52.3h-1v-0.8h0c-0.5,0.7-1.3,1-2.1,1c-1.3,0-2.2-0.5-2.2-1.8V47h1v3.4c0,0.8,0.5,1.2,1.6,1.2
			c0.9,0,1.7-0.5,1.7-1.6v-3h1L148.8,52.3C148.8,52.3,148.8,52.3,148.8,52.3z"/>
		<path class="st0" d="M150.5,45.4h1V47h1.5v0.8h-1.5V51c0,0.4,0.3,0.6,0.8,0.6c0.2,0,0.5,0,0.7-0.1v0.8c-0.4,0.1-0.7,0.1-1.1,0.1
			c-1,0-1.4-0.5-1.4-1.2v-3.4h-1.1V47h1.1V45.4z"/>
		<path class="st0" d="M154.6,49.9c0.1,1.1,1,1.7,1.9,1.7c0.6,0,1.3-0.2,1.7-0.9h1.1c-0.5,1.2-1.7,1.8-2.7,1.8c-2,0-3.1-1.3-3.1-2.8
			c0-1.5,1-2.8,3.1-2.8c1.4,0,2.9,0.8,2.9,3v0.1L154.6,49.9L154.6,49.9z M158.3,49.2c-0.2-1-0.9-1.5-1.8-1.5c-0.9,0-1.7,0.5-1.9,1.5
			H158.3z"/>
		<path class="st0" d="M160.4,47h1v1h0c0.5-0.8,1.1-1.1,1.8-1.1c0.2,0,0.4,0,0.6,0.1V48c-0.2-0.1-0.4-0.1-0.7-0.1
			c-1,0-1.7,0.6-1.7,1.7v2.7h-1L160.4,47L160.4,47z"/>
		<path class="st0" d="M168,45.1h3.6c2.1,0,3.1,1.4,3.1,3.5c0,2-0.9,3.7-3.1,3.7H168V45.1z M171.6,51.3c1.7,0,2.1-1.5,2.1-2.7
			c0-1.2-0.4-2.6-2.2-2.6H169v5.3L171.6,51.3L171.6,51.3L171.6,51.3z"/>
		<path class="st0" d="M176.6,49.9c0.1,1.1,1,1.7,1.9,1.7c0.6,0,1.3-0.2,1.7-0.9h1.1c-0.5,1.2-1.7,1.8-2.7,1.8
			c-2.1,0-3.1-1.3-3.1-2.8c0-1.5,1-2.8,3.1-2.8c1.4,0,2.8,0.8,2.8,3v0.1L176.6,49.9L176.6,49.9z M180.4,49.2c-0.2-1-0.9-1.5-1.8-1.5
			c-0.9,0-1.7,0.5-1.9,1.5H180.4z"/>
		<path class="st0" d="M183.1,50.6c0,0.5,0.4,1,1.6,1c1.3,0,1.6-0.5,1.6-0.8s-0.2-0.6-1-0.7l-1.6-0.2c-0.8-0.1-1.4-0.6-1.4-1.4
			c0-1.1,0.9-1.7,2.4-1.7c1.7,0,2.5,0.7,2.6,1.8h-1c0-0.5-0.5-1-1.6-1c-0.6,0-1.4,0.2-1.4,0.8c0,0.3,0.2,0.6,0.9,0.7l1.4,0.2
			c1.3,0.2,1.8,0.7,1.8,1.4c0,1.2-1,1.8-2.6,1.8c-1.2,0-2.6-0.3-2.7-1.8C182.2,50.6,183.1,50.6,183.1,50.6z"/>
		<path class="st0" d="M188.4,45h1v1.1h-1V45z M188.4,47h1v5.2h-1V47z"/>
		<path class="st0" d="M195.3,47h1v4.8c0,1.9-0.9,2.7-3.1,2.7c-1.1,0-2.4-0.2-2.6-1.6h1c0.2,0.7,0.8,0.8,1.7,0.8
			c1.4,0,1.9-0.7,1.9-1.6v-0.8h0c-0.6,0.8-1.4,1-2,1c-1.4,0-2.9-0.8-2.9-2.7c0-2,1.5-2.7,2.9-2.7c0.9,0,1.6,0.3,2.1,0.9h0L195.3,47
			L195.3,47z M193.4,47.7c-1.2,0-1.9,0.8-1.9,1.9s0.7,1.8,1.9,1.8c1.2,0,1.9-0.8,1.9-1.8C195.3,48.5,194.6,47.7,193.4,47.7z"/>
		<path class="st0" d="M197.4,47h1v0.8h0c0.5-0.7,1.3-1,2.1-1c1.3,0,2.2,0.5,2.2,1.8v3.6h-1v-3.4c0-0.8-0.5-1.2-1.6-1.2
			c-0.9,0-1.7,0.5-1.7,1.6v3h-1V47z"/>
		<path class="st0" d="M207.5,45.1h1.1v7.2h-1.1V45.1z"/>
		<path class="st0" d="M210.1,47h1v0.8h0c0.5-0.7,1.3-1,2.1-1c1.3,0,2.2,0.5,2.2,1.8v3.6h-1v-3.4c0-0.8-0.5-1.2-1.6-1.2
			c-0.9,0-1.7,0.5-1.7,1.6v3h-1V47z"/>
		<path class="st0" d="M217.3,50.6c0,0.5,0.4,1,1.6,1c1.3,0,1.6-0.5,1.6-0.8s-0.2-0.6-1-0.7l-1.6-0.2c-0.8-0.1-1.4-0.6-1.4-1.4
			c0-1.1,0.9-1.7,2.4-1.7c1.7,0,2.5,0.7,2.6,1.8h-1c0-0.5-0.5-1-1.6-1c-0.6,0-1.4,0.2-1.4,0.8c0,0.3,0.2,0.6,0.9,0.7l1.4,0.2
			c1.3,0.2,1.8,0.7,1.8,1.4c0,1.2-1,1.8-2.6,1.8c-1.2,0-2.6-0.3-2.7-1.8C216.3,50.6,217.3,50.6,217.3,50.6z"/>
		<path class="st0" d="M222.9,45.4h1V47h1.5v0.8h-1.5V51c0,0.4,0.3,0.6,0.8,0.6c0.2,0,0.5,0,0.7-0.1v0.8c-0.4,0.1-0.7,0.1-1.1,0.1
			c-1,0-1.4-0.5-1.4-1.2v-3.4h-1.1V47h1.1V45.4z"/>
		<path class="st0" d="M226.2,45h1v1.1h-1V45z M226.2,47h1v5.2h-1V47z"/>
		<path class="st0" d="M228.9,45.4h1V47h1.5v0.8h-1.5V51c0,0.4,0.3,0.6,0.8,0.6c0.2,0,0.5,0,0.7-0.1v0.8c-0.4,0.1-0.7,0.1-1.1,0.1
			c-1,0-1.4-0.5-1.4-1.2v-3.4h-1.1V47h1.1V45.4z"/>
		<path class="st0" d="M237.4,52.3h-1v-0.8h0c-0.5,0.7-1.3,1-2.1,1c-1.3,0-2.2-0.5-2.2-1.8V47h1v3.4c0,0.8,0.5,1.2,1.6,1.2
			c0.9,0,1.7-0.5,1.7-1.6v-3h1L237.4,52.3C237.4,52.3,237.4,52.3,237.4,52.3z"/>
		<path class="st0" d="M239.1,45.4h1V47h1.5v0.8h-1.5V51c0,0.4,0.3,0.6,0.8,0.6c0.2,0,0.5,0,0.7-0.1v0.8c-0.4,0.1-0.7,0.1-1.1,0.1
			c-1,0-1.4-0.5-1.4-1.2v-3.4H238V47h1.1V45.4z"/>
		<path class="st0" d="M243.1,49.9c0.1,1.1,1,1.7,1.9,1.7c0.6,0,1.3-0.2,1.7-0.9h1.1c-0.5,1.2-1.7,1.8-2.7,1.8c-2,0-3.1-1.3-3.1-2.8
			c0-1.5,1-2.8,3.1-2.8c1.4,0,2.9,0.8,2.9,3v0.1L243.1,49.9L243.1,49.9z M246.9,49.2c-0.2-1-0.9-1.5-1.8-1.5c-0.9,0-1.7,0.5-1.9,1.5
			H246.9z"/>
	</g>
</g>
</svg>
