<svg width="32" height="32" viewBox="0 0 32 32" fill="none" xmlns="http://www.w3.org/2000/svg">
<path d="M16.0734 6C12.1734 6 9 9.15407 9 13.0315C9 14.341 9.36522 15.6196 10.0558 16.7288L15.6706 25.7227C15.7781 25.8953 15.9675 26 16.1717 26H16.1761C16.3819 25.9984 16.5713 25.8904 16.6772 25.7151L22.149 16.6333C22.8013 15.5479 23.1463 14.3025 23.1463 13.0315C23.1463 9.15407 19.9735 6 16.0734 6ZM16.0734 16.547C14.0972 16.547 12.537 14.9575 12.537 13.0315C12.537 11.1056 14.1234 9.51549 16.0734 9.51549C18.0235 9.51549 19.6099 11.0925 19.6099 13.0315C19.6099 14.9705 18.0737 16.547 16.0734 16.547Z" fill="white"/>
</svg>
