<svg width="40" height="40" viewBox="0 0 40 40" fill="none" xmlns="http://www.w3.org/2000/svg">
<path d="M20.0004 6C14.4866 6 10 10.4157 10 15.8441C10 17.6774 10.5163 19.4674 11.4927 21.0204L19.4308 33.6118C19.5828 33.8534 19.8507 34 20.1393 34H20.1455C20.4365 33.9977 20.7043 33.8465 20.854 33.6011L28.5899 20.8866C29.5122 19.3671 30 17.6235 30 15.8441C30 10.4157 25.5142 6 20.0004 6ZM20.0004 20.7658C17.2064 20.7658 15.0006 18.5405 15.0006 15.8441C15.0006 13.1478 17.2435 10.9217 20.0004 10.9217C22.7573 10.9217 25.0002 13.1295 25.0002 15.8441C25.0002 18.5587 22.8283 20.7658 20.0004 20.7658Z" fill="white"/>
</svg>
