<svg width="32" height="32" viewBox="0 0 32 32" fill="none" xmlns="http://www.w3.org/2000/svg">
<path d="M19.332 16.097L14.241 18.6075C14.2174 18.6194 14.1912 18.6121 14.1762 18.5942C14.1686 18.5852 14.1638 18.5735 14.1638 18.5601V13.5389C14.1638 13.4987 14.2054 13.473 14.241 13.4908L19.332 16.0013C19.3491 16.0098 19.3589 16.025 19.3615 16.0411C19.3649 16.0627 19.355 16.0861 19.332 16.097Z" fill="white"/>
<path fill-rule="evenodd" clip-rule="evenodd" d="M32 0V32H0V0H32ZM24 20.9323C23.7372 21.4425 23.2052 21.7916 22.5914 21.7916H9.40802C8.79498 21.7916 8.26312 21.4429 8 20.9331V10.4781C8.13812 10.3132 8.34552 10.2084 8.57733 10.2084H22.5914C23.2052 10.2084 23.7372 10.5575 24 11.0677V20.9323Z" fill="white"/>
</svg>
