<svg width="32" height="32" viewBox="0 0 32 32" fill="none" xmlns="http://www.w3.org/2000/svg">
<path fill-rule="evenodd" clip-rule="evenodd" d="M22.5914 21.7916C23.2052 21.7916 23.7372 21.4425 24 20.9323V11.0677C23.7372 10.5575 23.2052 10.2084 22.5914 10.2084H8.57733C8.34552 10.2084 8.13812 10.3132 8 10.4781V20.9331C8.26312 21.4429 8.79498 21.7916 9.40802 21.7916H22.5914ZM14.241 18.6075L19.332 16.097C19.355 16.0861 19.3649 16.0627 19.3615 16.0411C19.361 16.0381 19.3602 16.035 19.3592 16.032C19.3566 16.0243 19.3522 16.0171 19.346 16.0111C19.342 16.0073 19.3373 16.004 19.332 16.0013L14.241 13.4908C14.2288 13.4847 14.2159 13.4838 14.2043 13.4867C14.1996 13.4878 14.1951 13.4896 14.1909 13.4921C14.175 13.501 14.1638 13.5179 14.1638 13.5389V18.5601C14.1638 18.5735 14.1686 18.5852 14.1762 18.5942C14.1838 18.6031 14.1942 18.6095 14.2056 18.6121C14.2169 18.6145 14.2292 18.6134 14.241 18.6075Z" fill="white"/>
</svg>
