<svg width="32" height="32" viewBox="0 0 32 32" fill="none" xmlns="http://www.w3.org/2000/svg">
<path d="M17.5149 15.5438C17.5149 15.9548 17.1816 16.2881 16.7706 16.2881C16.3596 16.2881 16.0264 15.9548 16.0264 15.5438C16.0264 15.1328 16.3596 14.7996 16.7706 14.7996C17.1816 14.7996 17.5149 15.1328 17.5149 15.5438Z" fill="white"/>
<path d="M20.0854 15.5438C20.0854 15.9548 19.7522 16.2881 19.3412 16.2881C18.9301 16.2881 18.5969 15.9548 18.5969 15.5438C18.5969 15.1328 18.9301 14.7996 19.3412 14.7996C19.7522 14.7996 20.0854 15.1328 20.0854 15.5438Z" fill="white"/>
<path d="M13.4706 15.7169C13.565 16.1169 13.9658 16.3647 14.3659 16.2703C14.7659 16.1759 15.0137 15.775 14.9193 15.375C14.8248 14.975 14.424 14.7272 14.024 14.8215C13.6239 14.916 13.3762 15.3169 13.4706 15.7169Z" fill="white"/>
<path fill-rule="evenodd" clip-rule="evenodd" d="M32 0H0V32H32V0ZM21.6096 20.2412L21.444 19.2131C21.4156 19.0951 21.4407 18.9744 21.5132 18.8806C21.5577 18.824 21.616 18.7811 21.6823 18.755C21.731 18.7357 21.7841 18.7256 21.8392 18.7256H22.3855C22.5557 18.7256 22.6837 18.5989 22.6837 18.4307L22.7088 10.632C22.7088 10.4636 22.5808 10.337 22.4106 10.337H11.4032C11.233 10.337 11.105 10.4636 11.105 10.632V18.4558C11.105 18.6233 11.233 18.75 11.4032 18.75H18.7084C18.7216 18.75 18.7355 18.75 18.7501 18.7505C18.7613 18.7509 18.7729 18.7515 18.7849 18.7527C18.7996 18.7542 18.8147 18.7563 18.8301 18.7598C18.8533 18.765 18.8771 18.7729 18.9011 18.785L21.6096 20.2412ZM16.6954 21.8253C16.7403 21.8253 16.7706 21.7957 16.7706 21.7521V19.5385H11.3788C10.7626 19.5385 10.2611 19.0416 10.2611 18.4307V16.4631H9.39087C9.36707 16.4631 9.34753 16.4714 9.33447 16.4858C9.3299 16.4908 9.32611 16.4966 9.32318 16.5029C9.31873 16.5127 9.31628 16.524 9.31628 16.5364V21.7277C9.31628 21.7712 9.34601 21.8009 9.39087 21.8009H9.73859C9.84741 21.8009 9.95367 21.8503 10.0295 21.9368C10.1127 22.0311 10.1509 22.1565 10.1351 22.2812L10.0671 22.7015L11.652 21.8497H11.677C11.6896 21.8497 11.7081 21.8451 11.7278 21.8405C11.7562 21.8333 11.7892 21.8253 11.8255 21.8253H16.6954Z" fill="white"/>
</svg>
