<?xml version="1.0" encoding="utf-8"?>
<!-- Generator: Adobe Illustrator 25.0.1, SVG Export Plug-In . SVG Version: 6.00 Build 0)  -->
<svg version="1.1" id="圖層_1" xmlns="http://www.w3.org/2000/svg" xmlns:xlink="http://www.w3.org/1999/xlink" x="0px" y="0px"
	 viewBox="0 0 48 48" style="enable-background:new 0 0 48 48;" xml:space="preserve">
<style type="text/css">
	.st0{fill:#F9C270;}
</style>
<g id="Symbols">
	<g id="Group">
		<path id="Path" class="st0" d="M23.3,19.3c0.4-0.4,0.9-0.4,1.3-0.1l0.1,0.1l4,4c0.4,0.4,0.4,0.9,0.1,1.3l-0.1,0.1l-4,4
			c-0.4,0.4-1,0.4-1.4,0c-0.4-0.4-0.4-0.9-0.1-1.3l0.1-0.1l3.3-3.3l-3.3-3.3C22.9,20.3,22.9,19.8,23.3,19.3L23.3,19.3z"/>
		<path id="Path_1_" class="st0" d="M28,23c0.6,0,1,0.4,1,1c0,0.5-0.4,0.9-0.9,1L28,25h-8c-0.6,0-1-0.4-1-1c0-0.5,0.4-0.9,0.9-1
			l0.1,0H28z"/>
	</g>
</g>
</svg>
