<svg width="32" height="32" viewBox="0 0 32 32" fill="none" xmlns="http://www.w3.org/2000/svg">
<path fill-rule="evenodd" clip-rule="evenodd" d="M24.1755 19.2383C24.1755 21.9646 21.9659 24.1748 19.2369 24.1748H12.7624C10.0361 24.1748 7.82385 21.9646 7.82385 19.2383V12.7617C7.82385 10.0354 10.0361 7.8252 12.7624 7.8252H19.2369C21.9659 7.8252 24.1755 10.0354 24.1755 12.7617V19.2383ZM9.36115 12.7288C9.36115 10.8689 10.8694 9.36255 12.73 9.36255H19.27C21.1299 9.36255 22.6389 10.8689 22.6389 12.7288V19.2712C22.6389 21.1311 21.1299 22.6375 19.27 22.6375H12.73C10.8694 22.6375 9.36115 21.1311 9.36115 19.2712V12.7288ZM16 19.8599C17.0656 19.8599 18.0308 19.4277 18.7283 18.7295C19.4263 18.0303 19.8585 17.0676 19.8585 16.0012C19.8585 14.9351 19.4263 13.9697 18.7283 13.2725C18.0308 12.5723 17.0662 12.1401 16 12.1401C14.9338 12.1401 13.9685 12.5723 13.2711 13.2725C12.5731 13.9697 12.1409 14.9351 12.1409 16.0012C12.1409 18.1311 13.8676 19.8599 16 19.8599ZM19.3036 11.7041C19.3036 12.1719 19.683 12.5513 20.1508 12.5513C20.6185 12.5513 20.9979 12.1719 20.9979 11.7041C20.9979 11.2363 20.6185 10.8569 20.1508 10.8569C19.683 10.8569 19.3036 11.2363 19.3036 11.7041ZM18.6484 16.0012C18.6484 16.7317 18.3522 17.394 17.8725 17.8738C17.3928 18.3535 16.7304 18.6497 16 18.6497C14.5366 18.6497 13.351 17.4622 13.351 16.0012C13.351 15.2683 13.6478 14.606 14.1268 14.1262C14.6065 13.6465 15.2689 13.3503 16 13.3503C16.7311 13.3503 17.3928 13.6465 17.8725 14.1262C18.3522 14.606 18.6484 15.2683 18.6484 16.0012Z" fill="white"/>
</svg>
