<svg width="32" height="32" viewBox="0 0 32 32" fill="none" xmlns="http://www.w3.org/2000/svg">
<path fill-rule="evenodd" clip-rule="evenodd" d="M21.444 19.2131L21.6096 20.2412L18.9011 18.785C18.8771 18.7729 18.8533 18.765 18.8301 18.7598C18.8226 18.7581 18.8152 18.7567 18.8079 18.7556L18.7849 18.7527C18.7729 18.7515 18.7613 18.7509 18.7501 18.7505C18.7355 18.75 18.7216 18.75 18.7084 18.75H11.4032C11.233 18.75 11.105 18.6233 11.105 18.4558V10.632C11.105 10.4636 11.233 10.337 11.4032 10.337H22.4106C22.5808 10.337 22.7088 10.4636 22.7088 10.632L22.6837 18.4307C22.6837 18.5989 22.5557 18.7256 22.3855 18.7256H21.8392C21.7841 18.7256 21.731 18.7357 21.6823 18.755C21.616 18.7811 21.5577 18.824 21.5132 18.8806C21.4407 18.9744 21.4156 19.0951 21.444 19.2131ZM16.7706 21.7521C16.7706 21.7957 16.7403 21.8253 16.6954 21.8253H11.8255C11.811 21.8253 11.797 21.8265 11.7836 21.8285C11.7635 21.8315 11.7449 21.8362 11.7278 21.8405L11.7228 21.8416C11.705 21.8458 11.6885 21.8497 11.677 21.8497H11.652L10.0671 22.7015L10.1351 22.2812C10.1509 22.1565 10.1127 22.0311 10.0295 21.9368C9.95367 21.8503 9.84741 21.8009 9.73859 21.8009H9.39087C9.36597 21.8009 9.3457 21.7917 9.33264 21.7761C9.32214 21.7637 9.31628 21.7471 9.31628 21.7277V16.5364C9.31628 16.524 9.31873 16.5127 9.32318 16.5029C9.32611 16.4966 9.3299 16.4908 9.33447 16.4858C9.34143 16.4781 9.35028 16.4722 9.3606 16.4683C9.36963 16.465 9.37976 16.4631 9.39087 16.4631H10.2611V18.4307C10.2611 19.0416 10.7626 19.5385 11.3788 19.5385H16.7706V21.7521ZM16.7706 16.2881C17.1816 16.2881 17.5149 15.9548 17.5149 15.5438C17.5149 15.1328 17.1816 14.7996 16.7706 14.7996C16.3596 14.7996 16.0264 15.1328 16.0264 15.5438C16.0264 15.9548 16.3596 16.2881 16.7706 16.2881ZM19.3412 16.2881C19.7522 16.2881 20.0854 15.9548 20.0854 15.5438C20.0854 15.1328 19.7522 14.7996 19.3412 14.7996C18.9301 14.7996 18.5969 15.1328 18.5969 15.5438C18.5969 15.9548 18.9301 16.2881 19.3412 16.2881ZM13.4706 15.7169C13.565 16.1169 13.9658 16.3647 14.3659 16.2703C14.7659 16.1759 15.0137 15.775 14.9193 15.375C14.8248 14.975 14.424 14.7272 14.024 14.8215C13.6239 14.916 13.3762 15.3169 13.4706 15.7169Z" fill="white"/>
</svg>
