<svg width="40" height="40" viewBox="0 0 40 40" fill="none" xmlns="http://www.w3.org/2000/svg">
<path d="M35.9725 13.415C36.7525 12.635 36.7525 11.365 35.9725 10.585C35.1925 9.805 33.9225 9.805 33.1425 10.585L20.2825 23.445L7.4125 10.595C6.6325 9.805 5.3725 9.805 4.5925 10.595C3.8025 11.375 3.8025 12.635 4.5925 13.415L18.6325 27.455C18.6925 27.545 18.7725 27.635 18.8525 27.715C19.2425 28.105 19.7625 28.305 20.2825 28.305C20.8025 28.305 21.3225 28.115 21.7225 27.715C21.8025 27.635 21.8725 27.545 21.9425 27.455L35.9725 13.415Z" fill="white"/>
</svg>
