<svg width="120" height="120" viewBox="0 0 120 120" fill="none" xmlns="http://www.w3.org/2000/svg">
<path d="M89.2801 27.09H74.5701V26.93C74.5701 26.03 73.9201 25.3 73.1201 25.3H69.2201C69.2201 25.3 69.2201 25.27 69.2201 25.25V23.42C69.2201 20.57 66.9001 18.25 64.0501 18.25H57.1901C54.3401 18.25 52.0201 20.57 52.0201 23.42V25.25C52.0201 25.25 52.0201 25.28 52.0201 25.3H46.9101C46.1101 25.3 45.4601 26.03 45.4601 26.93V27.09H30.7501C29.9801 27.09 29.3601 27.71 29.3601 28.48V100.36C29.3601 101.13 29.9801 101.75 30.7501 101.75H89.2501C90.0201 101.75 90.6401 101.13 90.6401 100.36V28.48C90.6401 27.71 90.0201 27.09 89.2501 27.09H89.2801ZM66.4501 25.29H54.8101C54.8101 25.29 54.8101 25.26 54.8101 25.24V23.41C54.8101 22.1 55.8801 21.03 57.1901 21.03H64.0501C65.3601 21.03 66.4301 22.1 66.4301 23.41V25.24C66.4301 25.24 66.4301 25.27 66.4301 25.29H66.4501ZM48.3801 34.4V28.54H71.6701V34.4H48.3801ZM46.9301 37.66H73.1201C73.9001 37.66 74.5301 36.96 74.5601 36.1H82.2001V92.88H37.8401V36.1H45.4801C45.5101 36.97 46.1401 37.66 46.9201 37.66H46.9301ZM45.4801 33.39H36.4601C35.7001 33.39 35.0801 34 35.0801 34.74V94.22C35.0801 94.97 35.7001 95.57 36.4601 95.57H83.5901C84.3501 95.57 84.9701 94.96 84.9701 94.22V34.75C84.9701 34 84.3501 33.4 83.5901 33.4H74.5701V29.87H87.8901V98.97H32.1701V29.87H45.4901V33.4L45.4801 33.39Z" fill="#040000"/>
<path d="M46.9802 49.32C48.6802 49.32 50.0602 47.94 50.0602 46.24C50.0602 44.54 48.6802 43.16 46.9802 43.16C45.2802 43.16 43.9001 44.54 43.9001 46.24C43.9001 47.94 45.2802 49.32 46.9802 49.32ZM46.1201 46.24C46.1201 45.76 46.5102 45.38 46.9802 45.38C47.4502 45.38 47.8401 45.77 47.8401 46.24C47.8401 46.71 47.4502 47.1 46.9802 47.1C46.5102 47.1 46.1201 46.71 46.1201 46.24Z" fill="#040000"/>
<path d="M54.2501 44.9699H74.8901C75.6601 44.9699 76.2801 44.3499 76.2801 43.5799C76.2801 42.8099 75.6601 42.1899 74.8901 42.1899H54.2501C53.4801 42.1899 52.8601 42.8099 52.8601 43.5799C52.8601 44.3499 53.4801 44.9699 54.2501 44.9699Z" fill="#040000"/>
<path d="M54.2501 49.41H66.4801C67.2501 49.41 67.8701 48.79 67.8701 48.02C67.8701 47.25 67.2501 46.63 66.4801 46.63H54.2501C53.4801 46.63 52.8601 47.25 52.8601 48.02C52.8601 48.79 53.4801 49.41 54.2501 49.41Z" fill="#040000"/>
<path d="M46.9802 61.52C48.6802 61.52 50.0602 60.14 50.0602 58.44C50.0602 56.74 48.6802 55.36 46.9802 55.36C45.2802 55.36 43.9001 56.74 43.9001 58.44C43.9001 60.14 45.2802 61.52 46.9802 61.52ZM46.1201 58.43C46.1201 57.95 46.5102 57.57 46.9802 57.57C47.4502 57.57 47.8401 57.96 47.8401 58.43C47.8401 58.9 47.4502 59.29 46.9802 59.29C46.5102 59.29 46.1201 58.9 46.1201 58.43Z" fill="#040000"/>
<path d="M54.2501 57.16H74.8901C75.6601 57.16 76.2801 56.54 76.2801 55.77C76.2801 55 75.6601 54.38 74.8901 54.38H54.2501C53.4801 54.38 52.8601 55 52.8601 55.77C52.8601 56.54 53.4801 57.16 54.2501 57.16Z" fill="#040000"/>
<path d="M54.2501 61.61H66.4801C67.2501 61.61 67.8701 60.99 67.8701 60.22C67.8701 59.45 67.2501 58.83 66.4801 58.83H54.2501C53.4801 58.83 52.8601 59.45 52.8601 60.22C52.8601 60.99 53.4801 61.61 54.2501 61.61Z" fill="#040000"/>
<path d="M46.9802 73.71C48.6802 73.71 50.0602 72.33 50.0602 70.63C50.0602 68.93 48.6802 67.55 46.9802 67.55C45.2802 67.55 43.9001 68.93 43.9001 70.63C43.9001 72.33 45.2802 73.71 46.9802 73.71ZM46.1201 70.63C46.1201 70.15 46.5102 69.7701 46.9802 69.7701C47.4502 69.7701 47.8401 70.16 47.8401 70.63C47.8401 71.1 47.4502 71.49 46.9802 71.49C46.5102 71.49 46.1201 71.1 46.1201 70.63Z" fill="#040000"/>
<path d="M54.2501 69.36H74.8901C75.6601 69.36 76.2801 68.74 76.2801 67.97C76.2801 67.2 75.6601 66.58 74.8901 66.58H54.2501C53.4801 66.58 52.8601 67.2 52.8601 67.97C52.8601 68.74 53.4801 69.36 54.2501 69.36Z" fill="#040000"/>
<path d="M54.2501 73.8H66.4801C67.2501 73.8 67.8701 73.18 67.8701 72.41C67.8701 71.64 67.2501 71.02 66.4801 71.02H54.2501C53.4801 71.02 52.8601 71.64 52.8601 72.41C52.8601 73.18 53.4801 73.8 54.2501 73.8Z" fill="#040000"/>
<path d="M46.9802 85.9C48.6802 85.9 50.0602 84.52 50.0602 82.82C50.0602 81.12 48.6802 79.74 46.9802 79.74C45.2802 79.74 43.9001 81.12 43.9001 82.82C43.9001 84.52 45.2802 85.9 46.9802 85.9ZM46.1201 82.82C46.1201 82.34 46.5102 81.96 46.9802 81.96C47.4502 81.96 47.8401 82.35 47.8401 82.82C47.8401 83.29 47.4502 83.68 46.9802 83.68C46.5102 83.68 46.1201 83.29 46.1201 82.82Z" fill="#040000"/>
<path d="M54.2501 81.55H74.8901C75.6601 81.55 76.2801 80.93 76.2801 80.16C76.2801 79.39 75.6601 78.77 74.8901 78.77H54.2501C53.4801 78.77 52.8601 79.39 52.8601 80.16C52.8601 80.93 53.4801 81.55 54.2501 81.55Z" fill="#040000"/>
<path d="M54.2501 86H66.4801C67.2501 86 67.8701 85.38 67.8701 84.61C67.8701 83.84 67.2501 83.22 66.4801 83.22H54.2501C53.4801 83.22 52.8601 83.84 52.8601 84.61C52.8601 85.38 53.4801 86 54.2501 86Z" fill="#040000"/>
</svg>
