<svg width="120" height="120" viewBox="0 0 120 120" fill="none" xmlns="http://www.w3.org/2000/svg">
<path fill-rule="evenodd" clip-rule="evenodd" d="M34.1863 95.0854C40.6297 95.1533 47.073 95.1558 53.5139 95.083C56.8609 95.0479 58.8977 91.9238 57.7254 88.7822C56.2949 84.9546 53.6944 82.1812 50.0042 80.4277C47.8472 79.4004 45.5374 79.1699 43.1924 79.0044C39.7254 78.7593 37.4632 75.7603 37.8765 72.0825C38.2346 68.8662 41.2862 66.5186 44.5352 66.9619C49.1172 67.5859 51.3445 72.5459 48.8142 76.4941C48.2832 77.3237 48.3457 78.0474 48.9895 78.4761C49.6409 78.9121 50.3198 78.7114 50.8911 77.8799C52.3015 75.8228 52.7373 73.5605 52.2263 71.1284C51.2793 66.6138 46.8801 63.7153 42.2481 64.5293C37.8313 65.3086 34.7324 69.6025 35.3411 74.0869C35.6643 76.4741 36.8291 78.3682 38.8008 79.9468L38.5169 80.0688L38.5073 80.0729C38.3321 80.1483 38.1931 80.2079 38.0542 80.2695C34.1787 81.981 31.4556 84.8018 29.9624 88.7676C28.7949 91.874 30.8743 95.0532 34.1863 95.0854ZM62.648 54.5386C63.0564 53.8672 63.3069 53.0181 63.3645 52.2261C63.3801 52.0114 63.3919 51.7964 63.4007 51.5812C63.4153 51.2278 63.4217 50.8737 63.4234 50.5184C63.4238 50.3822 63.4238 50.2458 63.4234 50.1093C63.4217 49.7379 63.416 49.3652 63.4104 48.9911V48.9849L63.4031 48.4507C63.3997 48.1733 63.397 47.8955 63.397 47.6167C64.2891 47.5117 64.9954 47.5264 65.7071 48.1226C67.2422 49.4053 68.8091 50.6523 70.376 51.8994L71.377 52.6963C71.8538 53.0763 72.3299 53.4572 72.8042 53.8398C73.2852 54.228 73.7937 54.436 74.3799 54.1602C74.9761 53.8823 75.114 53.3389 75.1065 52.7275C75.0999 52.192 75.1011 51.6575 75.1026 51.1234L75.1038 50.7098L75.104 50.3125V47.5591L75.5281 47.5596L76.1719 47.561C76.836 47.5635 77.4656 47.5659 78.0952 47.5591C80.4126 47.5342 81.8281 46.1162 81.8306 43.8037C81.8335 40.9307 81.8345 38.0586 81.8343 35.1865L81.8333 31.8983L81.8306 28.6094C81.8281 26.335 80.4151 24.8794 78.1577 24.8745C70.7825 24.8594 63.4072 24.8594 56.0318 24.8745C53.8147 24.8794 52.3867 26.3398 52.3767 28.5493C52.374 29.1519 52.3726 29.7544 52.3718 30.3569C52.3709 31.3354 52.3718 32.314 52.3728 33.2925L52.374 36.1953H51.4849C50.5225 36.1953 49.5603 36.1943 48.5982 36.1934L48.3821 36.193C46.1443 36.1907 43.9058 36.1884 41.6668 36.2002C39.4422 36.2104 38.1895 37.4829 38.1895 39.6904C38.1846 43.9214 38.1822 48.1553 38.1895 52.3892C38.1946 54.396 39.4798 55.6958 41.4939 55.7412C42.0015 55.7515 42.5088 55.749 43.0513 55.7466C43.3096 55.7451 43.5759 55.7437 43.854 55.7437L43.8548 56.911V56.9282V56.9447C43.8552 57.3538 43.8557 57.7549 43.8555 58.1514C43.8555 58.4615 43.8552 58.7692 43.8543 59.0756L43.8513 59.6719C43.8465 60.3208 43.9065 60.9268 44.5803 61.2603C45.2642 61.6011 45.7654 61.2402 46.2691 60.8345L47.2412 60.0513C48.8374 58.7646 50.4336 57.4785 52.0559 56.2246C52.4092 55.9517 52.9302 55.7739 53.3787 55.7637C55.0056 55.7305 56.6341 55.7354 58.2617 55.7402C58.8421 55.7422 59.4224 55.7437 60.0025 55.7437C61.0698 55.7437 62.0869 55.4653 62.648 54.5386ZM75.2708 95.1177C79.293 95.1235 83.315 95.1294 87.3369 95.1055C90.937 95.083 93.064 91.9341 91.7512 88.5923C91.6004 88.2095 91.4343 87.8296 91.2542 87.4561C90.9944 86.918 90.7049 86.3931 90.3882 85.8916C88.6421 83.123 86.177 81.2041 83.023 79.9741C83.1314 79.8728 83.2363 79.777 83.3379 79.6849L83.4561 79.5781L83.4746 79.561C83.7503 79.312 84.0008 79.0854 84.2329 78.8418C86.9011 76.0386 87.2593 71.7393 85.1172 68.3301C83.0581 65.0532 79.1424 63.6323 75.3997 64.8052C71.6367 65.9824 69.1616 69.5298 69.4072 73.4805C69.5098 75.1592 69.9331 76.77 71.043 78.0977C71.6043 78.769 72.3357 78.8594 72.9068 78.4258C73.4605 78.0049 73.5181 77.2837 73.0122 76.5518C72.1277 75.2842 71.7796 73.8892 71.9024 72.353C72.1604 69.1616 75.2769 66.5635 78.4458 66.917C81.9807 67.3125 84.4937 70.394 83.9925 73.7261C83.5291 76.8228 81.2718 78.8315 78.1353 79.085C76.5921 79.21 75.0088 79.3501 73.5432 79.8037C68.9087 81.2368 65.7368 84.3281 64.0459 88.8628C62.9136 91.8965 65.0154 94.9502 68.2447 95.0957C68.8936 95.125 69.5437 95.1206 70.1931 95.1162C70.4265 95.1147 70.6597 95.1133 70.8926 95.1133L72.2461 95.1141L74.3482 95.1166L75.2708 95.1177ZM72.6096 49.0962C72.6104 49.5332 72.6113 49.9868 72.6113 50.4648C72.1428 50.0918 71.6802 49.7422 71.2288 49.4014C70.2586 48.6685 69.3408 47.9751 68.5303 47.1733C66.7967 45.4595 64.8526 44.8081 62.4302 45.0288C61.0025 45.1592 59.5598 45.1265 58.1172 45.0938L57.5159 45.0806C57.3057 45.0762 57.0952 45.0723 56.885 45.0693C56.6831 45.0664 56.4815 45.0645 56.2798 45.064C55.1699 45.0615 54.8718 44.7734 54.8694 43.7012C54.8682 41.0793 54.8675 38.4583 54.8677 35.8373C54.8677 33.4716 54.8682 31.106 54.8694 28.7397C54.8694 27.6577 55.1651 27.3643 56.2674 27.3643C63.4873 27.3618 70.7075 27.3618 77.93 27.3643C79.0674 27.3643 79.3379 27.6475 79.3379 28.8052V43.6108C79.3379 44.7959 79.0674 45.0615 77.8623 45.0664C76.6148 45.0688 75.3697 45.0562 74.1221 45.0713C73.0423 45.084 72.6214 45.5146 72.6113 46.5947C72.6065 47.3906 72.6079 48.1875 72.6096 49.0479V49.0962ZM43.9341 81.5825C38.9336 81.4951 34.2315 84.6665 32.4126 89.354C31.6509 91.3203 32.5454 92.6133 34.6797 92.6182C36.7041 92.623 38.7283 92.6216 40.7525 92.6201C41.7647 92.6191 42.7766 92.6182 43.7888 92.6182C44.6177 92.6182 45.4466 92.6196 46.2754 92.6211L46.4534 92.6215L46.9873 92.6226L48.3987 92.625C49.1472 92.626 49.896 92.6262 50.6446 92.625L51.6314 92.6226L52.1323 92.6206L52.8069 92.6167L53.2837 92.6133C55.0247 92.5981 55.9641 91.2554 55.3955 89.6719C53.6743 84.8667 49.1475 81.6729 43.9341 81.5825ZM56.3599 47.5591C53.732 47.5542 52.3765 46.2012 52.374 43.5859V38.7656L52.3098 38.7517L52.2293 38.7329L52.2237 38.7314C52.1375 38.7109 52.0723 38.6958 52.0059 38.6958L47.3208 38.6934C45.4038 38.6929 43.4863 38.6924 41.5689 38.688C40.9051 38.688 40.6721 39.0215 40.6746 39.6675C40.6768 40.2615 40.6785 40.8555 40.68 41.4493C40.6846 43.2556 40.6865 45.0618 40.6856 46.8682C40.6848 48.6743 40.6812 50.4805 40.6746 52.2866C40.6697 53.0005 40.9854 53.2661 41.6616 53.2534C42.0027 53.2478 42.344 53.2457 42.6856 53.2455C42.8955 53.2452 43.1057 53.2457 43.3159 53.2465L43.7451 53.2484L44.3875 53.251C46.0935 53.251 46.3465 53.5088 46.3465 55.25C46.3474 55.5327 46.3477 55.8156 46.3477 56.1138L46.3472 56.6459L46.3465 57.5698L46.6502 57.3275C46.8018 57.2069 46.9522 57.0879 47.1016 56.9702L47.7432 56.4653L47.7468 56.4624L48.3111 56.0182L48.5384 55.8384L48.781 55.6459C49.43 55.1298 50.0584 54.6193 50.6704 54.0903C51.4094 53.4512 52.176 53.2085 53.1455 53.231C54.6995 53.271 56.2556 53.2637 57.8118 53.2563L58.0149 53.2549L59.0962 53.251H59.8421C60.3057 53.251 60.8418 53.231 60.8592 52.6621C60.8965 51.4733 60.8897 50.2844 60.8826 49.0696V49.0571L60.8777 48.1123L60.8767 47.5615C59.3086 47.5615 57.8355 47.5615 56.3599 47.5591ZM66.3633 89.7471C67.9893 84.9521 72.7366 81.6025 77.9324 81.5776C83.1258 81.5552 87.9007 84.9297 89.5491 89.7847C90.0449 91.2451 89.1131 92.5781 87.5098 92.6055C85.822 92.6343 84.1343 92.6294 82.4468 92.6245L81.3994 92.6216L80.5051 92.6206H68.9231C68.8379 92.621 68.7527 92.6213 68.6675 92.6207C68.5398 92.6199 68.4119 92.6167 68.2847 92.6079C66.7566 92.5029 65.8748 91.1851 66.3633 89.7471Z" fill="#A0A0A0"/>
</svg>
