<svg width="120" height="120" viewBox="0 0 120 120" fill="none" xmlns="http://www.w3.org/2000/svg">
<g clip-path="url(#clip0_1483_12)">
<path d="M76.0998 40.025H50.5498C48.3598 40.025 46.5898 41.805 46.5898 43.995V60.055C46.5898 62.245 48.3698 64.025 50.5498 64.025H76.0998C78.2898 64.025 80.0598 62.245 80.0598 60.055V43.995C80.0598 41.805 78.2798 40.025 76.0998 40.025ZM77.7498 60.045C77.7498 60.955 77.0098 61.695 76.0998 61.695H50.5498C49.6398 61.695 48.8998 60.955 48.8998 60.045V59.495L54.8798 54.805C55.3698 54.425 56.0598 54.425 56.5498 54.805L58.3498 56.215L57.5298 56.855C57.2898 57.045 57.1298 57.315 57.0898 57.625C57.0498 57.925 57.1398 58.235 57.3298 58.475C57.5498 58.755 57.8798 58.915 58.2398 58.915C58.4998 58.915 58.7498 58.825 58.9498 58.665L69.9498 50.045C70.4398 49.665 71.1298 49.665 71.6198 50.045L77.7598 54.855V60.035L77.7498 60.045ZM77.7498 51.935L73.0298 48.235C71.6998 47.195 69.8398 47.195 68.5098 48.235L60.1998 54.745L57.9498 52.985C56.6198 51.945 54.7598 51.945 53.4298 52.985L48.8798 56.555V43.985C48.8798 43.075 49.6198 42.335 50.5298 42.335H76.0798C76.9898 42.335 77.7298 43.075 77.7298 43.985V51.935H77.7498Z" fill="#040000"/>
<path d="M56.91 43.905C55.16 43.905 53.73 45.335 53.73 47.085C53.73 48.835 55.16 50.265 56.91 50.265C58.66 50.265 60.09 48.835 60.09 47.085C60.09 45.335 58.67 43.905 56.91 43.905ZM56.91 47.945C56.43 47.945 56.04 47.555 56.04 47.075C56.04 46.595 56.43 46.205 56.91 46.205C57.39 46.205 57.78 46.595 57.78 47.075C57.78 47.555 57.39 47.945 56.91 47.945Z" fill="#040000"/>
<path d="M44.1199 54.2651H42.9999C42.1499 54.2651 41.4599 53.5751 41.4599 52.7251V36.4351C41.4599 35.5851 42.1499 34.8951 42.9999 34.8951H68.7699C69.6199 34.8951 70.3099 35.5851 70.3099 36.4351V37.4451C70.3099 38.0851 70.8299 38.6051 71.4599 38.6051C72.0899 38.6051 72.6099 38.0851 72.6099 37.4451V36.4351C72.6099 34.3151 70.8799 32.5851 68.7599 32.5851H42.9899C40.8699 32.5851 39.1399 34.3151 39.1399 36.4351V52.7151C39.1399 54.8351 40.8699 56.5651 42.9899 56.5651H44.1099C44.7499 56.5651 45.2599 56.0451 45.2599 55.4051C45.2599 54.7651 44.7399 54.2451 44.1099 54.2451L44.1199 54.2651Z" fill="#040000"/>
<path d="M93.1299 25.045H26.8699C24.1299 25.045 21.9199 27.255 21.9199 29.995V76.075C21.9199 78.805 24.1299 81.025 26.8699 81.025H50.0599L46.2199 91.565H39.1099C38.1999 91.565 37.4199 92.345 37.4199 93.255C37.4199 94.165 38.1999 94.945 39.1099 94.945H79.4699C80.3799 94.945 81.0299 94.165 81.1599 93.255C81.1599 92.345 80.3799 91.565 79.4699 91.565H72.1399L68.2599 81.025H93.1399C95.8699 81.025 98.0899 78.815 98.0899 76.075V29.995C98.0899 27.265 95.8799 25.045 93.1399 25.045H93.1299ZM68.7399 91.565H49.6999L53.5599 81.025H64.8899L68.7499 91.565H68.7399ZM94.8199 76.075C94.8199 76.985 94.0399 77.765 93.1299 77.765H26.8699C25.9599 77.765 25.1799 76.985 25.1799 76.075V70.085H94.8099C94.8099 70.085 94.8099 70.085 94.8199 70.085V76.075ZM94.8199 66.715C94.8199 66.715 94.8199 66.715 94.8099 66.715H25.1699V29.995C25.1699 29.085 25.9499 28.305 26.8599 28.305H93.1199C94.0299 28.305 94.8099 29.085 94.8099 29.995V66.715H94.8199Z" fill="#040000"/>
</g>
<defs>
<clipPath id="clip0_1483_12">
<rect width="76.16" height="69.91" fill="white" transform="translate(21.9199 25.045)"/>
</clipPath>
</defs>
</svg>
