<svg width="120" height="120" viewBox="0 0 120 120" fill="none" xmlns="http://www.w3.org/2000/svg">
<path fill-rule="evenodd" clip-rule="evenodd" d="M102.848 102L103 101.844V102H102.848ZM89.9775 76.8401C90.4834 76.8401 90.8943 76.4292 90.8943 75.9232V65.4564C90.8943 64.9503 90.4834 64.5394 89.9775 64.5394H30.02C30.0073 64.5394 29.9941 64.5408 29.9812 64.542C29.9683 64.5432 29.9551 64.5444 29.9424 64.5444H29.9299C29.8896 64.547 29.8496 64.5544 29.8096 64.5645C29.802 64.5645 29.7947 64.5696 29.7871 64.5696C29.7471 64.582 29.7068 64.5946 29.6692 64.6096C29.6292 64.6272 29.5916 64.6472 29.5566 64.6672L29.5457 64.6731C29.5417 64.675 29.5378 64.677 29.5339 64.6797C29.5198 64.6879 29.5054 64.6969 29.4915 64.7063C29.4712 64.7201 29.4517 64.735 29.4338 64.7499L29.4001 64.7816L29.3523 64.8285L29.3486 64.8325C29.3445 64.8353 29.3411 64.839 29.3374 64.843L29.3286 64.8527C29.3035 64.8801 29.2786 64.9127 29.2559 64.9453V64.9478C29.2358 64.9803 29.2158 65.0155 29.1982 65.0505L29.1953 65.0579L29.1931 65.0623L29.1921 65.0645L29.1882 65.0731C29.1558 65.1458 29.1306 65.2234 29.1182 65.306C29.1167 65.3104 29.1152 65.3157 29.1143 65.3213L29.1133 65.3336C29.1082 65.3737 29.103 65.4138 29.103 65.4564V96.6914C29.103 97.1975 29.5139 97.6084 30.02 97.6084H40.4868C40.9929 97.6084 41.4038 97.1975 41.4038 96.6914V76.8401H89.9775ZM100.199 54.6588C100.209 54.5988 100.216 54.5361 100.216 54.4735H100.214V39.1816C100.214 39.1501 100.212 39.1187 100.209 39.0875C100.207 39.0566 100.202 39.0261 100.196 38.9962C100.111 38.5803 99.7402 38.2648 99.2969 38.2648H69.625C69.1189 38.2648 68.7083 38.6755 68.7083 39.1816V39.9658H51.2893V39.1816C51.2893 38.6755 50.8784 38.2648 50.3726 38.2648H20.7007C20.2573 38.2648 19.8865 38.5779 19.8013 38.9962C19.7913 39.0564 19.7837 39.119 19.7837 39.1816V54.4735C19.7837 54.5109 19.7856 54.5482 19.7898 54.585C19.7913 54.5988 19.793 54.6124 19.7952 54.6261L19.8013 54.6588C19.8865 55.0747 20.2573 55.3904 20.7007 55.3904H99.2993C99.7429 55.3904 100.114 55.0773 100.199 54.6588ZM25.1624 40.0985H21.6174V53.5541H25.1624V40.0985ZM52.9678 41.7996H51.2893V43.6359H52.9678V41.7996ZM38.0042 42.689C37.9817 42.689 37.959 42.6864 37.9365 42.684C37.7512 42.6714 37.5684 42.6714 37.3828 42.684C37.3604 42.684 37.3379 42.6864 37.3152 42.689C37.2712 42.6918 37.2278 42.6963 37.1848 42.7015L37.0872 42.714C37.0796 42.714 37.072 42.714 37.0642 42.7151L37.0576 42.7164L37.0496 42.719V50.9838C37.0623 50.9862 37.0747 50.9862 37.0872 50.9888C37.1592 50.9984 37.2332 51.0056 37.3057 51.0127L37.3152 51.0138C37.3369 51.0138 37.3584 51.0161 37.3799 51.0184L37.3828 51.0188C37.5684 51.0314 37.7512 51.0314 37.9365 51.0188C37.959 51.0188 37.9817 51.0164 38.0042 51.0138L38.0474 51.0105C38.0706 51.0085 38.0938 51.0061 38.1169 51.0034L38.1484 50.9996L38.2322 50.9888L38.2471 50.9885C38.2546 50.988 38.2622 50.9868 38.2698 50.9838V42.719L38.252 42.7167L38.2417 42.7155L38.2322 42.714C38.1665 42.7052 38.0989 42.6985 38.0327 42.6919L38.0305 42.6915L38.0042 42.689ZM68.3049 45.4723C67.9165 46.0134 67.2827 46.3691 66.5664 46.3691H53.429C52.7124 46.3691 52.0786 46.0159 51.6904 45.4723H68.3049ZM86.6682 69.4722H84.8318V66.3733H77.2961V69.4722H75.4622V66.3733H67.9265V69.4722H66.0903V66.3733H58.5544V69.4722H56.7183V66.3733H49.1826V69.4722H47.3486V66.3733H39.813V69.4722H37.9766V66.3733H32.2373L40.8677 75.0038H43.0471V73.0747H44.8835V75.0038H46.8477V71.6067H48.6814V75.0038H50.6455V73.0747H52.4792V75.0038H54.4434V71.6067H56.2798V75.0038H58.2415V73.0747H60.0776V75.0038H62.0417V71.6067H63.8755V75.0038H65.8396V73.0747H67.676V75.0038H69.6377V71.6067H71.4739V75.0038H73.438V73.0747H75.272V75.0038H77.2358V71.6067H79.0723V75.0038H81.0339V73.0747H82.8701V75.0038H84.8318V71.6067H86.6682V75.0038H89.0605V66.3733H86.6682V69.4722ZM41.8374 46.8501C41.8374 48.2405 41.1533 49.473 40.1062 50.2322V43.468C41.1533 44.2272 41.8374 45.4597 41.8374 46.8501ZM54.804 43.6359V41.7996H64.5793V43.6359H54.804ZM38.2722 75.0037L30.9395 67.6709V95.772H39.5698V76.3014L39.189 75.9231L38.2722 75.0037ZM66.4158 41.7996H68.708V43.6359H66.4158V41.7996ZM33.4824 46.8501C33.4824 48.2405 34.1663 49.473 35.2134 50.2322V43.468C34.1663 44.2272 33.4824 45.4597 33.4824 46.8501ZM94.835 40.0985H98.3799V53.5541H94.835V40.0985ZM70.5444 40.0985V44.2272C70.5444 44.3374 70.5396 44.4451 70.5295 44.5529C70.5044 44.871 70.4392 45.1792 70.344 45.4697C69.8206 47.0555 68.325 48.203 66.5688 48.203H53.4338C51.6753 48.203 50.1797 47.0555 49.6584 45.4697C49.5608 45.1766 49.4983 44.871 49.4731 44.5529C49.4675 44.4913 49.4634 44.4299 49.4609 44.368C49.459 44.3214 49.458 44.2745 49.458 44.2272V40.0985H27.0012V53.5541H93.0039V40.0985H70.5444ZM39.4749 52.582C39.4749 52.582 39.4673 52.5846 39.4624 52.587C39.3721 52.6146 39.2793 52.6422 39.1868 52.6648C39.1753 52.6674 39.1638 52.6705 39.1523 52.6737L39.1331 52.679L39.1191 52.6823C39.0515 52.6998 38.9839 52.7148 38.9163 52.7299L38.8435 52.7449C38.7532 52.7625 38.6655 52.7775 38.5754 52.7925C38.4854 52.8051 38.395 52.8175 38.3049 52.8276L38.2246 52.8351C38.157 52.8427 38.0894 52.8477 38.0217 52.8501C37.9951 52.8501 37.9685 52.8524 37.9421 52.8547L37.9392 52.8551C37.8464 52.8601 37.7537 52.8627 37.6611 52.8627C37.5684 52.8627 37.4756 52.8601 37.3831 52.8551C37.3555 52.8551 37.3279 52.8527 37.3003 52.8501L37.0974 52.8351L37.0171 52.8276C36.927 52.8175 36.8369 52.8051 36.7466 52.7925C36.7146 52.7881 36.6826 52.7831 36.6509 52.7775L36.5918 52.7668L36.4785 52.7449L36.406 52.7299L36.4016 52.729L36.3972 52.7279L36.323 52.7113L36.2754 52.7002L36.2029 52.6823C36.1804 52.6772 36.158 52.6722 36.1353 52.6648L36.1199 52.6608C36.0752 52.6487 36.0305 52.6366 35.9863 52.624C35.9438 52.6121 35.9016 52.5999 35.8599 52.587L35.8552 52.5863L35.8508 52.584L35.8472 52.582C33.4172 51.8104 31.6511 49.5332 31.6511 46.8501C31.6511 44.167 33.4172 41.8898 35.8472 41.1182C35.8523 41.1182 35.8547 41.1157 35.8599 41.1132C35.8647 41.1132 35.8672 41.1132 35.8723 41.1107L35.9155 41.0974L35.9763 41.0796L36.063 41.0555C36.1277 41.0382 36.1926 41.0219 36.2581 41.0055L36.2744 41.0013L36.3008 40.9954C36.3152 40.9922 36.3296 40.9891 36.3433 40.9854C36.6165 40.9227 36.897 40.8827 37.1826 40.8577L37.1953 40.8575C37.2051 40.8574 37.2146 40.8569 37.2251 40.8551C37.3704 40.8451 37.5156 40.8376 37.6611 40.8376C37.8064 40.8376 37.9541 40.8451 38.0969 40.8551L38.1199 40.8555C38.1262 40.8558 38.1326 40.8564 38.1394 40.8577C38.425 40.8802 38.7058 40.9227 38.9788 40.9854L38.9966 40.9897L39.0164 40.9943L39.0215 40.9954L39.0483 41.0015L39.064 41.0055C39.1943 41.038 39.3245 41.0706 39.4497 41.1107L39.4553 41.111C39.4575 41.1112 39.4595 41.1118 39.4624 41.1132C39.4646 41.1132 39.4663 41.1138 39.468 41.1145L39.4709 41.1161L39.4749 41.1182C41.9048 41.8898 43.6711 44.167 43.6711 46.8501C43.6711 49.5332 41.9048 51.8104 39.4749 52.582ZM78.0876 42.5988C79.9841 40.7023 82.8428 40.3416 85.105 41.514C85.1099 41.514 85.115 41.5165 85.1199 41.519C85.1233 41.519 85.1255 41.5212 85.1282 41.5234L85.1323 41.5265C85.2476 41.5867 85.3604 41.6519 85.4707 41.7195C85.5007 41.7369 85.5308 41.757 85.5608 41.7771L85.6667 41.8461L85.7373 41.8929C85.7898 41.9283 85.8418 41.9646 85.894 42.0026H85.8965C86.0042 42.0826 86.1094 42.1678 86.2122 42.2556C86.2246 42.2656 86.2371 42.2762 86.2495 42.2872L86.2844 42.3184L86.2874 42.3207C86.3901 42.4109 86.4902 42.5011 86.5879 42.5988C86.6855 42.6964 86.7808 42.7992 86.8711 42.9044C86.8887 42.9244 86.906 42.947 86.9236 42.967C87.1116 43.1875 87.282 43.4205 87.4348 43.666C87.4373 43.671 87.4397 43.6735 87.4421 43.6785C87.5198 43.8038 87.5925 43.9315 87.6602 44.0593L87.6614 44.0624L87.6626 44.0642C87.6638 44.066 87.6653 44.068 87.6653 44.0693C87.6653 44.073 87.6665 44.0753 87.6682 44.0782L87.6702 44.0819C88.1111 44.9261 88.3467 45.8706 88.3467 46.8501C88.3467 48.4559 87.7202 49.9667 86.5854 51.1014C85.4507 52.2363 83.9399 52.8627 82.334 52.8627C81.3572 52.8627 80.4177 52.6296 79.5759 52.1913C79.5684 52.1887 79.5608 52.1863 79.5532 52.1813L79.5508 52.1804L79.5486 52.1788L79.5457 52.177L79.5432 52.1763C79.4131 52.1086 79.2878 52.0359 79.165 51.9583C79.1599 51.9558 79.1523 51.9508 79.1475 51.9482C78.9045 51.7954 78.6714 51.6251 78.4536 51.4397C78.4309 51.4221 78.4109 51.4021 78.3884 51.3845L78.3101 51.3151L78.2351 51.2474L78.1836 51.1995L78.1433 51.1611L78.0852 51.104C77.9875 51.0063 77.8948 50.9036 77.8047 50.8009L77.7495 50.7383C77.5615 50.5178 77.3914 50.2848 77.2385 50.0417C77.2361 50.0367 77.2334 50.0317 77.2285 50.0267C77.1509 49.9039 77.0781 49.7762 77.0105 49.646C77.0105 49.6449 77.0095 49.6432 77.0083 49.6415C77.0071 49.6394 77.0054 49.6373 77.0054 49.636C77.0054 49.631 77.0029 49.6259 77.0005 49.6208C76.5596 48.7766 76.3267 47.8322 76.3267 46.8527C76.3267 45.2468 76.9529 43.7361 78.0876 42.6013V42.5988ZM79.155 49.5532L79.1975 49.6033C79.2551 49.671 79.3152 49.7361 79.3779 49.7987L79.3828 49.8037C79.3828 49.8037 79.3879 49.8087 79.3904 49.8087C79.4531 49.8713 79.5183 49.9315 79.5833 49.9891L79.6096 50.0123C79.6174 50.0192 79.6252 50.0258 79.6335 50.0317C79.7036 50.0918 79.7737 50.147 79.8464 50.1996L85.686 44.3574C85.6533 44.3145 85.6208 44.2723 85.5879 44.2306L85.5183 44.1444L85.5161 44.1418L85.4995 44.1227C85.4907 44.1128 85.4819 44.1031 85.4731 44.0944C85.4431 44.0603 85.4124 44.0262 85.3809 43.9926C85.3521 43.9618 85.3228 43.9314 85.2927 43.9015C85.2927 43.9015 85.2878 43.8965 85.2878 43.8939L85.2803 43.8865C85.2175 43.8237 85.155 43.7661 85.0898 43.7085L85.0869 43.7061L85.084 43.7037C85.0659 43.6879 85.0479 43.672 85.0298 43.6584C84.9746 43.6108 84.917 43.5658 84.8594 43.5206L84.8491 43.5134L84.8413 43.507L84.8267 43.493L78.9846 49.3353L79.0378 49.4052C79.0757 49.4541 79.114 49.5023 79.155 49.5482V49.5532ZM85.2927 49.8037C84.5037 50.5929 83.4539 51.0262 82.3391 51.0262C82.1135 51.0262 81.8931 51.0087 81.6753 50.9736L86.4626 46.1862C86.4868 46.3357 86.5024 46.4865 86.5103 46.6392C86.5137 46.709 86.5154 46.7793 86.5154 46.8501C86.5154 47.9648 86.0818 49.0145 85.2927 49.8037ZM83.0005 42.729C82.78 42.694 82.5596 42.6764 82.3391 42.6764C81.2693 42.6764 80.1997 43.0823 79.3855 43.899C78.5962 44.6881 78.1628 45.7378 78.1628 46.8527C78.1628 47.0781 78.1804 47.2986 78.2156 47.5165L83.0005 42.7316V42.729Z" fill="#A0A0A0"/>
</svg>
