<svg width="120" height="120" viewBox="0 0 120 120" fill="none" xmlns="http://www.w3.org/2000/svg">
<path d="M95.1825 98.1889L83.3525 77.6889C83.1125 77.2689 82.7025 76.9589 82.2325 76.8289C81.7625 76.6989 81.2625 76.7689 80.8425 77.0089L77.6625 78.8489L73.1925 71.0989C86.9625 62.0489 91.4625 43.6489 83.1225 29.1989C74.4625 14.2189 55.2225 9.06887 40.2425 17.7189C32.9825 21.9089 27.7925 28.6789 25.6225 36.7789C23.4525 44.8789 24.5625 53.3389 28.7625 60.5989C34.5725 70.6589 45.1425 76.2889 55.9925 76.2889C60.7325 76.2889 65.5325 75.2089 70.0125 72.9589L74.4925 80.7089L71.3125 82.5489C70.4325 83.0589 70.1325 84.1789 70.6425 85.0589L82.4725 105.559C82.7125 105.979 83.1225 106.289 83.5925 106.419C83.7525 106.459 83.9125 106.479 84.0725 106.479C84.3925 106.479 84.7125 106.399 84.9925 106.229L94.5425 100.719C95.4225 100.209 95.7225 99.0889 95.2125 98.2089L95.1825 98.1889ZM55.9725 72.5989C46.3925 72.5989 37.0525 67.6289 31.9325 58.7489C28.2325 52.3389 27.2525 44.8689 29.1625 37.7189C31.0825 30.5689 35.6625 24.5989 42.0725 20.8889C46.4225 18.3789 51.1825 17.1789 55.8825 17.1789C65.4625 17.1789 74.8025 22.1489 79.9225 31.0289C87.5625 44.2589 83.0125 61.2389 69.7825 68.8789C65.4325 71.3889 60.6725 72.5889 55.9725 72.5889V72.5989ZM84.7225 102.109L74.7225 84.7989L81.0825 81.1289L91.0825 98.4389L84.7225 102.109ZM65.3625 57.6589C65.3625 57.6589 65.3125 57.6589 65.2825 57.6589C65.2525 57.6589 65.2225 57.6589 65.1925 57.6589H59.3125C58.5425 57.6589 57.8625 56.9889 57.8625 56.2289V51.1389C57.8625 50.0489 57.0025 49.4789 56.1525 49.4789C55.3025 49.4789 54.4425 50.0489 54.4425 51.1389V56.2289C54.4425 56.9889 53.7625 57.6589 52.9925 57.6589H46.9725C46.2025 57.6589 45.5225 56.9889 45.5225 56.2289V42.4089C45.5225 42.1589 45.3125 41.9489 45.0625 41.9489H44.6225C43.8825 41.9489 43.4625 41.4689 43.3025 41.0189C43.1525 40.5889 43.1925 39.9889 43.7225 39.5689L55.0425 30.6889C55.3225 30.4689 55.6325 30.3489 55.9325 30.3489C56.2325 30.3489 56.5425 30.4689 56.8225 30.6889L67.9925 39.5589C68.7825 40.1089 68.6125 40.8889 68.5325 41.1189C68.3925 41.5589 67.9725 42.0789 67.2425 42.0789H66.8025C66.5525 42.0789 66.3425 42.2889 66.3425 42.5389V56.3589C66.3425 56.6889 66.2125 57.0289 65.9925 57.2989C65.7925 57.5289 65.5625 57.6689 65.3525 57.6689L65.3625 57.6589ZM55.9425 46.7789C58.4025 46.7789 60.4725 48.8289 60.4725 51.2589V54.6089C60.4725 54.8589 60.6825 55.0689 60.9325 55.0689H62.9925C63.2425 55.0689 63.4525 54.8589 63.4525 54.6089V42.6789C63.4525 42.4289 63.2425 42.2189 62.9925 42.2189H48.5925C48.3425 42.2189 48.1325 42.4289 48.1325 42.6789V54.6089C48.1325 54.8589 48.3425 55.0689 48.5925 55.0689H50.9425C51.1925 55.0689 51.4025 54.8589 51.4025 54.6089V51.2589C51.4025 48.8289 53.4825 46.7789 55.9325 46.7789H55.9425ZM55.9425 33.6389C55.8425 33.6389 55.7325 33.6789 55.6525 33.7389L49.6325 38.5389C49.4825 38.6589 49.4225 38.8689 49.4825 39.0489C49.5425 39.2289 49.7225 39.3589 49.9225 39.3589H61.9725C62.1725 39.3589 62.3425 39.2389 62.4125 39.0489C62.4725 38.8689 62.4125 38.6589 62.2625 38.5389L56.2425 33.7389C56.1625 33.6789 56.0625 33.6389 55.9525 33.6389H55.9425Z" fill="black"/>
</svg>
