<svg width="120" height="120" viewBox="0 0 120 120" fill="none" xmlns="http://www.w3.org/2000/svg">
<path fill-rule="evenodd" clip-rule="evenodd" d="M103 102H102.848L103 101.844V102ZM95.9524 64.1738C96.5889 64.0435 97.0522 63.48 97.0522 62.8286V57.5171C97.0522 56.8657 96.5889 56.3022 95.9524 56.1719L92.7559 55.5283C92.3525 54.0151 91.751 52.5571 90.9644 51.189L92.7832 48.4385C93.1392 47.8999 93.0664 47.1758 92.6104 46.7173L88.8853 42.9619C88.4219 42.4961 87.6929 42.4233 87.1465 42.7891L84.4336 44.6128C83.0781 43.8213 81.6377 43.2178 80.1394 42.8169L79.498 39.5874C79.373 38.9463 78.8066 38.4829 78.1553 38.4829H76.0811V29.604C76.0811 29.0278 75.6099 28.5571 75.0337 28.5571H43.4856C43.3655 28.5571 43.2461 28.5785 43.1335 28.6189C43.1099 28.6274 43.0864 28.6368 43.0632 28.647C42.9468 28.6987 42.8389 28.7715 42.7466 28.8628L31.1147 40.4492V40.4692C31.0825 40.5143 31.054 40.5618 31.0293 40.6111C31.0117 40.6461 30.9961 40.6821 30.9824 40.7188C30.9395 40.8344 30.917 40.9572 30.917 41.0806V86.8809C30.917 87.457 31.3879 87.9282 31.9641 87.9282H75.0337C75.6099 87.9282 76.0811 87.457 76.0811 86.8809V81.8633H78.1553C78.8066 81.8633 79.373 81.397 79.498 80.7583L80.1394 77.5288C81.6326 77.1284 83.0757 76.5244 84.4336 75.7329L87.1465 77.5542C87.6902 77.9224 88.4219 77.8496 88.8853 77.3838L92.6104 73.6284C93.0664 73.1699 93.1392 72.4458 92.7832 71.9048L90.9644 69.1567C91.751 67.7886 92.3525 66.333 92.7559 64.8174L95.9524 64.1738ZM40.0159 42.1304C42.5085 42.1304 44.5352 40.1084 44.5352 37.6235V30.6538H73.9893V85.8364H33.0137V42.1304H40.0159ZM42.739 79.6436C43.3152 79.6436 43.7861 79.1724 43.7861 78.5962V73.1348C43.7861 72.5586 43.3152 72.0879 42.739 72.0879H37.2576C36.6814 72.0879 36.2104 72.5586 36.2104 73.1348V78.5962C36.2104 79.1724 36.6814 79.6436 37.2576 79.6436H42.739ZM42.739 67.2725C43.3152 67.2725 43.7861 66.8018 43.7861 66.2256V60.7642C43.7861 60.188 43.3152 59.7168 42.739 59.7168H37.2576C36.6814 59.7168 36.2104 60.188 36.2104 60.7642V66.2256C36.2104 66.8018 36.6814 67.2725 37.2576 67.2725H42.739ZM42.739 54.9043C43.3152 54.9043 43.7861 54.4336 43.7861 53.8574V48.3984C43.7861 47.8223 43.3152 47.3511 42.739 47.3511H37.2576C36.6814 47.3511 36.2104 47.8223 36.2104 48.3984V53.8574C36.2104 54.4336 36.6814 54.9043 37.2576 54.9043H42.739ZM49.0422 50.082C48.4658 50.082 47.9951 50.5527 47.9951 51.1289C47.9951 51.7051 48.4658 52.1763 49.0422 52.1763H69.7454C70.3215 52.1763 70.7925 51.7051 70.7925 51.1289C70.7925 50.5527 70.3215 50.082 69.7454 50.082H49.0422ZM69.7454 62.4502H49.0422C48.4658 62.4502 47.9951 62.9209 47.9951 63.4971C47.9951 64.0732 48.4658 64.5444 49.0422 64.5444H69.7454C70.3215 64.5444 70.7925 64.0732 70.7925 63.4971C70.7925 62.9209 70.3215 62.4502 69.7454 62.4502ZM49.0422 74.8184C48.4658 74.8184 47.9951 75.2896 47.9951 75.8657C47.9951 76.4419 48.4658 76.9126 49.0422 76.9126H69.7454C70.3215 76.9126 70.7925 76.4419 70.7925 75.8657C70.7925 75.2896 70.3215 74.8184 69.7454 74.8184H49.0422ZM41.6919 49.4458H38.3049V52.8101H41.6919V49.4458ZM38.3049 61.814H41.6919V65.1807H38.3049V61.814ZM41.6919 74.1821H38.3049V77.5493H41.6919V74.1821ZM42.4409 32.127V37.6235C42.4409 38.9536 41.3535 40.0361 40.0156 40.0361H34.502L42.4409 32.127ZM88.186 51.9009C89.1958 53.4663 89.9023 55.1772 90.283 56.9839C90.3958 57.5171 90.814 57.9331 91.3528 58.0435L94.3088 58.6396V61.7061L91.3528 62.3022C90.8167 62.4126 90.3958 62.8286 90.283 63.3618C89.9023 65.1685 89.1958 66.8794 88.186 68.4453C87.8931 68.9009 87.8955 69.4897 88.1963 69.9434L89.8796 72.4883L87.7378 74.6479L85.23 72.9644C84.7739 72.6562 84.1802 72.6514 83.7144 72.9521C82.156 73.9717 80.4624 74.6807 78.6787 75.064C78.1426 75.1768 77.7268 75.6001 77.6216 76.1362L77.0278 79.1196H76.0811V70.7222C81.1138 69.8203 84.8567 65.3613 84.8567 60.1704C84.8567 54.9795 81.1138 50.5205 76.0811 49.6182V41.2261H77.0278L77.6216 44.207C77.7268 44.7456 78.1426 45.1665 78.6787 45.2817C80.4624 45.665 82.1587 46.374 83.7144 47.3911C84.1753 47.6919 84.769 47.687 85.2275 47.3813L87.7378 45.6978L89.8796 47.8574L88.1963 50.4023C87.8955 50.856 87.8931 51.4448 88.186 51.9009ZM76.0811 52.4165C79.6084 53.2759 82.1135 56.4502 82.1135 60.1704C82.1135 63.8931 79.6084 67.0698 76.0811 67.9268V52.4165Z" fill="#A0A0A0"/>
</svg>
