<svg width="120" height="120" viewBox="0 0 120 120" fill="none" xmlns="http://www.w3.org/2000/svg">
<path d="M51.7099 50.9851C44.4899 50.9851 38.6199 56.8551 38.6199 64.0751C38.6199 66.4151 39.2498 68.7151 40.4398 70.7251C42.7898 74.6951 47.1099 77.1651 51.7099 77.1651C56.3099 77.1651 60.3399 74.8951 62.7599 71.0851C64.0899 68.9951 64.7999 66.5651 64.7999 64.0851C64.7999 56.8651 58.9299 50.9951 51.7099 50.9951V50.9851ZM60.5499 69.6751C58.6199 72.7251 55.3098 74.5451 51.7198 74.5451C48.1298 74.5451 44.5899 72.5751 42.7099 69.3951C41.7599 67.7951 41.2599 65.9551 41.2599 64.0851C41.2599 58.3151 45.9498 53.6251 51.7198 53.6251C57.4898 53.6251 62.1799 58.3151 62.1799 64.0851C62.1799 66.0751 61.6199 68.0051 60.5499 69.6751Z" fill="#040000"/>
<path d="M56.1499 61.955L50.2799 57.785C49.4799 57.215 48.4499 57.145 47.5799 57.595C46.7099 58.045 46.1699 58.925 46.1699 59.905V68.245C46.1699 68.605 46.2399 68.945 46.3799 69.265C46.6899 69.985 47.3099 70.525 48.0699 70.745C48.2999 70.815 48.5399 70.845 48.7699 70.845C49.2999 70.845 49.8199 70.675 50.2699 70.365L56.1399 66.195C56.8299 65.705 57.2299 64.915 57.2299 64.075C57.2299 63.235 56.8199 62.445 56.1399 61.955H56.1499ZM48.8099 68.215L48.7599 59.935L54.6299 64.055L48.8099 68.215Z" fill="#040000"/>
<path d="M92.5399 37.275V35.915C92.5399 32.715 85.1899 32.555 83.7099 32.555C82.2299 32.555 74.8899 32.715 74.8899 35.915V37.135H70.1199C67.9999 37.135 66.1599 35.765 65.5499 33.725C65.5499 33.705 65.5299 33.665 65.5199 33.635C64.6499 30.815 62.0799 28.915 59.1199 28.915H42.3299C39.3499 28.915 36.7699 30.835 35.9099 33.685C35.6099 34.675 35.0099 35.525 34.1799 36.145C33.3399 36.765 32.3599 37.085 31.3299 37.085H29.7599C26.8099 37.085 24.0399 38.235 21.9599 40.315C19.8699 42.405 18.7099 45.175 18.7099 48.135L18.6799 79.955C18.6799 86.045 23.6299 91.015 29.7299 91.025L90.8499 91.085C96.6199 91.085 101.32 86.395 101.32 80.615V47.595C101.32 42.475 97.5399 38.095 92.5599 37.275H92.5399ZM98.6699 80.615C98.6699 84.935 95.1499 88.455 90.8299 88.455L29.7099 88.395C25.0599 88.395 21.2699 84.595 21.2799 79.955L21.3099 48.135C21.3099 45.885 22.1899 43.765 23.7899 42.175C25.3799 40.585 27.4899 39.715 29.7399 39.715H31.3099C32.9099 39.715 34.4299 39.215 35.7299 38.255C37.0199 37.295 37.9499 35.975 38.4099 34.445C38.9299 32.705 40.4999 31.545 42.3099 31.545H59.0999C60.8799 31.545 62.4899 32.735 62.9999 34.445C62.9999 34.465 63.0199 34.505 63.0299 34.535C63.9999 37.655 66.8299 39.755 70.0999 39.755H76.1799C76.5299 39.755 76.8599 39.615 77.1099 39.375C77.3599 39.125 77.4899 38.795 77.4899 38.445V36.205C78.0999 35.805 80.2599 35.175 83.6899 35.175C87.1199 35.175 89.2799 35.795 89.8899 36.205V38.445C89.8899 39.175 90.4799 39.755 91.1999 39.755H91.2499C91.3099 39.765 91.3699 39.775 91.4299 39.785C95.4699 40.105 98.6399 43.535 98.6399 47.595V80.615H98.6699Z" fill="#040000"/>
<path d="M47.1898 43.2651H54.1398C55.8698 43.2651 57.2798 41.8551 57.2798 40.1251V36.4751C57.2798 34.7451 55.8698 33.3351 54.1398 33.3351H47.1898C45.4598 33.3351 44.0498 34.7451 44.0498 36.4751V40.1251C44.0498 41.8551 45.4598 43.2651 47.1898 43.2651ZM46.6798 36.4751C46.6798 36.1951 46.9098 35.9651 47.1898 35.9651H54.1398C54.4198 35.9651 54.6498 36.1951 54.6498 36.4751V40.1251C54.6498 40.4051 54.4198 40.6351 54.1398 40.6351H47.1898C46.9098 40.6351 46.6798 40.4051 46.6798 40.1251V36.4751Z" fill="#040000"/>
<path d="M73.98 45.045H29.4301C27.7001 45.045 26.29 46.455 26.29 48.185V79.925C26.29 81.655 27.7001 83.065 29.4301 83.065L73.98 83.105C74.82 83.105 75.6 82.775 76.2 82.185C76.79 81.595 77.1201 80.805 77.1201 79.965V48.175C77.1201 46.445 75.71 45.035 73.98 45.035V45.045ZM74.4901 79.965C74.4901 80.155 74.4001 80.275 74.3401 80.325C74.2801 80.375 74.16 80.475 73.98 80.475L29.4301 80.435C29.1501 80.435 28.92 80.205 28.92 79.925V48.185C28.92 47.905 29.1501 47.675 29.4301 47.675H73.98C74.26 47.675 74.4901 47.905 74.4901 48.185V79.975V79.965Z" fill="#040000"/>
<path d="M93.8898 58.545C93.8898 55.015 91.0198 52.145 87.4898 52.145C83.9598 52.145 81.0898 55.015 81.0898 58.545C81.0898 62.075 83.9598 64.945 87.4898 64.945C91.0198 64.945 93.8898 62.075 93.8898 58.545ZM87.4898 62.315C85.4098 62.315 83.7098 60.625 83.7098 58.535C83.7098 56.445 85.3998 54.755 87.4898 54.755C89.5798 54.755 91.2698 56.445 91.2698 58.535C91.2698 60.625 89.5798 62.315 87.4898 62.315Z" fill="#040000"/>
<path d="M94.3 70.745H90.85C90.12 70.745 89.54 71.335 89.54 72.055C89.54 72.775 90.13 73.365 90.85 73.365H94.3C95.03 73.365 95.61 72.775 95.61 72.055C95.61 71.335 95.02 70.745 94.3 70.745Z" fill="#040000"/>
<path d="M84.1199 70.785H80.6699C79.9399 70.785 79.3599 71.375 79.3599 72.095C79.3599 72.815 79.9499 73.405 80.6699 73.405H84.1199C84.8499 73.405 85.4299 72.815 85.4299 72.095C85.4299 71.375 84.8399 70.785 84.1199 70.785Z" fill="#040000"/>
</svg>
