<svg width="120" height="120" viewBox="0 0 120 120" fill="none" xmlns="http://www.w3.org/2000/svg">
<path d="M70.478 57.665C70.478 57.665 70.418 57.665 70.398 57.665C70.368 57.665 70.328 57.665 70.298 57.665H63.788C62.928 57.665 62.178 56.925 62.178 56.075V50.435C62.178 49.225 61.228 48.595 60.278 48.595C59.328 48.595 58.378 49.225 58.378 50.435V56.075C58.378 56.915 57.628 57.665 56.768 57.665H50.088C49.228 57.665 48.478 56.925 48.478 56.075V40.755C48.478 40.475 48.248 40.245 47.968 40.245H47.478C46.658 40.245 46.188 39.715 46.018 39.215C45.858 38.735 45.898 38.065 46.488 37.615L59.028 27.775C59.338 27.525 59.678 27.395 60.018 27.395C60.358 27.395 60.698 27.525 61.008 27.765L73.388 37.605C74.258 38.215 74.068 39.085 73.988 39.335C73.838 39.825 73.368 40.405 72.568 40.405H72.078C71.798 40.405 71.568 40.635 71.568 40.915V56.235C71.568 56.605 71.428 56.975 71.178 57.275C70.958 57.525 70.698 57.685 70.468 57.685L70.478 57.665ZM60.028 45.605C62.748 45.605 65.058 47.885 65.058 50.575V54.285C65.058 54.565 65.288 54.795 65.568 54.795H67.848C68.128 54.795 68.358 54.565 68.358 54.285V41.065C68.358 40.785 68.128 40.555 67.848 40.555H51.888C51.608 40.555 51.378 40.785 51.378 41.065V54.285C51.378 54.565 51.608 54.795 51.888 54.795H54.498C54.778 54.795 55.008 54.565 55.008 54.285V50.575C55.008 47.885 57.308 45.605 60.038 45.605H60.028ZM60.028 31.045C59.908 31.045 59.798 31.085 59.708 31.155L53.028 36.475C52.858 36.605 52.788 36.835 52.868 37.045C52.938 37.245 53.138 37.385 53.348 37.385H66.698C66.918 37.385 67.108 37.245 67.178 37.045C67.248 36.845 67.178 36.615 67.018 36.475L60.338 31.155C60.248 31.085 60.138 31.045 60.018 31.045H60.028Z" fill="#060001"/>
<path d="M92.2717 66.8851C91.1017 64.8851 89.0217 63.6851 86.7017 63.6851C84.9717 63.6851 83.2517 63.9251 81.5917 64.3951L66.9517 68.5151C66.2717 65.7551 63.7817 63.6951 60.8117 63.6951H43.6317C39.3317 63.6951 35.2417 65.3551 32.1317 68.3751C30.3817 70.0751 29.3717 72.4351 29.3717 74.8551C29.3717 75.6051 29.0817 76.3051 28.5517 76.8351L27.3417 78.0451C26.6817 78.7051 26.6817 79.7751 27.3417 80.4351C27.6717 80.7651 28.1017 80.925 28.5317 80.925C28.9617 80.925 29.3917 80.7551 29.7217 80.4351L30.9317 79.2251C32.1017 78.0551 32.7417 76.5051 32.7417 74.8651C32.7417 73.3551 33.3717 71.8751 34.4717 70.8151C36.9517 68.4151 40.2117 67.0851 43.6317 67.0851H60.8117C62.4417 67.0851 63.7617 68.405 63.7617 70.035C63.7617 71.665 62.4417 72.9851 60.8117 72.9851H46.9517C46.0217 72.9851 45.2617 73.745 45.2617 74.675C45.2617 75.605 46.0217 76.3651 46.9517 76.3651H60.8117C63.5817 76.3651 65.9417 74.5651 66.7917 72.0851L82.5017 67.6651C83.8717 67.2851 85.2817 67.0851 86.7017 67.0851C87.8117 67.0851 88.8017 67.6551 89.3517 68.6051C89.8317 69.4251 89.9017 70.3851 89.5717 71.2451L64.8617 83.7351C63.7017 84.3251 62.4017 84.6251 61.1117 84.6251H47.8317C44.5117 84.6251 41.3817 85.9151 39.0317 88.2651L37.5817 89.7151C36.9217 90.3751 36.9217 91.4451 37.5817 92.1051C37.9117 92.4351 38.3417 92.6051 38.7717 92.6051C39.2017 92.6051 39.6317 92.4351 39.9617 92.1151L41.4117 90.6651C43.1217 88.9551 45.4017 88.0051 47.8217 88.0051H61.1017C62.9217 88.0051 64.7517 87.5651 66.3817 86.7451L91.6017 73.9951C91.9017 73.8451 92.1417 73.6051 92.3117 73.3151C93.4517 71.2951 93.4317 68.8951 92.2617 66.8951L92.2717 66.8851Z" fill="#060001"/>
</svg>
