<svg width="120" height="120" viewBox="0 0 120 120" fill="none" xmlns="http://www.w3.org/2000/svg">
<path fill-rule="evenodd" clip-rule="evenodd" d="M102.848 102L103 101.844V102H102.848ZM89.2862 75.8029L91.8289 74.3348L91.8313 74.3448C93.6551 73.3628 94.3392 70.9879 93.2718 69.139L84.5411 54.0175C83.5591 52.1937 81.1841 51.5047 79.3353 52.572V52.577L78.8919 52.8325V44.0943L79.0923 44.2396C79.8138 44.7581 80.6756 44.9361 81.4898 44.8058C84.3458 44.3448 85.19 40.6772 82.8653 39.0012L61.8914 23.8722C60.7442 23.0429 59.2635 23.0429 58.1187 23.8722L37.1424 39.0012C36.431 39.5199 35.9825 40.2439 35.8448 41.1106C35.3887 43.9541 38.6131 45.9006 40.9202 44.2396L41.1158 44.0943V52.8851L40.7298 52.6622C40.7098 52.6496 40.6924 52.6372 40.6722 52.6246C38.866 51.5775 36.5462 52.2013 35.4991 54.0075L35.504 54.0125L26.7908 69.104C25.6434 70.8927 26.3274 73.4405 28.2112 74.4126L30.7215 75.8606C32.0369 76.6222 33.6451 76.5094 34.8326 75.6501C35.6819 77.3562 36.8394 78.7766 38.1045 79.9491C37.6885 81.9933 38.9537 84.015 40.9854 84.5161C39.8731 87.0664 41.7295 89.9699 44.5628 89.9649V89.9724L44.6028 89.9714L44.6363 89.9699L44.6421 89.9696C44.6658 89.9685 44.6897 89.9674 44.7132 89.9674V90.005H44.7083C44.7083 92.886 47.7195 94.7549 50.2923 93.5247C51.0489 96.4109 54.6839 97.4229 56.8209 95.291L58.815 93.2918L63.9158 96.238C65.7671 97.3153 68.1595 96.6814 69.2393 94.8125H69.2342C69.605 94.1887 69.773 93.4647 69.7603 92.7933C69.8582 92.7733 69.9507 92.7407 70.0411 92.6955C70.0943 92.6966 70.1475 92.6966 70.2005 92.6955C70.2366 92.6948 70.2728 92.6936 70.3089 92.6917C70.4161 92.6865 70.523 92.6768 70.629 92.6628C70.6976 92.6538 70.7662 92.6429 70.8343 92.6303C70.9314 92.6123 71.0279 92.5905 71.1233 92.5653C72.8267 92.1093 74.0193 90.5461 74.0118 88.7749C74.0853 88.764 74.1565 88.7473 74.2266 88.7234L74.2544 88.7135L74.2894 88.6999C74.3104 88.6914 74.3313 88.6822 74.3523 88.6722C74.7183 88.6747 75.0865 88.6296 75.4397 88.537C76.4017 88.2789 77.2686 87.6526 77.8047 86.7207H77.7996C78.3082 85.8488 78.4361 84.8392 78.2356 83.9323C80.7684 83.5114 82.2164 80.7883 81.1465 78.4609C82.4944 77.6342 83.792 76.592 85.0047 75.4571C86.2046 76.4342 87.9056 76.5996 89.2862 75.8029ZM80.345 42.4909L61.8914 29.1782C60.7442 28.349 59.2635 28.349 58.1187 29.1782L39.6651 42.4909C39.4246 42.6638 39.1316 42.724 38.8584 42.6788C37.9241 42.5285 37.606 41.306 38.3951 40.7373L59.3711 25.6057C59.752 25.3302 60.2505 25.3302 60.6363 25.6057L81.6102 40.7373C81.8582 40.9151 81.9935 41.1356 82.0411 41.4413C82.1963 42.3983 81.1141 43.0445 80.345 42.4909ZM55.0171 60.9521C55.3577 60.7166 55.7085 60.5287 56.117 60.3608L56.1143 60.3634C58.5245 59.3737 60.9996 58.6097 63.5474 58.1814C64.0508 58.1012 64.4993 58.0711 64.9878 58.0912V48.5913H55.0171V60.9521ZM42.1905 55.9741L41.742 55.7186L39.5926 54.4759C38.816 54.0276 37.8064 54.2981 37.3528 55.0772L28.5897 70.2589C28.1412 71.0329 28.4117 72.045 29.191 72.4935L29.1858 72.4985L31.7837 73.9967C32.5579 74.445 33.5701 74.1745 34.0235 73.3954L42.7891 58.2137C43.2376 57.4397 42.9647 56.4226 42.1905 55.9741ZM52.1211 76.7574C51.6727 76.7574 51.2269 76.9253 50.8887 77.266L43.3255 84.8292C42.2232 85.9315 43.0198 87.813 44.5579 87.813V87.808C45.0064 87.808 45.4498 87.6375 45.7906 87.2994L53.3538 79.7362L52.1211 76.7574ZM46.0735 74.8183C47.6243 74.8183 48.4058 76.7022 47.306 77.797L43.1548 81.9531C42.8091 82.2964 42.3733 82.4668 41.9173 82.4668C40.3665 82.4668 39.5899 80.5829 40.6849 79.488L44.8409 75.3319C45.1817 74.9886 45.6251 74.8183 46.0735 74.8183ZM76.7374 54.0652V42.5335L60.6365 30.9144C60.2505 30.6388 59.752 30.6388 59.3714 30.9144L43.2703 42.5335V54.1178C44.6307 54.9068 45.337 56.43 45.1216 57.9356C46.9412 58.7965 48.712 59.3579 50.5159 59.9299C51.2898 60.1753 52.0699 60.4226 52.8626 60.6964V47.514C52.8626 46.9203 53.3438 46.4342 53.9424 46.4342H66.0677C66.6614 46.4342 67.1424 46.9177 67.1424 47.514V58.532C67.574 58.6819 68.0687 58.8939 68.5816 59.1139C69.8521 59.6587 71.2359 60.2522 72.0601 60.0702C73.1827 59.8171 74.1595 59.4062 75.1568 58.8375C74.4026 57.0864 75.0716 55.0271 76.74 54.0676L76.7374 54.0652ZM55.5284 80.6104C55.8665 80.2673 56.3123 80.0969 56.7608 80.0969H56.7632C58.314 80.0969 59.0906 81.9808 57.9959 83.0757L49.8389 91.2326C48.7442 92.3274 46.8602 91.5508 46.8602 89.9951H46.8553C46.8553 89.5516 47.0306 89.1082 47.3714 88.7625L55.5284 80.6104ZM91.4131 70.2038L82.6473 55.0272C82.1963 54.2456 81.1868 53.9775 80.4126 54.4259H80.4075L77.762 55.9566C77.0506 56.36 76.7801 57.4372 77.1709 58.0986L85.9417 73.2903C86.2022 73.7186 86.4954 73.9817 86.9712 74.1095C87.3772 74.2197 87.8255 74.1745 88.2164 73.9516L90.8094 72.451C91.5909 72.0025 91.8589 70.9904 91.4105 70.2163V70.2113L91.4131 70.2038ZM78.5462 78.6089L69.5875 73.4381C69.3221 73.3979 69.0589 73.3453 68.7933 73.2802C66.1553 72.6213 63.6202 70.6722 61.0523 67.2126L59.5516 67.2326C57.3045 70.4041 54.4358 71.3311 52.2715 71.1733C51.0589 71.0831 49.8013 70.6272 49.0848 69.7328C48.4585 68.9461 48.3433 68.0117 48.9419 67.1074C49.7037 65.9525 51.377 64.299 52.7925 62.9561C51.753 62.5786 50.7564 62.2628 49.771 61.9505C47.9708 61.3802 46.2076 60.8216 44.2874 59.9199L36.3233 73.7136C36.9795 75.4096 37.9866 76.81 39.1592 77.9699L43.3177 73.8112C45.3897 71.7395 48.907 72.6189 49.7889 75.377C50.4776 74.8611 51.2994 74.6004 52.1211 74.6004V74.6054C54.0901 74.6054 55.7486 76.066 55.9866 78.0251C58.3968 77.5366 60.659 79.3753 60.659 81.848C60.659 82.7148 60.3709 83.5866 59.792 84.2982C62.5352 85.1925 63.4022 88.6974 61.3379 90.7667L60.3809 91.7236L64.9878 94.3817C66.3282 95.1457 67.9466 93.9132 67.5433 92.4126C67.398 91.8589 67.1124 91.5908 66.669 91.3127L64.6497 90.1478C64.136 89.8497 63.9607 89.1959 64.2588 88.6823C64.5569 88.1662 65.2159 87.9908 65.7269 88.2865L69.3045 90.3532C70.5621 91.0372 72.198 89.8647 71.792 88.3466C71.6568 87.843 71.3763 87.5274 70.9253 87.2468L65.9 84.3482C65.3863 84.0501 65.211 83.3962 65.504 82.8827C65.8021 82.3691 66.4561 82.1913 66.9695 82.4869L73.5557 86.2848C74.3851 86.7658 75.4573 86.4802 75.9407 85.641V85.646C76.4217 84.8117 76.136 83.742 75.2969 83.256L69.5374 79.9266C69.0213 79.6334 68.846 78.9746 69.139 78.461C69.4373 77.9474 70.0911 77.7721 70.6045 78.0652L76.3768 81.3946C76.9354 81.7153 77.3462 81.9608 78.0525 81.7679C79.5857 81.357 79.7486 79.3429 78.5462 78.6089ZM57.347 86.7683C57.6978 86.425 58.1287 86.2547 58.5845 86.2547V86.2572C60.1353 86.2572 60.9119 88.1411 59.8172 89.2359L55.2952 93.7578C55.0699 93.9848 54.7974 94.1362 54.5105 94.2127C54.3636 94.2519 54.2129 94.2715 54.0628 94.2715C52.5069 94.2715 51.7354 92.385 52.825 91.2951L57.347 86.7683ZM72.5162 62.162C71.0298 62.4974 69.4991 61.8416 67.9725 61.1877L67.9366 61.1723L67.754 61.0934C66.3992 60.507 65.3565 60.0559 63.8982 60.3005C61.5132 60.7038 59.181 61.4204 56.9312 62.3473C56.6229 62.4731 56.3807 62.6159 56.1639 62.7767C55.9256 62.9532 55.7176 63.1513 55.4859 63.3729L55.483 63.3755C55.4139 63.4415 55.3426 63.5096 55.2676 63.5798L55.0528 63.7802C54.9468 63.8792 54.8375 63.9813 54.7266 64.0835C54.6939 64.1209 54.6565 64.1535 54.6214 64.1811C53.2183 65.5039 51.4273 67.2325 50.7332 68.2796C50.6631 68.3899 51.084 68.6629 51.3145 68.7682C51.6226 68.9034 51.9983 68.9912 52.4217 69.0237C54.0577 69.1414 56.2999 68.3398 58.0711 65.5815C58.2864 65.2434 58.6622 65.068 59.0306 65.088L61.5857 65.0604C61.9517 65.0554 62.2747 65.2358 62.4703 65.5113V65.5063C64.835 68.8082 67.0723 70.627 69.3169 71.1882C69.4798 71.2282 69.6426 71.2608 69.8055 71.2909C69.8746 71.2871 69.9451 71.289 70.0152 71.2982C70.0848 71.3073 70.1539 71.3236 70.2212 71.3486C72.1304 71.5389 74.1246 70.8651 76.2764 69.4596C76.7725 69.1339 77.4363 69.2767 77.762 69.7728C78.0828 70.2688 77.94 70.9377 77.4439 71.2584C76.0711 72.1527 74.7332 72.8016 73.418 73.1723L79.7237 76.8099C81.1116 76.0033 82.472 74.896 83.7168 73.716L76.2039 60.7038C75.0264 61.3702 73.8638 61.8563 72.5162 62.1568V62.162Z" fill="#A0A0A0"/>
</svg>
