<svg width="120" height="120" viewBox="0 0 120 120" fill="none" xmlns="http://www.w3.org/2000/svg">
<path fill-rule="evenodd" clip-rule="evenodd" d="M103 101.844L102.848 102H103V101.844ZM93.3345 68.6805V68.9962C93.3345 72.3733 93.3345 75.6451 92.2646 78.9821C91.4404 81.5449 90.1077 83.6567 88.3315 85.3052C86.5278 86.9762 84.2781 88.1561 81.645 88.8301L81.5574 88.8527V89.3586C81.5574 90.3307 81.1616 91.2125 80.5203 91.8539C79.8789 92.4952 78.9971 92.891 78.0251 92.891H34.7024C33.7302 92.891 32.8459 92.4952 32.2046 91.8539C31.5684 91.2125 31.1699 90.3307 31.1699 89.3586V30.6464C31.1699 29.6693 31.5657 28.7899 32.2046 28.1487C32.8459 27.5073 33.7302 27.1115 34.7024 27.1115H71.6843C71.7017 27.1115 71.719 27.1119 71.7363 27.1129L71.7791 27.1161C71.8167 27.1199 71.8533 27.1257 71.8892 27.1338C71.9216 27.141 71.9534 27.1498 71.9844 27.1603C72.0198 27.1721 72.0542 27.1859 72.0876 27.2017H72.0901L72.1052 27.2092H72.1128L72.1277 27.2192H72.1353L72.1504 27.2292H72.1528L72.168 27.2443H72.1753L72.1904 27.2543H72.198L72.208 27.2643L72.218 27.2719L72.2256 27.2793H72.2356L72.2456 27.2943H72.2529L72.2681 27.3094H72.2705L72.2856 27.3245H72.2881C72.311 27.3473 72.3342 27.3685 72.3591 27.391L72.3657 27.3971L81.2668 36.2981C81.2917 36.3231 81.3145 36.3483 81.3369 36.3757H81.3394L81.3494 36.3933H81.3521L81.3621 36.4109V36.4183L81.377 36.4283V36.4384L81.387 36.4459L81.4021 36.4659V36.4735L81.4121 36.4885L81.4197 36.4961L81.4272 36.5111H81.4297L81.4373 36.5286V36.5361L81.4473 36.5511V36.5587L81.4573 36.5737C81.4883 36.6425 81.512 36.7141 81.5273 36.788C81.5405 36.8513 81.5474 36.9161 81.5474 36.9821V60.4685L92.7207 64.9403C93.0964 65.0906 93.3245 65.4514 93.3245 65.8322H93.3269V68.6805H93.3345ZM72.3909 85.2827C70.6272 83.6268 69.3245 81.4949 68.5354 78.9019C67.5735 75.7386 67.5808 72.6805 67.5884 69.5149V65.8297C67.5884 65.3988 67.8713 65.0331 68.2622 64.9127C70.575 63.9858 72.8887 63.0588 75.2029 62.1324L79.6309 60.3608V37.9465H74.2522C73.2803 37.9465 72.3984 37.5508 71.7571 36.9094C71.1157 36.2731 70.72 35.3862 70.72 34.4142V29.0381H34.7024C34.2615 29.0381 33.8582 29.2159 33.5701 29.509C33.2793 29.7997 33.0964 30.2004 33.0964 30.6464V89.3586C33.0964 89.7996 33.2793 90.2004 33.5701 90.4911C33.8582 90.7816 34.2615 90.9646 34.7024 90.9646H78.0251C78.4661 90.9646 78.8669 90.7816 79.1575 90.4911C79.448 90.2004 79.6309 89.7996 79.6309 89.3586V88.9729L79.0774 88.8301C76.4343 88.1537 74.1821 86.9662 72.3909 85.2827ZM47.6067 36.7065L49.9541 35.1107C50.0017 35.0731 50.0493 35.0405 50.1045 35.0129L55.8264 31.1349C56.1646 30.9044 56.603 30.9244 56.9187 31.1449L62.6255 35.0129C62.6755 35.0431 62.7283 35.0757 62.7759 35.1107L65.1282 36.7065C65.5642 37.0046 65.6794 37.5984 65.3838 38.0393C65.0857 38.4752 64.4868 38.5929 64.051 38.2948L63.1265 37.6685V46.1963C63.1265 46.7324 62.6956 47.1608 62.1646 47.1608H50.5703C50.0393 47.1608 49.606 46.7299 49.606 46.1963V37.6685L48.6841 38.2948C48.2432 38.5929 47.6467 38.4777 47.3511 38.0393C47.053 37.5984 47.1682 37.0046 47.6067 36.7065ZM40.1287 53.1232H72.5989C73.1299 53.1232 73.5608 53.5566 73.5608 54.0878C73.5608 54.6189 73.1299 55.0497 72.5989 55.0497H40.1287C39.5974 55.0497 39.1641 54.6189 39.1641 54.0878C39.1641 53.5566 39.5974 53.1232 40.1287 53.1232ZM38.8987 58.2439H73.8289C74.3599 58.2439 74.7908 58.6772 74.7908 59.2084C74.7908 59.7395 74.3599 60.1729 73.8289 60.1729H38.8987C38.3674 60.1729 37.9341 59.7395 37.9341 59.2084C37.9341 58.6772 38.3674 58.2439 38.8987 58.2439ZM65.6619 66.4509C65.6619 66.9821 65.2285 67.413 64.6973 67.413H41.2234C40.6924 67.413 40.2588 66.9821 40.2588 66.4509C40.2588 65.9199 40.6924 65.4865 41.2234 65.4865H64.6973C65.2285 65.4865 65.6619 65.9174 65.6619 66.4509ZM38.4751 70.6072H64.7024C65.2385 70.6072 65.6667 71.0405 65.6667 71.5717C65.6667 72.1028 65.2358 72.5337 64.7024 72.5337H38.4751C37.9441 72.5337 37.5107 72.1028 37.5107 71.5717C37.5107 71.0405 37.9441 70.6072 38.4751 70.6072ZM37.7212 78.8118C37.7212 78.2806 38.1545 77.8497 38.6855 77.8497H65.5039C66.04 77.8497 66.4685 78.2806 66.4685 78.8118C66.4685 79.3428 66.0376 79.7762 65.5039 79.7762H38.6855C38.1545 79.7762 37.7212 79.3428 37.7212 78.8118ZM67.616 84.897H41.3486C40.8125 84.897 40.3843 84.4635 40.3843 83.9324C40.3843 83.4014 40.8152 82.9703 41.3486 82.9703H67.616C68.147 82.9703 68.5803 83.4014 68.5803 83.9324C68.5803 84.4635 68.147 84.897 67.616 84.897ZM53.2583 40.3466C53.2583 39.8154 53.6892 39.3821 54.2205 39.3821H58.5068C59.0378 39.3821 59.4712 39.8154 59.4712 40.3466V45.2343H61.1975V36.3633L56.3647 33.089L51.5322 36.3633V45.2343H53.2583V40.3466ZM55.1824 41.3085H57.5422V45.2341H55.1824V41.3085ZM74.2522 36.02H78.2656L72.6462 30.4009V34.4142C72.6462 34.8551 72.8291 35.256 73.1199 35.5465C73.4104 35.8372 73.8113 36.02 74.2522 36.02ZM86.7632 77.2159C87.5625 74.7284 87.5601 71.9735 87.5574 69.3031L87.5554 69.4579L87.5549 69.5472V69.0916L80.4602 66.2506L73.3652 69.0916C73.364 69.1406 73.3633 69.1998 73.3623 69.2921L73.3579 69.6627L73.3577 69.6858C73.3477 72.2314 73.3374 74.8533 74.0566 77.2235C74.5527 78.8544 75.342 80.1471 76.4092 81.1316C77.4514 82.0936 78.7715 82.775 80.3599 83.2009C81.9507 82.77 83.281 82.0912 84.3406 81.1241C85.4304 80.1371 86.2371 78.8444 86.7632 77.2159ZM85.0522 72.8344L79.9541 77.9325C79.5784 78.3082 78.967 78.3082 78.5913 77.9325L75.863 75.2043C75.4846 74.8285 75.4846 74.2173 75.863 73.8414C76.2388 73.4631 76.845 73.4631 77.2258 73.8414L79.2727 75.8882L83.6895 71.4666C84.0676 71.0907 84.6763 71.0907 85.0522 71.4666C85.428 71.8423 85.4304 72.4536 85.0522 72.8318V72.8344ZM91.4102 68.6805H91.4077V66.481L81.665 62.5803L80.46 62.0994L75.0129 64.2793L74.9966 64.286L69.5122 66.481V68.6805L69.512 69.1469C69.5117 69.1963 69.5112 69.1621 69.5107 69.1283C69.5105 69.0947 69.51 69.0615 69.5098 69.1102L69.5095 69.5148V69.5173V69.5199C69.5022 72.542 69.4951 75.4589 70.374 78.3457C71.0579 80.6029 72.1902 82.4542 73.7109 83.8822C75.2617 85.3428 77.2332 86.3774 79.5557 86.9736L80.3523 87.1765L80.3611 87.1743L80.3892 87.1675C80.406 87.1636 80.4226 87.1605 80.4399 87.1591L81.1714 86.9736C83.4912 86.3774 85.4604 85.3503 87.0261 83.8972C88.5593 82.4818 89.7092 80.6405 90.4358 78.3983C91.4153 75.3419 91.4153 72.2179 91.4128 68.9988V68.6831L91.4102 68.6805ZM89.4795 69.3436V69.3411V69.3344V69.2181L89.4792 69.0457C89.479 69.0093 89.4788 69.0564 89.4788 69.2567C89.4863 72.0901 89.4888 75.0212 88.5945 77.8046C87.9656 79.7687 86.9736 81.3369 85.6406 82.5494C84.3105 83.7544 82.657 84.5936 80.688 85.0997L80.6152 85.1173C80.46 85.1599 80.292 85.1649 80.1243 85.1198L80.0366 85.0973C78.0701 84.5938 76.4241 83.7544 75.1089 82.5469C73.791 81.3293 72.8267 79.7537 72.2253 77.7795C71.4207 75.1392 71.4309 72.3823 71.4409 69.7012L71.4412 69.655V68.4375H71.4436C71.4436 68.0593 71.6692 67.6985 72.0449 67.5457L79.9739 64.374L80.1042 64.324C80.3271 64.2338 80.5803 64.2263 80.8181 64.324L88.8074 67.5206C89.1982 67.6434 89.4812 68.0092 89.4812 68.4375V68.6805C89.4812 70.3279 89.4802 69.7739 89.4795 69.3436Z" fill="#A0A0A0"/>
</svg>
