<svg width="120" height="120" viewBox="0 0 120 120" fill="none" xmlns="http://www.w3.org/2000/svg">
<path fill-rule="evenodd" clip-rule="evenodd" d="M75.0364 89.6844C75.6125 89.6844 76.0835 89.2134 76.0835 88.6373V31.3604C76.0835 30.7842 75.6125 30.3132 75.0364 30.3132H43.488C43.364 30.3132 43.241 30.3359 43.125 30.3791C43.0771 30.3969 43.0308 30.4181 42.9858 30.4427C42.8999 30.4897 42.8198 30.5488 42.749 30.6188L31.1174 42.2055V42.2255C31.0859 42.2692 31.0581 42.3151 31.0339 42.3629C31.0034 42.4229 30.9788 42.4857 30.9602 42.5501C30.9558 42.5654 30.9517 42.5807 30.948 42.5962C30.9407 42.6263 30.9348 42.6567 30.9304 42.6872C30.9231 42.7366 30.9194 42.7867 30.9194 42.8368V88.6373C30.9194 89.2134 31.3904 89.6844 31.9666 89.6844H75.0364ZM98.4502 36.3708L98.7683 34.8702L98.7708 34.8752C99.0564 33.53 98.187 32.1896 96.8318 31.8865L92.668 30.9571C92.0066 30.8143 91.3303 30.9371 90.7666 31.3028C90.208 31.6661 89.8271 32.2222 89.6895 32.871L88.8625 36.7717L87.1465 36.3984L88.2788 31.0497C88.3992 30.486 88.0383 29.9274 87.4722 29.8072C86.906 29.6869 86.3499 30.0501 86.2297 30.6138L82.1812 49.7337C82.061 50.2949 82.4216 50.8535 82.9878 50.9737C83.5515 51.0941 84.1077 50.7308 84.228 50.1671L85.4631 44.3325L87.1741 44.7057L79.9114 78.8995C79.894 78.9695 79.894 79.2502 79.9065 79.3152L81.665 88.4118C81.7454 88.8251 82.0635 89.1483 82.4744 89.236C82.8853 89.3237 83.3062 89.1583 83.5491 88.8126L88.8276 81.2819C88.8625 81.2293 88.9753 80.9788 88.9929 80.9011L93.9231 57.6878C96.5754 45.2034 98.0842 38.0977 98.4502 36.3708ZM44.5354 39.3796C44.5354 41.8648 42.5085 43.8865 40.0159 43.8865H33.0139V87.5926H73.9893V32.4101H44.5354V39.3796ZM43.7861 80.3525C43.7861 80.9286 43.3152 81.3996 42.739 81.3996H37.2576C36.6814 81.3996 36.2104 80.9286 36.2104 80.3525V74.891C36.2104 74.3149 36.6814 73.8439 37.2576 73.8439H42.739C43.3152 73.8439 43.7861 74.3149 43.7861 74.891V80.3525ZM43.7861 67.9842C43.7861 68.5604 43.3152 69.0314 42.739 69.0314H37.2576C36.6814 69.0314 36.2104 68.5604 36.2104 67.9842V62.5228C36.2104 61.9466 36.6814 61.4756 37.2576 61.4756H42.739C43.3152 61.4756 43.7861 61.9466 43.7861 62.5228V67.9842ZM43.7861 55.6135C43.7861 56.1896 43.3152 56.6606 42.739 56.6606H37.2576C36.6814 56.6606 36.2104 56.1896 36.2104 55.6135V50.1546C36.2104 49.5783 36.6814 49.1074 37.2576 49.1074H42.739C43.3152 49.1074 43.7861 49.5783 43.7861 50.1546V55.6135ZM49.0422 51.8381H69.7454C70.3215 51.8381 70.7925 52.309 70.7925 52.8852C70.7925 53.4615 70.3215 53.9324 69.7454 53.9324H49.0422C48.4661 53.9324 47.9951 53.4615 47.9951 52.8852C47.9951 52.309 48.4661 51.8381 49.0422 51.8381ZM49.0422 64.2064H69.7454C70.3215 64.2064 70.7925 64.6773 70.7925 65.2535C70.7925 65.8296 70.3215 66.3007 69.7454 66.3007H49.0422C48.4661 66.3007 47.9951 65.8296 47.9951 65.2535C47.9951 64.6773 48.4661 64.2064 49.0422 64.2064ZM49.0422 76.5746H69.7454C70.3215 76.5746 70.7925 77.0456 70.7925 77.6218C70.7925 78.1979 70.3215 78.669 69.7454 78.669H49.0422C48.4661 78.669 47.9951 78.1979 47.9951 77.6218C47.9951 77.0456 48.4661 76.5746 49.0422 76.5746ZM88.4243 38.8134L86.7083 38.4401L85.894 42.2807L87.6074 42.654L88.4243 38.8134ZM42.4409 33.8831V39.3796C42.4409 40.7098 41.3535 41.7921 40.0159 41.7921H34.5017L42.4409 33.8831ZM41.6919 51.2018H38.3049V54.5663H41.6919V51.2018ZM38.3049 75.9383H41.6919V79.3052H38.3049V75.9383ZM41.6919 63.57H38.3049V66.9371H41.6919V63.57ZM92.2371 33.0037L96.3708 33.9257H96.3733C96.6138 33.9783 96.769 34.2088 96.7214 34.4367L96.01 37.7962C94.9705 37.5633 92.0469 36.9119 91.0171 36.6815L91.7336 33.2994C91.7688 33.129 91.9214 32.9511 92.2371 33.0037ZM88.1511 67.6485C88.0308 68.2122 87.4722 68.5729 86.9084 68.4527C86.3447 68.3325 85.9841 67.7737 86.1042 67.21L92.1394 39.0789L90.5837 38.7332L82.304 77.7194L84.5737 77.1884L84.6206 77.1788C84.6382 77.1755 84.656 77.1727 84.6738 77.1702L84.7263 77.1644L84.7468 77.1628L84.7812 77.1611C84.8186 77.1597 84.856 77.1605 84.8931 77.1631L84.9395 77.1675C84.9714 77.1713 85.0032 77.1766 85.0347 77.1834C85.1875 77.2159 85.3352 77.2835 85.4604 77.3837L87.2969 78.8243L95.5767 39.8455L94.1836 39.535L88.1536 67.6485H88.1511ZM82.1536 79.904L83.251 85.5884L86.5427 80.8936L84.5586 79.3404L82.1536 79.904Z" fill="#A0A0A0"/>
</svg>
