<svg width="120" height="120" viewBox="0 0 120 120" fill="none" xmlns="http://www.w3.org/2000/svg">
<path fill-rule="evenodd" clip-rule="evenodd" d="M102.848 102L103 101.844V102H102.848ZM82.7449 94.6021C84.4785 94.6021 85.9441 93.129 85.9441 91.3829H85.9417V31.6584C85.9417 29.8973 84.5061 28.4644 82.7424 28.4644H72.2456V27.7352C72.2456 26.4451 71.2009 25.3954 69.9182 25.3954H50.0769C48.7791 25.3954 47.7219 26.4451 47.7219 27.7352V28.4644H37.2527C35.4915 28.4644 34.0559 29.8973 34.0559 31.6584V91.3829C34.0559 93.1566 35.4915 94.6021 37.2527 94.6021H82.7449ZM70.7246 35.3086C70.7246 35.7394 70.3413 36.1302 69.918 36.1302H50.0767C49.6333 36.1302 49.2424 35.7469 49.2424 35.3086V27.7352C49.2424 27.2819 49.6182 26.9136 50.0767 26.9136H69.918C70.3564 26.9136 70.7246 27.2919 70.7246 27.7352V35.3086ZM47.667 49.3655C47.7122 49.12 47.6318 48.8695 47.4541 48.6941L45.6201 46.8828L48.1404 46.5221C48.3911 46.4845 48.604 46.3292 48.7168 46.1038L49.8391 43.814L50.9639 46.1038C50.9978 46.1729 51.0415 46.2354 51.0928 46.2899C51.1533 46.3541 51.2249 46.4075 51.3037 46.4474C51.3762 46.4841 51.4551 46.5096 51.5376 46.5221L54.0579 46.8828L52.2266 48.6941C52.0486 48.8695 51.9685 49.12 52.011 49.3655L52.4446 51.8983L50.1897 50.7234C50.082 50.6658 49.9592 50.6356 49.8391 50.6356C49.7188 50.6356 49.5986 50.6632 49.4883 50.7234L47.2361 51.8983L47.667 49.3655ZM51.2708 61.4523C51.1392 61.3784 51.0312 61.2664 50.9636 61.1296C50.6555 60.5084 50.3499 59.8821 50.0442 59.2557L49.8364 58.8374L48.7141 61.1272C48.6013 61.3477 48.3909 61.5029 48.1504 61.5405C47.6365 61.6224 47.1255 61.6989 46.6172 61.7748L46.0911 61.8536C45.9873 61.8671 45.8811 61.8827 45.7749 61.8983L45.6177 61.9214L47.449 63.7151C47.6292 63.8904 47.7095 64.1434 47.6643 64.3889C47.5391 65.0854 47.4287 65.7744 47.3135 66.4608L47.2795 66.6632C47.2644 66.7546 47.2493 66.8457 47.2334 66.9368L49.478 65.7468C49.5161 65.7264 49.5554 65.7098 49.5955 65.6968C49.6738 65.6711 49.7551 65.6591 49.8364 65.6591C49.8777 65.6591 49.9189 65.6625 49.9597 65.6692L49.9968 65.6763L50.0217 65.682C50.0649 65.6927 50.1077 65.7072 50.1492 65.7252C50.1646 65.7319 50.1797 65.7391 50.1946 65.7468L52.4392 66.9368C52.4246 66.8529 52.4111 66.7684 52.3977 66.6841L52.397 66.6804L52.3816 66.5872C52.3728 66.5323 52.3638 66.4777 52.354 66.4232C52.2825 65.9932 52.2107 65.5641 52.1372 65.1334C52.095 64.8868 52.0522 64.6396 52.0083 64.3915C51.9634 64.146 52.0459 63.8929 52.2263 63.7175L54.0552 61.9238L53.5891 61.8562C52.9028 61.756 52.2188 61.6533 51.5273 61.5431V61.5405C51.4358 61.5265 51.3491 61.4961 51.2708 61.4523ZM47.7219 34.8828H40.3916V87.307H79.6057V34.8828H72.2454V35.3087C72.2454 36.5789 71.1782 37.6511 69.9182 37.6511H50.0769C48.8015 37.6511 47.7219 36.5789 47.7219 35.3087V34.8828ZM59.8923 44.9713H76.0308C76.5869 44.9713 77.0405 45.4248 77.0405 45.9834C77.0405 46.5421 76.5869 46.9955 76.0308 46.9955H59.8923C59.3362 46.9955 58.8801 46.5421 58.8801 45.9834C58.8801 45.4248 59.3335 44.9713 59.8923 44.9713ZM59.8923 48.376H76.0308C76.5869 48.376 77.0405 48.8293 77.0405 49.3855C77.0405 49.9417 76.5869 50.3977 76.0308 50.3977H59.8923C59.3362 50.3977 58.8801 49.9442 58.8801 49.3855C58.8801 48.8269 59.3335 48.376 59.8923 48.376ZM59.8923 60.0227H76.0308C76.5869 60.0227 77.0405 60.4762 77.0405 61.0348C77.0405 61.5935 76.5869 62.0444 76.0308 62.0444H59.8923C59.3362 62.0444 58.8801 61.5909 58.8801 61.0348C58.8801 60.4786 59.3335 60.0227 59.8923 60.0227ZM59.8923 63.3997H76.0308C76.5869 63.3997 77.0405 63.8531 77.0405 64.4119C77.0405 64.9705 76.5869 65.4214 76.0308 65.4214H59.8923C59.3362 65.4214 58.8801 64.968 58.8801 64.4119C58.8801 63.8557 59.3335 63.3997 59.8923 63.3997ZM59.8923 75.0465H76.0308C76.5869 75.0465 77.0405 75.4999 77.0405 76.0586C77.0405 76.6173 76.5869 77.0707 76.0308 77.0707H59.8923C59.3362 77.0707 58.8801 76.6173 58.8801 76.0586C58.8801 75.4999 59.3335 75.0465 59.8923 75.0465ZM59.8923 78.421H76.0308C76.5869 78.421 77.0405 78.8744 77.0405 79.4331C77.0405 79.9918 76.5869 80.4427 76.0308 80.4427H59.8923C59.3362 80.4427 58.8801 79.9893 58.8801 79.4331C58.8801 78.877 59.3335 78.421 59.8923 78.421ZM56.2122 76.963L53.574 79.5709L54.1978 83.2261C54.248 83.5116 54.1301 83.7997 53.8972 83.9701C53.7644 84.0653 53.6067 84.1154 53.4514 84.1154C53.3259 84.1154 53.2058 84.0853 53.093 84.0277L49.8362 82.2991L46.5796 84.0277C46.3264 84.1605 46.0134 84.1404 45.7754 83.9725C45.5422 83.8022 45.4246 83.5142 45.4746 83.2285L46.0984 79.5735L43.4604 76.9655C43.2576 76.7626 43.1824 76.4645 43.2727 76.1888C43.3652 75.9133 43.5984 75.7155 43.8838 75.6729L47.5239 75.1267L49.1548 71.8022C49.408 71.2811 50.2622 71.2787 50.5203 71.8022L52.1511 75.1267L55.7913 75.6729C55.8105 75.6759 55.8293 75.6796 55.8479 75.684C55.8706 75.6893 55.8931 75.6957 55.9148 75.7029C55.9475 75.7136 55.9792 75.7266 56.01 75.7413C56.0984 75.7842 56.1772 75.8434 56.2427 75.9154C56.3132 75.993 56.3682 76.0856 56.4023 76.1888C56.4478 76.3287 56.4502 76.4774 56.4141 76.6163C56.3801 76.7461 56.3125 76.8674 56.2146 76.9655L56.2122 76.963ZM56.2046 61.9417L53.574 64.5221C53.6719 65.0757 53.7595 65.6218 53.8521 66.1705L53.9912 66.9894C54.0593 67.3912 54.1277 67.7942 54.1978 68.1997C54.248 68.4854 54.1328 68.7759 53.8972 68.9463C53.7644 69.0439 53.6067 69.0916 53.4514 69.0916C53.3259 69.0916 53.2058 69.0615 53.093 69.0039L49.8362 67.2778L46.5796 69.0039C46.3215 69.1417 46.0134 69.1191 45.7754 68.9487C45.5422 68.7784 45.4246 68.4878 45.4746 68.2023C45.5286 67.8892 45.582 67.5776 45.6345 67.2672C45.6943 66.9147 45.7529 66.5635 45.8103 66.2131L45.9248 65.5337L46.0029 65.0684L46.0959 64.5221L43.4604 61.9417C43.3433 61.8258 43.2678 61.6774 43.2419 61.5194C43.2358 61.4832 43.2324 61.4464 43.2319 61.4094C43.2307 61.3289 43.2422 61.2472 43.2676 61.1676C43.3047 61.0508 43.3684 60.9475 43.4509 60.8639C43.5635 60.75 43.7107 60.6725 43.8738 60.6465C44.5427 60.5438 45.2041 60.446 45.8655 60.3484C46.4141 60.2657 46.9653 60.183 47.519 60.1003L49.1499 56.7734C49.28 56.5128 49.5432 56.3475 49.8313 56.3475C50.1194 56.3475 50.385 56.5128 50.5127 56.7734L51.4021 58.5872L51.6023 58.9956L51.6206 59.0337L51.8074 59.4146C51.9192 59.6428 52.031 59.8706 52.1436 60.0979C52.6997 60.183 53.251 60.2657 53.8044 60.3484C54.4634 60.446 55.1223 60.5438 55.7913 60.6465C56.0742 60.6915 56.3074 60.892 56.3975 61.1676C56.4875 61.4431 56.4126 61.7412 56.2046 61.9417ZM49.1548 41.7546C49.408 41.2335 50.2622 41.2311 50.5203 41.7546L52.1511 45.0715L55.7861 45.5951C56.0718 45.6353 56.3123 45.8357 56.3999 46.1088C56.4182 46.1624 56.4299 46.2173 56.4355 46.2726C56.4387 46.3046 56.4397 46.3367 56.4387 46.3687C56.4377 46.4038 56.4343 46.4388 56.4285 46.4735C56.4021 46.6274 56.3284 46.7729 56.2146 46.8854L53.5767 49.4983L54.2004 53.1509C54.2505 53.4365 54.1353 53.7246 53.8997 53.8949C53.6667 54.0653 53.3586 54.0878 53.103 53.9551L49.8413 52.254L46.5796 53.9551C46.5403 53.9766 46.4995 53.9935 46.458 54.0065C46.4382 54.0127 46.4182 54.0181 46.3979 54.0225L46.3782 54.0265L46.354 54.0306C46.3125 54.0371 46.2708 54.0402 46.2288 54.0402C46.0735 54.0402 45.9131 53.9927 45.7827 53.8949C45.6345 53.7866 45.533 53.6306 45.4915 53.458C45.48 53.4105 45.4731 53.3618 45.4712 53.3124C45.469 53.259 45.4727 53.2048 45.4822 53.1509L46.106 49.4983L43.468 46.8854C43.2651 46.6849 43.1899 46.3843 43.2827 46.1088C43.3704 45.8331 43.6108 45.6353 43.8965 45.5951L47.5339 45.0715L49.1624 41.7546H49.1548ZM49.8389 73.8589L50.9636 76.1487H50.9661C51.074 76.3716 51.2869 76.5294 51.5322 76.5646L54.0676 76.9479L52.2263 78.7716C52.0483 78.9445 51.9683 79.1925 52.0107 79.438L52.4417 81.9583L50.1946 80.7657C50.0842 80.7107 49.9617 80.6781 49.8389 80.6781C49.7627 80.6781 49.6865 80.6907 49.613 80.7134C49.5957 80.7189 49.5784 80.7249 49.5615 80.7313L49.5361 80.7416C49.5181 80.749 49.5005 80.7571 49.4832 80.7657L47.2358 81.9583L47.6667 79.438C47.7119 79.1949 47.6316 78.947 47.4539 78.7716L45.6099 76.9479L48.1453 76.5646C48.3933 76.5294 48.6062 76.3741 48.7166 76.1487L49.8389 73.8589ZM72.248 29.9873V33.3618H80.3674C80.7856 33.3618 81.1265 33.7051 81.1265 34.1234V88.0684C81.1265 88.4867 80.7856 88.8274 80.3674 88.8274H39.6326C39.2141 88.8274 38.8733 88.4867 38.8733 88.0684V34.1234C38.8733 33.7051 39.2141 33.3618 39.6326 33.3618H47.7244V29.9873H37.2551C36.3306 29.9873 35.5767 30.7389 35.5767 31.6583V91.3827C35.5767 92.3197 36.3306 93.0837 37.2551 93.0837H82.7473C83.6567 93.0837 84.4282 92.3047 84.4282 91.3827V31.6583C84.4282 30.7515 83.6567 29.9873 82.7473 29.9873H72.248Z" fill="#A0A0A0"/>
</svg>
