<svg width="120" height="120" viewBox="0 0 120 120" fill="none" xmlns="http://www.w3.org/2000/svg">
<path d="M93.0999 25.4H26.8999C26.0899 25.4 25.3999 26.09 25.3999 26.9V93.1C25.3999 93.9 26.0899 94.6 26.8999 94.6H93.0999C93.8999 94.6 94.5999 93.91 94.5999 93.1V26.9C94.4799 26.09 93.7899 25.4 93.0999 25.4ZM36.9099 91.6H28.2799V28.28H36.9099V91.6ZM59.9399 91.6H39.7899V61.44H59.9399V91.6ZM59.9399 58.56H39.7899V28.28H59.9399V58.56ZM80.0899 91.6H62.8199V61.44H80.0899V91.6ZM80.0899 58.56H62.8199V28.28H80.0899V58.56ZM91.5999 91.6H82.9699V28.28H91.5999V91.6Z" fill="#040000"/>
<path d="M67.5999 85.14H75.0299C75.9599 85.14 76.7199 84.38 76.7199 83.45C76.7199 82.52 75.9599 81.76 75.0299 81.76H67.5999C66.6699 81.76 65.9099 82.52 65.9099 83.45C65.9099 84.38 66.6699 85.14 67.5999 85.14Z" fill="#040000"/>
<path d="M46.15 85.14H53.58C54.51 85.14 55.27 84.38 55.27 83.45C55.27 82.52 54.51 81.76 53.58 81.76H46.15C45.22 81.76 44.46 82.52 44.46 83.45C44.46 84.38 45.22 85.14 46.15 85.14Z" fill="#040000"/>
<path d="M67.5999 53.2001H75.0299C75.9599 53.2001 76.7199 52.4401 76.7199 51.5101C76.7199 50.5801 75.9599 49.8201 75.0299 49.8201H67.5999C66.6699 49.8201 65.9099 50.5801 65.9099 51.5101C65.9099 52.4401 66.6699 53.2001 67.5999 53.2001Z" fill="#040000"/>
<path d="M46.15 53.2001H53.58C54.51 53.2001 55.27 52.4401 55.27 51.5101C55.27 50.5801 54.51 49.8201 53.58 49.8201H46.15C45.22 49.8201 44.46 50.5801 44.46 51.5101C44.46 52.4401 45.22 53.2001 46.15 53.2001Z" fill="#040000"/>
</svg>
