<svg width="120" height="120" viewBox="0 0 120 120" fill="none" xmlns="http://www.w3.org/2000/svg">
<path d="M53.7801 72.33H47.0501C48.1201 69.83 48.6601 67.14 48.6601 64.32C48.6301 62.15 46.8501 60.39 44.6801 60.39C43.4101 60.39 42.3701 60.88 41.5901 61.84C41.1701 62.36 40.8701 63.03 40.5101 63.81L40.3501 64.16C39.2401 66.63 37.7201 70.01 33.2201 72.4L32.9301 72.56C32.7201 72.48 32.4901 72.43 32.2501 72.43H28.2201C27.1601 72.43 26.3101 73.28 26.3101 74.34V91.19C26.3101 92.25 27.1601 93.1 28.2201 93.1H32.2501C33.1001 93.1 33.8101 92.55 34.0601 91.78L34.7501 92.06V92.02C35.6701 92.33 36.7701 92.54 37.9701 92.64H49.6601C53.1001 92.64 56.0601 90.31 56.8601 86.98L58.8601 78.81C59.2401 77.24 58.8901 75.61 57.9001 74.35C56.9001 73.07 55.4001 72.33 53.7901 72.33H53.7801ZM32.0501 91H28.3801V74.51H32.0501V91ZM34.4001 75.3C40.0401 72.39 42.0001 68.05 43.1801 65.44C43.4401 64.82 43.7801 64.08 44.0301 63.77C44.1801 63.59 44.3001 63.51 44.6701 63.51C45.1401 63.51 45.5201 63.88 45.5201 64.35C45.5401 66.67 45.0801 68.97 44.1501 71.19L43.2501 73.28C43.0401 73.77 43.0801 74.34 43.3701 74.77C43.6801 75.22 44.1401 75.46 44.6601 75.46H53.7701C54.4001 75.46 55.0101 75.76 55.4301 76.29C55.8301 76.78 55.9701 77.43 55.8101 78.07L53.8101 86.23C53.3301 88.16 51.6101 89.51 49.6301 89.51H38.1701C37.3001 89.46 35.6201 89.18 34.8601 88.71C34.8201 88.67 34.7601 88.66 34.7201 88.63V88.52L34.2301 88.43C34.2301 88.43 34.1601 88.43 34.1301 88.43V75.43L34.3901 75.3H34.4001Z" fill="#040000"/>
<path d="M92.3 37.46C81.38 35.37 74.16 32.17 69.58 27.41C69.27 27.09 68.82 26.9 68.35 26.9C67.88 26.9 67.43 27.09 67.12 27.41C62.54 32.17 55.33 35.36 44.4 37.46C43.6 37.61 43.01 38.32 43.01 39.14V55.31C43.01 56.25 43.78 57.02 44.72 57.02C45.66 57.02 46.43 56.25 46.43 55.31V40.54C56.48 38.47 63.47 35.42 68.35 30.98C73.23 35.42 80.22 38.47 90.27 40.54V63.57C90.27 71.7 85.74 78.97 78.45 82.57L68.35 87.55L63.58 85.2C63.17 85 62.71 84.97 62.27 85.11C61.84 85.26 61.49 85.56 61.29 85.97C61.09 86.38 61.06 86.85 61.2 87.28C61.34 87.71 61.65 88.06 62.06 88.26L67.59 90.99C67.82 91.1 68.09 91.16 68.34 91.16C68.59 91.16 68.86 91.1 69.1 90.98L79.96 85.63C88.43 81.46 93.69 73 93.69 63.57V39.14C93.69 38.32 93.11 37.61 92.3 37.46Z" fill="#040000"/>
<path d="M64.9601 71.2C65.2401 71.48 65.6101 71.63 66.0101 71.63C66.4101 71.63 66.7801 71.48 67.0601 71.2L83.9301 54.33C84.5101 53.75 84.5101 52.81 83.9301 52.23L80.0201 48.32C79.4701 47.77 78.4701 47.77 77.9201 48.32L66.0101 60.24L60.0701 54.3C59.7901 54.02 59.4201 53.86 59.0201 53.86C58.6201 53.86 58.2501 54.01 57.9701 54.29L54.0601 58.2C53.7801 58.48 53.6301 58.86 53.6301 59.25C53.6301 59.64 53.7901 60.02 54.0601 60.3L64.9601 71.2ZM57.2101 59.25L59.0201 57.44L64.9601 63.38C65.5201 63.94 66.5001 63.94 67.0601 63.38L78.9701 51.47L80.7801 53.28L66.0101 68.05L57.2101 59.25Z" fill="#040000"/>
</svg>
