<svg width="120" height="120" viewBox="0 0 120 120" fill="none" xmlns="http://www.w3.org/2000/svg">
<path fill-rule="evenodd" clip-rule="evenodd" d="M92.0042 85.681C92.0042 86.9712 91.4805 88.1437 90.6289 88.9954C89.782 89.8422 88.6096 90.3707 87.3145 90.3707H34.582C31.7336 90.3707 29.3062 88.5594 28.3867 86.0293L28.3821 86.0172L28.3718 85.9901L28.3616 85.9591C28.1287 85.2852 27.9958 84.5637 27.9934 83.8071V36.2205C27.9934 34.3992 28.7297 32.7557 29.9248 31.5608C31.1147 30.3707 32.7632 29.6317 34.582 29.6317C36.4009 29.6317 38.0469 30.3683 39.2393 31.5608C40.4292 32.7557 41.1682 34.3992 41.1682 36.2205H41.1658V38.5103H87.3169C88.6096 38.5103 89.7847 39.0388 90.6313 39.8856C91.4832 40.7349 92.0066 41.9098 92.0066 43.2V85.6835L92.0042 85.681ZM34.5869 77.1935C35.7161 77.1938 36.7795 77.4818 37.7109 77.9827C38.3022 78.3008 38.8384 78.7091 39.2993 79.1852V64.5221L39.2983 64.4845L39.2976 64.4655L39.2969 64.4395V43.2002C39.2969 43.1852 39.2969 43.1676 39.2993 43.155V39.5325L39.2983 39.4929L39.2971 39.4716L39.2969 39.4498C39.2969 39.4198 39.2993 39.3922 39.2993 39.3672V36.2206H39.2969C39.2969 34.9154 38.7683 33.7405 37.9189 32.8862C37.0647 32.0369 35.8872 31.5083 34.5869 31.5083C33.2869 31.5083 32.1069 32.0369 31.2551 32.8862C30.4009 33.7405 29.8721 34.9178 29.8721 36.2206V79.1776L29.9299 79.125C31.1199 77.9301 32.7683 77.1935 34.5869 77.1935ZM86.2871 44.2269C86.3447 44.2845 86.3799 44.3623 86.3799 44.4474V46.1434H82.1836V44.1343H86.0667C86.0815 44.1343 86.0962 44.1354 86.1106 44.1375C86.1311 44.1405 86.1509 44.1454 86.1699 44.1522C86.2141 44.1681 86.2539 44.1937 86.2871 44.2269ZM71.7996 44.1372H65.4414V49.6412H71.7996V44.1372ZM86.3799 48.02H82.1836V49.7286H86.3799V48.02ZM63.5676 44.1372V56.3727H61.4258C60.9097 56.3727 60.4912 56.7936 60.4912 57.3121C60.4912 57.8307 60.907 58.2516 61.4258 58.2516H64.5046C65.0208 58.2516 65.439 57.8307 65.439 57.3121V51.5151H72.7317C73.2502 51.5151 73.6711 51.0992 73.6711 50.5807V44.1372H80.3049V56.3727H78.1655C77.647 56.3727 77.2261 56.7936 77.2261 57.3121C77.2261 57.8307 77.647 58.2516 78.1655 58.2516H81.2419C81.7629 58.2516 82.1814 57.8307 82.1814 57.3121V55.1852H86.3777V63.5H51.8306V51.2645H53.9702C54.4861 51.2645 54.9045 50.8412 54.9045 50.3251C54.9045 49.8091 54.4888 49.3906 53.9702 49.3906H50.8911C50.3752 49.3906 49.9568 49.8065 49.9568 50.3251V63.5H46.7527C46.3418 60.614 44.0569 58.3292 41.1685 57.9185V44.1372H63.5676ZM86.3799 51.6025H82.1836V53.3112H86.3799V51.6025ZM49.4856 74.4348V80.0315L49.488 80.0291V84.7388H29.9724C29.9072 84.4307 29.8721 84.11 29.8721 83.7793C29.8721 82.4791 30.4009 81.2966 31.2551 80.4474C32.1069 79.5931 33.2869 79.0645 34.5869 79.0645C35.3987 79.0645 36.1628 79.2699 36.8267 79.6306C37.5156 80.0039 38.1018 80.545 38.5303 81.2014C38.7031 81.467 38.9536 81.6599 39.2417 81.7651C39.5249 81.8678 39.8406 81.8828 40.1411 81.7902C40.4468 81.7025 40.7048 81.5146 40.8853 81.269C40.9795 81.1433 41.0525 81.0018 41.1008 80.8503C41.1194 80.7917 41.1343 80.7317 41.1453 80.6705C41.1555 80.6141 41.1624 80.5566 41.1658 80.4983L41.168 80.4478L41.1682 80.4148H41.1658V65.376H63.5698V73.4954H50.425C49.9065 73.4954 49.4856 73.9138 49.4856 74.4348ZM55.0422 84.7416H51.3621V81.064C52.2888 81.2468 53.1157 81.7053 53.7571 82.3491C54.3984 82.9905 54.8542 83.8171 55.0422 84.7416ZM87.3142 40.3844H41.1631V42.2633H86.0667C86.668 42.2633 87.2141 42.5088 87.6123 42.9045C88.0083 43.298 88.2537 43.8466 88.2537 44.4503V85.6812C88.2537 86.1998 87.8354 86.6156 87.3142 86.6156H30.8191C31.6809 87.7555 33.0437 88.4895 34.582 88.4895H87.3142C88.0908 88.4895 88.7925 88.174 89.3035 87.6628C89.8145 87.1567 90.1301 86.4503 90.1301 85.6787V43.1952C90.1301 42.4236 89.8145 41.7172 89.3035 41.2111C88.7925 40.7 88.0908 40.3818 87.3142 40.3818V40.3844ZM63.5674 84.7416H56.9436C56.7383 83.3011 56.0642 82.0059 55.0798 81.0214C54.0977 80.0393 52.8049 79.3654 51.3594 79.1599V75.3721H63.5674V84.7416ZM65.4414 74.4348V84.7413H86.0669C86.1521 84.7413 86.2297 84.7063 86.2874 84.6487C86.345 84.5911 86.3801 84.5133 86.3801 84.4282V65.376H71.0281C70.8225 66.819 70.1462 68.1117 69.1641 69.0938C68.1821 70.0782 66.8894 70.7522 65.4438 70.9576V74.4348H65.4414ZM65.4414 69.0566V65.3789H69.1216C68.936 66.3033 68.4778 67.13 67.8364 67.7714C67.1951 68.4127 66.3657 68.8687 65.4414 69.0566ZM41.1685 63.4999H44.8511C44.4778 61.6511 43.0198 60.193 41.1685 59.8223V63.4999Z" fill="#A0A0A0"/>
</svg>
