<svg width="120" height="120" viewBox="0 0 120 120" fill="none" xmlns="http://www.w3.org/2000/svg">
<path d="M45.0549 82.9189C45.4749 82.2189 45.2549 81.3189 44.5649 80.8989C42.9349 79.9089 41.305 79.2189 39.665 78.8189C41.455 78.0489 42.955 76.6789 43.865 74.8589C44.455 73.6689 44.7549 72.3989 44.7549 71.0689C44.7549 66.4189 40.9649 62.6389 36.3149 62.6389C31.6649 62.6389 27.885 66.4189 27.885 71.0689C27.885 72.3989 28.1849 73.6689 28.7849 74.8589C29.6949 76.6789 31.1949 78.0589 32.9949 78.8289C31.3649 79.2289 29.7449 79.9189 28.1249 80.8989C23.8249 83.5189 21.3849 87.2889 20.4349 92.7589C20.2949 93.5589 20.835 94.3289 21.635 94.4589C21.725 94.4789 21.805 94.4789 21.885 94.4789C22.585 94.4789 23.2149 93.9789 23.3349 93.2589C24.3749 87.3089 27.2549 84.8689 29.6549 83.4089C34.2149 80.6289 38.4649 80.6289 43.0349 83.4089C43.7249 83.8289 44.6349 83.6089 45.0549 82.9189ZM36.3149 76.5589C34.2249 76.5589 32.345 75.3989 31.415 73.5389C31.025 72.7689 30.8349 71.9289 30.8349 71.0689C30.8349 68.0489 33.2949 65.5889 36.3149 65.5889C39.3349 65.5889 41.8049 68.0489 41.8049 71.0689C41.8049 71.9389 41.6049 72.7689 41.2249 73.5389C40.2849 75.4089 38.4049 76.5589 36.3149 76.5589Z" fill="black"/>
<path d="M99.545 92.7589C98.585 87.2789 96.135 83.5089 91.845 80.8989C90.225 79.9089 88.605 79.2289 86.975 78.8289C88.775 78.0589 90.275 76.6789 91.185 74.8589C91.775 73.6689 92.085 72.3989 92.085 71.0689C92.085 66.4189 88.305 62.6389 83.655 62.6389C79.005 62.6389 75.215 66.4189 75.215 71.0689C75.215 72.3989 75.515 73.6689 76.115 74.8589C77.025 76.6789 78.525 78.0489 80.315 78.8189C78.675 79.2189 77.045 79.9089 75.415 80.8989C74.715 81.3189 74.495 82.2289 74.925 82.9289C75.355 83.6289 76.255 83.8489 76.955 83.4189C81.515 80.6389 85.765 80.6389 90.325 83.4189C92.725 84.8789 95.605 87.3089 96.655 93.2689C96.785 93.9889 97.405 94.4889 98.105 94.4889C98.185 94.4889 98.275 94.4889 98.365 94.4689C99.165 94.3289 99.705 93.5689 99.565 92.7589H99.545ZM78.745 73.5389C78.355 72.7689 78.165 71.9289 78.165 71.0689C78.165 68.0489 80.625 65.5889 83.655 65.5889C86.685 65.5889 89.135 68.0489 89.135 71.0689C89.135 71.9389 88.935 72.7689 88.555 73.5389C87.625 75.3989 85.745 76.5589 83.655 76.5589C81.565 76.5589 79.685 75.3989 78.745 73.5389Z" fill="black"/>
<path d="M68.2248 80.8989C66.5948 79.9089 64.9648 79.2189 63.3248 78.8189C65.1148 78.0489 66.6148 76.6789 67.5248 74.8589C68.1148 73.6689 68.4148 72.3989 68.4148 71.0689C68.4148 66.4189 64.6248 62.6389 59.9748 62.6389C55.3248 62.6389 51.5448 66.4189 51.5448 71.0689C51.5448 72.3989 51.8448 73.6689 52.4448 74.8589C53.3548 76.6789 54.8548 78.0589 56.6548 78.8289C55.0248 79.2289 53.4048 79.9189 51.7848 80.8989C47.4948 83.5089 45.0448 87.2789 44.0748 92.7589C43.9348 93.5589 44.4748 94.3289 45.2748 94.4689C45.3648 94.4889 45.4448 94.4889 45.5348 94.4889C46.2348 94.4889 46.8548 93.9889 46.9848 93.2689C48.0348 87.3089 50.9148 84.8789 53.3148 83.4189C57.8748 80.6389 62.1248 80.6389 66.6848 83.4189C69.0848 84.8789 71.9648 87.3089 73.0148 93.2689C73.1548 94.0689 73.9248 94.6089 74.7248 94.4689C75.5248 94.3289 76.0648 93.5589 75.9248 92.7589C74.9548 87.2789 72.5148 83.5089 68.2248 80.8989ZM59.9848 76.5589C57.8948 76.5589 56.0148 75.3989 55.0848 73.5389C54.6948 72.7689 54.5048 71.9289 54.5048 71.0689C54.5048 68.0489 56.9648 65.5889 59.9848 65.5889C63.0048 65.5889 65.4748 68.0489 65.4748 71.0689C65.4748 71.9389 65.2748 72.7689 64.8948 73.5389C63.9548 75.4089 62.0748 76.5589 59.9848 76.5589Z" fill="black"/>
<path d="M33.9451 58.8789C34.7551 58.8789 35.4151 58.2189 35.4151 57.4089V28.9289C35.4151 28.6689 35.6251 28.4589 35.8851 28.4589H84.0651C84.3251 28.4589 84.5351 28.6689 84.5351 28.9289V57.4089C84.5351 58.2189 85.1951 58.8789 86.0051 58.8789C86.8151 58.8789 87.4751 58.2189 87.4751 57.4089V28.9289C87.4751 27.0389 85.9451 25.5089 84.0551 25.5089H35.8751C33.9851 25.5089 32.4551 27.0389 32.4551 28.9289V57.4089C32.4551 58.2189 33.1151 58.8789 33.9251 58.8789H33.9451Z" fill="black"/>
<path d="M78.6149 46.7889H66.9449C66.1349 46.7889 65.4749 47.4489 65.4749 48.2589C65.4749 49.0689 66.1349 49.7289 66.9449 49.7289H78.6149C79.4249 49.7289 80.0848 49.0689 80.0848 48.2589C80.0848 47.4489 79.4249 46.7889 78.6149 46.7889Z" fill="black"/>
<path d="M78.6148 37.2489H65.4148C64.6048 37.2489 63.9448 37.9089 63.9448 38.7189C63.9448 39.5289 64.6048 40.1889 65.4148 40.1889H78.6148C79.4248 40.1889 80.0848 39.5289 80.0848 38.7189C80.0848 37.9089 79.4248 37.2489 78.6148 37.2489Z" fill="black"/>
<path d="M78.615 52.1689H63.075C62.265 52.1689 61.605 52.8289 61.605 53.6389C61.605 54.4489 62.265 55.1089 63.075 55.1089H78.615C79.425 55.1089 80.085 54.4489 80.085 53.6389C80.085 52.8289 79.425 52.1689 78.615 52.1689Z" fill="black"/>
<path d="M78.615 32.5289H70.845C70.035 32.5289 69.375 33.1889 69.375 33.9989C69.375 34.8089 70.035 35.4689 70.845 35.4689H78.615C79.425 35.4689 80.085 34.8089 80.085 33.9989C80.085 33.1889 79.425 32.5289 78.615 32.5289Z" fill="black"/>
<path d="M38.9351 42.7689C38.9351 48.2989 43.4351 52.7989 48.9651 52.7989C54.4951 52.7989 58.9951 48.2989 58.9951 42.7689C58.9951 37.2389 54.4951 32.7389 48.9651 32.7389C43.4351 32.7389 38.9351 37.2389 38.9351 42.7689ZM48.9651 49.8489C45.0551 49.8489 41.8751 46.6689 41.8751 42.7689C41.8751 39.3689 44.2851 36.5189 47.4851 35.8389V42.7689C47.4851 43.5789 48.1451 44.2389 48.9551 44.2389H55.8851C55.2051 47.4389 52.3551 49.8489 48.9551 49.8489H48.9651ZM50.4451 35.8389C53.1651 36.4189 55.3151 38.5689 55.8951 41.2889H50.4451V35.8389Z" fill="black"/>
</svg>
