<svg width="140" height="140" viewBox="0 0 140 140" fill="none" xmlns="http://www.w3.org/2000/svg">
<path d="M76.452 128.555C76.3402 128.555 76.2424 128.527 76.1306 128.471C76.1027 128.457 76.0608 128.443 76.0328 128.429L50.3954 120.717C49.8784 120.508 48.9843 119.991 48.9843 118.887V86.3615C48.9843 86.0961 48.8306 85.8725 48.5931 85.7607C48.5092 85.7328 48.4254 85.7049 48.3416 85.7049C48.1739 85.7049 48.0063 85.7747 47.8945 85.8865C47.5452 86.2358 47.168 86.6689 46.7628 87.116C45.5753 88.4712 44.0803 90.1617 42.8089 90.1617C41.5375 90.1617 40.2242 88.555 39.1484 87.2557C38.7153 86.7387 38.3102 86.2637 37.9329 85.8865C36.6895 84.657 35.4321 83.4415 34.2165 82.2539C31.7157 79.8229 29.3685 77.5456 27.0632 75.1285C20.9577 68.7436 14.2515 61.1572 11.3734 52.2155C8.69088 43.8047 9.97624 34.4579 14.8942 26.592C20.0636 18.307 28.3905 12.7604 37.7513 11.3912C39.4139 11.1397 41.0905 11 42.767 11C60.4548 11 75.2784 25.2089 75.8093 42.687C75.8093 42.8826 75.9071 43.0503 76.0468 43.176C76.1586 43.2599 76.2983 43.3158 76.452 43.3158C76.4939 43.3158 76.5358 43.3158 76.5777 43.3158L101.782 38.2441H102.676L128.258 43.3158C129.222 43.4694 129.837 44.5033 130.004 45.3975V126.627C130.004 127.074 129.795 127.535 129.445 127.912C129.082 128.29 128.621 128.499 128.132 128.499C127.992 128.499 127.853 128.485 127.713 128.443L102.439 123.358C102.439 123.358 102.355 123.358 102.313 123.358C102.271 123.358 102.229 123.358 102.187 123.358L76.941 128.443C76.941 128.443 76.8292 128.471 76.7873 128.499C76.6755 128.555 76.5637 128.583 76.452 128.583V128.555ZM99.6444 42.6312C99.6444 42.6312 99.5606 42.6312 99.5187 42.6312L78.9948 46.6968C78.6874 46.7527 78.4778 47.0182 78.4778 47.3255V123.539C78.4778 123.735 78.5616 123.917 78.7153 124.042C78.8271 124.14 78.9808 124.182 79.1205 124.182C79.1624 124.182 79.2043 124.182 79.2462 124.182L99.7702 120.116C100.078 120.06 100.287 119.795 100.287 119.488V43.2738C100.287 43.0782 100.203 42.8966 100.05 42.7709C99.9378 42.6731 99.7841 42.6312 99.6444 42.6312ZM104.772 42.6312C104.618 42.6312 104.479 42.687 104.367 42.7709C104.213 42.8966 104.129 43.0782 104.129 43.2738V119.292C104.129 119.599 104.353 119.865 104.646 119.921L125.17 123.986C125.17 123.986 125.254 123.986 125.296 123.986C125.45 123.986 125.589 123.93 125.701 123.847C125.855 123.721 125.939 123.539 125.939 123.344V47.3395C125.939 47.0321 125.715 46.7667 125.422 46.7108L104.898 42.6451C104.898 42.6451 104.814 42.6451 104.772 42.6451V42.6312ZM73.993 54.6186C73.7275 54.6186 73.504 54.7723 73.4062 55.0098C69.5222 64.2588 61.8659 72.2504 53.022 81.0244C52.8963 81.1502 52.8264 81.3178 52.8264 81.4855V117.057C52.8264 117.336 53.022 117.587 53.2875 117.671L73.8114 123.763C73.8114 123.763 73.9371 123.791 73.993 123.791C74.1327 123.791 74.2724 123.749 74.3842 123.665C74.5519 123.539 74.6497 123.358 74.6497 123.148V55.2613C74.6497 54.9539 74.4261 54.6884 74.1327 54.6326C74.0908 54.6326 74.0489 54.6326 74.007 54.6326L73.993 54.6186ZM42.9486 14.7583C29.3685 14.7583 17.3811 24.1191 14.4471 37.0286C12.7146 44.6989 14.3632 52.3133 19.5187 60.3049C23.9755 67.2207 30.4722 73.5218 36.2005 79.0964C38.394 81.2201 40.4478 83.218 42.3199 85.1739C42.4457 85.2997 42.6133 85.3695 42.781 85.3695C42.9626 85.3695 43.1303 85.2997 43.242 85.1739C45.0164 83.3577 46.8047 81.5973 48.16 80.27L48.2717 80.1582L49.7946 78.6773C53.6088 74.9469 57.5627 71.1048 61.1254 67.0671C65.3866 61.9396 70.4303 55.0517 71.7436 47.2417C72.7496 40.8847 71.2826 34.2204 67.6221 28.4642C64.0454 22.8617 58.7363 18.5864 52.6448 16.4349C49.5292 15.3171 46.2599 14.7443 42.9486 14.7443V14.7583Z" fill="white"/>
<path d="M55.9424 60.9336C55.9424 60.9336 55.8725 60.9336 55.8306 60.9336C55.7887 60.9336 55.7468 60.9336 55.7049 60.9336H47.4897C46.4139 60.9336 45.4638 59.9975 45.4638 58.9357V51.8243C45.4638 50.3014 44.2623 49.505 43.0747 49.505C41.8872 49.505 40.6856 50.3014 40.6856 51.8243V58.9357C40.6856 59.9975 39.7356 60.9336 38.6598 60.9336H30.249C29.1732 60.9336 28.2232 59.9975 28.2232 58.9357V39.6273C28.2232 39.278 27.9298 38.9846 27.5805 38.9846H26.9658C25.9319 38.9846 25.3451 38.314 25.1215 37.6853C24.912 37.0845 24.9679 36.2462 25.7083 35.6594L41.5239 23.2529C41.9151 22.9455 42.3482 22.7778 42.7674 22.7778C43.1865 22.7778 43.6196 22.9455 44.0108 23.2529L59.6168 35.6455C60.7206 36.4139 60.4831 37.5036 60.3713 37.825C60.1757 38.4397 59.5889 39.1662 58.569 39.1662H57.9542C57.605 39.1662 57.3116 39.4596 57.3116 39.8089V59.1173C57.3116 59.5784 57.1299 60.0534 56.8226 60.4306C56.5431 60.752 56.2218 60.9476 55.9284 60.9476L55.9424 60.9336ZM42.7813 45.7467C46.2183 45.7467 49.1104 48.6109 49.1104 52.0059V56.6863C49.1104 57.0356 49.4038 57.329 49.7531 57.329H52.6312C52.9804 57.329 53.2738 57.0356 53.2738 56.6863V40.0185C53.2738 39.6692 52.9804 39.3758 52.6312 39.3758H32.5124C32.1631 39.3758 31.8697 39.6692 31.8697 40.0185V56.6863C31.8697 57.0356 32.1631 57.329 32.5124 57.329H35.7957C36.145 57.329 36.4384 57.0356 36.4384 56.6863V52.0059C36.4384 48.6109 39.3444 45.7467 42.7674 45.7467H42.7813ZM42.7813 27.3884C42.6416 27.3884 42.4879 27.4443 42.3762 27.5281L33.9654 34.2343C33.7558 34.402 33.672 34.6954 33.7558 34.9469C33.8397 35.1984 34.0912 35.38 34.3706 35.38H51.2061C51.4855 35.38 51.723 35.2123 51.8208 34.9469C51.9046 34.6954 51.8208 34.402 51.6112 34.2343L43.2005 27.5281C43.0887 27.4443 42.949 27.3884 42.7953 27.3884H42.7813Z" fill="white"/>
<path d="M81.5795 24.1332C80.322 24.1332 79.7632 23.1832 79.7632 22.2331C79.7632 21.2831 80.322 20.333 81.5795 20.333H104.562C105.82 20.333 106.379 21.2831 106.379 22.2331C106.379 23.1832 105.82 24.1332 104.562 24.1332H81.5795Z" fill="white"/>
<path d="M102.103 31.8593C101.265 31.8593 100.287 30.9931 100.287 29.8614C100.287 29.0091 101.237 28.0591 102.103 28.0591H115.041C116.298 28.0591 116.857 29.0091 116.857 29.9592C116.857 30.9092 116.298 31.8593 115.041 31.8593H102.103Z" fill="white"/>
</svg>
