<svg width="140" height="140" viewBox="0 0 140 140" fill="none" xmlns="http://www.w3.org/2000/svg">
<path d="M128.124 51.4184H95.1064V11.8755C95.1064 10.8353 94.2711 10 93.2309 10H43.5225C42.4823 10 41.647 10.8353 41.647 11.8755V41.7888H11.8755C10.8353 41.7888 10 42.6241 10 43.6643V128.124C10 129.165 10.8353 130 11.8755 130H128.124C129.165 130 130 129.165 130 128.124V53.2939C130 52.2537 129.165 51.4184 128.124 51.4184ZM91.3554 13.751V126.249H86.4066V96.0993C86.4066 95.0591 85.5713 94.2238 84.5311 94.2238H52.2065C51.1663 94.2238 50.331 95.0591 50.331 96.0993V126.249H45.4925C45.4768 104.09 45.4295 49.4011 45.3822 13.751H91.3396H91.3554ZM13.751 45.5398H41.647V126.249H13.751V45.5398ZM54.0977 97.9748H66.5012V126.249H54.0977V97.9748ZM70.2522 126.249V97.9748H82.6556V126.249H70.2522ZM126.249 126.249H95.1064V55.1694H126.249V126.249Z" fill="white"/>
<path d="M51.4815 22.3721H62.2616C63.3018 22.3721 64.1371 21.5368 64.1371 20.4966C64.1371 19.4564 63.3018 18.6211 62.2616 18.6211H51.4815C50.4413 18.6211 49.606 19.4564 49.606 20.4966C49.606 21.5368 50.4413 22.3721 51.4815 22.3721Z" fill="white"/>
<path d="M75.2324 22.3721H86.0126C87.0528 22.3721 87.8881 21.5368 87.8881 20.4966C87.8881 19.4564 87.0528 18.6211 86.0126 18.6211H75.2324C74.1922 18.6211 73.3569 19.4564 73.3569 20.4966C73.3569 21.5368 74.1922 22.3721 75.2324 22.3721Z" fill="white"/>
<path d="M51.4815 38.8887H62.2616C63.3018 38.8887 64.1371 38.0534 64.1371 37.0132C64.1371 35.973 63.3018 35.1377 62.2616 35.1377H51.4815C50.4413 35.1377 49.606 35.973 49.606 37.0132C49.606 38.0534 50.4413 38.8887 51.4815 38.8887Z" fill="white"/>
<path d="M75.2324 38.8887H86.0126C87.0528 38.8887 87.8881 38.0534 87.8881 37.0132C87.8881 35.973 87.0528 35.1377 86.0126 35.1377H75.2324C74.1922 35.1377 73.3569 35.973 73.3569 37.0132C73.3569 38.0534 74.1922 38.8887 75.2324 38.8887Z" fill="white"/>
<path d="M51.4815 55.4058H62.2616C63.3018 55.4058 64.1371 54.5705 64.1371 53.5303C64.1371 52.4901 63.3018 51.6548 62.2616 51.6548H51.4815C50.4413 51.6548 49.606 52.4901 49.606 53.5303C49.606 54.5705 50.4413 55.4058 51.4815 55.4058Z" fill="white"/>
<path d="M75.2324 55.4058H86.0126C87.0528 55.4058 87.8881 54.5705 87.8881 53.5303C87.8881 52.4901 87.0528 51.6548 86.0126 51.6548H75.2324C74.1922 51.6548 73.3569 52.4901 73.3569 53.5303C73.3569 54.5705 74.1922 55.4058 75.2324 55.4058Z" fill="white"/>
<path d="M51.4815 71.9229H62.2616C63.3018 71.9229 64.1371 71.0876 64.1371 70.0474C64.1371 69.0072 63.3018 68.1719 62.2616 68.1719H51.4815C50.4413 68.1719 49.606 69.0072 49.606 70.0474C49.606 71.0876 50.4413 71.9229 51.4815 71.9229Z" fill="white"/>
<path d="M75.2324 71.9229H86.0126C87.0528 71.9229 87.8881 71.0876 87.8881 70.0474C87.8881 69.0072 87.0528 68.1719 86.0126 68.1719H75.2324C74.1922 68.1719 73.3569 69.0072 73.3569 70.0474C73.3569 71.0876 74.1922 71.9229 75.2324 71.9229Z" fill="white"/>
<path d="M103.664 66.2964H117.691C118.731 66.2964 119.566 65.4611 119.566 64.4209C119.566 63.3807 118.731 62.5454 117.691 62.5454H103.664C102.624 62.5454 101.789 63.3807 101.789 64.4209C101.789 65.4611 102.624 66.2964 103.664 66.2964Z" fill="white"/>
<path d="M104.342 76.7139C103.302 76.7139 102.466 77.5492 102.466 78.5894C102.466 79.6295 103.302 80.4648 104.342 80.4648H118.369C119.409 80.4648 120.244 79.6295 120.244 78.5894C120.244 77.5492 119.409 76.7139 118.369 76.7139H104.342Z" fill="white"/>
<path d="M105.004 90.8828C103.964 90.8828 103.128 91.7181 103.128 92.7583C103.128 93.7985 103.964 94.6338 105.004 94.6338H119.031C120.071 94.6338 120.906 93.7985 120.906 92.7583C120.906 91.7181 120.071 90.8828 119.031 90.8828H105.004Z" fill="white"/>
<path d="M105.682 105.051C104.641 105.051 103.806 105.887 103.806 106.927C103.806 107.967 104.641 108.802 105.682 108.802H119.708C120.749 108.802 121.584 107.967 121.584 106.927C121.584 105.887 120.749 105.051 119.708 105.051H105.682Z" fill="white"/>
<path d="M20.7329 55.9258H34.7597C35.7999 55.9258 36.6352 55.0905 36.6352 54.0503C36.6352 53.0101 35.7999 52.1748 34.7597 52.1748H20.7329C19.6927 52.1748 18.8574 53.0101 18.8574 54.0503C18.8574 55.0905 19.6927 55.9258 20.7329 55.9258Z" fill="white"/>
<path d="M34.7755 66.3438H20.7329C19.6927 66.3438 18.8574 67.1791 18.8574 68.2192C18.8574 69.2594 19.6927 70.0947 20.7329 70.0947H34.7597C35.7999 70.0947 36.6352 69.2594 36.6352 68.2192C36.6352 67.1791 35.7999 66.3438 34.7597 66.3438H34.7755Z" fill="white"/>
<path d="M34.7755 80.5122H20.7329C19.6927 80.5122 18.8574 81.3475 18.8574 82.3877C18.8574 83.4279 19.6927 84.2632 20.7329 84.2632H34.7597C35.7999 84.2632 36.6352 83.4279 36.6352 82.3877C36.6352 81.3475 35.7999 80.5122 34.7597 80.5122H34.7755Z" fill="white"/>
<path d="M34.7755 94.6807H20.7329C19.6927 94.6807 18.8574 95.516 18.8574 96.5562C18.8574 97.5963 19.6927 98.4317 20.7329 98.4317H34.7597C35.7999 98.4317 36.6352 97.5963 36.6352 96.5562C36.6352 95.516 35.7999 94.6807 34.7597 94.6807H34.7755Z" fill="white"/>
<path d="M34.7755 108.313H20.7329C19.6927 108.313 18.8574 109.149 18.8574 110.189C18.8574 111.229 19.6927 112.064 20.7329 112.064H34.7597C35.7999 112.064 36.6352 111.229 36.6352 110.189C36.6352 109.149 35.7999 108.313 34.7597 108.313H34.7755Z" fill="white"/>
<path d="M51.4815 88.4238H62.2616C63.3018 88.4238 64.1371 87.5885 64.1371 86.5483C64.1371 85.5082 63.3018 84.6729 62.2616 84.6729H51.4815C50.4413 84.6729 49.606 85.5082 49.606 86.5483C49.606 87.5885 50.4413 88.4238 51.4815 88.4238Z" fill="white"/>
<path d="M75.2324 88.4238H86.0126C87.0528 88.4238 87.8881 87.5885 87.8881 86.5483C87.8881 85.5082 87.0528 84.6729 86.0126 84.6729H75.2324C74.1922 84.6729 73.3569 85.5082 73.3569 86.5483C73.3569 87.5885 74.1922 88.4238 75.2324 88.4238Z" fill="white"/>
</svg>
