<svg width="120" height="120" viewBox="0 0 120 120" fill="none" xmlns="http://www.w3.org/2000/svg">
<path fill-rule="evenodd" clip-rule="evenodd" d="M105.132 37.5649L117.307 48.1218H117.303C120.573 50.9532 120.919 55.909 118.072 59.1645C116.579 60.8721 114.416 61.8509 112.141 61.8509C110.244 61.8509 108.413 61.1657 106.982 59.9258L104.426 57.7071V118.254H15.58V57.7071L13.0206 59.9258C11.5752 61.1766 9.7657 61.8509 7.86886 61.8509C7.68318 61.8509 7.50114 61.8436 7.31546 61.8328C5.21837 61.6877 3.30696 60.7415 1.92711 59.1645C-0.916338 55.909 -0.574105 50.9568 2.69531 48.1218L54.8385 2.91417C57.7839 0.361945 62.222 0.361945 65.1638 2.91417L85.5485 20.5876V6.4416H105.132V37.5649ZM88.8215 9.70438V23.0999H88.8179H88.4393L101.852 34.7263V9.70438H88.8215ZM43.2536 81.6415V114.994H76.7487V81.6415H43.2536ZM80.0254 114.994H101.146H101.149V54.8685L60.0048 19.1954L18.8385 54.8867H18.8567V114.994H39.9769V78.3787H80.0254V114.994ZM112.141 58.5917C113.466 58.5917 114.729 58.0226 115.599 57.0256L115.603 57.0292C117.263 55.1296 117.063 52.2402 115.155 50.587L63.0121 5.37575C62.1528 4.63256 61.0788 4.25916 60.0011 4.25916C58.9235 4.25916 57.8494 4.63256 56.9902 5.37575L4.85065 50.5834C2.94289 52.2366 2.74264 55.1259 4.40284 57.0256C5.20745 57.9428 6.32153 58.4975 7.54483 58.5809C8.76449 58.6606 9.9441 58.2691 10.8689 57.4679L60.0011 14.8704L109.133 57.4679C109.971 58.1929 111.038 58.5917 112.141 58.5917ZM71.8665 66.4841H48.1395V42.8579H71.8665V66.4841ZM68.5898 46.1243H51.4162V63.2249H68.5898V46.1243Z" fill="white"/>
</svg>
