<svg width="140" height="140" viewBox="0 0 140 140" fill="none" xmlns="http://www.w3.org/2000/svg">
<path d="M122.531 59.195L111.371 49.5178V20.9881H93.4194V33.9553L74.7335 17.7547C72.0369 15.4151 67.9686 15.4151 65.2686 17.7547L17.4707 59.195C14.4737 61.7938 14.16 66.3333 16.7665 69.3175C18.0314 70.7631 19.7835 71.6304 21.7058 71.7634C21.876 71.7733 22.0429 71.78 22.2131 71.78C23.9519 71.78 25.6106 71.1619 26.9355 70.0154L29.2817 67.9816V123.482H110.724V67.9816L113.067 70.0154C114.378 71.1519 116.057 71.78 117.796 71.78C119.882 71.78 121.864 70.8827 123.232 69.3175C125.842 66.3333 125.525 61.7904 122.528 59.195H122.531ZM96.4197 36.2583V23.979H108.364V46.9158L96.0693 36.2583H96.4164H96.4197ZM54.6491 120.495V89.9214H85.353V120.495H54.6491ZM107.717 120.495H88.3566V86.9305H51.6455V120.495H32.2853V65.3961H32.2686L70.0044 32.6792L107.72 65.3795V120.495H107.717ZM120.966 67.3568C120.169 68.2707 119.01 68.7924 117.796 68.7924C116.784 68.7924 115.807 68.4269 115.039 67.7622L70.0011 28.7146L24.9631 67.7622C24.1154 68.4967 23.0341 68.8556 21.9161 68.7825C20.7947 68.706 19.7735 68.1976 19.0359 67.3568C17.5141 65.6154 17.6976 62.9668 19.4464 61.4515L67.241 20.0111C68.0287 19.3299 69.0132 18.9876 70.0011 18.9876C70.9889 18.9876 71.9734 19.3299 72.7611 20.0111L120.559 61.4548C122.308 62.9702 122.491 65.6188 120.969 67.3601L120.966 67.3568Z" fill="white"/>
<path d="M59.1284 76.027H80.8781V54.3696H59.1284V76.027ZM62.1321 57.3638H77.8745V73.0394H62.1321V57.3638Z" fill="white"/>
</svg>
