<svg width="140" height="140" viewBox="0 0 140 140" fill="none" xmlns="http://www.w3.org/2000/svg">
<path fill-rule="evenodd" clip-rule="evenodd" d="M112.988 47.5676H26.9083C26.3229 47.5676 25.7548 47.2922 25.3933 46.8273C25.0317 46.3625 24.9112 45.7427 25.0662 45.1746L36.7386 1.41171C36.9624 0.568126 37.7199 0 38.5807 0H101.333C102.194 0 102.951 0.585342 103.175 1.41171L114.847 45.1918C115.002 45.76 114.882 46.3625 114.52 46.8446C114.159 47.3094 113.608 47.5848 113.022 47.5848L112.988 47.5676ZM29.3701 43.7801H110.509L99.8522 3.80472H40.0268L29.3701 43.7801Z" fill="white"/>
<path fill-rule="evenodd" clip-rule="evenodd" d="M107.978 33.0546H31.9006C30.9365 33.0546 30.1445 32.1938 30.1445 31.1608C30.1445 30.1279 30.9365 29.2671 31.9006 29.2671H107.961C108.925 29.2671 109.717 30.1279 109.717 31.1608C109.717 32.1938 108.942 33.0546 107.978 33.0546Z" fill="white"/>
<path fill-rule="evenodd" clip-rule="evenodd" d="M69.9477 59.4294C65.5404 59.4294 61.9595 55.8485 61.9595 51.4412V45.6911C61.9595 44.6409 62.8203 43.7974 63.8532 43.7974C64.8862 43.7974 65.747 44.6582 65.747 45.6911V51.4412C65.747 53.7482 67.6235 55.6419 69.9477 55.6419C72.2718 55.6419 74.1484 53.7654 74.1484 51.4412V45.6911C74.1484 44.6409 75.0092 43.7974 76.0421 43.7974C77.0751 43.7974 77.9359 44.6582 77.9359 45.6911V51.4412C77.9359 55.8485 74.3549 59.4294 69.9477 59.4294Z" fill="white"/>
<path fill-rule="evenodd" clip-rule="evenodd" d="M65.988 125.28C64.9378 125.28 64.0942 124.42 64.0942 123.387V56.0896C64.0942 55.0394 64.9378 54.1958 65.988 54.1958C67.0382 54.1958 67.8817 55.0566 67.8817 56.0896V123.387C67.8817 124.437 67.0209 125.28 65.988 125.28Z" fill="white"/>
<path fill-rule="evenodd" clip-rule="evenodd" d="M74.114 125.28C73.0638 125.28 72.2202 124.42 72.2202 123.387V55.9001C72.2202 54.8499 73.081 54.0063 74.114 54.0063C75.1469 54.0063 76.0077 54.8499 76.0077 55.9001V123.387C76.0077 124.437 75.1469 125.28 74.114 125.28Z" fill="white"/>
<path fill-rule="evenodd" clip-rule="evenodd" d="M79.9329 131.736H60.1518C57.3284 131.736 55.0215 129.429 55.0215 126.606C55.0215 123.783 57.3284 121.476 60.1518 121.476H79.9329C82.7564 121.476 85.0633 123.783 85.0633 126.606C85.0633 129.429 82.7564 131.736 79.9329 131.736ZM60.169 125.28C59.4288 125.28 58.8434 125.883 58.8434 126.606C58.8434 127.329 59.446 127.932 60.169 127.932H79.9502C80.6904 127.932 81.2758 127.329 81.2758 126.606C81.2758 125.883 80.6732 125.28 79.9502 125.28H60.169Z" fill="white"/>
<path fill-rule="evenodd" clip-rule="evenodd" d="M96.2537 140H43.8483C42.7982 140 41.9546 139.139 41.9546 138.106V129.842C41.9546 128.792 42.8154 127.949 43.8483 127.949H96.2537C97.3038 127.949 98.1474 128.81 98.1474 129.842V138.106C98.1474 139.156 97.2866 140 96.2537 140ZM45.7421 136.195H94.3427V131.736H45.7421V136.195Z" fill="white"/>
<path fill-rule="evenodd" clip-rule="evenodd" d="M99.5593 62.7867C98.5091 62.7867 97.6655 61.9259 97.6655 60.8929V45.674C97.6655 44.6239 98.5091 43.7803 99.5593 43.7803C100.609 43.7803 101.453 44.6411 101.453 45.674V60.8929C101.453 61.9431 100.592 62.7867 99.5593 62.7867Z" fill="white"/>
<path fill-rule="evenodd" clip-rule="evenodd" d="M99.5592 72.1868C96.0988 72.1868 93.2754 69.3634 93.2754 65.903C93.2754 62.4426 96.0988 59.6191 99.5592 59.6191C103.02 59.6191 105.843 62.4426 105.843 65.903C105.843 69.3634 103.02 72.1868 99.5592 72.1868ZM99.5592 64.1986C98.6295 64.1986 97.8548 64.9733 97.8548 65.903C97.8548 66.8326 98.6295 67.6073 99.5592 67.6073C100.489 67.6073 101.264 66.8326 101.264 65.903C101.264 64.9733 100.489 64.1986 99.5592 64.1986Z" fill="white"/>
</svg>
