<svg width="140" height="140" viewBox="0 0 140 140" fill="none" xmlns="http://www.w3.org/2000/svg">
<path d="M48.7932 108.966H45.6988V85.3421H29.4197V108.966H26.3252V82.2041H48.7932V108.966Z" fill="white"/>
<path d="M36.078 65.9961H29.625V75.7801H36.078V65.9961Z" fill="white"/>
<path d="M45.3026 65.9961H38.8496V75.7801H45.3026V65.9961Z" fill="white"/>
<path d="M54.5277 65.9961H48.0747V75.7801H54.5277V65.9961Z" fill="white"/>
<path d="M63.7376 65.9961H57.2847V75.7801H63.7376V65.9961Z" fill="white"/>
<path d="M34.978 98.9894C33.8487 98.9894 32.9395 98.0717 32.9395 96.932C32.9395 95.7922 33.8487 94.8745 34.978 94.8745C36.1073 94.8745 37.0166 95.7922 37.0166 96.932C37.0166 98.0717 36.1073 98.9894 34.978 98.9894ZM34.978 95.8662C34.3914 95.8662 33.9074 96.3399 33.9074 96.932C33.9074 97.524 34.3914 97.9977 34.978 97.9977C35.5646 97.9977 36.0339 97.524 36.0339 96.932C36.0339 96.3399 35.5646 95.8662 34.978 95.8662Z" fill="white"/>
<path d="M128.458 86.8813H125.525V108.877H128.458V86.8813Z" fill="white"/>
<path d="M12.2606 75.1732L0 63.8943L40.507 28L41.4163 28.4144L117.928 63.3762L107.545 74.9808L44.8628 47.9528L12.2606 75.1732ZM44.3495 44.3263L106.738 71.2212L112.795 64.4568L41.0643 31.6856L4.64907 63.9387L12.3486 71.0287L44.3495 44.3263Z" fill="white"/>
<path d="M107.515 112H16.3379V68.0537H19.4324V108.877H104.421V73.1011H107.515V112Z" fill="white"/>
<path d="M132.388 108.877H7.0249V112H132.388V108.877Z" fill="white"/>
<path d="M73.1677 99.8031H57.2993V89.7231C57.2993 85.3122 60.8631 81.7153 65.2335 81.7153C69.6039 81.7153 73.1677 85.3122 73.1677 89.7231V99.8031ZM60.3938 96.6799H70.0733V89.7231C70.0733 87.0292 67.9027 84.8385 65.2335 84.8385C62.5643 84.8385 60.3938 87.0292 60.3938 89.7231V96.6799Z" fill="white"/>
<path d="M85.927 99.8031H70.0586V89.7231C70.0586 85.3122 73.6224 81.7153 77.9928 81.7153C82.3632 81.7153 85.927 85.3122 85.927 89.7231V99.8031ZM73.1677 96.6799H82.8325V89.7231C82.8325 87.0292 80.662 84.8385 77.9928 84.8385C75.3236 84.8385 73.1531 87.0292 73.1531 89.7231V96.6799H73.1677Z" fill="white"/>
<path d="M98.701 99.8031H82.8325V89.7231C82.8325 85.3122 86.3963 81.7153 90.7667 81.7153C95.1372 81.7153 98.701 85.3122 98.701 89.7231V99.8031ZM85.927 96.6799H95.6065V89.7231C95.6065 87.0292 93.4359 84.8385 90.7667 84.8385C88.0976 84.8385 85.927 87.0292 85.927 89.7231V96.6799Z" fill="white"/>
<path d="M126.991 97.9678C119.82 97.9678 113.983 92.0767 113.983 84.8386C113.983 77.6006 119.82 71.7095 126.991 71.7095C134.163 71.7095 140 77.6006 140 84.8386C140 92.0767 134.163 97.9678 126.991 97.9678ZM126.991 74.6698C121.433 74.6698 116.916 79.2288 116.916 84.8386C116.916 90.4485 121.433 95.0074 126.991 95.0074C132.55 95.0074 137.067 90.4485 137.067 84.8386C137.067 79.2288 132.55 74.6698 126.991 74.6698Z" fill="white"/>
</svg>
