<svg width="140" height="140" viewBox="0 0 140 140" fill="none" xmlns="http://www.w3.org/2000/svg">
<path d="M132.537 52.4854H119.217V46.8314H123.585C124.277 46.8314 124.968 46.1569 124.968 45.4681V36.8866C124.968 36.2121 124.277 35.5233 123.585 35.5233H107.742C107.05 35.5233 106.358 36.1978 106.358 36.8866V43.8896H101.99C101.298 43.8896 100.607 44.564 100.607 45.2528V52.2558H94.8692V33.7152C94.8692 28.2908 90.5013 24 84.9947 24H56.0486C50.5419 24 46.1741 28.2908 46.1741 33.7152V52.2558H40.4367V36.657C40.4367 35.9825 39.7448 35.2937 39.0529 35.2937H13.1052C12.4132 35.2937 11.7213 35.9682 11.7213 36.657V52.2558H8.50667C5.52269 52.2558 3 54.7384 3 57.6802V61.0669C3 64.0087 5.52269 66.4913 8.50667 66.4913H14.4746V114.637C14.4746 115.311 15.1666 116 15.8585 116H24.5798C25.2718 116 25.9637 115.326 25.9637 114.637V99.0379H43.1901C43.882 99.0379 44.5739 98.3634 44.5739 97.6746V86.3666C44.5739 85.6921 43.882 85.0033 43.1901 85.0033C42.4981 85.0033 41.8062 85.4625 41.8062 86.3666V96.3113H25.9637V66.477H46.1741V72.131H43.1901C42.4981 72.131 41.8062 72.8055 41.8062 73.4943C41.8062 79.8228 46.866 84.8024 53.2952 84.8024H64.7843V100.401H54.6791C53.9872 100.401 53.2952 101.076 53.2952 101.764V104.706C50.7726 105.381 48.9274 107.648 48.9274 110.131C48.9274 113.288 51.4501 115.785 54.6647 115.785C57.8793 115.785 60.402 113.302 60.402 110.131C60.402 107.419 58.5713 105.381 56.0342 104.706V103.128H86.1191V104.706C83.5964 105.381 81.7512 107.648 81.7512 110.131C81.7512 113.288 84.2739 115.785 87.4885 115.785C90.7031 115.785 93.2258 113.302 93.2258 110.131C93.2258 107.419 91.3951 105.381 88.858 104.706V101.764C88.858 101.09 88.166 100.401 87.4741 100.401H77.3689V84.8024H87.7047C94.134 84.8024 99.1938 79.8372 99.1938 73.4943C99.1938 72.8198 98.5019 72.131 97.8099 72.131H94.8259V66.477H115.036V96.0817H99.1938V87.5002C99.1938 86.8258 98.5019 86.137 97.8099 86.137C97.118 86.137 96.426 86.8114 96.426 87.5002V97.445C96.426 98.1195 97.118 98.8083 97.8099 98.8083H115.036V114.407C115.036 115.082 115.728 115.77 116.42 115.77H125.141C125.833 115.77 126.525 115.096 126.525 114.407V66.4913H132.493C135.477 66.4913 138 64.0087 138 61.0669V57.6802C138 54.7384 135.477 52.4854 132.493 52.4854H132.537ZM57.6631 110.346C57.6631 111.925 56.2792 113.288 54.6791 113.288C53.079 113.288 51.6951 111.925 51.6951 110.346C51.6951 109.212 52.3871 108.308 53.079 107.863C53.3097 108.538 53.771 108.997 54.4629 108.997C55.1548 108.997 55.6161 108.538 55.8468 107.863C57 108.308 57.6775 109.227 57.6775 110.346H57.6631ZM90.732 110.346C90.732 111.925 89.3481 113.288 87.748 113.288C86.1479 113.288 84.764 111.925 84.764 110.346C84.764 109.212 85.456 108.308 86.1479 107.863C86.3785 108.538 86.8398 108.997 87.5318 108.997C88.2237 108.997 88.685 108.538 88.9156 107.863C90.0689 108.308 90.7608 109.227 90.7608 110.346H90.732ZM109.342 38.2355H122.201V43.8896H109.342V38.2355ZM103.605 46.8314H116.463V52.4854H103.605V46.8314ZM37.4527 52.4854H31.7154V38.2499H37.4527V52.4854ZM28.9477 52.4854H23.2104V38.2499H28.9477V52.4854ZM14.4891 38.2355H20.2264V52.4711H14.4891V38.2355ZM23.2104 113.058H17.473V66.4913H23.2104V113.058ZM8.50667 63.7791C7.1228 63.7791 5.98398 62.6455 5.98398 61.2965V57.9098C5.98398 56.5466 7.13721 55.4272 8.50667 55.4272H46.1741V64.0231C35.1463 63.7935 19.5344 63.7935 8.50667 63.7935V63.7791ZM53.2952 82.0902C48.9274 82.0902 45.4821 78.9187 44.8046 75.0872H64.7843V82.0902H53.2952ZM67.7683 100.401V62.8751C67.7683 60.8373 69.3828 59.2588 71.4442 59.2588C73.5056 59.2588 75.1201 60.8373 75.1201 62.8751V100.401H67.7683ZM87.748 82.0902H77.6428V75.0872H96.2531C95.5611 78.9331 92.1159 82.0902 87.7624 82.0902H87.748ZM77.6428 72.1454V62.8751C77.6428 59.2588 74.6588 56.5466 71.2136 56.5466C67.7683 56.5466 64.7843 59.4884 64.7843 63.1047V72.375H48.9418V34.1744C48.9418 30.3285 52.1564 27.1714 56.063 27.1714H84.9947C88.9012 27.1714 92.1159 30.3285 92.1159 34.1744V72.375H77.6428V72.1454ZM123.585 113.058H117.847V66.4913H123.585V113.058ZM135.059 61.0669C135.059 62.4302 133.906 63.5495 132.537 63.5495H94.8692V54.968H132.537C133.92 54.968 135.059 56.1017 135.059 57.4506V61.0669Z" fill="white"/>
</svg>
