<?xml version="1.0" encoding="UTF-8"?>
<svg width="48px" height="48px" viewBox="0 0 48 48" version="1.1" xmlns="http://www.w3.org/2000/svg" xmlns:xlink="http://www.w3.org/1999/xlink">
    <title>Group</title>
    <g id="Symbols" stroke="none" stroke-width="1" fill="none" fill-rule="evenodd">
        <g id="block/head-copy-2" transform="translate(-1491.000000, -14.000000)">
            <g id="Group-3-Copy" transform="translate(1486.000000, 14.000000)">
                <g id="Group" transform="translate(5.000000, 0.000000)">
                    <circle id="Oval-Copy-2" stroke="#FFFFFF" opacity="0" cx="24" cy="24" r="24"></circle>
                    <path d="M13.8661618,22.1013687 C13.8661618,17.5602646 17.5603812,13.8660452 22.1012366,13.8660452 C26.6419675,13.8660452 30.3360624,17.5602646 30.3360624,22.1013687 C30.3360624,26.6419753 26.6419675,30.3359458 22.1012366,30.3359458 C17.5603812,30.3359458 13.8661618,26.6419753 13.8661618,22.1013687 M35.7265397,34.4067658 L29.8693862,28.5498611 C31.3252767,26.7991099 32.2023941,24.5508279 32.2023941,22.1013687 C32.2023941,16.5312379 27.6709941,11.999838 22.1012366,11.999838 C16.5313545,11.999838 11.9999546,16.5312379 11.9999546,22.1013687 C11.9999546,27.6710019 16.5313545,32.202153 22.1012366,32.202153 C24.5506957,32.202153 26.7989777,31.32516 28.5497289,29.8692696 L34.4070068,35.7264231 C34.5891486,35.9086893 34.8280232,35.9997602 35.0667733,35.9997602 C35.3055234,35.9997602 35.5443979,35.9086893 35.7266641,35.7264231 C36.0910722,35.362015 36.0910722,34.7712982 35.7265397,34.4067658" id="Fill-1" fill="#FFFFFF"></path>
                </g>
            </g>
        </g>
    </g>
</svg>