<?xml version="1.0" encoding="utf-8"?>
<!-- Generator: Adobe Illustrator 25.0.1, SVG Export Plug-In . SVG Version: 6.00 Build 0)  -->
<svg version="1.1" id="圖層_1" xmlns="http://www.w3.org/2000/svg" xmlns:xlink="http://www.w3.org/1999/xlink" x="0px" y="0px"
	 viewBox="0 0 48 48" style="enable-background:new 0 0 48 48;" xml:space="preserve">
<style type="text/css">
	.st0{fill-rule:evenodd;clip-rule:evenodd;fill:#FFFFFF;}
</style>
<g id="Page-1">
	<g id="_x32__x5F_1_x5F_1_x5F_1_x5F_spnp_x5F_Products_x5F_productlist2" transform="translate(-1581.000000, -182.000000)">
		<g id="Group" transform="translate(1581.000000, 182.000000)">
			<g id="Group-3" transform="translate(9.000000, 10.000000)">
				<path id="Rectangle" class="st0" d="M3,0h7c1.7,0,3,1.3,3,3v7c0,1.7-1.3,3-3,3H3c-1.7,0-3-1.3-3-3V3C0,1.3,1.3,0,3,0z"/>
				<path id="Rectangle-Copy-41" class="st0" d="M3,16h7c1.7,0,3,1.3,3,3v7c0,1.7-1.3,3-3,3H3c-1.7,0-3-1.3-3-3v-7
					C0,17.3,1.3,16,3,16z"/>
				<path id="Rectangle-Copy-40" class="st0" d="M19.2,0h7c1.7,0,3,1.3,3,3v7c0,1.7-1.3,3-3,3h-7c-1.7,0-3-1.3-3-3V3
					C16.2,1.3,17.6,0,19.2,0z"/>
				<path id="Rectangle-Copy-44" class="st0" d="M19.2,16h7c1.7,0,3,1.3,3,3v7c0,1.7-1.3,3-3,3h-7c-1.7,0-3-1.3-3-3v-7
					C16.2,17.3,17.6,16,19.2,16z"/>
			</g>
		</g>
	</g>
</g>
</svg>
