<?xml version="1.0" encoding="UTF-8"?>
<svg width="48px" height="48px" viewBox="0 0 48 48" version="1.1" xmlns="http://www.w3.org/2000/svg" xmlns:xlink="http://www.w3.org/1999/xlink">
    <title>Group 3</title>
    <g id="Page-1" stroke="none" stroke-width="1" fill="none" fill-rule="evenodd">
        <g id="7_spnp_contact_us" transform="translate(-1619.000000, -1021.000000)">
            <g id="page-copy-3" transform="translate(1437.000000, 1021.000000)">
                <g id="Group-3" transform="translate(182.000000, 0.000000)">
                    <rect id="Rectangle-Copy-6" x="0" y="0" width="48" height="48" rx="5"></rect>
                    <g id="icon/del" transform="translate(13.000000, 11.000000)" fill="#979797">
                        <path d="M8.125,2.4375 C8.125,1.98960938 8.48960938,1.625 8.9375,1.625 L12.1875,1.625 C12.6353906,1.625 13,1.98960938 13,2.4375 L13,3.25 L8.125,3.25 L8.125,2.4375 Z M19.09375,3.25 L14.625,3.25 L14.625,2.4375 C14.625,1.09128906 13.5337109,0 12.1875,0 L8.9375,0 C7.59128906,0 6.5,1.09128906 6.5,2.4375 L6.5,3.25 L2.03125,3.25 C0.909441406,3.25 0,4.15944141 0,5.28125 L0,6.90625 C0,7.35500391 0.363746094,7.71875 0.8125,7.71875 L20.3125,7.71875 C20.7612539,7.71875 21.125,7.35500391 21.125,6.90625 L21.125,5.28125 C21.125,4.15944141 20.2155586,3.25 19.09375,3.25 L19.09375,3.25 Z" id="Fill-1"></path>
                        <path d="M5.6875,11.375 C5.6875,10.9260938 6.05109375,10.5625 6.5,10.5625 C6.94890625,10.5625 7.3125,10.9260938 7.3125,11.375 L7.3125,21.9375 C7.3125,22.3864063 6.94890625,22.75 6.5,22.75 C6.05109375,22.75 5.6875,22.3864063 5.6875,21.9375 L5.6875,11.375 Z M9.75,11.375 C9.75,10.9260938 10.1135938,10.5625 10.5625,10.5625 C11.0114063,10.5625 11.375,10.9260938 11.375,11.375 L11.375,21.9375 C11.375,22.3864063 11.0114063,22.75 10.5625,22.75 C10.1135938,22.75 9.75,22.3864063 9.75,21.9375 L9.75,11.375 Z M13.8125,11.375 C13.8125,10.9260938 14.1760938,10.5625 14.625,10.5625 C15.0739063,10.5625 15.4375,10.9260938 15.4375,11.375 L15.4375,21.9375 C15.4375,22.3864063 15.0739063,22.75 14.625,22.75 C14.1760938,22.75 13.8125,22.3864063 13.8125,21.9375 L13.8125,11.375 Z M1.54192188,9.34375 C1.39694141,9.34375 1.28141406,9.46491406 1.28832031,9.60974219 L1.95863281,23.6782812 C2.02058594,24.9803125 3.09003906,26 4.39308594,26 L16.7319141,26 C18.0349609,26 19.1044141,24.9803125 19.1663672,23.6782812 L19.8366797,9.60974219 C19.8435859,9.46491406 19.7280586,9.34375 19.5830781,9.34375 L1.54192188,9.34375 Z" id="Fill-3"></path>
                    </g>
                </g>
            </g>
        </g>
    </g>
</svg>