<?xml version="1.0" encoding="UTF-8"?>
<svg width="40px" height="40px" viewBox="0 0 40 40" version="1.1" xmlns="http://www.w3.org/2000/svg" xmlns:xlink="http://www.w3.org/1999/xlink">
    <title>Group</title>
    <g id="Page-1" stroke="none" stroke-width="1" fill="none" fill-rule="evenodd">
        <g id="7_spnp_contact_us" transform="translate(-1361.000000, -741.000000)">
            <g id="Group" transform="translate(1361.000000, 741.000000)">
                <g id="icon/tag-copy-2">
                    <rect id="Rectangle" x="0" y="0" width="40" height="40"></rect>
                    <g id="Group" transform="translate(5.200000, 8.000000)" fill="#EC8225">
                        <path d="M26.6791115,22.8 C27.3402031,22.8 27.9130316,22.5861937 28.4,22.1640205 L20.0676616,14.0021966 C19.8677483,14.1424155 19.6739754,14.278764 19.4909351,14.4084181 C18.8673807,14.8584154 18.3612967,15.2095639 17.9726831,15.4611838 C17.5841229,15.7133789 17.0671462,15.9704381 16.4218063,16.2328842 C15.7760393,16.4956442 15.1744304,16.6266057 14.6163391,16.6266057 L14.6,16.6266057 L14.5836609,16.6266057 C14.0255162,16.6266057 13.4239073,16.4956965 12.7781937,16.2328842 C12.13248,15.9704381 11.6155033,15.7133789 11.2273169,15.4611838 C10.8387567,15.2095639 10.3329397,14.8584677 9.70906488,14.4084181 C9.53520863,14.2835757 9.34239692,14.1465995 9.13394029,14 L0.8,22.1640205 C1.28691497,22.5861937 1.86011732,22.8 2.52115551,22.8 L26.6791115,22.8 Z" id="Fill-1"></path>
                        <path d="M1.6252492,9.04181615 C1.01398129,8.62211309 0.471917465,8.14143582 0,7.6 L0,20.4 L7.2,12.9849224 C5.75959169,11.9492775 3.90369708,10.6364182 1.6252492,9.04181615" id="Fill-3"></path>
                        <path d="M27.9903874,9.04177972 C25.7979605,10.5693848 23.9345679,11.8844751 22.4,12.9877514 L29.6,20.4 L29.6,7.6 C29.1383675,8.13053224 28.6018998,8.6108739 27.9903874,9.04177972" id="Fill-5"></path>
                        <path d="M26.9569058,0 L2.64271799,0 C1.79446866,0 1.14232056,0.286434277 0.685467575,0.858711692 C0.2282384,1.43125781 0,2.14728976 0,3.00600145 C0,3.69962382 0.302884771,4.45117792 0.908385607,5.26087872 C1.51388644,6.07025708 2.15818834,6.70600145 2.84096886,7.16843428 C3.21527554,7.43288889 4.34405335,8.21760058 6.22730229,9.52230065 C7.24392245,10.2267785 8.12801708,10.8408119 8.88775484,11.3706885 C9.53533495,11.8218896 10.0938123,12.2126333 10.5549109,12.5369005 C10.6078458,12.5740349 10.6910908,12.6335788 10.8015825,12.7125766 C10.920619,12.798077 11.0712552,12.9065781 11.2570919,13.0407669 C11.6149538,13.2995788 11.9122495,13.5087887 12.1490328,13.6686115 C12.3854935,13.828488 12.6719873,14.0070661 13.008084,14.2053667 C13.3439121,14.4033987 13.6606621,14.5523123 13.9579578,14.6513551 C14.2553072,14.7503442 14.5305691,14.8 14.7837971,14.8 L14.8002418,14.8 L14.8166866,14.8 C15.0698609,14.8 15.3451765,14.7503442 15.6425796,14.6513551 C15.9398216,14.5523123 16.2563029,14.4037211 16.5923996,14.2053667 C16.9281739,14.0070661 17.2142915,13.8281118 17.4515047,13.6686115 C17.6882879,13.5087887 17.9855836,13.2996325 18.3434992,13.0407669 C18.5289597,12.9065781 18.679596,12.7980232 18.7986325,12.7128453 C18.9091779,12.6335251 18.9923691,12.5743573 19.0456265,12.5369005 C19.404832,12.2869557 19.9645991,11.8978243 20.7171893,11.3752564 C22.0866197,10.4237894 24.1034153,9.02337836 26.7760671,7.16843428 C27.5798725,6.60701235 28.2514211,5.92951198 28.7911429,5.13690051 C29.3298973,4.34428903 29.6,3.51287727 29.6,2.64293391 C29.6,1.91610022 29.3381197,1.29416703 28.8154876,0.77616703 C28.2922644,0.25881191 27.6726834,0 26.9569058,0" id="Fill-7"></path>
                    </g>
                </g>
                <rect id="Rectangle" opacity="0" x="0" y="0" width="40" height="40"></rect>
            </g>
        </g>
    </g>
</svg>