<?xml version="1.0" encoding="utf-8"?>
<!-- Generator: Adobe Illustrator 25.0.1, SVG Export Plug-In . SVG Version: 6.00 Build 0)  -->
<svg version="1.1" id="圖層_1" xmlns="http://www.w3.org/2000/svg" xmlns:xlink="http://www.w3.org/1999/xlink" x="0px" y="0px"
	 viewBox="0 0 48 48" style="enable-background:new 0 0 48 48;" xml:space="preserve">
<style type="text/css">
	.st0{opacity:0;}
	.st1{filter:url(#filter-2);}
	.st2{fill-rule:evenodd;clip-rule:evenodd;}
	.st3{fill:#FFFFFF;}
</style>
<filter  filterUnits="objectBoundingBox" height="112.5%" id="filter-2" width="112.5%" x="-6.2%" y="-6.2%">
	<feOffset  dx="0" dy="2" in="SourceAlpha" result="shadowOffsetOuter1"></feOffset>
	<feGaussianBlur  in="shadowOffsetOuter1" result="shadowBlurOuter1" stdDeviation="2"></feGaussianBlur>
	<feComposite  in="shadowBlurOuter1" in2="SourceAlpha" operator="out" result="shadowBlurOuter1"></feComposite>
	
		<feColorMatrix  in="shadowBlurOuter1" type="matrix" values="0 0 0 0 0.737347147   0 0 0 0 0.737347147   0 0 0 0 0.737347147  0 0 0 0.0388439685 0">
		</feColorMatrix>
</filter>
<g id="Symbols">
	<g id="block_x2F_no" transform="translate(-375.000000, 0.000000)">
		<g id="Group" transform="translate(375.000000, 0.000000)">
			<g id="Rectangle-Copy-10" class="st0">
				<g class="st1">
					<path id="path-1_1_" class="st2" d="M0,0h40c4.4,0,8,3.6,8,8v32c0,4.4-3.6,8-8,8H0l0,0V0z"/>
				</g>
			</g>
			<path id="Stroke-1-Copy" class="st3" d="M20.9,17.6c0.2-0.2,0.5-0.3,0.8-0.1l0.1,0.1l7.2,6c0.3,0.2,0.3,0.6,0.1,0.9L29,24.5
				l-7.2,6c-0.3,0.2-0.6,0.2-0.8-0.1c-0.2-0.2-0.2-0.6,0-0.8l0.1-0.1l6.6-5.5L21,18.5C20.8,18.3,20.7,18,20.9,17.6L20.9,17.6z"/>
		</g>
	</g>
</g>
</svg>
