<?xml version="1.0" encoding="UTF-8"?>
<svg width="48px" height="48px" viewBox="0 0 48 48" version="1.1" xmlns="http://www.w3.org/2000/svg" xmlns:xlink="http://www.w3.org/1999/xlink">
    <title>Group</title>
    <defs>
        <path d="M0,0 L40,0 C44.418278,-8.11624501e-16 48,3.581722 48,8 L48,40 C48,44.418278 44.418278,48 40,48 L0,48 L0,48 L0,0 Z" id="path-1"></path>
        <filter x="-6.2%" y="-6.2%" width="112.5%" height="112.5%" filterUnits="objectBoundingBox" id="filter-2">
            <feOffset dx="0" dy="2" in="SourceAlpha" result="shadowOffsetOuter1"></feOffset>
            <feGaussianBlur stdDeviation="2" in="shadowOffsetOuter1" result="shadowBlurOuter1"></feGaussianBlur>
            <feComposite in="shadowBlurOuter1" in2="SourceAlpha" operator="out" result="shadowBlurOuter1"></feComposite>
            <feColorMatrix values="0 0 0 0 0.737347147   0 0 0 0 0.737347147   0 0 0 0 0.737347147  0 0 0 0.0388439685 0" type="matrix" in="shadowBlurOuter1"></feColorMatrix>
        </filter>
    </defs>
    <g id="Symbols" stroke="none" stroke-width="1" fill="none" fill-rule="evenodd">
        <g id="block/no" transform="translate(-375.000000, 0.000000)">
            <g id="Group" transform="translate(375.000000, 0.000000)">
                <g id="Rectangle-Copy-10" opacity="0">
                    <use fill="black" fill-opacity="1" filter="url(#filter-2)" xlink:href="#path-1"></use>
                    <path stroke="#979797" stroke-width="1" d="M40,0.5 C42.0710678,0.5 43.9460678,1.33946609 45.3033009,2.69669914 C46.6605339,4.05393219 47.5,5.92893219 47.5,8 L47.5,8 L47.5,40 C47.5,42.0710678 46.6605339,43.9460678 45.3033009,45.3033009 C43.9460678,46.6605339 42.0710678,47.5 40,47.5 L40,47.5 L0.5,47.5 L0.5,0.5 Z" stroke-linejoin="square" fill="#FFFFFF" fill-rule="evenodd"></path>
                </g>
                <path d="M20.9390725,17.6158831 C21.1276431,17.3896046 21.4475301,17.3372908 21.695076,17.4774531 L21.7841169,17.5390725 L28.9841169,23.539239 C29.245798,23.7573126 29.2695822,24.1425188 29.0554737,24.3909743 L28.9841043,24.4611045 L21.7841043,30.460938 C21.5295353,30.673073 21.151197,30.6386734 20.939062,30.3841043 C20.7504976,30.1578208 20.7567259,29.8337441 20.9392299,29.6155316 L21.0158957,29.539062 L27.662,24 L21.0158831,18.4609275 C20.7896046,18.2723569 20.7372908,17.9524699 20.8774531,17.704924 L20.9390725,17.6158831 Z" id="Stroke-1-Copy" fill="#333333" fill-rule="nonzero"></path>
            </g>
        </g>
    </g>
</svg>