<?xml version="1.0" encoding="UTF-8"?>
<svg width="48px" height="48px" viewBox="0 0 48 48" version="1.1" xmlns="http://www.w3.org/2000/svg" xmlns:xlink="http://www.w3.org/1999/xlink">
    <title>Group 5</title>
    <g id="Page-1" stroke="none" stroke-width="1" fill="none" fill-rule="evenodd">
        <g id="0" transform="translate(-1338.000000, -626.000000)">
            <g id="Group-5" transform="translate(1338.000000, 626.000000)">
                <rect id="Rectangle-Copy-6" x="0" y="0" width="48" height="48" rx="5"></rect>
                <path d="M18.7521187,31.8571429 C20.1845589,31.8571429 21.3448276,33.0078281 21.3448276,34.4285714 C21.3448276,35.8493148 20.1845589,37 18.7521187,37 C17.3196785,37 16.1724138,35.8493148 16.1724138,34.4285714 C16.1724138,33.0078281 17.3196785,31.8571429 18.7521187,31.8571429 Z M31.6831532,31.8571429 C33.1156542,31.8571429 34.2758621,33.0078883 34.2758621,34.4285714 C34.2758621,35.8492545 33.1156542,37 31.6831532,37 C30.250713,37 29.1034483,35.8493148 29.1034483,34.4285714 C29.1034483,33.0078281 30.250713,31.8571429 31.6831532,31.8571429 Z M15.0812273,13 L16.2687459,15.4000188 L34.7500205,15.4000188 C35.437559,15.4000188 36,15.934 36,16.6 C36,16.8099813 35.94375,17.0079813 35.8437306,17.176 L35.8437306,17.176 L31.3750231,24.9640375 C30.9437149,25.7020375 30.1250437,26.2000188 29.1875444,26.2000188 L29.1875444,26.2000188 L19.8750126,26.2000188 L18.756283,28.156 C18.7312635,28.198075 18.7188416,28.246 18.7188416,28.3 C18.7188416,28.4679625 18.8562439,28.5999813 19.0313219,28.5999813 L19.0313219,28.5999813 L33.4999824,28.5999813 L33.4999824,31 L18.5,31 C17.1187648,31 15.9999766,29.9260188 15.9999766,28.6000375 C15.9999766,28.1800188 16.1124765,27.7900375 16.3062459,27.4420188 L16.3062459,27.4420188 L17.9938031,24.502 L13.5000176,15.4000188 L11,15.4000188 L11,13 L15.0812273,13 Z" id="Combined-Shape" fill="#FFFFFF"></path>
            </g>
        </g>
    </g>
</svg>