<?xml version="1.0" encoding="utf-8"?>
<!-- Generator: Adobe Illustrator 25.0.1, SVG Export Plug-In . SVG Version: 6.00 Build 0)  -->
<svg version="1.1" id="圖層_1" xmlns="http://www.w3.org/2000/svg" xmlns:xlink="http://www.w3.org/1999/xlink" x="0px" y="0px"
	 viewBox="0 0 48 48" style="enable-background:new 0 0 48 48;" xml:space="preserve">
<style type="text/css">
	.st0{fill-rule:evenodd;clip-rule:evenodd;fill:#FFFFFF;}
</style>
<g id="Page-1">
	<g id="_x37__x5F_spnp_x5F_contact_x5F_us" transform="translate(-1619.000000, -1021.000000)">
		<g id="page-copy-3" transform="translate(1437.000000, 1021.000000)">
			<g id="Group-3" transform="translate(182.000000, 0.000000)">
				<g id="icon_x2F_del" transform="translate(13.000000, 11.000000)">
					<path id="Fill-1" class="st0" d="M8.1,2.4c0-0.4,0.4-0.8,0.8-0.8h3.2C12.6,1.6,13,2,13,2.4v0.8H8.1V2.4z M19.1,3.2h-4.5V2.4
						c0-1.3-1.1-2.4-2.4-2.4H8.9C7.6,0,6.5,1.1,6.5,2.4v0.8H2c-1.1,0-2,0.9-2,2v1.6c0,0.4,0.4,0.8,0.8,0.8h19.5
						c0.4,0,0.8-0.4,0.8-0.8V5.3C21.1,4.2,20.2,3.2,19.1,3.2L19.1,3.2z"/>
					<path id="Fill-3" class="st0" d="M5.7,11.4c0-0.4,0.4-0.8,0.8-0.8s0.8,0.4,0.8,0.8v10.6c0,0.4-0.4,0.8-0.8,0.8
						s-0.8-0.4-0.8-0.8V11.4z M9.8,11.4c0-0.4,0.4-0.8,0.8-0.8s0.8,0.4,0.8,0.8v10.6c0,0.4-0.4,0.8-0.8,0.8s-0.8-0.4-0.8-0.8V11.4z
						 M13.8,11.4c0-0.4,0.4-0.8,0.8-0.8s0.8,0.4,0.8,0.8v10.6c0,0.4-0.4,0.8-0.8,0.8s-0.8-0.4-0.8-0.8V11.4z M1.5,9.3
						c-0.1,0-0.3,0.1-0.3,0.3L2,23.7C2,25,3.1,26,4.4,26h12.3c1.3,0,2.4-1,2.4-2.3l0.7-14.1c0-0.1-0.1-0.3-0.3-0.3H1.5z"/>
				</g>
			</g>
		</g>
	</g>
</g>
</svg>
