<?xml version="1.0" encoding="utf-8"?>
<!-- Generator: Adobe Illustrator 25.0.1, SVG Export Plug-In . SVG Version: 6.00 Build 0)  -->
<svg version="1.1" id="圖層_1" xmlns="http://www.w3.org/2000/svg" xmlns:xlink="http://www.w3.org/1999/xlink" x="0px" y="0px"
	 viewBox="0 0 48 48" style="enable-background:new 0 0 48 48;" xml:space="preserve">
<style type="text/css">
	.st0{fill:#FFFFFF;}
</style>
<g>
	<path class="st0" d="M38,24c0,0.7,0,1.4,0,2c0,0.7,0,1.4,0,2.1c0,0.5,0,1,0,1.5c0,0.7-0.1,1.4-0.2,2.1c-0.1,0.4-0.2,0.8-0.3,1.2
		c-0.2,0.5-0.3,0.9-0.6,1.3c-0.1,0.2-0.3,0.5-0.5,0.7c-0.2,0.2-0.4,0.5-0.6,0.7c-0.2,0.2-0.4,0.4-0.6,0.6c-0.1,0.1-0.2,0.2-0.3,0.3
		c-0.3,0.2-0.6,0.4-0.9,0.6c-0.4,0.2-0.9,0.4-1.3,0.5c-0.5,0.2-1,0.3-1.4,0.3c-0.6,0.1-1.2,0.1-1.8,0.2c-0.3,0-0.7,0-1,0.1
		c-0.4,0-0.8,0-1.3,0c-0.2,0-0.4,0-0.6,0c-0.2,0-0.4,0-0.6,0c-0.2,0-0.4,0-0.6,0c-0.5,0-1.1,0-1.6,0c-0.3,0-0.5,0-0.8,0
		c-0.4,0-0.8,0-1.2,0c-0.1,0-0.2,0-0.3,0c-0.3,0-0.7,0-1,0c-0.4,0-0.9,0-1.3,0c-0.1,0-0.3,0-0.4,0c-0.3,0-0.6,0-1-0.1
		c-0.1,0-0.2,0-0.2,0c-0.4,0-0.8-0.1-1.1-0.2c-0.3-0.1-0.6-0.1-0.9-0.2c-0.3-0.1-0.5-0.2-0.8-0.3c-0.3-0.1-0.7-0.3-1-0.5
		c-0.3-0.1-0.5-0.3-0.8-0.5c-0.3-0.2-0.5-0.5-0.8-0.7c-0.2-0.2-0.5-0.5-0.7-0.8c-0.1-0.2-0.3-0.4-0.4-0.7c-0.1-0.1-0.2-0.3-0.2-0.4
		c-0.2-0.5-0.4-0.9-0.5-1.4c-0.1-0.3-0.1-0.6-0.2-0.9c0-0.2-0.1-0.4-0.1-0.7c0-0.3-0.1-0.7-0.1-1c0-0.1,0-0.2,0-0.3c0-0.5,0-1,0-1.6
		c0-0.3,0-0.7,0-1c0-0.5,0-1,0-1.5c0-0.8,0-1.5,0-2.3c0-0.9,0-1.9,0-2.8c0-0.8,0-1.6,0.1-2.4c0-0.7,0.1-1.5,0.3-2.2
		c0.1-0.3,0.2-0.6,0.3-0.9c0.1-0.4,0.3-0.7,0.4-1.1c0.1-0.2,0.2-0.3,0.3-0.4c0.1-0.2,0.3-0.4,0.5-0.6c0.2-0.2,0.3-0.4,0.5-0.6
		c0.2-0.2,0.4-0.4,0.6-0.5c0.1-0.1,0.2-0.2,0.4-0.3c0.3-0.2,0.5-0.3,0.8-0.5c0.3-0.2,0.7-0.3,1-0.5c0.2-0.1,0.4-0.1,0.6-0.2
		c0.5-0.1,1-0.2,1.5-0.3c0.2,0,0.4,0,0.7,0c0.1,0,0.2,0,0.2,0c0.6,0,1.1-0.1,1.7-0.1c0.5,0,1,0,1.5,0c1,0,1.9,0,2.9,0
		c0.4,0,0.7,0,1.1,0c0.4,0,0.8,0,1.1,0c0.4,0,0.7,0,1.1,0c0.3,0,0.6,0,0.8,0c0.3,0,0.7,0,1,0c0.5,0,1.1,0.1,1.6,0.1
		c0.4,0.1,0.9,0.1,1.3,0.3c0.4,0.1,0.9,0.3,1.3,0.5c0.1,0,0.2,0.1,0.2,0.1c0.4,0.2,0.7,0.4,1,0.6c0.3,0.3,0.7,0.5,1,0.9
		c0.2,0.2,0.4,0.4,0.6,0.6c0.2,0.2,0.3,0.5,0.5,0.7c0.2,0.4,0.4,0.8,0.6,1.3c0.1,0.2,0.1,0.5,0.2,0.7c0.1,0.3,0.1,0.6,0.2,0.9
		c0.1,0.8,0.2,1.6,0.2,2.4c0,0.6,0,1.1,0,1.7c0,0.6,0,1.1,0,1.7C38,22.9,38,23.4,38,24z M12.4,24.5C12.4,24.5,12.4,24.5,12.4,24.5
		c0,0.7,0,1.3,0,2c0,0.6,0,1.2,0,1.9c0,0.7,0.1,1.5,0.1,2.2c0,0.2,0.1,0.5,0.1,0.7c0.1,0.3,0.1,0.6,0.2,0.8c0.1,0.3,0.2,0.6,0.4,0.8
		c0.2,0.3,0.3,0.5,0.6,0.8c0.2,0.2,0.3,0.3,0.5,0.5c0.4,0.3,0.8,0.6,1.2,0.8c0.4,0.2,0.8,0.2,1.1,0.3c0.3,0.1,0.7,0.1,1,0.1
		c0.3,0,0.6,0,0.9,0.1c0.3,0,0.5,0,0.8,0c0.4,0,0.9,0,1.3,0c0.4,0,0.7,0,1.1,0c0.3,0,0.7,0,1,0c0.3,0,0.7,0,1,0c0.5,0,1,0,1.5,0
		c0.1,0,0.2,0,0.2,0c0.3,0,0.6,0,0.9,0c0.5,0,1.1,0,1.6,0c0.2,0,0.4,0,0.6,0c0.3,0,0.6,0,0.9,0c0.3,0,0.7-0.1,1-0.1
		c0.3,0,0.6-0.1,0.9-0.1c0.3-0.1,0.5-0.1,0.8-0.2c0.2-0.1,0.5-0.2,0.7-0.3c0.6-0.3,1.1-0.8,1.5-1.3c0.1-0.1,0.2-0.3,0.3-0.4
		c0.1-0.2,0.2-0.3,0.3-0.6c0,0,0-0.1,0-0.1c0.2-0.4,0.3-0.9,0.4-1.4c0.1-0.4,0.1-0.8,0.2-1.3c0-0.5,0.1-0.9,0.1-1.4
		c0-0.8,0-1.7,0-2.5c0-0.5,0-1,0-1.6c0-1.3,0-2.6,0-4c0-0.7,0-1.3,0-2c0-0.5-0.1-1.1-0.2-1.6c-0.1-0.4-0.2-0.8-0.3-1.2
		c-0.1-0.3-0.2-0.5-0.4-0.8c-0.3-0.5-0.6-0.8-1-1.2c-0.3-0.2-0.6-0.5-1-0.6c-0.6-0.3-1.2-0.4-1.8-0.5c-0.5-0.1-1-0.1-1.5-0.1
		c-0.4,0-0.7,0-1.1,0c-0.6,0-1.2,0-1.8,0c-0.4,0-0.8,0-1.2,0c-0.7,0-1.3,0-2,0c-0.8,0-1.6,0-2.4,0c-0.4,0-0.9,0-1.3,0
		c-0.5,0-1.1,0.1-1.6,0.1c-0.4,0-0.8,0.1-1.1,0.1c-0.5,0.1-0.9,0.2-1.3,0.4c-0.3,0.1-0.6,0.3-0.8,0.5c-0.2,0.1-0.4,0.3-0.5,0.5
		c-0.3,0.3-0.6,0.6-0.8,1c-0.2,0.3-0.3,0.7-0.5,1.1c-0.2,0.6-0.3,1.2-0.3,1.8c0,0.3-0.1,0.7-0.1,1c0,0.8,0,1.7-0.1,2.5
		c0,0.5,0,0.9,0,1.4C12.4,23.3,12.4,23.9,12.4,24.5z"/>
	<path class="st0" d="M31.2,24c0,3.9-3.2,7.1-7,7.2C20,31.3,16.8,28,16.8,24c0-4,3.2-7.1,7.1-7.2C28,16.7,31.2,20,31.2,24z
		 M23.9,28.8c0.4,0,0.8,0,1.2-0.1c0.2-0.1,0.5-0.1,0.7-0.2c0.3-0.1,0.6-0.3,0.8-0.5c0.3-0.2,0.5-0.4,0.8-0.7
		c0.2-0.2,0.4-0.5,0.6-0.7c0.2-0.3,0.4-0.7,0.5-1c0.2-0.6,0.3-1.1,0.2-1.7c0-0.6-0.1-1.1-0.4-1.6c-0.1-0.2-0.2-0.4-0.3-0.6
		c-0.1-0.2-0.3-0.4-0.4-0.6c-0.2-0.3-0.5-0.6-0.9-0.9c-0.3-0.2-0.7-0.4-1-0.6c-0.5-0.2-1-0.3-1.5-0.3c-0.6,0-1.1,0-1.7,0.2
		c-0.5,0.1-0.9,0.3-1.3,0.6c-0.3,0.2-0.6,0.4-0.8,0.7c-0.2,0.3-0.4,0.5-0.6,0.9c-0.2,0.4-0.4,0.8-0.5,1.2c-0.1,0.3-0.1,0.6-0.1,0.8
		c0,0.5,0,1,0.1,1.5c0.1,0.3,0.2,0.6,0.3,0.8c0.1,0.3,0.3,0.7,0.6,0.9c0.3,0.4,0.6,0.8,1.1,1c0.1,0.1,0.2,0.1,0.3,0.2
		c0.3,0.2,0.6,0.3,0.9,0.4C23,28.7,23.5,28.8,23.9,28.8z"/>
	<path class="st0" d="M31.5,18.1c-0.9,0-1.6-0.7-1.6-1.6c0-0.9,0.7-1.6,1.6-1.6c0.9,0,1.7,0.8,1.7,1.6
		C33.2,17.3,32.5,18.1,31.5,18.1z"/>
</g>
</svg>
