<?xml version="1.0" encoding="utf-8"?>
<!-- Generator: Adobe Illustrator 25.0.1, SVG Export Plug-In . SVG Version: 6.00 Build 0)  -->
<svg version="1.1" id="圖層_1" xmlns="http://www.w3.org/2000/svg" xmlns:xlink="http://www.w3.org/1999/xlink" x="0px" y="0px"
	 viewBox="0 0 54 54" style="enable-background:new 0 0 54 54;" xml:space="preserve">
<style type="text/css">
	.st0{fill-rule:evenodd;clip-rule:evenodd;fill:#F6851D;}
</style>
<g id="Page-1">
	<g id="_x33__x5F_spnp_x5F_catalogue_x5F_default" transform="translate(-1193.000000, -495.000000)">
		<g id="Group" transform="translate(1193.000000, 495.333333)">
			<g id="icon_x2F_bool" transform="translate(13.000000, 12.666667)">
				<path id="Combined-Shape" class="st0" d="M27,7.1c0.6,0,1,0.4,1,1l0,0V24c0,0.3-0.1,0.6-0.4,0.8c-0.2,0.2-0.5,0.3-0.8,0.2
					c-2.4-0.5-6.6-1.2-10.6-0.2c2.3-2.2,5.6-2.6,7.6-2.6c1.4,0,2.6-1.2,2.6-2.6l0,0V7.1H27z M1.7,7.1v12.6c0,1.4,1.1,2.6,2.6,2.6
					c2,0,5.2,0.4,7.5,2.6c-4-1-8.2-0.3-10.6,0.2c-0.3,0.1-0.6,0-0.8-0.2C0.1,24.6,0,24.3,0,24l0,0V8.1c0-0.6,0.4-1,1-1l0,0H1.7z
					 M4.3,3.6c2.3,0,6.6,0.5,8.8,4.1c0.1,0.1,0.1,0.3,0.1,0.5l0,0V24c-2.7-2.8-6.6-3.3-8.9-3.3c-0.6,0-1-0.5-1-1l0,0v-15
					c0-0.3,0.1-0.5,0.3-0.7C3.8,3.7,4,3.6,4.3,3.6L4.3,3.6L4.3,3.6z M23.7,3.6c0.3,0,0.5,0.1,0.7,0.3c0.2,0.2,0.3,0.4,0.3,0.7l0,0
					v15c0,0.6-0.4,1-1,1c-2.3,0-6.2,0.5-8.9,3.3l0,0V8.3c0-0.2,0-0.4,0.1-0.5C17.1,4.2,21.4,3.6,23.7,3.6L23.7,3.6L23.7,3.6z"/>
			</g>
		</g>
	</g>
</g>
</svg>
