<?xml version="1.0" encoding="utf-8"?>
<!-- Generator: Adobe Illustrator 25.0.1, SVG Export Plug-In . SVG Version: 6.00 Build 0)  -->
<svg version="1.1" id="圖層_1" xmlns="http://www.w3.org/2000/svg" xmlns:xlink="http://www.w3.org/1999/xlink" x="0px" y="0px"
	 viewBox="0 0 49 48" style="enable-background:new 0 0 49 48;" xml:space="preserve">
<style type="text/css">
	.st0{fill:none;stroke:#EC8225;stroke-opacity:0;}
	.st1{fill-rule:evenodd;clip-rule:evenodd;fill:#2D2D2D;}
</style>
<g id="Symbols">
	<g id="block_x2F_head-copy-2" transform="translate(-1570.000000, -14.000000)">
		<g id="Group-4" transform="translate(1564.000000, 14.000000)">
			<g id="Group-3" transform="translate(6.500000, 0.000000)">
				<circle id="Oval" class="st0" cx="24" cy="24" r="24"/>
				<g id="email" transform="translate(11.000000, 14.000000)">
					<path id="Fill-1" class="st1" d="M19.4,9.7l5.8-6.5v13.6L19.4,9.7z M8.7,11l4.1,4.7c0.2,0.2,0.4,0.3,0.7,0.3
						c0.3,0,0.5-0.1,0.7-0.3l4.1-4.7l6,7.3H2.7L8.7,11z M13.5,13.7L2.9,1.8H24L13.5,13.7z M1.8,3.1l5.8,6.5l-5.8,7.1V3.1z M26,0H0.9
						C0.4,0,0,0.4,0,0.9v18.3c0,0.5,0.4,0.9,0.9,0.9H26c0.5,0,0.9-0.4,0.9-0.9V0.9C26.9,0.4,26.5,0,26,0L26,0z"/>
				</g>
			</g>
		</g>
	</g>
</g>
</svg>
