<?xml version="1.0" encoding="UTF-8"?>
<svg width="49px" height="48px" viewBox="0 0 49 48" version="1.1" xmlns="http://www.w3.org/2000/svg" xmlns:xlink="http://www.w3.org/1999/xlink">
    <title>Group 3</title>
    <g id="Symbols" stroke="none" stroke-width="1" fill="none" fill-rule="evenodd">
        <g id="block/head-copy-2" transform="translate(-1570.000000, -14.000000)">
            <g id="Group-4" transform="translate(1564.000000, 14.000000)">
                <g id="Group-3" transform="translate(6.500000, 0.000000)">
                    <circle id="Oval" stroke="#EC8225" opacity="0" cx="24" cy="24" r="24"></circle>
                    <g id="email" transform="translate(11.000000, 14.000000)" fill="#EC8225">
                        <path d="M19.4053956,9.66376454 L25.167846,3.12989725 L25.167846,16.7340449 L19.4053956,9.66376454 Z M8.69258322,10.9983442 L12.8043286,15.6606322 C12.9707431,15.8491745 13.2096132,15.9572315 13.4605204,15.9572315 C13.7114276,15.9572315 13.9502977,15.8491745 14.1167121,15.6606322 L18.2283407,10.9983442 L24.194602,18.3191148 L2.72620501,18.3191148 L8.69258322,10.9983442 Z M13.4605204,13.7499834 L2.88607506,1.75988525 L24.0344983,1.75988525 L13.4605204,13.7499834 Z M1.75296104,3.12977992 L7.51541145,9.66364721 L1.75296104,16.7342795 L1.75296104,3.12977992 Z M26.0442097,0 L0.876480522,0 C0.392312682,0 0,0.393862318 0,0.879942623 L0,19.1990575 C0,19.6851378 0.392312682,20.0790001 0.876480522,20.0790001 L26.0442097,20.0790001 C26.5282607,20.0790001 26.9206902,19.6851378 26.9206902,19.1990575 L26.9206902,0.879942623 C26.9206902,0.393862318 26.5282607,0 26.0442097,0 L26.0442097,0 Z" id="Fill-1"></path>
                    </g>
                </g>
            </g>
        </g>
    </g>
</svg>