<?xml version="1.0" encoding="utf-8"?>
<!-- Generator: Adobe Illustrator 25.0.1, SVG Export Plug-In . SVG Version: 6.00 Build 0)  -->
<svg version="1.1" id="圖層_1" xmlns="http://www.w3.org/2000/svg" xmlns:xlink="http://www.w3.org/1999/xlink" x="0px" y="0px"
	 viewBox="0 0 54 54" style="enable-background:new 0 0 54 54;" xml:space="preserve">
<style type="text/css">
	.st0{fill-rule:evenodd;clip-rule:evenodd;fill:#F6851D;}
</style>
<g id="Page-1">
	<g id="search" transform="translate(-1365.000000, -466.000000)">
		<g id="Group-2" transform="translate(495.000000, 391.000000)">
			<g id="Group_2_" transform="translate(0.000000, 70.000000)">
				<g id="Group-3" transform="translate(870.000000, 5.333333)">
					<g id="Group_1_" transform="translate(12.000000, 12.666667)">
						<g id="Group" transform="translate(2.933333, 2.933333)">
							<path id="Fill-1" class="st0" d="M5.4,13.6c-2.3-2.3-2.3-5.9,0-8.2c2.3-2.3,5.9-2.3,8.2,0c2.3,2.3,2.3,5.9,0,8.2
								S7.7,15.9,5.4,13.6 M14.3,17.7c0,0,0.3-0.2,0.5,0.1c1.2,1.2,4.8,4.8,4.8,4.8c1,1,2.3,1.2,3.2,0.3l0.1-0.1
								c0.9-0.9,0.6-2.2-0.3-3.2c0,0-3.6-3.6-4.9-4.9c-0.2-0.2-0.1-0.5-0.1-0.5c2.2-3.7,1.7-8.3-1.4-11.5c-3.7-3.7-9.8-3.7-13.5,0
								c-3.7,3.7-3.7,9.8,0,13.5C5.9,19.4,10.6,19.9,14.3,17.7"/>
						</g>
					</g>
				</g>
			</g>
		</g>
	</g>
</g>
</svg>
