<?xml version="1.0" encoding="UTF-8"?>
<svg width="48px" height="49px" viewBox="0 0 48 49" version="1.1" xmlns="http://www.w3.org/2000/svg" xmlns:xlink="http://www.w3.org/1999/xlink">
    <title>Group</title>
    <g id="Page-1" stroke="none" stroke-width="1" fill="none" fill-rule="evenodd">
        <g id="2_1_1_1_spnp_Products_productlist1" transform="translate(-1648.000000, -182.000000)">
            <g id="Group" transform="translate(1648.000000, 182.081036)">
                <rect id="Rectangle-Copy-7" x="0" y="0" width="48" height="48" rx="5"></rect>
                <path d="M24.5,2.91896409 C25.8807119,2.91896409 27,4.03825221 27,5.41896409 L27,24.4189641 C27,25.799676 25.8807119,26.9189641 24.5,26.9189641 C23.1192881,26.9189641 22,25.799676 22,24.4189641 L22,5.41896409 C22,4.03825221 23.1192881,2.91896409 24.5,2.91896409 Z" id="Rectangle-Copy-20" fill="#979797" transform="translate(24.500000, 14.918964) rotate(-90.000000) translate(-24.500000, -14.918964) "></path>
                <path d="M24.5,11.9189641 C25.8807119,11.9189641 27,13.0382522 27,14.4189641 L27,33.4189641 C27,34.799676 25.8807119,35.9189641 24.5,35.9189641 C23.1192881,35.9189641 22,34.799676 22,33.4189641 L22,14.4189641 C22,13.0382522 23.1192881,11.9189641 24.5,11.9189641 Z" id="Rectangle-Copy-22" fill="#979797" transform="translate(24.500000, 23.918964) rotate(-90.000000) translate(-24.500000, -23.918964) "></path>
                <path d="M24.5,21.9189641 C25.8807119,21.9189641 27,23.0382522 27,24.4189641 L27,43.4189641 C27,44.799676 25.8807119,45.9189641 24.5,45.9189641 C23.1192881,45.9189641 22,44.799676 22,43.4189641 L22,24.4189641 C22,23.0382522 23.1192881,21.9189641 24.5,21.9189641 Z" id="Rectangle-Copy-33" fill="#979797" transform="translate(24.500000, 33.918964) rotate(-90.000000) translate(-24.500000, -33.918964) "></path>
            </g>
        </g>
    </g>
</svg>