<?xml version="1.0" encoding="UTF-8"?>
<svg width="40px" height="40px" viewBox="0 0 40 40" version="1.1" xmlns="http://www.w3.org/2000/svg" xmlns:xlink="http://www.w3.org/1999/xlink">
    <title>Group 2</title>
    <g id="Page-1" stroke="none" stroke-width="1" fill="none" fill-rule="evenodd">
        <g id="7_spnp_contact_us" transform="translate(-1065.000000, -743.000000)">
            <g id="Group-2" transform="translate(1065.000000, 743.000000)">
                <g id="icon/tag-copy-3" transform="translate(2.000000, 2.000000)">
                    <rect id="Rectangle" x="0" y="0" width="36" height="36"></rect>
                    <path d="M30.6959952,24.1663636 L26.9783079,20.4486763 C25.6505624,19.1209309 23.3933952,19.6520809 22.862297,21.3780982 C22.4639734,22.5731209 21.1362279,23.2369937 19.941257,22.9713927 C17.2857142,22.30752 13.7008534,18.8553818 13.0369806,16.0671163 C12.638657,14.8720936 13.4353043,13.5443481 14.6302752,13.1460763 C16.3563443,12.6149782 16.8874424,10.3578109 15.559697,9.03006542 L11.8420097,5.31237815 C10.7798134,4.38295633 9.18651881,4.38295633 8.25709699,5.31237815 L5.73438062,7.83509451 C3.21166426,10.4905854 5.99992971,17.5276363 12.2403334,23.76804 C18.4806851,30.0084436 25.5177879,32.9295355 28.1732269,30.2739927 L30.6959952,27.7512763 C31.6254689,26.68908 31.6254689,25.0957854 30.6959952,24.1663636" id="Fill-1" fill="#EC8225"></path>
                </g>
                <rect id="Rectangle" fill="#D8D8D8" opacity="0" x="0" y="0" width="40" height="40"></rect>
            </g>
        </g>
    </g>
</svg>