<?xml version="1.0" encoding="UTF-8"?>
<svg width="74px" height="120px" viewBox="0 0 74 120" version="1.1" xmlns="http://www.w3.org/2000/svg" xmlns:xlink="http://www.w3.org/1999/xlink">
    <title>Group 16</title>
    <defs>
        <polygon id="path-1" points="-1.18948606e-14 108 66.8041237 108 66.8041237 0 -1.18948606e-14 0"></polygon>
    </defs>
    <g id="Page-1" stroke="none" stroke-width="1" fill="none" fill-rule="evenodd">
        <g id="Desktop-HD" transform="translate(-424.000000, -10171.000000)">
            <g id="Group-16" transform="translate(424.000000, 10171.000000)">
                <rect id="Rectangle" fill="#D8D8D8" opacity="0" x="0" y="0" width="74" height="120"></rect>
                <g id="icon/cam" transform="translate(4.000000, 6.000000)">
                    <path d="M29.082043,6.0413117 L29.082043,1.16709068 L54.2828155,1.16709068 C55.0779906,1.16709068 55.7229195,1.81428405 55.7229195,2.61272027 L55.7229195,11.2860777 L11.0815809,11.2860777 L11.0815809,7.4869413 C11.0815809,6.68850508 11.7263005,6.0413117 12.5214756,6.0413117 L29.082043,6.0413117 Z" id="Stroke-1" stroke="#333333" stroke-width="2.08823944" stroke-linecap="round" stroke-linejoin="round"></path>
                    <path d="M53.397702,34.415143 L13.4064636,34.415143 C12.1224651,34.415143 11.0814135,33.3700969 11.0814135,32.0811717 L11.0814135,11.2861197 L55.7227521,11.2861197 L55.7227521,32.0811717 C55.7227521,33.3700969 54.6819097,34.415143 53.397702,34.415143 Z" id="Stroke-3" stroke="#333333" stroke-width="2.08823944" stroke-linecap="round" stroke-linejoin="round"></path>
                    <mask id="mask-2" fill="white">
                        <use xlink:href="#path-1"></use>
                    </mask>
                    <g id="Clip-6"></g>
                    <polygon id="Stroke-5" stroke="#333333" stroke-width="2.08823944" stroke-linecap="round" stroke-linejoin="round" mask="url(#mask-2)" points="19.7215977 5.92283814 26.2018561 5.92283814 26.2018561 1.88990547 19.7215977 1.88990547"></polygon>
                    <path d="M16.8415572,5.71267359 L12.5214547,5.71267359 L12.5214547,3.05668106 C12.5214547,2.41242852 13.0420851,1.88980044 13.6838751,1.88980044 L15.6789275,1.88980044 C16.321136,1.88980044 16.8415572,2.41242852 16.8415572,3.05689112 L16.8415572,5.71267359 Z" id="Stroke-7" stroke="#333333" stroke-width="2.08823944" stroke-linecap="round" stroke-linejoin="round" mask="url(#mask-2)"></path>
                    <polygon id="Stroke-8" stroke="#333333" stroke-width="2.08823944" stroke-linecap="round" stroke-linejoin="round" mask="url(#mask-2)" points="45.6424221 8.39502859 51.0144576 8.39502859 51.0144576 5.15948185 45.6424221 5.15948185"></polygon>
                    <path d="M45.6425477,22.8505893 C45.6425477,28.0401097 41.4517657,32.2467616 36.2822906,32.2467616 C31.1126063,32.2467616 26.9218243,28.0401097 26.9218243,22.8505893 C26.9218243,17.661279 31.1126063,13.4544171 36.2822906,13.4544171 C41.4517657,13.4544171 45.6425477,17.661279 45.6425477,22.8505893 Z" id="Stroke-9" stroke="#333333" stroke-width="2.08823944" stroke-linecap="round" stroke-linejoin="round" mask="url(#mask-2)"></path>
                    <path d="M40.4613961,22.8505893 C40.4613961,25.1675458 38.5904328,27.0456879 36.2821232,27.0456879 C33.9740229,27.0456879 32.1030597,25.1675458 32.1030597,22.8505893 C32.1030597,20.5336329 33.9740229,18.6554907 36.2821232,18.6554907 C38.5904328,18.6554907 40.4613961,20.5336329 40.4613961,22.8505893 Z" id="Stroke-10" stroke="#333333" stroke-width="2.08823944" stroke-linecap="round" stroke-linejoin="round" mask="url(#mask-2)"></path>
                    <path d="M27.6419809,19.2367044 L23.3216692,19.2367044 C21.3337314,19.2367044 19.7216186,20.8547929 19.7216186,22.8505683 C19.7216186,24.8465539 21.3337314,26.4646423 23.3216692,26.4646423 L27.6419809,26.4646423" id="Stroke-11" stroke="#333333" stroke-width="2.08823944" stroke-linecap="round" stroke-linejoin="round" mask="url(#mask-2)"></path>
                    <path d="M38.3545378,6.22654219 C38.3545378,7.37535768 37.4266941,8.30676158 36.2822697,8.30676158 C35.1376361,8.30676158 34.2097923,7.37535768 34.2097923,6.22654219 C34.2097923,5.07772669 35.1376361,4.14632279 36.2822697,4.14632279" id="Stroke-12" stroke="#333333" stroke-width="2.08823944" stroke-linecap="round" stroke-linejoin="round" mask="url(#mask-2)"></path>
                    <polygon id="Stroke-13" stroke="#333333" stroke-width="2.08823944" stroke-linecap="round" stroke-linejoin="round" mask="url(#mask-2)" points="25.2643865 55.4851208 41.5399465 55.4851208 41.5399465 48.4832069 25.2643865 48.4832069"></polygon>
                    <polygon id="Stroke-14" stroke="#333333" stroke-width="2.08823944" stroke-linecap="round" stroke-linejoin="round" mask="url(#mask-2)" points="25.2643865 39.1471117 41.5399465 39.1471117 41.5399465 34.4791691 25.2643865 34.4791691"></polygon>
                    <line x1="24.1017778" y1="44.9821239" x2="42.7023878" y2="44.9821239" id="Stroke-15" stroke="#333333" stroke-width="2.08823944" stroke-linejoin="round" mask="url(#mask-2)"></line>
                    <line x1="33.4020619" y1="44.9821239" x2="33.4020619" y2="39.1470907" id="Stroke-16" stroke="#333333" stroke-width="2.08823944" stroke-linejoin="round" mask="url(#mask-2)"></line>
                    <polygon id="Stroke-17" stroke="#333333" stroke-width="2.08823944" stroke-linecap="round" stroke-linejoin="round" mask="url(#mask-2)" points="28.7520663 95.1630529 38.0522667 95.1630529 38.0522667 85.8269576 28.7520663 85.8269576"></polygon>
                    <polygon id="Stroke-18" stroke="#333333" stroke-width="2.08823944" stroke-linecap="round" stroke-linejoin="round" mask="url(#mask-2)" points="29.9144867 102.164967 36.889637 102.164967 36.889637 95.1630529 29.9144867 95.1630529"></polygon>
                    <polygon id="Stroke-19" stroke="#333333" stroke-width="2.08823944" stroke-linecap="round" stroke-linejoin="round" mask="url(#mask-2)" points="31.0771164 106.832909 35.7272166 106.832909 35.7272166 102.164967 31.0771164 102.164967"></polygon>
                    <polygon id="Stroke-20" stroke="#333333" stroke-width="2.08823944" stroke-linecap="round" stroke-linejoin="round" mask="url(#mask-2)" points="31.0771164 85.8269576 35.7272166 85.8269576 35.7272166 55.4851208 31.0771164 55.4851208"></polygon>
                    <polygon id="Stroke-21" stroke="#333333" stroke-width="2.08823944" stroke-linecap="round" stroke-linejoin="round" mask="url(#mask-2)" points="61.842566 89.7858233 53.7882794 94.4537659 49.1379699 86.3685751 57.1922565 81.7006325"></polygon>
                    <polygon id="Stroke-22" stroke="#333333" stroke-width="2.08823944" stroke-linecap="round" stroke-linejoin="round" mask="url(#mask-2)" points="64.3233867 96.4332618 58.2825671 99.9343237 54.7950966 93.8703256 60.8357069 90.3692636"></polygon>
                    <polygon id="Stroke-23" stroke="#333333" stroke-width="2.08823944" stroke-linecap="round" stroke-linejoin="round" mask="url(#mask-2)" points="65.6416614 101.059402 61.6145181 103.393374 59.289468 99.3507784 63.3166113 97.0168071"></polygon>
                    <polyline id="Stroke-24" stroke="#333333" stroke-width="2.08823944" stroke-linecap="round" stroke-linejoin="round" mask="url(#mask-2)" points="40.3774214 56.6521274 55.1787686 82.8677652 51.1516253 85.2017365 35.727112 58.9860987"></polyline>
                    <polygon id="Stroke-25" stroke="#333333" stroke-width="2.08823944" stroke-linecap="round" stroke-linejoin="round" mask="url(#mask-2)" points="4.96174605 89.7858233 13.0158234 94.4537659 17.6661328 86.3685751 9.61184625 81.7006325"></polygon>
                    <polygon id="Stroke-26" stroke="#333333" stroke-width="2.08823944" stroke-linecap="round" stroke-linejoin="round" mask="url(#mask-2)" points="2.48092534 96.4332618 8.52153565 99.9343237 12.0092154 93.8703256 5.96839586 90.3692636"></polygon>
                    <polygon id="Stroke-27" stroke="#333333" stroke-width="2.08823944" stroke-linecap="round" stroke-linejoin="round" mask="url(#mask-2)" points="1.16244135 101.059402 5.1897939 103.393374 7.51484399 99.3507784 3.48749144 97.0168071"></polygon>
                    <polyline id="Stroke-28" stroke="#333333" stroke-width="2.08823944" stroke-linecap="round" stroke-linejoin="round" mask="url(#mask-2)" points="26.4269116 56.6521274 11.6253551 82.8677652 15.6527077 85.2017365 31.077221 58.9860987"></polyline>
                    <polygon id="Stroke-29" stroke="#333333" stroke-width="2.08823944" stroke-linecap="round" stroke-linejoin="round" mask="url(#mask-2)" points="18.2891944 55.4850998 17.1265647 51.9840378 2.01363442 57.8190711 3.17605484 61.320133"></polygon>
                    <line x1="25.2643447" y1="51.9841428" x2="18.2891944" y2="54.3181141" id="Stroke-30" stroke="#333333" stroke-width="2.08823944" stroke-linecap="round" stroke-linejoin="round" mask="url(#mask-2)"></line>
                </g>
            </g>
        </g>
    </g>
</svg>