<?xml version="1.0" encoding="UTF-8"?>
<svg width="80px" height="80px" viewBox="0 0 80 80" version="1.1" xmlns="http://www.w3.org/2000/svg" xmlns:xlink="http://www.w3.org/1999/xlink">
    <title>Group 13</title>
    <g id="Page-1" stroke="none" stroke-width="1" fill="none" fill-rule="evenodd">
        <g id="Desktop-HD" transform="translate(-418.000000, -10046.000000)">
            <g id="Group-13" transform="translate(418.000000, 10046.000000)">
                <rect id="Rectangle-Copy-80" fill="#D8D8D8" opacity="0" x="0" y="0" width="80" height="80"></rect>
                <g id="icon/video" transform="translate(8.000000, 17.000000)" fill="#FFC500">
                    <path d="M2.81400641,43.1859936 L60.2112952,43.1859936 L60.2112952,2.81400641 L2.81400641,2.81400641 L2.81400641,43.1859936 Z M61.6182984,46 L1.40700321,46 C0.629774635,46 0,45.3702254 0,44.5929968 L0,1.40700321 C0,0.629774635 0.629774635,0 1.40700321,0 L61.6182984,0 C62.395527,0 63.0253016,0.629774635 63.0253016,1.40700321 L63.0253016,44.5929968 C63.0253016,45.3702254 62.395527,46 61.6182984,46 L61.6182984,46 Z" id="Fill-1"></path>
                    <path d="M12.4992537,43.7487949 L50.5266107,43.7487949 L50.5266107,2.25120513 L12.4992537,2.25120513 L12.4992537,43.7487949 Z M51.3708126,45.4371987 L11.6550518,45.4371987 C11.1884895,45.4371987 10.8108498,45.0595591 10.8108498,44.5929968 L10.8108498,1.40700321 C10.8108498,0.940440943 11.1884895,0.562801282 11.6550518,0.562801282 L51.3708126,0.562801282 C51.8368121,0.562801282 52.2150146,0.940440943 52.2150146,1.40700321 L52.2150146,44.5929968 C52.2150146,45.0595591 51.8368121,45.4371987 51.3708126,45.4371987 L51.3708126,45.4371987 Z" id="Fill-3"></path>
                    <path d="M5.64264566,7.03501603 L8.45665207,7.03501603 L8.45665207,1.40700321 L5.64264566,1.40700321 L5.64264566,7.03501603 Z M5.64264566,18.2910417 L8.45665207,18.2910417 L8.45665207,12.6630288 L5.64264566,12.6630288 L5.64264566,18.2910417 Z M5.64264566,29.5470673 L8.45665207,29.5470673 L8.45665207,23.9190545 L5.64264566,23.9190545 L5.64264566,29.5470673 Z M5.64264566,40.803093 L8.45665207,40.803093 L8.45665207,35.1750801 L5.64264566,35.1750801 L5.64264566,40.803093 Z" id="Fill-4"></path>
                    <path d="M54.5692123,7.03501603 L57.3832187,7.03501603 L57.3832187,1.40700321 L54.5692123,1.40700321 L54.5692123,7.03501603 Z M54.5692123,18.2910417 L57.3832187,18.2910417 L57.3832187,12.6630288 L54.5692123,12.6630288 L54.5692123,18.2910417 Z M54.5692123,29.5470673 L57.3832187,29.5470673 L57.3832187,23.9190545 L54.5692123,23.9190545 L54.5692123,29.5470673 Z M54.5692123,40.803093 L57.3832187,40.803093 L57.3832187,35.1750801 L54.5692123,35.1750801 L54.5692123,40.803093 Z" id="Fill-5"></path>
                    <path d="M23.1009666,13.9365356 L23.1009666,32.0632393 L38.7991827,22.9998874 L23.1009666,13.9365356 Z M21.975364,35.1383855 C21.7806347,35.1383855 21.5870311,35.0882962 21.4125627,34.9875548 C21.0641887,34.7866347 20.8497614,34.4151858 20.8497614,34.0127829 L20.8497614,11.9869919 C20.8497614,11.5851518 21.0641887,11.2131402 21.4125627,11.0122201 C21.7609367,10.8113001 22.1897913,10.8113001 22.5381653,11.0122201 L41.6131891,22.0251156 C41.9615631,22.2260357 42.1759904,22.5980473 42.1759904,22.9998874 C42.1759904,23.4017276 41.9615631,23.7737392 41.6131891,23.9746593 L22.5381653,34.9875548 C22.3636969,35.0882962 22.1700932,35.1383855 21.975364,35.1383855 L21.975364,35.1383855 Z" id="Fill-6"></path>
                </g>
            </g>
        </g>
    </g>
</svg>