<?xml version="1.0" encoding="UTF-8"?>
<svg width="126px" height="126px" viewBox="0 0 126 126" version="1.1" xmlns="http://www.w3.org/2000/svg" xmlns:xlink="http://www.w3.org/1999/xlink">
    <title>Group 11</title>
    <g id="Page-1" stroke="none" stroke-width="1" fill="none" fill-rule="evenodd">
        <g id="Desktop-HD" transform="translate(-902.000000, -1324.000000)">
            <g id="Group-11" transform="translate(902.000000, 1324.000000)">
                <rect id="Rectangle" fill="#D8D8D8" opacity="0" x="0" y="0" width="126" height="126"></rect>
                <path d="M37,38.5 C37.8284271,38.5 38.5,39.1715729 38.5,40 C38.5,40.7796961 37.9051119,41.4204487 37.14446,41.4931334 L37,41.5 L30,41.5 C27.1275663,41.5 24.5,44.4665611 24.5,47.6278271 C24.5,50.788877 27.1276789,53.7556543 30,53.7556543 C35.2282319,53.7556543 38.5,56.8340307 38.5,62.8834814 C38.5,68.8251786 35.3440835,71.90076 30.2782072,72.0087075 L30,72.0116519 C26.3890056,72.0116519 24.5,73.7888718 24.5,78.1391357 C24.5,82.3931126 26.3060846,84.1870349 29.7618268,84.2646641 L30,84.2673062 C35.2282796,84.2673062 38.5,87.3457485 38.5,93.3954766 C38.5,99.4448875 35.2283189,102.52296 30,102.52296 C27.0625501,102.52296 24.6162138,105.114429 24.5040194,108.41425 L24.5,108.651131 L24.5,122 C24.5,122.828427 23.8284271,123.5 23,123.5 C22.2203039,123.5 21.5795513,122.905112 21.5068666,122.14446 L21.5,122 L21.5,108.651131 C21.5,103.726809 25.1418088,99.6701871 29.7478227,99.526878 L30,99.5229605 C33.6109944,99.5229605 35.5,97.7457405 35.5,93.3954766 C35.5,89.1414997 33.6939154,87.3475774 30.2381732,87.2699482 L30,87.2673062 C24.7717204,87.2673062 21.5,84.1888638 21.5,78.1391357 C21.5,72.19775 24.6558786,69.1225305 29.7217908,69.0145958 L30,69.0116519 C33.6108878,69.0116519 35.5,67.2341396 35.5,62.8834814 C35.5,58.6298009 33.6938913,56.8359236 30.2381716,56.7582963 L30,56.7556543 C25.3842762,56.7556543 21.5,52.3701176 21.5,47.6278271 C21.5,42.9699913 25.2467037,38.6567319 29.7534421,38.5041722 L30,38.5 L37,38.5 Z" id="Stroke-1" fill="#000000" fill-rule="nonzero"></path>
                <path d="M106,2.5 L83,2.5 C82.1715729,2.5 81.5,3.17157288 81.5,4 L81.5,76 C81.5,76.8284271 82.1715729,77.5 83,77.5 L106,77.5 C106.828427,77.5 107.5,76.8284271 107.5,76 L107.5,4 C107.5,3.17157288 106.828427,2.5 106,2.5 Z M104.5,5.5 L104.5,74.5 L84.5,74.5 L84.5,5.5 L104.5,5.5 Z" id="Stroke-3" fill="#000000" fill-rule="nonzero"></path>
                <path d="M80.6959292,3.25878521 C81.1052908,2.5385668 82.0209964,2.28656758 82.7412148,2.6959292 C83.4190674,3.08121073 83.6821653,3.91501836 83.3694851,4.61223099 L83.3040708,4.74121479 L69.5,29.027 L69.5,50.971 L83.3040796,75.2588007 C83.6893531,75.9366579 83.4887823,76.7876732 82.8633978,77.2267275 L82.7411993,77.3040796 C82.0633421,77.6893531 81.2123268,77.4887823 80.7732725,76.8633978 L80.6959204,76.7411993 L66.6959204,52.1093421 C66.5931936,51.9286027 66.5294406,51.7289933 66.5080485,51.5233275 L66.5,51.3681428 L66.5,28.6311751 C66.5,28.4232772 66.5432096,28.2182324 66.6262415,28.0288552 L66.6959292,27.8899603 L80.6959292,3.25878521 Z" id="Stroke-5" fill="#000000" fill-rule="nonzero"></path>
                <path d="M66,32.5 L47,32.5 C46.1715729,32.5 45.5,33.1715729 45.5,34 L45.5,46 C45.5,46.8284271 46.1715729,47.5 47,47.5 L66,47.5 C66.8284271,47.5 67.5,46.8284271 67.5,46 L67.5,34 C67.5,33.1715729 66.8284271,32.5 66,32.5 Z M64.5,35.5 L64.5,44.5 L48.5,44.5 L48.5,35.5 L64.5,35.5 Z" id="Stroke-6" fill="#000000" fill-rule="nonzero"></path>
                <path d="M58.99982,24.5 L54.99982,24.5 C53.0669021,24.5 51.5,26.0672212 51.5,28.00009 L51.5,34 C51.5,34.8284271 52.1715729,35.5 53,35.5 L61,35.5 C61.8284271,35.5 62.5,34.8284271 62.5,34 L62.5,28.00009 C62.5,26.0671238 60.9330005,24.5 58.99982,24.5 Z M58.99982,27.5 L59.0897362,27.508058 C59.3230858,27.550406 59.5,27.7546098 59.5,28.00009 L59.5,32.5 L54.5,32.5 L54.5,28.00009 C54.5,27.7239387 54.7238931,27.5 54.99982,27.5 L58.99982,27.5 Z" id="Stroke-7" fill="#000000" fill-rule="nonzero"></path>
                <path d="M47,34.5 L40.99982,34.5 C39.066887,34.5 37.5,36.0672766 37.5,38.00018 L37.5,42.00018 C37.5,43.9333756 39.0668192,45.5 40.99982,45.5 L47,45.5 C47.8284271,45.5 48.5,44.8284271 48.5,44 L48.5,36 C48.5,35.1715729 47.8284271,34.5 47,34.5 Z M45.5,37.5 L45.5,42.5 L40.99982,42.5 C40.72359,42.5 40.5,42.2764378 40.5,42.00018 L40.5,38.00018 L40.5080571,37.9102788 C40.5503994,37.6769592 40.7545651,37.5 40.99982,37.5 L45.5,37.5 Z" id="Stroke-8" fill="#000000" fill-rule="nonzero"></path>
                <path d="M61,44.5 L53,44.5 C52.1715729,44.5 51.5,45.1715729 51.5,46 L51.5,52 C51.5,52.8284271 52.1715729,53.5 53,53.5 L61,53.5 C61.8284271,53.5 62.5,52.8284271 62.5,52 L62.5,46 C62.5,45.1715729 61.8284271,44.5 61,44.5 Z M59.5,47.5 L59.5,50.5 L54.5,50.5 L54.5,47.5 L59.5,47.5 Z" id="Stroke-9" fill="#000000" fill-rule="nonzero"></path>
                <path d="M61,64.5 L53,64.5 C52.1715729,64.5 51.5,65.1715729 51.5,66 L51.5,76 C51.5,76.8284271 52.1715729,77.5 53,77.5 L61,77.5 C61.8284271,77.5 62.5,76.8284271 62.5,76 L62.5,66 C62.5,65.1715729 61.8284271,64.5 61,64.5 Z M59.5,67.5 L59.5,74.5 L54.5,74.5 L54.5,67.5 L59.5,67.5 Z" id="Stroke-10" fill="#000000" fill-rule="nonzero"></path>
                <path d="M57,50.5 C57.7796961,50.5 58.4204487,51.0948881 58.4931334,51.85554 L58.5,52 L58.5,66 C58.5,66.8284271 57.8284271,67.5 57,67.5 C56.2203039,67.5 55.5795513,66.9051119 55.5068666,66.14446 L55.5,66 L55.5,52 C55.5,51.1715729 56.1715729,50.5 57,50.5 Z" id="Stroke-11" fill="#000000" fill-rule="nonzero"></path>
                <path d="M57,74.5 C57.7796961,74.5 58.4204487,75.0948881 58.4931334,75.85554 L58.5,76 L58.5,121 C58.5,121.828427 57.8284271,122.5 57,122.5 C56.2203039,122.5 55.5795513,121.905112 55.5068666,121.14446 L55.5,121 L55.5,76 C55.5,75.1715729 56.1715729,74.5 57,74.5 Z" id="Stroke-12" fill="#000000" fill-rule="nonzero"></path>
                <path d="M55.8433822,97.0446829 C56.4099844,96.3587898 57.4342444,96.3206803 58.0517029,96.9303581 L58.1562674,97.0446727 L77.1564384,120.044673 C77.6840511,120.683356 77.5940106,121.628826 76.9553273,122.156438 C76.3565617,122.651075 75.4881596,122.602853 74.9472088,122.068634 L74.8435616,121.955327 L57,100.355 L39.1564468,121.955317 C38.6618152,122.554087 37.7999222,122.670655 37.1678551,122.248152 L37.0446829,122.156447 C36.445913,121.661815 36.3293453,120.799922 36.7518481,120.167855 L36.8435532,120.044683 L55.8433822,97.0446829 Z" id="Stroke-13" fill="#000000" fill-rule="nonzero"></path>
                <path d="M65.4179145,108.617547 C66.1814222,108.29607 67.0609761,108.654407 67.3824531,109.417914 C67.6850196,110.13651 67.3853982,110.957901 66.7125603,111.320066 L66.5820855,111.382453 L57.0820855,115.382453 C56.7563825,115.519591 56.3943314,115.536733 56.0595414,115.43388 L55.9179145,115.382453 L46.4179145,111.382453 C45.6544068,111.060976 45.29607,110.181422 45.6175469,109.417914 C45.9201135,108.699319 46.7170319,108.339629 47.4462814,108.567817 L47.5820855,108.617547 L56.5,112.372 L65.4179145,108.617547 Z" id="Stroke-14" fill="#000000" fill-rule="nonzero"></path>
            </g>
        </g>
    </g>
</svg>