<?xml version="1.0" encoding="UTF-8"?>
<svg width="126px" height="126px" viewBox="0 0 126 126" version="1.1" xmlns="http://www.w3.org/2000/svg" xmlns:xlink="http://www.w3.org/1999/xlink">
    <title>Group 10</title>
    <g id="Page-1" stroke="none" stroke-width="1" fill="none" fill-rule="evenodd">
        <g id="Desktop-HD" transform="translate(-1297.000000, -1324.000000)">
            <g id="Group-10" transform="translate(1297.000000, 1324.000000)">
                <rect id="Rectangle-Copy-74" fill="#D8D8D8" opacity="0" x="0" y="0" width="126" height="126"></rect>
                <g id="Group-39" transform="translate(14.000000, 14.000000)" stroke="#000000" stroke-linecap="round" stroke-linejoin="round" stroke-width="3">
                    <line x1="54" y1="73" x2="44" y2="73" id="Stroke-1"></line>
                    <g id="Group-38">
                        <path d="M15.8063819,72.7096793 L11.0646437,72.7096793 C7.57278288,72.7096793 4.74185196,69.879032 4.74185196,66.3871702 L4.74185196,44.258104 C4.74185196,39.0204535 8.98796383,34.7743404 14.2256128,34.7743404 L83.7743303,34.7743404 C89.0119793,34.7743404 93.2580911,39.0204535 93.2580911,44.258104 L93.2580911,66.3871702 C93.2580911,69.879032 90.4271602,72.7096793 86.9352994,72.7096793 L82.1935612,72.7096793" id="Stroke-2"></path>
                        <path d="M90.0966384,72.7096793 L90.0966384,91.6774909 C90.0966384,95.1690683 87.265992,98 83.7741311,98 L14.2256982,98 C10.7341218,98 7.90319093,95.1690683 7.90319093,91.6774909 L7.90319093,72.7096793" id="Stroke-4"></path>
                        <path d="M64.8064103,28.4516606 L33.1935897,28.4516606 C32.3204111,28.4516606 31.6128206,27.74407 31.6128206,26.8708911 L31.6128206,23.7096366 C31.6128206,22.8367422 32.3204111,22.1291516 33.1935897,22.1291516 L64.8064103,22.1291516 C65.6793044,22.1291516 66.3871794,22.8367422 66.3871794,23.7096366 L66.3871794,26.8708911 C66.3871794,27.74407 65.6793044,28.4516606 64.8064103,28.4516606 Z" id="Stroke-6"></path>
                        <path d="M66.387094,25.2904346 C66.387094,25.2904346 75.8708549,25.2904346 75.8708549,34.7741981" id="Stroke-8"></path>
                        <path d="M31.6128206,25.2904346 C31.6128206,25.2904346 22.1290598,25.2904346 22.1290598,34.7741981" id="Stroke-10"></path>
                        <path d="M26.8710825,83.774127 C26.8710825,82.0283383 28.2862634,80.6128725 30.0320516,80.6128725 C31.7781242,80.6128725 33.1935897,82.0283383 33.1935897,83.774127 C33.1935897,85.5202002 31.7781242,86.9353815 30.0320516,86.9353815 C28.2862634,86.9353815 26.8710825,85.5202002 26.8710825,83.774127 Z" id="Stroke-12"></path>
                        <path d="M22.1290598,83.774127 C22.1290598,88.3952319 26.0946392,92.0899534 30.8087793,91.640134 C34.9174701,91.2483558 37.9356124,87.5621697 37.9356124,83.4344152 L37.9356124,64.8063153 C37.9356124,60.4415592 34.7740742,56.9033213 30.0320516,56.9033213 C25.2903134,56.9033213 22.1290598,60.4415592 22.1290598,64.8063153 L22.1290598,83.774127 Z" id="Stroke-14"></path>
                        <line x1="41.096866" y1="67.9677975" x2="18.9678062" y2="67.9677975" id="Stroke-16"></line>
                        <line x1="30.0321654" y1="67.9677975" x2="30.0321654" y2="64.8065429" id="Stroke-18"></line>
                        <line x1="33.1935043" y1="75.8710476" x2="26.8709971" y2="75.8710476" id="Stroke-20"></line>
                        <path d="M71.1288322,83.774127 C71.1288322,82.0283383 69.7136512,80.6128725 67.9678631,80.6128725 C66.2217904,80.6128725 64.806325,82.0283383 64.806325,83.774127 C64.806325,85.5202002 66.2217904,86.9353815 67.9678631,86.9353815 C69.7136512,86.9353815 71.1288322,85.5202002 71.1288322,83.774127 Z" id="Stroke-22"></path>
                        <path d="M75.8708549,83.774127 C75.8708549,88.3952319 71.9052754,92.0899534 67.1911353,91.640134 C63.08216,91.2483558 60.0643023,87.5621697 60.0643023,83.4344152 L60.0643023,64.8063153 C60.0643023,60.4415592 63.2258404,56.9033213 67.9678631,56.9033213 C72.7096012,56.9033213 75.8708549,60.4415592 75.8708549,64.8063153 L75.8708549,83.774127 Z" id="Stroke-24"></path>
                        <line x1="56.9030487" y1="67.9677975" x2="79.0321085" y2="67.9677975" id="Stroke-26"></line>
                        <line x1="67.9677777" y1="67.9677975" x2="67.9677777" y2="64.8065429" id="Stroke-28"></line>
                        <line x1="71.1288322" y1="75.8710476" x2="64.806325" y2="75.8710476" id="Stroke-30"></line>
                        <line x1="48.9999715" y1="77.451561" x2="48.9999715" y2="93.2581182" id="Stroke-32"></line>
                        <path d="M93.2579773,58.4839201 L98,58.4839201 L98,15.8065572 C98,7.07704483 90.9229572,0 82.1934474,0 L15.8062681,0 C7.07704278,0 0,7.07704483 0,15.8065572 L0,58.4839201 L4.74202267,58.4839201" id="Stroke-34"></path>
                        <path d="M91.6773221,30.0323448 L91.6773221,18.9678117 C91.6773221,11.984088 86.0160293,6.32250906 79.0323076,6.32250906 L18.9676355,6.32250906 C11.9839138,6.32250906 6.32262103,11.984088 6.32262103,18.9678117 L6.32262103,30.0323448" id="Stroke-36"></path>
                    </g>
                </g>
            </g>
        </g>
    </g>
</svg>