<?xml version="1.0" encoding="utf-8"?>
<!-- Generator: Adobe Illustrator 25.0.0, SVG Export Plug-In . SVG Version: 6.00 Build 0)  -->
<svg version="1.1" id="圖層_1" xmlns="http://www.w3.org/2000/svg" xmlns:xlink="http://www.w3.org/1999/xlink" x="0px" y="0px"
	 viewBox="0 0 48 48" style="enable-background:new 0 0 48 48;" xml:space="preserve">
<style type="text/css">
	.st0{fill:#475993;}
</style>
<path class="st0" d="M30.4,15.2H17.6c-1.3,0-2.4,1.1-2.4,2.4v12.9c0,1.3,1.1,2.4,2.4,2.4h6.3l0-6.3h-1.6c-0.2,0-0.4-0.2-0.4-0.4l0-2
	c0-0.2,0.2-0.4,0.4-0.4h1.6v-2c0-2.3,1.4-3.5,3.4-3.5H29c0.2,0,0.4,0.2,0.4,0.4v1.7c0,0.2-0.2,0.4-0.4,0.4l-1,0
	c-1.1,0-1.3,0.5-1.3,1.3v1.7h2.4c0.2,0,0.4,0.2,0.4,0.4l-0.2,2c0,0.2-0.2,0.3-0.4,0.3h-2.2l0,6.3h3.8c1.3,0,2.4-1.1,2.4-2.4V17.6
	C32.8,16.3,31.7,15.2,30.4,15.2z"/>
</svg>
