<?xml version="1.0" encoding="utf-8"?>
<!-- Generator: Adobe Illustrator 25.0.0, SVG Export Plug-In . SVG Version: 6.00 Build 0)  -->
<svg version="1.1" id="圖層_1" xmlns="http://www.w3.org/2000/svg" xmlns:xlink="http://www.w3.org/1999/xlink" x="0px" y="0px"
	 viewBox="0 0 48 48" style="enable-background:new 0 0 48 48;" xml:space="preserve">
<style type="text/css">
	.st0{fill-rule:evenodd;clip-rule:evenodd;fill:#4285F4;}
	.st1{fill-rule:evenodd;clip-rule:evenodd;fill:#34A853;}
	.st2{fill-rule:evenodd;clip-rule:evenodd;fill:#FBBC05;}
	.st3{fill-rule:evenodd;clip-rule:evenodd;fill:#EA4335;}
	.st4{fill:none;}
</style>
<path class="st0" d="M32.6,24.2c0-0.6-0.1-1.3-0.2-1.8H24v3.5h4.8C28.6,27,28,27.9,27,28.6v2.3H30C31.7,29.3,32.6,26.9,32.6,24.2z"
	/>
<path class="st1" d="M24,33c2.4,0,4.5-0.8,6-2.2L27,28.6c-0.8,0.5-1.8,0.9-3,0.9c-2.3,0-4.3-1.6-5-3.7h-3V28
	C17.5,31.1,20.6,33,24,33z"/>
<path class="st2" d="M19,25.7c-0.2-0.6-0.3-1.1-0.3-1.7c0-0.6,0.1-1.2,0.3-1.7V20h-3c-0.6,1.3-1,2.6-1,4c0,1.5,0.3,2.8,1,4L19,25.7z
	"/>
<path class="st3" d="M24,18.6c1.3,0,2.5,0.5,3.4,1.3l2.6-2.6c-1.6-1.5-3.6-2.3-6-2.3c-3.4,0-6.5,1.9-8,5l3,2.3
	C19.7,20.2,21.7,18.6,24,18.6z"/>
<path class="st4" d="M15,15h18v18H15V15z"/>
</svg>
