<?xml version="1.0" encoding="utf-8"?>
<!-- Generator: Adobe Illustrator 25.0.0, SVG Export Plug-In . SVG Version: 6.00 Build 0)  -->
<svg version="1.1" id="圖層_1" xmlns="http://www.w3.org/2000/svg" xmlns:xlink="http://www.w3.org/1999/xlink" x="0px" y="0px"
	 viewBox="0 0 24 24" style="enable-background:new 0 0 24 24;" xml:space="preserve">
<style type="text/css">
	.st0{fill:#2C323A;}
</style>
<path class="st0" d="M9.94,2.99c-3.83,0-6.95,3.17-6.95,7.08c0,3.91,3.12,7.08,6.95,7.08c3.83,0,6.95-3.17,6.95-7.08
	C16.89,6.15,13.77,2.99,9.94,2.99z M9.94,0.42c5.27,0,9.53,4.33,9.53,9.65c0,2.08-0.65,4.01-1.76,5.59l5.52,5.75
	c0.49,0.51,0.48,1.33-0.04,1.82c-0.5,0.48-1.28,0.48-1.78,0l-0.04-0.04l-5.41-5.64c-1.64,1.36-3.73,2.17-6.02,2.17
	c-5.27,0-9.53-4.33-9.53-9.65C0.42,4.74,4.68,0.42,9.94,0.42z"/>
</svg>
