<?xml version="1.0" encoding="utf-8"?>
<!-- Generator: Adobe Illustrator 25.0.1, SVG Export Plug-In . SVG Version: 6.00 Build 0)  -->
<svg version="1.1" id="圖層_1" xmlns="http://www.w3.org/2000/svg" xmlns:xlink="http://www.w3.org/1999/xlink" x="0px" y="0px"
	 viewBox="0 0 1560 726" style="enable-background:new 0 0 1560 726;" xml:space="preserve">
<style type="text/css">
	.st0{fill:#EFEFEF;}
	.st1{clip-path:url(#SVGID_2_);}
	.st2{fill:#8EABF1;}
	.st3{fill:#396FE7;}
	.st4{fill:#1349E8;}
</style>
<rect y="0" class="st0" width="1560" height="726"/>
<g>
	<g>
		<defs>
			<rect id="SVGID_1_" x="1" y="0" width="1558" height="726"/>
		</defs>
		<clipPath id="SVGID_2_">
			<use xlink:href="#SVGID_1_"  style="overflow:visible;"/>
		</clipPath>
		<g class="st1">
			<polygon class="st2" points="1028.96,480.96 987.47,788.82 981.19,834.99 1128.1,835.18 1121.94,788.98 1080.41,480.96 			"/>
			<polygon class="st3" points="1132.76,480.96 1236.11,788.82 1251.55,834.99 1398.55,835.18 1370.65,788.98 1184.22,480.96 			"/>
			<polygon class="st4" points="1241.56,480.96 1489.75,788.82 1526.91,834.99 1674,835.18 1624.37,788.98 1293.02,480.96 			"/>
			<rect x="1028.96" y="255.5" class="st2" width="51.46" height="225.47"/>
			<rect x="1132.76" y="189.46" class="st3" width="51.46" height="291.5"/>
			<rect x="1241.56" y="122.21" class="st4" width="51.46" height="358.76"/>
			<polygon class="st2" points="1053.36,182.74 992.95,267.06 1113.76,267.06 			"/>
			<polygon class="st3" points="1158.46,116.7 1098.05,201.03 1218.87,201.03 			"/>
			<polygon class="st4" points="1266.12,47 1205.71,131.33 1326.52,131.33 			"/>
		</g>
	</g>
</g>
</svg>
