<?xml version="1.0" encoding="utf-8"?>
<!-- Generator: Adobe Illustrator 25.0.1, SVG Export Plug-In . SVG Version: 6.00 Build 0)  -->
<svg version="1.1" id="圖層_1" xmlns="http://www.w3.org/2000/svg" xmlns:xlink="http://www.w3.org/1999/xlink" x="0px" y="0px"
	 viewBox="0 0 697.31 60.52" style="enable-background:new 0 0 697.31 60.52;" xml:space="preserve">
<style type="text/css">
	.st0{fill:#FF8C00;}
	.st1{fill:#333333;stroke:#FFFFFF;stroke-width:3;stroke-linecap:round;stroke-linejoin:round;stroke-miterlimit:10;}
	.st2{fill:#333333;}
</style>
<g>
	<rect x="95.33" y="42.52" class="st0" width="505" height="18"/>
	<g>
		<path class="st0" d="M24.99,28.43H0V11.56h8.4V3.19h24.99v8.38h-8.4V28.43z M49.99,28.43h-16.6V11.56h8.3V3.19h16.7v8.38h-8.4
			V28.43z"/>
	</g>
	<g>
		<path class="st0" d="M647.33,23.97h16.6v16.86h-8.3v8.38h-16.7v-8.38h8.4V23.97z M672.32,23.97h24.99v16.86h-8.4v8.38h-24.99
			v-8.38h8.4V23.97z"/>
	</g>
	<g>
		<g>
			<path class="st1" d="M122.36,50.63l0.8-4.11h4.03l0.79-4.07h-4.03l1.59-8.18h-4.08l-3.18,16.36h-16.15l3.18-16.36h16.15
				l0.79-4.07h28.33l-1.59,8.18h-4.07l-1.58,8.13h8.1l-0.8,4.11h-12.13l0.8-4.11h-8.1l-0.8,4.11H122.36z M106.89,26.13l0.8-4.11
				h16.15l-0.8,4.11H106.89z M108.48,17.95l0.79-4.07h16.15l-0.79,4.07H108.48z M110.07,9.77l0.79-4.07h16.15l-0.79,4.07H110.07z
				 M115.06,46.51l1.58-8.13h-4.03l-1.58,8.13H115.06z M155.4,26.13h-16.15l3.18-16.36h-4.08l-2.38,12.25h-4.03l-0.8,4.11h-4.03
				l3.97-20.42h20.18l-3.17,16.31h4.07l0.79-4.07h4.03L155.4,26.13z M136.08,42.45l0.79-4.07h4.03l0.8-4.11h-8.1L132,42.45H136.08z"
				/>
			<path class="st1" d="M180.57,50.63h-20.23l3.18-16.36h20.23L180.57,50.63z M165.1,26.13l0.8-4.11h20.23l-0.8,4.11H165.1z
				 M166.69,17.95l0.79-4.07h20.23l-0.79,4.07h12.13l3.17-16.31h8.05l-3.17,16.31h8.1l-0.79,4.07h-8.1l-5.56,28.61h-8.05l5.56-28.61
				h-12.13l0.79-4.07H166.69z M168.28,9.77l0.79-4.07h20.23l-0.79,4.07H168.28z M173.27,46.51l1.58-8.13h-4.03l-1.58,8.13H173.27z"
				/>
			<path class="st1" d="M218.55,50.63l0.8-4.11h8.1l2.38-12.25h-8.1l0.79-4.07h8.1l0.79-4.07h4.03l0.8-4.11h-8.1l0.79-4.07h16.2
				l0.79-4.07h-20.23l0.8-4.11h12.13l1.58-8.13h8.1l-1.58,8.13h8.05l0.79-4.07h4.08l0.79-4.07h8.05l-0.79,4.07h-4.03l-0.79,4.07H275
				l-0.8,4.11h-20.23l-0.79,4.07h16.2l-0.79,4.07h-8.1l-0.8,4.11h4.03l-0.79,4.07h8.1l-0.79,4.07h-8.1l-0.8,4.11h4.07l-0.79,4.07
				h-8.1l-0.79,4.07h12.13l-0.8,4.11H250.9l0.8-4.11h-8.1l-0.8,4.11H218.55z M235.5,46.51h8.1l0.79-4.07h-4.03l0.79-4.07h-4.08
				L235.5,46.51z M237.88,34.27h16.2l0.79-4.07h-16.2L237.88,34.27z M243.54,26.13h8.05l0.8-4.11h-8.05L243.54,26.13z M252.49,42.45
				l0.79-4.07h-4.08l-0.79,4.07H252.49z"/>
			<path class="st1" d="M292.91,50.63l0.8-4.11h8.1l0.79-4.07h8.1l1.59-8.18h-4.08l3.96-20.38h-16.15l-1.58,8.13h12.13l-3.97,20.43
				h-8.1l3.17-16.31h-4.03l-3.17,16.31h-4.03l-1.59,8.18h-8.1l1.59-8.18h4.03l6.35-32.67h24.25l1.58-8.13h8.1l-1.58,8.13h4.03
				l0.79-4.07h8.1l-1.59,8.18h-12.13l-3.96,20.38h4.03l-1.59,8.18h4.07l0.79-4.07h4.03l-2.38,12.25h-8.1l1.59-8.18h-4.03l-0.79,4.07
				h-8.1l-0.8,4.11H292.91z M320.34,34.27l3.17-16.31h8.1l-1.59,8.18H326l-1.58,8.13H320.34z"/>
			<path class="st1" d="M363.25,50.63l0.8-4.11h4.07l0.79-4.07h-8.1l0.79-4.07h48.51l-0.79,4.07h-8.1l-0.79,4.07h4.07l-0.8,4.11
				h-4.07l0.8-4.11h-4.03l-0.8,4.11H363.25z M366.42,34.27l0.79-4.07h16.2l0.79-4.07h4.03l0.8-4.11h-4.03l-0.8,4.11h-8.1l1.59-8.18
				h-4.03l-1.59,8.18h-8.1l2.38-12.25h20.23l0.8-4.11h-16.2l0.79-4.07h40.45l-0.79,4.07h-16.2l-0.8,4.11h20.23l-2.38,12.25h-4.03
				l0.8-4.11h-4.07l-0.8,4.11h-8.05l1.59-8.18h-4.08l-2.38,12.25h16.2l-0.79,4.07H366.42z M376.17,46.51h16.2l0.79-4.07h-16.2
				L376.17,46.51z M385.01,22.02l0.79-4.07h-4.08l-0.79,4.07H385.01z M405.19,22.02l0.79-4.07h-4.03l-0.79,4.07H405.19z"/>
			<path class="st1" d="M418.23,46.51l0.79-4.07h8.1l0.79-4.07h4.03l3.18-16.36h-4.03l-3.18,16.36h-8.1l3.18-16.36h8.1l0.79-4.07
				h-8.1l0.79-4.07h4.03l1.59-8.18h8.1l-1.59,8.18h4.03l1.59-8.18h8.1l-1.59,8.18h4.03l2.38-12.25h8.1l-2.38,12.25h4.03l1.59-8.18
				h8.1l-2.38,12.25h-32.35l-4.76,24.49h4.08l2.38-12.25h8.05l0.79-4.07h-8.05l0.8-4.11h28.28l-0.8,4.11h-12.13l-0.79,4.07h12.13
				l-3.97,20.43h-12.13l3.18-16.36h-4.03l-2.38,12.25h-4.08l2.38-12.25h-4.03l-3.18,16.36h-8.1l0.8-4.11H418.23z M462.71,46.51
				l2.38-12.25h-4.07l-2.38,12.25H462.71z"/>
			<path class="st1" d="M480.4,26.13l0.8-4.11h16.15l-0.8,4.11h4.07l0.8-4.11h-4.08l0.79-4.07h4.08l0.79-4.07h-4.08l-0.79,4.07
				h-16.15l0.79-4.07h16.15l0.8-4.11h4.08l1.58-8.13h8.05l-1.58,8.13h4.08l1.58-8.13h8.05l-1.58,8.13h8.1l-0.8,4.11h-8.1l-0.79,4.07
				h8.1l-0.79,4.07h-8.1l-0.8,4.11h8.1l-4.76,24.49h-8.1l0.8-4.11h-16.15l-0.8,4.11h-4.03l0.8-4.11h-4.07l-0.8,4.11h-16.15
				l3.18-16.36h16.15l-1.59,8.18h4.08l1.59-8.18h-4.08l1.58-8.13H480.4z M483.58,9.77l0.79-4.07h16.15l-0.79,4.07H483.58z
				 M488.56,46.51l1.58-8.13h-4.03l-1.58,8.13H488.56z M505.5,42.45l0.79-4.07h-4.03l-0.79,4.07H505.5z M507.09,34.27l0.79-4.07
				h-4.03l-0.79,4.07H507.09z M512.75,26.13l0.8-4.11h-4.08l-0.8,4.11H512.75z M514.34,17.95l0.79-4.07h-4.08l-0.79,4.07H514.34z
				 M517.63,42.45l0.79-4.07h-4.03l-0.79,4.07H517.63z M519.22,34.27l0.79-4.07h-4.03l-0.79,4.07H519.22z"/>
			<path class="st1" d="M542.74,46.51h-8.1l1.58-8.13h4.03l5.56-28.61h20.23l1.58-8.13h8.1l-1.58,8.13h16.15l-0.8,4.11h-8.1
				l-1.58,8.13h4.07l-0.8,4.11h4.03l-0.79,4.07h-8.1l1.59-8.18h-4.03l-0.8,4.11h-4.03l2.38-12.25h-8.1l-1.58,8.13h-4.03l-0.8,4.11
				h-4.08l-0.79,4.07h-4.03l-1.59,8.18h-4.03L542.74,46.51z M552.38,38.38l0.8-4.11h8.1l2.38-12.25h4.03l-0.8,4.11h4.08l-1.58,8.13
				h16.15l-0.8,4.11h-16.15L567,46.51h16.15l-0.8,4.11h-40.41l0.8-4.11h16.15l1.58-8.13H552.38z M554.76,26.13l2.38-12.25h-4.03
				l-2.38,12.25H554.76z"/>
		</g>
	</g>
	<g>
		<g>
			<path class="st2" d="M122.36,50.63l0.8-4.11h4.03l0.79-4.07h-4.03l1.59-8.18h-4.08l-3.18,16.36h-16.15l3.18-16.36h16.15
				l0.79-4.07h28.33l-1.59,8.18h-4.07l-1.58,8.13h8.1l-0.8,4.11h-12.13l0.8-4.11h-8.1l-0.8,4.11H122.36z M106.89,26.13l0.8-4.11
				h16.15l-0.8,4.11H106.89z M108.48,17.95l0.79-4.07h16.15l-0.79,4.07H108.48z M110.07,9.77l0.79-4.07h16.15l-0.79,4.07H110.07z
				 M115.06,46.51l1.58-8.13h-4.03l-1.58,8.13H115.06z M155.4,26.13h-16.15l3.18-16.36h-4.08l-2.38,12.25h-4.03l-0.8,4.11h-4.03
				l3.97-20.42h20.18l-3.17,16.31h4.07l0.79-4.07h4.03L155.4,26.13z M136.08,42.45l0.79-4.07h4.03l0.8-4.11h-8.1L132,42.45H136.08z"
				/>
			<path class="st2" d="M180.57,50.63h-20.23l3.18-16.36h20.23L180.57,50.63z M165.1,26.13l0.8-4.11h20.23l-0.8,4.11H165.1z
				 M166.69,17.95l0.79-4.07h20.23l-0.79,4.07h12.13l3.17-16.31h8.05l-3.17,16.31h8.1l-0.79,4.07h-8.1l-5.56,28.61h-8.05l5.56-28.61
				h-12.13l0.79-4.07H166.69z M168.28,9.77l0.79-4.07h20.23l-0.79,4.07H168.28z M173.27,46.51l1.58-8.13h-4.03l-1.58,8.13H173.27z"
				/>
			<path class="st2" d="M218.55,50.63l0.8-4.11h8.1l2.38-12.25h-8.1l0.79-4.07h8.1l0.79-4.07h4.03l0.8-4.11h-8.1l0.79-4.07h16.2
				l0.79-4.07h-20.23l0.8-4.11h12.13l1.58-8.13h8.1l-1.58,8.13h8.05l0.79-4.07h4.08l0.79-4.07h8.05l-0.79,4.07h-4.03l-0.79,4.07H275
				l-0.8,4.11h-20.23l-0.79,4.07h16.2l-0.79,4.07h-8.1l-0.8,4.11h4.03l-0.79,4.07h8.1l-0.79,4.07h-8.1l-0.8,4.11h4.07l-0.79,4.07
				h-8.1l-0.79,4.07h12.13l-0.8,4.11H250.9l0.8-4.11h-8.1l-0.8,4.11H218.55z M235.5,46.51h8.1l0.79-4.07h-4.03l0.79-4.07h-4.08
				L235.5,46.51z M237.88,34.27h16.2l0.79-4.07h-16.2L237.88,34.27z M243.54,26.13h8.05l0.8-4.11h-8.05L243.54,26.13z M252.49,42.45
				l0.79-4.07h-4.08l-0.79,4.07H252.49z"/>
			<path class="st2" d="M292.91,50.63l0.8-4.11h8.1l0.79-4.07h8.1l1.59-8.18h-4.08l3.96-20.38h-16.15l-1.58,8.13h12.13l-3.97,20.43
				h-8.1l3.17-16.31h-4.03l-3.17,16.31h-4.03l-1.59,8.18h-8.1l1.59-8.18h4.03l6.35-32.67h24.25l1.58-8.13h8.1l-1.58,8.13h4.03
				l0.79-4.07h8.1l-1.59,8.18h-12.13l-3.96,20.38h4.03l-1.59,8.18h4.07l0.79-4.07h4.03l-2.38,12.25h-8.1l1.59-8.18h-4.03l-0.79,4.07
				h-8.1l-0.8,4.11H292.91z M320.34,34.27l3.17-16.31h8.1l-1.59,8.18H326l-1.58,8.13H320.34z"/>
			<path class="st2" d="M363.25,50.63l0.8-4.11h4.07l0.79-4.07h-8.1l0.79-4.07h48.51l-0.79,4.07h-8.1l-0.79,4.07h4.07l-0.8,4.11
				h-4.07l0.8-4.11h-4.03l-0.8,4.11H363.25z M366.42,34.27l0.79-4.07h16.2l0.79-4.07h4.03l0.8-4.11h-4.03l-0.8,4.11h-8.1l1.59-8.18
				h-4.03l-1.59,8.18h-8.1l2.38-12.25h20.23l0.8-4.11h-16.2l0.79-4.07h40.45l-0.79,4.07h-16.2l-0.8,4.11h20.23l-2.38,12.25h-4.03
				l0.8-4.11h-4.07l-0.8,4.11h-8.05l1.59-8.18h-4.08l-2.38,12.25h16.2l-0.79,4.07H366.42z M376.17,46.51h16.2l0.79-4.07h-16.2
				L376.17,46.51z M385.01,22.02l0.79-4.07h-4.08l-0.79,4.07H385.01z M405.19,22.02l0.79-4.07h-4.03l-0.79,4.07H405.19z"/>
			<path class="st2" d="M418.23,46.51l0.79-4.07h8.1l0.79-4.07h4.03l3.18-16.36h-4.03l-3.18,16.36h-8.1l3.18-16.36h8.1l0.79-4.07
				h-8.1l0.79-4.07h4.03l1.59-8.18h8.1l-1.59,8.18h4.03l1.59-8.18h8.1l-1.59,8.18h4.03l2.38-12.25h8.1l-2.38,12.25h4.03l1.59-8.18
				h8.1l-2.38,12.25h-32.35l-4.76,24.49h4.08l2.38-12.25h8.05l0.79-4.07h-8.05l0.8-4.11h28.28l-0.8,4.11h-12.13l-0.79,4.07h12.13
				l-3.97,20.43h-12.13l3.18-16.36h-4.03l-2.38,12.25h-4.08l2.38-12.25h-4.03l-3.18,16.36h-8.1l0.8-4.11H418.23z M462.71,46.51
				l2.38-12.25h-4.07l-2.38,12.25H462.71z"/>
			<path class="st2" d="M480.4,26.13l0.8-4.11h16.15l-0.8,4.11h4.07l0.8-4.11h-4.08l0.79-4.07h4.08l0.79-4.07h-4.08l-0.79,4.07
				h-16.15l0.79-4.07h16.15l0.8-4.11h4.08l1.58-8.13h8.05l-1.58,8.13h4.08l1.58-8.13h8.05l-1.58,8.13h8.1l-0.8,4.11h-8.1l-0.79,4.07
				h8.1l-0.79,4.07h-8.1l-0.8,4.11h8.1l-4.76,24.49h-8.1l0.8-4.11h-16.15l-0.8,4.11h-4.03l0.8-4.11h-4.07l-0.8,4.11h-16.15
				l3.18-16.36h16.15l-1.59,8.18h4.08l1.59-8.18h-4.08l1.58-8.13H480.4z M483.58,9.77l0.79-4.07h16.15l-0.79,4.07H483.58z
				 M488.56,46.51l1.58-8.13h-4.03l-1.58,8.13H488.56z M505.5,42.45l0.79-4.07h-4.03l-0.79,4.07H505.5z M507.09,34.27l0.79-4.07
				h-4.03l-0.79,4.07H507.09z M512.75,26.13l0.8-4.11h-4.08l-0.8,4.11H512.75z M514.34,17.95l0.79-4.07h-4.08l-0.79,4.07H514.34z
				 M517.63,42.45l0.79-4.07h-4.03l-0.79,4.07H517.63z M519.22,34.27l0.79-4.07h-4.03l-0.79,4.07H519.22z"/>
			<path class="st2" d="M542.74,46.51h-8.1l1.58-8.13h4.03l5.56-28.61h20.23l1.58-8.13h8.1l-1.58,8.13h16.15l-0.8,4.11h-8.1
				l-1.58,8.13h4.07l-0.8,4.11h4.03l-0.79,4.07h-8.1l1.59-8.18h-4.03l-0.8,4.11h-4.03l2.38-12.25h-8.1l-1.58,8.13h-4.03l-0.8,4.11
				h-4.08l-0.79,4.07h-4.03l-1.59,8.18h-4.03L542.74,46.51z M552.38,38.38l0.8-4.11h8.1l2.38-12.25h4.03l-0.8,4.11h4.08l-1.58,8.13
				h16.15l-0.8,4.11h-16.15L567,46.51h16.15l-0.8,4.11h-40.41l0.8-4.11h16.15l1.58-8.13H552.38z M554.76,26.13l2.38-12.25h-4.03
				l-2.38,12.25H554.76z"/>
		</g>
	</g>
</g>
</svg>
