<?xml version="1.0" encoding="utf-8"?>
<!-- Generator: Adobe Illustrator 25.0.1, SVG Export Plug-In . SVG Version: 6.00 Build 0)  -->
<svg version="1.1" id="圖層_1" xmlns="http://www.w3.org/2000/svg" xmlns:xlink="http://www.w3.org/1999/xlink" x="0px" y="0px"
	 viewBox="0 0 697.31 60.5" style="enable-background:new 0 0 697.31 60.5;" xml:space="preserve">
<style type="text/css">
	.st0{fill:#1349E8;}
	.st1{fill:#1A1A1A;stroke:#FFFFFF;stroke-width:3;stroke-linecap:round;stroke-linejoin:round;stroke-miterlimit:10;}
	.st2{fill:#1A1A1A;}
</style>
<g>
	<rect x="95.33" y="42.5" class="st0" width="505" height="18"/>
	<g>
		<path class="st0" d="M24.99,28.4H0V11.54h8.4V3.16h24.99v8.38h-8.4V28.4z M49.99,28.4h-16.6V11.54h8.3V3.16h16.7v8.38h-8.4V28.4z"
			/>
	</g>
	<g>
		<path class="st0" d="M647.33,23.95h16.6v16.86h-8.3v8.38h-16.7v-8.38h8.4V23.95z M672.32,23.95h24.99v16.86h-8.4v8.38h-24.99
			v-8.38h8.4V23.95z"/>
	</g>
	<g>
		<g>
			<path class="st1" d="M118.28,50.6l0.8-4.11h8.1l1.58-8.13h-4.03l1.59-8.18h8.05l-1.59,8.18h4.08l-0.79,4.07h4.03l3.17-16.31
				h-20.23l0.8-4.11h12.13l1.58-8.13h-12.13l-0.79,4.07h-4.03l-2.38,12.25h4.03l-0.79,4.07h-4.03l-3.18,16.36h-12.13l0.8-4.11h4.03
				l1.58-8.13h-4.03l0.8-4.11h4.03l3.17-16.31h-4.03l0.79-4.07h4.03l1.59-8.18h8.1l-1.59,8.18h4.03l0.8-4.11h12.13l1.58-8.13h8.1
				l-1.58,8.13h12.13l-0.8,4.11h-12.13L144.07,22h8.1l-3.18,16.36h-4.07l-1.58,8.13h8.1l-0.8,4.11h-12.13l0.8-4.11h-8.1l-0.8,4.11
				H118.28z"/>
			<path class="st1" d="M172.47,50.6l0.8-4.11h4.03l0.79-4.07h-8.05l-1.59,8.18h-8.1L165.9,22h24.25l-5.56,28.61H172.47z
				 M213.61,26.11h-20.23l0.8-4.11h-4.03l0.79-4.07h4.03l1.59-8.18h-4.03l-1.59,8.18h-24.25l1.59-8.18h4.03l0.79-4.07h4.07
				l0.79-4.07h8.05l-0.79,4.07h-4.03l-0.79,4.07h-4.03l-0.8,4.11h8.05l0.8-4.11h8.1l0.79-4.07h8.1l-0.79,4.07h4.03l0.79-4.07h12.13
				l-0.79,4.07h-8.1l-0.8,4.11h-8.05L198.25,22h8.05l0.79-4.07h8.1L213.61,26.11z M170.82,38.36h8.05l0.8-4.11h-8.05L170.82,38.36z
				 M172.41,30.18h8.05l0.79-4.07h-8.05L172.41,30.18z M208.85,50.6h-20.23l3.97-20.43h4.08l-0.79,4.07h4.03l0.79-4.07h12.13
				l-0.79,4.07h-8.1l-0.8,4.11h-8.05l-1.58,8.13h8.05l0.79-4.07h8.1L208.85,50.6z"/>
			<path class="st1" d="M218.55,50.6l0.8-4.11h4.03l1.58-8.13h-4.03l0.8-4.11h4.03l3.17-16.31h-4.03l0.79-4.07h4.03l1.59-8.18h8.1
				l-1.59,8.18h4.03l-0.79,4.07h4.08l0.79-4.07h-4.08l1.59-8.18h28.33l-3.97,20.42h-28.33l1.59-8.18h-4.03l-3.17,16.31h4.03
				l-0.8,4.11h4.08l0.8-4.11h-4.08l0.79-4.07h32.35l-0.79,4.07h-12.13l-0.8,4.11h8.1l-0.79,4.07h-8.1l-0.79,4.07h12.13l-0.8,4.11
				H250.9l0.8-4.11h-12.13l-0.8,4.11H218.55z M235.5,46.49l1.58-8.13h-4.03l-1.58,8.13H235.5z M248.42,42.42l1.59-8.18h-4.03
				l-1.59,8.18H248.42z M248.36,22h12.12l0.79-4.07h-12.13L248.36,22z M249.94,13.87h12.13l0.8-4.11h-12.13L249.94,13.87z"/>
			<path class="st1" d="M280.73,30.18l0.79-4.07h12.13l2.38-12.25h-8.1l0.8-4.11h12.13l0.79-4.07h12.13l-0.79,4.07h-8.05
				l-3.18,16.36h12.13l3.97-20.42h8.05l-3.97,20.42h8.1l-0.79,4.07h-8.1l-3.97,20.43h-8.05l3.97-20.43h-12.13l-0.79,4.07h-4.08
				l-1.59,8.18h-4.03l-1.59,8.18h-8.1l1.59-8.18h4.07l1.59-8.18h4.03l0.79-4.07H280.73z"/>
			<path class="st1" d="M383.47,50.6l0.8-4.11h8.1l1.58-8.13H361.6l0.8-4.11h20.23l0.79-4.07h-16.2l0.79-4.07h4.07l2.38-12.25h-8.1
				l0.8-4.11h20.23l1.58-8.13h8.05l-1.58,8.13h20.23l-0.8,4.11h-8.1l-3.17,16.31h4.07l-0.79,4.07h4.03l-0.8,4.11H402l-2.38,12.25
				H383.47z M368.12,46.49l0.79-4.07h8.05l-0.79,4.07h4.08l-0.8,4.11h-8.1l0.8-4.11H368.12z M384.21,26.11l0.8-4.11h-4.07l-0.8,4.11
				H384.21z M385.8,17.93l0.79-4.07h-4.08l-0.79,4.07H385.8z M390.68,34.24h8.1l0.79-4.07h-8.1L390.68,34.24z M396.33,26.11
				l0.8-4.11h-4.07l-0.8,4.11H396.33z M397.92,17.93l0.79-4.07h-4.08l-0.79,4.07H397.92z"/>
			<path class="st1" d="M420.61,34.24l0.79-4.07h24.25l-0.79,4.07h-8.1l-0.8,4.11h8.1l-0.79,4.07h-8.1l-0.79,4.07h32.36l-0.8,4.11
				h-36.38l0.8-4.11h-4.03l-0.8,4.11h-8.1l2.38-12.25h8.1l-0.79,4.07h4.03l0.79-4.07h-4.03l0.8-4.11H420.61z M446.44,26.11h-24.25
				l3.97-20.42h24.25L446.44,26.11z M431.09,22h8.05l0.79-4.07h-8.05L431.09,22z M432.67,13.87h8.05l0.8-4.11h-8.05L432.67,13.87z
				 M453.65,9.75l0.79-4.07h20.23l-0.79,4.07h-8.1l-0.8,4.11h8.1l-3.96,20.38h-4.03l-0.8,4.11h4.03l-0.79,4.07h-8.1l1.59-8.18h-4.03
				l-0.8,4.11h-4.03l-0.79,4.07h-4.08l2.38-12.25h-4.03l0.79-4.07h4.03l2.38-12.25h4.08l0.8-4.11H453.65z M453.75,30.18h8.05
				l0.79-4.07h-8.05L453.75,30.18z M455.34,22h8.05l0.79-4.07h-8.05L455.34,22z"/>
			<path class="st1" d="M498.24,38.36l0.8-4.11h8.05l0.79-4.07h-12.13l0.79-4.07h4.07l0.8-4.11h-4.08l-0.8,4.11H480.4l0.8-4.11
				h16.15l0.79-4.07h4.08l0.79-4.07h-4.08l-0.79,4.07h-16.15l0.79-4.07h16.15l0.8-4.11h4.08l0.79-4.07h28.28l-4.76,24.49h-12.13
				l-0.79,4.07h12.13l-0.8,4.11H514.4l-2.38,12.25h-8.1l0.8-4.11h4.07l0.79-4.07h-4.08l-0.79,4.07h-4.03l-0.8,4.11h-24.25
				l3.18-16.36h16.15l-2.38,12.25h4.07l0.79-4.07h4.03l0.79-4.07H498.24z M483.58,9.75l0.79-4.07h16.15l-0.79,4.07H483.58z
				 M488.56,46.49l1.58-8.13h-4.03l-1.58,8.13H488.56z M508.68,26.11l1.59-8.18h-4.03l-1.59,8.18H508.68z M511.06,13.87l0.8-4.11
				h-4.03l-0.8,4.11H511.06z M524.14,50.6h-8.1l1.59-8.18h4.07l-0.79,4.07h4.03L524.14,50.6z M520.8,26.11l1.59-8.18h-4.03
				l-1.59,8.18H520.8z M523.18,13.87l0.8-4.11h-4.03l-0.8,4.11H523.18z"/>
			<path class="st1" d="M538.6,26.11l0.8-4.11h8.1l1.58-8.13h-8.1l0.8-4.11h12.13l0.79-4.07h36.38L587.91,22h-28.28l-0.8,4.11h-4.08
				l-1.58,8.13h4.08l-0.8,4.11h-4.08L550,50.6h-8.05l0.8-4.11h4.03l1.58-8.13h-4.03l-1.58,8.13h-8.1l1.58-8.13h4.03l1.59-8.18h4.07
				l0.79-4.07H538.6z M554.07,50.6l0.8-4.11H567l1.58-8.13h-8.1l0.8-4.11h8.1l0.79-4.07h-12.13l0.79-4.07h28.28l-0.79,4.07h-8.1
				l-0.79,4.07h8.1l-0.8,4.11h-8.1l-1.58,8.13h8.1l-0.8,4.11H554.07z M559.63,22l2.38-12.25h-4.08L555.56,22H559.63z M568.47,17.93
				h12.13l1.59-8.18h-12.13L568.47,17.93z"/>
		</g>
	</g>
	<g>
		<g>
			<path class="st2" d="M118.28,50.6l0.8-4.11h8.1l1.58-8.13h-4.03l1.59-8.18h8.05l-1.59,8.18h4.08l-0.79,4.07h4.03l3.17-16.31
				h-20.23l0.8-4.11h12.13l1.58-8.13h-12.13l-0.79,4.07h-4.03l-2.38,12.25h4.03l-0.79,4.07h-4.03l-3.18,16.36h-12.13l0.8-4.11h4.03
				l1.58-8.13h-4.03l0.8-4.11h4.03l3.17-16.31h-4.03l0.79-4.07h4.03l1.59-8.18h8.1l-1.59,8.18h4.03l0.8-4.11h12.13l1.58-8.13h8.1
				l-1.58,8.13h12.13l-0.8,4.11h-12.13L144.07,22h8.1l-3.18,16.36h-4.07l-1.58,8.13h8.1l-0.8,4.11h-12.13l0.8-4.11h-8.1l-0.8,4.11
				H118.28z"/>
			<path class="st2" d="M172.47,50.6l0.8-4.11h4.03l0.79-4.07h-8.05l-1.59,8.18h-8.1L165.9,22h24.25l-5.56,28.61H172.47z
				 M213.61,26.11h-20.23l0.8-4.11h-4.03l0.79-4.07h4.03l1.59-8.18h-4.03l-1.59,8.18h-24.25l1.59-8.18h4.03l0.79-4.07h4.07
				l0.79-4.07h8.05l-0.79,4.07h-4.03l-0.79,4.07h-4.03l-0.8,4.11h8.05l0.8-4.11h8.1l0.79-4.07h8.1l-0.79,4.07h4.03l0.79-4.07h12.13
				l-0.79,4.07h-8.1l-0.8,4.11h-8.05L198.25,22h8.05l0.79-4.07h8.1L213.61,26.11z M170.82,38.36h8.05l0.8-4.11h-8.05L170.82,38.36z
				 M172.41,30.18h8.05l0.79-4.07h-8.05L172.41,30.18z M208.85,50.6h-20.23l3.97-20.43h4.08l-0.79,4.07h4.03l0.79-4.07h12.13
				l-0.79,4.07h-8.1l-0.8,4.11h-8.05l-1.58,8.13h8.05l0.79-4.07h8.1L208.85,50.6z"/>
			<path class="st2" d="M218.55,50.6l0.8-4.11h4.03l1.58-8.13h-4.03l0.8-4.11h4.03l3.17-16.31h-4.03l0.79-4.07h4.03l1.59-8.18h8.1
				l-1.59,8.18h4.03l-0.79,4.07h4.08l0.79-4.07h-4.08l1.59-8.18h28.33l-3.97,20.42h-28.33l1.59-8.18h-4.03l-3.17,16.31h4.03
				l-0.8,4.11h4.08l0.8-4.11h-4.08l0.79-4.07h32.35l-0.79,4.07h-12.13l-0.8,4.11h8.1l-0.79,4.07h-8.1l-0.79,4.07h12.13l-0.8,4.11
				H250.9l0.8-4.11h-12.13l-0.8,4.11H218.55z M235.5,46.49l1.58-8.13h-4.03l-1.58,8.13H235.5z M248.42,42.42l1.59-8.18h-4.03
				l-1.59,8.18H248.42z M248.36,22h12.12l0.79-4.07h-12.13L248.36,22z M249.94,13.87h12.13l0.8-4.11h-12.13L249.94,13.87z"/>
			<path class="st2" d="M280.73,30.18l0.79-4.07h12.13l2.38-12.25h-8.1l0.8-4.11h12.13l0.79-4.07h12.13l-0.79,4.07h-8.05
				l-3.18,16.36h12.13l3.97-20.42h8.05l-3.97,20.42h8.1l-0.79,4.07h-8.1l-3.97,20.43h-8.05l3.97-20.43h-12.13l-0.79,4.07h-4.08
				l-1.59,8.18h-4.03l-1.59,8.18h-8.1l1.59-8.18h4.07l1.59-8.18h4.03l0.79-4.07H280.73z"/>
			<path class="st2" d="M383.47,50.6l0.8-4.11h8.1l1.58-8.13H361.6l0.8-4.11h20.23l0.79-4.07h-16.2l0.79-4.07h4.07l2.38-12.25h-8.1
				l0.8-4.11h20.23l1.58-8.13h8.05l-1.58,8.13h20.23l-0.8,4.11h-8.1l-3.17,16.31h4.07l-0.79,4.07h4.03l-0.8,4.11H402l-2.38,12.25
				H383.47z M368.12,46.49l0.79-4.07h8.05l-0.79,4.07h4.08l-0.8,4.11h-8.1l0.8-4.11H368.12z M384.21,26.11l0.8-4.11h-4.07l-0.8,4.11
				H384.21z M385.8,17.93l0.79-4.07h-4.08l-0.79,4.07H385.8z M390.68,34.24h8.1l0.79-4.07h-8.1L390.68,34.24z M396.33,26.11
				l0.8-4.11h-4.07l-0.8,4.11H396.33z M397.92,17.93l0.79-4.07h-4.08l-0.79,4.07H397.92z"/>
			<path class="st2" d="M420.61,34.24l0.79-4.07h24.25l-0.79,4.07h-8.1l-0.8,4.11h8.1l-0.79,4.07h-8.1l-0.79,4.07h32.36l-0.8,4.11
				h-36.38l0.8-4.11h-4.03l-0.8,4.11h-8.1l2.38-12.25h8.1l-0.79,4.07h4.03l0.79-4.07h-4.03l0.8-4.11H420.61z M446.44,26.11h-24.25
				l3.97-20.42h24.25L446.44,26.11z M431.09,22h8.05l0.79-4.07h-8.05L431.09,22z M432.67,13.87h8.05l0.8-4.11h-8.05L432.67,13.87z
				 M453.65,9.75l0.79-4.07h20.23l-0.79,4.07h-8.1l-0.8,4.11h8.1l-3.96,20.38h-4.03l-0.8,4.11h4.03l-0.79,4.07h-8.1l1.59-8.18h-4.03
				l-0.8,4.11h-4.03l-0.79,4.07h-4.08l2.38-12.25h-4.03l0.79-4.07h4.03l2.38-12.25h4.08l0.8-4.11H453.65z M453.75,30.18h8.05
				l0.79-4.07h-8.05L453.75,30.18z M455.34,22h8.05l0.79-4.07h-8.05L455.34,22z"/>
			<path class="st2" d="M498.24,38.36l0.8-4.11h8.05l0.79-4.07h-12.13l0.79-4.07h4.07l0.8-4.11h-4.08l-0.8,4.11H480.4l0.8-4.11
				h16.15l0.79-4.07h4.08l0.79-4.07h-4.08l-0.79,4.07h-16.15l0.79-4.07h16.15l0.8-4.11h4.08l0.79-4.07h28.28l-4.76,24.49h-12.13
				l-0.79,4.07h12.13l-0.8,4.11H514.4l-2.38,12.25h-8.1l0.8-4.11h4.07l0.79-4.07h-4.08l-0.79,4.07h-4.03l-0.8,4.11h-24.25
				l3.18-16.36h16.15l-2.38,12.25h4.07l0.79-4.07h4.03l0.79-4.07H498.24z M483.58,9.75l0.79-4.07h16.15l-0.79,4.07H483.58z
				 M488.56,46.49l1.58-8.13h-4.03l-1.58,8.13H488.56z M508.68,26.11l1.59-8.18h-4.03l-1.59,8.18H508.68z M511.06,13.87l0.8-4.11
				h-4.03l-0.8,4.11H511.06z M524.14,50.6h-8.1l1.59-8.18h4.07l-0.79,4.07h4.03L524.14,50.6z M520.8,26.11l1.59-8.18h-4.03
				l-1.59,8.18H520.8z M523.18,13.87l0.8-4.11h-4.03l-0.8,4.11H523.18z"/>
			<path class="st2" d="M538.6,26.11l0.8-4.11h8.1l1.58-8.13h-8.1l0.8-4.11h12.13l0.79-4.07h36.38L587.91,22h-28.28l-0.8,4.11h-4.08
				l-1.58,8.13h4.08l-0.8,4.11h-4.08L550,50.6h-8.05l0.8-4.11h4.03l1.58-8.13h-4.03l-1.58,8.13h-8.1l1.58-8.13h4.03l1.59-8.18h4.07
				l0.79-4.07H538.6z M554.07,50.6l0.8-4.11H567l1.58-8.13h-8.1l0.8-4.11h8.1l0.79-4.07h-12.13l0.79-4.07h28.28l-0.79,4.07h-8.1
				l-0.79,4.07h8.1l-0.8,4.11h-8.1l-1.58,8.13h8.1l-0.8,4.11H554.07z M559.63,22l2.38-12.25h-4.08L555.56,22H559.63z M568.47,17.93
				h12.13l1.59-8.18h-12.13L568.47,17.93z"/>
		</g>
	</g>
</g>
</svg>
